<svg width="50" height="50" viewBox="0 0 50 50" fill="none" xmlns="http://www.w3.org/2000/svg">
<g clip-path="url(#clip0_9345_14401)">
<path d="M25 50C38.8071 50 50 38.8071 50 25C50 11.1929 38.8071 0 25 0C11.1929 0 0 11.1929 0 25C0 38.8071 11.1929 50 25 50Z" fill="url(#paint0_linear_9345_14401)"/>
<path d="M41.2041 17.8707H38.9433C38.4565 17.8707 37.9922 18.0789 37.669 18.4434L35.0377 14.0556C34.2555 12.7519 32.8461 11.9531 31.3257 11.9531H18.6724C17.1512 11.9531 15.7425 12.7513 14.9603 14.0556L12.3291 18.4434C12.0052 18.0789 11.5422 17.8707 11.0547 17.8707H8.79395C8.29311 17.8707 7.88672 18.2771 7.88672 18.778V19.5096C7.88672 20.0104 8.29244 20.4168 8.79395 20.4168H11.1458L9.91668 22.4667C9.15711 23.7325 8.7567 25.1804 8.7567 26.6563V35.8903C8.7567 36.5687 9.30609 37.1181 9.98452 37.1181H12.9437C13.6221 37.1181 14.1715 36.5687 14.1715 35.8903V34.3299H35.8286V35.8903C35.8286 36.5687 36.378 37.1181 37.0557 37.1181H40.0149C40.6926 37.1181 41.242 36.5687 41.242 35.8903V26.6563C41.242 25.1811 40.8409 23.7325 40.082 22.4667L38.8522 20.4168H41.2041C41.7049 20.4168 42.1113 20.0111 42.1113 19.5096V18.778C42.1113 18.2771 41.7049 17.8707 41.2041 17.8707ZM16.0445 14.9375C16.6644 13.9232 17.7671 13.3053 18.9557 13.3053H31.0423C32.2302 13.3053 33.3337 13.9232 33.9529 14.9375L37.5466 20.8146H12.4515L16.0445 14.9375ZM17.6195 27.6893C16.6098 28.2719 15.235 28.3544 13.3993 28.2639C11.6287 28.1768 10.7448 27.094 11.1718 25.6573C11.2928 25.2489 11.7172 25.0108 12.1289 25.1212C13.7425 25.5516 15.4904 25.9201 17.3581 26.23C18.0884 26.3511 18.2613 27.3195 17.6195 27.6893ZM30.3905 32.1775H19.6069C19.527 32.1775 19.4545 32.1469 19.402 32.0971C19.3501 32.0472 19.3175 31.978 19.3175 31.9022C19.3175 31.7499 19.4472 31.6268 19.6069 31.6268H30.3905C30.4703 31.6268 30.5428 31.6581 30.5954 31.7073C30.6479 31.7572 30.6805 31.8257 30.6805 31.9022C30.6805 32.0545 30.5508 32.1775 30.3905 32.1775ZM30.3905 31.1333H19.6069C19.527 31.1333 19.4545 31.1027 19.402 31.0528C19.3501 31.0036 19.3175 30.9338 19.3175 30.8579C19.3175 30.7056 19.4472 30.5819 19.6069 30.5819H30.3905C30.4703 30.5819 30.5428 30.6138 30.5954 30.663C30.6479 30.7123 30.6805 30.7814 30.6805 30.8579C30.6805 31.0096 30.5508 31.1333 30.3905 31.1333ZM36.5981 28.2639C34.7624 28.3544 33.3869 28.2719 32.3772 27.6893C31.7361 27.3195 31.909 26.3511 32.6386 26.23C34.507 25.9201 36.2542 25.5516 37.8678 25.1212C38.2795 25.0115 38.7039 25.2496 38.8256 25.6573C39.252 27.094 38.3687 28.1768 36.5981 28.2639Z" fill="white"/>
</g>
<defs>
<linearGradient id="paint0_linear_9345_14401" x1="5.8639e-08" y1="25" x2="50" y2="25" gradientUnits="userSpaceOnUse">
<stop stop-color="#9371A8"/>
<stop offset="1" stop-color="#B49BC4"/>
</linearGradient>
<clipPath id="clip0_9345_14401">
<rect width="50" height="50" fill="white"/>
</clipPath>
</defs>
</svg>
