<svg width="50" height="50" viewBox="0 0 50 50" fill="none" xmlns="http://www.w3.org/2000/svg">
<g clip-path="url(#clip0_7642_13064)">
<path d="M25 50C38.8071 50 50 38.8071 50 25C50 11.1929 38.8071 0 25 0C11.1929 0 0 11.1929 0 25C0 38.8071 11.1929 50 25 50Z" fill="url(#paint0_linear_7642_13064)"/>
<path d="M41.2041 17.87H38.9433C38.4565 17.87 37.9922 18.0782 37.669 18.4427L35.0377 14.0548C34.2555 12.7512 32.8461 11.9524 31.3257 11.9524H18.6724C17.1512 11.9524 15.7425 12.7505 14.9603 14.0548L12.3291 18.4427C12.0052 18.0782 11.5422 17.87 11.0547 17.87H8.79395C8.29311 17.87 7.88672 18.2764 7.88672 18.7772V19.5089C7.88672 20.0097 8.29244 20.4161 8.79395 20.4161H11.1458L9.91668 22.466C9.15711 23.7317 8.7567 25.1797 8.7567 26.6556V35.8895C8.7567 36.5679 9.30609 37.1173 9.98452 37.1173H12.9437C13.6221 37.1173 14.1715 36.5679 14.1715 35.8895V34.3291H35.8286V35.8895C35.8286 36.5679 36.378 37.1173 37.0557 37.1173H40.0149C40.6926 37.1173 41.242 36.5679 41.242 35.8895V26.6556C41.242 25.1804 40.8409 23.7317 40.082 22.466L38.8522 20.4161H41.2041C41.7049 20.4161 42.1113 20.0104 42.1113 19.5089V18.7772C42.1113 18.2764 41.7049 17.87 41.2041 17.87ZM16.0445 14.9368C16.6644 13.9225 17.7671 13.3046 18.9557 13.3046H31.0423C32.2302 13.3046 33.3337 13.9225 33.9529 14.9368L37.5466 20.8138H12.4515L16.0445 14.9368ZM17.6195 27.6885C16.6098 28.2712 15.235 28.3537 13.3993 28.2632C11.6287 28.1761 10.7448 27.0933 11.1718 25.6566C11.2928 25.2482 11.7172 25.0101 12.1289 25.1205C13.7425 25.5508 15.4904 25.9193 17.3581 26.2293C18.0884 26.3503 18.2613 27.3187 17.6195 27.6885ZM30.3905 32.1768H19.6069C19.527 32.1768 19.4545 32.1462 19.402 32.0963C19.3501 32.0464 19.3175 31.9773 19.3175 31.9014C19.3175 31.7491 19.4472 31.6261 19.6069 31.6261H30.3905C30.4703 31.6261 30.5428 31.6573 30.5954 31.7066C30.6479 31.7564 30.6805 31.8249 30.6805 31.9014C30.6805 32.0538 30.5508 32.1768 30.3905 32.1768ZM30.3905 31.1326H19.6069C19.527 31.1326 19.4545 31.102 19.402 31.0521C19.3501 31.0029 19.3175 30.933 19.3175 30.8572C19.3175 30.7049 19.4472 30.5812 19.6069 30.5812H30.3905C30.4703 30.5812 30.5428 30.6131 30.5954 30.6623C30.6479 30.7115 30.6805 30.7807 30.6805 30.8572C30.6805 31.0088 30.5508 31.1326 30.3905 31.1326ZM36.5981 28.2632C34.7624 28.3537 33.3869 28.2712 32.3772 27.6885C31.7361 27.3187 31.909 26.3503 32.6386 26.2293C34.507 25.9193 36.2542 25.5508 37.8678 25.1205C38.2795 25.0108 38.7039 25.2489 38.8256 25.6566C39.252 27.0933 38.3687 28.1761 36.5981 28.2632Z" fill="white"/>
</g>
<defs>
<linearGradient id="paint0_linear_7642_13064" x1="0" y1="25" x2="50" y2="25" gradientUnits="userSpaceOnUse">
<stop stop-color="#432815"/>
<stop offset="1" stop-color="#83634C"/>
</linearGradient>
<clipPath id="clip0_7642_13064">
<rect width="50" height="50" fill="white"/>
</clipPath>
</defs>
</svg>
