<svg width="50" height="50" viewBox="0 0 50 50" fill="none" xmlns="http://www.w3.org/2000/svg">
<g clip-path="url(#clip0_9345_14704)">
<path d="M25 50C38.8071 50 50 38.8071 50 25C50 11.1929 38.8071 0 25 0C11.1929 0 0 11.1929 0 25C0 38.8071 11.1929 50 25 50Z" fill="url(#paint0_linear_9345_14704)"/>
<path d="M27.4629 19.6048C27.4629 19.6048 21.2387 16.7773 19.1455 15.8768C18.37 15.5435 17.0604 15.0161 15.921 14.8764C13.6403 14.5971 12.7324 15.5302 12.7324 15.5302L20.515 21.6174L27.4629 19.6048Z" fill="white"/>
<path d="M36.0418 17.947C32.9184 18.8722 16.3508 23.7795 13.971 24.434C10.5782 25.3665 10.1765 25.2301 8.03876 22.7206C7.80663 22.4486 7.36499 22.0023 6.92467 21.5693C6.17774 20.835 5.05501 20.6408 4.10322 21.0778L4.02407 21.1143C3.78263 21.2254 3.66557 21.5014 3.75403 21.7522C4.08327 22.6913 4.85415 24.8716 5.21597 25.7828C6.78167 29.7204 6.67193 30.7952 10.3394 31.0539C11.2161 31.1165 15.993 30.2398 21.5687 28.8185C22.5451 28.5697 23.5415 28.307 24.5398 28.0383L20.4626 41.3913C20.4626 41.3913 21.9019 41.8974 24.899 39.2103C25.7024 38.49 27.7557 34.9536 28.615 33.477C29.767 31.4976 33.2323 25.5627 33.2323 25.5627C36.2952 24.6495 38.7162 23.8879 39.6993 23.5633C41.3501 23.0173 45.0023 21.9072 45.9109 21.1556C47.6262 19.7342 43.1666 15.8379 36.0418 17.947Z" fill="white"/>
</g>
<defs>
<linearGradient id="paint0_linear_9345_14704" x1="5.8639e-08" y1="25" x2="50" y2="25" gradientUnits="userSpaceOnUse">
<stop stop-color="#9371A8"/>
<stop offset="1" stop-color="#B49BC4"/>
</linearGradient>
<clipPath id="clip0_9345_14704">
<rect width="50" height="50" fill="white"/>
</clipPath>
</defs>
</svg>
