<svg width="50" height="50" viewBox="0 0 50 50" fill="none" xmlns="http://www.w3.org/2000/svg">
<g clip-path="url(#clip0_7858_13006)">
<path d="M25 50C38.8071 50 50 38.8071 50 25C50 11.1929 38.8071 0 25 0C11.1929 0 0 11.1929 0 25C0 38.8071 11.1929 50 25 50Z" fill="url(#paint0_linear_7858_13006)"/>
<path d="M11.7365 29.8874L10.1881 33.1319C10.0185 33.4871 10.1688 33.9121 10.5239 34.0817C10.623 34.1289 10.7275 34.1516 10.8306 34.1516C11.0966 34.1516 11.3514 34.0019 11.4737 33.7458L12.0491 32.54H22.1423L22.7177 33.7458C22.84 34.0019 23.0948 34.1516 23.3608 34.1516C23.4639 34.1516 23.5683 34.1289 23.6675 34.0817C24.0226 33.9121 24.1729 33.4871 24.0033 33.1319L22.4556 29.8888H22.57C24.8015 29.8888 26.6113 28.0796 26.6113 25.8475V13.5074C26.6113 11.9165 25.5956 10.5064 24.0885 9.99626C22.4782 9.45152 20.1356 8.91211 17.1719 8.91211C14.2081 8.91211 11.8655 9.45152 10.2552 9.99626C8.74807 10.5057 7.73242 11.9165 7.73242 13.5074V25.8475C7.73242 28.067 9.52227 29.8682 11.7371 29.8874H11.7365ZM11.6533 27.4864C10.7734 27.4864 10.0597 26.7727 10.0597 25.8927C10.0597 25.0128 10.7734 24.2991 11.6533 24.2991C12.5333 24.2991 13.247 25.0128 13.247 25.8927C13.247 26.7727 12.5333 27.4864 11.6533 27.4864ZM21.4619 31.1146H12.7288L13.3141 29.8881H20.8766L21.4619 31.1146ZM22.6891 27.4864C21.8091 27.4864 21.0954 26.7727 21.0954 25.8927C21.0954 25.0128 21.8091 24.2991 22.6891 24.2991C23.569 24.2991 24.2827 25.0128 24.2827 25.8927C24.2827 26.7727 23.569 27.4864 22.6891 27.4864ZM24.4523 14.1706C24.8241 14.1706 25.1261 14.4719 25.1261 14.8443V21.9492C25.1261 22.321 24.8248 22.623 24.4523 22.623H17.7944V14.1712H24.4523V14.1706ZM14.5187 11.8912C14.5187 11.5526 14.7927 11.2786 15.1313 11.2786H19.2111C19.5497 11.2786 19.8237 11.5526 19.8237 11.8912V12.1373C19.8237 12.4758 19.5497 12.7499 19.2111 12.7499H15.1313C14.7927 12.7499 14.5187 12.4758 14.5187 12.1373V11.8912ZM9.21631 14.8443C9.21631 14.4725 9.51761 14.1706 9.89008 14.1706H16.548V22.6223H9.89008C9.51828 22.6223 9.21631 22.321 9.21631 21.9485V14.8437V14.8443Z" fill="white"/>
<path d="M37.8093 42.0187C36.8303 42.0187 36.0341 41.2226 36.0341 40.2435V39.5272H26.8907V40.2435C26.8907 41.2226 26.0945 42.0187 25.1154 42.0187H22.9844C22.0053 42.0187 21.2092 41.2226 21.2092 40.2435V29.3974C20.3778 29.3175 19.7246 28.6145 19.7246 27.7625V23.394C19.7246 22.5419 20.3771 21.8389 21.2092 21.7591V21.2217C21.2092 19.4983 22.3738 18.0011 24.0419 17.5808C25.5983 17.189 28.1491 16.7214 31.462 16.7214C34.775 16.7214 37.3258 17.1884 38.8822 17.5808C40.5503 18.0005 41.7149 19.4977 41.7149 21.2217V21.7591C42.5463 21.8389 43.1995 22.5419 43.1995 23.394V27.7625C43.1995 28.6145 42.547 29.3175 41.7149 29.3974V40.2435C41.7149 41.2226 40.9188 42.0187 39.9397 42.0187H37.8087H37.8093ZM37.5765 34.0745C37.222 34.0745 36.934 34.3625 36.934 34.717C36.934 35.0715 37.222 35.3595 37.5765 35.3595C37.931 35.3595 38.219 35.0715 38.219 34.717C38.219 34.3625 37.931 34.0745 37.5765 34.0745ZM25.3482 34.0745C24.9937 34.0745 24.7057 34.3625 24.7057 34.717C24.7057 35.0715 24.9937 35.3595 25.3482 35.3595C25.7027 35.3595 25.9907 35.0715 25.9907 34.717C25.9907 34.3625 25.7027 34.0745 25.3482 34.0745ZM38.3873 30.4902V23.1119H24.5381V30.4902H38.3873Z" fill="url(#paint1_linear_7858_13006)"/>
<path d="M41.5571 22.6823H40.7842V21.2217C40.7842 19.9294 39.9083 18.7993 38.6552 18.4841C37.0635 18.083 34.6199 17.6533 31.4625 17.6533C28.3052 17.6533 25.8615 18.0837 24.2699 18.4841C23.0168 18.7993 22.1408 19.9294 22.1408 21.2217V22.6823H21.3679C20.9748 22.6823 20.6562 23.0009 20.6562 23.394V27.7625C20.6562 28.1556 20.9748 28.4742 21.3679 28.4742H22.1408V40.2442C22.1408 40.7105 22.5186 41.0883 22.9848 41.0883H25.1159C25.5822 41.0883 25.9599 40.7105 25.9599 40.2442V38.5967H36.9657V40.2442C36.9657 40.7105 37.3435 41.0883 37.8098 41.0883H39.9408C40.4071 41.0883 40.7849 40.7105 40.7849 40.2442V28.4742H41.5578C41.9508 28.4742 42.2694 28.1556 42.2694 27.7625V23.394C42.2694 23.0009 41.9508 22.6823 41.5578 22.6823H41.5571ZM28.5154 19.4339H34.409C34.7502 19.4339 35.0262 19.7105 35.0262 20.0511C35.0262 20.3916 34.7496 20.6683 34.409 20.6683H28.5154C28.1741 20.6683 27.8981 20.3916 27.8981 20.0511C27.8981 19.7105 28.1748 19.4339 28.5154 19.4339ZM25.348 36.2907C24.4787 36.2907 23.7743 35.5864 23.7743 34.7171C23.7743 33.8478 24.4787 33.1434 25.348 33.1434C26.2173 33.1434 26.9217 33.8478 26.9217 34.7171C26.9217 35.5864 26.2173 36.2907 25.348 36.2907ZM24.2719 31.4214C23.9047 31.4214 23.6067 31.1234 23.6067 30.7563V22.8459C23.6067 22.4788 23.9047 22.1808 24.2719 22.1808H38.6532C39.0203 22.1808 39.3183 22.4788 39.3183 22.8459V30.7563C39.3183 31.1234 39.0203 31.4214 38.6532 31.4214H24.2719ZM36.0026 34.7171C36.0026 33.8478 36.707 33.1434 37.5763 33.1434C38.4456 33.1434 39.15 33.8478 39.15 34.7171C39.15 35.5864 38.4456 36.2907 37.5763 36.2907C36.707 36.2907 36.0026 35.5864 36.0026 34.7171Z" fill="white"/>
</g>
<defs>
<linearGradient id="paint0_linear_7858_13006" x1="0" y1="25" x2="50" y2="25" gradientUnits="userSpaceOnUse">
<stop stop-color="#432815"/>
<stop offset="1" stop-color="#83634C"/>
</linearGradient>
<linearGradient id="paint1_linear_7858_13006" x1="19.7246" y1="29.3701" x2="43.1995" y2="29.3701" gradientUnits="userSpaceOnUse">
<stop stop-color="#432815"/>
<stop offset="1" stop-color="#83634C"/>
</linearGradient>
<clipPath id="clip0_7858_13006">
<rect width="50" height="50" fill="white"/>
</clipPath>
</defs>
</svg>
