<svg width="50" height="50" viewBox="0 0 50 50" fill="none" xmlns="http://www.w3.org/2000/svg">
<g clip-path="url(#clip0_9345_14514)">
<path d="M25 50C38.8071 50 50 38.8071 50 25C50 11.1929 38.8071 0 25 0C11.1929 0 0 11.1929 0 25C0 38.8071 11.1929 50 25 50Z" fill="url(#paint0_linear_9345_14514)"/>
<path d="M11.7365 29.8874L10.1881 33.1319C10.0185 33.4871 10.1688 33.9121 10.5239 34.0817C10.623 34.1289 10.7275 34.1516 10.8306 34.1516C11.0966 34.1516 11.3514 34.0019 11.4737 33.7458L12.0491 32.54H22.1423L22.7177 33.7458C22.84 34.0019 23.0948 34.1516 23.3608 34.1516C23.4639 34.1516 23.5683 34.1289 23.6675 34.0817C24.0226 33.9121 24.1729 33.4871 24.0033 33.1319L22.4556 29.8888H22.57C24.8015 29.8888 26.6113 28.0796 26.6113 25.8475V13.5074C26.6113 11.9165 25.5956 10.5064 24.0885 9.99626C22.4782 9.45152 20.1356 8.91211 17.1719 8.91211C14.2081 8.91211 11.8655 9.45152 10.2552 9.99626C8.74807 10.5057 7.73242 11.9165 7.73242 13.5074V25.8475C7.73242 28.067 9.52227 29.8682 11.7371 29.8874H11.7365ZM11.6533 27.4864C10.7734 27.4864 10.0597 26.7727 10.0597 25.8927C10.0597 25.0128 10.7734 24.2991 11.6533 24.2991C12.5333 24.2991 13.247 25.0128 13.247 25.8927C13.247 26.7727 12.5333 27.4864 11.6533 27.4864ZM21.4619 31.1146H12.7288L13.3141 29.8881H20.8766L21.4619 31.1146ZM22.6891 27.4864C21.8091 27.4864 21.0954 26.7727 21.0954 25.8927C21.0954 25.0128 21.8091 24.2991 22.6891 24.2991C23.569 24.2991 24.2827 25.0128 24.2827 25.8927C24.2827 26.7727 23.569 27.4864 22.6891 27.4864ZM24.4523 14.1706C24.8241 14.1706 25.1261 14.4719 25.1261 14.8443V21.9492C25.1261 22.321 24.8248 22.623 24.4523 22.623H17.7944V14.1712H24.4523V14.1706ZM14.5187 11.8912C14.5187 11.5526 14.7927 11.2786 15.1313 11.2786H19.2111C19.5497 11.2786 19.8237 11.5526 19.8237 11.8912V12.1373C19.8237 12.4758 19.5497 12.7499 19.2111 12.7499H15.1313C14.7927 12.7499 14.5187 12.4758 14.5187 12.1373V11.8912ZM9.21631 14.8443C9.21631 14.4725 9.51761 14.1706 9.89008 14.1706H16.548V22.6223H9.89008C9.51828 22.6223 9.21631 22.321 9.21631 21.9485V14.8437V14.8443Z" fill="white"/>
<path d="M37.8093 42.018C36.8303 42.018 36.0341 41.2219 36.0341 40.2428V39.5265H26.8907V40.2428C26.8907 41.2219 26.0945 42.018 25.1154 42.018H22.9844C22.0053 42.018 21.2092 41.2219 21.2092 40.2428V29.3966C20.3778 29.3168 19.7246 28.6138 19.7246 27.7618V23.3932C19.7246 22.5412 20.3771 21.8382 21.2092 21.7584V21.2209C21.2092 19.4976 22.3738 18.0004 24.0419 17.58C25.5983 17.1883 28.1491 16.7207 31.462 16.7207C34.775 16.7207 37.3258 17.1876 38.8822 17.58C40.5503 17.9997 41.7149 19.4969 41.7149 21.2209V21.7584C42.5463 21.8382 43.1995 22.5412 43.1995 23.3932V27.7618C43.1995 28.6138 42.547 29.3168 41.7149 29.3966V40.2428C41.7149 41.2219 40.9188 42.018 39.9397 42.018H37.8087H37.8093ZM37.5765 34.0738C37.222 34.0738 36.934 34.3618 36.934 34.7163C36.934 35.0708 37.222 35.3588 37.5765 35.3588C37.931 35.3588 38.219 35.0708 38.219 34.7163C38.219 34.3618 37.931 34.0738 37.5765 34.0738ZM25.3482 34.0738C24.9937 34.0738 24.7057 34.3618 24.7057 34.7163C24.7057 35.0708 24.9937 35.3588 25.3482 35.3588C25.7027 35.3588 25.9907 35.0708 25.9907 34.7163C25.9907 34.3618 25.7027 34.0738 25.3482 34.0738ZM38.3873 30.4894V23.1112H24.5381V30.4894H38.3873Z" fill="url(#paint1_linear_9345_14514)"/>
<path d="M41.5573 22.6813H40.7845V21.2207C40.7845 19.9284 39.9085 18.7984 38.6554 18.4831C37.0638 18.082 34.6201 17.6523 31.4628 17.6523C28.3054 17.6523 25.8618 18.0827 24.2701 18.4831C23.017 18.7984 22.1411 19.9284 22.1411 21.2207V22.6813H21.3682C20.9751 22.6813 20.6565 22.9999 20.6565 23.393V27.7616C20.6565 28.1546 20.9751 28.4732 21.3682 28.4732H22.1411V40.2433C22.1411 40.7095 22.5188 41.0873 22.9851 41.0873H25.1161C25.5824 41.0873 25.9602 40.7095 25.9602 40.2433V38.5958H36.966V40.2433C36.966 40.7095 37.3438 41.0873 37.81 41.0873H39.9411C40.4073 41.0873 40.7851 40.7095 40.7851 40.2433V28.4732H41.558C41.9511 28.4732 42.2697 28.1546 42.2697 27.7616V23.393C42.2697 22.9999 41.9511 22.6813 41.558 22.6813H41.5573ZM28.5156 19.4329H34.4093C34.7505 19.4329 35.0265 19.7096 35.0265 20.0501C35.0265 20.3907 34.7498 20.6673 34.4093 20.6673H28.5156C28.1744 20.6673 27.8984 20.3907 27.8984 20.0501C27.8984 19.7096 28.1751 19.4329 28.5156 19.4329ZM25.3483 36.2898C24.479 36.2898 23.7746 35.5854 23.7746 34.7161C23.7746 33.8468 24.479 33.1424 25.3483 33.1424C26.2176 33.1424 26.922 33.8468 26.922 34.7161C26.922 35.5854 26.2176 36.2898 25.3483 36.2898ZM24.2721 31.4204C23.905 31.4204 23.607 31.1224 23.607 30.7553V22.845C23.607 22.4778 23.905 22.1798 24.2721 22.1798H38.6534C39.0206 22.1798 39.3185 22.4778 39.3185 22.845V30.7553C39.3185 31.1224 39.0206 31.4204 38.6534 31.4204H24.2721ZM36.0029 34.7161C36.0029 33.8468 36.7073 33.1424 37.5766 33.1424C38.4459 33.1424 39.1503 33.8468 39.1503 34.7161C39.1503 35.5854 38.4459 36.2898 37.5766 36.2898C36.7073 36.2898 36.0029 35.5854 36.0029 34.7161Z" fill="white"/>
</g>
<defs>
<linearGradient id="paint0_linear_9345_14514" x1="5.8639e-08" y1="25" x2="50" y2="25" gradientUnits="userSpaceOnUse">
<stop stop-color="#9371A8"/>
<stop offset="1" stop-color="#B49BC4"/>
</linearGradient>
<linearGradient id="paint1_linear_9345_14514" x1="19.7246" y1="29.3694" x2="43.1995" y2="29.3694" gradientUnits="userSpaceOnUse">
<stop stop-color="#9371A8"/>
<stop offset="1" stop-color="#B49BC4"/>
</linearGradient>
<clipPath id="clip0_9345_14514">
<rect width="50" height="50" fill="white"/>
</clipPath>
</defs>
</svg>
