<svg width="50" height="50" viewBox="0 0 50 50" fill="none" xmlns="http://www.w3.org/2000/svg">
<circle cx="25" cy="25" r="25" fill="url(#paint0_linear_9345_14578)"/>
<path d="M17.6257 37.5734L15.4676 42.0965C15.2317 42.5914 15.4413 43.1844 15.9363 43.4202C16.0741 43.4862 16.2196 43.5172 16.3632 43.5172C16.7339 43.5172 17.0901 43.3086 17.2599 42.9515L18.0624 41.2707H32.1324L32.935 42.9515C33.1058 43.3086 33.4609 43.5172 33.8316 43.5172C33.9752 43.5172 34.1208 43.4862 34.2586 43.4202C34.7535 43.1844 34.9631 42.5914 34.7273 42.0965L32.5691 37.5754H32.7283C35.8394 37.5754 38.3615 35.0533 38.3615 31.9421V14.7377C38.3615 12.5203 36.9457 10.5533 34.8447 9.84296C32.6002 9.0841 29.3338 8.33203 25.2027 8.33203C21.0717 8.33203 17.8043 9.0841 15.5597 9.84296C13.4588 10.5533 12.043 12.5203 12.043 14.7377V31.9412C12.043 35.0358 14.5379 37.5463 17.6257 37.5734ZM17.5103 34.2255C16.2837 34.2255 15.289 33.2309 15.289 32.0042C15.289 30.7777 16.2837 29.783 17.5103 29.783C18.7369 29.783 19.7315 30.7777 19.7315 32.0042C19.7315 33.2309 18.7369 34.2255 17.5103 34.2255ZM31.1843 39.2843H19.0096L19.8257 37.5744H30.3682L31.1843 39.2843ZM32.8942 34.2255C31.6676 34.2255 30.6729 33.2309 30.6729 32.0042C30.6729 30.7777 31.6676 29.783 32.8942 29.783C34.1208 29.783 35.1155 30.7777 35.1155 32.0042C35.1155 33.2309 34.1208 34.2255 32.8942 34.2255ZM35.3532 15.6625C35.8714 15.6625 36.2926 16.0827 36.2926 16.6019V26.5069C36.2926 27.0251 35.8724 27.4462 35.3532 27.4462H26.0712V15.6635H35.3532V15.6625ZM21.5045 12.4844C21.5045 12.0128 21.8868 11.6305 22.3584 11.6305H28.046C28.5176 11.6305 28.9 12.0128 28.9 12.4844V12.8279C28.9 13.2996 28.5176 13.6819 28.046 13.6819H22.3584C21.8868 13.6819 21.5045 13.2996 21.5045 12.8279V12.4844ZM14.1129 16.6019C14.1129 16.0837 14.533 15.6625 15.0522 15.6625H24.3342V27.4453H15.0512C14.533 27.4453 14.1119 27.0251 14.1119 26.5059V16.6009L14.1129 16.6019Z" fill="white"/>
<defs>
<linearGradient id="paint0_linear_9345_14578" x1="5.8639e-08" y1="25" x2="50" y2="25" gradientUnits="userSpaceOnUse">
<stop stop-color="#9371A8"/>
<stop offset="1" stop-color="#B49BC4"/>
</linearGradient>
</defs>
</svg>
