<svg width="50" height="50" viewBox="0 0 50 50" fill="none" xmlns="http://www.w3.org/2000/svg">
<g clip-path="url(#clip0_7642_13077)">
<path d="M25 50C38.8071 50 50 38.8071 50 25C50 11.1929 38.8071 0 25 0C11.1929 0 0 11.1929 0 25C0 38.8071 11.1929 50 25 50Z" fill="url(#paint0_linear_7642_13077)"/>
<path d="M38.1119 15.8473H37.1082V13.9497C37.1082 12.2709 35.9702 10.8037 34.3426 10.3939C32.2754 9.87316 29.1014 9.31445 25.0003 9.31445C20.8991 9.31445 17.7252 9.87316 15.658 10.3939C14.0304 10.8037 12.8924 12.2716 12.8924 13.9497V15.8473H11.8887C11.3786 15.8473 10.9648 16.261 10.9648 16.7712V22.4453C10.9648 22.9555 11.3786 23.3692 11.8887 23.3692H12.8924V38.657C12.8924 39.2623 13.3832 39.7532 13.9885 39.7532H16.7561C17.3613 39.7532 17.8522 39.2623 17.8522 38.657V36.5173H32.147V38.657C32.147 39.2623 32.6379 39.7532 33.2432 39.7532H36.0107C36.616 39.7532 37.1069 39.2623 37.1069 38.657V23.3692H38.1105C38.6207 23.3692 39.0344 22.9555 39.0344 22.4453V16.7712C39.0344 16.261 38.6207 15.8473 38.1105 15.8473H38.1119ZM21.1725 11.6278H28.8274C29.2704 11.6278 29.6295 11.9869 29.6295 12.4299C29.6295 12.8729 29.2704 13.232 28.8274 13.232H21.1725C20.7295 13.232 20.3704 12.8729 20.3704 12.4299C20.3704 11.9869 20.7295 11.6278 21.1725 11.6278ZM17.0587 33.523C15.93 33.523 15.0148 32.6077 15.0148 31.479C15.0148 30.3503 15.93 29.4351 17.0587 29.4351C18.1874 29.4351 19.1026 30.3503 19.1026 31.479C19.1026 32.6077 18.1874 33.523 17.0587 33.523ZM15.6606 27.1983C15.1837 27.1983 14.7966 26.8112 14.7966 26.3343V16.0601C14.7966 15.5832 15.1837 15.1961 15.6606 15.1961H34.3399C34.8168 15.1961 35.2039 15.5832 35.2039 16.0601V26.3343C35.2039 26.8112 34.8168 27.1983 34.3399 27.1983H15.6606ZM30.8979 31.479C30.8979 30.3503 31.8131 29.4351 32.9419 29.4351C34.0706 29.4351 34.9858 30.3503 34.9858 31.479C34.9858 32.6077 34.0706 33.523 32.9419 33.523C31.8131 33.523 30.8979 32.6077 30.8979 31.479Z" fill="white"/>
</g>
<defs>
<linearGradient id="paint0_linear_7642_13077" x1="0" y1="25" x2="50" y2="25" gradientUnits="userSpaceOnUse">
<stop stop-color="#432815"/>
<stop offset="1" stop-color="#83634C"/>
</linearGradient>
<clipPath id="clip0_7642_13077">
<rect width="50" height="50" fill="white"/>
</clipPath>
</defs>
</svg>
