<svg width="40" height="40" viewBox="0 0 40 40" fill="none" xmlns="http://www.w3.org/2000/svg">
<path d="M9.32728 2.82809C6.53947 5.46384 5.67963 10.1705 9.75453 11.639C10.0963 11.7681 10.3954 11.8112 10.0963 11.4239C9.79726 11.0366 8.46744 9.78324 8.72379 7.49175C8.76651 7.01839 8.85196 7.10984 8.89469 7.4541C8.93741 7.79836 9.29524 10.0845 10.8707 11.0742C11.2125 11.2894 11.4262 11.2464 11.4742 10.6869C11.5169 10.1275 12.0724 8.87418 11.2179 7.01839C10.358 5.16261 9.67442 4.08142 9.75987 3.08629C9.8026 2.78506 9.50352 2.56989 9.33262 2.82809H9.32728Z" fill="#EFEAE6"/>
<path d="M39.7732 17.993C38.7371 16.4761 36.6009 15.7445 35.6395 17.5895C35.5541 17.7455 35.5167 17.8854 35.7143 17.767C35.9173 17.6487 36.5902 17.1 37.6369 17.3797C37.8559 17.4335 37.8078 17.4658 37.6369 17.4604C37.4714 17.4604 36.3872 17.4712 35.8158 18.1543C35.6929 18.2996 35.6983 18.4071 35.9546 18.4663C36.211 18.5255 36.7611 18.8805 37.6797 18.5954C38.6036 18.3157 39.1537 18.0575 39.6076 18.1705C39.7465 18.2135 39.8693 18.0844 39.7572 17.9822L39.7732 17.993Z" fill="#EFEAE6"/>
<path d="M29.8877 10.0802C28.152 10.8387 26.9664 12.8935 28.6273 14.2652C28.7662 14.3835 28.8997 14.4534 28.8249 14.2221C28.7502 13.9908 28.3389 13.1786 28.8356 12.1566C28.9318 11.9414 28.9585 12.0006 28.9211 12.1673C28.8837 12.3341 28.6754 13.4637 29.2415 14.1899C29.3643 14.3512 29.4712 14.3674 29.5833 14.1092C29.6955 13.8563 30.1654 13.3615 30.0747 12.3502C29.9839 11.3389 29.8397 10.7203 30.0479 10.2685C30.1174 10.134 30.0159 9.98341 29.8931 10.0749L29.8877 10.0802Z" fill="#EFEAE6"/>
<path d="M27.9249 37.2376C28.3681 35.1881 27.3054 32.8106 25.0302 33.4184C24.838 33.4668 24.6884 33.5421 24.9395 33.6228C25.1958 33.7035 26.1731 33.8541 26.7606 34.9622C26.8888 35.1881 26.8194 35.172 26.6965 35.0268C26.5737 34.8869 25.7085 33.9725 24.6991 34.0209C24.4802 34.0316 24.3947 34.1177 24.5496 34.3813C24.7045 34.6449 24.838 35.3818 25.794 35.9466C26.7499 36.5114 27.3908 36.7803 27.6525 37.2537C27.7273 37.4043 27.9249 37.4097 27.9249 37.2376Z" fill="#EFEAE6"/>
<path d="M24.479 0.153433C22.3855 0.852713 20.8046 3.09579 22.5831 4.86013C22.7326 5.01074 22.8768 5.10757 22.8127 4.83323C22.7486 4.5589 22.3587 3.57991 23.0423 2.44492C23.1812 2.20824 23.2026 2.27817 23.1385 2.46644C23.0797 2.6547 22.7166 3.93493 23.2987 4.83861C23.4269 5.03764 23.5497 5.06453 23.7046 4.78482C23.8595 4.50511 24.4523 3.98334 24.4523 2.80532C24.4523 1.6273 24.3508 0.895746 24.6339 0.395491C24.73 0.244877 24.6232 0.0619883 24.4736 0.153433H24.479Z" fill="#EFEAE6"/>
<path d="M2.8298 29.9685C4.78447 29.9093 6.69108 28.3978 5.62295 26.4452C5.53216 26.2785 5.43603 26.1601 5.42001 26.4129C5.40398 26.6658 5.49478 27.5963 4.62425 28.3871C4.44801 28.5538 4.44801 28.4893 4.54948 28.344C4.65096 28.1988 5.27581 27.1983 5.00878 26.2838C4.95003 26.0848 4.8539 26.031 4.65096 26.23C4.44801 26.4291 3.81248 26.7195 3.51874 27.7254C3.22501 28.7259 3.12353 29.3768 2.75503 29.7265C2.63754 29.8287 2.68026 30.0169 2.8298 29.9739V29.9685Z" fill="#EFEAE6"/>
<path d="M0.96934 26.6048C1.03877 23.2859 3.53818 20.01 6.82801 21.7905C7.10573 21.9411 7.30867 22.1079 6.88676 22.1348C6.46485 22.1671 4.90005 22.0326 3.59159 23.5172C3.31388 23.8184 3.42069 23.8184 3.66636 23.6463C3.91203 23.4742 5.57297 22.3876 7.11107 22.8287C7.44753 22.9255 7.54366 23.0869 7.21254 23.4419C6.88142 23.7969 6.40611 24.8781 4.72915 25.3945C3.05219 25.9109 1.96804 26.0938 1.38591 26.7231C1.22035 26.9222 0.905253 26.8576 0.974681 26.594L0.96934 26.6048Z" fill="#EFEAE6"/>
<path d="M25.8082 1.7181C27.8964 0.997308 30.5133 1.85796 30.1715 4.38075C30.1448 4.59591 30.086 4.76266 29.9685 4.49909C29.851 4.23551 29.5733 3.19735 28.3396 2.6971C28.0886 2.58414 28.11 2.65406 28.2755 2.7724C28.4411 2.89074 29.5039 3.70836 29.584 4.80032C29.6 5.037 29.5199 5.1392 29.2262 5.00472C28.9324 4.87024 28.142 4.81107 27.4317 3.8536C26.7161 2.89074 26.3529 2.23988 25.8242 2.00857C25.6586 1.94403 25.6319 1.72886 25.8082 1.71273V1.7181Z" fill="#EFEAE6"/>
<path d="M18.0518 30.9801C16.1986 32.1742 13.4482 31.9698 13.1919 29.4363C13.1652 29.2211 13.1812 29.0436 13.3574 29.2749C13.5337 29.5008 14.0464 30.4422 15.3655 30.6358C15.6379 30.6842 15.5951 30.6197 15.4082 30.5444C15.2213 30.4691 13.993 29.9258 13.6565 28.8876C13.5817 28.6617 13.6405 28.5434 13.9556 28.6025C14.276 28.6617 15.0504 28.5272 15.969 29.2911C16.8876 30.0549 17.4003 30.6036 17.9664 30.7004C18.1426 30.7219 18.2227 30.9209 18.0518 30.9801Z" fill="#EFEAE6"/>
<path d="M30.7074 21.4957C31.8556 22.9964 31.8823 25.3632 29.7621 25.772C29.5805 25.8097 29.431 25.8097 29.6125 25.6376C29.7941 25.4708 30.5471 24.9598 30.6112 23.8194C30.6326 23.5827 30.5792 23.6258 30.5311 23.7925C30.4831 23.9593 30.1146 25.0459 29.2601 25.4116C29.0731 25.4923 28.9717 25.4547 28.9984 25.175C29.0251 24.8952 28.8542 24.2444 29.431 23.3999C30.0077 22.5553 30.4297 22.082 30.4724 21.5871C30.4724 21.4365 30.6433 21.3558 30.702 21.4957H30.7074Z" fill="#EFEAE6"/>
<path d="M0.209954 16.8193C2.90697 13.7963 7.8257 12.7743 9.45993 17.0721C9.60413 17.4325 9.65754 17.7553 9.24097 17.4433C8.8244 17.1313 7.4839 15.7489 5.09129 16.077C4.59461 16.1362 4.69609 16.2223 5.05925 16.2599C5.42241 16.2976 7.8257 16.6257 8.89917 18.2771C9.13415 18.6375 9.09143 18.8634 8.50396 18.9225C7.91649 18.9817 6.61337 19.6057 4.64802 18.7343C2.68267 17.8629 1.53443 17.1582 0.493007 17.2766C0.17791 17.3303 -0.0570781 17.0184 0.209954 16.8247V16.8193Z" fill="#EFEAE6"/>
<path d="M25.8672 38.7882C23.3731 39.9608 20.1153 39.24 20.3717 36.0664C20.3877 35.7974 20.4464 35.5822 20.612 35.8942C20.7722 36.2062 21.1834 37.4542 22.7215 37.9114C23.0366 38.0136 22.9993 37.9329 22.791 37.8092C22.5827 37.6855 21.2315 36.8087 21.0606 35.4639C21.0232 35.1734 21.114 35.039 21.4825 35.1627C21.851 35.2918 22.8177 35.2541 23.7523 36.3515C24.6869 37.4488 25.1782 38.2126 25.8351 38.4278C26.0381 38.4816 26.0915 38.7451 25.8725 38.7936L25.8672 38.7882Z" fill="#EFEAE6"/>
<path d="M39.9429 19.1781C38.597 22.7821 34.6129 25.3909 31.7023 22.1635C31.4513 21.8945 31.2964 21.6309 31.7664 21.76C32.2417 21.8891 33.8973 22.6422 35.9 21.5287C36.3166 21.3028 36.1991 21.2652 35.868 21.3566C35.5368 21.4481 33.3045 21.9913 31.7931 20.9101C31.4619 20.6735 31.4192 20.4583 31.9212 20.2055C32.4179 19.9473 33.3525 18.9468 35.3873 19.0328C37.4168 19.1189 38.6718 19.3395 39.5477 18.8769C39.8094 18.7209 40.1245 18.9199 39.9482 19.1781H39.9429Z" fill="#EFEAE6"/>
<path d="M25.3906 11.37C24.5948 10.8859 24.4079 9.95533 24.4079 9.95533C24.3972 9.89616 24.4399 9.83699 24.4987 9.82085C24.4987 9.82085 25.4707 9.58955 26.2664 10.0737C27.0622 10.5578 27.2491 11.4884 27.2491 11.4884C27.2598 11.5475 27.2224 11.6121 27.1583 11.6228C27.1583 11.6228 26.1863 11.8541 25.3906 11.37Z" fill="#EFEAE6"/>
<path d="M8.17859 21.5723C8.26404 20.4696 9.1399 19.7757 9.1399 19.7757C9.19865 19.7327 9.2841 19.7434 9.33217 19.8026C9.33217 19.8026 10.0905 20.7116 10.0051 21.8197C9.91964 22.9224 9.04377 23.6164 9.04377 23.6164C8.98503 23.6648 8.89957 23.654 8.85151 23.5948C8.85151 23.5948 8.09314 22.6858 8.17859 21.5777V21.5723Z" fill="#EFEAE6"/>
<path d="M19.855 30.2992C20.827 29.7828 21.8791 30.1648 21.8791 30.1648C21.9485 30.1917 21.9806 30.2723 21.9592 30.3423C21.9592 30.3423 21.5961 31.4719 20.6187 31.9883C19.6467 32.5047 18.5946 32.1227 18.5946 32.1227C18.5252 32.0959 18.4878 32.0205 18.5145 31.9452C18.5145 31.9452 18.8777 30.8156 19.855 30.2992Z" fill="#EFEAE6"/>
<path d="M24.999 32.2427C24.4383 33.3723 22.9536 33.6466 22.9536 33.6466C22.8574 33.6628 22.7453 33.6036 22.7026 33.5175C22.7026 33.5175 22.0296 32.1566 22.5958 31.027C23.1565 29.8974 24.6412 29.6231 24.6412 29.6231C24.7373 29.6016 24.8495 29.6607 24.8922 29.7522C24.8922 29.7522 25.5598 31.1131 24.999 32.2427Z" fill="#EFEAE6"/>
<path d="M31.1483 35.1511C33.3166 35.178 35.5009 33.5966 34.4114 31.3858C34.3206 31.1975 34.2138 31.0576 34.1871 31.3374C34.155 31.6117 34.2138 32.6499 33.2098 33.4836C33.0068 33.6611 33.0122 33.5858 33.1296 33.4298C33.2471 33.2738 33.9895 32.198 33.7385 31.1706C33.6851 30.9447 33.5783 30.8801 33.3379 31.0899C33.1029 31.2997 32.3873 31.5902 32.0135 32.6929C31.6396 33.7902 31.4954 34.5003 31.0735 34.8714C30.9346 34.979 30.9774 35.1834 31.1429 35.1457L31.1483 35.1511Z" fill="#EFEAE6"/>
<path d="M34.6422 30.1304C33.9693 29.3021 34.2257 28.0111 34.2257 28.0111C34.247 27.925 34.3218 27.8551 34.4019 27.8497C34.4019 27.8497 35.6409 27.7636 36.3139 28.592C36.9868 29.4204 36.7304 30.7114 36.7304 30.7114C36.7144 30.7975 36.6343 30.8674 36.5542 30.8728C36.5542 30.8728 35.3152 30.9588 34.6422 30.1304Z" fill="#EFEAE6"/>
<path d="M36.774 27.2877C35.284 27.4437 34.0557 26.1097 34.0557 26.1097C33.9755 26.0236 33.9649 25.873 34.0236 25.7708C34.0236 25.7708 34.9582 24.2162 36.4483 24.0602C37.9383 23.9096 39.1666 25.2383 39.1666 25.2383C39.2467 25.3243 39.2628 25.4749 39.204 25.5771C39.204 25.5771 38.2694 27.1317 36.7794 27.2877H36.774Z" fill="#EFEAE6"/>
<path d="M3.88534 11.8771C2.91335 10.6292 3.34594 8.75188 3.34594 8.75188C3.37264 8.62816 3.49014 8.53134 3.61297 8.52596C3.61297 8.52596 5.45549 8.46141 6.42748 9.70936C7.39948 10.9573 6.97223 12.8292 6.97223 12.8292C6.94552 12.9476 6.82803 13.0551 6.7052 13.0551C6.7052 13.0551 4.86268 13.1197 3.89068 11.8717L3.88534 11.8771Z" fill="#EFEAE6"/>
<path d="M12.0463 1.90718C12.6712 1.00349 13.985 0.955078 13.985 0.955078C14.0704 0.955078 14.1612 1.01425 14.1879 1.09493C14.1879 1.09493 14.5992 2.35364 13.9743 3.25732C13.3495 4.16101 12.0357 4.20942 12.0357 4.20942C11.9502 4.20942 11.8594 4.15025 11.8327 4.06957C11.8327 4.06957 11.4268 2.81086 12.0517 1.90718H12.0463Z" fill="#EFEAE6"/>
<path d="M2.83254 13.2429C2.83254 13.6948 2.46937 14.0605 2.02076 14.0605C1.57215 14.0605 1.20898 13.6948 1.20898 13.2429C1.20898 12.7911 1.57215 12.4253 2.02076 12.4253C2.46937 12.4253 2.83254 12.7911 2.83254 13.2429Z" fill="#EFEAE6"/>
<path d="M30.9575 36.2917C30.9575 36.7436 30.5944 37.1094 30.1458 37.1094C29.6971 37.1094 29.334 36.7436 29.334 36.2917C29.334 35.8399 29.6971 35.4741 30.1458 35.4741C30.5944 35.4741 30.9575 35.8399 30.9575 36.2917Z" fill="#EFEAE6"/>
<path d="M5.95754 31.8777C5.95754 32.3295 5.59437 32.6953 5.14576 32.6953C4.69715 32.6953 4.33398 32.3295 4.33398 31.8777C4.33398 31.4258 4.69715 31.0601 5.14576 31.0601C5.59437 31.0601 5.95754 31.4258 5.95754 31.8777Z" fill="#EFEAE6"/>
<path d="M33.2818 26.6567C33.2818 27.0117 32.9934 27.3022 32.6409 27.3022C32.2884 27.3022 32 27.0117 32 26.6567C32 26.3017 32.2884 26.0112 32.6409 26.0112C32.9934 26.0112 33.2818 26.3017 33.2818 26.6567Z" fill="#EFEAE6"/>
<path d="M1.84786 20.3363C1.84786 20.8527 1.43663 21.2669 0.92393 21.2669C0.411229 21.2669 0 20.8527 0 20.3363C0 19.82 0.411229 19.4058 0.92393 19.4058C1.43663 19.4058 1.84786 19.82 1.84786 20.3363Z" fill="#EFEAE6"/>
<path d="M29.7307 7.18449C29.7307 7.6955 29.3194 8.11507 28.8067 8.11507C28.294 8.11507 27.8828 7.70088 27.8828 7.18449C27.8828 6.6681 28.2994 6.25391 28.8067 6.25391C29.3141 6.25391 29.7307 6.67347 29.7307 7.18449Z" fill="#EFEAE6"/>
<path d="M20.557 0.540503C20.76 2.48773 21.6786 9.21696 14.3512 11.1696C14.0041 11.3471 13.8438 11.1696 14.2337 10.8791C14.6236 10.5886 18.095 7.12988 18.3246 4.77384C18.3887 4.07456 18.111 4.60171 18.095 4.74156C18.079 4.88142 16.3646 8.37244 13.219 10.6263C12.8558 10.9383 12.6903 10.707 12.8452 10.0292C13 9.35143 11.8304 6.00027 15.163 3.16549C16.3753 2.13271 19.2699 1.50336 20.0336 0.185484C20.1511 -0.0189209 20.4716 -0.217947 20.5517 0.545882L20.557 0.540503Z" fill="#EFEAE6"/>
<path d="M37.3798 10.3439C37.3691 12.0544 37.5186 17.9929 30.9603 18.9773C30.6399 19.0956 30.517 18.9235 30.8855 18.7137C31.254 18.4985 34.608 15.8305 35.0299 13.8026C35.1527 13.2001 34.859 13.6305 34.8323 13.7542C34.8056 13.8725 32.9791 16.7396 30.0257 18.391C29.6839 18.6276 29.5611 18.4125 29.7587 17.8369C29.9563 17.2614 29.2673 14.2329 32.4343 12.0974C33.5932 11.3175 36.1621 11.0539 36.9578 9.98346C37.0807 9.81671 37.3798 9.67685 37.3744 10.3492L37.3798 10.3439Z" fill="#EFEAE6"/>
<path d="M12.6839 27.8263C12.6839 27.6004 12.0911 27.4175 11.3541 27.4175C11.2793 27.4175 11.2099 27.4175 11.1405 27.4175C11.2045 27.3853 11.2633 27.353 11.3274 27.3153C11.9629 26.9442 12.3902 26.487 12.2727 26.2879C12.1605 26.0889 11.557 26.2341 10.9162 26.5999C10.8521 26.6376 10.7933 26.6752 10.7292 26.7129C10.7666 26.6537 10.804 26.5892 10.8414 26.53C11.2099 25.8899 11.3487 25.2767 11.1511 25.1637C10.9589 25.0507 10.4996 25.4757 10.1311 26.1158C10.0937 26.1803 10.0617 26.2449 10.0296 26.3094C10.0296 26.2341 10.0349 26.1642 10.0349 26.0889C10.0349 25.352 9.85337 24.7495 9.62906 24.7495C9.40475 24.7495 9.22317 25.352 9.22317 26.0889C9.22317 26.1642 9.22317 26.2341 9.22851 26.3094C9.19647 26.2449 9.16443 26.1803 9.12704 26.1158C8.75854 25.4757 8.30458 25.0454 8.10698 25.1637C7.90938 25.2767 8.04823 25.8899 8.41674 26.53C8.45412 26.5945 8.49151 26.6591 8.52889 26.7183C8.47014 26.6806 8.40606 26.6429 8.34197 26.6053C7.70643 26.2341 7.0976 26.0943 6.98545 26.2933C6.87329 26.4923 7.2952 26.9496 7.93074 27.3207C7.99483 27.3584 8.05891 27.3906 8.123 27.4229C8.05357 27.4229 7.97881 27.4229 7.90404 27.4229C7.16703 27.4229 6.57422 27.6058 6.57422 27.8317C6.57422 28.0576 7.16703 28.2405 7.90404 28.2405C7.97881 28.2405 8.04823 28.2405 8.123 28.2352C8.05891 28.2674 7.99483 28.2997 7.93074 28.3427C7.2952 28.7139 6.87329 29.1711 6.98545 29.3648C7.0976 29.5638 7.70643 29.4239 8.34197 29.0528C8.40606 29.0151 8.47014 28.9775 8.52889 28.9398C8.49151 28.999 8.45412 29.0582 8.41674 29.1227C8.04823 29.7628 7.90938 30.376 8.10698 30.489C8.29924 30.602 8.75854 30.177 9.12704 29.5315C9.16443 29.467 9.19647 29.4024 9.22851 29.3379C9.22851 29.4078 9.22317 29.4831 9.22317 29.553C9.22317 30.2953 9.40475 30.8924 9.62906 30.8924C9.85337 30.8924 10.0349 30.2953 10.0349 29.553C10.0349 29.4777 10.0349 29.4078 10.0296 29.3379C10.0617 29.4024 10.0937 29.467 10.1311 29.5315C10.4996 30.1716 10.9535 30.602 11.1511 30.489C11.3487 30.376 11.2099 29.7628 10.8414 29.1227C10.804 29.0582 10.7666 28.999 10.7292 28.9344C10.788 28.9721 10.8521 29.0097 10.9162 29.0474C11.5517 29.4186 12.1605 29.5584 12.2727 29.3594C12.3848 29.1604 11.9629 28.7031 11.3274 28.3374C11.2633 28.2997 11.1992 28.2674 11.1351 28.2298C11.2045 28.2298 11.2793 28.2352 11.3541 28.2352C12.0911 28.2352 12.6839 28.0523 12.6839 27.8263ZM9.63974 28.9721C9.02023 28.9721 8.52355 28.4665 8.52355 27.8479C8.52355 27.2293 9.02557 26.7236 9.63974 26.7236C10.2539 26.7236 10.7559 27.2293 10.7559 27.8479C10.7559 28.4665 10.2539 28.9721 9.63974 28.9721Z" fill="#EFEAE6"/>
<path d="M32.7465 29.4092C32.7038 29.0811 31.94 28.4356 31.0054 28.6777C31.5609 27.9192 31.3312 26.8972 31.1016 26.7466C30.8506 26.5906 30.7758 26.7089 30.5889 26.6229C30.4019 26.5422 30.434 26.4077 30.1509 26.327C29.8252 26.2356 28.8852 26.7089 28.7731 27.7363C28.3031 26.9456 27.3204 26.7466 27.0961 26.8972C26.8504 27.064 26.9252 27.1823 26.7703 27.3168C26.6154 27.4566 26.5086 27.3652 26.3217 27.5965C26.0867 27.8762 26.1508 29.0488 27.2082 29.533C26.2469 29.9364 25.9959 31.0875 26.1561 31.3349C26.3217 31.5824 26.4392 31.5071 26.5781 31.6631C26.7116 31.8191 26.6315 31.9266 26.8558 32.1149C27.0747 32.2978 27.8491 32.2978 28.4045 31.7653C28.4847 32.5721 29.1042 33.1638 29.3552 33.1638C29.6543 33.1638 29.6543 33.0186 29.8572 32.9863C30.0601 32.9541 30.1029 33.0831 30.3859 32.9971C30.7064 32.9003 31.2351 32.0127 30.8078 31.0929C31.7798 31.421 32.7198 30.7433 32.7572 30.4528C32.7999 30.1569 32.6664 30.1354 32.6664 29.9256C32.6664 29.7212 32.7999 29.6943 32.7625 29.4039L32.7465 29.4092ZM30.0922 30.0655C29.8786 30.5604 29.3071 30.7809 28.8211 30.5657C28.3298 30.3452 28.1108 29.775 28.3244 29.2855C28.5381 28.7906 29.1095 28.5701 29.5955 28.7853C30.0815 29.0004 30.3058 29.576 30.0922 30.0709V30.0655Z" fill="#EFEAE6"/>
<path fill-rule="evenodd" clip-rule="evenodd" d="M6.62986 34.0603C6.60315 33.5762 7.14256 33.1512 7.83684 33.1082H7.86354H7.8849H7.92229H7.98104H7.99706H8.03444H8.04512H8.06649H8.08785H8.09853V33.0974V33.092V33.0813V33.0759V33.0651H8.08785V33.0598V33.049V33.0436V33.0329V33.0275V33.0167H8.08251V33.006V32.9952V32.9845V32.9737H8.07717V32.9683V32.9576V32.9522V32.9468L8.06649 32.9253V32.9091H8.05581V32.9038V32.8984V32.8876V32.8715C7.79945 32.2206 7.95433 31.5482 8.40295 31.3707C8.85156 31.1932 9.42301 31.5805 9.67402 32.2314L9.6847 32.2637L9.69538 32.2905V32.2959L9.70606 32.3228L9.71674 32.3497L9.72742 32.382V32.4089H9.7381V32.4143V32.4358H9.74344V32.4412V32.4519V32.4573V32.4627V32.4734V32.4842V32.495V32.4896H9.74879V32.4788V32.4734V32.4681V32.4627V32.4573L9.75413 32.4519V32.4465V32.4412L9.75947 32.4304V32.425V32.4196L9.76481 32.4089L9.77015 32.3981V32.3928V32.3874V32.382V32.3766V32.3712L9.78083 32.3605L9.80219 32.339L9.81821 32.3228C10.3576 31.8764 11.0412 31.8226 11.3456 32.1991C11.6501 32.5756 11.4631 33.2373 10.9237 33.6837L10.897 33.7052L10.881 33.7214L10.8596 33.7375L10.849 33.7483H10.8383V33.759V33.7644L10.8329 33.7698L10.8276 33.7752V33.7806L10.8223 33.7859H10.8329H10.8436V33.7913H10.849H10.8543H10.8596V33.7967H10.865H10.8757V33.8075L10.9024 33.8182L10.9291 33.8343L10.9558 33.8505C11.5432 34.227 11.8049 34.8671 11.5432 35.2759C11.2815 35.6847 10.5979 35.7116 10.0105 35.3351L9.98911 35.319L9.97309 35.3082L9.95707 35.2975V35.2921H9.95173V35.2867L9.94639 35.2813V35.2759V35.2706V35.2652H9.94105V35.2544V35.249H9.93571V35.2383V35.2329L9.92503 35.2221V35.2168H9.91969V35.206C9.909 35.2975 9.89298 35.3997 9.86628 35.4965C9.69004 36.1742 9.172 36.6261 8.70202 36.5024C8.23739 36.3786 8.0024 35.7278 8.1733 35.05C8.2 34.9478 8.23205 34.8564 8.27477 34.7649L8.25875 34.7703H8.24807H8.24273H8.23205H8.22136H8.21068H8.2H8.19466H8.18932H8.17864H8.16262H8.15194H8.13591H8.11989H8.10387H8.08251H8.06115H8.05581C7.36152 34.8133 6.77405 34.4529 6.74735 33.9688L6.62986 34.0603Z" fill="#EFEAE6"/>
<path fill-rule="evenodd" clip-rule="evenodd" d="M9.20801 14.7211C9.02108 14.506 9.12256 14.1133 9.43231 13.8443L9.44299 13.8336L9.44833 13.8282L9.45902 13.8175L9.4697 13.8067H9.48038V13.7959V13.7906H9.47504H9.4697H9.46436H9.45902H9.44833V13.7852L9.43765 13.7798H9.43231C9.08517 13.5646 8.91961 13.1935 9.06381 12.9514C9.20801 12.7094 9.60855 12.6825 9.96103 12.8923L9.97706 12.903L9.98774 12.9138L9.99842 12.9245L10.0144 12.9353L10.0305 12.946L10.0411 12.9568L10.0518 12.9676V12.9729V12.9783V12.9676V12.9568V12.946V12.9353V12.9299V12.9245V12.9138V12.9084V12.8923V12.8869V12.8761V12.8707V12.86V12.8385V12.8277C10.148 12.4297 10.447 12.1553 10.7194 12.2199C10.9918 12.2844 11.1413 12.6609 11.0505 13.059V13.0805H11.0452V13.0967V13.1128V13.1236V13.1397V13.1451V13.1558V13.1612V13.1666V13.172V13.1773H11.0559H11.0612H11.0665H11.0719H11.0772H11.0826H11.0879H11.0986H11.1093H11.12H11.1413H11.1627H11.1787C11.5846 13.1397 11.9317 13.3441 11.9584 13.6238C11.9851 13.9089 11.6754 14.1671 11.2695 14.1994H11.2481H11.2374H11.2001H11.168H11.1306H11.12C11.152 14.2478 11.1787 14.3016 11.2001 14.3554C11.3603 14.7319 11.2748 15.1299 11.0185 15.2429C10.7568 15.3559 10.4203 15.1353 10.2601 14.7588C10.2387 14.705 10.2174 14.6512 10.2067 14.592V14.5974V14.6028V14.6082L10.2014 14.6136L10.1907 14.6243H10.1853V14.6351C9.87558 14.904 9.48038 14.9471 9.29346 14.7319L9.20801 14.7211Z" fill="#EFEAE6"/>
<path fill-rule="evenodd" clip-rule="evenodd" d="M21.5335 10.0533C21.2504 10.0318 21.0528 9.68212 21.0795 9.2733V9.25717V9.24641V9.23565V9.21951V9.20338V9.18724V9.18186V9.1711V9.16572V9.16034V9.15497V9.14959V9.13883H21.0688H21.0635H21.0582H21.0528H21.0314H21.0208H21.0154H21.0101C20.6149 9.23565 20.241 9.09042 20.1716 8.81608C20.1075 8.53637 20.3745 8.23514 20.7698 8.1437H20.7911V8.13832H20.8018H20.8178H20.8338H20.8499H20.8659H20.8819H20.8926H20.9086V8.13294V8.12756V8.12218V8.1168V8.11142V8.10604L20.8979 8.09529L20.8873 8.07915C20.6736 7.72951 20.695 7.32608 20.9353 7.17546C21.1756 7.02485 21.5441 7.18622 21.7578 7.54124L21.7685 7.55738V7.56814H21.7738L21.7791 7.58427V7.59503V7.60579V7.61117V7.61655V7.62193V7.62731V7.63269V7.62193V7.61655V7.60579V7.60041V7.58965L21.7898 7.57352L21.8005 7.55738L21.8112 7.54124C22.0729 7.22925 22.4627 7.12705 22.6764 7.30994C22.89 7.49283 22.8526 7.89626 22.5856 8.20825L22.5749 8.21901V8.22976H22.5642L22.5535 8.24052V8.2459V8.25128L22.5482 8.25666C22.6069 8.26742 22.6603 8.28893 22.7137 8.31045C23.0929 8.46644 23.3066 8.80533 23.1997 9.0689C23.0929 9.33248 22.6977 9.41854 22.3239 9.26255C22.2705 9.24103 22.2171 9.20876 22.169 9.18186V9.19262V9.20338V9.21414V9.21951V9.23027V9.24103V9.25179V9.26255V9.2733V9.27868V9.28944V9.3002V9.30558V9.31634V9.33248V9.34323C22.137 9.75742 21.8859 10.0694 21.6029 10.0479L21.5335 10.0533Z" fill="#EFEAE6"/>
<path d="M26.3607 6.57825C26.3607 6.57825 26.3393 6.57825 26.334 6.57287C26.3393 6.57287 26.35 6.56211 26.3607 6.55673C26.9268 6.17482 27.2846 5.71759 27.1671 5.53471C27.0443 5.35182 26.4888 5.51319 25.9227 5.88972C25.9121 5.8951 25.9067 5.90048 25.9014 5.90586C25.9014 5.8951 25.9014 5.88972 25.9067 5.87897C26.0402 5.20658 25.9708 4.62564 25.7572 4.58261C25.5436 4.53958 25.2605 5.05059 25.127 5.72297C25.127 5.73373 25.127 5.74449 25.127 5.74987C25.127 5.73911 25.1163 5.73373 25.111 5.72297C24.7318 5.15279 24.2778 4.79239 24.0962 4.91073C23.9147 5.03445 24.0695 5.59388 24.4487 6.16406C24.4541 6.16944 24.4594 6.18019 24.4647 6.18557C24.4541 6.18557 24.4434 6.18557 24.438 6.1802C23.7705 6.04572 23.1937 6.11565 23.1509 6.33081C23.1082 6.55135 23.6156 6.83106 24.2832 6.96554C24.2938 6.96554 24.3045 6.96554 24.3099 6.96554C24.3045 6.96554 24.2938 6.9763 24.2832 6.98168C23.7171 7.36359 23.3539 7.82081 23.4767 8.0037C23.5996 8.18659 24.155 8.02522 24.7211 7.64868C24.7264 7.64868 24.7371 7.63793 24.7425 7.63255C24.7425 7.6433 24.7425 7.65406 24.7371 7.65944C24.6036 8.33183 24.673 8.91277 24.8867 8.9558C25.1003 8.99883 25.3833 8.48782 25.5169 7.81544C25.5169 7.80468 25.5169 7.79392 25.5222 7.78854C25.5222 7.79392 25.5329 7.80468 25.5382 7.81006C25.9174 8.38024 26.3714 8.74064 26.5529 8.6223C26.7345 8.49858 26.5743 7.93915 26.2005 7.36897C26.2005 7.36359 26.1898 7.35283 26.1844 7.34746C26.1951 7.34746 26.2058 7.34746 26.2111 7.35283C26.8787 7.48731 27.4555 7.41738 27.4982 7.20222C27.541 6.98706 27.0336 6.70197 26.366 6.56749L26.3607 6.57825Z" fill="#EFEAE6"/>
<path d="M32.421 7.72981C32.421 7.72981 31.5451 7.40169 31.1072 6.7293C30.6692 6.05692 31.1285 5.59432 31.3208 5.32536C31.5131 5.05641 31.497 4.98648 31.6733 5.04027C31.8495 5.09406 32.5438 5.12634 32.923 5.87403C33.3022 6.62172 32.6026 7.477 32.5972 7.64913C32.5919 7.81588 32.4851 7.80512 32.4263 7.72981H32.421Z" fill="#EFEAE6"/>
<path d="M32.6977 8.16955C32.6977 8.16955 33.5736 8.49768 34.0115 9.17006C34.4495 9.84245 33.9902 10.305 33.7979 10.574C33.6057 10.843 33.627 10.9129 33.4454 10.8537C33.2692 10.7945 32.5749 10.7676 32.2011 10.02C31.8219 9.27227 32.5162 8.41699 32.5268 8.25024C32.5375 8.08349 32.639 8.09425 32.6977 8.16955Z" fill="#EFEAE6"/>
<path d="M32.7766 7.79894C32.7766 7.79894 33.1024 6.91677 33.77 6.47568C34.4375 6.0346 34.8968 6.4972 35.1639 6.69085C35.4309 6.88449 35.5003 6.86836 35.4416 7.04587C35.3882 7.22338 35.3561 7.92266 34.6138 8.29919C33.8714 8.68111 33.0223 7.98183 32.8567 7.97107C32.6912 7.96031 32.7018 7.85811 32.7766 7.79894Z" fill="#EFEAE6"/>
<path d="M32.3504 8.09787C32.3504 8.09787 32.0246 8.98004 31.3571 9.42112C30.6895 9.86221 30.2302 9.3996 29.9632 9.20596C29.6961 9.01231 29.6267 9.03383 29.6854 8.85632C29.7442 8.67881 29.7709 7.97953 30.5132 7.59761C31.2556 7.22108 32.1048 7.92036 32.2703 7.92574C32.4359 7.93649 32.4252 8.0387 32.3504 8.09787Z" fill="#EFEAE6"/>
<path d="M32.8225 7.70113C32.6943 7.53976 32.47 7.51824 32.3098 7.64196C32.1549 7.76568 32.1282 7.99698 32.2511 8.15298C32.3739 8.30897 32.6035 8.33586 32.7638 8.21215C32.9186 8.08843 32.9453 7.85713 32.8225 7.70113Z" fill="#EFEAE6"/>
<path d="M15.5852 35.8397C15.5852 35.8397 14.2554 35.6137 13.4543 34.78C12.6532 33.9516 13.1766 33.1663 13.3795 32.7306C13.5771 32.3002 13.5344 32.2034 13.8014 32.2357C14.0685 32.268 15.0565 32.1227 15.7935 33.0802C16.5305 34.0377 15.7721 35.4362 15.8095 35.6783C15.8416 35.915 15.692 35.9311 15.5852 35.8397Z" fill="#EFEAE6"/>
<path d="M16.0998 36.3832C16.0998 36.3832 17.4296 36.6145 18.2307 37.4429C19.0318 38.2766 18.5084 39.0566 18.3108 39.4923C18.1132 39.928 18.156 40.0195 17.8889 39.9872C17.6219 39.9549 16.6339 40.1055 15.8969 39.1427C15.1599 38.1852 15.9129 36.7866 15.8808 36.5446C15.8488 36.3079 15.9983 36.2918 16.0998 36.3832Z" fill="#EFEAE6"/>
<path d="M16.0892 35.8532C16.0892 35.8532 16.3135 34.5138 17.136 33.7069C17.9638 32.9001 18.7435 33.4272 19.1708 33.6316C19.598 33.8306 19.6941 33.7876 19.6621 34.0566C19.6301 34.3255 19.7796 35.3206 18.8236 36.063C17.873 36.8053 16.4844 36.0468 16.2441 36.0791C16.0038 36.1114 15.9931 35.9608 16.0839 35.8585L16.0892 35.8532Z" fill="#EFEAE6"/>
<path d="M15.5585 36.3749C15.5585 36.3749 15.3342 37.7089 14.5064 38.5212C13.6839 39.328 12.9042 38.8009 12.4716 38.5965C12.0444 38.3974 11.9482 38.4405 11.9803 38.1715C12.0123 37.9026 11.8681 36.9074 12.8187 36.1651C13.7694 35.4228 15.1579 36.1866 15.3983 36.149C15.6386 36.1167 15.6493 36.2673 15.5585 36.3695V36.3749Z" fill="#EFEAE6"/>
<path d="M16.135 35.7012C15.916 35.5075 15.5849 35.5344 15.398 35.7604C15.211 35.9809 15.2377 36.3144 15.4567 36.5027C15.6757 36.6909 16.0068 36.664 16.1937 36.4435C16.3806 36.223 16.3593 35.8895 16.135 35.7012Z" fill="#EFEAE6"/>
</svg>
