<svg width="40" height="40" viewBox="0 0 40 40" fill="none" xmlns="http://www.w3.org/2000/svg">
<path d="M9.3263 2.82809C6.53849 5.46384 5.67865 10.1705 9.75356 11.639C10.0954 11.7681 10.3944 11.8112 10.0954 11.4239C9.79628 11.0366 8.46646 9.78324 8.72281 7.49175C8.76554 7.01839 8.85099 7.10984 8.89371 7.4541C8.93644 7.79836 9.29426 10.0845 10.8697 11.0742C11.2115 11.2894 11.4252 11.2464 11.4732 10.6869C11.516 10.1275 12.0714 8.87418 11.2169 7.01839C10.357 5.16261 9.67345 4.08142 9.7589 3.08629C9.80162 2.78506 9.50255 2.56989 9.33165 2.82809H9.3263Z" fill="#DDD1E3"/>
<path d="M39.7727 17.9934C38.7366 16.4765 36.6004 15.745 35.6391 17.59C35.5536 17.746 35.5162 17.8859 35.7138 17.7675C35.9168 17.6492 36.5897 17.1005 37.6365 17.3802C37.8554 17.434 37.8074 17.4663 37.6365 17.4609C37.4709 17.4609 36.3867 17.4717 35.8153 18.1548C35.6925 18.3001 35.6978 18.4076 35.9542 18.4668C36.2105 18.526 36.7606 18.881 37.6792 18.5959C38.6031 18.3162 39.1532 18.058 39.6071 18.171C39.746 18.214 39.8688 18.0849 39.7567 17.9827L39.7727 17.9934Z" fill="#DDD1E3"/>
<path d="M29.8882 10.0802C28.1525 10.8387 26.9669 12.8935 28.6278 14.2652C28.7667 14.3835 28.9002 14.4534 28.8254 14.2221C28.7507 13.9908 28.3394 13.1786 28.8361 12.1566C28.9322 11.9414 28.9589 12.0006 28.9216 12.1673C28.8842 12.3341 28.6759 13.4637 29.242 14.1899C29.3648 14.3512 29.4716 14.3674 29.5838 14.1092C29.696 13.8563 30.1659 13.3615 30.0751 12.3502C29.9843 11.3389 29.8402 10.7203 30.0484 10.2685C30.1179 10.134 30.0164 9.98341 29.8936 10.0749L29.8882 10.0802Z" fill="#DDD1E3"/>
<path d="M27.9258 37.2381C28.3691 35.1886 27.3063 32.8111 25.0312 33.4189C24.839 33.4673 24.6894 33.5426 24.9404 33.6233C25.1968 33.704 26.1741 33.8546 26.7616 34.9627C26.8898 35.1886 26.8203 35.1725 26.6975 35.0273C26.5747 34.8874 25.7095 33.973 24.7001 34.0214C24.4811 34.0321 24.3957 34.1182 24.5506 34.3818C24.7054 34.6453 24.839 35.3823 25.7949 35.9471C26.7509 36.5119 27.3918 36.7808 27.6535 37.2542C27.7282 37.4048 27.9258 37.4102 27.9258 37.2381Z" fill="#DDD1E3"/>
<path d="M24.4785 0.153433C22.385 0.852713 20.8041 3.09579 22.5826 4.86013C22.7321 5.01074 22.8763 5.10757 22.8122 4.83323C22.7481 4.5589 22.3583 3.57991 23.0419 2.44492C23.1807 2.20824 23.2021 2.27817 23.138 2.46644C23.0792 2.6547 22.7161 3.93493 23.2982 4.83861C23.4264 5.03764 23.5492 5.06453 23.7041 4.78482C23.859 4.50511 24.4518 3.98334 24.4518 2.80532C24.4518 1.6273 24.3503 0.895746 24.6334 0.395491C24.7295 0.244877 24.6227 0.0619883 24.4732 0.153433H24.4785Z" fill="#DDD1E3"/>
<path d="M2.8298 29.969C4.78447 29.9098 6.69108 28.3983 5.62295 26.4457C5.53216 26.2789 5.43603 26.1606 5.42001 26.4134C5.40398 26.6662 5.49478 27.5968 4.62425 28.3875C4.44801 28.5543 4.44801 28.4898 4.54948 28.3445C4.65096 28.1993 5.27581 27.1988 5.00878 26.2843C4.95003 26.0853 4.8539 26.0315 4.65096 26.2305C4.44801 26.4296 3.81248 26.72 3.51874 27.7259C3.22501 28.7264 3.12353 29.3773 2.75503 29.7269C2.63754 29.8291 2.68026 30.0174 2.8298 29.9744V29.969Z" fill="#DDD1E3"/>
<path d="M0.968364 26.6053C1.03779 23.2864 3.53721 20.0105 6.82704 21.791C7.10475 21.9416 7.3077 22.1084 6.88579 22.1353C6.46388 22.1675 4.89907 22.0331 3.59061 23.5177C3.3129 23.8189 3.41971 23.8189 3.66538 23.6468C3.91105 23.4747 5.57199 22.3881 7.11009 22.8292C7.44655 22.926 7.54268 23.0874 7.21156 23.4424C6.88045 23.7974 6.40513 24.8786 4.72817 25.395C3.05121 25.9114 1.96706 26.0943 1.38493 26.7236C1.21937 26.9227 0.904276 26.8581 0.973704 26.5945L0.968364 26.6053Z" fill="#DDD1E3"/>
<path d="M25.8077 1.7181C27.8959 0.997308 30.5128 1.85796 30.171 4.38075C30.1443 4.59591 30.0855 4.76266 29.968 4.49909C29.8505 4.23551 29.5728 3.19735 28.3391 2.6971C28.0881 2.58414 28.1095 2.65406 28.275 2.7724C28.4406 2.89074 29.5034 3.70836 29.5835 4.80032C29.5995 5.037 29.5194 5.1392 29.2257 5.00472C28.9319 4.87024 28.1415 4.81107 27.4312 3.8536C26.7156 2.89074 26.3524 2.23988 25.8237 2.00857C25.6581 1.94403 25.6314 1.72886 25.8077 1.71273V1.7181Z" fill="#DDD1E3"/>
<path d="M18.0528 30.9806C16.1996 32.1747 13.4492 31.9703 13.1928 29.4368C13.1661 29.2216 13.1822 29.0441 13.3584 29.2754C13.5346 29.5013 14.0473 30.4427 15.3665 30.6363C15.6389 30.6847 15.5961 30.6202 15.4092 30.5449C15.2223 30.4696 13.9939 29.9263 13.6575 28.8881C13.5827 28.6622 13.6415 28.5439 13.9566 28.603C14.277 28.6622 15.0514 28.5277 15.97 29.2915C16.8886 30.0554 17.4013 30.604 17.9674 30.7009C18.1436 30.7224 18.2237 30.9214 18.0528 30.9806Z" fill="#DDD1E3"/>
<path d="M30.7079 21.4962C31.8561 22.9969 31.8828 25.3637 29.7626 25.7725C29.581 25.8102 29.4314 25.8102 29.613 25.638C29.7946 25.4713 30.5476 24.9603 30.6117 23.8199C30.6331 23.5832 30.5797 23.6263 30.5316 23.793C30.4835 23.9598 30.115 25.0463 29.2605 25.4121C29.0736 25.4928 28.9721 25.4552 28.9989 25.1754C29.0256 24.8957 28.8547 24.2449 29.4314 23.4003C30.0082 22.5558 30.4301 22.0825 30.4729 21.5876C30.4729 21.437 30.6438 21.3563 30.7025 21.4962H30.7079Z" fill="#DDD1E3"/>
<path d="M0.209954 16.8198C2.90697 13.7968 7.8257 12.7747 9.45993 17.0726C9.60413 17.433 9.65754 17.7558 9.24097 17.4438C8.8244 17.1318 7.4839 15.7494 5.09129 16.0775C4.59461 16.1367 4.69609 16.2227 5.05925 16.2604C5.42241 16.298 7.8257 16.6262 8.89917 18.2775C9.13415 18.6379 9.09143 18.8639 8.50396 18.923C7.91649 18.9822 6.61337 19.6062 4.64802 18.7348C2.68267 17.8634 1.53443 17.1587 0.493007 17.277C0.17791 17.3308 -0.0570781 17.0188 0.209954 16.8252V16.8198Z" fill="#DDD1E3"/>
<path d="M25.8672 38.7887C23.3731 39.9613 20.1153 39.2405 20.3717 36.0669C20.3877 35.7979 20.4464 35.5827 20.612 35.8947C20.7722 36.2067 21.1834 37.4547 22.7215 37.9119C23.0366 38.0141 22.9993 37.9334 22.791 37.8097C22.5827 37.686 21.2315 36.8092 21.0606 35.4644C21.0232 35.1739 21.114 35.0394 21.4825 35.1632C21.851 35.2923 22.8177 35.2546 23.7523 36.3519C24.6869 37.4493 25.1782 38.2131 25.8351 38.4283C26.0381 38.4821 26.0915 38.7456 25.8725 38.794L25.8672 38.7887Z" fill="#DDD1E3"/>
<path d="M39.9434 19.1786C38.5975 22.7826 34.6134 25.3914 31.7028 22.164C31.4518 21.895 31.2969 21.6314 31.7668 21.7605C32.2422 21.8896 33.8978 22.6427 35.9005 21.5292C36.3171 21.3033 36.1996 21.2657 35.8685 21.3571C35.5373 21.4485 33.305 21.9918 31.7936 20.9106C31.4624 20.674 31.4197 20.4588 31.9217 20.206C32.4184 19.9478 33.353 18.9473 35.3878 19.0333C37.4172 19.1194 38.6723 19.3399 39.5482 18.8773C39.8098 18.7213 40.1249 18.9204 39.9487 19.1786H39.9434Z" fill="#DDD1E3"/>
<path d="M25.3901 11.37C24.5943 10.8859 24.4074 9.95533 24.4074 9.95533C24.3967 9.89616 24.4394 9.83699 24.4982 9.82085C24.4982 9.82085 25.4702 9.58955 26.2659 10.0737C27.0617 10.5578 27.2486 11.4884 27.2486 11.4884C27.2593 11.5475 27.2219 11.6121 27.1578 11.6228C27.1578 11.6228 26.1858 11.8541 25.3901 11.37Z" fill="#DDD1E3"/>
<path d="M8.17859 21.5728C8.26404 20.4701 9.1399 19.7762 9.1399 19.7762C9.19865 19.7331 9.2841 19.7439 9.33217 19.8031C9.33217 19.8031 10.0905 20.7121 10.0051 21.8202C9.91964 22.9229 9.04377 23.6168 9.04377 23.6168C8.98503 23.6653 8.89957 23.6545 8.85151 23.5953C8.85151 23.5953 8.09314 22.6863 8.17859 21.5782V21.5728Z" fill="#DDD1E3"/>
<path d="M19.855 30.2997C20.827 29.7833 21.8791 30.1652 21.8791 30.1652C21.9485 30.1921 21.9806 30.2728 21.9592 30.3428C21.9592 30.3428 21.5961 31.4724 20.6187 31.9888C19.6467 32.5052 18.5946 32.1232 18.5946 32.1232C18.5252 32.0963 18.4878 32.021 18.5145 31.9457C18.5145 31.9457 18.8777 30.8161 19.855 30.2997Z" fill="#DDD1E3"/>
<path d="M25 32.2432C24.4392 33.3728 22.9546 33.6471 22.9546 33.6471C22.8584 33.6633 22.7463 33.6041 22.7035 33.518C22.7035 33.518 22.0306 32.1571 22.5967 31.0275C23.1575 29.8979 24.6422 29.6236 24.6422 29.6236C24.7383 29.602 24.8505 29.6612 24.8932 29.7527C24.8932 29.7527 25.5608 31.1136 25 32.2432Z" fill="#DDD1E3"/>
<path d="M31.1483 35.1516C33.3166 35.1785 35.5009 33.5971 34.4114 31.3863C34.3206 31.198 34.2138 31.0581 34.1871 31.3379C34.155 31.6122 34.2138 32.6503 33.2098 33.4841C33.0068 33.6616 33.0122 33.5863 33.1296 33.4303C33.2471 33.2743 33.9895 32.1985 33.7385 31.1711C33.6851 30.9452 33.5783 30.8806 33.3379 31.0904C33.1029 31.3002 32.3873 31.5907 32.0135 32.6934C31.6396 33.7907 31.4954 34.5007 31.0735 34.8719C30.9346 34.9795 30.9774 35.1839 31.1429 35.1462L31.1483 35.1516Z" fill="#DDD1E3"/>
<path d="M34.6422 30.1309C33.9693 29.3026 34.2257 28.0116 34.2257 28.0116C34.247 27.9255 34.3218 27.8556 34.4019 27.8502C34.4019 27.8502 35.6409 27.7641 36.3139 28.5925C36.9868 29.4209 36.7304 30.7119 36.7304 30.7119C36.7144 30.7979 36.6343 30.8679 36.5542 30.8732C36.5542 30.8732 35.3152 30.9593 34.6422 30.1309Z" fill="#DDD1E3"/>
<path d="M36.7745 27.2882C35.2845 27.4442 34.0561 26.1102 34.0561 26.1102C33.976 26.0241 33.9654 25.8735 34.0241 25.7713C34.0241 25.7713 34.9587 24.2167 36.4487 24.0607C37.9388 23.9101 39.1671 25.2387 39.1671 25.2387C39.2472 25.3248 39.2633 25.4754 39.2045 25.5776C39.2045 25.5776 38.2699 27.1322 36.7799 27.2882H36.7745Z" fill="#DDD1E3"/>
<path d="M3.88534 11.8771C2.91335 10.6292 3.34594 8.75188 3.34594 8.75188C3.37264 8.62816 3.49014 8.53134 3.61297 8.52596C3.61297 8.52596 5.45549 8.46141 6.42748 9.70936C7.39948 10.9573 6.97223 12.8292 6.97223 12.8292C6.94552 12.9476 6.82803 13.0551 6.7052 13.0551C6.7052 13.0551 4.86268 13.1197 3.89068 11.8717L3.88534 11.8771Z" fill="#DDD1E3"/>
<path d="M12.0463 1.90718C12.6712 1.00349 13.985 0.955078 13.985 0.955078C14.0704 0.955078 14.1612 1.01425 14.1879 1.09493C14.1879 1.09493 14.5992 2.35364 13.9743 3.25732C13.3495 4.16101 12.0357 4.20942 12.0357 4.20942C11.9502 4.20942 11.8594 4.15025 11.8327 4.06957C11.8327 4.06957 11.4268 2.81086 12.0517 1.90718H12.0463Z" fill="#DDD1E3"/>
<path d="M2.83303 13.2434C2.83303 13.6952 2.46986 14.061 2.02125 14.061C1.57264 14.061 1.20947 13.6952 1.20947 13.2434C1.20947 12.7916 1.57264 12.4258 2.02125 12.4258C2.46986 12.4258 2.83303 12.7916 2.83303 13.2434Z" fill="#DDD1E3"/>
<path d="M30.9575 36.2922C30.9575 36.7441 30.5944 37.1098 30.1458 37.1098C29.6971 37.1098 29.334 36.7441 29.334 36.2922C29.334 35.8404 29.6971 35.4746 30.1458 35.4746C30.5944 35.4746 30.9575 35.8404 30.9575 36.2922Z" fill="#DDD1E3"/>
<path d="M5.95802 31.8782C5.95802 32.33 5.59486 32.6958 5.14625 32.6958C4.69764 32.6958 4.33447 32.33 4.33447 31.8782C4.33447 31.4263 4.69764 31.0605 5.14625 31.0605C5.59486 31.0605 5.95802 31.4263 5.95802 31.8782Z" fill="#DDD1E3"/>
<path d="M33.2813 26.6572C33.2813 27.0122 32.9929 27.3027 32.6404 27.3027C32.2879 27.3027 31.9995 27.0122 31.9995 26.6572C31.9995 26.3022 32.2879 26.0117 32.6404 26.0117C32.9929 26.0117 33.2813 26.3022 33.2813 26.6572Z" fill="#DDD1E3"/>
<path d="M1.84786 20.3368C1.84786 20.8532 1.43663 21.2674 0.92393 21.2674C0.411229 21.2674 0 20.8532 0 20.3368C0 19.8204 0.411229 19.4062 0.92393 19.4062C1.43663 19.4062 1.84786 19.8204 1.84786 20.3368Z" fill="#DDD1E3"/>
<path d="M29.7302 7.18449C29.7302 7.6955 29.319 8.11507 28.8063 8.11507C28.2936 8.11507 27.8823 7.70088 27.8823 7.18449C27.8823 6.6681 28.2989 6.25391 28.8063 6.25391C29.3136 6.25391 29.7302 6.67347 29.7302 7.18449Z" fill="#DDD1E3"/>
<path d="M20.558 0.540503C20.7609 2.48773 21.6795 9.21696 14.3522 11.1696C14.005 11.3471 13.8448 11.1696 14.2347 10.8791C14.6246 10.5886 18.096 7.12988 18.3256 4.77384C18.3897 4.07456 18.112 4.60171 18.096 4.74156C18.0799 4.88142 16.3656 8.37244 13.22 10.6263C12.8568 10.9383 12.6912 10.707 12.8461 10.0292C13.001 9.35143 11.8314 6.00027 15.164 3.16549C16.3763 2.13271 19.2709 1.50336 20.0346 0.185484C20.1521 -0.0189209 20.4726 -0.217947 20.5527 0.545882L20.558 0.540503Z" fill="#DDD1E3"/>
<path d="M37.3793 10.3439C37.3686 12.0544 37.5181 17.9929 30.9598 18.9773C30.6394 19.0956 30.5166 18.9235 30.8851 18.7137C31.2536 18.4985 34.6075 15.8305 35.0294 13.8026C35.1522 13.2001 34.8585 13.6305 34.8318 13.7542C34.8051 13.8725 32.9786 16.7396 30.0252 18.391C29.6834 18.6276 29.5606 18.4125 29.7582 17.8369C29.9558 17.2614 29.2668 14.2329 32.4338 12.0974C33.5928 11.3175 36.1616 11.0539 36.9574 9.98346C37.0802 9.81671 37.3793 9.67685 37.3739 10.3492L37.3793 10.3439Z" fill="#DDD1E3"/>
<path d="M12.6829 27.8268C12.6829 27.6009 12.0901 27.418 11.3531 27.418C11.2783 27.418 11.2089 27.418 11.1395 27.418C11.2036 27.3858 11.2623 27.3535 11.3264 27.3158C11.9619 26.9447 12.3892 26.4874 12.2717 26.2884C12.1595 26.0894 11.5561 26.2346 10.9152 26.6004C10.8511 26.6381 10.7923 26.6757 10.7283 26.7134C10.7656 26.6542 10.803 26.5896 10.8404 26.5305C11.2089 25.8904 11.3478 25.2771 11.1502 25.1642C10.9579 25.0512 10.4986 25.4762 10.1301 26.1163C10.0927 26.1808 10.0607 26.2454 10.0286 26.3099C10.0286 26.2346 10.034 26.1647 10.034 26.0894C10.034 25.3525 9.85239 24.75 9.62808 24.75C9.40378 24.75 9.2222 25.3525 9.2222 26.0894C9.2222 26.1647 9.2222 26.2346 9.22754 26.3099C9.19549 26.2454 9.16345 26.1808 9.12606 26.1163C8.75756 25.4762 8.30361 25.0458 8.106 25.1642C7.9084 25.2771 8.04726 25.8904 8.41576 26.5305C8.45314 26.595 8.49053 26.6596 8.52791 26.7187C8.46917 26.6811 8.40508 26.6434 8.34099 26.6058C7.70546 26.2346 7.09662 26.0948 6.98447 26.2938C6.87232 26.4928 7.29423 26.95 7.92976 27.3212C7.99385 27.3589 8.05794 27.3911 8.12203 27.4234C8.0526 27.4234 7.97783 27.4234 7.90306 27.4234C7.16605 27.4234 6.57324 27.6063 6.57324 27.8322C6.57324 28.0581 7.16605 28.241 7.90306 28.241C7.97783 28.241 8.04726 28.241 8.12203 28.2356C8.05794 28.2679 7.99385 28.3002 7.92976 28.3432C7.29423 28.7144 6.87232 29.1716 6.98447 29.3653C7.09662 29.5643 7.70546 29.4244 8.34099 29.0533C8.40508 29.0156 8.46917 28.978 8.52791 28.9403C8.49053 28.9995 8.45314 29.0586 8.41576 29.1232C8.04726 29.7633 7.9084 30.3765 8.106 30.4895C8.29827 30.6024 8.75756 30.1775 9.12606 29.532C9.16345 29.4675 9.19549 29.4029 9.22754 29.3384C9.22754 29.4083 9.2222 29.4836 9.2222 29.5535C9.2222 30.2958 9.40378 30.8929 9.62808 30.8929C9.85239 30.8929 10.034 30.2958 10.034 29.5535C10.034 29.4782 10.034 29.4083 10.0286 29.3384C10.0607 29.4029 10.0927 29.4675 10.1301 29.532C10.4986 30.1721 10.9526 30.6024 11.1502 30.4895C11.3478 30.3765 11.2089 29.7633 10.8404 29.1232C10.803 29.0586 10.7656 28.9995 10.7283 28.9349C10.787 28.9726 10.8511 29.0102 10.9152 29.0479C11.5507 29.419 12.1595 29.5589 12.2717 29.3599C12.3839 29.1608 11.9619 28.7036 11.3264 28.3378C11.2623 28.3002 11.1982 28.2679 11.1341 28.2303C11.2036 28.2303 11.2783 28.2356 11.3531 28.2356C12.0901 28.2356 12.6829 28.0528 12.6829 27.8268ZM9.63877 28.9726C9.01925 28.9726 8.52257 28.4669 8.52257 27.8484C8.52257 27.2298 9.02459 26.7241 9.63877 26.7241C10.2529 26.7241 10.755 27.2298 10.755 27.8484C10.755 28.4669 10.2529 28.9726 9.63877 28.9726Z" fill="#DDD1E3"/>
<path d="M32.747 29.4097C32.7042 29.0816 31.9405 28.4361 31.0059 28.6782C31.5614 27.9197 31.3317 26.8977 31.1021 26.7471C30.851 26.5911 30.7763 26.7094 30.5894 26.6234C30.4024 26.5427 30.4345 26.4082 30.1514 26.3275C29.8256 26.2361 28.8857 26.7094 28.7735 27.7368C28.3036 26.9461 27.3209 26.7471 27.0966 26.8977C26.8509 27.0644 26.9257 27.1828 26.7708 27.3173C26.6159 27.4571 26.5091 27.3657 26.3222 27.597C26.0872 27.8767 26.1513 29.0493 27.2087 29.5334C26.2474 29.9369 25.9964 31.088 26.1566 31.3354C26.3222 31.5829 26.4397 31.5076 26.5785 31.6636C26.7121 31.8196 26.6319 31.9271 26.8563 32.1154C27.0752 32.2983 27.8496 32.2983 28.405 31.7658C28.4851 32.5726 29.1047 33.1643 29.3557 33.1643C29.6547 33.1643 29.6547 33.0191 29.8577 32.9868C30.0606 32.9545 30.1034 33.0836 30.3864 32.9976C30.7069 32.9007 31.2356 32.0132 30.8083 31.0934C31.7803 31.4215 32.7203 30.7437 32.7577 30.4533C32.8004 30.1574 32.6669 30.1359 32.6669 29.9261C32.6669 29.7217 32.8004 29.6948 32.763 29.4043L32.747 29.4097ZM30.0927 30.066C29.8791 30.5608 29.3076 30.7814 28.8216 30.5662C28.3303 30.3457 28.1113 29.7755 28.3249 29.286C28.5386 28.7911 29.11 28.5706 29.596 28.7858C30.082 29.0009 30.3063 29.5765 30.0927 30.0714V30.066Z" fill="#DDD1E3"/>
<path fill-rule="evenodd" clip-rule="evenodd" d="M6.62888 34.0608C6.60218 33.5766 7.14158 33.1517 7.83586 33.1087H7.86257H7.88393H7.92131H7.98006H7.99608H8.03347H8.04415H8.06551H8.08687H8.09755V33.0979V33.0925V33.0818V33.0764V33.0656H8.08687V33.0602V33.0495V33.0441V33.0334V33.028V33.0172H8.08153V33.0065V32.9957V32.9849V32.9742H8.07619V32.9688V32.958V32.9527V32.9473L8.06551 32.9258V32.9096H8.05483V32.9043V32.8989V32.8881V32.872C7.79848 32.2211 7.95336 31.5487 8.40197 31.3712C8.85058 31.1937 9.42203 31.581 9.67304 32.2319L9.68372 32.2641L9.6944 32.291V32.2964L9.70508 32.3233L9.71576 32.3502L9.72645 32.3825V32.4094H9.73713V32.4148V32.4363H9.74247V32.4417V32.4524V32.4578V32.4632V32.4739V32.4847V32.4954V32.4901H9.74781V32.4793V32.4739V32.4685V32.4632V32.4578L9.75315 32.4524V32.447V32.4417L9.75849 32.4309V32.4255V32.4201L9.76383 32.4094L9.76917 32.3986V32.3932V32.3879V32.3825V32.3771V32.3717L9.77985 32.361L9.80122 32.3394L9.81724 32.3233C10.3566 31.8768 11.0402 31.8231 11.3447 32.1996C11.6491 32.5761 11.4622 33.2378 10.9227 33.6842L10.896 33.7057L10.88 33.7219L10.8587 33.738L10.848 33.7488H10.8373V33.7595V33.7649L10.832 33.7703L10.8266 33.7757V33.781L10.8213 33.7864H10.832H10.8426V33.7918H10.848H10.8533H10.8587V33.7972H10.864H10.8747V33.8079L10.9014 33.8187L10.9281 33.8348L10.9548 33.851C11.5423 34.2275 11.804 34.8676 11.5423 35.2764C11.2806 35.6852 10.597 35.7121 10.0095 35.3356L9.98814 35.3195L9.97212 35.3087L9.95609 35.2979V35.2926H9.95075V35.2872L9.94541 35.2818V35.2764V35.271V35.2657H9.94007V35.2549V35.2495H9.93473V35.2388V35.2334L9.92405 35.2226V35.2173H9.91871V35.2065C9.90803 35.2979 9.89201 35.4001 9.8653 35.497C9.68906 36.1747 9.17102 36.6266 8.70104 36.5029C8.23641 36.3791 8.00142 35.7283 8.17232 35.0505C8.19903 34.9483 8.23107 34.8569 8.27379 34.7654L8.25777 34.7708H8.24709H8.24175H8.23107H8.22039H8.20971H8.19903H8.19368H8.18834H8.17766H8.16164H8.15096H8.13494H8.11892H8.10289H8.08153H8.06017H8.05483C7.36055 34.8138 6.77308 34.4534 6.74637 33.9693L6.62888 34.0608Z" fill="#DDD1E3"/>
<path fill-rule="evenodd" clip-rule="evenodd" d="M9.20703 14.7216C9.02011 14.5065 9.12158 14.1138 9.43134 13.8448L9.44202 13.8341L9.44736 13.8287L9.45804 13.8179L9.46872 13.8072H9.4794V13.7964V13.791H9.47406H9.46872H9.46338H9.45804H9.44736V13.7857L9.43668 13.7803H9.43134C9.08419 13.5651 8.91864 13.194 9.06283 12.9519C9.20703 12.7099 9.60758 12.683 9.96006 12.8927L9.97608 12.9035L9.98676 12.9143L9.99744 12.925L10.0135 12.9358L10.0295 12.9465L10.0402 12.9573L10.0508 12.968V12.9734V12.9788V12.968V12.9573V12.9465V12.9358V12.9304V12.925V12.9143V12.9089V12.8927V12.8874V12.8766V12.8712V12.8605V12.8389V12.8282C10.147 12.4301 10.4461 12.1558 10.7184 12.2204C10.9908 12.2849 11.1403 12.6614 11.0495 13.0595V13.081H11.0442V13.0971V13.1133V13.124V13.1402V13.1456V13.1563V13.1617V13.1671V13.1725V13.1778H11.0549H11.0602H11.0656H11.0709H11.0763H11.0816H11.0869H11.0976H11.1083H11.119H11.1403H11.1617H11.1777C11.5836 13.1402 11.9308 13.3446 11.9575 13.6243C11.9842 13.9094 11.6744 14.1676 11.2685 14.1999H11.2472H11.2365H11.1991H11.167H11.1297H11.119C11.151 14.2483 11.1777 14.3021 11.1991 14.3558C11.3593 14.7324 11.2739 15.1304 11.0175 15.2434C10.7558 15.3564 10.4194 15.1358 10.2591 14.7593C10.2378 14.7055 10.2164 14.6517 10.2057 14.5925V14.5979V14.6033V14.6087L10.2004 14.614L10.1897 14.6248H10.1844V14.6356C9.87461 14.9045 9.4794 14.9475 9.29248 14.7324L9.20703 14.7216Z" fill="#DDD1E3"/>
<path fill-rule="evenodd" clip-rule="evenodd" d="M21.5335 10.0533C21.2504 10.0318 21.0528 9.68212 21.0795 9.2733V9.25717V9.24641V9.23565V9.21951V9.20338V9.18724V9.18186V9.1711V9.16572V9.16034V9.15497V9.14959V9.13883H21.0688H21.0635H21.0582H21.0528H21.0314H21.0208H21.0154H21.0101C20.6149 9.23565 20.241 9.09042 20.1716 8.81608C20.1075 8.53637 20.3745 8.23514 20.7698 8.1437H20.7911V8.13832H20.8018H20.8178H20.8338H20.8499H20.8659H20.8819H20.8926H20.9086V8.13294V8.12756V8.12218V8.1168V8.11142V8.10604L20.8979 8.09529L20.8873 8.07915C20.6736 7.72951 20.695 7.32608 20.9353 7.17546C21.1756 7.02485 21.5441 7.18622 21.7578 7.54124L21.7685 7.55738V7.56814H21.7738L21.7791 7.58427V7.59503V7.60579V7.61117V7.61655V7.62193V7.62731V7.63269V7.62193V7.61655V7.60579V7.60041V7.58965L21.7898 7.57352L21.8005 7.55738L21.8112 7.54124C22.0729 7.22925 22.4627 7.12705 22.6764 7.30994C22.89 7.49283 22.8526 7.89626 22.5856 8.20825L22.5749 8.21901V8.22976H22.5642L22.5535 8.24052V8.2459V8.25128L22.5482 8.25666C22.6069 8.26742 22.6603 8.28893 22.7137 8.31045C23.0929 8.46644 23.3066 8.80533 23.1997 9.0689C23.0929 9.33248 22.6977 9.41854 22.3239 9.26255C22.2705 9.24103 22.2171 9.20876 22.169 9.18186V9.19262V9.20338V9.21414V9.21951V9.23027V9.24103V9.25179V9.26255V9.2733V9.27868V9.28944V9.3002V9.30558V9.31634V9.33248V9.34323C22.137 9.75742 21.8859 10.0694 21.6029 10.0479L21.5335 10.0533Z" fill="#DDD1E3"/>
<path d="M26.3602 6.57825C26.3602 6.57825 26.3388 6.57825 26.3335 6.57287C26.3388 6.57287 26.3495 6.56211 26.3602 6.55673C26.9263 6.17482 27.2841 5.71759 27.1666 5.53471C27.0438 5.35182 26.4884 5.51319 25.9223 5.88972C25.9116 5.8951 25.9062 5.90048 25.9009 5.90586C25.9009 5.8951 25.9009 5.88972 25.9062 5.87897C26.0397 5.20658 25.9703 4.62564 25.7567 4.58261C25.5431 4.53958 25.26 5.05059 25.1265 5.72297C25.1265 5.73373 25.1265 5.74449 25.1265 5.74987C25.1265 5.73911 25.1158 5.73373 25.1105 5.72297C24.7313 5.15279 24.2773 4.79239 24.0958 4.91073C23.9142 5.03445 24.0691 5.59388 24.4482 6.16406C24.4536 6.16944 24.4589 6.18019 24.4643 6.18557C24.4536 6.18557 24.4429 6.18557 24.4376 6.1802C23.77 6.04572 23.1932 6.11565 23.1505 6.33081C23.1077 6.55135 23.6151 6.83106 24.2827 6.96554C24.2934 6.96554 24.304 6.96554 24.3094 6.96554C24.304 6.96554 24.2934 6.9763 24.2827 6.98168C23.7166 7.36359 23.3534 7.82081 23.4762 8.0037C23.5991 8.18659 24.1545 8.02522 24.7206 7.64868C24.7259 7.64868 24.7366 7.63793 24.742 7.63255C24.742 7.6433 24.742 7.65406 24.7366 7.65944C24.6031 8.33183 24.6725 8.91277 24.8862 8.9558C25.0998 8.99883 25.3828 8.48782 25.5164 7.81544C25.5164 7.80468 25.5164 7.79392 25.5217 7.78854C25.5217 7.79392 25.5324 7.80468 25.5377 7.81006C25.9169 8.38024 26.3709 8.74064 26.5524 8.6223C26.734 8.49858 26.5738 7.93915 26.2 7.36897C26.2 7.36359 26.1893 7.35283 26.1839 7.34746C26.1946 7.34746 26.2053 7.34746 26.2106 7.35283C26.8782 7.48731 27.455 7.41738 27.4977 7.20222C27.5405 6.98706 27.0331 6.70197 26.3655 6.56749L26.3602 6.57825Z" fill="#DDD1E3"/>
<path d="M32.4219 7.72981C32.4219 7.72981 31.5461 7.40169 31.1082 6.7293C30.6702 6.05692 31.1295 5.59432 31.3218 5.32536C31.514 5.05641 31.498 4.98648 31.6743 5.04027C31.8505 5.09406 32.5448 5.12634 32.924 5.87403C33.3032 6.62172 32.6035 7.477 32.5982 7.64913C32.5928 7.81588 32.486 7.80512 32.4273 7.72981H32.4219Z" fill="#DDD1E3"/>
<path d="M32.6987 8.16955C32.6987 8.16955 33.5746 8.49768 34.0125 9.17006C34.4504 9.84245 33.9912 10.305 33.7989 10.574C33.6066 10.843 33.628 10.9129 33.4464 10.8537C33.2702 10.7945 32.5759 10.7676 32.202 10.02C31.8229 9.27227 32.5171 8.41699 32.5278 8.25024C32.5385 8.08349 32.64 8.09425 32.6987 8.16955Z" fill="#DDD1E3"/>
<path d="M32.7771 7.79894C32.7771 7.79894 33.1029 6.91677 33.7704 6.47568C34.438 6.0346 34.8973 6.4972 35.1644 6.69085C35.4314 6.88449 35.5008 6.86836 35.4421 7.04587C35.3887 7.22338 35.3566 7.92266 34.6143 8.29919C33.8719 8.68111 33.0228 7.98183 32.8572 7.97107C32.6916 7.96031 32.7023 7.85811 32.7771 7.79894Z" fill="#DDD1E3"/>
<path d="M32.3514 8.09787C32.3514 8.09787 32.0256 8.98004 31.358 9.42112C30.6905 9.86221 30.2312 9.3996 29.9641 9.20596C29.6971 9.01231 29.6277 9.03383 29.6864 8.85632C29.7452 8.67881 29.7719 7.97953 30.5142 7.59761C31.2566 7.22108 32.1057 7.92036 32.2713 7.92574C32.4368 7.93649 32.4262 8.0387 32.3514 8.09787Z" fill="#DDD1E3"/>
<path d="M32.8235 7.70113C32.6953 7.53976 32.471 7.51824 32.3108 7.64196C32.1559 7.76568 32.1292 7.99698 32.252 8.15298C32.3749 8.30897 32.6045 8.33586 32.7647 8.21215C32.9196 8.08843 32.9463 7.85713 32.8235 7.70113Z" fill="#DDD1E3"/>
<path d="M15.5852 35.8402C15.5852 35.8402 14.2554 35.6142 13.4543 34.7805C12.6532 33.9521 13.1766 33.1668 13.3795 32.731C13.5771 32.3007 13.5344 32.2039 13.8014 32.2362C14.0685 32.2684 15.0565 32.1232 15.7935 33.0807C16.5305 34.0382 15.7721 35.4367 15.8095 35.6788C15.8416 35.9155 15.692 35.9316 15.5852 35.8402Z" fill="#DDD1E3"/>
<path d="M16.1008 36.3837C16.1008 36.3837 17.4306 36.615 18.2317 37.4434C19.0328 38.2771 18.5094 39.0571 18.3118 39.4928C18.1142 39.9285 18.1569 40.02 17.8899 39.9877C17.6229 39.9554 16.6349 40.106 15.8978 39.1432C15.1608 38.1857 15.9139 36.7871 15.8818 36.5451C15.8498 36.3084 15.9993 36.2923 16.1008 36.3837Z" fill="#DDD1E3"/>
<path d="M16.0887 35.8537C16.0887 35.8537 16.313 34.5143 17.1355 33.7074C17.9633 32.9005 18.743 33.4277 19.1703 33.6321C19.5975 33.8311 19.6937 33.7881 19.6616 34.057C19.6296 34.326 19.7791 35.3211 18.8231 36.0634C17.8725 36.8058 16.4839 36.0473 16.2436 36.0796C16.0033 36.1119 15.9926 35.9612 16.0834 35.859L16.0887 35.8537Z" fill="#DDD1E3"/>
<path d="M15.5585 36.3754C15.5585 36.3754 15.3342 37.7094 14.5064 38.5216C13.6839 39.3285 12.9042 38.8014 12.4716 38.597C12.0444 38.3979 11.9482 38.441 11.9803 38.172C12.0123 37.9031 11.8681 36.9079 12.8187 36.1656C13.7694 35.4233 15.1579 36.1871 15.3983 36.1495C15.6386 36.1172 15.6493 36.2678 15.5585 36.37V36.3754Z" fill="#DDD1E3"/>
<path d="M16.1345 35.7017C15.9155 35.508 15.5844 35.5349 15.3975 35.7608C15.2105 35.9814 15.2372 36.3149 15.4562 36.5032C15.6752 36.6914 16.0063 36.6645 16.1932 36.444C16.3801 36.2234 16.3588 35.8899 16.1345 35.7017Z" fill="#DDD1E3"/>
</svg>
