<svg xmlns="http://www.w3.org/2000/svg" width="20" height="20" viewBox="0 0 20 20"><g transform="translate(15527 1330)"><circle cx="10" cy="10" r="10" transform="translate(-15527 -1330)" fill="#c9544e"/><path d="M2.156.224A2.08,2.08,0,0,0,1.862,0q-.21-.14-.427-.273a1.245,1.245,0,0,0-.343-.161A9.875,9.875,0,0,0,2.226-2,19.856,19.856,0,0,0,3.29-4.039q.5-1.113.9-2.275-.756.1-1.463.2a11.506,11.506,0,0,0-1.141.217q-.014-.126-.063-.371t-.112-.49A2.689,2.689,0,0,0,1.3-7.1q.336-.028.854-.077T3.29-7.294q.616-.07,1.232-.126A17.1,17.1,0,0,0,4.97-9.2a14.041,14.041,0,0,0,.224-1.624l1.26.224A11.3,11.3,0,0,1,6.23-9.135q-.168.777-.406,1.6.658-.042,1.078-.042a2.442,2.442,0,0,1,.959.175,1.325,1.325,0,0,1,.651.609,2.721,2.721,0,0,1,.266,1.2,8.727,8.727,0,0,1-.21,1.953,11.234,11.234,0,0,1-.581,2.128A2.592,2.592,0,0,1,7.161-.357,2.094,2.094,0,0,1,5.908,0a3.352,3.352,0,0,1-.756-.084,2.285,2.285,0,0,1-.7-.294q.014-.252.014-.63a3.668,3.668,0,0,0-.042-.616,2.553,2.553,0,0,0,1.358.406.994.994,0,0,0,.651-.224,1.892,1.892,0,0,0,.49-.8,12.042,12.042,0,0,0,.441-1.645,8.219,8.219,0,0,0,.2-1.386,1.874,1.874,0,0,0-.105-.784.625.625,0,0,0-.329-.35,1.314,1.314,0,0,0-.49-.084q-.224,0-.518.014t-.63.042q-.434,1.3-.994,2.569T3.339-1.54A11.419,11.419,0,0,1,2.156.224ZM12.6-3.486a7.787,7.787,0,0,0-.623-.875q-.4-.5-.861-1t-.9-.917a6.288,6.288,0,0,0-.777-.637l.938-.812a7.732,7.732,0,0,1,.819.672q.455.42.924.9t.868.952a7.808,7.808,0,0,1,.623.819Z" transform="translate(-15523.092 -1315.178)" fill="#fff"/></g></svg>