<svg width="50" height="50" viewBox="0 0 50 50" fill="none" xmlns="http://www.w3.org/2000/svg">
<circle cx="25" cy="25" r="25" fill="url(#paint0_linear_7642_13101)"/>
<path d="M17.6257 37.5739L15.4676 42.097C15.2317 42.5919 15.4413 43.1848 15.9363 43.4207C16.0741 43.4866 16.2196 43.5177 16.3632 43.5177C16.7339 43.5177 17.0901 43.3091 17.2599 42.952L18.0624 41.2712H32.1324L32.935 42.952C33.1058 43.3091 33.4609 43.5177 33.8316 43.5177C33.9752 43.5177 34.1208 43.4866 34.2586 43.4207C34.7535 43.1848 34.9631 42.5919 34.7273 42.097L32.5691 37.5759H32.7283C35.8394 37.5759 38.3615 35.0538 38.3615 31.9426V14.7382C38.3615 12.5208 36.9457 10.5538 34.8447 9.84345C32.6002 9.08459 29.3338 8.33252 25.2027 8.33252C21.0717 8.33252 17.8043 9.08459 15.5597 9.84345C13.4588 10.5538 12.043 12.5208 12.043 14.7382V31.9417C12.043 35.0363 14.5379 37.5468 17.6257 37.5739ZM17.5103 34.226C16.2837 34.226 15.289 33.2313 15.289 32.0047C15.289 30.7781 16.2837 29.7835 17.5103 29.7835C18.7369 29.7835 19.7315 30.7781 19.7315 32.0047C19.7315 33.2313 18.7369 34.226 17.5103 34.226ZM31.1843 39.2848H19.0096L19.8257 37.5749H30.3682L31.1843 39.2848ZM32.8942 34.226C31.6676 34.226 30.6729 33.2313 30.6729 32.0047C30.6729 30.7781 31.6676 29.7835 32.8942 29.7835C34.1208 29.7835 35.1155 30.7781 35.1155 32.0047C35.1155 33.2313 34.1208 34.226 32.8942 34.226ZM35.3532 15.663C35.8714 15.663 36.2926 16.0832 36.2926 16.6024V26.5074C36.2926 27.0256 35.8724 27.4467 35.3532 27.4467H26.0712V15.664H35.3532V15.663ZM21.5045 12.4849C21.5045 12.0133 21.8868 11.6309 22.3584 11.6309H28.046C28.5176 11.6309 28.9 12.0133 28.9 12.4849V12.8284C28.9 13.3001 28.5176 13.6824 28.046 13.6824H22.3584C21.8868 13.6824 21.5045 13.3001 21.5045 12.8284V12.4849ZM14.1129 16.6024C14.1129 16.0842 14.533 15.663 15.0522 15.663H24.3342V27.4457H15.0512C14.533 27.4457 14.1119 27.0256 14.1119 26.5064V16.6014L14.1129 16.6024Z" fill="white"/>
<defs>
<linearGradient id="paint0_linear_7642_13101" x1="0" y1="25" x2="50" y2="25" gradientUnits="userSpaceOnUse">
<stop stop-color="#432815"/>
<stop offset="1" stop-color="#83634C"/>
</linearGradient>
</defs>
</svg>
