<svg width="50" height="50" viewBox="0 0 50 50" fill="none" xmlns="http://www.w3.org/2000/svg">
<g clip-path="url(#clip0_7642_13070)">
<path d="M25 50C38.8071 50 50 38.8071 50 25C50 11.1929 38.8071 0 25 0C11.1929 0 0 11.1929 0 25C0 38.8071 11.1929 50 25 50Z" fill="url(#paint0_linear_7642_13070)"/>
<path d="M27.4629 19.6038C27.4629 19.6038 21.2387 16.7764 19.1455 15.8758C18.37 15.5425 17.0604 15.0151 15.921 14.8754C13.6403 14.5961 12.7324 15.5292 12.7324 15.5292L20.515 21.6165L27.4629 19.6038Z" fill="white"/>
<path d="M36.0418 17.9463C32.9184 18.8715 16.3508 23.7787 13.971 24.4332C10.5782 25.3657 10.1765 25.2294 8.03876 22.7199C7.80663 22.4478 7.36499 22.0015 6.92467 21.5685C6.17774 20.8342 5.05501 20.64 4.10322 21.077L4.02407 21.1136C3.78263 21.2247 3.66557 21.5007 3.75403 21.7515C4.08327 22.6906 4.85415 24.8709 5.21597 25.7821C6.78167 29.7196 6.67193 30.7945 10.3394 31.0532C11.2161 31.1157 15.993 30.2391 21.5687 28.8177C22.5451 28.569 23.5415 28.3062 24.5398 28.0375L20.4626 41.3906C20.4626 41.3906 21.9019 41.8967 24.899 39.2096C25.7024 38.4893 27.7557 34.9528 28.615 33.4762C29.767 31.4968 33.2323 25.5619 33.2323 25.5619C36.2952 24.6487 38.7162 23.8872 39.6993 23.5626C41.3501 23.0165 45.0023 21.9064 45.9109 21.1548C47.6262 19.7335 43.1666 15.8372 36.0418 17.9463Z" fill="white"/>
</g>
<defs>
<linearGradient id="paint0_linear_7642_13070" x1="0" y1="25" x2="50" y2="25" gradientUnits="userSpaceOnUse">
<stop stop-color="#432815"/>
<stop offset="1" stop-color="#83634C"/>
</linearGradient>
<clipPath id="clip0_7642_13070">
<rect width="50" height="50" fill="white"/>
</clipPath>
</defs>
</svg>
