<svg width="180" height="100" viewBox="0 0 180 100" fill="none" xmlns="http://www.w3.org/2000/svg">
<rect width="180" height="100" fill="white"/>
<g clip-path="url(#clip0_2003_6278)">
<path d="M123.907 74.5705H86.3024C85.6832 74.5705 85.1797 74.0692 85.1797 73.4527C85.1797 72.8363 85.6832 72.3349 86.3024 72.3349H123.907C125.765 72.3349 127.275 70.831 127.275 68.9816V48.4537C127.275 47.8373 127.779 47.3359 128.398 47.3359C129.017 47.3359 129.521 47.8373 129.521 48.4537V68.9816C129.521 72.0639 127.001 74.5729 123.905 74.5729L123.907 74.5705Z" fill="#D12B2B"/>
<path d="M121.287 69.176H115.322C114.703 69.176 114.199 68.6747 114.199 68.0582C114.199 67.4417 114.703 66.9404 115.322 66.9404H121.287C121.41 66.9404 121.511 66.8397 121.511 66.7173V59.7252C121.511 59.1087 122.015 58.6074 122.634 58.6074C123.253 58.6074 123.756 59.1087 123.756 59.7252V66.7173C123.756 68.0726 122.648 69.1784 121.285 69.1784L121.287 69.176Z" fill="#D12B2B"/>
<path d="M86.3124 65.2169C85.8643 65.2169 85.4403 64.9458 85.2668 64.5045C85.0404 63.9288 85.3271 63.2811 85.9053 63.0557L130.61 45.6868C132.34 45.0152 133.2 43.0651 132.523 41.3428L120.386 10.3735C120.058 9.53878 119.424 8.88155 118.6 8.52174C117.776 8.16194 116.861 8.14275 116.023 8.46897L50.2734 34.0149C48.5436 34.6865 47.6835 36.6366 48.3605 38.3589L52.008 47.6633C52.2345 48.239 51.9478 48.8867 51.3696 49.1121C50.7938 49.3352 50.1409 49.0522 49.9144 48.4765L46.2669 39.172C45.1418 36.3008 46.5729 33.0506 49.4567 31.9304L115.206 6.38692C116.603 5.84482 118.128 5.876 119.501 6.47567C120.875 7.07534 121.932 8.17154 122.477 9.56277L134.614 40.5321C135.739 43.4033 134.308 46.6511 131.424 47.7737L86.7196 65.1425C86.5846 65.1953 86.4473 65.2193 86.3124 65.2193V65.2169Z" fill="#D12B2B"/>
<path d="M119.808 21.7594C119.36 21.7594 118.936 21.4884 118.763 21.047L116.209 14.5322C116.18 14.4602 116.129 14.4267 116.091 14.4075C116.052 14.3907 115.99 14.3763 115.92 14.4051L109.376 16.9477C108.801 17.1731 108.148 16.8877 107.921 16.312C107.695 15.7363 107.982 15.0887 108.56 14.8632L115.103 12.3206C115.717 12.0807 116.39 12.0951 116.994 12.359C117.599 12.6228 118.064 13.105 118.302 13.7166L120.856 20.2291C121.083 20.8047 120.796 21.4524 120.218 21.6779C120.083 21.7306 119.946 21.7546 119.811 21.7546L119.808 21.7594Z" fill="#D12B2B"/>
<path d="M55.739 46.5451C55.2909 46.5451 54.8669 46.2741 54.6935 45.8327L52.1397 39.3179C51.8988 38.7063 51.9133 38.037 52.1783 37.435C52.4433 36.8329 52.9275 36.3699 53.5443 36.1325L60.0852 33.5899C60.6634 33.3668 61.3139 33.6498 61.5404 34.2255C61.7668 34.8012 61.4801 35.4488 60.9019 35.6743L54.361 38.2169C54.2887 38.2457 54.2526 38.2961 54.2357 38.3345C54.2188 38.3728 54.2044 38.4328 54.2333 38.5048L56.787 45.0196C57.0135 45.5953 56.7268 46.2429 56.1486 46.4684C56.0137 46.5211 55.8764 46.5451 55.7415 46.5451H55.739Z" fill="#D12B2B"/>
<path d="M120.424 46.2522C119.976 46.2522 119.552 45.9811 119.378 45.5397C119.152 44.9641 119.439 44.3164 120.017 44.091L126.56 41.5484C126.676 41.5028 126.734 41.3733 126.688 41.2581L124.134 34.7457C123.908 34.17 124.194 33.5224 124.772 33.2969C125.351 33.0738 126.001 33.3569 126.228 33.9326L128.781 40.445C129.275 41.7091 128.646 43.1387 127.377 43.6304L120.833 46.173C120.699 46.2258 120.561 46.2498 120.426 46.2498L120.424 46.2522Z" fill="#D12B2B"/>
<path d="M82.7953 56.632C82.7953 56.632 82.7953 56.6104 82.7953 56.6008C82.7953 55.6318 82.2966 54.6939 81.3113 53.8112C80.3596 52.9572 78.996 52.1921 77.2614 51.5324C73.691 50.1772 68.9449 49.4336 63.8977 49.4336C58.8504 49.4336 54.1043 50.1796 50.5339 51.5324C48.7993 52.1897 47.4357 52.9572 46.4841 53.8112C45.5011 54.6939 45 55.6342 45 56.6008C45 56.6104 45 56.6224 45 56.632C45 56.62 45 56.6104 45 56.6008V63.0989C45 67.0591 53.4611 70.2685 63.9001 70.2685C74.3391 70.2685 82.7977 67.0591 82.7977 63.0989V56.6008C82.7977 56.6008 82.7977 56.6224 82.7977 56.632H82.7953ZM47.9898 55.4735C48.7246 54.8138 49.881 54.1758 51.3362 53.6241C54.656 52.3648 59.1178 51.6716 63.9001 51.6716C68.6823 51.6716 73.1441 52.3648 76.464 53.6241C77.9191 54.1758 79.0755 54.8162 79.8103 55.4735C80.2825 55.8956 80.5524 56.3082 80.5524 56.6032C80.5524 56.8983 80.2825 57.3084 79.8103 57.733C79.0755 58.3902 77.9191 59.0307 76.464 59.5824C73.1441 60.8417 68.6823 61.5349 63.9001 61.5349C59.1178 61.5349 54.656 60.8417 51.3362 59.5824C49.881 59.0307 48.7246 58.3903 47.9898 57.7306C47.5176 57.306 47.2478 56.8959 47.2478 56.6008C47.2478 56.3058 47.5176 55.8956 47.9898 55.4711V55.4735Z" fill="#D12B2B"/>
<path d="M64.0891 73.2693C53.6525 73.2693 45.1914 70.0598 45.1914 66.0996V74.5573C45.1914 78.5176 53.6525 81.727 64.0891 81.727C74.5257 81.727 82.9891 78.5176 82.9891 74.5573V66.0996C82.9891 70.0598 74.5281 73.2693 64.0891 73.2693Z" fill="#D12B2B"/>
<path d="M64.0891 84.5427C53.6525 84.5427 45.1914 81.3333 45.1914 77.373V85.8308C45.1914 89.791 53.6525 93.0004 64.0891 93.0004C74.5257 93.0004 82.9891 89.791 82.9891 85.8308V77.373C82.9891 81.3333 74.5281 84.5427 64.0891 84.5427Z" fill="#D12B2B"/>
</g>
<defs>
<clipPath id="clip0_2003_6278">
<rect width="90" height="87" fill="white" transform="translate(45 6)"/>
</clipPath>
</defs>
</svg>
