<svg width="180" height="100" viewBox="0 0 180 100" fill="none" xmlns="http://www.w3.org/2000/svg">
<rect width="180" height="100" fill="white"/>
<g clip-path="url(#clip0_2003_6272)">
<path d="M124.663 60.6016H109.217C107.937 60.6016 106.898 61.6473 106.898 62.9373V72.0823C106.898 73.3723 107.937 74.4181 109.217 74.4181H124.663C125.944 74.4181 126.982 73.3723 126.982 72.0823V62.9373C126.982 61.6473 125.944 60.6016 124.663 60.6016Z" fill="#D12B2B"/>
<path d="M129.203 26.8693H126.675V22.8419C126.675 19.6215 124.073 17 120.875 17H50.7996C47.6025 17 45 19.6215 45 22.8419V66.2913C45 69.5118 47.6025 72.1332 50.7996 72.1332H53.3275V76.1606C53.3275 79.3811 55.93 82.0025 59.1271 82.0025H129.203C132.4 82.0025 135.002 79.3811 135.002 76.1606V32.7087C135.002 29.4882 132.4 26.8668 129.203 26.8668V26.8693ZM132.681 32.7087V38.3977H55.6463V32.7087C55.6463 30.7764 57.2063 29.205 59.1246 29.205H129.2C131.119 29.205 132.679 30.7764 132.679 32.7087H132.681ZM50.7996 69.795C48.8813 69.795 47.3213 68.2236 47.3213 66.2913V22.8419C47.3213 20.9096 48.8813 19.3383 50.7996 19.3383H120.875C122.794 19.3383 124.354 20.9096 124.354 22.8419V26.8693H59.1271C55.93 26.8693 53.3275 29.4907 53.3275 32.7112V69.7975H50.7996V69.795ZM129.203 79.6642H59.1271C57.2088 79.6642 55.6488 78.0929 55.6488 76.1606V49.7481H132.684V76.1606C132.684 78.0929 131.124 79.6642 129.205 79.6642H129.203Z" fill="#D12B2B"/>
<path d="M94.6535 69.6639H64.2844C63.645 69.6639 63.125 69.1401 63.125 68.496C63.125 67.8519 63.645 67.3281 64.2844 67.3281H94.6535C95.2929 67.3281 95.8129 67.8519 95.8129 68.496C95.8129 69.1401 95.2929 69.6639 94.6535 69.6639Z" fill="#D12B2B"/>
</g>
<defs>
<clipPath id="clip0_2003_6272">
<rect width="90" height="65" fill="white" transform="translate(45 17)"/>
</clipPath>
</defs>
</svg>
