<svg width="94" height="120" viewBox="0 0 94 120" fill="none" xmlns="http://www.w3.org/2000/svg">
<path d="M25.0874 8.13243L2.18455 93.3925C0.978056 97.8839 3.65015 102.501 8.15284 103.704L57.6895 116.944C62.1922 118.147 66.8204 115.482 68.0269 110.991L90.9297 25.7306C92.1362 21.2392 89.4641 16.6226 84.9614 15.4191L35.4247 2.1791C30.9221 0.97563 26.2938 3.64103 25.0874 8.13243Z" stroke="#242424" stroke-width="1.5" stroke-miterlimit="10"/>
<path d="M26.5625 47.1302L70.1152 58.7825" stroke="#242424" stroke-width="1.5" stroke-linecap="round" stroke-linejoin="round"/>
<path d="M24.5039 54.8087L68.0566 66.461" stroke="#242424" stroke-width="1.5" stroke-linecap="round" stroke-linejoin="round"/>
<path d="M22.4297 62.4871L65.9993 74.1393" stroke="#242424" stroke-width="1.5" stroke-linecap="round" stroke-linejoin="round"/>
<path d="M20.3672 70.1654L63.9368 81.8177" stroke="#242424" stroke-width="1.5" stroke-linecap="round" stroke-linejoin="round"/>
<path d="M18.3086 77.8439L61.8613 89.4793" stroke="#242424" stroke-width="1.5" stroke-linecap="round" stroke-linejoin="round"/>
<path d="M16.25 85.5222L59.8027 97.1577" stroke="#242424" stroke-width="1.5" stroke-linecap="round" stroke-linejoin="round"/>
<path d="M77.0888 32.7904L60.1309 28.2579L55.587 45.1733L72.5449 49.7058L77.0888 32.7904Z" stroke="#242424" stroke-width="1.5" stroke-linecap="round" stroke-linejoin="round"/>
</svg>
