<svg width="82" height="110" viewBox="0 0 82 110" fill="none" xmlns="http://www.w3.org/2000/svg">
<g clip-path="url(#clip0_2003_1812)">
<path d="M1.35156 95.7758V14.2241C1.35156 7.12555 7.10832 1.35461 14.1894 1.35461H80.6489V82.9334H14.1894C7.10832 82.9334 1.35156 88.7044 1.35156 95.8029C1.35156 102.901 7.10832 108.672 14.1894 108.672H80.6489" stroke="#432815" stroke-width="1.5" stroke-linecap="round" stroke-linejoin="round"/>
<path d="M15.4355 17.9706V82.941" stroke="#432815" stroke-width="1.5" stroke-linecap="round" stroke-linejoin="round"/>
<path d="M7.07422 3.51367V85.0654" stroke="#432815" stroke-width="1.5" stroke-linecap="round" stroke-linejoin="round"/>
<path d="M13.1543 95.9917H75.4516" stroke="#432815" stroke-width="1.5" stroke-linecap="round" stroke-linejoin="round"/>
<path d="M29.4252 41.2837L29.4061 41.3028C26.7041 44.0115 26.7041 48.4031 29.4061 51.1117L43.4527 65.1929C46.1547 67.9016 50.5355 67.9016 53.2375 65.1929L53.2566 65.1738C55.9586 62.4651 55.9586 58.0735 53.2566 55.3648L39.21 41.2836C36.508 38.575 32.1272 38.575 29.4252 41.2837Z" stroke="#432815" stroke-width="1.5" stroke-linecap="round" stroke-linejoin="round"/>
<path d="M36.4238 58.1801L46.2346 48.3451" stroke="#432815" stroke-width="1.5" stroke-linecap="round" stroke-linejoin="round"/>
<path d="M55.3985 43.7366C61.5632 43.7366 66.5606 38.7268 66.5606 32.547C66.5606 26.3671 61.5632 21.3573 55.3985 21.3573C49.2338 21.3573 44.2363 26.3671 44.2363 32.547C44.2363 38.7268 49.2338 43.7366 55.3985 43.7366Z" stroke="#432815" stroke-width="1.5" stroke-linecap="round" stroke-linejoin="round"/>
<path d="M61.7894 29.6069L61.5961 29.2192C61.1622 28.3492 60.107 27.9965 59.2392 28.4314L49.811 33.156C48.9432 33.5909 48.5913 34.6487 49.0252 35.5187L49.2185 35.9064C49.6524 36.7764 50.7076 37.1291 51.5754 36.6942L61.0036 31.9696C61.8714 31.5347 62.2232 30.4769 61.7894 29.6069Z" stroke="#432815" stroke-width="1.5" stroke-linecap="round" stroke-linejoin="round"/>
</g>
<defs>
<clipPath id="clip0_2003_1812">
<rect width="82" height="110" fill="white"/>
</clipPath>
</defs>
</svg>
