<svg width="110" height="86" viewBox="0 0 110 86" fill="none" xmlns="http://www.w3.org/2000/svg">
<g clip-path="url(#clip0_2003_1859)">
<path d="M103.1 22.863L23.3653 1.35853C19.1649 0.225671 14.8474 2.73468 13.7219 6.96254L1.34021 53.4732C0.214701 57.7011 2.70743 62.0468 6.90787 63.1797L86.643 84.6842C90.8434 85.817 95.161 83.308 96.2865 79.0802L108.668 32.5694C109.794 28.3416 107.301 23.9959 103.1 22.863Z" stroke="#432815" stroke-width="1.5" stroke-miterlimit="10" stroke-linecap="round"/>
<path d="M45.3493 25.3181L37.4967 23.1975L39.6035 15.2936L31.6871 13.1731L29.5803 21.0555L21.7277 18.9564L19.5996 26.9031L27.4522 29.0237L25.3454 36.9275L33.2618 39.0695L35.3686 31.1656L43.2212 33.2862L45.3493 25.3181Z" stroke="#432815" stroke-width="1.5" stroke-miterlimit="10" stroke-linecap="round"/>
<path d="M14.5762 45.8167L38.1765 52.1784" stroke="#432815" stroke-width="1.5" stroke-miterlimit="10" stroke-linecap="round"/>
<path d="M12.2363 54.6202L35.8366 61.0032" stroke="#432815" stroke-width="1.5" stroke-miterlimit="10" stroke-linecap="round"/>
<path d="M76.8866 46.3307C82.3047 46.3307 86.697 41.9098 86.697 36.4563C86.697 31.0027 82.3047 26.5818 76.8866 26.5818C71.4684 26.5818 67.0762 31.0027 67.0762 36.4563C67.0762 41.9098 71.4684 46.3307 76.8866 46.3307Z" stroke="#432815" stroke-width="1.5" stroke-miterlimit="10" stroke-linecap="round"/>
<path d="M90.8031 61.2817C91.0797 62.5241 90.7392 63.8092 89.888 64.7303C84.4614 70.7064 75.9704 73.4909 67.6284 71.2633C59.3076 69.0142 53.3277 62.3313 51.604 54.406C51.3274 53.1637 51.6679 51.8785 52.5191 50.9574C54.6259 48.6441 57.2008 46.802 60.0312 45.5382C61.5847 44.8528 63.4574 45.217 64.5001 46.5664C66.5005 49.1796 69.3308 51.1716 72.7358 52.0712C76.1407 52.9923 79.5881 52.6924 82.61 51.4287C84.1848 50.7861 85.9724 51.4072 86.9938 52.7781C88.824 55.2842 90.1434 58.1759 90.8244 61.2603L90.8031 61.2817Z" stroke="#432815" stroke-width="1.5" stroke-miterlimit="10" stroke-linecap="round"/>
</g>
<defs>
<clipPath id="clip0_2003_1859">
<rect width="110" height="86" fill="white"/>
</clipPath>
</defs>
</svg>
