<svg width="110" height="85" viewBox="0 0 110 85" fill="none" xmlns="http://www.w3.org/2000/svg">
<path d="M102.49 22.9012L23.7596 1.99418C19.6122 0.892825 15.3491 3.33207 14.2378 7.44238L2.01177 52.6623C0.900474 56.7726 3.36174 60.9975 7.50917 62.0988L86.2396 83.0058C90.387 84.1072 94.6501 81.6679 95.7614 77.5576L107.987 32.3377C109.099 28.2274 106.637 24.0025 102.49 22.9012Z" stroke="#242424" stroke-width="1.5" stroke-miterlimit="10"/>
<path d="M13.9688 44.9265L89.3191 64.9439" stroke="#242424" stroke-width="1.5" stroke-miterlimit="10"/>
<path d="M11.6523 53.5099L87.0027 73.5119" stroke="#242424" stroke-width="1.5" stroke-miterlimit="10"/>
<path d="M44.3357 25.0017L36.5923 22.9522L38.6604 15.2626L30.8548 13.1977L28.7712 20.8718L21.0278 18.8069L18.9287 26.5581L26.6877 28.6076L24.6041 36.2971L32.4252 38.3774L34.4932 30.6879L42.2522 32.7528L44.3357 25.0017Z" stroke="#242424" stroke-width="1.5" stroke-miterlimit="10"/>
<path d="M50.5254 30.7957L95.3375 42.6921" stroke="#242424" stroke-width="1.5" stroke-miterlimit="10"/>
<path d="M52.8408 22.2277L97.653 34.1241" stroke="#242424" stroke-width="1.5" stroke-miterlimit="10"/>
<path d="M48.208 39.3789L93.0202 51.2753" stroke="#242424" stroke-width="1.5" stroke-miterlimit="10"/>
</svg>
