<svg width="110" height="85" viewBox="0 0 110 85" fill="none" xmlns="http://www.w3.org/2000/svg">
<g clip-path="url(#clip0_2003_1825)">
<path d="M103.102 22.5972L23.3673 1.34273C19.1668 0.223049 14.8493 2.70288 13.7238 6.88159L1.34216 52.8515C0.216655 57.0302 2.70938 61.3254 6.90982 62.4451L86.6449 83.6995C90.8454 84.8192 95.1629 82.3393 96.2884 78.1606L108.67 32.1907C109.796 28.012 107.303 23.7168 103.102 22.5972Z" stroke="#432815" stroke-width="1.5" stroke-miterlimit="10" stroke-linecap="round"/>
<path d="M45.3493 25.0236L37.4967 22.9277L39.6035 15.1158L31.6871 13.0199L29.5803 20.8107L21.7277 18.736L19.5996 26.5903L27.4522 28.6861L25.3454 36.4981L33.2618 38.6152L35.3686 30.8032L43.2212 32.8991L45.3493 25.0236Z" stroke="#432815" stroke-width="1.5" stroke-miterlimit="10" stroke-linecap="round"/>
<path d="M4.12891 42.4894L99.0622 67.7883" stroke="#432815" stroke-width="1.5" stroke-miterlimit="10" stroke-linecap="round"/>
<path d="M1.76758 51.2117L96.7221 76.5106" stroke="#432815" stroke-width="1.5" stroke-miterlimit="10" stroke-linecap="round"/>
<path d="M59.1406 27.67L99.0632 38.3188" stroke="#432815" stroke-width="1.5" stroke-miterlimit="10" stroke-linecap="round"/>
<path d="M56.7988 36.3923L96.7214 47.0411" stroke="#432815" stroke-width="1.5" stroke-miterlimit="10" stroke-linecap="round"/>
</g>
<defs>
<clipPath id="clip0_2003_1825">
<rect width="110" height="85" fill="white"/>
</clipPath>
</defs>
</svg>
