<svg xmlns="http://www.w3.org/2000/svg" xmlns:xlink="http://www.w3.org/1999/xlink" width="38" height="37.727" viewBox="0 0 38 37.727"><defs><clipPath id="a"><path d="M122.293,6.889c-2.745,2.576-3.59,7.179.422,8.615.337.125.633.169.337-.21a4.722,4.722,0,0,1-1.351-3.843c.041-.465.124-.374.167-.035a5.261,5.261,0,0,0,1.943,3.54c.339.21.55.167.592-.38a5.181,5.181,0,0,0-.254-3.589c-.844-1.817-1.52-2.873-1.436-3.843a.3.3,0,0,0-.241-.366.219.219,0,0,0-.18.112" transform="translate(-119.968 -6.777)" fill="#fff"/></clipPath><clipPath id="b"><path d="M192.28,42.452c-.083.151-.123.289.076.175a2.214,2.214,0,0,1,1.895-.377c.214.052.166.084.005.081a2.48,2.48,0,0,0-1.794.681c-.121.144-.116.248.139.3a2.429,2.429,0,0,0,1.7.128,4.44,4.44,0,0,1,1.9-.416c.136.04.255-.085.148-.184a3.2,3.2,0,0,0-2.436-1.462,1.8,1.8,0,0,0-1.633,1.069" transform="translate(-192.212 -41.382)" fill="#fff"/></clipPath><clipPath id="c"><path d="M174.687,25.277c-1.712.742-2.875,2.749-1.243,4.089.136.116.267.185.192-.041a2.346,2.346,0,0,1,.012-2.02c.1-.21.119-.153.082.012a2.61,2.61,0,0,0,.318,1.976c.121.157.227.172.339-.076a2.57,2.57,0,0,0,.482-1.718,4.685,4.685,0,0,1-.028-2.033c.055-.1,0-.217-.08-.217a.122.122,0,0,0-.074.028" transform="translate(-172.661 -25.249)" fill="#fff"/></clipPath><clipPath id="d"><path d="M164.727,83.691c-.191.047-.337.121-.088.2a2.581,2.581,0,0,1,1.794,1.308c.125.221.059.2-.064.065a2.859,2.859,0,0,0-1.966-.985c-.217.008-.3.092-.149.353a2.819,2.819,0,0,0,1.223,1.531c.94.553,1.57.816,1.832,1.278.073.147.271.15.268-.016.388-1.787-.4-3.828-2.164-3.828a2.671,2.671,0,0,0-.687.095" transform="translate(-164.179 -83.596)" fill="#fff"/></clipPath><clipPath id="e"><path d="M160.06.419C158,1.1,156.444,3.3,158.193,5.02c.145.148.289.242.226-.028a2.726,2.726,0,0,1,.226-2.335c.135-.232.156-.165.1.023A3.026,3.026,0,0,0,158.9,5c.125.194.246.222.4-.055a2.983,2.983,0,0,0,.737-1.935,5.453,5.453,0,0,1,.181-2.355c.077-.118.023-.26-.081-.26a.15.15,0,0,0-.078.025" transform="translate(-157.435 -0.394)" fill="#fff"/></clipPath><clipPath id="f"><path d="M111.04,65.6a2.645,2.645,0,0,0-1.117,1.461c-.292.981-.389,1.615-.75,1.957-.117.1-.075.281.075.24,1.925-.058,3.8-1.536,2.752-3.444-.087-.163-.186-.279-.2-.033a2.416,2.416,0,0,1-.783,1.929c-.174.164-.174.1-.075-.043a2.69,2.69,0,0,0,.452-2.015c-.033-.111-.078-.176-.148-.176a.341.341,0,0,0-.207.122" transform="translate(-109.106 -65.481)" fill="#fff"/></clipPath><clipPath id="g"><path d="M104.8,58.642c-.065.254.241.322.406.125.573-.615,1.64-.793,3.293-1.3a4.461,4.461,0,0,0,2.448-1.909c.328-.344.233-.5-.1-.6a4.531,4.531,0,0,0-3.393.8c-.24.167-.347.167-.074-.128a4.076,4.076,0,0,1,3.246-1.353c.415-.029.217-.194-.059-.339a3.772,3.772,0,0,0-1.794-.491c-2.313,0-3.92,2.583-3.974,5.2" transform="translate(-104.786 -53.446)" fill="#fff"/></clipPath><clipPath id="h"><path d="M167.37,3.934c-.175.017-.146.227.016.288.519.225.879.866,1.581,1.8a3.016,3.016,0,0,0,1.768,1.125c.291.13.371.033.354-.2A3.113,3.113,0,0,0,169.8,4.969c-.162-.117-.187-.184.063-.076a2.782,2.782,0,0,1,1.6,1.76c.116.258.173.094.2-.115.263-1.909-1.221-2.843-2.857-2.843a4.456,4.456,0,0,0-1.437.24" transform="translate(-167.251 -3.694)" fill="#fff"/></clipPath><clipPath id="i"><path d="M136.125,72a3.125,3.125,0,0,0,1.723,1.623c.185.072.224.133-.042.088a2.787,2.787,0,0,1-1.976-1.329c-.173-.225-.19-.05-.165.16.253,2.477,2.961,2.679,4.787,1.51.167-.059.088-.256-.083-.276-.558-.1-1.059-.633-1.965-1.379a3.007,3.007,0,0,0-1.983-.674.821.821,0,0,0-.141-.015c-.189,0-.215.11-.156.292" transform="translate(-135.655 -71.712)" fill="#fff"/></clipPath><clipPath id="j"><path d="M177.044,53.917c-.04.48-.459.947-1.025,1.77a2.558,2.558,0,0,0-.425,1.734c-.027.272.074.309.257.231a2.65,2.65,0,0,0,1.25-1.582c.049-.162.1-.2.079.028a2.378,2.378,0,0,1-.984,1.777c-.177.163-.028.163.148.129,2.086-.4,2.059-2.711.93-4.179a.1.1,0,0,0-.093-.07.157.157,0,0,0-.136.162" transform="translate(-175.589 -53.755)" fill="#fff"/></clipPath><clipPath id="k"><path d="M102.726,38.175c-.262.185-.033.492.279.44,1.022-.112,2.153.578,4.09,1.428a5.463,5.463,0,0,0,3.8.183c.578-.057.618-.28.387-.631-1.059-1.614-3.424-1.936-3.782-1.972s-.456-.122.034-.177a4.986,4.986,0,0,1,4.089,1.338c.408.3.355-.007.215-.361a4,4,0,0,0-3.891-2.816,7.413,7.413,0,0,0-5.216,2.569" transform="translate(-102.612 -35.606)" fill="#fff"/></clipPath><clipPath id="l"><path d="M154.483,88.438a3.614,3.614,0,0,0,1.706,2.292c.205.121.24.2-.071.1a3.207,3.207,0,0,1-2.075-1.972c-.159-.306-.217-.1-.235.168-.249,3.106,2.957,3.807,5.413,2.663.212-.044.162-.3-.039-.355-.649-.211-1.13-.958-2.052-2.029a3.465,3.465,0,0,0-2.233-1.163.74.74,0,0,0-.227-.046c-.174,0-.217.127-.189.34" transform="translate(-153.795 -88.099)" fill="#fff"/></clipPath><clipPath id="m"><path d="M189.787,47.322c-.864.451-2.1.233-4.1.152a5.165,5.165,0,0,0-3.41,1.146c-.491.249-.45.46-.124.69a5.256,5.256,0,0,0,4.014.436c.329-.09.445-.051.032.167a4.717,4.717,0,0,1-4.068.229c-.464-.127-.311.129-.064.392,2.867,3.153,6.793.605,8.116-2.92.127-.191-.017-.346-.205-.346a.38.38,0,0,0-.191.054" transform="translate(-181.833 -47.268)" fill="#fff"/></clipPath><clipPath id="n"><path d="M164.091,24.578a.119.119,0,0,0-.092.134,2.3,2.3,0,0,0,.967,1.386,2.6,2.6,0,0,0,1.742.248.114.114,0,0,0,.09-.133,2.289,2.289,0,0,0-.966-1.384,2.315,2.315,0,0,0-1.193-.3,2.657,2.657,0,0,0-.549.053" transform="translate(-163.997 -24.525)" fill="#fff"/></clipPath><clipPath id="o"><path d="M123.965,49.592a2.711,2.711,0,0,0-.947,1.757,3.073,3.073,0,0,0,.664,1.971.136.136,0,0,0,.19.023,2.7,2.7,0,0,0,.946-1.754,3.063,3.063,0,0,0-.665-1.971.143.143,0,0,0-.109-.051.129.129,0,0,0-.079.027" transform="translate(-123.012 -49.565)" fill="#fff"/></clipPath><clipPath id="p"><path d="M150.438,75.608a3.071,3.071,0,0,0-1.319,1.608.137.137,0,0,0,.08.173,2.707,2.707,0,0,0,1.991-.13,3.06,3.06,0,0,0,1.318-1.609.137.137,0,0,0-.078-.172,2.811,2.811,0,0,0-.871-.134,2.4,2.4,0,0,0-1.12.263" transform="translate(-149.112 -75.345)" fill="#fff"/></clipPath><clipPath id="q"><path d="M161.1,74.314a2.5,2.5,0,0,0-1.908,3.807.245.245,0,0,0,.248.126,2.507,2.507,0,0,0,1.909-3.81.245.245,0,0,0-.212-.127.178.178,0,0,0-.038,0" transform="translate(-158.861 -74.31)" fill="#fff"/></clipPath><clipPath id="r"><path d="M182.966,77.81a2.926,2.926,0,0,0-1.3,1.565c-.37,1.072-.511,1.769-.924,2.131-.135.1-.1.306.071.269,2.135.027,4.287-1.519,3.214-3.68-.088-.184-.193-.319-.221-.047a2.679,2.679,0,0,1-.96,2.1c-.2.173-.2.1-.08-.051a2.992,2.992,0,0,0,.6-2.209c-.032-.127-.08-.2-.161-.2a.4.4,0,0,0-.231.126" transform="translate(-180.656 -77.684)" fill="#fff"/></clipPath><clipPath id="s"><path d="M188.905,69.873a.207.207,0,0,0-.173.157,2.807,2.807,0,0,0,.41,2.073,2.434,2.434,0,0,0,1.882.725.2.2,0,0,0,.172-.157,2.8,2.8,0,0,0-.408-2.073,2.353,2.353,0,0,0-1.778-.728c-.066,0-.1,0-.1,0" transform="translate(-188.684 -69.87)" fill="#fff"/></clipPath><clipPath id="t"><path d="M190.62,60.355a3.68,3.68,0,0,0-2.389,1.671.294.294,0,0,0,.034.33,3,3,0,0,0,5.068-.518.291.291,0,0,0-.034-.33,3.82,3.82,0,0,0-2.442-1.165c-.078,0-.157,0-.237.012" transform="translate(-188.196 -60.343)" fill="#fff"/></clipPath><clipPath id="u"><path d="M110.954,21.43a.293.293,0,0,0-.262.221,4.056,4.056,0,0,0,.533,3.054A3.7,3.7,0,0,0,114,25.863a.3.3,0,0,0,.262-.223,4.059,4.059,0,0,0-.534-3.053A3.646,3.646,0,0,0,111,21.43h-.045" transform="translate(-110.599 -21.43)" fill="#fff"/></clipPath><clipPath id="v"><path d="M134.146,2.4a2.68,2.68,0,0,0-1.909.931,2.679,2.679,0,0,0-.214,2.114.213.213,0,0,0,.2.138,2.676,2.676,0,0,0,1.911-.932,2.678,2.678,0,0,0,.212-2.113.211.211,0,0,0-.191-.139h-.007" transform="translate(-131.894 -2.402)" fill="#fff"/></clipPath><clipPath id="w"><path d="M105.406,31.955a.8.8,0,1,0,.8-.8.8.8,0,0,0-.8.8" transform="translate(-105.406 -31.158)" fill="#fff"/></clipPath><clipPath id="x"><path d="M176.459,89.79a.8.8,0,1,0,.8-.8.8.8,0,0,0-.8.8" transform="translate(-176.459 -88.992)" fill="#fff"/></clipPath><clipPath id="y"><path d="M113.3,78.733a.8.8,0,1,0,.8-.8.8.8,0,0,0-.8.8" transform="translate(-113.3 -77.935)" fill="#fff"/></clipPath><clipPath id="z"><path d="M183.179,65.922a.632.632,0,1,0,.631-.631.632.632,0,0,0-.631.631" transform="translate(-183.179 -65.291)" fill="#fff"/></clipPath><clipPath id="aa"><path d="M102.348,49.609a.91.91,0,1,0,.909-.909.909.909,0,0,0-.909.909" transform="translate(-102.348 -48.7)" fill="#fff"/></clipPath><clipPath id="ab"><path d="M172.8,16.617a.91.91,0,1,0,.909-.911.91.91,0,0,0-.909.911" transform="translate(-172.798 -15.706)" fill="#fff"/></clipPath><clipPath id="ac"><path d="M142.005,0a.338.338,0,0,0-.234.182c-.755,1.292-3.6,1.9-4.8,2.915-3.281,2.774-2.131,6.048-2.283,6.712s.012.888.367.585a15.942,15.942,0,0,0,4.8-5.751c.013-.138.29-.651.225.03-.224,2.3-3.641,5.688-4.027,5.969s-.23.457.113.286c7.214-1.912,6.311-8.489,6.11-10.392-.042-.4-.15-.53-.26-.536Z" transform="translate(-134.616)" fill="#fff"/></clipPath><clipPath id="ad"><path d="M184.47,24.825c-.782,1.05-3.315,1.3-4.453,2.068-3.121,2.091-2.439,5.05-2.636,5.612s-.076.775.263.544a13.908,13.908,0,0,0,4.731-4.533c.026-.117.317-.537.194.049-.419,1.982-3.717,4.591-4.082,4.8s-.243.374.072.258c6.457-.961,6.311-6.767,6.322-8.441,0-.375-.092-.491-.2-.491a.3.3,0,0,0-.213.135" transform="translate(-177.286 -24.69)" fill="#fff"/></clipPath><clipPath id="ae"><path d="M120.891,65.138a1.1,1.1,0,1,1,1.1,1.1,1.1,1.1,0,0,1-1.1-1.1m.7-1.712c0,.073,0,.144.006.213-.032-.062-.065-.126-.1-.187-.362-.626-.81-1.044-1-.933s-.056.708.308,1.335c.035.062.074.124.111.182-.058-.038-.118-.076-.182-.112-.626-.361-1.223-.5-1.335-.307s.307.641.933,1c.063.037.126.07.188.1-.069,0-.141-.005-.214-.005-.723,0-1.308.18-1.308.4s.585.4,1.308.4c.073,0,.144,0,.214-.007-.062.032-.125.065-.188.1-.627.362-1.043.81-.933,1s.708.055,1.335-.307c.064-.037.124-.074.182-.111-.037.058-.076.118-.111.181-.363.627-.5,1.224-.308,1.335s.64-.306,1-.934c.037-.062.07-.125.1-.187,0,.07-.006.14-.006.212,0,.726.179,1.31.4,1.311s.4-.585.4-1.311c0-.071,0-.143-.006-.212.032.062.065.125.1.187.362.628.811,1.045,1,.934s.056-.708-.306-1.335c-.037-.063-.074-.123-.112-.182q.087.057.182.112c.626.362,1.223.5,1.333.307s-.306-.64-.933-1c-.063-.037-.126-.071-.188-.1.07,0,.141.007.214.007.724,0,1.31-.18,1.31-.4s-.586-.4-1.31-.4c-.072,0-.144,0-.212.005.06-.032.123-.065.186-.1.626-.361,1.045-.81.933-1s-.707-.054-1.333.307c-.063.036-.124.074-.182.111.038-.058.075-.118.111-.181.362-.626.5-1.224.306-1.335s-.64.307-1,.933c-.036.062-.069.125-.1.187,0-.071.006-.14.006-.213,0-.723-.18-1.309-.4-1.309s-.4.586-.4,1.309" transform="translate(-118.993 -62.117)" fill="#fff"/></clipPath><clipPath id="af"><path d="M170.95,70.192a.951.951,0,1,1,.383.081.951.951,0,0,1-.383-.081m-.054-2.765a1.636,1.636,0,0,0-1.653-.822c-.244.162-.171.276-.321.412s-.255.049-.443.273a1.49,1.49,0,0,0,.875,1.894,1.668,1.668,0,0,0-1.034,1.763c.164.243.278.169.413.319s.05.256.273.442a1.381,1.381,0,0,0,1.524-.343,1.586,1.586,0,0,0,.934,1.365c.292-.005.293-.14.493-.173a.437.437,0,0,1,.2.019.5.5,0,0,0,.321-.006,1.459,1.459,0,0,0,.413-1.861,1.665,1.665,0,0,0,1.921-.624c.042-.29-.092-.312-.092-.513s.134-.224.095-.513a1.451,1.451,0,0,0-1.716-.717,1.644,1.644,0,0,0,.092-1.886.5.5,0,0,0-.31-.087.42.42,0,0,1-.2-.035c-.185-.081-.15-.211-.433-.288a.338.338,0,0,0-.091-.011,1.533,1.533,0,0,0-1.264,1.391" transform="translate(-168.275 -66.037)" fill="#fff"/></clipPath><clipPath id="ag"><path d="M120.819,78.576c-.443.173-.6.832-.348,1.468l.005.014,0,0,0,0v.007l0,0,0,0,0,0,.007.017v0h0l.009.022,0,.005h0v0l0,0,0,.007,0,.005v.008l0,0v0l0,0,.005.012,0,0,0,0,0,0,0,.005,0,.009,0,0,0,0,0,.008,0,0,0,.005,0,0,0,0,0,0v0l0,0v0l0,0,0,0,0,0,.007.011,0,0,0,0,0,0,0,0,0,0,0,0,0,0,0,0h-.013l0,0h-.064l0,0h-.18l-.028,0c-.684.041-1.216.456-1.188.93s.606.826,1.289.786h.037l.018,0h.042l.005,0h.032l.008,0h.029l.007,0h.023l0,0h.009l.008,0h.01l0,0h.027l0,0h0l.014,0,0,0a1.706,1.706,0,0,0-.1.279c-.173.662.059,1.3.518,1.418s.973-.323,1.145-.985a1.8,1.8,0,0,0,.051-.288l0,0,0,0,.005.007,0,0h0l0,0,0,0,.01.008,0,0,0,0,0,0,0,0,.007.005,0,0,0,0,0,0,0,0,0,0,.007.006,0,0,0,0,0,0,0,0,0,0,0,0,0,0,0,0,0,0,0,0,.007.005h0l0,0,0,0,.007,0,0,0,0,0,0,0h0l.017.012.005,0h0l0,0,.016.011,0,0,0,0,.023.016c.576.369,1.253.346,1.508-.055s0-1.024-.582-1.393l-.025-.015,0,0-.025-.015h0l0,0-.025-.013h0l0,0h0l-.011-.008,0,0,0,0h0l0,0,0,0,0,0-.007-.005h-.005l-.008,0,0,0h-.007l-.005,0h-.008l0,0,0,0,0,0,0,0h0l0,0h-.008l0,0h0l0,0h-.005l-.012,0,0,0,0,0h0l0,0-.009,0,0,0,0,0,0,0,.007,0,0,0,0,0h0l0,0,0,0h0l.007,0,0,0,0,0,0,0,0,0h0l0,0v0h0l0,0,0,0,0,0,0,0,.005,0,.007-.006h0l0,0h0l0,0,0,0,0,0,0,0,0,0,.011-.008,0,0,0,0h0l0,0,0,0,.011-.008,0,0,0,0h0l.019-.015,0,0h0l0,0,.018-.014,0,0,.025-.019c.529-.436.714-1.086.413-1.453s-.975-.312-1.5.123l-.018.015,0,0,0,0h0l-.021.019h0v0l0,0-.01.01,0,0,0,0h0l0,0,0,0,0,0,0,0,0,0,0,0,0,0h0l0,0,0,0,0,0-.006.007,0,0-.005.007,0,0,0,0,0,0,0,0,0,0-.006.007,0,0,0,0,0,0,0,0,0,0-.005.005h0l0,0,0,0,0,0,0,0,0,0,0,0,0,0,0,0,0,0,0,0,0,0-.005.007,0,0,0,0v-.009h0v-.007l0-.007v0l0-.005v-.007h0v-.01l0-.01v-.008h0v0l-.006-.021v0h0v0l-.008-.027h0l-.009-.03-.008-.027v0h0l-.009-.026h0v0l0,0-.009-.022v0h0l-.011-.03a1.256,1.256,0,0,0-1.028-.884.62.62,0,0,0-.225.042" transform="translate(-119.118 -78.534)" fill="#fff"/></clipPath><clipPath id="ah"><path d="M126.133,30.972l0,.013v0h0l0,.016v0h0v0l0,.01h0v.006h0v.02h0v.007h0v.02l0,0v0h0v0h0V31.1h0v.012h0v.027h0l0,0h0l0,0,0,0h0l0,0h0l0,0,0,0,0,0h0l-.011-.009,0,0h0l-.012-.009h0l-.016-.011-.014-.01h0l-.012-.01h0l-.012-.007,0,0-.016-.009a.647.647,0,0,0-.882.055c-.143.238.019.6.362.806l.008,0h0l0,0h.007l0,0,.009.005h0l.012.007h0l0,0h0l.005,0,0,0h.009v0l.007,0h0l0,0h0l0,0,0,0h0l0,0,0,0h.005l0,0h0l0,0,0,0h0l0,0h.005l.007,0h0l0,0,0,0h.008l0,0H125.6l0,0h-.006l0,0h0l0,0h-.008l0,0h-.009l0,0h0l0,0h-.006l0,0-.005,0,0,0h0l-.011.007,0,0,0,0-.011.008h0l-.011.01h-.006l0,0-.005.007h-.005l-.012.011c-.3.263-.4.646-.219.857s.576.166.878-.1h0l0,0,.007-.007h0l0,0,.009-.007v0h0l.006-.006,0,0h0l0,0h0v0h0v0l0,0h0l0,0h0l0,0,0,0h0l0,0,0,0,0,0h0l0,0h0l0,0,0,0,0,0,0,0h0l0,0,0,0,0,0h0l0,0h0l0,0,0,0h0l0,0,0,0h0l0,0h0l.005-.006h0a1.112,1.112,0,0,0,.053.163c.157.369.491.582.747.473s.336-.5.18-.866a1.011,1.011,0,0,0-.079-.152h.058l.005,0h.032l0,0v0l0,0h.072c.4-.034.7-.286.679-.564s-.367-.473-.766-.438h-.019l-.017,0h0l-.016,0h-.016l0,0h-.028l0,0H127.1l0,0h-.009l-.008,0h0l0,0h0l-.005,0h-.005v0l0,0V31.35h0v0l0,0,0-.005v0l0,0v0h0v0h0v-.007h0V31.3l0,0v-.016h0l0-.009v-.005h0v-.005l0-.007,0,0v0h0l0-.015,0,0v0l0-.013v0h0l.005-.018c.09-.39-.057-.757-.326-.821a.349.349,0,0,0-.08-.009c-.247,0-.494.25-.575.6" transform="translate(-125.035 -30.369)" fill="#fff"/></clipPath><clipPath id="ai"><path d="M153.836,17.665c-.237.147-.259.54-.05.882l.009.012v0h0l.009.012v0h0l0,.007,0,0,0,0h0V18.6l0,0,0,0v0h0v0h0l0,.005h0l0,0,0,0,0,0h0l0,0h0l0,.005h0v0h0v0h0l0,.006h0l0,0v0l0,0v0h0v0h0l0,0h0l0,0v0h-.019l0,0,0,0,0,0h-.019l-.013,0h0l-.016,0h0l-.018,0-.016,0h0l-.016,0h0l-.013,0h0l-.019,0c-.389.092-.652.388-.587.66s.433.412.824.319l.008,0h.016l.011,0h0l.014,0h.007l0,0h.013l.007,0,0,0h.007l.005,0h.005l0,0h0l0,0h.011l0,0h.009l.008,0h.009l0,0h0v0h0v.04h0v.029l0,.006v0h0v0l0,.013h0v.018l0,0h0v.016h0v.021l0,.016c-.031.4.168.741.445.762s.527-.285.558-.684v-.039h0v-.009h0v0h0v0h0v0h0v-.007h0V19.8h0v-.047h0v-.015h0v-.011h0v-.011a1.289,1.289,0,0,0,.151.079c.371.151.757.068.864-.189s-.109-.589-.479-.742a.913.913,0,0,0-.163-.052l0,0v0l0,0,0,0h0l0,0h0l.005-.005,0,0,0,0h0l0,0,0,0v0h0l0,0,0,0h0l0,0h0l0,0,0,0h0v0l0,0h0l0,0,0,0,0,0,0,0h0v0l0,0,0,0,0,0h0v0h0l.01-.01h0l0,0,.007-.009,0,0h0l.012-.011c.26-.306.3-.7.088-.879s-.594-.079-.854.226l-.011.011v0l-.012.014h0l-.01.013v0h0l0,0,0,.006,0,0v0h0v0l0,0h0l0,0,0,0,0,.005h0l0,0v0l0,0v0h0l0,0v0h0v0h0l0,0,0,0v.006h0l0,0,0,.007v0l0,0h0l0,0,0,.005v0h0l0-.005v0l0,0h0l0,0v0l0-.006h0v0l0,0v-.009h0l0,0v0l0,0v0l0,0,0-.005v0h0v0h0v0h0v0l0-.008v0h0v0l0-.008h0v0l-.007-.011,0,0h0v0l-.007-.012h0l-.01-.016a.78.78,0,0,0-.61-.409.378.378,0,0,0-.2.053" transform="translate(-153.121 -17.612)" fill="#fff"/></clipPath><clipPath id="aj"><path d="M162.751,12.576c0,.01,0,.019-.005.028l-.016-.024c-.372-.558-.82-.912-1-.792s-.024.669.348,1.227l.017.024a.175.175,0,0,1-.028-.007c-.658-.129-1.225-.064-1.267.147s.456.49,1.114.621l.028,0-.023.016c-.559.373-.914.821-.793,1s.669.024,1.227-.35c.007,0,.016-.011.023-.016s0,.019-.005.028c-.131.658-.065,1.226.147,1.269s.49-.458.62-1.115c0-.01,0-.019.006-.028l.016.023c.372.557.819.912,1,.793s.023-.669-.349-1.228l-.016-.024.028.007c.658.13,1.225.065,1.266-.147s-.456-.489-1.114-.619a.112.112,0,0,0-.028-.006l.024-.016c.558-.374.912-.82.792-1s-.668-.023-1.227.35l-.023.016.006-.028c.131-.658.064-1.227-.147-1.269a.106.106,0,0,0-.025,0c-.207,0-.47.486-.6,1.118" transform="translate(-160.798 -11.458)" fill="#fff"/></clipPath><clipPath id="ak"><path d="M180.844,12.925a1.065,1.065,0,0,0-.209,1.373,3.014,3.014,0,0,0,1.292.979c.06.071.161.083.169-.08s.694-1,.322-1.733a1.575,1.575,0,0,0-1.229-.815.3.3,0,0,0-.088-.018c-.088,0-.108.087-.258.294" transform="translate(-180.455 -12.631)" fill="#fff"/></clipPath><clipPath id="al"><path d="M183.839,20.5c-.007.165-.692,1-.32,1.732a1.571,1.571,0,0,0,1.228.816c.175.055.156-.012.345-.275A1.063,1.063,0,0,0,185.3,21.4a3.014,3.014,0,0,0-1.293-.977.12.12,0,0,0-.088-.053c-.04,0-.076.037-.081.13" transform="translate(-183.408 -20.366)" fill="#fff"/></clipPath><clipPath id="am"><path d="M186.028,16a3.012,3.012,0,0,0-.977,1.294c-.074.059-.085.16.08.169s1,.693,1.73.32a1.569,1.569,0,0,0,.816-1.228c.057-.175-.013-.156-.275-.345a1.432,1.432,0,0,0-.831-.39.982.982,0,0,0-.544.181" transform="translate(-184.999 -15.819)" fill="#fff"/></clipPath><clipPath id="an"><path d="M178.1,18.884a1.58,1.58,0,0,0-.817,1.229c-.056.175.014.156.276.344a1.064,1.064,0,0,0,1.374.209,3,3,0,0,0,.978-1.292c.074-.06.085-.159-.08-.168a3.7,3.7,0,0,0-1.259-.431,1.038,1.038,0,0,0-.473.11" transform="translate(-177.264 -18.774)" fill="#fff"/></clipPath><clipPath id="ao"><path d="M183.746,19.087a.356.356,0,1,0,.224-.079.357.357,0,0,0-.224.079" transform="translate(-183.612 -19.008)" fill="#fff"/></clipPath><clipPath id="ap"><path d="M135.572,81.36a1.533,1.533,0,0,0,.076,2,4.328,4.328,0,0,0,2.1,1.036c.1.089.251.076.219-.157s.711-1.605-.014-2.542a2.287,2.287,0,0,0-1.963-.824.647.647,0,0,0-.077-.005c-.179,0-.163.116-.338.491" transform="translate(-135.223 -80.869)" fill="#fff"/></clipPath><clipPath id="aq"><path d="M141.96,91.339c.034.236-.71,1.607.016,2.542a2.269,2.269,0,0,0,1.961.823c.262.03.218-.06.415-.484a1.537,1.537,0,0,0-.076-2,4.365,4.365,0,0,0-2.1-1.036.19.19,0,0,0-.117-.05c-.067,0-.12.059-.1.208" transform="translate(-141.656 -91.131)" fill="#fff"/></clipPath><clipPath id="ar"><path d="M143.968,83.893a4.363,4.363,0,0,0-1.033,2.1c-.089.1-.077.249.158.216a2.946,2.946,0,0,1,.585.152,2.17,2.17,0,0,0,1.953-.168,2.262,2.262,0,0,0,.825-1.961c.032-.262-.061-.218-.484-.415a2.492,2.492,0,0,0-1.062-.348,1.325,1.325,0,0,0-.943.424" transform="translate(-142.884 -83.469)" fill="#fff"/></clipPath><clipPath id="as"><path d="M133.451,90.226a2.269,2.269,0,0,0-.824,1.961c-.031.263.061.219.484.413a1.533,1.533,0,0,0,2-.075,4.345,4.345,0,0,0,1.035-2.1c.088-.1.077-.25-.157-.218a2.874,2.874,0,0,1-.589-.15,3.516,3.516,0,0,0-.941-.152,1.607,1.607,0,0,0-1.012.319" transform="translate(-132.622 -89.907)" fill="#fff"/></clipPath><clipPath id="at"><path d="M141.048,89.423a.511.511,0,1,0,.392-.183.511.511,0,0,0-.392.183" transform="translate(-140.924 -89.24)" fill="#fff"/></clipPath></defs><g transform="translate(14441.441 3165)"><g transform="translate(-14434.847 -3162.358)" clip-path="url(#a)"><rect width="10.651" height="9.277" transform="matrix(0.392, -0.92, 0.92, 0.392, -4.473, 7.528)" fill="#fff"/></g><g transform="translate(-14407.796 -3149.469)" clip-path="url(#b)"><rect width="3.836" height="4.872" transform="translate(-0.898 1.978) rotate(-66.911)" fill="#fff"/></g><g transform="translate(-14415.054 -3155.545)" clip-path="url(#c)"><rect width="5.192" height="4.583" transform="matrix(0.392, -0.92, 0.92, 0.392, -2.401, 3.641)" fill="#fff"/></g><g transform="translate(-14418.269 -3133.788)" clip-path="url(#d)"><rect width="5.188" height="5.119" transform="translate(-1.515 3.38) rotate(-66.911)" fill="#fff"/></g><g transform="translate(-14420.781 -3164.846)" clip-path="url(#e)"><rect width="5.989" height="5.452" transform="translate(-2.748 4.12) rotate(-66.911)" fill="#fff"/></g><g transform="translate(-14438.808 -3140.468)" clip-path="url(#f)"><rect width="5.082" height="5.175" transform="matrix(0.392, -0.92, 0.92, 0.392, -1.428, 3.234)" fill="#fff"/></g><g transform="translate(-14440.491 -3145.017)" clip-path="url(#g)"><rect width="7.641" height="8.18" transform="matrix(0.392, -0.92, 0.92, 0.392, -2.047, 4.669)" fill="#fff"/></g><g transform="translate(-14417.144 -3163.56)" clip-path="url(#h)"><rect width="5.156" height="5.761" transform="translate(-1.35 3.036) rotate(-66.911)" fill="#fff"/></g><g transform="translate(-14428.979 -3138.111)" clip-path="url(#i)"><rect width="5.237" height="5.981" transform="translate(-1.304 2.963) rotate(-66.911)" fill="#fff"/></g><g transform="translate(-14413.961 -3144.873)" clip-path="url(#j)"><rect width="5.108" height="4.418" transform="matrix(0.392, -0.92, 0.92, 0.392, -1.682, 3.625)" fill="#fff"/></g><g transform="translate(-14441.338 -3151.677)" clip-path="url(#k)"><rect width="8.612" height="10.869" transform="translate(-2.055 4.472) rotate(-66.911)" fill="#fff"/></g><g transform="translate(-14422.207 -3132.032)" clip-path="url(#l)"><rect width="6.662" height="7.261" transform="translate(-1.944 4.009) rotate(-66.911)" fill="#fff"/></g><g transform="translate(-14411.841 -3147.311)" clip-path="url(#m)"><rect width="9.294" height="10.467" transform="matrix(0.392, -0.92, 0.92, 0.392, -2.48, 5.431)" fill="#fff"/></g><g transform="translate(-14418.319 -3155.793)" clip-path="url(#n)"><rect width="2.989" height="3.4" transform="matrix(0.392, -0.92, 0.92, 0.392, -0.748, 1.731)" fill="#fff"/></g><g transform="translate(-14433.683 -3146.431)" clip-path="url(#o)"><rect width="4.287" height="3.306" transform="matrix(0.392, -0.92, 0.92, 0.392, -1.455, 3.236)" fill="#fff"/></g><g transform="translate(-14423.915 -3136.723)" clip-path="url(#p)"><rect width="3.572" height="4.11" transform="translate(-0.888 2.046) rotate(-66.911)" fill="#fff"/></g><g transform="translate(-14420.245 -3137.165)" clip-path="url(#q)"><rect width="5" height="4.748" transform="translate(-1.759 3.345) rotate(-66.911)" fill="#fff"/></g><g transform="translate(-14412.3 -3136.092)" clip-path="url(#r)"><rect width="5.559" height="5.751" transform="matrix(0.392, -0.92, 0.92, 0.392, -1.543, 3.493)" fill="#fff"/></g><g transform="translate(-14409.17 -3138.8)" clip-path="url(#s)"><rect width="3.967" height="3.929" transform="translate(-1.305 2.577) rotate(-66.911)" fill="#fff"/></g><g transform="translate(-14409.361 -3142.377)" clip-path="url(#t)"><rect width="5.097" height="6.102" transform="translate(-1.218 2.806) rotate(-66.911)" fill="#fff"/></g><g transform="translate(-14438.225 -3156.978)" clip-path="url(#u)"><rect width="5.865" height="5.824" transform="translate(-1.952 3.802) rotate(-66.911)" fill="#fff"/></g><g transform="translate(-14430.356 -3164.064)" clip-path="url(#v)"><rect width="4.157" height="4.125" transform="translate(-1.423 2.697) rotate(-66.911)" fill="#fff"/></g><g transform="translate(-14440.249 -3153.299)" clip-path="url(#w)"><rect width="2.093" height="2.093" transform="translate(-0.576 1.35) rotate(-66.911)" fill="#fff"/></g><g transform="translate(-14413.61 -3131.684)" clip-path="url(#x)"><rect width="2.093" height="2.093" transform="matrix(0.392, -0.92, 0.92, 0.392, -0.576, 1.35)" fill="#fff"/></g><g transform="translate(-14437.173 -3135.734)" clip-path="url(#y)"><rect width="2.093" height="2.093" transform="matrix(0.392, -0.92, 0.92, 0.392, -0.576, 1.35)" fill="#fff"/></g><g transform="translate(-14411.316 -3140.474)" clip-path="url(#z)"><rect width="1.658" height="1.658" transform="translate(-0.456 1.069) rotate(-66.911)" fill="#fff"/></g><g transform="translate(-14441.441 -3146.716)" clip-path="url(#aa)"><rect width="2.388" height="2.387" transform="translate(-0.656 1.54) rotate(-66.911)" fill="#fff"/></g><g transform="translate(-14414.99 -3159.103)" clip-path="url(#ab)"><rect width="2.388" height="2.388" transform="translate(-0.657 1.541) rotate(-66.911)" fill="#fff"/></g><g transform="translate(-14429.415 -3165)" clip-path="url(#ac)"><rect width="14.01" height="13.267" transform="translate(-4.926 9.392) rotate(-66.911)" fill="#fff"/></g><g transform="translate(-14413.613 -3155.814)" clip-path="url(#ad)"><rect width="11.508" height="11.017" transform="matrix(0.392, -0.92, 0.92, 0.392, -3.654, 7.657)" fill="#fff"/></g><g transform="translate(-14435.221 -3141.791)" clip-path="url(#ae)"><rect width="7.871" height="7.872" transform="translate(-2.166 5.076) rotate(-66.911)" fill="#fff"/></g><g transform="translate(-14416.826 -3140.35)" clip-path="url(#af)"><rect width="8.786" height="8.784" transform="translate(-2.531 5.667) rotate(-66.911)" fill="#fff"/></g><g transform="translate(-14435.167 -3135.76)" clip-path="url(#ag)"><rect width="6.883" height="6.866" transform="matrix(0.392, -0.92, 0.92, 0.392, -1.923, 4.447)" fill="#fff"/></g><g transform="translate(-14432.934 -3153.613)" clip-path="url(#ah)"><rect width="4.053" height="4.044" transform="translate(-1.207 2.618) rotate(-66.911)" fill="#fff"/></g><g transform="translate(-14422.404 -3158.396)" clip-path="url(#ai)"><rect width="3.974" height="4.063" transform="translate(-1.129 2.52) rotate(-66.911)" fill="#fff"/></g><g transform="translate(-14419.556 -3160.534)" clip-path="url(#aj)"><rect width="5.703" height="5.722" transform="translate(-1.603 3.668) rotate(-66.911)" fill="#fff"/></g><g transform="translate(-14412.124 -3160.077)" clip-path="url(#ak)"><rect width="3.524" height="3.449" transform="translate(-1.235 2.309) rotate(-66.911)" fill="#fff"/></g><g transform="translate(-14411.227 -3157.361)" clip-path="url(#al)"><rect width="3.528" height="3.451" transform="translate(-1.248 2.312) rotate(-66.911)" fill="#fff"/></g><g transform="translate(-14410.607 -3159.063)" clip-path="url(#am)"><rect width="3.234" height="3.462" transform="translate(-0.876 1.977) rotate(-66.911)" fill="#fff"/></g><g transform="translate(-14413.341 -3157.954)" clip-path="url(#an)"><rect width="3.224" height="3.458" transform="translate(-0.876 1.967) rotate(-66.911)" fill="#fff"/></g><g transform="translate(-14411.148 -3157.856)" clip-path="url(#ao)"><rect width="1.014" height="1.038" transform="translate(-0.319 0.643) rotate(-66.911)" fill="#fff"/></g><g transform="translate(-14429.115 -3134.85)" clip-path="url(#ap)"><rect width="4.92" height="4.969" transform="matrix(0.392, -0.92, 0.92, 0.392, -1.707, 3.045)" fill="#fff"/></g><g transform="translate(-14426.702 -3130.851)" clip-path="url(#aq)"><rect width="4.889" height="4.957" transform="translate(-1.737 3.12) rotate(-66.911)" fill="#fff"/></g><g transform="translate(-14426.251 -3133.837)" clip-path="url(#ar)"><rect width="4.405" height="4.681" transform="translate(-1.192 2.708) rotate(-66.911)" fill="#fff"/></g><g transform="translate(-14430.097 -3131.328)" clip-path="url(#as)"><rect width="4.595" height="4.761" transform="matrix(0.392, -0.92, 0.92, 0.392, -1.337, 2.884)" fill="#fff"/></g><g transform="translate(-14426.946 -3131.587)" clip-path="url(#at)"><rect width="1.459" height="1.491" transform="translate(-0.456 0.925) rotate(-66.911)" fill="#fff"/></g></g></svg>