<svg xmlns="http://www.w3.org/2000/svg" xmlns:xlink="http://www.w3.org/1999/xlink" width="29.741" height="30.161" viewBox="0 0 29.741 30.161"><defs><clipPath id="a"><rect width="29.741" height="30.161" transform="translate(0 0)" fill="none" stroke="#fff" stroke-width="1.5"/></clipPath></defs><g transform="translate(0 -0.001)"><g clip-path="url(#a)"><path d="M29.289,30.459H.452a.75.75,0,0,1-.75-.75V3.855a.75.75,0,0,1,.75-.75H8.416a.75.75,0,0,1,0,1.5H1.2V28.959H28.539V4.605h-3.31a.75.75,0,0,1,0-1.5h4.06a.75.75,0,0,1,.75.75V29.709A.75.75,0,0,1,29.289,30.459Z" fill="#fff"/></g><path d="M8.319.75H0A.75.75,0,0,1-.75,0,.75.75,0,0,1,0-.75H8.319a.75.75,0,0,1,.75.75A.75.75,0,0,1,8.319.75Z" transform="translate(13.012 3.855)" fill="#fff"/><g clip-path="url(#a)"><path d="M0,7.6a.75.75,0,0,1-.75-.75V0A.75.75,0,0,1,0-.75.75.75,0,0,1,.75,0V6.854A.75.75,0,0,1,0,7.6Z" transform="translate(8.416 0.452)" fill="#fff"/><path d="M23.116.75H0A.75.75,0,0,1-.75,0,.75.75,0,0,1,0-.75H23.116a.75.75,0,0,1,.75.75A.75.75,0,0,1,23.116.75Z" transform="translate(0.452 12.781)" fill="#fff"/><path d="M0,7.6a.75.75,0,0,1-.75-.75V0A.75.75,0,0,1,0-.75.75.75,0,0,1,.75,0V6.854A.75.75,0,0,1,0,7.6Z" transform="translate(21.331 0.452)" fill="#fff"/></g><path d="M13.978,24.486a.75.75,0,0,1-.53-.22l-2.523-2.523a.75.75,0,1,1,1.061-1.061l1.993,1.993,5.735-5.735A.75.75,0,0,1,20.774,18l-6.265,6.265A.75.75,0,0,1,13.978,24.486Z" fill="#fff"/></g></svg>