<svg xmlns="http://www.w3.org/2000/svg" xmlns:xlink="http://www.w3.org/1999/xlink" width="36.835" height="26.923" viewBox="0 0 36.835 26.923"><defs><clipPath id="a"><rect width="36.835" height="26.923" fill="none" stroke="#707070" stroke-width="1.5"/></clipPath></defs><g clip-path="url(#a)"><path d="M4.088,20.184a.75.75,0,0,1-.75-.75V17.2H.5a.75.75,0,0,1-.75-.75V.5A.75.75,0,0,1,.5-.25H23.552A.75.75,0,0,1,24.3.5v4.79H22.8V1.25H1.251V15.7H4.088a.75.75,0,0,1,.75.75v1.548l3.088-2.163a.75.75,0,0,1,.43-.136h2.986v1.5H8.593L4.518,20.049A.75.75,0,0,1,4.088,20.184Z" transform="translate(0.113 0.113)" fill="#fff"/><path d="M9.339,3.655H34.106a.75.75,0,0,1,.75.75V21.536a.75.75,0,0,1-.75.75H31v2.461a.75.75,0,0,1-1.18.614l-4.392-3.076H9.339a.75.75,0,0,1-.75-.75V4.4A.75.75,0,0,1,9.339,3.655Zm24.017,1.5H10.089V20.786H25.665a.75.75,0,0,1,.43.136L29.5,23.307v-1.77a.75.75,0,0,1,.75-.75h3.105Z" transform="translate(2.116 0.998)" fill="#fff"/><path d="M19.92,11.464a.409.409,0,1,1-.41-.41A.41.41,0,0,1,19.92,11.464Z" transform="translate(4.328 2.504)" fill="#fff"/><path d="M19.51,10.3a1.16,1.16,0,1,1-1.158,1.16A1.161,1.161,0,0,1,19.51,10.3Z" transform="translate(4.328 2.504)" fill="#fff"/><path d="M15.779,11.464a.409.409,0,1,1-.41-.41A.41.41,0,0,1,15.779,11.464Z" transform="translate(3.39 2.504)" fill="#fff"/><path d="M15.369,10.3a1.16,1.16,0,1,1-1.158,1.16A1.161,1.161,0,0,1,15.369,10.3Z" transform="translate(3.39 2.504)" fill="#fff"/><path d="M24.06,11.464a.409.409,0,1,1-.41-.41A.41.41,0,0,1,24.06,11.464Z" transform="translate(5.266 2.504)" fill="#fff"/><path d="M23.65,10.3a1.16,1.16,0,1,1-1.158,1.16A1.161,1.161,0,0,1,23.65,10.3Z" transform="translate(5.266 2.504)" fill="#fff"/></g></svg>