<svg xmlns="http://www.w3.org/2000/svg" width="32" height="32" viewBox="0 0 32 32"><g transform="translate(13487 2455)"><path d="M9,1.5A7.509,7.509,0,0,0,1.5,9V23A7.509,7.509,0,0,0,9,30.5H23A7.509,7.509,0,0,0,30.5,23V9A7.509,7.509,0,0,0,23,1.5H9M9,0H23a9,9,0,0,1,9,9V23a9,9,0,0,1-9,9H9a9,9,0,0,1-9-9V9A9,9,0,0,1,9,0Z" transform="translate(-13487 -2455)" fill="#fff"/><circle cx="1.117" cy="1.117" r="1.117" transform="translate(-13462.678 -2449.774)" fill="#fff"/><path d="M7.5,1.5a6,6,0,1,0,6,6,6.007,6.007,0,0,0-6-6M7.5,0A7.5,7.5,0,1,1,0,7.5,7.5,7.5,0,0,1,7.5,0Z" transform="translate(-13477.934 -2445.933)" fill="#fff"/></g></svg>