<svg xmlns="http://www.w3.org/2000/svg" xmlns:xlink="http://www.w3.org/1999/xlink" width="18.478" height="21" viewBox="0 0 18.478 21"><defs><clipPath id="a"><rect width="18.478" height="21" fill="none"/></clipPath></defs><g transform="translate(0 0)" clip-path="url(#a)"><path d="M13.539,21.1a6.213,6.213,0,0,1-.752-.046l.06-.492-.11.486a10.126,10.126,0,0,1-2.951-1.178,17.4,17.4,0,0,1-6.563-5.922A14.89,14.89,0,0,1,.913,9.627,15.47,15.47,0,0,1,0,5.164V5.129A5.843,5.843,0,0,1,2.335.568L2.374.542A3.668,3.668,0,0,1,4.547.01c.079-.005.154,0,.22,0H4.85A1.13,1.13,0,0,1,6.015.714q.158.382.316.765c.25.606.508,1.234.769,1.846.1.24.211.473.328.72.087.185.177.376.262.569a1.229,1.229,0,0,1-.331,1.667L7.333,6.3a9.79,9.79,0,0,1-.812.589c-.111.075-.226.153-.336.23s-.23.156-.341.229c-.176.116-.343.226-.5.345-.218.165-.241.224-.243.231a.576.576,0,0,0,.079.258l0,.008A32.253,32.253,0,0,0,6.6,11.1a11.939,11.939,0,0,0,3.424,3.631l.01.007c.083.061.163.123.241.183.122.095.237.184.355.26l.041.027.035.034a.285.285,0,0,0,.4,0l0,0c.007-.007.018-.02.025-.029l.027-.032.032-.027c.173-.148.34-.3.516-.47.125-.118.255-.24.386-.357l.125-.114c.2-.183.408-.372.635-.548a1.373,1.373,0,0,1,1.982.04c.617.493,1.234.973,1.831,1.428.437.329.9.655,1.293.937a1.271,1.271,0,0,1,.518,1.555l-.062.18c-.134.389-.274.791-.439,1.183l-.01.022a2.566,2.566,0,0,1-1.189,1.2A6.3,6.3,0,0,1,13.539,21.1Zm-.622-1.037a5.287,5.287,0,0,0,3.37-.732l.023-.014.024-.011a1.564,1.564,0,0,0,.734-.725c.15-.358.277-.724.41-1.11l.078-.221a.268.268,0,0,0-.112-.335l-.038-.024c-.406-.288-.878-.624-1.335-.967-.606-.461-1.228-.947-1.852-1.444-.23-.184-.336-.224-.384-.226s-.135.023-.365.2c-.192.149-.376.316-.57.493l-.13.118c-.124.112-.244.224-.37.343-.167.158-.34.32-.521.476-.016.018-.034.039-.055.059a1.286,1.286,0,0,1-1.776.052c-.136-.091-.261-.188-.382-.282-.074-.057-.143-.111-.213-.162a12.933,12.933,0,0,1-3.71-3.939l-.01-.018A33.258,33.258,0,0,1,4.264,8.583a1.217,1.217,0,0,1,.477-1.691c.183-.138.371-.262.552-.381.111-.073.216-.142.319-.214s.235-.162.35-.239a8.6,8.6,0,0,0,.752-.546l.026-.022.051-.032a.229.229,0,0,0,.049-.314L6.812,5.1l-.02-.045c-.086-.195-.179-.393-.27-.586-.115-.245-.234-.5-.343-.755C5.916,3.1,5.657,2.469,5.406,1.86q-.158-.384-.316-.767l0-.009A.131.131,0,0,0,4.946,1L4.921,1H4.76c-.06,0-.117,0-.162,0l-.044,0-.044,0a2.675,2.675,0,0,0-1.6.374A4.837,4.837,0,0,0,1,5.128,14.471,14.471,0,0,0,1.854,9.29l0,.011a13.893,13.893,0,0,0,2.168,4.048l.023.032a16.4,16.4,0,0,0,6.209,5.6l.027.015A9.128,9.128,0,0,0,12.917,20.06Z" transform="translate(-0.049 -0.049)" fill="#fff"/></g></svg>