<svg width="24" height="25" viewBox="0 0 24 25" fill="none" xmlns="http://www.w3.org/2000/svg">
<path d="M16.7705 0C16.8628 0.000101031 16.9513 0.0380001 17.0166 0.105469C17.082 0.173217 17.1191 0.265525 17.1191 0.361328V2.72266L22.916 2.72754C23.0075 2.72754 23.0954 2.76502 23.1602 2.83203C23.2249 2.89909 23.2617 2.99012 23.2617 3.08496V23.7676C23.2606 23.8621 23.2237 23.9527 23.1592 24.0195C23.0947 24.0862 23.0071 24.1238 22.916 24.125H0.641602C0.550697 24.1237 0.463772 24.0861 0.399414 24.0195C0.334921 23.9527 0.297994 23.8621 0.296875 23.7676V3.08008C0.296902 2.98528 0.333728 2.89418 0.398438 2.82715C0.463034 2.7604 0.550365 2.72278 0.641602 2.72266H6.44727V0.361328C6.44734 0.265525 6.48441 0.173217 6.5498 0.105469C6.61516 0.0380066 6.70363 7.54824e-05 6.7959 0C6.88836 0 6.97753 0.0378068 7.04297 0.105469C7.10837 0.173217 7.14544 0.265525 7.14551 0.361328V2.72266H16.4209V0.361328C16.421 0.265525 16.458 0.173217 16.5234 0.105469C16.5889 0.0378363 16.6781 0 16.7705 0ZM0.995117 10.5811V23.4062H22.5684V10.5811H0.995117Z" fill="white"/>
<path d="M11.0925 19.3517C11 19.3515 10.9114 19.3136 10.8457 19.2462L8.89715 17.2268C8.83169 17.159 8.79492 17.067 8.79492 16.9711C8.79492 16.8752 8.83169 16.7832 8.89715 16.7154C8.96261 16.6476 9.05139 16.6095 9.14395 16.6095C9.23652 16.6095 9.3253 16.6476 9.39076 16.7154L11.0925 18.4783L15.6834 13.7215C15.749 13.6537 15.8378 13.6156 15.9305 13.6157C15.9764 13.6158 16.0218 13.6252 16.0642 13.6434C16.1065 13.6616 16.145 13.6883 16.1774 13.7219C16.2098 13.7556 16.2355 13.7955 16.253 13.8394C16.2706 13.8833 16.2796 13.9304 16.2795 13.9779C16.2795 14.0255 16.2704 14.0725 16.2528 14.1164C16.2352 14.1603 16.2095 14.2002 16.177 14.2337L11.3393 19.2462C11.2736 19.3136 11.1849 19.3515 11.0925 19.3517Z" fill="white"/>
</svg>
