<svg xmlns="http://www.w3.org/2000/svg" xmlns:xlink="http://www.w3.org/1999/xlink" width="20.782" height="20.782" viewBox="0 0 20.782 20.782"><defs><clipPath id="a"><path d="M.236,4.791c-.542-.384-.067-1.019.576-.91,2.115.231,4.454-1.194,8.46-2.953s6.655-.5,7.85-.378,1.279.581.8,1.306c-2.188,3.337-7.082,4-7.823,4.078s-.943.252.07.368a10.316,10.316,0,0,0,8.457-2.769c.844-.628.736.015.446.748C17.5,8.4,14.415,10.1,11.026,10.1c-3.759,0-7.9-2.1-10.79-5.314" transform="translate(0 0)" fill="#aa907e"/></clipPath></defs><g transform="translate(20.782 7.145) rotate(135)" clip-path="url(#a)"><rect width="17.813" height="22.48" transform="translate(16.43 -7.962) rotate(66.911)" fill="#aa907e"/></g></svg>