<svg width="22" height="22" viewBox="0 0 22 22" fill="none" xmlns="http://www.w3.org/2000/svg">
<g clip-path="url(#clip0_6626_9296)">
<path d="M11 22C17.0751 22 22 17.0751 22 11C22 4.92487 17.0751 0 11 0C4.92487 0 0 4.92487 0 11C0 17.0751 4.92487 22 11 22Z" fill="#4CC764"/>
<path d="M18.3348 10.3592C18.3348 7.0729 15.0403 4.3999 10.9916 4.3999C6.94294 4.3999 3.64844 7.07359 3.64844 10.3592C3.64844 13.3051 6.26094 15.7718 9.78988 16.2387C10.0291 16.2902 10.3543 16.3961 10.4368 16.601C10.5111 16.7866 10.4849 17.0774 10.4609 17.2651C10.4609 17.2651 10.3749 17.7835 10.3564 17.8935C10.3241 18.0791 10.2086 18.6195 10.9923 18.2895C11.7761 17.9595 15.2211 15.7993 16.7618 14.0263C17.8261 12.8589 18.3362 11.675 18.3362 10.3598L18.3348 10.3592Z" fill="white"/>
<path d="M15.8909 12.2566C15.9686 12.2566 16.0312 12.1941 16.0312 12.1164V11.5952C16.0312 11.5182 15.9679 11.455 15.8909 11.455H14.4891V10.9139H15.8909C15.9686 10.9139 16.0312 10.8514 16.0312 10.7737V10.2532C16.0312 10.1762 15.9679 10.113 15.8909 10.113H14.4891V9.57193H15.8909C15.9686 9.57193 16.0312 9.50937 16.0312 9.43168V8.91125C16.0312 8.83425 15.9679 8.771 15.8909 8.771H13.8278C13.7501 8.771 13.6875 8.83356 13.6875 8.91125V8.914V12.1136V12.1164C13.6875 12.1941 13.7501 12.2566 13.8278 12.2566H15.8909Z" fill="#4CC764"/>
<path d="M8.26008 12.2566C8.33777 12.2566 8.40033 12.1941 8.40033 12.1164V11.5952C8.40033 11.5182 8.33708 11.455 8.26008 11.455H6.85827V8.91125C6.85827 8.83425 6.79502 8.771 6.71802 8.771H6.19689C6.1192 8.771 6.05664 8.83356 6.05664 8.91125V12.1136V12.1164C6.05664 12.1941 6.1192 12.2566 6.19689 12.2566H8.26008Z" fill="#4CC764"/>
<path d="M9.50248 8.771H8.98205C8.90459 8.771 8.8418 8.83379 8.8418 8.91125V12.1157C8.8418 12.1931 8.90459 12.2559 8.98205 12.2559H9.50248C9.57994 12.2559 9.64274 12.1931 9.64274 12.1157V8.91125C9.64274 8.83379 9.57994 8.771 9.50248 8.771Z" fill="#4CC764"/>
<path d="M13.0466 8.771H12.5255C12.4478 8.771 12.3852 8.83356 12.3852 8.91125V10.8149L10.9188 8.83493C10.9153 8.83012 10.9112 8.82531 10.9078 8.8205C10.9078 8.8205 10.9078 8.8205 10.9071 8.81981C10.9043 8.81706 10.9016 8.81362 10.8988 8.81087C10.8981 8.81018 10.8968 8.8095 10.8961 8.80881C10.8933 8.80675 10.8913 8.80468 10.8885 8.80262C10.8871 8.80193 10.8858 8.80056 10.8844 8.79987C10.8823 8.79781 10.8796 8.79643 10.8768 8.79506C10.8755 8.79437 10.8741 8.793 10.8727 8.79231C10.87 8.79093 10.8679 8.78956 10.8651 8.78818C10.8638 8.7875 10.8624 8.78681 10.861 8.78612C10.8583 8.78475 10.8555 8.78337 10.8528 8.78268C10.8514 8.78268 10.85 8.78131 10.848 8.78131C10.8452 8.78062 10.8425 8.77925 10.8397 8.77856C10.8383 8.77856 10.8363 8.77787 10.8349 8.77718C10.8321 8.77718 10.8294 8.77581 10.8266 8.77512C10.8246 8.77512 10.8225 8.77512 10.8205 8.77443C10.8177 8.77443 10.8156 8.77375 10.8129 8.77375C10.8101 8.77375 10.8081 8.77375 10.8053 8.77375C10.804 8.77375 10.8019 8.77375 10.8005 8.77375H10.2828C10.2051 8.77375 10.1426 8.83631 10.1426 8.914V12.1191C10.1426 12.1968 10.2051 12.2594 10.2828 12.2594H10.804C10.8816 12.2594 10.9442 12.1968 10.9442 12.1191V10.2161L12.412 12.1989C12.4223 12.2133 12.4347 12.225 12.4485 12.2339C12.4485 12.2339 12.4498 12.2346 12.4498 12.2353C12.4526 12.2374 12.4553 12.2387 12.4588 12.2408C12.4601 12.2415 12.4615 12.2422 12.4629 12.2429C12.465 12.2442 12.4677 12.2449 12.4698 12.2463C12.4718 12.2477 12.4746 12.2484 12.4766 12.2491C12.478 12.2491 12.4794 12.2504 12.4808 12.2504C12.4842 12.2518 12.487 12.2525 12.4904 12.2532C12.4904 12.2532 12.4918 12.2532 12.4925 12.2532C12.5041 12.2559 12.5165 12.258 12.5289 12.258H13.0466C13.1243 12.258 13.1868 12.1954 13.1868 12.1177V8.91262C13.1868 8.83493 13.1243 8.77237 13.0466 8.77237V8.771Z" fill="#4CC764"/>
</g>
<defs>
<clipPath id="clip0_6626_9296">
<rect width="22" height="22" fill="white"/>
</clipPath>
</defs>
</svg>
