<svg xmlns="http://www.w3.org/2000/svg" width="20" height="20" viewBox="0 0 20 20"><g transform="translate(-315 -2697.5)"><circle cx="10" cy="10" r="10" transform="translate(315 2697.5)" fill="#5d9b7a"/><path d="M1.33,1.05A3.708,3.708,0,0,0,1.113.658Q.966.42.8.2a2.2,2.2,0,0,0-.28-.322A9.142,9.142,0,0,0,2.681-1.218,9.18,9.18,0,0,0,4.445-2.786a8.058,8.058,0,0,0,1.232-1.9,6.854,6.854,0,0,0,.6-2.079H.868V-8.008H6.314v-3.64H7.658v3.64h5.46v1.246H7.7a6.433,6.433,0,0,0,.616,2.044,8.555,8.555,0,0,0,1.26,1.89,9.783,9.783,0,0,0,1.757,1.575,8.889,8.889,0,0,0,2.121,1.1q-.112.126-.287.357t-.329.462a2.888,2.888,0,0,0-.224.385A12.985,12.985,0,0,1,10.283-.371,10.939,10.939,0,0,1,8.309-2.31,8.406,8.406,0,0,1,6.986-4.69a8.218,8.218,0,0,1-1.33,2.408A10.827,10.827,0,0,1,3.668-.35,12.813,12.813,0,0,1,1.33,1.05Z" transform="translate(318 2713.148)" fill="#fff"/></g></svg>