<svg width="22" height="24" viewBox="0 0 22 24" fill="none" xmlns="http://www.w3.org/2000/svg">
<mask id="mask0_2016_2062" style="mask-type:luminance" maskUnits="userSpaceOnUse" x="0" y="0" width="22" height="24">
<path d="M21.0277 0H0.1875V23.9883H21.0277V0Z" fill="white"/>
</mask>
<g mask="url(#mask0_2016_2062)">
<path d="M14.6229 23.4261C13.5025 23.1694 12.4294 22.7345 11.4435 22.1376C8.51402 20.6088 6.02677 18.3357 4.2253 15.5408C3.12547 14.0972 2.26984 12.4786 1.6933 10.7512C1.12205 9.16363 0.786071 7.49914 0.696289 5.81189C0.711128 4.8847 0.935827 3.97331 1.35309 3.14789C1.77035 2.32247 2.36905 1.60503 3.1031 1.05079C3.75078 0.650714 4.50666 0.468016 5.26291 0.52876C5.38697 0.516195 5.51329 0.52876 5.63961 0.521907C5.79773 0.501481 5.95805 0.535412 6.09486 0.618262C6.23167 0.701112 6.33706 0.828083 6.39414 0.978826C6.80241 1.97605 7.2028 2.97785 7.62122 3.97051C7.83551 4.4834 8.08702 4.98372 8.30921 5.49547C8.37132 5.58501 8.4154 5.68607 8.43892 5.79287C8.46245 5.89967 8.46496 6.01012 8.44632 6.1179C8.42767 6.22569 8.38824 6.32869 8.33026 6.42103C8.27229 6.51337 8.19692 6.59323 8.10845 6.65605L8.07011 6.68118C7.66859 7.02387 7.21859 7.30259 6.78437 7.61101C6.46519 7.83947 6.13135 8.04052 5.82006 8.27811C5.30464 8.67221 5.19524 8.92694 5.45916 9.5255C5.94654 10.6801 6.49123 11.809 7.09114 12.9078C8.11959 14.6217 9.49259 16.0971 11.1209 17.2383C11.3544 17.4108 11.572 17.6016 11.8157 17.7603C11.8985 17.8428 11.9966 17.9079 12.1043 17.952C12.212 17.996 12.3272 18.0181 12.4434 18.0171C12.5595 18.016 12.6743 17.9918 12.7813 17.9458C12.8882 17.8998 12.9851 17.8329 13.0664 17.7489C13.089 17.7261 13.1093 17.7021 13.1296 17.6781C13.4815 17.3731 13.8119 17.0361 14.1559 16.7231C14.4255 16.4752 14.6917 16.2217 14.9815 15.9943C15.5973 15.5191 15.912 15.5374 16.5199 16.0332C17.2049 16.5868 17.897 17.1336 18.5962 17.6735C19.0857 18.047 19.5865 18.408 20.0884 18.7678C20.2698 18.8747 20.4068 19.0447 20.4738 19.2462C20.5408 19.4477 20.5333 19.667 20.4527 19.8633C20.2756 20.3785 20.1042 20.8971 19.8955 21.3986C19.665 21.8852 19.2764 22.2768 18.7947 22.5077C17.545 23.2795 16.0746 23.6015 14.6217 23.4216" stroke="white"/>
</g>
</svg>
