<svg xmlns="http://www.w3.org/2000/svg" xmlns:xlink="http://www.w3.org/1999/xlink" width="29.64" height="20" viewBox="0 0 29.64 20"><defs><clipPath id="a"><rect width="29.64" height="20" fill="none"/></clipPath></defs><g transform="translate(0 0)" clip-path="url(#a)"><path d="M28.006,20.858H1.68a1.68,1.68,0,0,1,0-3.36h9.64a.5.5,0,0,1,.187.036l1.58.639H16.6l1.58-.639a.5.5,0,0,1,.187-.036h9.64a1.68,1.68,0,0,1,0,3.36ZM1.68,18.5a.68.68,0,0,0,0,1.36H28.006a.68.68,0,0,0,0-1.36H18.463l-1.58.639a.5.5,0,0,1-.187.036H12.989a.5.5,0,0,1-.187-.036l-1.58-.639Z" transform="translate(-0.023 -0.835)" fill="#fff"/><path d="M27.6,17.187h-1V1H3.39V17.187h-1V.5a.5.5,0,0,1,.5-.5H27.1a.5.5,0,0,1,.5.5Z" transform="translate(-0.134 -0.024)" fill="#fff"/><path d="M0-.5H19.795a.5.5,0,0,1,.5.5V12.309a.5.5,0,0,1-.5.5H0a.5.5,0,0,1-.5-.5V0A.5.5,0,0,1,0-.5ZM19.295.5H.5V11.809H19.295Z" transform="translate(4.964 2.836)" fill="#fff"/></g></svg>