<svg xmlns="http://www.w3.org/2000/svg" width="20" height="20" viewBox="0 0 20 20"><g transform="translate(-575 -2697.5)"><circle cx="10" cy="10" r="10" transform="translate(575 2697.5)" fill="#c9544e"/><path d="M6.482.728A2.237,2.237,0,0,1,4.921.161a1.713,1.713,0,0,1-.539-1.309,1.58,1.58,0,0,1,.3-.882,1.93,1.93,0,0,1,.84-.644,3.09,3.09,0,0,1,1.337-.21q.252.014.5.035t.49.063V-6.23H9.072v3.752a8.4,8.4,0,0,1,1.568.686,11.18,11.18,0,0,1,1.386.924,2.74,2.74,0,0,0-.413.518A3.711,3.711,0,0,0,11.3.224a9.485,9.485,0,0,0-2.226-1.47,1.833,1.833,0,0,1-.7,1.519A2.951,2.951,0,0,1,6.482.728ZM2.576-1.792a3.481,3.481,0,0,0-.294-.217q-.2-.133-.413-.259A2.41,2.41,0,0,0,1.5-2.45a11.641,11.641,0,0,0,1.6-2.366A17.155,17.155,0,0,0,4.27-7.686q-.784.126-1.463.217T1.736-7.35L1.554-8.568q.518-.014,1.33-.091t1.708-.217q.154-.672.245-1.33a11.22,11.22,0,0,0,.105-1.288l1.218.154q-.056.56-.133,1.127T5.838-9.1Q6.4-9.212,6.9-9.324t.882-.224l.154,1.162q-.434.112-1.057.245T5.558-7.9A18.823,18.823,0,0,1,4.319-4.6,15.608,15.608,0,0,1,2.576-1.792Zm9.058-4.326a5.625,5.625,0,0,0-.819-.707q-.525-.385-1.092-.721a6.172,6.172,0,0,0-.987-.49l.644-.952a7.147,7.147,0,0,1,.742.35q.42.224.861.5t.819.553a6.939,6.939,0,0,1,.616.5ZM6.566-.364a1.473,1.473,0,0,0,.952-.273,1.063,1.063,0,0,0,.336-.875V-1.68a6.67,6.67,0,0,0-1.078-.14,1.569,1.569,0,0,0-.882.189.639.639,0,0,0-.336.525A.619.619,0,0,0,5.8-.574,1.19,1.19,0,0,0,6.566-.364Z" transform="translate(578 2712.994)" fill="#fff"/></g></svg>