<svg width="31" height="23" viewBox="0 0 31 23" fill="none" xmlns="http://www.w3.org/2000/svg">
<mask id="mask0_2016_2047" style="mask-type:luminance" maskUnits="userSpaceOnUse" x="0" y="0" width="31" height="23">
<path d="M30.3032 0H0.875V22.2827H30.3032V0Z" fill="white"/>
</mask>
<g mask="url(#mask0_2016_2047)">
<path d="M19.7816 4.47191V0.507812H1.36523V13.7048H4.23245V16.1793L7.64277 13.7048H10.0271" stroke="white" stroke-linejoin="round"/>
<path d="M29.8124 4.46631H10.0259V18.6504H23.0692L26.7334 21.3076V18.6504H29.8135L29.8124 4.46631Z" stroke="white" stroke-linejoin="round"/>
<path d="M20.2473 11.5598C20.2473 11.6259 20.2284 11.6906 20.193 11.7455C20.1575 11.8005 20.1071 11.8433 20.0482 11.8686C19.9892 11.8939 19.9243 11.9005 19.8617 11.8876C19.7992 11.8748 19.7417 11.8429 19.6966 11.7962C19.6514 11.7494 19.6207 11.6899 19.6083 11.625C19.5958 11.5602 19.6022 11.493 19.6266 11.4319C19.651 11.3708 19.6924 11.3186 19.7454 11.2819C19.7985 11.2452 19.8609 11.2256 19.9247 11.2256C19.9671 11.2256 20.009 11.2342 20.0482 11.251C20.0873 11.2678 20.1229 11.2924 20.1528 11.3235C20.1828 11.3545 20.2066 11.3914 20.2228 11.4319C20.239 11.4725 20.2473 11.5159 20.2473 11.5598Z" fill="white" stroke="white" stroke-linejoin="round"/>
<path d="M16.1897 11.5598C16.1897 11.6259 16.1708 11.6906 16.1353 11.7455C16.0999 11.8005 16.0495 11.8433 15.9905 11.8686C15.9316 11.8939 15.8667 11.9005 15.8041 11.8876C15.7415 11.8748 15.6841 11.8429 15.6389 11.7962C15.5938 11.7494 15.5631 11.6899 15.5506 11.625C15.5382 11.5602 15.5446 11.493 15.569 11.4319C15.5934 11.3708 15.6348 11.3186 15.6878 11.2819C15.7409 11.2452 15.8033 11.2256 15.8671 11.2256C15.9094 11.2256 15.9514 11.2342 15.9905 11.251C16.0297 11.2678 16.0653 11.2924 16.0952 11.3235C16.1252 11.3545 16.1489 11.3914 16.1652 11.4319C16.1814 11.4725 16.1897 11.5159 16.1897 11.5598Z" fill="white" stroke="white" stroke-linejoin="round"/>
<path d="M24.304 11.5598C24.304 11.6259 24.2851 11.6906 24.2496 11.7455C24.2141 11.8005 24.1638 11.8433 24.1048 11.8686C24.0458 11.8939 23.981 11.9005 23.9184 11.8876C23.8558 11.8748 23.7983 11.8429 23.7532 11.7962C23.7081 11.7494 23.6773 11.6899 23.6649 11.625C23.6524 11.5602 23.6588 11.493 23.6833 11.4319C23.7077 11.3708 23.749 11.3186 23.8021 11.2819C23.8551 11.2452 23.9175 11.2256 23.9813 11.2256C24.0237 11.2256 24.0657 11.2342 24.1048 11.251C24.1439 11.2678 24.1795 11.2924 24.2095 11.3235C24.2394 11.3545 24.2632 11.3914 24.2794 11.4319C24.2956 11.4725 24.304 11.5159 24.304 11.5598Z" fill="white" stroke="white" stroke-linejoin="round"/>
</g>
</svg>
