<svg width="16" height="19" viewBox="0 0 16 19" fill="none" xmlns="http://www.w3.org/2000/svg">
<mask id="mask0_6682_12010" style="mask-type:luminance" maskUnits="userSpaceOnUse" x="0" y="0" width="16" height="19">
<path d="M16 0H0V18.4169H16V0Z" fill="white"/>
</mask>
<g mask="url(#mask0_6682_12010)">
<path d="M11.0827 17.9836C10.2226 17.7865 9.39869 17.4526 8.64173 16.9944C6.39265 15.8206 4.48308 14.0755 3.10001 11.9297C2.25562 10.8213 1.59871 9.57871 1.15608 8.25248C0.717503 7.03363 0.459555 5.75573 0.390625 4.46035C0.402018 3.7485 0.574529 3.04878 0.89488 2.41507C1.21523 1.78136 1.67488 1.23054 2.23844 0.805028C2.73569 0.49787 3.31602 0.357605 3.89663 0.404241C3.99188 0.394594 4.08886 0.404241 4.18584 0.398979C4.30724 0.383297 4.43032 0.409348 4.53536 0.472955C4.64039 0.536563 4.72131 0.634045 4.76512 0.749777C5.07858 1.51539 5.38597 2.28452 5.70722 3.04663C5.87174 3.4404 6.06483 3.82452 6.23541 4.21742C6.2831 4.28616 6.31694 4.36375 6.335 4.44574C6.35306 4.52774 6.35499 4.61253 6.34068 4.69528C6.32636 4.77804 6.29609 4.85712 6.25158 4.92801C6.20707 4.9989 6.1492 5.06022 6.08128 5.10845L6.05184 5.12774C5.74358 5.39084 5.39809 5.60483 5.06472 5.84161C4.81967 6.01701 4.56337 6.17136 4.32438 6.35378C3.92867 6.65634 3.84468 6.85191 4.0473 7.31146C4.42149 8.19788 4.83967 9.06458 5.30025 9.90824C6.08984 11.224 7.14395 12.3568 8.39409 13.2329C8.57333 13.3654 8.74045 13.5118 8.92748 13.6337C8.99109 13.697 9.06639 13.747 9.14908 13.7808C9.23177 13.8147 9.32024 13.8317 9.40941 13.8308C9.49859 13.83 9.58673 13.8114 9.66881 13.7761C9.75089 13.7408 9.82528 13.6894 9.88776 13.625C9.90507 13.6074 9.92066 13.589 9.93625 13.5706C10.2064 13.3364 10.4601 13.0777 10.7242 12.8374C10.9312 12.6471 11.1355 12.4524 11.358 12.2779C11.8308 11.9131 12.0724 11.9271 12.5391 12.3077C13.065 12.7328 13.5964 13.1525 14.1332 13.5671C14.509 13.8538 14.8935 14.131 15.2788 14.4072C15.4181 14.4893 15.5233 14.6198 15.5748 14.7745C15.6262 14.9292 15.6204 15.0976 15.5585 15.2483C15.4226 15.6438 15.2909 16.0419 15.1307 16.427C14.9538 16.8006 14.6554 17.1012 14.2856 17.2785C13.3261 17.871 12.1973 18.1182 11.0818 17.9801" fill="#D6822F"/>
<path d="M11.0827 17.9836C10.2226 17.7865 9.39869 17.4526 8.64173 16.9944C6.39265 15.8206 4.48308 14.0755 3.10001 11.9297C2.25562 10.8213 1.59871 9.57871 1.15608 8.25248C0.717503 7.03363 0.459555 5.75573 0.390625 4.46035C0.402018 3.7485 0.574529 3.04878 0.89488 2.41507C1.21523 1.78136 1.67488 1.23054 2.23844 0.805028C2.73569 0.49787 3.31602 0.357605 3.89663 0.404241C3.99188 0.394594 4.08886 0.404241 4.18584 0.398979C4.30724 0.383297 4.43032 0.409348 4.53536 0.472955C4.64039 0.536563 4.72131 0.634045 4.76512 0.749777C5.07858 1.51539 5.38597 2.28452 5.70722 3.04663C5.87174 3.4404 6.06483 3.82452 6.23541 4.21742C6.2831 4.28616 6.31694 4.36375 6.335 4.44574C6.35306 4.52774 6.35499 4.61253 6.34068 4.69528C6.32636 4.77804 6.29609 4.85712 6.25158 4.92801C6.20707 4.9989 6.1492 5.06022 6.08128 5.10845L6.05184 5.12774C5.74358 5.39084 5.39809 5.60482 5.06472 5.84161C4.81968 6.01701 4.56337 6.17136 4.32438 6.35378C3.92867 6.65634 3.84468 6.85191 4.0473 7.31146C4.42149 8.19788 4.83967 9.06458 5.30025 9.90824C6.08984 11.224 7.14395 12.3568 8.39409 13.2329C8.57333 13.3654 8.74045 13.5118 8.92748 13.6337C8.99109 13.697 9.06639 13.747 9.14908 13.7808C9.23177 13.8147 9.32023 13.8317 9.40941 13.8308C9.49859 13.83 9.58673 13.8114 9.66881 13.7761C9.75088 13.7408 9.82528 13.6894 9.88776 13.625C9.90507 13.6074 9.92066 13.589 9.93625 13.5706C10.2064 13.3364 10.4601 13.0777 10.7242 12.8374C10.9312 12.6471 11.1355 12.4524 11.358 12.2779C11.8308 11.9131 12.0724 11.9271 12.5391 12.3077C13.065 12.7328 13.5964 13.1525 14.1332 13.5671C14.509 13.8538 14.8935 14.131 15.2788 14.4072C15.4181 14.4893 15.5233 14.6198 15.5748 14.7745C15.6262 14.9292 15.6204 15.0976 15.5585 15.2483C15.4226 15.6438 15.2909 16.0419 15.1307 16.427C14.9538 16.8006 14.6554 17.1012 14.2856 17.2785C13.3261 17.871 12.1973 18.1182 11.0818 17.9801" stroke="#D6822F"/>
</g>
</svg>
