<svg xmlns="http://www.w3.org/2000/svg" width="20" height="20" viewBox="0 0 20 20"><g transform="translate(-531 -1644)"><circle cx="10" cy="10" r="10" transform="translate(531 1644)" fill="#5d9b7a"/><path d="M6.406-12.694q-.068.243-.142.6t-.115.561q-.095.473-.223,1.128t-.3,1.372q-.169.716-.345,1.392-.176.716-.432,1.554T4.3-4.39q-.291.858-.581,1.622T3.149-1.424l-1.473-.5A12.913,12.913,0,0,0,2.3-3.174q.324-.736.635-1.581t.581-1.682q.27-.838.459-1.541.122-.473.243-.993t.23-1.007q.108-.486.176-.912T4.73-11.6a4.58,4.58,0,0,0,.061-.662q.007-.338-.007-.554ZM3.217-10.532q.784,0,1.662-.081t1.791-.23q.912-.149,1.764-.365V-9.87q-.838.189-1.77.324t-1.824.209q-.892.074-1.635.074-.459,0-.845-.014T1.6-9.316L1.568-10.64q.5.054.885.081T3.217-10.532ZM7.473-8.586q.554-.054,1.216-.088T10-8.708q.595,0,1.2.02t1.169.088l-.041,1.3q-.514-.068-1.1-.122t-1.2-.054q-.662,0-1.291.034T7.473-7.33Zm.473,3.338q-.068.311-.122.615a3.221,3.221,0,0,0-.054.561,1.124,1.124,0,0,0,.088.439.89.89,0,0,0,.311.372,1.753,1.753,0,0,0,.635.257,4.881,4.881,0,0,0,1.061.095,12.6,12.6,0,0,0,1.351-.074q.689-.074,1.351-.2l-.041,1.365q-.568.068-1.236.128t-1.439.061a4.92,4.92,0,0,1-2.52-.527A1.683,1.683,0,0,1,6.46-3.681a5.465,5.465,0,0,1,.068-.858q.068-.426.162-.831Z" transform="translate(533.931 1661.119)" fill="#fff" opacity="0.9"/></g></svg>