<svg width="19" height="20" viewBox="0 0 19 20" fill="none" xmlns="http://www.w3.org/2000/svg">
<path d="M13.627 0C13.7035 0 13.7769 0.031792 13.8311 0.0878906C13.8851 0.143917 13.9159 0.219603 13.916 0.298828V2.25195L18.7119 2.25586C18.7875 2.25594 18.8596 2.28743 18.9131 2.34277C18.9666 2.39825 18.9971 2.4733 18.9971 2.55176V19.6611C18.9961 19.7393 18.9655 19.8139 18.9121 19.8691C18.8588 19.9243 18.7872 19.956 18.7119 19.957H0.285156C0.209873 19.956 0.138216 19.9243 0.0849609 19.8691C0.0316107 19.8139 0.000925785 19.7393 0 19.6611V2.54785C4.19266e-05 2.46946 0.0304721 2.3943 0.0839844 2.33887C0.137428 2.28359 0.20964 2.25206 0.285156 2.25195H5.08789V0.298828C5.08797 0.219754 5.11799 0.143886 5.17188 0.0878906C5.22592 0.0318974 5.29955 0.000118381 5.37598 0C5.45256 0 5.5269 0.0317918 5.58105 0.0878906C5.63491 0.143881 5.66496 0.21978 5.66504 0.298828V2.25195H13.3389V0.298828C13.3389 0.219701 13.3689 0.143897 13.4229 0.0878906C13.477 0.0318425 13.5504 5.69478e-05 13.627 0ZM0.577148 8.75293V19.3623H18.4238V8.75293H0.577148Z" fill="#766287"/>
<path d="M8.93187 16.0087C8.85539 16.0085 8.78206 15.9771 8.7277 15.9214L7.11582 14.2508C7.06167 14.1947 7.03125 14.1187 7.03125 14.0393C7.03125 13.96 7.06167 13.8839 7.11582 13.8278C7.16996 13.7717 7.2434 13.7402 7.31998 13.7402C7.39656 13.7402 7.47 13.7717 7.52414 13.8278L8.93187 15.2862L12.7296 11.3512C12.7838 11.2951 12.8574 11.2636 12.934 11.2637C12.9719 11.2637 13.0095 11.2715 13.0446 11.2866C13.0796 11.3016 13.1115 11.3237 13.1383 11.3515C13.1651 11.3794 13.1863 11.4124 13.2008 11.4487C13.2153 11.4851 13.2228 11.524 13.2227 11.5633C13.2227 11.6026 13.2152 11.6415 13.2006 11.6778C13.1861 11.7142 13.1648 11.7471 13.1379 11.7749L9.13603 15.9214C9.08167 15.9771 9.00834 16.0085 8.93187 16.0087Z" fill="#766287"/>
</svg>
