<svg xmlns="http://www.w3.org/2000/svg" width="20" height="20" viewBox="0 0 20 20"><g transform="translate(-445 -2697.5)"><circle cx="10" cy="10" r="10" transform="translate(445 2697.5)" fill="#5d9b7a"/><path d="M6.58.336a5.8,5.8,0,0,1-1.687-.2,1.615,1.615,0,0,1-.952-.707,2.671,2.671,0,0,1-.3-1.372v-9.226l1.414.1q-.014.224-.042.784T4.97-9.058q-.014.518-.021,1.141T4.942-6.594V-2.17a1.076,1.076,0,0,0,.385.952A2.431,2.431,0,0,0,6.65-.952,6.265,6.265,0,0,0,8.386-1.2,8.13,8.13,0,0,0,10-1.848a7.064,7.064,0,0,0,1.316-.9q.014.182.049.476t.084.567q.049.273.077.385a9.137,9.137,0,0,1-2.31,1.19A7.821,7.821,0,0,1,6.58.336Z" transform="translate(448 2712.672)" fill="#fff"/></g></svg>