<svg width="212" height="40" viewBox="0 0 212 40" fill="none" xmlns="http://www.w3.org/2000/svg">
<path d="M63.7452 10.3973V10.4295C63.7452 10.7242 63.6005 10.8688 63.3058 10.8688H57.6423C57.9209 14.7749 60.0642 17.8934 63.4344 19.699C63.7131 19.8437 63.7613 20.058 63.5952 20.2992L63.4987 20.4438C63.3541 20.6689 63.1397 20.7225 62.8986 20.6046C60.0535 19.2222 57.8888 16.8646 56.8493 14.1641C55.7937 16.8646 53.5969 19.2382 50.6981 20.6206C50.4517 20.7332 50.2427 20.6689 50.098 20.4438L50.0016 20.2992C49.8408 20.058 49.8891 19.8437 50.1623 19.699C53.5272 17.8934 55.6759 14.7696 55.9545 10.8688H50.2909C49.9962 10.8688 49.8516 10.7242 49.8516 10.4295V10.3973C49.8516 10.1026 49.9962 9.95796 50.2909 9.95796H55.9706V7.14493C55.9706 6.85024 56.1152 6.70557 56.4099 6.70557H57.1922C57.4869 6.70557 57.6316 6.85024 57.6316 7.14493V9.95796H63.3112C63.6059 9.95796 63.7506 10.1026 63.7506 10.3973H63.7452Z" fill="white"/>
<path d="M77.6983 6.968C77.7144 7.35915 77.7144 7.83066 77.7305 8.36648H80.79C81.0847 8.36648 81.2293 8.51115 81.2293 8.80584C81.2293 9.08447 81.0847 9.22914 80.79 9.22914H77.7626C77.843 11.2331 78.0252 13.1352 78.2663 14.6623C78.7217 13.7835 79.0647 12.6423 79.3754 11.442C79.4558 11.1527 79.6541 11.0509 79.9273 11.1527L80.4953 11.3456C80.7739 11.442 80.8543 11.6403 80.79 11.8975C80.2702 13.7514 79.6326 15.3481 78.6896 16.7466C79.0164 18.0647 79.488 19.3346 79.7451 19.3346C80.1041 19.2703 80.2167 18.5523 80.281 17.2503C80.297 16.9234 80.4738 16.7787 80.7685 16.843L81.0632 16.9073C81.3258 16.9716 81.4383 17.1485 81.4222 17.4271C81.2293 19.7204 80.8543 20.792 79.8952 20.792C79.3915 20.792 78.9039 20.5027 78.5931 20.1437C78.1538 19.64 77.843 19.0399 77.5858 18.3219C76.8893 19.0881 75.9248 19.8865 74.7246 20.6795C74.4995 20.8241 74.3013 20.792 74.1245 20.5991L73.9637 20.4223C73.7708 20.1919 73.803 19.9668 74.0441 19.8061C75.2175 19.0077 76.2409 18.0326 77.1196 16.7948C76.6321 14.8605 76.3374 12.3851 76.2248 9.22914H72.6617V11.3456H75.7051C75.9998 11.3456 76.1445 11.5063 76.1445 11.801C76.1284 14.5337 76.0641 16.1786 75.9194 16.8109C75.8391 17.202 75.6087 17.5128 75.105 17.6414C75.0085 17.6736 74.7299 17.6896 74.4352 17.6896C74.2048 17.6896 73.7172 17.6414 73.1814 17.6093C72.9028 17.5932 72.7421 17.4485 72.726 17.186C72.7099 16.8966 72.8707 16.7466 73.1814 16.7787C73.46 16.8109 73.7494 16.827 73.9637 16.827C74.2209 16.827 74.4031 16.6984 74.5156 16.1411C74.5799 15.7821 74.612 14.4158 74.612 12.1547H72.6617V12.8405C72.6617 16.109 72.1741 18.6327 71.1346 20.6152C71.006 20.8777 70.7917 20.9259 70.5345 20.7598L70.1112 20.5026C69.8808 20.358 69.8326 20.1437 69.9505 19.9025C70.2291 19.3507 70.4541 18.697 70.6363 17.9843C69.4307 18.5201 68.1609 19.0399 66.8106 19.5007C66.5159 19.5971 66.323 19.4685 66.2748 19.1738V19.1256C66.2266 18.847 66.3391 18.7023 66.6016 18.6059L67.968 18.1183V11.4796H66.6659C66.3712 11.4796 66.2266 11.3349 66.2266 11.0402C66.2266 10.7616 66.3712 10.6169 66.6659 10.6169H67.968V7.46095C67.968 7.16625 68.1126 7.02158 68.4073 7.02158H69.0771C69.3718 7.02158 69.5165 7.16625 69.5165 7.46095V10.6169H70.4756C70.7703 10.6169 70.9149 10.7616 70.9149 11.0563C70.9149 11.3295 70.7703 11.4796 70.4756 11.4796H69.5165V17.4485C69.8915 17.2878 70.3148 17.0895 70.8828 16.8645C71.0757 15.5624 71.2096 13.9336 71.2096 12.0314V8.8112C71.2096 8.5165 71.3543 8.37183 71.649 8.37183H76.2034C76.2034 7.81995 76.2034 7.34843 76.1873 6.97336C76.1873 6.67866 76.3534 6.53399 76.6267 6.53399H77.275C77.5697 6.53399 77.7144 6.67866 77.7144 6.97336L77.6983 6.968ZM78.8878 6.37861C79.3433 6.65723 79.7666 6.89835 80.1416 7.14482C80.3881 7.30557 80.4203 7.51989 80.2702 7.74493L80.1738 7.8896C80.013 8.15215 79.7987 8.17894 79.5576 8.00212C79.1504 7.7235 78.6949 7.46631 78.3199 7.25198C78.0573 7.10731 78.0252 6.89299 78.1913 6.65187L78.2717 6.52328C78.4324 6.2768 78.6467 6.22858 78.8878 6.37861Z" fill="white"/>
<path d="M97.6733 8.479V8.62903C97.6733 8.838 97.6411 8.98802 97.5447 9.18092C97.2178 9.78103 96.7945 10.4186 96.2105 11.0991C96.0337 11.3242 95.8194 11.3402 95.5943 11.1634L95.2514 10.9009C95.0264 10.7401 94.9888 10.5258 95.171 10.3008C95.4818 9.90962 95.7872 9.43811 96.098 8.90229H91.9186V11.9457H95.7068C96.0015 11.9457 96.1462 12.0904 96.1462 12.3851V12.5137C96.1462 12.7119 96.1301 12.8566 96.0337 13.0495C95.1871 14.8552 94.0137 16.3983 92.4705 17.7164C93.9333 18.6595 95.5622 19.3453 97.4322 19.8168C97.7108 19.8811 97.8233 20.0633 97.7429 20.3526C97.6626 20.6313 97.4804 20.7438 97.2071 20.6795C94.9138 20.1276 92.9956 19.3453 91.5436 18.4183C90.1933 19.3614 88.3715 20.1437 86.1908 20.6795C85.9122 20.7438 85.7353 20.6312 85.655 20.3687V20.3366C85.5746 20.0633 85.671 19.8811 85.9497 19.8007C87.6589 19.3292 89.1699 18.6648 90.5523 17.7164C89.2664 16.693 88.3073 15.5196 87.5571 14.2658C87.4124 14.0032 87.4928 13.7943 87.7554 13.6817L88.2912 13.4567C88.5537 13.3442 88.7466 13.4246 88.8752 13.6657C89.6253 15.0641 90.5041 16.1519 91.4953 16.9663C92.6366 15.975 93.66 14.5712 94.5548 12.7709H86.3087V12.9638C86.3087 16.0393 85.805 18.4934 84.7119 20.5616C84.5673 20.8402 84.3208 20.8563 84.0958 20.6259L83.6082 20.1062C83.426 19.9293 83.4099 19.7311 83.5117 19.506C84.3262 17.6682 84.7012 15.5035 84.7012 12.1975V8.47364C84.7012 8.17895 84.8459 8.03428 85.1406 8.03428H90.2844V6.89835C90.2844 6.60365 90.4291 6.45898 90.7238 6.45898H91.49C91.7847 6.45898 91.9294 6.60365 91.9294 6.89835V8.03428H97.25C97.5447 8.03428 97.6893 8.17895 97.6893 8.47364L97.6733 8.479ZM90.2683 8.90229H86.2979V11.9457H90.2683V8.90229Z" fill="white"/>
<path d="M113.869 8.90208C112.503 14.0566 109.604 17.6894 104.712 20.1274C104.417 20.2721 104.192 20.1917 104.096 19.9506C103.983 19.688 104.064 19.4951 104.342 19.3344C108.297 16.9768 110.36 13.6065 111.742 9.06819H102.874C102.564 9.06819 102.403 8.92352 102.387 8.62882C102.387 8.3502 102.531 8.18945 102.858 8.18945H113.333C113.676 8.18945 114.019 8.3877 113.869 8.90744V8.90208Z" fill="white"/>
<path d="M118.146 8.49518C117.851 8.52733 117.691 8.38266 117.658 8.08797C117.642 7.85757 117.771 7.7129 118.066 7.68075C119.727 7.52 121.35 7.25745 123.027 6.81809C123.306 6.75379 123.483 6.83416 123.563 7.09135C123.627 7.3539 123.515 7.53072 123.236 7.59502C122.588 7.77184 121.886 7.93794 121.136 8.06653V10.9117H122.893C123.188 10.9117 123.333 11.0564 123.333 11.3511C123.333 11.6136 123.188 11.7422 122.893 11.7422H121.479C122.197 13.0925 122.813 14.2498 123.236 15.0107C123.365 15.2572 123.317 15.45 123.092 15.6108L122.7 15.868C122.454 16.0287 122.245 15.9644 122.116 15.6912C121.79 14.9785 121.447 14.3248 121.141 13.6229V20.5671C121.141 20.8618 120.997 21.0064 120.702 21.0064H120.23C119.936 21.0064 119.791 20.8564 119.791 20.5671V15.1018C119.336 16.1734 118.864 17.0682 118.328 17.963C118.151 18.2577 117.905 18.2577 117.728 17.9791L117.417 17.5236C117.289 17.3308 117.273 17.1325 117.401 16.9235C118.376 15.2786 119.143 13.5211 119.63 11.7315H117.921C117.626 11.7315 117.482 11.5868 117.482 11.2921C117.482 11.0296 117.626 10.901 117.921 10.901H119.727V8.29693C119.319 8.34516 118.8 8.42553 118.146 8.47375V8.49518ZM132.447 16.0448V16.0609C132.447 16.3341 132.334 16.5002 132.072 16.5485L130.834 16.7628V20.5831C130.834 20.8778 130.689 21.0225 130.395 21.0225H129.645C129.35 21.0225 129.205 20.8725 129.205 20.5831V17.0575L122.781 18.1452C122.502 18.1934 122.325 18.0648 122.293 17.7701V17.738C122.261 17.4647 122.39 17.2986 122.668 17.2504L129.211 16.1412V7.14493C129.211 6.85024 129.355 6.70557 129.65 6.70557H130.4C130.695 6.70557 130.839 6.85024 130.839 7.14493V15.8465L131.943 15.6697C132.238 15.6215 132.415 15.7501 132.447 16.0448ZM124.747 11.5065C125.771 12.4816 126.649 13.3604 127.416 14.207C127.609 14.4159 127.592 14.6302 127.4 14.8285L127.041 15.1875C126.832 15.3965 126.617 15.3804 126.424 15.1553C125.578 14.1802 124.731 13.2693 123.852 12.4388C123.638 12.2244 123.638 12.0155 123.836 11.8226L124.115 11.5279C124.308 11.3189 124.538 11.3189 124.747 11.5118V11.5065ZM126.167 7.79327C127.126 8.70415 127.909 9.56681 128.605 10.317C128.782 10.5259 128.798 10.7402 128.589 10.9331L128.246 11.26C128.037 11.4689 127.823 11.4529 127.63 11.2278C126.848 10.3009 126.071 9.47037 125.272 8.72023C125.058 8.5059 125.042 8.29693 125.256 8.08797L125.535 7.80934C125.728 7.61645 125.958 7.60038 126.167 7.79327Z" fill="white"/>
<path d="M147.735 10.0381C145.522 15.1015 142.982 18.0753 137.613 20.4168C137.077 20.6418 136.67 19.9292 137.206 19.6506C141.648 17.3251 143.828 14.4585 145.522 9.90413H140.689C139.649 11.5652 138.283 13.1404 136.375 14.2657C135.823 14.5925 135.416 13.9388 135.84 13.5798C137.908 11.8384 139.322 9.67373 140.314 7.18755C140.426 6.89822 140.656 6.79641 140.946 6.91429L141.728 7.24114C142.039 7.36973 142.119 7.60013 141.969 7.88947C141.744 8.31276 141.546 8.65568 141.235 9.11113L146.947 9.1272C147.499 9.09505 147.954 9.51834 147.729 10.0381H147.735Z" fill="white"/>
<path d="M153.374 7.68059H154.076C154.387 7.68059 154.564 7.84134 154.564 8.16818V14.6087C154.564 14.9194 154.403 15.0963 154.076 15.0963H153.374C153.064 15.0963 152.887 14.9194 152.887 14.6087V8.16818C152.887 7.85741 153.064 7.68059 153.374 7.68059ZM154.741 20.6151C154.43 20.7116 154.237 20.6312 154.157 20.4062C154.076 20.1597 154.189 19.9829 154.483 19.8543C158.175 18.3379 159.606 15.7392 159.606 11.6563V7.73417C159.606 7.40733 159.788 7.24658 160.093 7.24658H160.908C161.235 7.24658 161.395 7.40733 161.395 7.73417V11.6563C161.395 16.0339 159.295 19.1256 154.741 20.6205V20.6151Z" fill="white"/>
<path d="M166.714 17.2344H178.979C179.29 17.2344 179.467 17.3952 179.467 17.722V17.7863C179.467 18.0971 179.306 18.2739 178.979 18.2739H166.714C166.403 18.2739 166.227 18.0971 166.227 17.7863V17.722C166.227 17.3952 166.403 17.2344 166.714 17.2344ZM168.193 9.37402H177.5C177.827 9.37402 177.988 9.53477 177.988 9.86161V9.92591C177.988 10.2367 177.827 10.4135 177.5 10.4135H168.193C167.866 10.4135 167.705 10.2367 167.705 9.92591V9.86161C167.705 9.53477 167.882 9.37402 168.193 9.37402Z" fill="white"/>
<path d="M184.892 15.0693C184.598 14.0941 184.228 13.1993 183.756 12.2884C183.462 11.7205 184.244 11.4097 184.603 11.8169C185.337 12.6314 185.857 13.494 186.409 14.4692C186.585 14.7639 186.505 14.9407 186.194 15.0586L185.428 15.3479C185.15 15.4604 184.973 15.364 184.892 15.0747V15.0693ZM193.969 11.7473C192.683 15.8945 190.91 18.6807 186.73 20.7436C186.452 20.8722 186.227 20.8239 186.098 20.615C185.953 20.3899 186.05 20.1917 186.328 20.0309C189.94 17.9627 191.161 15.4444 192.313 11.2114C192.394 10.9007 192.608 10.7882 192.913 10.8846L193.664 11.1311C193.958 11.2275 194.071 11.4418 193.974 11.7473H193.969ZM188.113 13.8637C187.818 12.8564 187.464 11.9134 186.955 10.9328C186.661 10.3649 187.491 10.0219 187.834 10.4452C188.552 11.324 189.088 12.1706 189.672 13.3118C189.816 13.6012 189.736 13.7834 189.447 13.8798L188.664 14.1531C188.375 14.2495 188.193 14.1531 188.113 13.8637Z" fill="white"/>
<path d="M210.837 10.0381C208.624 15.1015 206.084 18.0753 200.721 20.4168C200.185 20.6418 199.778 19.9292 200.314 19.6506C204.756 17.3251 206.936 14.4585 208.63 9.90413H203.797C202.757 11.5652 201.391 13.1404 199.489 14.2657C198.937 14.5925 198.53 13.9388 198.953 13.5798C201.021 11.8384 202.436 9.67373 203.427 7.18755C203.539 6.89822 203.77 6.79641 204.059 6.91429L204.841 7.24114C205.152 7.36973 205.233 7.60013 205.088 7.88947C204.863 8.31276 204.665 8.65568 204.354 9.11113L210.066 9.1272C210.617 9.09505 211.073 9.51834 210.848 10.0381H210.837Z" fill="white"/>
<path d="M51.2464 31.6313C51.6 31.6313 51.9162 31.701 52.1894 31.8403C52.4627 31.9796 52.7038 32.1993 52.9074 32.494C53.111 32.7887 53.2182 33.1477 53.2182 33.5656C53.2182 34.0157 53.0896 34.4283 52.8378 34.8034C52.5806 35.1784 52.2859 35.4517 51.943 35.6232C51.6054 35.7946 51.2464 35.8804 50.8713 35.8804C50.3355 35.8804 49.8854 35.6982 49.5104 35.3285C49.1353 34.9587 48.9531 34.5033 48.9531 33.9621C48.9531 33.3352 49.1889 32.7887 49.6497 32.3279C50.1158 31.8671 50.6463 31.6367 51.2464 31.6367V31.6313ZM50.8499 31.926C50.4588 31.926 50.1319 32.0654 49.8747 32.3386C49.6175 32.6119 49.4889 32.9762 49.4889 33.4263C49.4889 34.0907 49.6818 34.6158 50.0676 35.007C50.4534 35.3981 50.8767 35.5964 51.3375 35.5964C51.7018 35.5964 52.018 35.4571 52.2859 35.1838C52.5484 34.9105 52.6824 34.5515 52.6824 34.1229C52.6824 33.721 52.5967 33.3406 52.4198 32.9816C52.243 32.628 52.0019 32.3601 51.7018 32.1886C51.4018 32.0118 51.1178 31.926 50.8553 31.926H50.8499Z" fill="white"/>
<path d="M60.2036 33.4103C60.1072 33.3192 60.0322 33.2174 59.984 33.1102C59.9357 33.003 59.9089 32.8959 59.9089 32.778C59.9089 32.4726 60.0483 32.2047 60.3322 31.9796C60.6109 31.7492 60.9431 31.6367 61.3181 31.6367C61.5057 31.6367 61.7575 31.6903 62.0736 31.7975V32.7941H61.8432C61.8272 32.5155 61.7414 32.2904 61.586 32.1136C61.4307 31.9368 61.2431 31.851 61.0234 31.851C60.8413 31.851 60.6912 31.9046 60.5734 32.0171C60.4555 32.1243 60.3965 32.269 60.3965 32.4351C60.3965 32.6012 60.4555 32.7512 60.5734 32.8905C60.6912 33.0352 60.9645 33.2495 61.4039 33.5496C61.7361 33.7746 61.9611 33.9514 62.079 34.0907C62.1915 34.2301 62.2505 34.4015 62.2505 34.6051C62.2505 34.9373 62.0951 35.232 61.7897 35.4946C61.4842 35.7571 61.136 35.8857 60.7502 35.8857C60.4716 35.8857 60.1608 35.8214 59.8125 35.6875V34.5408H60.0375C60.0375 34.8623 60.1286 35.1356 60.3162 35.3499C60.5037 35.5642 60.7234 35.6714 60.9806 35.6714C61.2163 35.6714 61.4039 35.6017 61.5378 35.4624C61.6718 35.3231 61.7414 35.1517 61.7414 34.9373C61.7414 34.7552 61.6879 34.589 61.57 34.4497C61.4575 34.3104 61.2003 34.1122 60.8038 33.8443C60.5841 33.6996 60.3805 33.5549 60.1983 33.4049L60.2036 33.4103Z" fill="white"/>
<path d="M68.6719 31.728H70.2257V31.8834C70.0382 31.8834 69.9096 31.9263 69.8399 31.9959C69.7756 32.0656 69.7435 32.1942 69.7435 32.3871V33.4748H71.6831V32.3871C71.6831 32.1835 71.6456 32.0495 71.576 31.9852C71.501 31.9209 71.3777 31.8888 71.2009 31.8834V31.728H72.7548V31.8834C72.5619 31.8834 72.4386 31.9263 72.369 31.9959C72.3047 32.0656 72.2725 32.1942 72.2725 32.3871V35.1411C72.2725 35.3501 72.31 35.4841 72.3797 35.543C72.4547 35.6073 72.578 35.6395 72.7548 35.6395V35.7948H71.2009V35.6395C71.3885 35.6395 71.517 35.6019 71.5813 35.5323C71.651 35.4626 71.6831 35.3287 71.6831 35.1358V33.6677H69.7435V35.1358C69.7435 35.4626 69.9042 35.6287 70.2257 35.6395V35.7948H68.6719V35.6395C68.8594 35.6395 68.988 35.6019 69.0577 35.5323C69.122 35.4626 69.1595 35.3287 69.1595 35.1358V32.3817C69.1595 32.1781 69.122 32.0441 69.0469 31.9798C68.9719 31.9155 68.8487 31.8834 68.6719 31.878V31.7227V31.728Z" fill="white"/>
<path d="M80.7921 31.878C80.6046 31.878 80.476 31.9209 80.4064 31.9852C80.3421 32.0548 80.3099 32.1834 80.3099 32.3763V35.1304C80.3099 35.4573 80.4706 35.6234 80.7921 35.6341V35.7895H79.2383V35.6341C79.4312 35.6341 79.5598 35.5966 79.6241 35.5269C79.6884 35.4573 79.7205 35.3233 79.7205 35.1304V32.3763C79.7205 32.1727 79.683 32.0388 79.6133 31.9745C79.5437 31.9102 79.4151 31.878 79.2383 31.8727V31.7173H80.7921V31.8727V31.878Z" fill="white"/>
<path d="M87.2046 31.728H89.2246C89.5246 31.728 89.7497 31.787 89.8997 31.8995C90.0497 32.0174 90.1248 32.1942 90.1248 32.4246C90.1248 32.6871 90.039 32.9282 89.8729 33.1533C89.7068 33.3783 89.4496 33.5873 89.1121 33.7802L89.8193 34.8786C90.1355 35.3716 90.4302 35.6234 90.6981 35.6395V35.7949H89.9372C89.7872 35.7949 89.6479 35.7038 89.53 35.5216L88.2708 33.5659V35.1412C88.2708 35.468 88.4316 35.6341 88.7584 35.6448V35.8002H87.1992V35.6448C87.3921 35.6448 87.5207 35.6073 87.585 35.5377C87.6493 35.468 87.6814 35.3341 87.6814 35.1412V32.3871C87.6814 32.1835 87.6439 32.0495 87.5743 31.9852C87.5046 31.9209 87.376 31.8888 87.1992 31.8834V31.728H87.2046ZM88.2762 32.0388V33.3623C88.5227 33.5444 88.737 33.6302 88.9138 33.6302C89.0906 33.6302 89.2407 33.5659 89.3318 33.4426C89.4228 33.314 89.4711 33.1319 89.4711 32.88C89.4711 32.5746 89.4014 32.3335 89.2675 32.1513C89.1281 31.9691 88.962 31.8834 88.7638 31.8834C88.5923 31.8834 88.4262 31.937 88.2762 32.0388Z" fill="white"/>
<path d="M99.1385 31.6313C99.4921 31.6313 99.8083 31.701 100.082 31.8403C100.355 31.9796 100.596 32.1993 100.8 32.494C101.003 32.7887 101.11 33.1477 101.11 33.5656C101.11 34.0157 100.982 34.4283 100.724 34.8034C100.467 35.1784 100.173 35.4517 99.8297 35.6232C99.4921 35.7946 99.1331 35.8804 98.7581 35.8804C98.2222 35.8804 97.7722 35.6982 97.3971 35.3285C97.022 34.9587 96.8398 34.5033 96.8398 33.9621C96.8398 33.3352 97.0702 32.7887 97.5418 32.3279C98.0079 31.8671 98.5384 31.6367 99.1385 31.6367V31.6313ZM98.742 31.926C98.3508 31.926 98.024 32.0654 97.7668 32.3386C97.5096 32.6119 97.381 32.9762 97.381 33.4263C97.381 34.0907 97.5739 34.6158 97.9597 35.007C98.3455 35.3981 98.7688 35.5964 99.2296 35.5964C99.5939 35.5964 99.9101 35.4571 100.178 35.1838C100.441 34.9105 100.574 34.5515 100.574 34.1229C100.574 33.721 100.489 33.3406 100.312 32.9816C100.135 32.628 99.894 32.3601 99.5939 32.1886C99.2885 32.0118 99.0099 31.926 98.7473 31.926H98.742Z" fill="white"/>
<path d="M115.779 33.4103C115.683 33.3192 115.608 33.2174 115.56 33.1102C115.511 33.003 115.485 32.8959 115.485 32.778C115.485 32.4726 115.624 32.2047 115.908 31.9796C116.187 31.7492 116.519 31.6367 116.894 31.6367C117.081 31.6367 117.333 31.6903 117.649 31.7975V32.7941H117.419C117.403 32.5155 117.317 32.2904 117.162 32.1136C117.006 31.9368 116.819 31.851 116.599 31.851C116.417 31.851 116.267 31.9046 116.149 32.0171C116.031 32.1243 115.972 32.269 115.972 32.4351C115.972 32.6012 116.031 32.7512 116.149 32.8905C116.262 33.0352 116.54 33.2495 116.98 33.5496C117.312 33.7746 117.537 33.9514 117.655 34.0907C117.767 34.2301 117.826 34.4015 117.826 34.6051C117.826 34.9373 117.671 35.232 117.365 35.4946C117.06 35.7571 116.712 35.8857 116.32 35.8857C116.042 35.8857 115.731 35.8214 115.383 35.6875V34.5408H115.608C115.608 34.8623 115.699 35.1356 115.886 35.3499C116.074 35.5642 116.294 35.6714 116.551 35.6714C116.787 35.6714 116.974 35.6017 117.108 35.4624C117.247 35.3231 117.312 35.1517 117.312 34.9373C117.312 34.7552 117.258 34.589 117.146 34.4497C117.033 34.3104 116.776 34.1122 116.374 33.8443C116.154 33.6996 115.951 33.5549 115.769 33.4049L115.779 33.4103Z" fill="white"/>
<path d="M124.242 31.728H125.796V31.8834C125.603 31.8834 125.475 31.9263 125.41 31.9906C125.346 32.0602 125.314 32.1942 125.314 32.3871V33.673L126.101 32.9014C126.225 32.7782 126.343 32.6389 126.455 32.4782C126.568 32.3228 126.621 32.1942 126.621 32.0924C126.621 31.9584 126.514 31.8888 126.294 31.878V31.7227H127.757V31.878C127.484 31.9102 127.189 32.0763 126.873 32.3817L125.844 33.3783L126.959 34.8679C127.339 35.3823 127.666 35.6341 127.939 35.6341V35.7895H126.916L125.319 33.6462V35.1358C125.319 35.4626 125.48 35.6287 125.801 35.6395V35.7948H124.248V35.6395C124.44 35.6395 124.569 35.6019 124.633 35.5323C124.698 35.4626 124.73 35.3287 124.73 35.1358V32.3817C124.73 32.1727 124.692 32.0388 124.623 31.9798C124.553 31.9155 124.424 31.8834 124.248 31.8834V31.728H124.242Z" fill="white"/>
<path d="M135.691 31.878C135.503 31.878 135.369 31.9209 135.305 31.9852C135.24 32.0548 135.208 32.1834 135.208 32.3763V35.1304C135.208 35.4573 135.369 35.6234 135.691 35.6341V35.7895H134.137V35.6341C134.33 35.6341 134.458 35.5966 134.523 35.5269C134.587 35.4573 134.619 35.3233 134.619 35.1304V32.3763C134.619 32.1727 134.581 32.0388 134.512 31.9745C134.442 31.9102 134.314 31.878 134.137 31.8727V31.7173H135.691V31.8727V31.878Z" fill="white"/>
<path d="M142.129 31.728H143.174L145.489 34.8357V33.8873C145.489 33.2819 145.44 32.7996 145.349 32.446C145.258 32.0924 145.108 31.8995 144.905 31.878V31.7227H146.292V31.878C145.907 31.9102 145.714 32.5478 145.714 33.7855V35.9342H145.564L142.82 32.2263V33.4105C142.82 34.1606 142.869 34.7125 142.96 35.0661C143.051 35.4198 143.201 35.6127 143.41 35.6395V35.7948H142.027V35.6395C142.413 35.5805 142.606 34.8518 142.606 33.448V32.3496C142.606 32.162 142.569 32.0388 142.493 31.9745C142.418 31.9102 142.301 31.878 142.129 31.878V31.7227V31.728Z" fill="white"/>
<path d="M163.895 35.0177C163.225 35.5964 162.614 35.8857 162.057 35.8857C161.607 35.8857 161.199 35.7143 160.841 35.366C160.482 35.0231 160.305 34.5462 160.305 33.9461C160.305 33.5228 160.396 33.1477 160.583 32.8155C160.771 32.4833 161.033 32.2047 161.376 31.9743C161.719 31.7492 162.132 31.6367 162.609 31.6367C163.027 31.6367 163.423 31.701 163.793 31.835V32.7941H163.568C163.541 32.494 163.407 32.2583 163.171 32.0922C162.936 31.9207 162.652 31.8403 162.325 31.8403C161.864 31.8403 161.505 32.0064 161.242 32.344C160.98 32.6816 160.851 33.0941 160.851 33.5817C160.851 34.1122 161.001 34.5515 161.296 34.8998C161.596 35.2481 161.976 35.4249 162.448 35.4249C162.919 35.4249 163.396 35.2267 163.895 34.8248V35.0177Z" fill="white"/>
<path d="M170.324 31.728H171.878V31.8834C171.685 31.8834 171.557 31.9209 171.492 31.9906C171.428 32.0602 171.396 32.1888 171.396 32.3871V35.6448H171.808C172.451 35.6448 172.832 35.3072 172.955 34.6321H173.185L172.912 35.9449H172.768C172.768 35.8431 172.719 35.7948 172.634 35.7948H170.33V35.6395C170.517 35.6395 170.646 35.6019 170.71 35.5323C170.774 35.4626 170.812 35.3287 170.812 35.1358V32.3817C170.812 32.1781 170.774 32.0441 170.705 31.9798C170.635 31.9155 170.506 31.8834 170.33 31.878V31.7227L170.324 31.728Z" fill="white"/>
<path d="M181.011 31.878C180.818 31.878 180.689 31.9209 180.625 31.9852C180.561 32.0548 180.529 32.1834 180.529 32.3763V35.1304C180.529 35.4573 180.689 35.6234 181.011 35.6341V35.7895H179.457V35.6341C179.65 35.6341 179.773 35.5966 179.843 35.5269C179.907 35.4573 179.939 35.3233 179.939 35.1304V32.3763C179.939 32.1727 179.902 32.0388 179.832 31.9745C179.762 31.9102 179.634 31.878 179.457 31.8727V31.7173H181.011V31.8727V31.878Z" fill="white"/>
<path d="M187.457 31.728H188.502L190.817 34.8357V33.8873C190.817 33.2819 190.769 32.7996 190.678 32.446C190.586 32.0924 190.436 31.8995 190.233 31.878V31.7227H191.621V31.878C191.235 31.9102 191.042 32.5478 191.042 33.7855V35.9342H190.892L188.148 32.2263V33.4105C188.148 34.1606 188.197 34.7125 188.288 35.0661C188.379 35.4198 188.529 35.6127 188.738 35.6395V35.7948H187.355V35.6395C187.741 35.5805 187.934 34.8518 187.934 33.448V32.3496C187.934 32.162 187.897 32.0388 187.822 31.9745C187.747 31.9102 187.629 31.878 187.457 31.878V31.7227V31.728Z" fill="white"/>
<path d="M199.495 31.878C199.302 31.878 199.179 31.9209 199.109 31.9852C199.045 32.0548 199.013 32.1834 199.013 32.3763V35.1304C199.013 35.4573 199.174 35.6234 199.495 35.6341V35.7895H197.941V35.6341C198.134 35.6341 198.263 35.5966 198.327 35.5269C198.391 35.4573 198.424 35.3233 198.424 35.1304V32.3763C198.424 32.1727 198.386 32.0388 198.316 31.9745C198.247 31.9102 198.118 31.878 197.941 31.8727V31.7173H199.495V31.8727V31.878Z" fill="white"/>
<path d="M209.559 35.0177C208.889 35.5964 208.273 35.8857 207.721 35.8857C207.271 35.8857 206.864 35.7143 206.505 35.366C206.146 35.0231 205.969 34.5462 205.969 33.9461C205.969 33.5228 206.06 33.1477 206.247 32.8155C206.435 32.4833 206.697 32.2047 207.04 31.9743C207.383 31.7492 207.796 31.6367 208.273 31.6367C208.691 31.6367 209.087 31.701 209.462 31.835V32.7941H209.237C209.21 32.494 209.076 32.2583 208.841 32.0922C208.605 31.9207 208.321 31.8403 207.994 31.8403C207.533 31.8403 207.174 32.0064 206.912 32.344C206.649 32.6816 206.521 33.0941 206.521 33.5817C206.521 34.1122 206.671 34.5515 206.965 34.8998C207.265 35.2481 207.646 35.4249 208.117 35.4249C208.589 35.4249 209.066 35.2267 209.564 34.8248V35.0177H209.559Z" fill="white"/>
<path d="M48.1875 25.9893H212.002" stroke="white" stroke-width="0.9" stroke-miterlimit="10"/>
<path d="M9.36627 2.79932C6.56933 5.42481 5.70667 10.1132 9.79492 11.5759C10.1378 11.7045 10.4379 11.7474 10.1378 11.3616C9.83779 10.9758 8.50361 9.72739 8.7608 7.44482C8.80367 6.97331 8.8894 7.0644 8.93226 7.40732C8.97513 7.75024 9.33412 10.0274 10.9148 11.0133C11.2577 11.2277 11.472 11.1848 11.5202 10.6276C11.5631 10.0703 12.1204 8.82186 11.2631 6.97331C10.4004 5.12475 9.71455 4.04777 9.80028 3.05651C9.84315 2.75646 9.54309 2.54213 9.37163 2.79932H9.36627Z" fill="white"/>
<path d="M39.9002 17.9149C38.8608 16.4039 36.7175 15.6752 35.7531 17.513C35.6673 17.6684 35.6298 17.8077 35.8281 17.6898C36.0317 17.5719 36.7068 17.0254 37.757 17.304C37.9767 17.3576 37.9285 17.3898 37.757 17.3844C37.5909 17.3844 36.5032 17.3951 35.9299 18.0756C35.8066 18.2203 35.812 18.3274 36.0692 18.3864C36.3264 18.4453 36.8783 18.799 37.7999 18.515C38.7268 18.2363 39.2787 17.9792 39.7341 18.0917C39.8735 18.1345 39.9967 18.0059 39.8842 17.9041L39.9002 17.9149Z" fill="white"/>
<path d="M29.9902 10.0489C28.2488 10.8044 27.0593 12.8512 28.7257 14.2175C28.865 14.3354 28.9989 14.405 28.9239 14.1746C28.8489 13.9442 28.4363 13.1351 28.9346 12.1171C29.0311 11.9028 29.0579 11.9617 29.0204 12.1278C28.9828 12.2939 28.7739 13.4191 29.3418 14.1425C29.4651 14.3032 29.5722 14.3193 29.6848 14.0621C29.7973 13.8103 30.2688 13.3173 30.1777 12.31C30.0866 11.3027 29.942 10.6865 30.1509 10.2364C30.2206 10.1024 30.1188 9.95241 29.9955 10.0435L29.9902 10.0489Z" fill="white"/>
<path d="M28.0163 37.0915C28.461 35.05 27.3947 32.6817 25.1122 33.2872C24.9193 33.3354 24.7692 33.4104 25.0211 33.4908C25.2783 33.5712 26.2588 33.7212 26.8482 34.825C26.9768 35.05 26.9071 35.0339 26.7839 34.8893C26.6607 34.75 25.7926 33.8391 24.7799 33.8873C24.5603 33.898 24.4745 33.9837 24.6299 34.2463C24.7853 34.5088 24.9193 35.2429 25.8784 35.8055C26.8375 36.3681 27.4804 36.636 27.743 37.1075C27.818 37.2576 28.0163 37.2629 28.0163 37.0915Z" fill="white"/>
<path d="M24.5502 0.173845C22.4498 0.870403 20.8638 3.10475 22.6481 4.86221C22.7981 5.01224 22.9428 5.10869 22.8785 4.83542C22.8142 4.56216 22.423 3.58698 23.1089 2.45641C23.2482 2.22065 23.2696 2.29031 23.2053 2.47784C23.1464 2.66538 22.782 3.94062 23.3661 4.84078C23.4947 5.03903 23.6179 5.06582 23.7733 4.7872C23.9287 4.50858 24.5234 3.98884 24.5234 2.81541C24.5234 1.64197 24.4216 0.913268 24.7056 0.414961C24.8021 0.264933 24.6949 0.0827567 24.5449 0.173845H24.5502Z" fill="white"/>
<path d="M2.83027 29.8475C4.79134 29.7886 6.7042 28.2829 5.63257 26.3379C5.54148 26.1718 5.44504 26.0539 5.42896 26.3058C5.41289 26.5576 5.50398 27.4846 4.6306 28.2722C4.45378 28.4383 4.45378 28.374 4.55558 28.2294C4.65739 28.0847 5.28429 27.0881 5.01638 26.1772C4.95744 25.9789 4.861 25.9254 4.65739 26.1236C4.45378 26.3219 3.81616 26.6112 3.52146 27.6132C3.22677 28.6098 3.12496 29.2581 2.75525 29.6064C2.63737 29.7082 2.68024 29.8957 2.83027 29.8529V29.8475Z" fill="white"/>
<path d="M0.973261 26.5094C1.04292 23.2034 3.55052 19.9403 6.85114 21.7139C7.12976 21.8639 7.33337 22.03 6.91008 22.0568C6.48678 22.0889 4.91685 21.955 3.60411 23.4338C3.32548 23.7339 3.43265 23.7339 3.67912 23.5624C3.92559 23.391 5.59197 22.3086 7.13512 22.748C7.47268 22.8444 7.56913 23.0052 7.23692 23.3588C6.90472 23.7124 6.42784 24.7894 4.74539 25.3038C3.06293 25.8182 1.97523 26.0004 1.3912 26.6273C1.22509 26.8255 0.908964 26.7612 0.978619 26.4987L0.973261 26.5094Z" fill="white"/>
<path d="M25.8945 1.70104C27.9895 0.983045 30.615 1.84035 30.2721 4.35331C30.2453 4.56764 30.1864 4.73374 30.0685 4.47119C29.9506 4.20864 29.672 3.17452 28.4343 2.67622C28.1824 2.5637 28.2039 2.63335 28.37 2.75123C28.5361 2.86911 29.6023 3.68355 29.6827 4.77125C29.6988 5.00701 29.6184 5.10881 29.3237 4.97486C29.029 4.8409 28.236 4.78196 27.5234 3.82822C26.8054 2.86911 26.441 2.22077 25.9106 1.99037C25.7445 1.92608 25.7177 1.71175 25.8945 1.69568V1.70104Z" fill="white"/>
<path d="M18.1166 30.8599C16.2574 32.0494 13.4979 31.8458 13.2407 29.3221C13.2139 29.1078 13.23 28.931 13.4068 29.1614C13.5836 29.3864 14.098 30.3241 15.4215 30.517C15.6948 30.5652 15.6519 30.5009 15.4644 30.4259C15.2768 30.3509 14.0444 29.8097 13.7069 28.7756C13.6319 28.5506 13.6908 28.4327 14.0069 28.4916C14.3284 28.5506 15.1054 28.4166 16.027 29.1775C16.9486 29.9383 17.4629 30.4849 18.0309 30.5813C18.2077 30.6027 18.2881 30.801 18.1166 30.8599Z" fill="white"/>
<path d="M30.8048 21.4138C31.9568 22.9088 31.9836 25.2663 29.8564 25.6736C29.6742 25.7111 29.5242 25.7111 29.7064 25.5396C29.8885 25.3735 30.644 24.8645 30.7083 23.7286C30.7298 23.4928 30.6762 23.5357 30.628 23.7018C30.5797 23.8679 30.21 24.9502 29.3527 25.3146C29.1652 25.3949 29.0634 25.3574 29.0902 25.0788C29.117 24.8002 28.9455 24.1518 29.5242 23.3106C30.1029 22.4694 30.5262 21.9979 30.569 21.5049C30.569 21.3549 30.7405 21.2745 30.7994 21.4138H30.8048Z" fill="white"/>
<path d="M0.218147 16.752C2.92401 13.7407 7.85885 12.7227 9.49844 17.0038C9.64311 17.3628 9.69669 17.6843 9.27875 17.3735C8.86082 17.0627 7.51593 15.6857 5.11548 16.0126C4.61718 16.0715 4.71898 16.1572 5.08333 16.1947C5.44769 16.2322 7.85885 16.5591 8.93583 18.204C9.17159 18.563 9.12873 18.7881 8.53933 18.847C7.94994 18.9059 6.64255 19.5275 4.67076 18.6595C2.69896 17.7915 1.54696 17.0895 0.502128 17.2074C0.185998 17.261 -0.0497599 16.9502 0.218147 16.7573V16.752Z" fill="white"/>
<path d="M25.9614 38.6401C23.4592 39.8082 20.1907 39.0902 20.4479 35.9289C20.464 35.661 20.5229 35.4466 20.689 35.7574C20.8497 36.0682 21.2623 37.3113 22.8055 37.7667C23.1216 37.8685 23.0841 37.7881 22.8751 37.6649C22.6661 37.5417 21.3105 36.6683 21.1391 35.3288C21.1016 35.0394 21.1927 34.9055 21.5624 35.0287C21.9321 35.1573 22.9019 35.1198 23.8396 36.2129C24.7773 37.3059 25.2702 38.0668 25.9293 38.2811C26.1329 38.3347 26.1864 38.5972 25.9668 38.6455L25.9614 38.6401Z" fill="white"/>
<path d="M40.0742 19.1152C38.7239 22.7051 34.7268 25.3038 31.8066 22.0889C31.5547 21.821 31.3994 21.5585 31.8709 21.6871C32.3477 21.8157 34.0088 22.5658 36.0181 21.4567C36.436 21.2316 36.3181 21.1941 35.9859 21.2852C35.6537 21.3763 33.414 21.9175 31.8977 20.8405C31.5655 20.6047 31.5226 20.3904 32.0263 20.1386C32.5246 19.8814 33.4622 18.8848 35.5037 18.9705C37.5398 19.0562 38.7989 19.2759 39.6777 18.8151C39.9402 18.6597 40.2564 18.858 40.0795 19.1152H40.0742Z" fill="white"/>
<path d="M25.4719 11.335C24.6736 10.8527 24.486 9.92578 24.486 9.92578C24.4753 9.86684 24.5182 9.8079 24.5771 9.79183C24.5771 9.79183 25.5523 9.56143 26.3507 10.0437C27.149 10.5259 27.3366 11.4528 27.3366 11.4528C27.3473 11.5118 27.3098 11.5761 27.2455 11.5868C27.2455 11.5868 26.2703 11.8172 25.4719 11.335Z" fill="white"/>
<path d="M8.21377 21.4939C8.2995 20.3955 9.17823 19.7043 9.17823 19.7043C9.23717 19.6614 9.3229 19.6721 9.37113 19.7311C9.37113 19.7311 10.132 20.6366 10.0463 21.7404C9.96052 22.8388 9.08179 23.53 9.08179 23.53C9.02285 23.5782 8.93712 23.5675 8.88889 23.5086C8.88889 23.5086 8.12804 22.603 8.21377 21.4993V21.4939Z" fill="white"/>
<path d="M19.92 30.1849C20.8952 29.6705 21.9507 30.051 21.9507 30.051C22.0204 30.0777 22.0525 30.1581 22.0311 30.2278C22.0311 30.2278 21.6667 31.353 20.6862 31.8674C19.711 32.3817 18.6555 32.0013 18.6555 32.0013C18.5858 31.9745 18.5483 31.8995 18.5751 31.8245C18.5751 31.8245 18.9394 30.6993 19.92 30.1849Z" fill="white"/>
<path d="M25.0799 32.1138C24.5173 33.239 23.0278 33.5123 23.0278 33.5123C22.9313 33.5284 22.8188 33.4694 22.7759 33.3837C22.7759 33.3837 22.1008 32.0281 22.6688 30.9029C23.2314 29.7777 24.7209 29.5044 24.7209 29.5044C24.8174 29.483 24.9299 29.5419 24.9728 29.633C24.9728 29.633 25.6425 30.9886 25.0799 32.1138Z" fill="white"/>
<path d="M31.2523 35.0127C33.4277 35.0395 35.6192 33.4642 34.5261 31.2621C34.435 31.0745 34.3279 30.9352 34.3011 31.2138C34.2689 31.4871 34.3279 32.5212 33.3205 33.3517C33.1169 33.5285 33.1223 33.4535 33.2402 33.2981C33.3581 33.1428 34.1028 32.0711 33.851 31.0477C33.7974 30.8227 33.6903 30.7584 33.4491 30.9674C33.2134 31.1763 32.4954 31.4657 32.1203 32.5641C31.7453 33.6571 31.6006 34.3644 31.1773 34.7341C31.038 34.8413 31.0808 35.0449 31.2469 35.0074L31.2523 35.0127Z" fill="white"/>
<path d="M34.7512 30.0136C34.0761 29.1885 34.3333 27.9025 34.3333 27.9025C34.3547 27.8168 34.4297 27.7472 34.5101 27.7418C34.5101 27.7418 35.7532 27.6561 36.4283 28.4812C37.1034 29.3064 36.8462 30.5923 36.8462 30.5923C36.8301 30.6781 36.7498 30.7477 36.6694 30.7531C36.6694 30.7531 35.4263 30.8388 34.7512 30.0136Z" fill="white"/>
<path d="M36.8945 27.1789C35.3996 27.3343 34.1672 26.0055 34.1672 26.0055C34.0868 25.9197 34.0761 25.7697 34.1351 25.6679C34.1351 25.6679 35.0727 24.1194 36.5677 23.964C38.0626 23.814 39.2949 25.1374 39.2949 25.1374C39.3753 25.2232 39.3914 25.3732 39.3325 25.475C39.3325 25.475 38.3948 27.0235 36.8999 27.1789H36.8945Z" fill="white"/>
<path d="M3.91867 11.8387C2.94349 10.5956 3.3775 8.72561 3.3775 8.72561C3.40429 8.60237 3.52217 8.50592 3.64541 8.50057C3.64541 8.50057 5.49397 8.43627 6.46915 9.67935C7.44433 10.9224 7.01568 12.7871 7.01568 12.7871C6.98889 12.905 6.87101 13.0121 6.74777 13.0121C6.74777 13.0121 4.89921 13.0764 3.92403 11.8333L3.91867 11.8387Z" fill="white"/>
<path d="M12.0826 1.89419C12.7095 0.994024 14.0276 0.945801 14.0276 0.945801C14.1134 0.945801 14.2044 1.00474 14.2312 1.08511C14.2312 1.08511 14.6438 2.33892 14.0169 3.23908C13.39 4.13925 12.0719 4.18747 12.0719 4.18747C11.9862 4.18747 11.8951 4.12853 11.8683 4.04816C11.8683 4.04816 11.4611 2.79436 12.088 1.89419H12.0826Z" fill="white"/>
<path d="M2.83981 13.1782C2.83981 13.6283 2.47546 13.9926 2.02537 13.9926C1.57529 13.9926 1.21094 13.6283 1.21094 13.1782C1.21094 12.7281 1.57529 12.3638 2.02537 12.3638C2.47546 12.3638 2.83981 12.7281 2.83981 13.1782Z" fill="white"/>
<path d="M31.0547 36.1484C31.0547 36.5985 30.6903 36.9629 30.2402 36.9629C29.7901 36.9629 29.4258 36.5985 29.4258 36.1484C29.4258 35.6983 29.7901 35.334 30.2402 35.334C30.6903 35.334 31.0547 35.6983 31.0547 36.1484Z" fill="white"/>
<path d="M5.97262 31.7549C5.97262 32.2049 5.60827 32.5693 5.15819 32.5693C4.7081 32.5693 4.34375 32.2049 4.34375 31.7549C4.34375 31.3048 4.7081 30.9404 5.15819 30.9404C5.60827 30.9404 5.97262 31.3048 5.97262 31.7549Z" fill="white"/>
<path d="M33.3875 26.5629C33.3875 26.9165 33.0982 27.2059 32.7445 27.2059C32.3909 27.2059 32.1016 26.9165 32.1016 26.5629C32.1016 26.2093 32.3909 25.9199 32.7445 25.9199C33.0982 25.9199 33.3875 26.2093 33.3875 26.5629Z" fill="white"/>
<path d="M1.85391 20.2561C1.85391 20.7704 1.44134 21.183 0.926957 21.183C0.412576 21.183 0 20.7704 0 20.2561C0 19.7417 0.412576 19.3291 0.926957 19.3291C1.44134 19.3291 1.85391 19.7417 1.85391 20.2561Z" fill="white"/>
<path d="M29.8344 7.15547C29.8344 7.6645 29.4218 8.08243 28.9074 8.08243C28.393 8.08243 27.9805 7.66985 27.9805 7.15547C27.9805 6.64109 28.3984 6.22852 28.9074 6.22852C29.4164 6.22852 29.8344 6.64645 29.8344 7.15547Z" fill="white"/>
<path d="M20.6236 0.538399C20.8272 2.47804 21.7488 9.18107 14.3974 11.1261C14.0491 11.3029 13.8884 11.1261 14.2795 10.8367C14.6707 10.5474 18.1535 7.10212 18.3839 4.75525C18.4482 4.05869 18.1695 4.58379 18.1535 4.7231C18.1374 4.86241 16.4174 8.33985 13.2615 10.5849C12.8971 10.8957 12.731 10.6653 12.8864 9.99015C13.0418 9.31503 11.8684 5.97691 15.2119 3.15317C16.4281 2.12441 19.3323 1.49751 20.0985 0.184762C20.2163 -0.0188473 20.5378 -0.217098 20.6182 0.543757L20.6236 0.538399Z" fill="white"/>
<path d="M37.4949 10.3009C37.4842 12.0048 37.6342 17.9202 31.0544 18.9007C30.7329 19.0186 30.6097 18.8471 30.9794 18.6382C31.3491 18.4238 34.714 15.7662 35.1373 13.7462C35.2605 13.1461 34.9658 13.5747 34.9391 13.698C34.9123 13.8158 33.0798 16.6717 30.1167 18.3167C29.7738 18.5524 29.6506 18.3381 29.8488 17.7648C30.0471 17.1915 29.3559 14.1748 32.5333 12.0477C33.696 11.2707 36.2732 11.0082 37.0716 9.94191C37.1948 9.7758 37.4949 9.63649 37.4895 10.3063L37.4949 10.3009Z" fill="white"/>
<path d="M12.7196 27.7201C12.7196 27.4951 12.1248 27.3129 11.3854 27.3129C11.3104 27.3129 11.2407 27.3129 11.171 27.3129C11.2353 27.2808 11.2943 27.2486 11.3586 27.2111C11.9962 26.8414 12.4249 26.386 12.307 26.1877C12.1945 25.9894 11.589 26.1341 10.946 26.4985C10.8817 26.536 10.8228 26.5735 10.7585 26.611C10.796 26.5521 10.8335 26.4878 10.871 26.4288C11.2407 25.7912 11.38 25.1804 11.1818 25.0679C10.9889 24.9553 10.5281 25.3786 10.1584 26.0162C10.1209 26.0805 10.0887 26.1448 10.0566 26.2091C10.0566 26.1341 10.0619 26.0645 10.0619 25.9895C10.0619 25.2554 9.87974 24.6553 9.6547 24.6553C9.42966 24.6553 9.24748 25.2554 9.24748 25.9895C9.24748 26.0645 9.24748 26.1341 9.25284 26.2091C9.22069 26.1448 9.18854 26.0805 9.15103 26.0162C8.78132 25.3786 8.32588 24.95 8.12763 25.0679C7.92938 25.1804 8.06869 25.7912 8.4384 26.4288C8.47591 26.4931 8.51341 26.5574 8.55092 26.6164C8.49198 26.5788 8.42768 26.5413 8.36339 26.5038C7.72577 26.1341 7.11494 25.9948 7.00242 26.1931C6.8899 26.3913 7.31319 26.8468 7.95081 27.2165C8.01511 27.254 8.07941 27.2861 8.1437 27.3183C8.07405 27.3183 7.99903 27.3183 7.92402 27.3183C7.1846 27.3183 6.58984 27.5004 6.58984 27.7255C6.58984 27.9505 7.1846 28.1327 7.92402 28.1327C7.99903 28.1327 8.06869 28.1327 8.1437 28.1273C8.07941 28.1595 8.01511 28.1916 7.95081 28.2345C7.31319 28.6042 6.8899 29.0597 7.00242 29.2526C7.11494 29.4508 7.72577 29.3115 8.36339 28.9418C8.42768 28.9043 8.49198 28.8668 8.55092 28.8293C8.51341 28.8882 8.47591 28.9471 8.4384 29.0114C8.06869 29.6491 7.92938 30.2599 8.12763 30.3724C8.32052 30.4849 8.78132 30.0616 9.15103 29.4187C9.18854 29.3544 9.22069 29.2901 9.25284 29.2258C9.25284 29.2954 9.24748 29.3704 9.24748 29.4401C9.24748 30.1795 9.42966 30.7743 9.6547 30.7743C9.87974 30.7743 10.0619 30.1795 10.0619 29.4401C10.0619 29.3651 10.0619 29.2954 10.0566 29.2258C10.0887 29.2901 10.1209 29.3544 10.1584 29.4187C10.5281 30.0563 10.9835 30.4849 11.1818 30.3724C11.38 30.2599 11.2407 29.6491 10.871 29.0114C10.8335 28.9471 10.796 28.8882 10.7585 28.8239C10.8174 28.8614 10.8817 28.8989 10.946 28.9364C11.5836 29.3061 12.1945 29.4454 12.307 29.2472C12.4195 29.0489 11.9962 28.5935 11.3586 28.2292C11.2943 28.1916 11.23 28.1595 11.1657 28.122C11.2353 28.122 11.3104 28.1273 11.3854 28.1273C12.1248 28.1273 12.7196 27.9452 12.7196 27.7201ZM9.66541 28.8614C9.04387 28.8614 8.54556 28.3577 8.54556 27.7416C8.54556 27.1254 9.04923 26.6217 9.66541 26.6217C10.2816 26.6217 10.7853 27.1254 10.7853 27.7416C10.7853 28.3577 10.2816 28.8614 9.66541 28.8614Z" fill="white"/>
<path d="M32.8444 29.301C32.8015 28.9742 32.0353 28.3312 31.0976 28.5723C31.6549 27.8168 31.4245 26.7988 31.1941 26.6487C30.9423 26.4933 30.8672 26.6112 30.6797 26.5255C30.4922 26.4451 30.5243 26.3112 30.2403 26.2308C29.9135 26.1397 28.9705 26.6112 28.8579 27.6346C28.3864 26.847 27.4005 26.6487 27.1755 26.7988C26.929 26.9649 27.004 27.0827 26.8486 27.2167C26.6933 27.356 26.5861 27.2649 26.3986 27.4953C26.1628 27.7739 26.2271 28.942 27.288 29.4242C26.3235 29.8261 26.0717 30.9727 26.2325 31.2192C26.3986 31.4657 26.5164 31.3907 26.6558 31.5461C26.7897 31.7014 26.7093 31.8086 26.9344 31.9961C27.1541 32.1783 27.931 32.1783 28.4882 31.6479C28.5686 32.4516 29.1902 33.041 29.442 33.041C29.742 33.041 29.742 32.8963 29.9456 32.8642C30.1493 32.832 30.1921 32.9606 30.4761 32.8749C30.7976 32.7784 31.328 31.8943 30.8994 30.9781C31.8746 31.3049 32.8176 30.6298 32.8551 30.3405C32.898 30.0458 32.764 30.0244 32.764 29.8154C32.764 29.6118 32.898 29.585 32.8605 29.2956L32.8444 29.301ZM30.1814 29.9547C29.9671 30.4476 29.3938 30.6673 28.9062 30.453C28.4132 30.2333 28.1935 29.6654 28.4079 29.1778C28.6222 28.6848 29.1955 28.4651 29.6831 28.6795C30.1707 28.8938 30.3957 29.4671 30.1814 29.9601V29.9547Z" fill="white"/>
<path fill-rule="evenodd" clip-rule="evenodd" d="M6.66111 33.9305C6.63432 33.4483 7.17549 33.025 7.87205 32.9821H7.89884H7.92027H7.95778H8.01672H8.03279H8.0703H8.08102H8.10245H8.12388H8.1346V32.9714V32.966V32.9553V32.9499V32.9392H8.12388V32.9339V32.9232V32.9178V32.9071V32.9017V32.891H8.11852V32.8803V32.8696V32.8589V32.8481H8.11316V32.8428V32.8321V32.8267V32.8214L8.10245 32.7999V32.7838H8.09173V32.7785V32.7731V32.7624V32.7463C7.83454 32.098 7.98993 31.4282 8.44001 31.2514C8.89009 31.0746 9.46341 31.4604 9.71525 32.1087L9.72596 32.1409L9.73668 32.1677V32.173L9.7474 32.1998L9.75811 32.2266L9.76883 32.2587V32.2855H9.77954V32.2909V32.3123H9.7849V32.3177V32.3284V32.3338V32.3391V32.3498V32.3606V32.3713V32.3659H9.79026V32.3552V32.3498V32.3445V32.3391V32.3338L9.79562 32.3284V32.323V32.3177L9.80098 32.307V32.3016V32.2963L9.80633 32.2855L9.81169 32.2748V32.2695V32.2641V32.2587V32.2534V32.248L9.82241 32.2373L9.84384 32.2159L9.85992 32.1998C10.4011 31.7551 11.0869 31.7015 11.3923 32.0766C11.6978 32.4516 11.5102 33.1107 10.9691 33.5554L10.9423 33.5769L10.9262 33.5929L10.9048 33.609L10.894 33.6197H10.8833V33.6304V33.6358L10.878 33.6411L10.8726 33.6465V33.6519L10.8672 33.6572H10.878H10.8887V33.6626H10.894H10.8994H10.9048V33.6679H10.9101H10.9208V33.6787L10.9476 33.6894L10.9744 33.7054L11.0012 33.7215C11.5906 34.0966 11.8531 34.7342 11.5906 35.1414C11.328 35.5486 10.6422 35.5754 10.0528 35.2004L10.0314 35.1843L10.0153 35.1736L9.99923 35.1629V35.1575H9.99387V35.1521L9.98851 35.1468V35.1414V35.1361V35.1307H9.98315V35.12V35.1146H9.9778V35.1039V35.0986L9.96708 35.0878V35.0825H9.96172V35.0718C9.95101 35.1629 9.93493 35.2647 9.90814 35.3611C9.73132 36.0362 9.21158 36.4863 8.74007 36.3631C8.27391 36.2398 8.03815 35.5915 8.20961 34.9164C8.2364 34.8146 8.26855 34.7235 8.31142 34.6324L8.29534 34.6378H8.28462H8.27927H8.26855H8.25783H8.24712H8.2364H8.23104H8.22569H8.21497H8.19889H8.18818H8.1721H8.15603H8.13995H8.11852H8.09709H8.09173C7.39517 34.6806 6.80578 34.3216 6.77899 33.8394L6.66111 33.9305Z" fill="white"/>
<path fill-rule="evenodd" clip-rule="evenodd" d="M9.22818 14.6679C9.04065 14.4536 9.14245 14.0624 9.45322 13.7945L9.46394 13.7838L9.4693 13.7785L9.48001 13.7677L9.49073 13.757H9.50145V13.7463V13.7409H9.49609H9.49073H9.48537H9.48001H9.4693V13.7356L9.45858 13.7302H9.45322C9.10494 13.5159 8.93884 13.1462 9.08351 12.9051C9.22818 12.664 9.63004 12.6372 9.98368 12.8461L9.99975 12.8569L10.0105 12.8676L10.0212 12.8783L10.0373 12.889L10.0533 12.8997L10.0641 12.9104L10.0748 12.9212V12.9265V12.9319V12.9212V12.9104V12.8997V12.889V12.8836V12.8783V12.8676V12.8622V12.8461V12.8408V12.8301V12.8247V12.814V12.7926V12.7818C10.1712 12.3853 10.4713 12.1121 10.7445 12.1764C11.0178 12.2407 11.1678 12.6157 11.0767 13.0122V13.0337H11.0714V13.0497V13.0658V13.0765V13.0926V13.098V13.1087V13.114V13.1194V13.1248V13.1301H11.0821H11.0875H11.0928H11.0982H11.1035H11.1089H11.1142H11.125H11.1357H11.1464H11.1678H11.1893H11.2053C11.6126 13.0926 11.9608 13.2962 11.9876 13.5748C12.0144 13.8588 11.7036 14.116 11.2964 14.1482H11.275H11.2643H11.2268H11.1946H11.1571H11.1464C11.1785 14.1964 11.2053 14.25 11.2268 14.3036C11.3875 14.6786 11.3018 15.0751 11.0446 15.1876C10.782 15.3002 10.4445 15.0805 10.2837 14.7054C10.2623 14.6518 10.2409 14.5982 10.2302 14.5393V14.5447V14.55V14.5554L10.2248 14.5607L10.2141 14.5715H10.2087V14.5822C9.89795 14.8501 9.50145 14.8929 9.31391 14.6786L9.22818 14.6679Z" fill="white"/>
<path fill-rule="evenodd" clip-rule="evenodd" d="M21.6024 10.0008C21.3184 9.9794 21.1202 9.63112 21.147 9.2239V9.20783V9.19711V9.18639V9.17032V9.15425V9.13817V9.13281V9.1221V9.11674V9.11138V9.10602V9.10066V9.08995H21.1363H21.1309H21.1255H21.1202H21.0987H21.088H21.0827H21.0773C20.6808 9.18639 20.3057 9.04172 20.2361 8.76846C20.1718 8.48984 20.4397 8.18978 20.8362 8.09869H20.8576V8.09333H20.8683H20.8844H20.9005H20.9166H20.9326H20.9487H20.9594H20.9755V8.08798V8.08262V8.07726V8.0719V8.06654V8.06119L20.9648 8.05047L20.9541 8.0344C20.7398 7.68612 20.7612 7.28426 21.0023 7.13423C21.2434 6.9842 21.6131 7.14495 21.8275 7.49858L21.8382 7.51466V7.52537H21.8435L21.8489 7.54145V7.55216V7.56288V7.56824V7.5736V7.57895V7.58431V7.58967V7.57895V7.5736V7.56288V7.55752V7.54681L21.8596 7.53073L21.8703 7.51466L21.881 7.49858C22.1436 7.18781 22.5347 7.08601 22.7491 7.26818C22.9634 7.45036 22.9259 7.85222 22.658 8.16299L22.6473 8.17371V8.18442H22.6365L22.6258 8.19514V8.2005V8.20586L22.6205 8.21121C22.6794 8.22193 22.733 8.24336 22.7866 8.26479C23.167 8.42018 23.3813 8.75774 23.2742 9.02029C23.167 9.28284 22.7705 9.36857 22.3954 9.21318C22.3418 9.19175 22.2883 9.1596 22.24 9.13281V9.14353V9.15425V9.16496V9.17032V9.18104V9.19175V9.20247V9.21318V9.2239V9.22926V9.23998V9.25069V9.25605V9.26677V9.28284V9.29356C22.2079 9.70613 21.9561 10.0169 21.6721 9.99547L21.6024 10.0008Z" fill="white"/>
<path d="M26.4493 6.53433C26.4493 6.53433 26.4279 6.53433 26.4225 6.52898C26.4279 6.52898 26.4386 6.51826 26.4493 6.5129C27.0173 6.13247 27.3763 5.67703 27.2584 5.49486C27.1352 5.31268 26.5779 5.47342 26.01 5.84849C25.9992 5.85385 25.9939 5.85921 25.9885 5.86457C25.9885 5.85385 25.9885 5.84849 25.9939 5.83778C26.1278 5.16801 26.0582 4.58933 25.8439 4.54647C25.6295 4.5036 25.3455 5.01262 25.2116 5.68239C25.2116 5.69311 25.2116 5.70382 25.2116 5.70918C25.2116 5.69846 25.2009 5.69311 25.1955 5.68239C24.8151 5.11443 24.3596 4.75543 24.1775 4.87331C23.9953 4.99655 24.1507 5.5538 24.5311 6.12176C24.5365 6.12712 24.5418 6.13783 24.5472 6.14319C24.5365 6.14319 24.5258 6.14319 24.5204 6.13783C23.8506 6.00388 23.2719 6.07353 23.2291 6.28786C23.1862 6.50754 23.6952 6.78617 24.365 6.92012C24.3757 6.92012 24.3864 6.92012 24.3918 6.92012C24.3864 6.92012 24.3757 6.93084 24.365 6.93619C23.797 7.31662 23.4327 7.77206 23.5559 7.95424C23.6792 8.13642 24.2364 7.97567 24.8044 7.6006C24.8097 7.6006 24.8205 7.58989 24.8258 7.58453C24.8258 7.59525 24.8258 7.60596 24.8204 7.61132C24.6865 8.28109 24.7562 8.85976 24.9705 8.90263C25.1848 8.94549 25.4688 8.43647 25.6027 7.76671C25.6027 7.75599 25.6027 7.74527 25.6081 7.73992C25.6081 7.74527 25.6188 7.75599 25.6242 7.76135C26.0046 8.32931 26.46 8.68831 26.6422 8.57043C26.8244 8.44719 26.6636 7.88994 26.2886 7.32198C26.2886 7.31662 26.2779 7.30591 26.2725 7.30055C26.2832 7.30055 26.2939 7.30055 26.2993 7.30591C26.9691 7.43986 27.5477 7.3702 27.5906 7.15588C27.6335 6.94155 27.1244 6.65757 26.4547 6.52362L26.4493 6.53433Z" fill="white"/>
<path d="M32.5177 7.70218C32.5177 7.70218 31.6389 7.37534 31.1996 6.70557C30.7602 6.0358 31.221 5.575 31.4139 5.3071C31.6068 5.03919 31.5907 4.96954 31.7675 5.02312C31.9444 5.0767 32.6409 5.10885 33.0213 5.85363C33.4018 6.59841 32.6999 7.45035 32.6945 7.62181C32.6891 7.78791 32.582 7.7772 32.523 7.70218H32.5177Z" fill="white"/>
<path d="M32.7994 8.13615C32.7994 8.13615 33.6781 8.46299 34.1175 9.13276C34.5568 9.80253 34.096 10.2633 33.9031 10.5312C33.7102 10.7991 33.7317 10.8688 33.5495 10.8099C33.3727 10.7509 32.6761 10.7241 32.301 9.97935C31.9206 9.23457 32.6172 8.38262 32.6279 8.21652C32.6386 8.05042 32.7404 8.06113 32.7994 8.13615Z" fill="white"/>
<path d="M32.8764 7.77744C32.8764 7.77744 33.2032 6.89871 33.873 6.45934C34.5428 6.01997 35.0036 6.48077 35.2715 6.67367C35.5394 6.86656 35.609 6.85048 35.5501 7.0273C35.4965 7.20412 35.4644 7.90068 34.7196 8.27575C33.9748 8.65618 33.1229 7.95962 32.9568 7.9489C32.7907 7.93819 32.8014 7.83638 32.8764 7.77744Z" fill="white"/>
<path d="M32.4471 8.05594C32.4471 8.05594 32.1203 8.93467 31.4505 9.37404C30.7807 9.8134 30.3199 9.3526 30.052 9.15971C29.7841 8.96682 29.7145 8.98825 29.7734 8.81143C29.8323 8.63461 29.8591 7.93806 30.6039 7.55763C31.3487 7.18256 32.2006 7.87912 32.3667 7.88447C32.5328 7.89519 32.5221 7.997 32.4471 8.05594Z" fill="white"/>
<path d="M32.9203 7.6752C32.7917 7.51446 32.5667 7.49303 32.4059 7.61626C32.2506 7.7395 32.2238 7.9699 32.347 8.12529C32.4702 8.28067 32.7006 8.30746 32.8614 8.18423C33.0168 8.06099 33.0436 7.83059 32.9203 7.6752Z" fill="white"/>
<path d="M15.6249 35.704C15.6249 35.704 14.2907 35.479 13.487 34.6485C12.6832 33.8233 13.2083 33.041 13.412 32.607C13.6102 32.1784 13.5673 32.0819 13.8352 32.1141C14.1031 32.1462 15.0944 32.0016 15.8338 32.9553C16.5733 33.9091 15.8124 35.3022 15.8499 35.5433C15.8821 35.779 15.732 35.7951 15.6249 35.704Z" fill="white"/>
<path d="M16.1426 36.2346C16.1426 36.2346 17.4767 36.465 18.2805 37.2901C19.0842 38.1206 18.5591 38.8976 18.3608 39.3316C18.1626 39.7656 18.2054 39.8567 17.9375 39.8245C17.6696 39.7924 16.6784 39.9424 15.9389 38.9833C15.1995 38.0295 15.955 36.6364 15.9229 36.3953C15.8907 36.1596 16.0408 36.1435 16.1426 36.2346Z" fill="white"/>
<path d="M16.148 35.7147C16.148 35.7147 16.373 34.3805 17.1982 33.5768C18.0287 32.7731 18.811 33.2982 19.2396 33.5018C19.6683 33.7 19.7647 33.6572 19.7326 33.9251C19.7004 34.193 19.8505 35.1842 18.8914 35.9237C17.9376 36.6631 16.5445 35.9076 16.3034 35.9397C16.0623 35.9719 16.0516 35.8219 16.1426 35.7201L16.148 35.7147Z" fill="white"/>
<path d="M15.6191 36.2293C15.6191 36.2293 15.394 37.5581 14.5635 38.3672C13.7384 39.1709 12.9561 38.6458 12.5221 38.4422C12.0934 38.2439 11.997 38.2868 12.0291 38.0189C12.0613 37.751 11.9166 36.7597 12.8703 36.0203C13.8241 35.2809 15.2172 36.0417 15.4583 36.0042C15.6994 35.9721 15.7102 36.1221 15.6191 36.2239V36.2293Z" fill="white"/>
<path d="M16.1886 35.5596C15.9689 35.3667 15.6367 35.3935 15.4491 35.6185C15.2616 35.8382 15.2884 36.1704 15.5081 36.3579C15.7278 36.5455 16.06 36.5187 16.2475 36.299C16.435 36.0793 16.4136 35.7471 16.1886 35.5596Z" fill="white"/>
</svg>
