<svg xmlns="http://www.w3.org/2000/svg" xmlns:xlink="http://www.w3.org/1999/xlink" width="188" height="132" viewBox="0 0 188 132"><defs><clipPath id="a"><path d="M123.615,6.952c-4.306,4.04-5.629,11.258.661,13.511.529.2.993.265.529-.33a7.406,7.406,0,0,1-2.118-6.027c.065-.729.195-.587.262-.056S123.57,18.082,126,19.6c.531.329.862.262.929-.6a8.126,8.126,0,0,0-.4-5.628c-1.324-2.849-2.384-4.5-2.251-6.027a.469.469,0,0,0-.378-.574.344.344,0,0,0-.283.175" transform="translate(-119.968 -6.777)" fill="#7a8096"/></clipPath><clipPath id="b"><path d="M192.318,43.059c-.13.237-.193.453.119.274a3.472,3.472,0,0,1,2.971-.59c.336.082.26.132.008.127a3.889,3.889,0,0,0-2.813,1.067c-.19.226-.182.389.218.478a3.81,3.81,0,0,0,2.667.2c1.425-.432,2.274-.821,2.98-.653.214.062.4-.133.232-.288a5.01,5.01,0,0,0-3.82-2.293,2.817,2.817,0,0,0-2.562,1.677" transform="translate(-192.212 -41.382)" fill="#7a8096"/></clipPath><clipPath id="c"><path d="M175.839,25.294c-2.685,1.163-4.508,4.312-1.949,6.413.213.182.419.29.3-.065a3.679,3.679,0,0,1,.02-3.167c.151-.329.187-.24.129.018a4.094,4.094,0,0,0,.5,3.1c.19.246.356.27.531-.12a4.031,4.031,0,0,0,.756-2.694c-.142-1.549-.362-2.5-.045-3.188.086-.163,0-.34-.126-.34a.192.192,0,0,0-.116.045" transform="translate(-172.661 -25.249)" fill="#7a8096"/></clipPath><clipPath id="d"><path d="M165.039,83.745c-.3.074-.529.189-.138.312a4.047,4.047,0,0,1,2.814,2.051c.2.346.092.321-.1.1a4.483,4.483,0,0,0-3.084-1.544c-.34.013-.469.145-.233.553a4.421,4.421,0,0,0,1.919,2.4c1.474.867,2.463,1.28,2.873,2,.114.231.424.236.42-.024.608-2.8-.627-6-3.394-6a4.188,4.188,0,0,0-1.078.149" transform="translate(-164.179 -83.596)" fill="#7a8096"/></clipPath><clipPath id="e"><path d="M161.551.433c-3.23,1.068-5.67,4.513-2.928,7.217.228.232.454.38.355-.044a4.275,4.275,0,0,1,.354-3.661c.212-.364.244-.259.149.036a4.746,4.746,0,0,0,.249,3.636c.2.3.385.348.629-.086A4.678,4.678,0,0,0,161.516,4.5c0-1.808-.153-2.931.284-3.693.12-.185.036-.408-.127-.408a.235.235,0,0,0-.122.039" transform="translate(-157.435 -0.394)" fill="#7a8096"/></clipPath><clipPath id="f"><path d="M112.138,65.672a4.148,4.148,0,0,0-1.751,2.291c-.457,1.538-.61,2.532-1.175,3.07-.184.156-.117.441.118.377,3.018-.091,5.965-2.41,4.316-5.4-.136-.256-.291-.438-.314-.051a3.79,3.79,0,0,1-1.227,3.026c-.273.257-.273.158-.118-.067a4.219,4.219,0,0,0,.708-3.159c-.051-.174-.122-.276-.232-.276a.535.535,0,0,0-.325.191" transform="translate(-109.106 -65.481)" fill="#7a8096"/></clipPath><clipPath id="g"><path d="M104.8,61.594c-.1.4.378.5.637.2.9-.965,2.573-1.244,5.164-2.037a7,7,0,0,0,3.839-2.994c.515-.54.365-.79-.153-.938-2.376-.682-4.942.985-5.321,1.25s-.544.262-.116-.2a6.393,6.393,0,0,1,5.09-2.122c.65-.045.34-.3-.093-.531a5.916,5.916,0,0,0-2.814-.771c-3.628,0-6.148,4.051-6.232,8.148" transform="translate(-104.786 -53.446)" fill="#7a8096"/></clipPath><clipPath id="h"><path d="M167.437,4.071c-.274.026-.229.356.026.452.814.352,1.378,1.358,2.479,2.829a4.73,4.73,0,0,0,2.772,1.765c.457.2.581.051.554-.312a4.883,4.883,0,0,0-2.021-3.111c-.254-.183-.293-.289.1-.119a4.362,4.362,0,0,1,2.513,2.76c.182.4.271.147.314-.181.413-2.993-1.914-4.459-4.48-4.459a6.989,6.989,0,0,0-2.254.377" transform="translate(-167.251 -3.694)" fill="#7a8096"/></clipPath><clipPath id="i"><path d="M136.391,72.17a4.9,4.9,0,0,0,2.7,2.545c.29.113.351.209-.066.138a4.37,4.37,0,0,1-3.1-2.085c-.271-.353-.3-.078-.259.251.4,3.884,4.643,4.2,7.508,2.367.262-.092.139-.4-.13-.432-.875-.15-1.661-.993-3.081-2.162a4.716,4.716,0,0,0-3.111-1.056,1.286,1.286,0,0,0-.221-.023c-.3,0-.337.172-.244.458" transform="translate(-135.655 -71.712)" fill="#7a8096"/></clipPath><clipPath id="j"><path d="M177.871,54.009c-.062.752-.72,1.485-1.608,2.776A4.011,4.011,0,0,0,175.6,59.5c-.042.427.116.485.4.362a4.156,4.156,0,0,0,1.96-2.48c.077-.254.153-.315.124.045a3.729,3.729,0,0,1-1.543,2.787c-.277.256-.045.256.232.2,3.271-.625,3.229-4.251,1.459-6.554a.162.162,0,0,0-.146-.11.246.246,0,0,0-.213.254" transform="translate(-175.589 -53.755)" fill="#7a8096"/></clipPath><clipPath id="k"><path d="M102.791,39.635c-.411.29-.051.772.437.689,1.6-.175,3.376.906,6.414,2.239a8.568,8.568,0,0,0,5.952.287c.907-.089.969-.439.607-.99-1.66-2.531-5.37-3.036-5.931-3.092s-.715-.191.053-.277a7.819,7.819,0,0,1,6.412,2.1c.64.477.557-.012.337-.567a6.269,6.269,0,0,0-6.1-4.416,11.626,11.626,0,0,0-8.18,4.029" transform="translate(-102.612 -35.606)" fill="#7a8096"/></clipPath><clipPath id="l"><path d="M154.873,88.631c.267,2.06,2.355,3.4,2.675,3.595s.376.318-.111.16a5.03,5.03,0,0,1-3.254-3.092c-.249-.48-.34-.149-.368.264-.39,4.871,4.637,5.971,8.489,4.177.332-.068.254-.474-.062-.557-1.018-.331-1.773-1.5-3.218-3.183a5.434,5.434,0,0,0-3.5-1.823,1.161,1.161,0,0,0-.356-.072c-.273,0-.34.2-.3.532" transform="translate(-153.795 -88.099)" fill="#7a8096"/></clipPath><clipPath id="m"><path d="M194.307,47.352c-1.355.707-3.291.366-6.428.238a8.1,8.1,0,0,0-5.348,1.8c-.77.391-.705.721-.194,1.082,2.335,1.66,5.782.826,6.3.684s.7-.079.051.262a7.4,7.4,0,0,1-6.38.359c-.728-.2-.488.2-.1.615,4.5,4.944,10.653.949,12.727-4.579.2-.3-.026-.543-.322-.543a.6.6,0,0,0-.3.084" transform="translate(-181.833 -47.268)" fill="#7a8096"/></clipPath><clipPath id="n"><path d="M164.144,24.608a.187.187,0,0,0-.144.21,3.6,3.6,0,0,0,1.516,2.173,4.076,4.076,0,0,0,2.732.389.179.179,0,0,0,.142-.209A3.59,3.59,0,0,0,166.875,25a3.63,3.63,0,0,0-1.87-.475,4.167,4.167,0,0,0-.861.083" transform="translate(-163.997 -24.525)" fill="#7a8096"/></clipPath><clipPath id="o"><path d="M124.507,49.607a4.252,4.252,0,0,0-1.485,2.755,4.819,4.819,0,0,0,1.041,3.091.213.213,0,0,0,.3.036,4.24,4.24,0,0,0,1.484-2.751,4.8,4.8,0,0,0-1.042-3.092.224.224,0,0,0-.171-.081.2.2,0,0,0-.124.042" transform="translate(-123.012 -49.565)" fill="#7a8096"/></clipPath><clipPath id="p"><path d="M151.192,75.758a4.817,4.817,0,0,0-2.069,2.522.216.216,0,0,0,.126.272,4.245,4.245,0,0,0,3.122-.2,4.8,4.8,0,0,0,2.067-2.523.214.214,0,0,0-.122-.27,4.408,4.408,0,0,0-1.367-.21,3.762,3.762,0,0,0-1.757.413" transform="translate(-149.112 -75.345)" fill="#7a8096"/></clipPath><clipPath id="q"><path d="M162.367,74.316a4.82,4.82,0,0,0-3.158,2.151,4.815,4.815,0,0,0,.167,3.82.384.384,0,0,0,.389.2,4.83,4.83,0,0,0,3.159-2.154,4.823,4.823,0,0,0-.166-3.821.384.384,0,0,0-.332-.2.278.278,0,0,0-.059.006" transform="translate(-158.861 -74.31)" fill="#7a8096"/></clipPath><clipPath id="r"><path d="M184.279,77.881a4.589,4.589,0,0,0-2.046,2.455c-.581,1.682-.8,2.774-1.449,3.342-.212.164-.15.48.111.422,3.348.042,6.722-2.383,5.04-5.771-.138-.289-.3-.5-.346-.073a4.2,4.2,0,0,1-1.505,3.291c-.313.271-.307.16-.126-.081A4.691,4.691,0,0,0,184.894,78c-.05-.2-.126-.318-.252-.318a.621.621,0,0,0-.362.2" transform="translate(-180.656 -77.684)" fill="#7a8096"/></clipPath><clipPath id="s"><path d="M189.031,69.874a.324.324,0,0,0-.272.247,4.4,4.4,0,0,0,.642,3.251,3.817,3.817,0,0,0,2.952,1.138.314.314,0,0,0,.269-.247,4.391,4.391,0,0,0-.639-3.251,3.69,3.69,0,0,0-2.788-1.142c-.1,0-.163,0-.163,0" transform="translate(-188.684 -69.87)" fill="#7a8096"/></clipPath><clipPath id="t"><path d="M192,60.361c-2.3.236-3.746,2.621-3.746,2.621a.461.461,0,0,0,.053.517s1.9,2.043,4.2,1.806,3.747-2.619,3.747-2.619a.456.456,0,0,0-.054-.517,5.991,5.991,0,0,0-3.83-1.827c-.122,0-.246.006-.371.018" transform="translate(-188.196 -60.343)" fill="#7a8096"/></clipPath><clipPath id="u"><path d="M111.156,21.431a.459.459,0,0,0-.41.346s-.667,2.873.836,4.789,4.346,1.816,4.346,1.816a.468.468,0,0,0,.411-.35s.664-2.873-.837-4.787a5.718,5.718,0,0,0-4.276-1.815h-.07" transform="translate(-110.599 -21.43)" fill="#7a8096"/></clipPath><clipPath id="v"><path d="M135.426,2.4a4.2,4.2,0,0,0-2.994,1.46,4.2,4.2,0,0,0-.335,3.315.335.335,0,0,0,.312.217,4.2,4.2,0,0,0,3-1.461,4.2,4.2,0,0,0,.332-3.313.331.331,0,0,0-.3-.218h-.011" transform="translate(-131.894 -2.402)" fill="#7a8096"/></clipPath><clipPath id="w"><path d="M105.406,32.409a1.251,1.251,0,1,0,1.251-1.251,1.251,1.251,0,0,0-1.251,1.251" transform="translate(-105.406 -31.158)" fill="#7a8096"/></clipPath><clipPath id="x"><path d="M176.459,90.244a1.251,1.251,0,1,0,1.251-1.252,1.251,1.251,0,0,0-1.251,1.252" transform="translate(-176.459 -88.992)" fill="#7a8096"/></clipPath><clipPath id="y"><path d="M113.3,79.186a1.251,1.251,0,1,0,1.251-1.251,1.252,1.252,0,0,0-1.251,1.251" transform="translate(-113.3 -77.935)" fill="#7a8096"/></clipPath><clipPath id="z"><path d="M183.179,66.281a.99.99,0,1,0,.99-.99.991.991,0,0,0-.99.99" transform="translate(-183.179 -65.291)" fill="#7a8096"/></clipPath><clipPath id="aa"><path d="M102.348,50.125a1.427,1.427,0,1,0,1.426-1.425,1.426,1.426,0,0,0-1.426,1.425" transform="translate(-102.348 -48.7)" fill="#7a8096"/></clipPath><clipPath id="ab"><path d="M172.8,17.135a1.427,1.427,0,1,0,1.426-1.429,1.427,1.427,0,0,0-1.426,1.429" transform="translate(-172.798 -15.706)" fill="#7a8096"/></clipPath><clipPath id="ac"><path d="M146.2,0a.53.53,0,0,0-.367.285c-1.183,2.026-5.645,2.984-7.522,4.571-5.145,4.35-3.342,9.485-3.58,10.525s.018,1.393.576.917a25,25,0,0,0,7.529-9.018c.02-.216.455-1.021.353.048-.352,3.613-5.71,8.92-6.315,9.361s-.36.716.177.448c11.313-3,9.9-13.313,9.582-16.3C146.57.216,146.4.009,146.228,0Z" transform="translate(-134.616)" fill="#7a8096"/></clipPath><clipPath id="ad"><path d="M188.553,24.9c-1.226,1.646-5.2,2.044-6.984,3.243-4.895,3.279-3.826,7.919-4.134,8.8s-.12,1.216.413.853a21.811,21.811,0,0,0,7.419-7.108c.042-.184.5-.843.3.076-.657,3.108-5.829,7.2-6.4,7.527s-.381.586.112.405c10.126-1.507,9.9-10.612,9.914-13.238,0-.589-.144-.771-.307-.771a.477.477,0,0,0-.334.212" transform="translate(-177.286 -24.69)" fill="#7a8096"/></clipPath><clipPath id="ae"><path d="M121.969,66.855a1.726,1.726,0,1,1,1.727,1.724,1.728,1.728,0,0,1-1.727-1.724m1.1-2.685c0,.115,0,.226.009.334-.049-.1-.1-.2-.159-.294-.568-.982-1.271-1.637-1.572-1.463s-.087,1.111.482,2.093c.056.1.116.194.174.285-.092-.06-.186-.119-.286-.175-.982-.567-1.917-.783-2.093-.482s.481,1,1.464,1.571c.1.057.2.109.295.159-.109-.006-.221-.008-.335-.008-1.134,0-2.052.283-2.052.63s.917.63,2.052.63c.114,0,.226,0,.335-.01-.1.05-.2.1-.295.161-.983.567-1.636,1.27-1.464,1.57s1.111.087,2.093-.481c.1-.057.194-.116.286-.174-.059.092-.119.185-.174.284-.57.983-.784,1.92-.482,2.094s1-.48,1.572-1.465c.057-.1.109-.2.159-.293-.005.11-.009.22-.009.332,0,1.138.281,2.055.63,2.056s.63-.918.63-2.056c0-.112,0-.225-.01-.332.05.1.1.2.158.293.568.985,1.271,1.639,1.572,1.465s.087-1.111-.48-2.094c-.057-.1-.116-.193-.175-.285q.136.089.285.175c.982.568,1.919.784,2.091.481s-.48-1-1.463-1.57c-.1-.059-.2-.111-.295-.161.109.007.221.01.335.01,1.135,0,2.054-.283,2.054-.63s-.919-.63-2.054-.63c-.114,0-.226,0-.332.008.095-.05.193-.1.292-.159.982-.567,1.638-1.271,1.463-1.571s-1.109-.085-2.091.482c-.1.056-.194.116-.285.174.06-.091.117-.186.175-.284.567-.982.783-1.92.48-2.093s-1,.482-1.572,1.463c-.056.1-.109.2-.158.294,0-.112.01-.219.01-.334,0-1.134-.282-2.053-.63-2.053s-.63.919-.63,2.053" transform="translate(-118.993 -62.117)" fill="#7a8096"/></clipPath><clipPath id="af"><path d="M172.469,72.553a1.491,1.491,0,1,1,.6.127,1.492,1.492,0,0,1-.6-.127m-.084-4.335a2.565,2.565,0,0,0-2.592-1.289c-.382.254-.268.433-.5.647s-.4.077-.694.428a2.336,2.336,0,0,0,1.372,2.971,2.615,2.615,0,0,0-1.622,2.765c.257.381.436.265.648.5s.078.4.428.694a2.166,2.166,0,0,0,2.39-.537,2.487,2.487,0,0,0,1.464,2.14c.458-.008.46-.219.773-.271a.686.686,0,0,1,.313.029.782.782,0,0,0,.5-.009,2.288,2.288,0,0,0,.647-2.918,2.61,2.61,0,0,0,3.013-.979c.066-.455-.144-.49-.144-.8s.21-.351.149-.8a2.275,2.275,0,0,0-2.691-1.124,2.578,2.578,0,0,0,.144-2.957.782.782,0,0,0-.486-.136.659.659,0,0,1-.309-.054c-.29-.127-.236-.331-.68-.452a.531.531,0,0,0-.142-.018,2.4,2.4,0,0,0-1.983,2.181" transform="translate(-168.275 -66.037)" fill="#7a8096"/></clipPath><clipPath id="ag"><path d="M121.786,78.6c-.694.271-.938,1.3-.546,2.3l.009.022,0,.007,0,.006,0,.008v0l0,0,0,0,0,.007.012.026V81l0,0,.014.034,0,.008h0l0,0,0,.007.006.012,0,.009,0,0,0,.01,0,0,0,0,0,.006.008.019,0,.006,0,.007,0,0,0,.008.007.014,0,.006,0,.005.007.013,0,0,0,.009,0,.007,0,.007,0,.007,0,0,.006.006v.007l0,.006,0,.007,0,.007.01.018,0,.007,0,0,0,.006,0,.007,0,.007,0,0,0,.006,0,.007h-.006l-.008,0h-.007l-.006,0h-.007l-.007,0h-.063l-.007,0h-.015l-.006,0h-.058l-.014,0h-.014l-.035,0h-.059l-.037,0h-.028l-.023,0h-.015l-.043,0c-1.072.064-1.907.716-1.862,1.458s.95,1.3,2.022,1.232h.009l.007,0h.043l.029,0h.012l0,0h.024l.007,0h.021l.008,0,.006,0h.015l.007,0h.022l.013,0h.016l.007,0h.013l.009,0,.012,0,.007,0h.007l.008,0h.013l.006,0h.015l.013,0h0l.007,0h.007l.006,0,.006,0h.022l.006,0,.008,0,.007,0h0l.022,0,.007-.006a2.674,2.674,0,0,0-.153.437c-.271,1.039.093,2.032.813,2.224s1.526-.506,1.8-1.545a2.817,2.817,0,0,0,.079-.451l0,0,.007,0,.009.01.007.006,0,0,0,.007.007,0,.015.013.005,0,0,.006.006,0,.005,0,.011.009,0,0,.006.007.006,0,0,0,.006.006.011.01.007,0,0,0,.007,0,.005,0,.006,0,.006,0,0,0,.006.006.006,0,.006.006.012.008,0,0,0,0,0,.006.007,0,.011.007.005.007.006,0,0,0,0,0h0l.026.02.008,0v0l.006,0,0,0,.025.016.007,0,.007,0,.037.026c.9.578,1.965.542,2.365-.087s-.007-1.606-.912-2.185l-.038-.023,0,0-.039-.024,0,0,0,0-.039-.02,0,0,0,0-.007,0-.018-.012-.006,0-.006,0h0l0,0-.007,0-.007,0-.011-.008-.008,0-.012-.007-.006-.006-.007,0h0l-.009-.006,0,0-.006,0h0l0-.006-.007,0-.007,0,0,0-.007,0-.007,0h0l-.007,0-.006-.006-.007,0,0,0-.008,0-.02-.007-.006,0-.007,0-.006,0,0,0-.013,0-.007,0-.007,0,.007,0,.012-.007.007,0,.005,0h.006l.006-.006.005,0h0l.01-.006.006,0,.007,0,.007,0,0-.007.007,0,.006,0,0,0h0l.007-.006.005,0,0,0,.007,0,.008,0,.01-.009h.007l0-.007.007,0,.006,0,.005,0,.006-.006.006,0,.006,0,.018-.012.006,0,0,0h0l.006,0,.006,0,.018-.013.006,0,0,0h0l.03-.024.006,0h0l0,0,.028-.021.007,0,.04-.03c.83-.684,1.12-1.7.648-2.279s-1.529-.49-2.359.193l-.027.024-.006,0-.007,0h0l-.033.029,0,0v0l-.005,0-.016.015-.005.006-.006,0v0l0,0,0,.006-.007,0,0,.007-.007,0,0,.006-.006,0h0l0,0-.006,0-.005.007-.009.01-.006,0-.009.01-.007,0,0,0,0,.007,0,0,0,.006-.009.012-.006,0-.006.006,0,0-.006.007-.006,0-.009.009v0l-.005,0,0,.007,0,.005-.006,0,0,0-.006.007,0,.006,0,0-.005,0-.006,0,0,.006-.009.01-.005.006,0,0v-.014l0,0v-.006l0-.006,0-.012v-.007l0-.008v-.01h0v-.015l-.006-.015v-.012h0v-.006l-.01-.033,0-.007V80.2l-.012-.042h0l-.014-.047-.013-.042V80.06l-.014-.042h0v0l0-.006-.013-.034,0-.007h0l-.017-.047a1.97,1.97,0,0,0-1.612-1.386.973.973,0,0,0-.353.065" transform="translate(-119.118 -78.534)" fill="#7a8096"/></clipPath><clipPath id="ah"><path d="M126.758,31.315l-.005.02v.008l-.006.025v0h0v0l0,.015v.02l0,0v.025l0,.012h0l0,.009v.023l0,.007V31.5h0v0l0,.008h0v.019h0v.016l0,.006v.02l0,0,0,0h0l0,0h0l-.007,0,0,0h0l0-.006h-.006l0,0-.005,0,0-.006,0,0h0l-.018-.013,0,0,0,0-.019-.014h0l-.024-.017-.021-.015,0,0h0l-.02-.015h0l-.018-.012,0,0-.025-.014a1.014,1.014,0,0,0-1.383.087c-.225.373.03.939.568,1.263l.012.006h0l0,0h0l0,0h0l0,0,0,0,.014.009h.005l.019.01,0,0,0,0h0l.009,0,0,0,0,0h0l0,0,0,0,.011,0,.006,0,0,0,0,0h0l.007,0,0,0,0,0,.007,0,0,0h.006l0,0,0,0h0l0,0,0,0h0l0,0h.009l.011.007h.007l0,0,0,0h0l0,0h0l0,0,0,0h0v0h0l0,0,0,0,0,0h0l0,.005,0,0h0l0,0,0,0,0,0,0,0h0l0,0,0,0h0l0,0,0,0-.007.007,0,0,0,0h0l0,0,0,0,0,0,0,0-.008,0,0,0,0,0-.016.011,0,0,0,0-.018.013h0v0l-.016.015,0,0h0l0,0,0,0-.009.01,0,0h0l-.018.017c-.476.413-.63,1.013-.344,1.343s.9.261,1.377-.151h0l0,0,.012-.012,0,0,0,0,.013-.01,0,0h0v0l.01-.009,0,0,0,0,0,0h0l0,0v0l0,0,0,0,0,0,0,0,.005-.007h0l.005-.006,0-.006,0,0,0,0,0,0,0,0,0,0,.006-.007h0l0-.006,0,0,0,0,0,0h0l0,0,0,0,.006-.007,0,0,0,0v0l0,0,0,0v0h0l0,0,0,0h0l0-.006v0l.008-.009,0,0a1.746,1.746,0,0,0,.084.255c.246.578.77.912,1.171.742s.527-.778.282-1.358a1.588,1.588,0,0,0-.124-.238h.009l.006,0h.013l0,0h.059l.009,0h.05l0,0v0l0,0h.059l.018,0h.006l0,0h.027c.625-.053,1.1-.449,1.065-.884s-.575-.742-1.2-.688l-.026,0h0l-.026,0h0l-.025,0h-.009l-.013,0h0l0,0h-.013l-.009,0h-.012l0,0h-.007l-.006,0h-.019l-.005,0h-.011l0,0h-.007l-.005,0h0l-.012,0h0l0,0h-.007l-.008,0h-.009l0,0,0-.006v-.006l0,0h0V31.9l0,0,0-.009v0l0,0v0h0v-.007l0,0h0l0,0,0,0v0h0v0l0-.006,0-.008,0,0v0l0,0,0,0V31.81l0,0v0l.006-.013v-.008h0v-.009l0-.012,0,0v0h0l.006-.024,0,0v0l0-.02V31.7l.009-.029c.141-.612-.089-1.187-.511-1.287a.547.547,0,0,0-.125-.014c-.388,0-.774.392-.9.946" transform="translate(-125.035 -30.369)" fill="#7a8096"/></clipPath><clipPath id="ai"><path d="M154.242,17.7c-.372.23-.406.847-.078,1.384l.013.018,0,0v0l.014.02,0,0h0l0,0,.006.01,0,0,0,0h0v0l0,0,0,0,0,0,0,0v0h0l0,0v0l0,.006,0,0,.006.008,0,0,.005.007,0,.006,0,0,0,0,0,0,0,0,0,.009,0,0v0h.005v.006h0l.006.009h0v0l0,0,0,0,0,0v0l0,0,0,0,0,0,0,0,0,0,.007.007,0,0h0l0,0h-.024l0,0,0,0,0,0h-.029l-.021,0h-.007l-.024.006h0l-.027,0-.026,0h0v0l-.025,0h-.006l-.021,0,0,0-.031.007c-.61.145-1.023.609-.921,1.035s.68.645,1.292.5l.012,0h0l0,0h.016l.016-.007h0l.023-.007h.007l0,0,.007,0h.018l0,0,.011,0,0,0h0l0,0h0l.009,0h.008l.007,0h0l0,0,0,0h0l0,0h0l0,0h0l0,0h0l0,0,.013,0,0,0,0,0h.007l0,0h0l0,0,0,0v.034l0,0,0,0v.006l0,0v.01l0,0v.013l0,.008v0l0,.006V20.9l0,.01v0h0v0l0,.021h0l0,.007v.021l0,0v0l0,.021v.039l0,.026c-.049.625.264,1.162.7,1.195s.826-.446.875-1.072v-.061h0v-.048h0v-.1h0v-.061a2.019,2.019,0,0,0,.237.124c.581.237,1.188.106,1.355-.3s-.171-.923-.752-1.164a1.433,1.433,0,0,0-.256-.082l0,0,0,0,.006,0,0,0h0l0,0,0,0,.009-.009,0,0,0,0,0,0,0,0,0,0,0-.006h0l0,0,0,0,0,0,.006-.007h0l0,0,0-.006,0,0,0,0,0,0,0,0h0l0,0,0,0,0,0,0,0h0v0l0,0,.006-.006,0,0h0v-.006h0l.015-.015h0v0l0,0,.01-.014,0,0,0,0,.018-.018c.408-.48.469-1.1.138-1.378s-.931-.124-1.339.355l-.017.018v0l-.019.022h0l-.015.02v0h0l0,0-.007.009,0,0v0h0l0,0,0,0,0,0,0,.006,0,0,0,.009v0l0,0,0,0,0,0v0l0,0h0l0,0,0,0,0,0,0,0h0l0,.007,0,0,0,0v0l0,0,0,0,0,0-.007.01v0l0,0,0,0,0,0,0,.009,0,0,0,0,0,0,0-.008v0l0,0h0l0,0v0l0-.009v0l0,0,0,0,0,0v-.009h0v0l0,0,0,0,0,0v0l0,0,0-.008v0l0,0,0-.007,0,0v0l0,0,0,0v0l0-.012,0,0,0,0h0l0,0v0l-.007-.013h0l0,0v0l-.01-.018,0-.005h0v0l-.01-.02,0,0v0l-.015-.025a1.224,1.224,0,0,0-.957-.641.593.593,0,0,0-.311.084" transform="translate(-153.121 -17.612)" fill="#7a8096"/></clipPath><clipPath id="aj"><path d="M163.861,13.212c0,.015-.006.031-.009.045-.007-.012-.016-.024-.025-.038-.584-.875-1.286-1.43-1.567-1.243s-.038,1.049.546,1.925c.009.012.019.026.026.037a.274.274,0,0,1-.044-.011c-1.032-.2-1.921-.1-1.987.23s.715.769,1.748.974c.015,0,.029.006.045.007l-.037.026c-.876.585-1.433,1.287-1.243,1.568s1.049.037,1.924-.549c.012-.006.024-.017.037-.024,0,.014-.006.029-.009.043-.205,1.031-.1,1.923.23,1.99s.768-.719.972-1.749c0-.015.007-.031.01-.043.007.011.016.023.025.036.584.873,1.285,1.43,1.567,1.243s.037-1.049-.548-1.925l-.026-.037a.391.391,0,0,0,.045.01c1.031.2,1.921.1,1.986-.231s-.716-.767-1.746-.971a.176.176,0,0,0-.044-.009l.038-.025c.875-.587,1.43-1.286,1.241-1.569s-1.048-.037-1.924.548l-.037.026c0-.015.006-.028.01-.043.206-1.032.1-1.924-.231-1.99a.167.167,0,0,0-.039,0c-.325,0-.737.762-.933,1.754" transform="translate(-160.798 -11.458)" fill="#7a8096"/></clipPath><clipPath id="ak"><path d="M181.066,13.092a1.67,1.67,0,0,0-.328,2.153,4.727,4.727,0,0,0,2.027,1.535c.094.112.253.13.265-.125s1.088-1.57.5-2.718a2.471,2.471,0,0,0-1.927-1.278.474.474,0,0,0-.138-.028c-.138,0-.169.136-.4.461" transform="translate(-180.455 -12.631)" fill="#7a8096"/></clipPath><clipPath id="al"><path d="M184.084,20.57c-.011.259-1.086,1.568-.5,2.716a2.464,2.464,0,0,0,1.925,1.279c.274.086.245-.02.542-.432a1.668,1.668,0,0,0,.326-2.154,4.727,4.727,0,0,0-2.027-1.532.188.188,0,0,0-.138-.083c-.063,0-.119.057-.127.2" transform="translate(-183.408 -20.366)" fill="#7a8096"/></clipPath><clipPath id="am"><path d="M186.613,16.1a4.724,4.724,0,0,0-1.532,2.029c-.117.093-.133.251.125.265s1.566,1.087,2.713.5a2.46,2.46,0,0,0,1.28-1.925c.089-.274-.02-.245-.431-.542a2.245,2.245,0,0,0-1.3-.612,1.54,1.54,0,0,0-.853.284" transform="translate(-184.999 -15.819)" fill="#7a8096"/></clipPath><clipPath id="an"><path d="M178.573,18.946a2.478,2.478,0,0,0-1.281,1.927c-.087.274.021.244.432.54a1.668,1.668,0,0,0,2.155.328,4.7,4.7,0,0,0,1.534-2.027c.116-.094.133-.249-.125-.264a5.807,5.807,0,0,0-1.974-.675,1.627,1.627,0,0,0-.741.172" transform="translate(-177.264 -18.774)" fill="#7a8096"/></clipPath><clipPath id="ao"><path d="M183.822,19.132a.558.558,0,1,0,.351-.124.559.559,0,0,0-.351.124" transform="translate(-183.612 -19.008)" fill="#7a8096"/></clipPath><clipPath id="ap"><path d="M135.769,81.639c-.309.663-1.119,1.868.119,3.138a6.788,6.788,0,0,0,3.288,1.625c.162.139.393.119.343-.247s1.115-2.518-.022-3.986a3.586,3.586,0,0,0-3.078-1.293,1.014,1.014,0,0,0-.12-.008c-.281,0-.256.182-.529.77" transform="translate(-135.223 -80.869)" fill="#7a8096"/></clipPath><clipPath id="aq"><path d="M142.132,91.457c.053.37-1.114,2.521.025,3.986a3.558,3.558,0,0,0,3.076,1.291c.411.048.342-.094.65-.759s1.12-1.867-.12-3.142a6.845,6.845,0,0,0-3.29-1.624.3.3,0,0,0-.184-.079c-.106,0-.188.092-.158.326" transform="translate(-141.656 -91.131)" fill="#7a8096"/></clipPath><clipPath id="ar"><path d="M144.584,84.134a6.842,6.842,0,0,0-1.62,3.293c-.139.16-.121.391.248.339a4.621,4.621,0,0,1,.918.238,3.4,3.4,0,0,0,3.063-.263,3.547,3.547,0,0,0,1.293-3.075c.05-.41-.1-.342-.759-.651a3.909,3.909,0,0,0-1.665-.546,2.078,2.078,0,0,0-1.479.665" transform="translate(-142.884 -83.469)" fill="#7a8096"/></clipPath><clipPath id="as"><path d="M133.923,90.407a3.558,3.558,0,0,0-1.292,3.075c-.048.412.1.343.759.647s1.869,1.122,3.143-.117a6.814,6.814,0,0,0,1.623-3.288c.138-.161.121-.392-.247-.342a4.505,4.505,0,0,1-.923-.236,5.514,5.514,0,0,0-1.476-.238,2.519,2.519,0,0,0-1.587.5" transform="translate(-132.622 -89.907)" fill="#7a8096"/></clipPath><clipPath id="at"><path d="M141.118,89.527a.8.8,0,1,0,.614-.287.8.8,0,0,0-.614.287" transform="translate(-140.924 -89.24)" fill="#7a8096"/></clipPath><clipPath id="au"><rect width="36.664" height="11.659" fill="#fff"/></clipPath></defs><g transform="translate(15089 10958)"><g transform="translate(-15089 -10958)"><path d="M18.954,121.754v.037a.444.444,0,0,1-.5.5H11.995A12.153,12.153,0,0,0,18.6,132.37a.425.425,0,0,1,.186.687l-.112.167a.492.492,0,0,1-.686.185,13.852,13.852,0,0,1-6.9-7.349,13.965,13.965,0,0,1-7.015,7.368.5.5,0,0,1-.686-.2l-.111-.167a.425.425,0,0,1,.185-.687,12.155,12.155,0,0,0,6.607-10.076H3.606a.444.444,0,0,1-.5-.5v-.037a.443.443,0,0,1,.5-.5h6.477v-3.21a.443.443,0,0,1,.5-.5h.891a.443.443,0,0,1,.5.5v3.21h6.477a.443.443,0,0,1,.5.5" transform="translate(-1.208 -45.535)" fill="#7a8096"/><path d="M46.744,117.543c.018.445.018.983.037,1.6h3.49a.443.443,0,0,1,.5.5.437.437,0,0,1-.5.482H46.818a54.972,54.972,0,0,0,.575,6.2,18.034,18.034,0,0,0,1.263-3.675.434.434,0,0,1,.63-.333l.65.222a.476.476,0,0,1,.334.631,18.767,18.767,0,0,1-2.394,5.53c.372,1.5.91,2.952,1.206,2.952.408-.075.538-.891.612-2.375.019-.37.223-.54.557-.465l.334.076a.51.51,0,0,1,.408.594c-.222,2.615-.65,3.84-1.745,3.84a2.059,2.059,0,0,1-1.484-.742,6.368,6.368,0,0,1-1.151-2.079,17.5,17.5,0,0,1-3.266,2.691.48.48,0,0,1-.687-.092l-.185-.2a.428.428,0,0,1,.092-.705,13.674,13.674,0,0,0,3.508-3.433,42.4,42.4,0,0,1-1.021-8.63H40.991v2.413h3.471a.456.456,0,0,1,.5.52,38.374,38.374,0,0,1-.26,5.716,1.158,1.158,0,0,1-.927.947,3.466,3.466,0,0,1-.761.056c-.261,0-.817-.056-1.429-.094a.488.488,0,0,1-.52-.482c-.018-.333.167-.5.52-.465a7.964,7.964,0,0,0,.891.056c.3,0,.5-.149.631-.779.074-.408.111-1.968.111-4.548H40.991v.781a18.9,18.9,0,0,1-1.744,8.87.425.425,0,0,1-.687.167l-.483-.3a.492.492,0,0,1-.186-.687,10.753,10.753,0,0,0,.78-2.19c-1.373.612-2.821,1.207-4.362,1.727a.425.425,0,0,1-.612-.371v-.056a.478.478,0,0,1,.372-.595l1.559-.556v-7.572H34.142a.443.443,0,0,1-.5-.5.437.437,0,0,1,.5-.482h1.485v-3.6a.443.443,0,0,1,.5-.5h.762a.442.442,0,0,1,.5.5v3.6h1.1a.443.443,0,0,1,.5.5.437.437,0,0,1-.5.482h-1.1V129.5c.427-.186.91-.409,1.56-.668a37.794,37.794,0,0,0,.371-5.513V119.64a.443.443,0,0,1,.5-.5h5.2c0-.631,0-1.167-.019-1.6a.451.451,0,0,1,.5-.5h.743a.443.443,0,0,1,.5.5m1.355-.668c.52.316,1,.6,1.428.873a.449.449,0,0,1,.149.686l-.111.166a.432.432,0,0,1-.7.13c-.464-.315-.983-.612-1.411-.853a.426.426,0,0,1-.148-.687l.092-.149a.47.47,0,0,1,.706-.167" transform="translate(-13.078 -45.239)" fill="#7a8096"/><path d="M82.03,119.388v.168a1.271,1.271,0,0,1-.148.631,12.43,12.43,0,0,1-1.522,2.19.448.448,0,0,1-.705.075l-.389-.3a.428.428,0,0,1-.093-.686,13.321,13.321,0,0,0,1.058-1.6H75.46v3.47h4.324a.443.443,0,0,1,.5.5v.149a1.224,1.224,0,0,1-.13.614,15.574,15.574,0,0,1-4.064,5.326,18.734,18.734,0,0,0,5.66,2.394.435.435,0,0,1,.353.612.464.464,0,0,1-.612.37,21.378,21.378,0,0,1-6.459-2.579,18.418,18.418,0,0,1-6.105,2.579.465.465,0,0,1-.612-.351v-.037a.436.436,0,0,1,.334-.612A17.338,17.338,0,0,0,73.9,129.93,14.417,14.417,0,0,1,70.486,126a.428.428,0,0,1,.223-.668l.613-.259a.468.468,0,0,1,.668.241,12.264,12.264,0,0,0,2.987,3.768,15.234,15.234,0,0,0,3.49-4.788H69.058v.222a18.163,18.163,0,0,1-1.818,8.665c-.167.316-.446.334-.705.075l-.557-.594a.56.56,0,0,1-.111-.685,19.948,19.948,0,0,0,1.355-8.335v-4.249a.442.442,0,0,1,.5-.5h5.865v-1.3a.443.443,0,0,1,.5-.5h.872a.443.443,0,0,1,.5.5v1.3h6.069a.442.442,0,0,1,.5.5m-8.444.483H69.058v3.47h4.529Z" transform="translate(-25.58 -45.359)" fill="#7a8096"/><path d="M114.253,121.121a18.872,18.872,0,0,1-10.448,12.8c-.334.168-.594.075-.7-.2-.131-.3-.038-.519.278-.705,4.51-2.69,6.867-6.533,8.443-11.709H101.708a.485.485,0,0,1-.557-.5c0-.317.167-.5.538-.5H113.64a.582.582,0,0,1,.612.818" transform="translate(-39.324 -46.608)" fill="#7a8096"/><path d="M129.956,119.584a.457.457,0,0,1-.556-.464c-.019-.26.13-.426.463-.463a35.939,35.939,0,0,0,5.66-.983.447.447,0,0,1,.613.314.433.433,0,0,1-.371.576c-.743.2-1.54.389-2.394.538v3.248h2a.443.443,0,0,1,.5.5c0,.3-.167.445-.5.445H133.76c.817,1.541,1.522,2.859,2,3.731a.477.477,0,0,1-.168.687l-.445.3a.411.411,0,0,1-.668-.2c-.37-.816-.761-1.559-1.113-2.357v7.923a.445.445,0,0,1-.5.5h-.538a.444.444,0,0,1-.5-.5v-6.234a25.784,25.784,0,0,1-1.67,3.266c-.2.334-.482.334-.686.018l-.353-.52a.583.583,0,0,1-.018-.686,24.081,24.081,0,0,0,2.543-5.922H129.7a.442.442,0,0,1-.5-.5q0-.447.5-.446h2.06v-2.97c-.465.055-1.059.149-1.8.2m16.313,8.612v.019a.489.489,0,0,1-.427.555l-1.41.241v4.361a.444.444,0,0,1-.5.5h-.855a.444.444,0,0,1-.5-.5v-4.025l-7.331,1.242a.432.432,0,0,1-.557-.426v-.037a.457.457,0,0,1,.427-.556l7.461-1.263V118.045a.442.442,0,0,1,.5-.5h.855a.442.442,0,0,1,.5.5v9.928l1.262-.2a.441.441,0,0,1,.576.427m-8.779-5.178c1.17,1.113,2.172,2.116,3.045,3.081a.457.457,0,0,1-.019.707l-.408.408a.426.426,0,0,1-.705-.037c-.965-1.115-1.93-2.154-2.932-3.1a.443.443,0,0,1-.018-.7l.315-.334a.464.464,0,0,1,.723-.018m1.616-4.232c1.094,1.04,1.986,2.023,2.784,2.877a.456.456,0,0,1-.019.705l-.389.372a.427.427,0,0,1-.706-.038,33.611,33.611,0,0,0-2.691-2.859.452.452,0,0,1-.018-.724l.315-.316a.477.477,0,0,1,.724-.018" transform="translate(-50.15 -45.536)" fill="#7a8096"/><path d="M177.029,121.466c-2.524,5.773-5.419,9.169-11.544,11.841a.494.494,0,1,1-.463-.872c5.067-2.654,7.553-5.922,9.483-11.117h-5.512a14.63,14.63,0,0,1-4.919,4.974c-.631.37-1.095-.372-.612-.78a17.964,17.964,0,0,0,5.1-7.293.5.5,0,0,1,.724-.315l.892.37a.482.482,0,0,1,.277.741,14.4,14.4,0,0,1-.834,1.394l6.514.017c.631-.036,1.15.446.891,1.038" transform="translate(-63.47 -45.655)" fill="#7a8096"/><path d="M195.958,119.046h.8a.5.5,0,0,1,.557.556v7.349a.5.5,0,0,1-.557.557h-.8a.508.508,0,0,1-.557-.557V119.6a.507.507,0,0,1,.557-.556m1.559,14.753c-.352.112-.575.018-.667-.241-.093-.279.037-.482.371-.631,4.213-1.727,5.845-4.7,5.845-9.354V119.1a.5.5,0,0,1,.557-.556h.928a.491.491,0,0,1,.556.556v4.472c0,4.993-2.394,8.519-7.59,10.225" transform="translate(-75.965 -45.925)" fill="#7a8096"/><path d="M220.847,131.486H234.84a.5.5,0,0,1,.557.556v.075a.5.5,0,0,1-.557.556H220.847a.507.507,0,0,1-.557-.556v-.075a.5.5,0,0,1,.557-.556m1.689-8.964h10.617a.492.492,0,0,1,.556.557v.074a.5.5,0,0,1-.556.556H222.536a.5.5,0,0,1-.556-.556v-.074a.5.5,0,0,1,.556-.557" transform="translate(-85.641 -47.47)" fill="#7a8096"/><path d="M254.266,129.66a18.071,18.071,0,0,0-1.3-3.175c-.335-.649.557-1,.965-.538a16.462,16.462,0,0,1,2.06,3.024c.2.335.111.54-.242.67l-.873.333c-.315.13-.519.018-.612-.315m10.356-3.787c-1.466,4.733-3.488,7.906-8.258,10.263a.514.514,0,0,1-.724-.149c-.167-.259-.056-.482.26-.667,4.119-2.358,5.512-5.234,6.829-10.058a.481.481,0,0,1,.686-.371l.853.278a.5.5,0,0,1,.353.7m-6.681,2.414a18.112,18.112,0,0,0-1.317-3.341c-.334-.65.611-1.04,1-.558a17.623,17.623,0,0,1,2.1,3.268c.167.333.074.538-.26.649l-.891.315a.43.43,0,0,1-.631-.333" transform="translate(-98.316 -48.112)" fill="#7a8096"/><path d="M294.8,121.466c-2.524,5.773-5.419,9.169-11.543,11.841a.494.494,0,1,1-.465-.872c5.066-2.654,7.554-5.922,9.484-11.117h-5.512a14.624,14.624,0,0,1-4.917,4.974c-.632.37-1.1-.372-.613-.78a17.987,17.987,0,0,0,5.1-7.293.5.5,0,0,1,.724-.315l.891.37a.483.483,0,0,1,.278.741,14.536,14.536,0,0,1-.836,1.394l6.515.017c.631-.036,1.151.446.891,1.038" transform="translate(-109.257 -45.655)" fill="#7a8096"/><path d="M4.041,164.065a2.346,2.346,0,0,1,1.076.239,2.256,2.256,0,0,1,.82.747,2.089,2.089,0,0,1,.352,1.219,2.45,2.45,0,0,1-.437,1.411,2.773,2.773,0,0,1-1.019.936,2.656,2.656,0,0,1-1.22.3,2.131,2.131,0,0,1-1.552-.63,2.106,2.106,0,0,1-.638-1.561,2.541,2.541,0,0,1,.8-1.867,2.518,2.518,0,0,1,1.82-.791m-.454.337a1.461,1.461,0,0,0-1.111.471,1.743,1.743,0,0,0-.44,1.241,2.455,2.455,0,0,0,.661,1.8,2,2,0,0,0,1.449.671,1.445,1.445,0,0,0,1.079-.471,1.684,1.684,0,0,0,.451-1.211,2.9,2.9,0,0,0-.3-1.3,2.064,2.064,0,0,0-.82-.905,1.958,1.958,0,0,0-.968-.3" transform="translate(-0.553 -63.621)" fill="#7a8096"/><path d="M22.142,166.092a1.162,1.162,0,0,1-.253-.342.881.881,0,0,1-.086-.381,1.153,1.153,0,0,1,.48-.912,1.724,1.724,0,0,1,1.123-.392,2.831,2.831,0,0,1,.862.184v1.136H24a1.256,1.256,0,0,0-.291-.774.817.817,0,0,0-.641-.3.712.712,0,0,0-.511.191.623.623,0,0,0-.2.477.8.8,0,0,0,.2.52,4.983,4.983,0,0,0,.95.749,4.024,4.024,0,0,1,.77.616.905.905,0,0,1,.2.589,1.309,1.309,0,0,1-.524,1.014,1.791,1.791,0,0,1-1.189.445,3.05,3.05,0,0,1-1.068-.226v-1.309h.257a1.356,1.356,0,0,0,.32.921.973.973,0,0,0,.759.37.853.853,0,0,0,.638-.236.815.815,0,0,0,.233-.6.861.861,0,0,0-.193-.556,4.5,4.5,0,0,0-.877-.689c-.25-.164-.48-.331-.691-.5" transform="translate(-8.434 -63.621)" fill="#7a8096"/><path d="M38.225,164.237H40v.175a.616.616,0,0,0-.439.127.669.669,0,0,0-.111.446v1.242h2.211v-1.242a.605.605,0,0,0-.125-.458.673.673,0,0,0-.427-.114v-.175H42.88v.175a.616.616,0,0,0-.439.127.665.665,0,0,0-.112.446v3.142a.616.616,0,0,0,.125.462.677.677,0,0,0,.426.112v.174H41.108V168.7a.622.622,0,0,0,.435-.123.659.659,0,0,0,.116-.451v-1.675H39.448v1.675A.5.5,0,0,0,40,168.7v.174H38.225V168.7a.624.624,0,0,0,.438-.123.666.666,0,0,0,.114-.451v-3.142a.6.6,0,0,0-.125-.458.67.67,0,0,0-.427-.114Z" transform="translate(-14.86 -63.688)" fill="#7a8096"/><path d="M59.718,164.412a.626.626,0,0,0-.438.124.665.665,0,0,0-.112.449v3.142a.506.506,0,0,0,.55.573v.174H57.945V168.7a.618.618,0,0,0,.439-.123.672.672,0,0,0,.112-.45v-3.142a.611.611,0,0,0-.123-.458.666.666,0,0,0-.428-.114v-.175h1.773Z" transform="translate(-22.527 -63.688)" fill="#7a8096"/><path d="M72.814,164.237H75.12a1.248,1.248,0,0,1,.771.2.717.717,0,0,1,.255.6,1.366,1.366,0,0,1-.288.833,2.779,2.779,0,0,1-.866.715l.809,1.251q.545.841,1,.867v.174h-.87a.569.569,0,0,1-.464-.312l-1.436-2.232v1.8a.509.509,0,0,0,.558.573v.174h-1.78V168.7a.617.617,0,0,0,.438-.123.667.667,0,0,0,.113-.451v-3.142a.616.616,0,0,0-.123-.458.667.667,0,0,0-.428-.114Zm1.222.355V166.1a1.319,1.319,0,0,0,.729.308.555.555,0,0,0,.478-.215,1.074,1.074,0,0,0,.16-.644,1.342,1.342,0,0,0-.235-.829.7.7,0,0,0-.574-.309.967.967,0,0,0-.558.18" transform="translate(-28.307 -63.688)" fill="#7a8096"/><path d="M93.426,164.065a2.344,2.344,0,0,1,1.076.239,2.245,2.245,0,0,1,.819.747,2.085,2.085,0,0,1,.353,1.219,2.441,2.441,0,0,1-.437,1.411,2.768,2.768,0,0,1-1.019.936,2.655,2.655,0,0,1-1.219.3,2.131,2.131,0,0,1-1.552-.63,2.106,2.106,0,0,1-.638-1.561,2.716,2.716,0,0,1,2.617-2.658m-.454.337a1.462,1.462,0,0,0-1.111.471,1.743,1.743,0,0,0-.441,1.241,2.458,2.458,0,0,0,.662,1.8,2.006,2.006,0,0,0,1.449.671,1.443,1.443,0,0,0,1.079-.471,1.682,1.682,0,0,0,.451-1.211,2.9,2.9,0,0,0-.3-1.3,2.071,2.071,0,0,0-.82-.905,1.962,1.962,0,0,0-.969-.3" transform="translate(-35.303 -63.621)" fill="#7a8096"/><path d="M125.862,166.092a1.158,1.158,0,0,1-.252-.342.882.882,0,0,1-.087-.381,1.153,1.153,0,0,1,.481-.912,1.723,1.723,0,0,1,1.123-.392,2.831,2.831,0,0,1,.862.184v1.136h-.265a1.252,1.252,0,0,0-.29-.774.819.819,0,0,0-.642-.3.714.714,0,0,0-.512.191.627.627,0,0,0-.2.477.8.8,0,0,0,.2.52,4.983,4.983,0,0,0,.95.749,4,4,0,0,1,.77.616.9.9,0,0,1,.2.589,1.307,1.307,0,0,1-.524,1.014,1.791,1.791,0,0,1-1.189.445,3.042,3.042,0,0,1-1.067-.226v-1.309h.257a1.358,1.358,0,0,0,.319.921.975.975,0,0,0,.76.37.85.85,0,0,0,.638-.236.813.813,0,0,0,.235-.6.862.862,0,0,0-.193-.556,4.538,4.538,0,0,0-.877-.689c-.25-.164-.48-.331-.692-.5" transform="translate(-48.757 -63.621)" fill="#7a8096"/><path d="M141.933,164.237h1.773v.175a.633.633,0,0,0-.438.122.664.664,0,0,0-.113.45v1.468l.9-.878a3.436,3.436,0,0,0,.4-.48.836.836,0,0,0,.19-.441q0-.231-.373-.242v-.175h1.666v.175a1.83,1.83,0,0,0-1.008.574l-1.175,1.138,1.273,1.7q.653.877,1.121.877v.174h-1.171l-1.823-2.448v1.7a.506.506,0,0,0,.551.573v.174h-1.773V168.7a.618.618,0,0,0,.438-.123.668.668,0,0,0,.112-.451v-3.142a.613.613,0,0,0-.123-.46.67.67,0,0,0-.427-.113Z" transform="translate(-55.178 -63.688)" fill="#7a8096"/><path d="M162.175,164.412a.625.625,0,0,0-.438.124.661.661,0,0,0-.112.449v3.142a.506.506,0,0,0,.551.573v.174H160.4V168.7a.614.614,0,0,0,.438-.123.666.666,0,0,0,.112-.45v-3.142a.611.611,0,0,0-.123-.458.667.667,0,0,0-.428-.114v-.175h1.773Z" transform="translate(-62.358 -63.688)" fill="#7a8096"/><path d="M175.255,164.237h1.19l2.638,3.546V166.7a6.862,6.862,0,0,0-.157-1.645c-.107-.406-.275-.623-.506-.646v-.175H180v.175q-.663.06-.663,2.178v2.452h-.169l-3.131-4.229v1.348a8.18,8.18,0,0,0,.158,1.887q.158.608.513.652v.174h-1.576V168.7q.662-.1.663-2.5v-1.251a.546.546,0,0,0-.125-.426.66.66,0,0,0-.419-.113Z" transform="translate(-68.087 -63.688)" fill="#7a8096"/><path d="M213.342,167.922a3.372,3.372,0,0,1-2.094.99,1.942,1.942,0,0,1-1.385-.59,2.14,2.14,0,0,1-.614-1.621,2.591,2.591,0,0,1,.318-1.29,2.767,2.767,0,0,1,.9-.958,2.5,2.5,0,0,1,1.408-.388,4.048,4.048,0,0,1,1.354.226v1.095h-.257a1.051,1.051,0,0,0-.453-.8,1.62,1.62,0,0,0-.968-.29,1.481,1.481,0,0,0-1.235.576,2.462,2.462,0,0,0,.062,2.918,1.646,1.646,0,0,0,1.312.6,2.652,2.652,0,0,0,1.648-.686Z" transform="translate(-81.349 -63.621)" fill="#7a8096"/><path d="M227.95,164.237h1.773v.175a.631.631,0,0,0-.438.121.659.659,0,0,0-.112.452V168.7h.472a1.225,1.225,0,0,0,1.307-1.153h.262l-.312,1.5h-.167c0-.114-.055-.17-.156-.17H227.95V168.7a.623.623,0,0,0,.437-.123.663.663,0,0,0,.114-.451v-3.142a.612.612,0,0,0-.123-.458.67.67,0,0,0-.427-.114Z" transform="translate(-88.619 -63.688)" fill="#7a8096"/><path d="M246.762,164.412a.628.628,0,0,0-.44.124.661.661,0,0,0-.112.449v3.142a.506.506,0,0,0,.552.573v.174h-1.773V168.7a.613.613,0,0,0,.438-.123.669.669,0,0,0,.112-.45v-3.142a.611.611,0,0,0-.122-.458.67.67,0,0,0-.428-.114v-.175h1.773Z" transform="translate(-95.243 -63.688)" fill="#7a8096"/><path d="M259.84,164.237h1.19l2.64,3.546V166.7a6.888,6.888,0,0,0-.158-1.645c-.107-.406-.275-.623-.506-.646v-.175h1.584v.175q-.664.06-.663,2.178v2.452h-.168l-3.133-4.229v1.348a8.169,8.169,0,0,0,.158,1.887q.158.608.513.652v.174h-1.577V168.7q.663-.1.663-2.5v-1.251a.543.543,0,0,0-.126-.426.656.656,0,0,0-.419-.113Z" transform="translate(-100.97 -63.688)" fill="#7a8096"/><path d="M281.256,164.412a.625.625,0,0,0-.438.124.658.658,0,0,0-.112.449v3.142a.506.506,0,0,0,.551.573v.174h-1.773V168.7a.616.616,0,0,0,.438-.123.668.668,0,0,0,.113-.45v-3.142a.611.611,0,0,0-.124-.458.665.665,0,0,0-.427-.114v-.175h1.773Z" transform="translate(-108.653 -63.688)" fill="#7a8096"/><path d="M298.564,167.922a3.375,3.375,0,0,1-2.095.99,1.943,1.943,0,0,1-1.385-.59,2.14,2.14,0,0,1-.614-1.621,2.578,2.578,0,0,1,.319-1.29,2.744,2.744,0,0,1,.9-.958,2.492,2.492,0,0,1,1.406-.388,4.048,4.048,0,0,1,1.355.226v1.095H298.2a1.046,1.046,0,0,0-.453-.8,1.617,1.617,0,0,0-.966-.29,1.481,1.481,0,0,0-1.235.576,2.463,2.463,0,0,0,.062,2.918,1.646,1.646,0,0,0,1.312.6,2.65,2.65,0,0,0,1.647-.686Z" transform="translate(-114.48 -63.621)" fill="#7a8096"/><path d="M186.874.454H0V-.451H186.874Z" transform="translate(0 94.006)" fill="#7a8096"/><g transform="translate(73.328 4.143)" clip-path="url(#a)"><rect width="16.703" height="14.548" transform="matrix(0.392, -0.92, 0.92, 0.392, -7.015, 11.805)" fill="#7a8096"/></g><g transform="translate(117.486 25.295)" clip-path="url(#b)"><rect width="6.016" height="7.64" transform="translate(-1.408 3.101) rotate(-66.911)" fill="#7a8096"/></g><g transform="translate(105.536 15.433)" clip-path="url(#c)"><rect width="8.143" height="7.188" transform="matrix(0.392, -0.92, 0.92, 0.392, -3.765, 5.71)" fill="#7a8096"/></g><g transform="translate(100.351 51.096)" clip-path="url(#d)"><rect width="8.137" height="8.027" transform="translate(-2.375 5.3) rotate(-66.911)" fill="#7a8096"/></g><g transform="translate(96.23 0.241)" clip-path="url(#e)"><rect width="9.392" height="8.549" transform="translate(-4.309 6.461) rotate(-66.911)" fill="#7a8096"/></g><g transform="translate(66.689 40.024)" clip-path="url(#f)"><rect width="7.97" height="8.115" transform="matrix(0.392, -0.92, 0.92, 0.392, -2.24, 5.071)" fill="#7a8096"/></g><g transform="translate(64.049 32.668)" clip-path="url(#g)"><rect width="11.983" height="12.828" transform="matrix(0.392, -0.92, 0.92, 0.392, -3.21, 7.322)" fill="#7a8096"/></g><g transform="translate(102.23 2.258)" clip-path="url(#h)"><rect width="8.086" height="9.034" transform="translate(-2.117 4.761) rotate(-66.911)" fill="#7a8096"/></g><g transform="translate(82.917 43.833)" clip-path="url(#i)"><rect width="8.213" height="9.379" transform="translate(-2.045 4.647) rotate(-66.911)" fill="#7a8096"/></g><g transform="translate(107.326 32.857)" clip-path="url(#j)"><rect width="8.01" height="6.928" transform="matrix(0.392, -0.92, 0.92, 0.392, -2.638, 5.685)" fill="#7a8096"/></g><g transform="translate(62.72 21.764)" clip-path="url(#k)"><rect width="13.505" height="17.044" transform="translate(-3.222 7.014) rotate(-66.911)" fill="#7a8096"/></g><g transform="translate(94.005 53.849)" clip-path="url(#l)"><rect width="10.447" height="11.387" transform="translate(-3.049 6.287) rotate(-66.911)" fill="#7a8096"/></g><g transform="translate(111.143 28.892)" clip-path="url(#m)"><rect width="14.575" height="16.415" transform="matrix(0.392, -0.92, 0.92, 0.392, -3.889, 8.518)" fill="#7a8096"/></g><g transform="translate(100.241 14.991)" clip-path="url(#n)"><rect width="4.688" height="5.333" transform="matrix(0.392, -0.92, 0.92, 0.392, -1.172, 2.714)" fill="#7a8096"/></g><g transform="translate(75.189 30.296)" clip-path="url(#o)"><rect width="6.724" height="5.185" transform="matrix(0.392, -0.92, 0.92, 0.392, -2.281, 5.074)" fill="#7a8096"/></g><g transform="translate(91.143 46.054)" clip-path="url(#p)"><rect width="5.602" height="6.445" transform="translate(-1.393 3.209) rotate(-66.911)" fill="#7a8096"/></g><g transform="translate(97.102 45.421)" clip-path="url(#q)"><rect width="7.841" height="7.446" transform="translate(-2.758 5.246) rotate(-66.911)" fill="#7a8096"/></g><g transform="translate(110.423 47.484)" clip-path="url(#r)"><rect width="8.718" height="9.019" transform="matrix(0.392, -0.92, 0.92, 0.392, -2.42, 5.478)" fill="#7a8096"/></g><g transform="translate(115.331 42.707)" clip-path="url(#s)"><rect width="6.222" height="6.161" transform="translate(-2.046 4.042) rotate(-66.911)" fill="#7a8096"/></g><g transform="translate(115.032 36.884)" clip-path="url(#t)"><rect width="7.994" height="9.569" transform="translate(-1.911 4.4) rotate(-66.911)" fill="#7a8096"/></g><g transform="translate(67.602 13.099)" clip-path="url(#u)"><rect width="9.198" height="9.133" transform="translate(-3.061 5.963) rotate(-66.911)" fill="#7a8096"/></g><g transform="translate(80.619 1.468)" clip-path="url(#v)"><rect width="6.519" height="6.469" transform="translate(-2.231 4.229) rotate(-66.911)" fill="#7a8096"/></g><g transform="translate(64.428 19.045)" clip-path="url(#w)"><rect width="3.283" height="3.283" transform="translate(-0.903 2.118) rotate(-66.911)" fill="#7a8096"/></g><g transform="translate(107.858 54.395)" clip-path="url(#x)"><rect width="3.283" height="3.282" transform="matrix(0.392, -0.92, 0.92, 0.392, -0.903, 2.118)" fill="#7a8096"/></g><g transform="translate(69.253 47.636)" clip-path="url(#y)"><rect width="3.283" height="3.282" transform="matrix(0.392, -0.92, 0.92, 0.392, -0.903, 2.118)" fill="#7a8096"/></g><g transform="translate(111.966 39.908)" clip-path="url(#z)"><rect width="2.6" height="2.599" transform="translate(-0.715 1.677) rotate(-66.911)" fill="#7a8096"/></g><g transform="translate(62.559 29.767)" clip-path="url(#aa)"><rect width="3.744" height="3.744" transform="translate(-1.03 2.415) rotate(-66.911)" fill="#7a8096"/></g><g transform="translate(105.62 9.601)" clip-path="url(#ab)"><rect width="3.746" height="3.745" transform="translate(-1.03 2.416) rotate(-66.911)" fill="#7a8096"/></g><g transform="translate(82.282)" clip-path="url(#ac)"><rect width="21.972" height="20.806" transform="translate(-7.725 14.729) rotate(-66.911)" fill="#7a8096"/></g><g transform="translate(108.364 15.092)" clip-path="url(#ad)"><rect width="18.046" height="17.277" transform="matrix(0.392, -0.92, 0.92, 0.392, -5.731, 12.008)" fill="#7a8096"/></g><g transform="translate(72.733 37.968)" clip-path="url(#ae)"><rect width="12.344" height="12.345" transform="translate(-3.397 7.961) rotate(-66.911)" fill="#7a8096"/></g><g transform="translate(102.856 40.364)" clip-path="url(#af)"><rect width="13.778" height="13.776" transform="translate(-3.969 8.887) rotate(-66.911)" fill="#7a8096"/></g><g transform="translate(72.809 48.003)" clip-path="url(#ag)"><rect width="10.794" height="10.767" transform="matrix(0.392, -0.92, 0.92, 0.392, -3.016, 6.974)" fill="#7a8096"/></g><g transform="translate(76.426 18.563)" clip-path="url(#ah)"><rect width="6.356" height="6.342" transform="translate(-1.893 4.106) rotate(-66.911)" fill="#7a8096"/></g><g transform="translate(93.593 10.765)" clip-path="url(#ai)"><rect width="6.232" height="6.371" transform="translate(-1.771 3.952) rotate(-66.911)" fill="#7a8096"/></g><g transform="translate(98.285 7.003)" clip-path="url(#aj)"><rect width="8.943" height="8.974" transform="translate(-2.514 5.753) rotate(-66.911)" fill="#7a8096"/></g><g transform="translate(110.301 7.72)" clip-path="url(#ak)"><rect width="5.527" height="5.409" transform="translate(-1.937 3.621) rotate(-66.911)" fill="#7a8096"/></g><g transform="translate(112.106 12.448)" clip-path="url(#al)"><rect width="5.533" height="5.412" transform="translate(-1.956 3.626) rotate(-66.911)" fill="#7a8096"/></g><g transform="translate(113.078 9.669)" clip-path="url(#am)"><rect width="5.072" height="5.429" transform="translate(-1.374 3.1) rotate(-66.911)" fill="#7a8096"/></g><g transform="translate(108.35 11.475)" clip-path="url(#an)"><rect width="5.055" height="5.423" transform="translate(-1.374 3.084) rotate(-66.911)" fill="#7a8096"/></g><g transform="translate(112.23 11.618)" clip-path="url(#ao)"><rect width="1.591" height="1.628" transform="translate(-0.5 1.008) rotate(-66.911)" fill="#7a8096"/></g><g transform="translate(82.653 49.429)" clip-path="url(#ap)"><rect width="7.716" height="7.793" transform="matrix(0.392, -0.92, 0.92, 0.392, -2.678, 4.775)" fill="#7a8096"/></g><g transform="translate(86.586 55.702)" clip-path="url(#aq)"><rect width="7.667" height="7.773" transform="translate(-2.724 4.894) rotate(-66.911)" fill="#7a8096"/></g><g transform="translate(87.336 51.019)" clip-path="url(#ar)"><rect width="6.907" height="7.341" transform="translate(-1.87 4.247) rotate(-66.911)" fill="#7a8096"/></g><g transform="translate(81.063 54.954)" clip-path="url(#as)"><rect width="7.206" height="7.467" transform="matrix(0.392, -0.92, 0.92, 0.392, -2.096, 4.523)" fill="#7a8096"/></g><g transform="translate(86.138 54.547)" clip-path="url(#at)"><rect width="2.288" height="2.339" transform="translate(-0.715 1.451) rotate(-66.911)" fill="#7a8096"/></g></g><rect width="188" height="17" transform="translate(-15089 -10843)" fill="#7a8096"/><g transform="translate(-15013.896 -10839.979)" clip-path="url(#au)"><path d="M2.235,6.148A14.6,14.6,0,0,0,0,4.288L.388,3.7A21.145,21.145,0,0,1,3.058,5.037ZM3.62,6.51c-.112.287-.262.687-.537,1.273-.261.561-1.535,2.971-1.772,3.483.037.237,0,.311-.2.311a.135.135,0,0,1-.088-.037L.013,10.73A18.663,18.663,0,0,0,3.184,5.961Zm-.9-3.845A10.187,10.187,0,0,0,.55.569L.924.019A12.962,12.962,0,0,1,3.608,1.567Zm5.355,7.752h3.371v.562h-8.6v-.562H6.753V1.455H3.87V.893h7.315v.562H8.077Z" transform="translate(0 -0.006)" fill="#fff"/><path d="M25.461,8.013h2.584v.561H25.461v2.447H24.238V8.575H21.679V8.013h2.559V6.578H21.9V6.029h1.323a6.96,6.96,0,0,0-.848-1.623l.512-.262H20.942V11.6H19.694V3.582h4.531V1.971H19.12v-.55h5.106V.785A3.5,3.5,0,0,0,24.138,0l1.348.038A.124.124,0,0,1,25.6.162a.756.756,0,0,1-.087.287v.974h5.106v.55H25.511v1.61h4.531V10.36c0,.774-.075,1.148-1.2,1.148h-1.56L27,10.884c.213.012.612.062,1.349.062.4,0,.436-.1.436-.574V4.143H26.71l.786.4c.062.038.112.075.112.1,0,.062-.05.1-.225.2a13,13,0,0,1-1.311,1.186h1.7v.549H25.461Zm-2.384-3.87A17.528,17.528,0,0,1,24.462,5.5l-.861.524h2.2l-.425-.262a8.673,8.673,0,0,0,.849-1.623Z" transform="translate(-6.686 0.001)" fill="#fff"/><path d="M41.11,4.546A5.262,5.262,0,0,1,42.458,7.9c0,.861-.25,1.747-1.336,1.747h-.748l-.163-.674a2.073,2.073,0,0,0,.512.088c.512,0,.6-.687.6-1.323a5.175,5.175,0,0,0-1.148-3.108L41.422,1.1h-1.5V11.611H38.738V.539h4.02v.55l-.237.5h2.908V.751a2.262,2.262,0,0,0-.075-.674L46.727.1c.062,0,.1.025.1.1a.418.418,0,0,1-.1.225V1.588h3.059v2.8H48.538V2.137H43.744V4.384H42.5V1.625Zm6.416,5.867c0,.362.012.487.437.487h.387c.487,0,.686,0,.8-1.5a2.183,2.183,0,0,0,1.061.425c-.237,1.522-.574,1.623-1.473,1.623H47.3c-1.011,0-1.073-.375-1.073-1.049V6.78h-.849c0,1.9,0,4.132-3.67,4.906l-.362-.537c2.759-.661,2.784-2.084,2.784-4.369H42.508V6.219h7.4V6.78H47.526Zm-3.533-6.6h4.295v.562H43.993Z" transform="translate(-13.546 -0.027)" fill="#fff"/></g></g></svg>