<svg width="533" height="100" viewBox="0 0 533 100" fill="none" xmlns="http://www.w3.org/2000/svg">
<g clip-path="url(#clip0_27_572)">
<path d="M160.014 26.1195V26.2002C160.014 26.94 159.65 27.3031 158.911 27.3031H144.694C145.393 37.1081 150.773 44.9359 159.233 49.4685C159.933 49.8317 160.054 50.3697 159.637 50.9749L159.395 51.3381C159.032 51.903 158.494 52.0375 157.888 51.7416C150.747 48.2715 145.313 42.3535 142.704 35.5748C140.054 42.3535 134.539 48.3119 127.263 51.7819C126.644 52.0644 126.12 51.903 125.757 51.3381L125.515 50.9749C125.111 50.3697 125.232 49.8317 125.918 49.4685C134.365 44.9359 139.758 37.0946 140.457 27.3031H126.241C125.501 27.3031 125.138 26.94 125.138 26.2002V26.1195C125.138 25.3798 125.501 25.0166 126.241 25.0166H140.498V17.9554C140.498 17.2157 140.861 16.8525 141.601 16.8525H143.564C144.304 16.8525 144.667 17.2157 144.667 17.9554V25.0166H158.924C159.664 25.0166 160.027 25.3798 160.027 26.1195H160.014Z" fill="#EF858C"/>
<path d="M195.037 17.5116C195.077 18.4934 195.077 19.677 195.118 21.022H202.798C203.537 21.022 203.9 21.3852 203.9 22.1249C203.9 22.8243 203.537 23.1874 202.798 23.1874H195.198C195.4 28.2177 195.857 32.9924 196.463 36.8256C197.606 34.6199 198.467 31.755 199.247 28.7423C199.449 28.016 199.946 27.7604 200.632 28.016L202.058 28.5002C202.757 28.7423 202.959 29.2399 202.798 29.8855C201.493 34.5392 199.892 38.5472 197.525 42.0577C198.346 45.3663 199.529 48.554 200.175 48.554C201.076 48.3926 201.358 46.5903 201.52 43.3219C201.56 42.5015 202.004 42.1384 202.744 42.2998L203.483 42.4612C204.143 42.6226 204.425 43.0664 204.385 43.7658C203.9 49.5224 202.959 52.2123 200.551 52.2123C199.287 52.2123 198.063 51.486 197.283 50.5849C196.18 49.3206 195.4 47.8142 194.755 46.0119C193.006 47.9353 190.585 49.9393 187.572 51.9299C187.007 52.293 186.51 52.2123 186.066 51.7281L185.662 51.2843C185.178 50.7059 185.259 50.141 185.864 49.7375C188.81 47.7335 191.379 45.2856 193.584 42.1787C192.36 37.3233 191.621 31.1094 191.338 23.1874H182.394V28.5002H190.034C190.773 28.5002 191.136 28.9037 191.136 29.6434C191.096 36.5028 190.935 40.632 190.572 42.2191C190.37 43.2009 189.791 43.981 188.527 44.3038C188.285 44.3845 187.586 44.4248 186.846 44.4248C186.268 44.4248 185.044 44.3038 183.699 44.2231C182.999 44.1827 182.596 43.8196 182.555 43.1605C182.515 42.4343 182.919 42.0577 183.699 42.1384C184.398 42.2191 185.124 42.2594 185.662 42.2594C186.308 42.2594 186.765 41.9366 187.048 40.5378C187.209 39.6367 187.29 36.207 187.29 30.5311H182.394V32.2527C182.394 40.4571 181.17 46.792 178.561 51.7685C178.238 52.4275 177.7 52.5486 177.054 52.1316L175.992 51.486C175.414 51.1229 175.293 50.5849 175.588 49.9796C176.288 48.5943 176.853 46.9534 177.31 45.1646C174.284 46.5096 171.096 47.8142 167.707 48.9709C166.967 49.213 166.483 48.8902 166.362 48.1505V48.0294C166.241 47.33 166.523 46.9669 167.182 46.7248L170.612 45.5008V28.8364H167.344C166.604 28.8364 166.241 28.4733 166.241 27.7335C166.241 27.0341 166.604 26.671 167.344 26.671H170.612V18.749C170.612 18.0092 170.975 17.6461 171.715 17.6461H173.396C174.136 17.6461 174.499 18.0092 174.499 18.749V26.671H176.906C177.646 26.671 178.009 27.0341 178.009 27.7739C178.009 28.4598 177.646 28.8364 176.906 28.8364H174.499V43.8196C175.44 43.4161 176.503 42.9184 177.929 42.3536C178.413 39.0852 178.749 34.9965 178.749 30.2217V22.1384C178.749 21.3986 179.112 21.0355 179.852 21.0355H191.284C191.284 19.6501 191.284 18.4665 191.244 17.525C191.244 16.7853 191.661 16.4222 192.347 16.4222H193.974C194.714 16.4222 195.077 16.7853 195.077 17.525L195.037 17.5116ZM198.023 16.0321C199.166 16.7315 200.229 17.3367 201.17 17.9554C201.789 18.3589 201.869 18.8969 201.493 19.4618L201.251 19.825C200.847 20.484 200.309 20.5513 199.704 20.1074C198.682 19.408 197.539 18.7624 196.597 18.2244C195.938 17.8613 195.857 17.3233 196.274 16.718L196.476 16.3953C196.88 15.7766 197.418 15.6555 198.023 16.0321Z" fill="#EF858C"/>
<path d="M245.178 21.304V21.6806C245.178 22.2052 245.098 22.5817 244.856 23.0659C244.035 24.5723 242.973 26.1729 241.507 27.881C241.063 28.4459 240.525 28.4863 239.96 28.0424L239.099 27.3834C238.534 26.9799 238.44 26.4419 238.897 25.877C239.677 24.8951 240.444 23.7115 241.224 22.3666H230.733V30.0061H240.242C240.982 30.0061 241.345 30.3692 241.345 31.109V31.4318C241.345 31.9294 241.305 32.2926 241.063 32.7768C238.938 37.3094 235.992 41.183 232.119 44.4916C235.79 46.8588 239.879 48.5804 244.573 49.764C245.272 49.9254 245.555 50.3827 245.353 51.109C245.151 51.8084 244.694 52.0908 244.008 51.9294C238.252 50.5441 233.437 48.5804 229.792 46.2536C226.402 48.6208 221.829 50.5844 216.355 51.9294C215.656 52.0908 215.212 51.8084 215.01 51.1493V51.0686C214.808 50.3827 215.051 49.9254 215.75 49.7236C220.04 48.5401 223.833 46.8723 227.303 44.4916C224.075 41.9227 221.668 38.9772 219.785 35.8299C219.422 35.1709 219.624 34.6463 220.283 34.3639L221.628 33.799C222.287 33.5165 222.771 33.7183 223.094 34.3235C224.977 37.8339 227.182 40.5643 229.671 42.6086C232.535 40.1204 235.104 36.5965 237.351 32.0774H216.651V32.5616C216.651 40.2818 215.387 46.4419 212.643 51.6335C212.28 52.3329 211.661 52.3733 211.096 51.7949L209.872 50.4903C209.415 50.0464 209.375 49.5488 209.63 48.9839C211.675 44.3706 212.616 38.9368 212.616 30.6382V21.2906C212.616 20.5508 212.979 20.1877 213.719 20.1877H226.631V17.3363C226.631 16.5965 226.994 16.2334 227.734 16.2334H229.657C230.397 16.2334 230.76 16.5965 230.76 17.3363V20.1877H244.116C244.856 20.1877 245.219 20.5508 245.219 21.2906L245.178 21.304ZM226.591 22.3666H216.624V30.0061H226.591V22.3666Z" fill="#EF858C"/>
<path d="M285.837 22.367C282.408 35.3058 275.131 44.4248 262.851 50.5445C262.112 50.9076 261.547 50.7059 261.305 50.1007C261.022 49.4416 261.224 48.9574 261.923 48.5539C271.849 42.636 277.028 34.176 280.498 22.7839H258.238C257.458 22.7839 257.055 22.4208 257.014 21.681C257.014 20.9816 257.377 20.5781 258.198 20.5781H284.492C285.353 20.5781 286.214 21.0758 285.837 22.3804V22.367Z" fill="#EF858C"/>
<path d="M296.57 21.3448C295.831 21.4255 295.427 21.0624 295.346 20.3226C295.306 19.7443 295.629 19.3811 296.369 19.3004C300.538 18.8969 304.613 18.2379 308.823 17.135C309.523 16.9736 309.967 17.1753 310.168 17.8209C310.33 18.48 310.047 18.9238 309.348 19.0852C307.72 19.5291 305.958 19.946 304.075 20.2688V27.4107H308.487C309.227 27.4107 309.59 27.7739 309.59 28.5136C309.59 29.1726 309.227 29.4954 308.487 29.4954H304.936C306.739 32.8848 308.285 35.79 309.348 37.6999C309.671 38.3186 309.55 38.8028 308.985 39.2063L308.003 39.8519C307.384 40.2554 306.86 40.094 306.537 39.408C305.716 37.6192 304.856 35.9783 304.089 34.2164V51.6474C304.089 52.3872 303.726 52.7503 302.986 52.7503H301.802C301.063 52.7503 300.7 52.3737 300.7 51.6474V37.9285C299.556 40.6185 298.373 42.8646 297.028 45.1108C296.584 45.8505 295.965 45.8505 295.521 45.1511L294.741 44.0079C294.418 43.5237 294.378 43.026 294.701 42.5015C297.149 38.3724 299.072 33.9608 300.296 29.4685H296.006C295.266 29.4685 294.903 29.1054 294.903 28.3657C294.903 27.7066 295.266 27.3838 296.006 27.3838H300.538V20.8472C299.516 20.9682 298.211 21.17 296.57 21.291V21.3448ZM332.468 40.2957V40.3361C332.468 41.022 332.186 41.439 331.527 41.56L328.42 42.098V51.6878C328.42 52.4275 328.057 52.7907 327.317 52.7907H325.434C324.694 52.7907 324.331 52.4141 324.331 51.6878V42.8377L308.205 45.5681C307.505 45.6891 307.061 45.3663 306.981 44.6266V44.5459C306.9 43.8599 307.223 43.443 307.922 43.3219L324.344 40.5378V17.9554C324.344 17.2157 324.708 16.8525 325.447 16.8525H327.33C328.07 16.8525 328.433 17.2157 328.433 17.9554V39.7981L331.204 39.3542C331.944 39.2332 332.388 39.556 332.468 40.2957ZM313.141 28.9036C315.71 31.3515 317.915 33.5573 319.839 35.6824C320.323 36.2069 320.283 36.7449 319.798 37.2426L318.897 38.1437C318.373 38.6683 317.835 38.6279 317.351 38.063C315.225 35.6151 313.1 33.3287 310.895 31.2439C310.357 30.7059 310.357 30.1814 310.854 29.6972L311.554 28.9574C312.038 28.4329 312.616 28.4329 313.141 28.9171V28.9036ZM316.705 19.5829C319.112 21.8694 321.076 24.0348 322.825 25.9178C323.268 26.4423 323.309 26.9803 322.784 27.4645L321.923 28.285C321.399 28.8095 320.861 28.7691 320.377 28.2043C318.413 25.8774 316.463 23.7927 314.459 21.9097C313.921 21.3717 313.88 20.8472 314.418 20.3226L315.118 19.6232C315.602 19.139 316.18 19.0987 316.705 19.5829Z" fill="#EF858C"/>
<path d="M370.841 25.2188C365.286 37.929 358.911 45.3937 345.434 51.2713C344.089 51.8362 343.067 50.0473 344.412 49.3479C355.562 43.5107 361.036 36.315 365.286 24.8826H353.154C350.545 29.052 347.115 33.0063 342.327 35.8308C340.942 36.6512 339.919 35.0103 340.982 34.1092C346.174 29.738 349.724 24.3042 352.213 18.0635C352.495 17.3372 353.073 17.0816 353.8 17.3775L355.763 18.198C356.543 18.5208 356.745 19.0991 356.369 19.8254C355.804 20.8879 355.306 21.7487 354.526 22.892L368.864 22.9323C370.249 22.8516 371.392 23.9142 370.827 25.2188H370.841Z" fill="#EF858C"/>
<path d="M385.003 19.3004H386.765C387.546 19.3004 387.989 19.7039 387.989 20.5243V36.6911C387.989 37.4712 387.586 37.915 386.765 37.915H385.003C384.223 37.915 383.78 37.4712 383.78 36.6911V20.5243C383.78 19.7442 384.223 19.3004 385.003 19.3004ZM388.433 51.7684C387.653 52.0105 387.169 51.8088 386.967 51.2439C386.765 50.6252 387.048 50.1813 387.788 49.8585C397.055 46.0522 400.646 39.529 400.646 29.2802V19.4349C400.646 18.6144 401.103 18.2109 401.87 18.2109H403.914C404.734 18.2109 405.138 18.6144 405.138 19.4349V29.2802C405.138 40.2688 399.866 48.0294 388.433 51.7819V51.7684Z" fill="#EF858C"/>
<path d="M418.48 43.2818H449.267C450.047 43.2818 450.491 43.6853 450.491 44.5057V44.6671C450.491 45.4472 450.088 45.8911 449.267 45.8911H418.48C417.7 45.8911 417.256 45.4472 417.256 44.6671V44.5057C417.256 43.6853 417.7 43.2818 418.48 43.2818ZM422.192 23.5508H445.555C446.375 23.5508 446.779 23.9543 446.779 24.7747V24.9361C446.779 25.7162 446.375 26.1601 445.555 26.1601H422.192C421.372 26.1601 420.968 25.7162 420.968 24.9361V24.7747C420.968 23.9543 421.412 23.5508 422.192 23.5508Z" fill="#EF858C"/>
<path d="M464.116 37.848C463.376 35.4001 462.448 33.154 461.264 30.8675C460.525 29.4418 462.488 28.6617 463.389 29.6839C465.232 31.7283 466.537 33.8937 467.922 36.3416C468.366 37.0814 468.164 37.5252 467.384 37.8211L465.461 38.5474C464.761 38.8298 464.317 38.5877 464.116 37.8614V37.848ZM486.9 29.5091C483.672 39.9193 479.22 46.9132 468.729 52.0914C468.03 52.4142 467.465 52.2932 467.142 51.7686C466.779 51.2038 467.021 50.7061 467.72 50.3026C476.785 45.1109 479.852 38.7895 482.744 28.1641C482.945 27.384 483.483 27.1015 484.25 27.3436L486.133 27.9623C486.873 28.2044 487.155 28.7424 486.913 29.5091H486.9ZM472.199 34.8218C471.459 32.2932 470.572 29.926 469.294 27.4647C468.554 26.039 470.639 25.1782 471.5 26.2407C473.302 28.4465 474.647 30.5716 476.113 33.4364C476.476 34.1627 476.274 34.62 475.548 34.8621L473.584 35.5481C472.858 35.7902 472.401 35.5481 472.199 34.8218Z" fill="#EF858C"/>
<path d="M529.24 25.2188C523.685 37.929 517.31 45.3937 503.847 51.2713C502.502 51.8362 501.479 50.0473 502.824 49.3479C513.974 43.5107 519.449 36.315 523.699 24.8826H511.567C508.958 29.052 505.528 33.0063 500.753 35.8308C499.368 36.6512 498.346 35.0103 499.408 34.1092C504.6 29.738 508.151 24.3042 510.639 18.0635C510.921 17.3372 511.5 17.0816 512.226 17.3775L514.19 18.198C514.97 18.5208 515.171 19.0991 514.808 19.8254C514.243 20.8879 513.746 21.7487 512.966 22.892L527.303 22.9323C528.689 22.8516 529.832 23.9142 529.267 25.2188H529.24Z" fill="#EF858C"/>
<path d="M128.635 79.4219C129.523 79.4219 130.316 79.5967 131.002 79.9464C131.688 80.2961 132.293 80.8476 132.804 81.5873C133.316 82.3271 133.585 83.2282 133.585 84.2773C133.585 85.4071 133.262 86.4427 132.63 87.3842C131.984 88.3257 131.244 89.0117 130.383 89.4421C129.536 89.8724 128.635 90.0877 127.693 90.0877C126.348 90.0877 125.219 89.6303 124.277 88.7023C123.336 87.7743 122.878 86.631 122.878 85.2726C122.878 83.6989 123.47 82.3271 124.627 81.1704C125.797 80.0137 127.129 79.4353 128.635 79.4353V79.4219ZM127.64 80.1616C126.658 80.1616 125.837 80.5113 125.192 81.1973C124.546 81.8832 124.223 82.7978 124.223 83.9276C124.223 85.5954 124.708 86.9135 125.676 87.8953C126.644 88.8772 127.707 89.3748 128.864 89.3748C129.778 89.3748 130.572 89.0251 131.244 88.3392C131.903 87.6532 132.24 86.7521 132.24 85.6761C132.24 84.6673 132.024 83.7124 131.581 82.8113C131.137 81.9236 130.531 81.2511 129.778 80.8207C129.025 80.3768 128.312 80.1616 127.653 80.1616H127.64Z" fill="#EF858C"/>
<path d="M151.123 83.8875C150.881 83.6588 150.693 83.4033 150.572 83.1343C150.451 82.8653 150.383 82.5963 150.383 82.3004C150.383 81.5337 150.733 80.8612 151.446 80.2963C152.145 79.718 152.979 79.4355 153.921 79.4355C154.392 79.4355 155.024 79.57 155.817 79.839V82.3407H155.239C155.199 81.6413 154.983 81.0764 154.593 80.6326C154.203 80.1887 153.732 79.9735 153.181 79.9735C152.724 79.9735 152.347 80.108 152.051 80.3905C151.755 80.6595 151.607 81.0226 151.607 81.4396C151.607 81.8565 151.755 82.2331 152.051 82.5828C152.347 82.946 153.033 83.484 154.136 84.2372C154.97 84.8021 155.535 85.2459 155.831 85.5956C156.113 85.9453 156.261 86.3757 156.261 86.8868C156.261 87.7207 155.871 88.4604 155.104 89.1195C154.338 89.7785 153.463 90.1013 152.495 90.1013C151.796 90.1013 151.016 89.9399 150.141 89.6037V86.7254H150.706C150.706 87.5324 150.935 88.2183 151.406 88.7563C151.876 89.2943 152.428 89.5633 153.073 89.5633C153.665 89.5633 154.136 89.3885 154.472 89.0388C154.808 88.6891 154.983 88.2587 154.983 87.7207C154.983 87.2634 154.849 86.8464 154.553 86.4967C154.27 86.147 153.625 85.6494 152.63 84.9769C152.078 84.6138 151.567 84.2506 151.11 83.874L151.123 83.8875Z" fill="#EF858C"/>
<path d="M172.374 79.6638H176.274V80.0539C175.804 80.0539 175.481 80.1615 175.306 80.3363C175.145 80.5112 175.064 80.834 175.064 81.3182V84.0485H179.933V81.3182C179.933 80.8071 179.839 80.4708 179.664 80.3094C179.476 80.148 179.166 80.0673 178.722 80.0539V79.6638H182.623V80.0539C182.139 80.0539 181.829 80.1615 181.654 80.3363C181.493 80.5112 181.412 80.834 181.412 81.3182V88.2314C181.412 88.756 181.507 89.0922 181.681 89.2402C181.87 89.4016 182.179 89.4823 182.623 89.4823V89.8723H178.722V89.4823C179.193 89.4823 179.516 89.3881 179.677 89.2133C179.852 89.0384 179.933 88.7022 179.933 88.218V84.5327H175.064V88.218C175.064 89.0384 175.467 89.4554 176.274 89.4823V89.8723H172.374V89.4823C172.845 89.4823 173.168 89.3881 173.342 89.2133C173.504 89.0384 173.598 88.7022 173.598 88.218V81.3047C173.598 80.7936 173.504 80.4574 173.316 80.296C173.127 80.1346 172.818 80.0539 172.374 80.0404V79.6504V79.6638Z" fill="#EF858C"/>
<path d="M202.798 80.0402C202.327 80.0402 202.004 80.1478 201.829 80.3092C201.668 80.4841 201.587 80.8069 201.587 81.2911V88.2043C201.587 89.0248 201.991 89.4417 202.798 89.4686V89.8586H198.897V89.4686C199.381 89.4686 199.704 89.3744 199.866 89.1996C200.027 89.0247 200.108 88.6885 200.108 88.2043V81.2911C200.108 80.78 200.014 80.4437 199.839 80.2823C199.664 80.1209 199.341 80.0402 198.897 80.0268V79.6367H202.798V80.0268V80.0402Z" fill="#EF858C"/>
<path d="M218.897 79.6641H223.968C224.721 79.6641 225.286 79.812 225.663 80.0945C226.039 80.3904 226.227 80.8342 226.227 81.4125C226.227 82.0716 226.012 82.6768 225.595 83.2417C225.178 83.8066 224.533 84.3312 223.685 84.8154L225.461 87.5726C226.254 88.81 226.994 89.4421 227.667 89.4825V89.8725H225.757C225.38 89.8725 225.03 89.6439 224.734 89.1866L221.574 84.2774V88.2316C221.574 89.0521 221.977 89.469 222.798 89.4959V89.886H218.884V89.4959C219.368 89.4959 219.691 89.4018 219.852 89.2269C220.014 89.0521 220.094 88.7158 220.094 88.2316V81.3184C220.094 80.8073 220 80.4711 219.825 80.3097C219.65 80.1483 219.328 80.0676 218.884 80.0541V79.6641H218.897ZM221.587 80.4442V83.7663C222.206 84.2236 222.744 84.4388 223.188 84.4388C223.632 84.4388 224.008 84.2774 224.237 83.968C224.465 83.6452 224.587 83.1879 224.587 82.5558C224.587 81.7891 224.412 81.1839 224.075 80.7266C223.726 80.2693 223.309 80.0541 222.811 80.0541C222.381 80.0541 221.964 80.1886 221.587 80.4442Z" fill="#EF858C"/>
<path d="M248.85 79.4219C249.738 79.4219 250.531 79.5967 251.217 79.9464C251.903 80.2961 252.508 80.8476 253.02 81.5873C253.531 82.3271 253.8 83.2282 253.8 84.2773C253.8 85.4071 253.477 86.4427 252.831 87.3842C252.186 88.3257 251.446 89.0117 250.585 89.4421C249.738 89.8724 248.837 90.0877 247.895 90.0877C246.55 90.0877 245.42 89.6303 244.479 88.7023C243.537 87.7743 243.08 86.631 243.08 85.2726C243.08 83.6989 243.658 82.3271 244.842 81.1704C246.012 80.0137 247.344 79.4353 248.85 79.4353V79.4219ZM247.855 80.1616C246.873 80.1616 246.053 80.5113 245.407 81.1973C244.761 81.8832 244.439 82.7978 244.439 83.9276C244.439 85.5954 244.923 86.9135 245.891 87.8953C246.86 88.8772 247.922 89.3748 249.079 89.3748C249.993 89.3748 250.787 89.0251 251.459 88.3392C252.118 87.6532 252.455 86.7521 252.455 85.6761C252.455 84.6673 252.239 83.7124 251.796 82.8113C251.352 81.9236 250.747 81.2511 249.993 80.8207C249.227 80.3768 248.527 80.1616 247.868 80.1616H247.855Z" fill="#EF858C"/>
<path d="M290.626 83.8875C290.384 83.6588 290.195 83.4033 290.074 83.1343C289.953 82.8653 289.886 82.5963 289.886 82.3004C289.886 81.5337 290.236 80.8612 290.948 80.2963C291.648 79.718 292.482 79.4355 293.423 79.4355C293.894 79.4355 294.526 79.57 295.32 79.839V82.3407H294.741C294.701 81.6413 294.486 81.0764 294.096 80.6326C293.706 80.1887 293.235 79.9735 292.684 79.9735C292.226 79.9735 291.85 80.108 291.554 80.3905C291.258 80.6595 291.11 81.0226 291.11 81.4396C291.11 81.8565 291.258 82.2331 291.554 82.5828C291.836 82.946 292.536 83.484 293.638 84.2372C294.472 84.8021 295.037 85.2459 295.333 85.5956C295.616 85.9453 295.764 86.3757 295.764 86.8868C295.764 87.7207 295.373 88.4604 294.607 89.1195C293.84 89.7785 292.966 90.1013 291.984 90.1013C291.285 90.1013 290.505 89.9399 289.63 89.6037V86.7254H290.195C290.195 87.5324 290.424 88.2183 290.895 88.7563C291.365 89.2943 291.917 89.5633 292.562 89.5633C293.154 89.5633 293.625 89.3885 293.961 89.0388C294.311 88.6891 294.472 88.2587 294.472 87.7207C294.472 87.2634 294.338 86.8464 294.055 86.4967C293.773 86.147 293.127 85.6494 292.119 84.9769C291.567 84.6138 291.056 84.2506 290.599 83.874L290.626 83.8875Z" fill="#EF858C"/>
<path d="M311.863 79.6638H315.763V80.0539C315.279 80.0539 314.956 80.1615 314.795 80.3229C314.633 80.4977 314.553 80.834 314.553 81.3182V84.5462L316.53 82.6094C316.839 82.3 317.135 81.9503 317.418 81.5468C317.7 81.1568 317.835 80.834 317.835 80.5784C317.835 80.2422 317.566 80.0673 317.014 80.0404V79.6504H320.686V80.0404C320 80.1211 319.26 80.5381 318.467 81.3047L315.884 83.8064L318.682 87.5455C319.637 88.8367 320.457 89.4688 321.143 89.4688V89.8589H318.574L314.566 84.4789V88.218C314.566 89.0384 314.97 89.4554 315.777 89.4823V89.8723H311.876V89.4823C312.36 89.4823 312.683 89.3881 312.845 89.2133C313.006 89.0384 313.087 88.7022 313.087 88.218V81.3047C313.087 80.7802 312.993 80.4439 312.818 80.296C312.643 80.1346 312.32 80.0539 311.876 80.0539V79.6638H311.863Z" fill="#EF858C"/>
<path d="M340.605 80.0402C340.135 80.0402 339.798 80.1478 339.637 80.3092C339.476 80.4841 339.395 80.8069 339.395 81.2911V88.2043C339.395 89.0248 339.798 89.4417 340.605 89.4686V89.8586H336.705V89.4686C337.189 89.4686 337.512 89.3744 337.673 89.1996C337.835 89.0247 337.915 88.6885 337.915 88.2043V81.2911C337.915 80.78 337.821 80.4437 337.646 80.2823C337.471 80.1209 337.149 80.0402 336.705 80.0268V79.6367H340.605V80.0268V80.0402Z" fill="#EF858C"/>
<path d="M356.772 79.6638H359.395L365.205 87.4648V85.0841C365.205 83.5643 365.084 82.3538 364.856 81.4661C364.627 80.5784 364.25 80.0942 363.739 80.0404V79.6504H367.223V80.0404C366.254 80.1211 365.77 81.7217 365.77 84.8286V90.222H365.394L358.507 80.9147V83.8871C358.507 85.7701 358.628 87.1554 358.857 88.0431C359.086 88.9308 359.462 89.415 359.987 89.4823V89.8723H356.517V89.4823C357.485 89.3343 357.969 87.5051 357.969 83.9813V81.224C357.969 80.7533 357.875 80.4439 357.687 80.2825C357.498 80.1211 357.203 80.0404 356.772 80.0404V79.6504V79.6638Z" fill="#EF858C"/>
<path d="M411.406 87.9224C409.724 89.375 408.191 90.1013 406.792 90.1013C405.663 90.1013 404.64 89.6709 403.739 88.7967C402.838 87.9359 402.394 86.7388 402.394 85.2325C402.394 84.1699 402.623 83.2284 403.094 82.3945C403.564 81.5606 404.223 80.8612 405.084 80.2829C405.945 79.718 406.981 79.4355 408.178 79.4355C409.227 79.4355 410.222 79.5969 411.15 79.9332V82.3407H410.585C410.518 81.5875 410.182 80.9957 409.59 80.5788C408.998 80.1484 408.285 79.9466 407.465 79.9466C406.308 79.9466 405.407 80.3636 404.748 81.2109C404.089 82.0583 403.766 83.0939 403.766 84.3179C403.766 85.6494 404.143 86.7523 404.883 87.6265C405.636 88.5008 406.591 88.9446 407.774 88.9446C408.958 88.9446 410.155 88.447 411.406 87.4382V87.9224Z" fill="#EF858C"/>
<path d="M427.546 79.6638H431.446V80.0539C430.962 80.0539 430.639 80.148 430.478 80.3229C430.316 80.4977 430.236 80.8205 430.236 81.3182V89.4957H431.271C432.885 89.4957 433.84 88.6484 434.15 86.9537H434.728L434.042 90.2489H433.679C433.679 89.9934 433.558 89.8723 433.343 89.8723H427.559V89.4823C428.03 89.4823 428.353 89.3881 428.514 89.2133C428.675 89.0384 428.77 88.7022 428.77 88.218V81.3047C428.77 80.7936 428.675 80.4574 428.501 80.296C428.326 80.1346 428.003 80.0539 427.559 80.0404V79.6504L427.546 79.6638Z" fill="#EF858C"/>
<path d="M454.365 80.0402C453.88 80.0402 453.558 80.1478 453.396 80.3092C453.235 80.4841 453.154 80.8069 453.154 81.2911V88.2043C453.154 89.0248 453.558 89.4417 454.365 89.4686V89.8586H450.464V89.4686C450.948 89.4686 451.258 89.3744 451.433 89.1996C451.594 89.0247 451.675 88.6885 451.675 88.2043V81.2911C451.675 80.78 451.58 80.4437 451.406 80.2823C451.231 80.1209 450.908 80.0402 450.464 80.0268V79.6367H454.365V80.0268V80.0402Z" fill="#EF858C"/>
<path d="M470.545 79.6638H473.168L478.978 87.4648V85.0841C478.978 83.5643 478.857 82.3538 478.628 81.4661C478.4 80.5784 478.023 80.0942 477.512 80.0404V79.6504H480.995V80.0404C480.027 80.1211 479.543 81.7217 479.543 84.8286V90.222H479.166L472.28 80.9147V83.8871C472.28 85.7701 472.401 87.1554 472.63 88.0431C472.858 88.9308 473.235 89.415 473.759 89.4823V89.8723H470.289V89.4823C471.258 89.3343 471.742 87.5051 471.742 83.9813V81.224C471.742 80.7533 471.648 80.4439 471.459 80.2825C471.271 80.1211 470.975 80.0404 470.545 80.0404V79.6504V79.6638Z" fill="#EF858C"/>
<path d="M500.767 80.0402C500.282 80.0402 499.973 80.1478 499.798 80.3092C499.637 80.4841 499.556 80.8069 499.556 81.2911V88.2043C499.556 89.0248 499.96 89.4417 500.767 89.4686V89.8586H496.866V89.4686C497.35 89.4686 497.673 89.3744 497.835 89.1996C497.996 89.0247 498.077 88.6885 498.077 88.2043V81.2911C498.077 80.78 497.983 80.4437 497.808 80.2823C497.633 80.1209 497.31 80.0402 496.866 80.0268V79.6367H500.767V80.0268V80.0402Z" fill="#EF858C"/>
<path d="M526.026 87.9224C524.344 89.375 522.798 90.1013 521.412 90.1013C520.283 90.1013 519.26 89.6709 518.359 88.7967C517.458 87.9359 517.014 86.7388 517.014 85.2325C517.014 84.1699 517.243 83.2284 517.714 82.3945C518.184 81.5606 518.843 80.8612 519.704 80.2829C520.565 79.718 521.601 79.4355 522.798 79.4355C523.847 79.4355 524.842 79.5969 525.784 79.9332V82.3407H525.219C525.151 81.5875 524.815 80.9957 524.223 80.5788C523.632 80.1484 522.919 79.9466 522.098 79.9466C520.942 79.9466 520.04 80.3636 519.381 81.2109C518.722 82.0583 518.399 83.0939 518.399 84.3179C518.399 85.6494 518.776 86.7523 519.516 87.6265C520.269 88.5008 521.224 88.9446 522.408 88.9446C523.591 88.9446 524.788 88.447 526.039 87.4382V87.9224H526.026Z" fill="#EF858C"/>
<path d="M120.955 65.2588H532.159" stroke="#EF858C" stroke-width="0.9" stroke-miterlimit="10"/>
<path d="M23.5104 7.04781C16.4895 13.6383 14.3241 25.4069 24.5864 29.0787C25.4472 29.4015 26.2004 29.5091 25.4472 28.5407C24.694 27.5724 21.3449 24.4385 21.9905 18.7089C22.0981 17.5253 22.3133 17.7539 22.4209 18.6147C22.5285 19.4755 23.4297 25.1917 27.3974 27.6665C28.2582 28.2045 28.7962 28.0969 28.9172 26.6981C29.0248 25.2993 30.4236 22.1655 28.2716 17.5253C26.1062 12.8851 24.3846 10.1816 24.5998 7.6934C24.7074 6.94021 23.9542 6.40221 23.5238 7.04781H23.5104Z" fill="url(#paint0_linear_27_572)"/>
<path d="M100.161 44.9901C97.5522 41.1972 92.1722 39.368 89.7513 43.9813C89.5361 44.3714 89.4419 44.7211 89.9396 44.4252C90.4506 44.1293 92.1453 42.7574 94.7815 43.4568C95.333 43.5913 95.2119 43.672 94.7815 43.6585C94.3646 43.6585 91.6342 43.6854 90.1951 45.3936C89.8857 45.7567 89.8992 46.0257 90.5448 46.1737C91.1904 46.3216 92.5757 47.2093 94.8891 46.4965C97.2159 45.7971 98.6013 45.1515 99.7445 45.4339C100.094 45.5415 100.404 45.2187 100.121 44.9632L100.161 44.9901Z" fill="url(#paint1_linear_27_572)"/>
<path d="M75.2792 25.2455C70.908 27.142 67.9221 32.2798 72.105 35.7095C72.4547 36.0054 72.7909 36.1803 72.6026 35.6019C72.4143 35.0236 71.3787 32.9927 72.6295 30.4372C72.8716 29.8992 72.9389 30.0471 72.8447 30.4641C72.7506 30.881 72.226 33.7055 73.6517 35.5212C73.9611 35.9247 74.2301 35.9651 74.5125 35.3195C74.795 34.6874 75.9786 33.45 75.7499 30.9214C75.5213 28.3928 75.1581 26.8461 75.6827 25.7163C75.8575 25.38 75.602 25.0034 75.2926 25.2321L75.2792 25.2455Z" fill="url(#paint2_linear_27_572)"/>
<path d="M70.3296 93.127C71.4459 88.0026 68.7694 82.0578 63.0398 83.5776C62.5556 83.6986 62.179 83.8869 62.8111 84.0887C63.4567 84.2904 65.918 84.667 67.3975 87.4377C67.7203 88.0026 67.5455 87.9623 67.2361 87.5991C66.9268 87.2494 64.7479 84.9629 62.2059 85.084C61.6544 85.1109 61.4392 85.3261 61.8293 85.9851C62.2193 86.6442 62.5556 88.4868 64.9631 89.899C67.3706 91.3113 68.9846 91.9838 69.6437 93.1674C69.832 93.544 70.3296 93.5574 70.3296 93.127Z" fill="url(#paint3_linear_27_572)"/>
<path d="M61.6274 0.456834C56.355 2.20532 52.3739 7.81393 56.8527 12.2255C57.2293 12.6021 57.5924 12.8442 57.431 12.1582C57.2696 11.4723 56.2878 9.02442 58.0094 6.18649C58.3591 5.5947 58.4129 5.76955 58.2515 6.24029C58.1035 6.71104 57.1889 9.91212 58.655 12.1717C58.9778 12.6693 59.2871 12.7366 59.6772 12.0372C60.0672 11.3378 61.5601 10.0332 61.5601 7.08764C61.5601 4.14211 61.3046 2.31292 62.0174 1.06208C62.2595 0.685482 61.9905 0.228186 61.6139 0.456834H61.6274Z" fill="url(#paint4_linear_27_572)"/>
<path d="M7.10153 74.9426C12.0242 74.7947 16.8258 71.0153 14.1358 66.1329C13.9072 65.716 13.6651 65.4201 13.6247 66.0522C13.5844 66.6844 13.813 69.0112 11.6207 70.9884C11.1769 71.4053 11.1768 71.2439 11.4324 70.8808C11.6879 70.5176 13.2616 68.0159 12.5891 65.7294C12.4411 65.2318 12.199 65.0973 11.6879 65.5949C11.1768 66.0926 9.57631 66.8189 8.83657 69.334C8.09682 71.8357 7.84128 73.4631 6.91323 74.3374C6.61733 74.5929 6.72493 75.0637 7.10153 74.9561V74.9426Z" fill="url(#paint5_linear_27_572)"/>
<path d="M2.44785 66.5633C2.6227 58.2647 8.91725 50.0737 17.2024 54.5256C17.9018 54.9022 18.4129 55.3191 17.3503 55.3864C16.2878 55.4671 12.347 55.1308 9.05175 58.843C8.35235 59.5962 8.62135 59.5962 9.24005 59.1658C9.85874 58.7354 14.0417 56.0185 17.9152 57.1214C18.7626 57.3635 19.0047 57.767 18.1708 58.6547C17.3369 59.5424 16.1398 62.2458 11.9166 63.537C7.69331 64.8282 4.96298 65.2855 3.49694 66.8591C3.07999 67.3568 2.28645 67.1954 2.4613 66.5364L2.44785 66.5633Z" fill="url(#paint6_linear_27_572)"/>
<path d="M65.0033 4.29048C70.2623 2.48819 76.8527 4.64018 75.9919 10.9482C75.9247 11.4862 75.7767 11.9031 75.4808 11.2441C75.1849 10.585 74.4855 7.9892 71.3786 6.73836C70.7464 6.45591 70.8002 6.63076 71.2172 6.92666C71.6341 7.22256 74.3107 9.26694 74.5124 11.9973C74.5528 12.5891 74.351 12.8446 73.6113 12.5084C72.8715 12.1721 70.8809 12.0242 69.0921 9.63009C67.2898 7.22256 66.3752 5.59512 65.0437 5.01677C64.6267 4.85537 64.5595 4.31738 65.0033 4.27703V4.29048Z" fill="url(#paint7_linear_27_572)"/>
<path d="M45.4741 77.4846C40.807 80.4705 33.8803 79.9594 33.2347 73.6245C33.1675 73.0865 33.2078 72.6427 33.6517 73.221C34.0955 73.7859 35.3867 76.1397 38.7088 76.6239C39.3948 76.7449 39.2872 76.5835 38.8164 76.3952C38.3457 76.2069 35.2522 74.8485 34.4049 72.2526C34.2166 71.6877 34.3645 71.3918 35.1581 71.5398C35.9651 71.6877 37.9153 71.3515 40.2287 73.2614C42.5421 75.1713 43.8333 76.5432 45.2589 76.7853C45.7028 76.8391 45.9045 77.3367 45.4741 77.4846Z" fill="url(#paint8_linear_27_572)"/>
<path d="M77.3234 53.7726C80.2151 57.5252 80.2824 63.4431 74.9428 64.4653C74.4855 64.5595 74.1089 64.5595 74.5662 64.1291C75.0235 63.7121 76.9199 62.4344 77.0813 59.583C77.1351 58.9912 77.0006 59.0988 76.8795 59.5157C76.7585 59.9327 75.8304 62.6496 73.6785 63.5642C73.2077 63.7659 72.9522 63.6718 73.0194 62.9724C73.0867 62.273 72.6563 60.6455 74.1089 58.5339C75.5614 56.4223 76.624 55.2387 76.7316 54.0013C76.7316 53.6247 77.162 53.4229 77.3099 53.7726H77.3234Z" fill="url(#paint9_linear_27_572)"/>
<path d="M0.551437 42.0711C7.34364 34.5123 19.731 31.9568 23.8467 42.7033C24.2098 43.6044 24.3443 44.4114 23.2952 43.6313C22.2461 42.8512 18.8702 39.3946 12.8446 40.215C11.5938 40.363 11.8494 40.5782 12.7639 40.6723C13.6785 40.7665 19.731 41.5869 22.4344 45.716C23.0262 46.6172 22.9186 47.1821 21.4391 47.33C19.9596 47.478 16.6779 49.0382 11.7283 46.8593C6.77874 44.6804 3.88701 42.9185 1.26428 43.2144C0.470738 43.3489 -0.121058 42.5688 0.551437 42.0846V42.0711Z" fill="url(#paint10_linear_27_572)"/>
<path d="M65.1649 97.0142C58.8838 99.9463 50.6793 98.144 51.3249 90.2085C51.3653 89.536 51.5132 88.998 51.9302 89.7781C52.3337 90.5582 53.3693 93.6786 57.2429 94.8218C58.0364 95.0774 57.9423 94.8756 57.4177 94.5663C56.8932 94.2569 53.4904 92.0646 53.06 88.7021C52.9658 87.9758 53.1945 87.6396 54.1225 87.9489C55.0505 88.2717 57.485 88.1776 59.8387 90.9214C62.1924 93.6652 63.4298 95.575 65.0842 96.113C65.5953 96.2475 65.7298 96.9066 65.1783 97.0276L65.1649 97.0142Z" fill="url(#paint11_linear_27_572)"/>
<path d="M100.592 48.0022C97.2025 57.0137 87.1689 63.5369 79.8387 55.4669C79.2066 54.7944 78.8165 54.1354 80.0001 54.4582C81.1971 54.781 85.3666 56.664 90.4103 53.8798C91.4594 53.3149 91.1635 53.2208 90.3296 53.4494C89.4957 53.6781 83.8737 55.0365 80.0673 52.3331C79.2335 51.7413 79.1259 51.2033 80.3901 50.5712C81.641 49.9256 83.9947 47.4239 89.1191 47.6391C94.2301 47.8543 97.3908 48.4057 99.5966 47.249C100.256 46.859 101.049 47.3566 100.605 48.0022H100.592Z" fill="url(#paint12_linear_27_572)"/>
<path d="M63.9408 28.4736C61.9368 27.2631 61.466 24.9363 61.466 24.9363C61.4391 24.7883 61.5467 24.6404 61.6947 24.6C61.6947 24.6 64.1426 24.0217 66.1466 25.2321C68.1506 26.4426 68.6214 28.7695 68.6214 28.7695C68.6483 28.9174 68.5541 29.0788 68.3927 29.1057C68.3927 29.1057 65.9449 29.6841 63.9408 28.4736Z" fill="url(#paint13_linear_27_572)"/>
<path d="M20.6187 53.9747C20.8339 51.2175 23.0397 49.4824 23.0397 49.4824C23.1876 49.3748 23.4028 49.4017 23.5239 49.5497C23.5239 49.5497 25.4338 51.8227 25.2186 54.5934C25.0034 57.3506 22.7976 59.0857 22.7976 59.0857C22.6497 59.2067 22.4345 59.1798 22.3134 59.0319C22.3134 59.0319 20.4035 56.7588 20.6187 53.9882V53.9747Z" fill="url(#paint14_linear_27_572)"/>
<path d="M50.0066 75.7904C52.4545 74.4993 55.1041 75.4542 55.1041 75.4542C55.279 75.5214 55.3597 75.7232 55.3059 75.898C55.3059 75.898 54.3913 78.7225 51.93 80.0137C49.4821 81.3049 46.8324 80.35 46.8324 80.35C46.6576 80.2827 46.5634 80.0944 46.6307 79.9061C46.6307 79.9061 47.5453 77.0816 50.0066 75.7904Z" fill="url(#paint15_linear_27_572)"/>
<path d="M62.9591 80.6325C61.5469 83.4569 57.8078 84.1429 57.8078 84.1429C57.5657 84.1832 57.2832 84.0353 57.1756 83.8201C57.1756 83.8201 55.481 80.4173 56.9066 77.5928C58.3189 74.7683 62.0579 74.0824 62.0579 74.0824C62.3 74.0286 62.5825 74.1765 62.6901 74.4051C62.6901 74.4051 64.3713 77.808 62.9591 80.6325Z" fill="url(#paint16_linear_27_572)"/>
<path d="M78.4532 87.9081C83.9138 87.9754 89.4149 84.0211 86.6711 78.4932C86.4424 78.0224 86.1734 77.6727 86.1062 78.3721C86.0255 79.0581 86.1734 81.6539 83.6448 83.7386C83.1337 84.1825 83.1472 83.9942 83.4431 83.6041C83.739 83.2141 85.6085 80.5241 84.9764 77.9552C84.8419 77.3903 84.5729 77.2289 83.9676 77.7534C83.3758 78.278 81.5736 79.0043 80.6321 81.7615C79.6906 84.5053 79.3274 86.2807 78.2649 87.2087C77.9152 87.4777 78.0228 87.9888 78.4397 87.8946L78.4532 87.9081Z" fill="url(#paint17_linear_27_572)"/>
<path d="M87.236 75.3595C85.5413 73.2882 86.1869 70.0603 86.1869 70.0603C86.2407 69.8451 86.429 69.6702 86.6307 69.6568C86.6307 69.6568 89.7511 69.4416 91.4458 71.5128C93.1405 73.5841 92.4949 76.8121 92.4949 76.8121C92.4545 77.0273 92.2528 77.2022 92.051 77.2156C92.051 77.2156 88.9307 77.4308 87.236 75.3595Z" fill="url(#paint18_linear_27_572)"/>
<path d="M92.616 68.2452C88.8635 68.6353 85.7701 65.2997 85.7701 65.2997C85.5683 65.0845 85.5414 64.7079 85.6893 64.4523C85.6893 64.4523 88.0431 60.5653 91.7956 60.1753C95.5481 59.7987 98.6416 63.1208 98.6416 63.1208C98.8433 63.336 98.8837 63.7126 98.7358 63.9681C98.7358 63.9681 96.382 67.8552 92.6295 68.2452H92.616Z" fill="url(#paint19_linear_27_572)"/>
<path d="M9.83198 29.7381C7.3841 26.6178 8.47355 21.9237 8.47355 21.9237C8.54079 21.6144 8.83669 21.3723 9.14604 21.3588C9.14604 21.3588 13.7863 21.1974 16.2341 24.3178C18.682 27.4382 17.606 32.1188 17.606 32.1188C17.5388 32.4147 17.2429 32.6837 16.9335 32.6837C16.9335 32.6837 12.2933 32.8451 9.84543 29.7247L9.83198 29.7381Z" fill="url(#paint20_linear_27_572)"/>
<path d="M30.3295 4.77516C31.9031 2.51558 35.2118 2.39453 35.2118 2.39453C35.427 2.39453 35.6556 2.54248 35.7229 2.74423C35.7229 2.74423 36.7585 5.89151 35.1849 8.15109C33.6112 10.4107 30.3026 10.5317 30.3026 10.5317C30.0874 10.5317 29.8587 10.3838 29.7915 10.182C29.7915 10.182 28.7693 7.03475 30.3429 4.77516H30.3295Z" fill="url(#paint21_linear_27_572)"/>
<path d="M7.12856 33.1C7.12856 34.2298 6.21397 35.1444 5.08418 35.1444C3.95439 35.1444 3.03979 34.2298 3.03979 33.1C3.03979 31.9703 3.95439 31.0557 5.08418 31.0557C6.21397 31.0557 7.12856 31.9703 7.12856 33.1Z" fill="url(#paint22_linear_27_572)"/>
<path d="M77.9557 90.7602C77.9557 91.89 77.0411 92.8046 75.9113 92.8046C74.7815 92.8046 73.8669 91.89 73.8669 90.7602C73.8669 89.6304 74.7815 88.7158 75.9113 88.7158C77.0411 88.7158 77.9557 89.6304 77.9557 90.7602Z" fill="url(#paint23_linear_27_572)"/>
<path d="M14.9967 79.7309C14.9967 80.8607 14.0821 81.7753 12.9523 81.7753C11.8226 81.7753 10.908 80.8607 10.908 79.7309C10.908 78.6011 11.8226 77.6865 12.9523 77.6865C14.0821 77.6865 14.9967 78.6011 14.9967 79.7309Z" fill="url(#paint24_linear_27_572)"/>
<path d="M83.8063 66.698C83.8063 67.5857 83.0801 68.312 82.1924 68.312C81.3047 68.312 80.5784 67.5857 80.5784 66.698C80.5784 65.8103 81.3047 65.084 82.1924 65.084C83.0801 65.084 83.8063 65.8103 83.8063 66.698Z" fill="url(#paint25_linear_27_572)"/>
<path d="M4.65366 50.8678C4.65366 52.159 3.61802 53.1947 2.32683 53.1947C1.03564 53.1947 0 52.159 0 50.8678C0 49.5767 1.03564 48.541 2.32683 48.541C3.61802 48.541 4.65366 49.5767 4.65366 50.8678Z" fill="url(#paint26_linear_27_572)"/>
<path d="M74.889 17.9821C74.889 19.2598 73.8534 20.3089 72.5622 20.3089C71.271 20.3089 70.2354 19.2733 70.2354 17.9821C70.2354 16.6909 71.2844 15.6553 72.5622 15.6553C73.8399 15.6553 74.889 16.7044 74.889 17.9821Z" fill="url(#paint27_linear_27_572)"/>
<path d="M51.7686 1.37199C52.2797 6.24085 54.5931 23.0667 36.1398 27.949C35.2656 28.3928 34.8621 27.949 35.8439 27.2227C36.8258 26.4964 45.5682 17.8481 46.1466 11.9571C46.308 10.2086 45.6086 11.5267 45.5682 11.8764C45.5279 12.2261 41.2105 20.955 33.2885 26.5906C32.3739 27.3706 31.9569 26.7923 32.347 25.0976C32.737 23.4029 29.7915 15.0236 38.1842 7.93554C41.2374 5.35316 48.5272 3.77952 50.4505 0.484294C50.7464 -0.0268023 51.5534 -0.524449 51.7552 1.38544L51.7686 1.37199Z" fill="url(#paint28_linear_27_572)"/>
<path d="M94.1224 25.8774C94.0955 30.1545 94.4721 45.0032 77.9557 47.4645C77.1487 47.7604 76.8393 47.33 77.7674 46.8055C78.6954 46.2675 87.1419 39.5963 88.2045 34.5257C88.5138 33.0193 87.7741 34.0953 87.7068 34.4047C87.6396 34.7006 83.0397 41.8694 75.6019 45.9985C74.7411 46.5903 74.4318 46.0523 74.9294 44.6131C75.4271 43.174 73.692 35.6017 81.6678 30.2621C84.5865 28.3119 91.0559 27.6528 93.0599 24.9763C93.3692 24.5593 94.1224 24.2096 94.109 25.8909L94.1224 25.8774Z" fill="url(#paint29_linear_27_572)"/>
<path d="M31.9301 69.6035C31.9301 69.0386 30.4372 68.5813 28.5811 68.5813C28.3928 68.5813 28.218 68.5813 28.0431 68.5813C28.2045 68.5006 28.3525 68.4199 28.5139 68.3258C30.1144 67.3977 31.1904 66.2545 30.8945 65.7568C30.6121 65.2592 29.0922 65.6223 27.4782 66.5369C27.3168 66.6311 27.1689 66.7252 27.0075 66.8194C27.1016 66.6714 27.1958 66.51 27.2899 66.3621C28.218 64.7615 28.5677 63.2282 28.07 62.9458C27.5858 62.6634 26.4291 63.7259 25.5011 65.3264C25.4069 65.4878 25.3262 65.6492 25.2455 65.8106C25.2455 65.6223 25.259 65.4475 25.259 65.2592C25.259 63.4165 24.8017 61.9102 24.2368 61.9102C23.6719 61.9102 23.2146 63.4165 23.2146 65.2592C23.2146 65.4475 23.2146 65.6223 23.2281 65.8106C23.1474 65.6492 23.0667 65.4878 22.9725 65.3264C22.0445 63.7259 20.9012 62.6499 20.4036 62.9458C19.9059 63.2282 20.2556 64.7615 21.1837 66.3621C21.2778 66.5235 21.372 66.6849 21.4661 66.8328C21.3182 66.7387 21.1568 66.6445 20.9954 66.5504C19.3948 65.6223 17.8615 65.2726 17.5791 65.7703C17.2967 66.2679 18.3592 67.4112 19.9597 68.3392C20.1211 68.4334 20.2825 68.5141 20.4439 68.5948C20.2691 68.5948 20.0808 68.5948 19.8925 68.5948C18.0364 68.5948 16.5435 69.0521 16.5435 69.6169C16.5435 70.1818 18.0364 70.6391 19.8925 70.6391C20.0808 70.6391 20.2556 70.6391 20.4439 70.6257C20.2825 70.7064 20.1211 70.7871 19.9597 70.8947C18.3592 71.8227 17.2967 72.966 17.5791 73.4502C17.8615 73.9478 19.3948 73.5981 20.9954 72.6701C21.1568 72.5759 21.3182 72.4818 21.4661 72.3876C21.372 72.5356 21.2778 72.6835 21.1837 72.8449C20.2556 74.4455 19.9059 75.9788 20.4036 76.2612C20.8878 76.5436 22.0445 75.4811 22.9725 73.8671C23.0667 73.7057 23.1474 73.5443 23.2281 73.3829C23.2281 73.5578 23.2146 73.7461 23.2146 73.9209C23.2146 75.777 23.6719 77.2699 24.2368 77.2699C24.8017 77.2699 25.259 75.777 25.259 73.9209C25.259 73.7326 25.259 73.5578 25.2455 73.3829C25.3262 73.5443 25.4069 73.7057 25.5011 73.8671C26.4291 75.4677 27.5724 76.5436 28.07 76.2612C28.5677 75.9788 28.218 74.4455 27.2899 72.8449C27.1958 72.6835 27.1016 72.5356 27.0075 72.3742C27.1554 72.4683 27.3168 72.5625 27.4782 72.6566C29.0788 73.5847 30.6121 73.9344 30.8945 73.4367C31.1769 72.9391 30.1144 71.7958 28.5139 70.8812C28.3525 70.7871 28.1911 70.7064 28.0297 70.6122C28.2045 70.6122 28.3928 70.6257 28.5811 70.6257C30.4372 70.6257 31.9301 70.1684 31.9301 69.6035ZM24.2637 72.4683C22.7035 72.4683 21.4527 71.204 21.4527 69.6573C21.4527 68.1106 22.717 66.8463 24.2637 66.8463C25.8104 66.8463 27.0747 68.1106 27.0747 69.6573C27.0747 71.204 25.8104 72.4683 24.2637 72.4683Z" fill="url(#paint30_linear_27_572)"/>
<path d="M82.4478 73.5705C82.3402 72.7501 80.4169 71.1361 78.0632 71.7413C79.462 69.8449 78.8836 67.2894 78.3053 66.9128C77.6731 66.5228 77.4848 66.8187 77.0141 66.6035C76.5433 66.4017 76.624 66.0655 75.9112 65.8637C75.0907 65.6351 72.7236 66.8187 72.4411 69.3876C71.2575 67.4105 68.7827 66.9128 68.2178 67.2894C67.5991 67.7063 67.7874 68.0023 67.3974 68.3385C67.0073 68.6882 66.7383 68.4595 66.2676 69.0379C65.6758 69.7373 65.8372 72.6694 68.5003 73.8799C66.0793 74.8886 65.4472 77.7669 65.8506 78.3856C66.2676 79.0043 66.5635 78.816 66.9132 79.206C67.2494 79.5961 67.0477 79.8651 67.6126 80.3358C68.164 80.7931 70.1143 80.7931 71.5131 79.4616C71.7148 81.479 73.275 82.9585 73.9071 82.9585C74.6603 82.9585 74.6603 82.5954 75.1714 82.5147C75.6825 82.434 75.7901 82.7568 76.503 82.5416C77.31 82.2995 78.6415 80.0803 77.5655 77.7803C80.0134 78.6008 82.3806 76.9061 82.4747 76.1798C82.5823 75.44 82.2461 75.3862 82.2461 74.8617C82.2461 74.3506 82.5823 74.2833 82.4882 73.5571L82.4478 73.5705ZM75.7632 75.2114C75.2252 76.4488 73.7861 77.0002 72.5622 76.4622C71.3248 75.9108 70.7733 74.4851 71.3113 73.2612C71.8493 72.0238 73.2884 71.4723 74.5124 72.0103C75.7363 72.5483 76.3012 73.9875 75.7632 75.2248V75.2114Z" fill="url(#paint31_linear_27_572)"/>
<path fill-rule="evenodd" clip-rule="evenodd" d="M16.7182 85.1921C16.651 83.9816 18.0094 82.919 19.7579 82.8114H19.8251H19.8789H19.9731H20.121H20.1614H20.2555H20.2824H20.3362H20.39H20.4169V82.7845V82.7711V82.7442V82.7307V82.7038H20.39V82.6904V82.6635V82.65V82.6231V82.6097V82.5828H20.3766V82.5559V82.529V82.5021V82.4752H20.3631V82.4617V82.4348V82.4214V82.4079L20.3362 82.3541V82.3138H20.3093V82.3003V82.2869V82.26V82.2196C19.6637 80.5922 20.0538 78.911 21.1836 78.4671C22.3134 78.0233 23.7525 78.9917 24.3847 80.6191L24.4116 80.6998L24.4385 80.7671V80.7805L24.4654 80.8478L24.4923 80.915L24.5192 80.9957V81.063H24.5461V81.0764V81.1302H24.5595V81.1437V81.1705V81.184V81.1974V81.2243V81.2512V81.2781V81.2647H24.573V81.2378V81.2243V81.2109V81.1974V81.184L24.5864 81.1705V81.1571V81.1437L24.5999 81.1168V81.1033V81.0899L24.6133 81.063L24.6268 81.0361V81.0226V81.0091V80.9957V80.9822V80.9688L24.6537 80.9419L24.7075 80.8881L24.7478 80.8478C26.1062 79.7314 27.8278 79.5969 28.5945 80.5384C29.3611 81.4799 28.8904 83.1342 27.5319 84.2506L27.4647 84.3044L27.4243 84.3447L27.3705 84.3851L27.3436 84.412H27.3167V84.4389V84.4523L27.3033 84.4658L27.2898 84.4792V84.4927L27.2764 84.5061H27.3033H27.3302V84.5196H27.3436H27.3571H27.3705V84.533H27.384H27.4109V84.5599L27.4781 84.5868L27.5454 84.6272L27.6126 84.6675C29.0921 85.609 29.7512 87.2096 29.0921 88.2317C28.4331 89.2539 26.7115 89.3212 25.232 88.3797L25.1782 88.3393L25.1379 88.3125L25.0975 88.2855V88.2721H25.0841V88.2586L25.0706 88.2452V88.2317V88.2183V88.2048H25.0571V88.1779V88.1645H25.0437V88.1376V88.1241L25.0168 88.0972V88.0838H25.0034V88.0569C24.9765 88.2855 24.9361 88.5411 24.8689 88.7832C24.425 90.4779 23.1204 91.6077 21.9368 91.2983C20.7666 90.989 20.1748 89.3615 20.6052 87.6669C20.6725 87.4113 20.7532 87.1827 20.8608 86.954L20.8204 86.9675H20.7935H20.7801H20.7532H20.7263H20.6994H20.6725H20.659H20.6456H20.6187H20.5783H20.5514H20.5111H20.4707H20.4304H20.3766H20.3228H20.3093C18.5608 87.0751 17.0814 86.1739 17.0141 84.9634L16.7182 85.1921Z" fill="url(#paint32_linear_27_572)"/>
<path fill-rule="evenodd" clip-rule="evenodd" d="M23.1608 36.8393C22.6901 36.3013 22.9456 35.3194 23.7257 34.6469L23.7526 34.62L23.7661 34.6066L23.793 34.5797L23.8199 34.5528H23.8468V34.5259V34.5124H23.8333H23.8199H23.8064H23.793H23.7661V34.499L23.7392 34.4855H23.7257C22.8515 33.9475 22.4345 33.0195 22.7977 32.4143C23.1608 31.809 24.1696 31.7418 25.0573 32.2663L25.0976 32.2932L25.1245 32.3201L25.1514 32.347L25.1918 32.3739L25.2321 32.4008L25.259 32.4277L25.2859 32.4546V32.4681V32.4815V32.4546V32.4277V32.4008V32.3739V32.3605V32.347V32.3201V32.3067V32.2663V32.2529V32.226V32.2125V32.1856V32.1318V32.1049C25.528 31.1096 26.2812 30.4237 26.9672 30.5851C27.6531 30.7465 28.0297 31.688 27.8011 32.6833V32.7371H27.7876V32.7774V32.8178V32.8447V32.885V32.8984V32.9253V32.9388V32.9523V32.9657V32.9792H27.8145H27.828H27.8414H27.8548H27.8683H27.8817H27.8952H27.9221H27.949H27.9759H28.0297H28.0835H28.1238C29.146 32.885 30.0203 33.3961 30.0875 34.0955C30.1548 34.8083 29.3747 35.4539 28.3525 35.5346H28.2987H28.2718H28.1776H28.0969H28.0028H27.9759C28.0566 35.6557 28.1238 35.7902 28.1776 35.9247C28.5811 36.8662 28.3659 37.8615 27.7204 38.1439C27.0613 38.4264 26.214 37.8749 25.8105 36.9334C25.7567 36.7989 25.7029 36.6644 25.676 36.5165V36.5299V36.5434V36.5568L25.6625 36.5703L25.6356 36.5972H25.6222V36.6241C24.8421 37.2966 23.8468 37.4042 23.376 36.8662L23.1608 36.8393Z" fill="url(#paint33_linear_27_572)"/>
<path fill-rule="evenodd" clip-rule="evenodd" d="M54.23 25.1246C53.5172 25.0708 53.0195 24.1966 53.0868 23.1744V23.134V23.1071V23.0802V23.0399V22.9995V22.9592V22.9457V22.9188V22.9054V22.8919V22.8785V22.865V22.8381H53.0599H53.0464H53.033H53.0195H52.9657H52.9388H52.9254H52.9119C51.9166 23.0802 50.9751 22.7171 50.8003 22.0311C50.6389 21.3317 51.3114 20.5785 52.3067 20.3499H52.3605V20.3364H52.3874H52.4277H52.4681H52.5084H52.5488H52.5891H52.616H52.6564V20.323V20.3095V20.2961V20.2826V20.2692V20.2557L52.6295 20.2288L52.6026 20.1885C52.0646 19.3143 52.1184 18.3055 52.7236 17.9289C53.3289 17.5523 54.2569 17.9558 54.7949 18.8435L54.8218 18.8839V18.9108H54.8353L54.8487 18.9511V18.978V19.0049V19.0184V19.0318V19.0453V19.0587V19.0722V19.0453V19.0318V19.0049V18.9915V18.9646L54.8756 18.9242L54.9025 18.8839L54.9294 18.8435C55.5884 18.0634 56.5703 17.8079 57.1083 18.2652C57.6463 18.7225 57.5521 19.7312 56.8796 20.5113L56.8527 20.5382V20.5651H56.8258L56.7989 20.592V20.6054V20.6189L56.7855 20.6323C56.9334 20.6592 57.0679 20.713 57.2024 20.7668C58.1574 21.1569 58.6954 22.0042 58.4264 22.6633C58.1574 23.3223 57.1621 23.5375 56.2206 23.1475C56.0861 23.0937 55.9516 23.013 55.8305 22.9457V22.9726V22.9995V23.0264V23.0399V23.0668V23.0937V23.1206V23.1475V23.1744V23.1878V23.2147V23.2416V23.2551V23.282V23.3223V23.3492C55.7498 24.3849 55.1177 25.165 54.4049 25.1112L54.23 25.1246Z" fill="url(#paint34_linear_27_572)"/>
<path d="M66.3888 16.422C66.3888 16.422 66.335 16.422 66.3215 16.4086C66.335 16.4086 66.3619 16.3817 66.3888 16.3682C67.8145 15.4133 68.7156 14.27 68.4197 13.8127C68.1104 13.3554 66.7116 13.7589 65.2859 14.7004C65.259 14.7139 65.2455 14.7273 65.2321 14.7408C65.2321 14.7139 65.2321 14.7004 65.2455 14.6735C65.5818 12.9923 65.4069 11.5397 64.869 11.4321C64.331 11.3245 63.6181 12.6022 63.2819 14.2835C63.2819 14.3104 63.2819 14.3373 63.2819 14.3507C63.2819 14.3238 63.255 14.3104 63.2415 14.2835C62.2866 12.8578 61.1433 11.9567 60.686 12.2526C60.2287 12.5619 60.6188 13.9607 61.5737 15.3864C61.5872 15.3998 61.6006 15.4267 61.6141 15.4402C61.5872 15.4402 61.5603 15.4402 61.5468 15.4267C59.8656 15.0905 58.413 15.2653 58.3054 15.8033C58.1978 16.3548 59.4755 17.0542 61.1568 17.3904C61.1837 17.3904 61.2106 17.3904 61.224 17.3904C61.2106 17.3904 61.1837 17.4173 61.1568 17.4308C59.7311 18.3857 58.8165 19.5289 59.1258 19.9862C59.4352 20.4435 60.834 20.04 62.2597 19.0986C62.2731 19.0986 62.3 19.0717 62.3135 19.0582C62.3135 19.0851 62.3135 19.112 62.3 19.1255C61.9638 20.8067 62.1386 22.2593 62.6766 22.3669C63.2146 22.4745 63.9275 21.1967 64.2637 19.5155C64.2637 19.4886 64.2637 19.4617 64.2772 19.4482C64.2772 19.4617 64.3041 19.4886 64.3175 19.502C65.2724 20.9277 66.4157 21.8289 66.873 21.533C67.3303 21.2236 66.9268 19.8248 65.9853 18.3992C65.9853 18.3857 65.9584 18.3588 65.9449 18.3454C65.9718 18.3454 65.9987 18.3454 66.0122 18.3588C67.6934 18.6951 69.146 18.5202 69.2536 17.9822C69.3612 17.4442 68.0835 16.7314 66.4022 16.3951L66.3888 16.422Z" fill="url(#paint35_linear_27_572)"/>
<path d="M81.6274 19.354C81.6274 19.354 79.4216 18.5335 78.3187 16.8523C77.2158 15.171 78.3725 14.0143 78.8567 13.3419C79.3409 12.6694 79.3005 12.4945 79.7444 12.629C80.1882 12.7635 81.9367 12.8442 82.8916 14.7137C83.8466 16.5833 82.0847 18.7218 82.0712 19.1522C82.0578 19.5692 81.7888 19.5423 81.6408 19.354H81.6274Z" fill="url(#paint36_linear_27_572)"/>
<path d="M82.3403 20.4434C82.3403 20.4434 84.5461 21.2639 85.649 22.9451C86.7519 24.6264 85.5952 25.783 85.111 26.4555C84.6268 27.128 84.6806 27.3029 84.2233 27.1549C83.7794 27.007 82.031 26.9397 81.0895 25.0702C80.1345 23.2007 81.883 21.0621 81.9099 20.6452C81.9368 20.2282 82.1924 20.2551 82.3403 20.4434Z" fill="url(#paint37_linear_27_572)"/>
<path d="M82.5286 19.5419C82.5286 19.5419 83.3491 17.3361 85.0303 16.2332C86.7116 15.1303 87.8683 16.287 88.5408 16.7712C89.2132 17.2554 89.3881 17.2151 89.2401 17.6589C89.1056 18.1028 89.025 19.8513 87.1554 20.7927C85.2859 21.7477 83.1473 19.9992 82.7304 19.9723C82.3134 19.9454 82.3403 19.6899 82.5286 19.5419Z" fill="url(#paint38_linear_27_572)"/>
<path d="M81.4526 20.242C81.4526 20.242 80.6321 22.4478 78.9509 23.5507C77.2696 24.6536 76.113 23.4969 75.4405 23.0127C74.768 22.5285 74.5931 22.5823 74.7411 22.1384C74.889 21.6946 74.9563 19.9461 76.8258 18.9911C78.6953 18.0497 80.8339 19.7981 81.2508 19.8116C81.6678 19.8385 81.6409 20.094 81.4526 20.242Z" fill="url(#paint39_linear_27_572)"/>
<path d="M82.6361 19.2871C82.3133 18.8836 81.7484 18.8298 81.3449 19.1391C80.9548 19.4485 80.8876 20.0268 81.1969 20.4169C81.5063 20.8069 82.0846 20.8742 82.4881 20.5648C82.8782 20.2555 82.9454 19.6771 82.6361 19.2871Z" fill="url(#paint40_linear_27_572)"/>
<path d="M39.2199 89.6439C39.2199 89.6439 35.8709 89.079 33.8534 86.9942C31.8359 84.9229 33.154 82.9593 33.6651 81.8698C34.1628 80.7938 34.0552 80.5517 34.7276 80.6324C35.4001 80.7131 37.8884 80.35 39.7445 82.7441C41.6005 85.1381 39.6907 88.6351 39.7848 89.2404C39.8655 89.8321 39.4889 89.8725 39.2199 89.6439Z" fill="url(#paint41_linear_27_572)"/>
<path d="M40.5244 90.9759C40.5244 90.9759 43.8734 91.5542 45.8909 93.6255C47.9084 95.7102 46.5903 97.6605 46.0926 98.7499C45.595 99.8393 45.7026 100.068 45.0301 99.9873C44.3576 99.9066 41.8694 100.283 40.0133 97.8757C38.1572 95.4816 40.0536 91.9846 39.9729 91.3794C39.8922 90.7876 40.2688 90.7472 40.5244 90.9759Z" fill="url(#paint42_linear_27_572)"/>
<path d="M40.5378 89.6703C40.5378 89.6703 41.1027 86.3213 43.174 84.3038C45.2587 82.2864 47.2224 83.6044 48.2984 84.1155C49.3744 84.6132 49.6165 84.5056 49.5358 85.1781C49.4551 85.8506 49.8317 88.3388 47.4242 90.1949C45.0301 92.051 41.5331 90.1545 40.9279 90.2352C40.3226 90.3159 40.2957 89.9394 40.5244 89.6838L40.5378 89.6703Z" fill="url(#paint43_linear_27_572)"/>
<path d="M39.2064 90.9621C39.2064 90.9621 38.6415 94.2977 36.5567 96.3286C34.4854 98.3461 32.5218 97.028 31.4323 96.5169C30.3563 96.0193 30.1142 96.1269 30.1949 95.4544C30.2756 94.7819 29.9125 92.2937 32.3066 90.4376C34.7006 88.5815 38.1976 90.4914 38.8029 90.3972C39.4081 90.3165 39.435 90.6931 39.2064 90.9487V90.9621Z" fill="url(#paint44_linear_27_572)"/>
<path d="M40.6321 89.2806C40.0806 88.7964 39.2467 88.8637 38.776 89.4285C38.3052 89.98 38.3725 90.8139 38.9239 91.2846C39.4754 91.7554 40.3093 91.6881 40.78 91.1367C41.2508 90.5852 41.197 89.7513 40.6321 89.2806Z" fill="url(#paint45_linear_27_572)"/>
</g>
<defs>
<linearGradient id="paint0_linear_27_572" x1="39.4754" y1="-16.1533" x2="-2.78418" y2="82.9725" gradientUnits="userSpaceOnUse">
<stop stop-color="#FCDCB5"/>
<stop offset="0.79" stop-color="#EF858C"/>
</linearGradient>
<linearGradient id="paint1_linear_27_572" x1="108.393" y1="13.2214" x2="66.1332" y2="112.347" gradientUnits="userSpaceOnUse">
<stop stop-color="#FCDCB5"/>
<stop offset="0.79" stop-color="#EF858C"/>
</linearGradient>
<linearGradient id="paint2_linear_27_572" x1="85.0841" y1="3.28184" x2="42.8246" y2="102.421" gradientUnits="userSpaceOnUse">
<stop stop-color="#FCDCB5"/>
<stop offset="0.79" stop-color="#EF858C"/>
</linearGradient>
<linearGradient id="paint3_linear_27_572" x1="99.9463" y1="9.63006" x2="57.6867" y2="108.756" gradientUnits="userSpaceOnUse">
<stop stop-color="#FCDCB5"/>
<stop offset="0.79" stop-color="#EF858C"/>
</linearGradient>
<linearGradient id="paint4_linear_27_572" x1="63.9811" y1="-5.71667" x2="21.7215" y2="93.4226" gradientUnits="userSpaceOnUse">
<stop stop-color="#FCDCB5"/>
<stop offset="0.79" stop-color="#EF858C"/>
</linearGradient>
<linearGradient id="paint5_linear_27_572" x1="47.0208" y1="-12.939" x2="4.76125" y2="86.1867" gradientUnits="userSpaceOnUse">
<stop stop-color="#FCDCB5"/>
<stop offset="0.79" stop-color="#EF858C"/>
</linearGradient>
<linearGradient id="paint6_linear_27_572" x1="42.7303" y1="-14.7817" x2="0.47071" y2="84.3575" gradientUnits="userSpaceOnUse">
<stop stop-color="#FCDCB5"/>
<stop offset="0.79" stop-color="#EF858C"/>
</linearGradient>
<linearGradient id="paint7_linear_27_572" x1="74.2569" y1="-1.33158" x2="31.9973" y2="97.8211" gradientUnits="userSpaceOnUse">
<stop stop-color="#FCDCB5"/>
<stop offset="0.79" stop-color="#EF858C"/>
</linearGradient>
<linearGradient id="paint8_linear_27_572" x1="72.4143" y1="-2.13878" x2="30.1412" y2="97.0139" gradientUnits="userSpaceOnUse">
<stop stop-color="#FCDCB5"/>
<stop offset="0.79" stop-color="#EF858C"/>
</linearGradient>
<linearGradient id="paint9_linear_27_572" x1="98.2111" y1="8.87688" x2="55.9515" y2="108.003" gradientUnits="userSpaceOnUse">
<stop stop-color="#FCDCB5"/>
<stop offset="0.79" stop-color="#EF858C"/>
</linearGradient>
<linearGradient id="paint10_linear_27_572" x1="37.7673" y1="-16.8932" x2="-4.49228" y2="82.246" gradientUnits="userSpaceOnUse">
<stop stop-color="#FCDCB5"/>
<stop offset="0.79" stop-color="#EF858C"/>
</linearGradient>
<linearGradient id="paint11_linear_27_572" x1="94.9833" y1="7.50511" x2="52.7237" y2="106.631" gradientUnits="userSpaceOnUse">
<stop stop-color="#FCDCB5"/>
<stop offset="0.79" stop-color="#EF858C"/>
</linearGradient>
<linearGradient id="paint12_linear_27_572" x1="106.012" y1="12.212" x2="63.7526" y2="111.338" gradientUnits="userSpaceOnUse">
<stop stop-color="#FCDCB5"/>
<stop offset="0.79" stop-color="#EF858C"/>
</linearGradient>
<linearGradient id="paint13_linear_27_572" x1="76.6241" y1="-0.322652" x2="34.3645" y2="98.8031" gradientUnits="userSpaceOnUse">
<stop stop-color="#FCDCB5"/>
<stop offset="0.79" stop-color="#EF858C"/>
</linearGradient>
<linearGradient id="paint14_linear_27_572" x1="50.8675" y1="-11.2977" x2="8.60795" y2="87.8281" gradientUnits="userSpaceOnUse">
<stop stop-color="#FCDCB5"/>
<stop offset="0.79" stop-color="#EF858C"/>
</linearGradient>
<linearGradient id="paint15_linear_27_572" x1="83.1337" y1="2.44808" x2="40.8741" y2="101.587" gradientUnits="userSpaceOnUse">
<stop stop-color="#FCDCB5"/>
<stop offset="0.79" stop-color="#EF858C"/>
</linearGradient>
<linearGradient id="paint16_linear_27_572" x1="91.1635" y1="5.87792" x2="48.8905" y2="105.004" gradientUnits="userSpaceOnUse">
<stop stop-color="#FCDCB5"/>
<stop offset="0.79" stop-color="#EF858C"/>
</linearGradient>
<linearGradient id="paint17_linear_27_572" x1="112.562" y1="14.9962" x2="70.3026" y2="114.122" gradientUnits="userSpaceOnUse">
<stop stop-color="#FCDCB5"/>
<stop offset="0.79" stop-color="#EF858C"/>
</linearGradient>
<linearGradient id="paint18_linear_27_572" x1="113.988" y1="15.6151" x2="71.7417" y2="114.727" gradientUnits="userSpaceOnUse">
<stop stop-color="#FCDCB5"/>
<stop offset="0.79" stop-color="#EF858C"/>
</linearGradient>
<linearGradient id="paint19_linear_27_572" x1="113.087" y1="15.2257" x2="70.8272" y2="114.351" gradientUnits="userSpaceOnUse">
<stop stop-color="#FCDCB5"/>
<stop offset="0.79" stop-color="#EF858C"/>
</linearGradient>
<linearGradient id="paint20_linear_27_572" x1="32.6699" y1="-19.0446" x2="-9.58966" y2="80.0676" gradientUnits="userSpaceOnUse">
<stop stop-color="#FCDCB5"/>
<stop offset="0.79" stop-color="#EF858C"/>
</linearGradient>
<linearGradient id="paint21_linear_27_572" x1="41.9502" y1="-15.1038" x2="-0.309415" y2="84.022" gradientUnits="userSpaceOnUse">
<stop stop-color="#FCDCB5"/>
<stop offset="0.79" stop-color="#EF858C"/>
</linearGradient>
<linearGradient id="paint22_linear_27_572" x1="28.1508" y1="-20.982" x2="-14.1088" y2="78.1438" gradientUnits="userSpaceOnUse">
<stop stop-color="#FCDCB5"/>
<stop offset="0.79" stop-color="#EF858C"/>
</linearGradient>
<linearGradient id="paint23_linear_27_572" x1="108.89" y1="13.4233" x2="66.6174" y2="112.562" gradientUnits="userSpaceOnUse">
<stop stop-color="#FCDCB5"/>
<stop offset="0.79" stop-color="#EF858C"/>
</linearGradient>
<linearGradient id="paint24_linear_27_572" x1="51.6208" y1="-10.9349" x2="9.37466" y2="88.1505" gradientUnits="userSpaceOnUse">
<stop stop-color="#FCDCB5"/>
<stop offset="0.79" stop-color="#EF858C"/>
</linearGradient>
<linearGradient id="paint25_linear_27_572" x1="105.514" y1="11.9972" x2="63.2549" y2="111.123" gradientUnits="userSpaceOnUse">
<stop stop-color="#FCDCB5"/>
<stop offset="0.79" stop-color="#EF858C"/>
</linearGradient>
<linearGradient id="paint26_linear_27_572" x1="32.226" y1="-19.2465" x2="-10.0336" y2="79.8793" gradientUnits="userSpaceOnUse">
<stop stop-color="#FCDCB5"/>
<stop offset="0.79" stop-color="#EF858C"/>
</linearGradient>
<linearGradient id="paint27_linear_27_572" x1="79.7848" y1="1.02178" x2="37.5252" y2="100.161" gradientUnits="userSpaceOnUse">
<stop stop-color="#FCDCB5"/>
<stop offset="0.79" stop-color="#EF858C"/>
</linearGradient>
<linearGradient id="paint28_linear_27_572" x1="52.8984" y1="-10.437" x2="10.6388" y2="88.6887" gradientUnits="userSpaceOnUse">
<stop stop-color="#FCDCB5"/>
<stop offset="0.79" stop-color="#EF858C"/>
</linearGradient>
<linearGradient id="paint29_linear_27_572" x1="96.5165" y1="8.16391" x2="54.2569" y2="107.29" gradientUnits="userSpaceOnUse">
<stop stop-color="#FCDCB5"/>
<stop offset="0.79" stop-color="#EF858C"/>
</linearGradient>
<linearGradient id="paint30_linear_27_572" x1="57.5387" y1="-8.45973" x2="15.2791" y2="90.666" gradientUnits="userSpaceOnUse">
<stop stop-color="#FCDCB5"/>
<stop offset="0.79" stop-color="#EF858C"/>
</linearGradient>
<linearGradient id="paint31_linear_27_572" x1="100.995" y1="10.0735" x2="58.7357" y2="109.199" gradientUnits="userSpaceOnUse">
<stop stop-color="#FCDCB5"/>
<stop offset="0.79" stop-color="#EF858C"/>
</linearGradient>
<linearGradient id="paint32_linear_27_572" x1="62.6631" y1="-6.29413" x2="20.39" y2="92.8585" gradientUnits="userSpaceOnUse">
<stop stop-color="#FCDCB5"/>
<stop offset="0.79" stop-color="#EF858C"/>
</linearGradient>
<linearGradient id="paint33_linear_27_572" x1="46.2543" y1="-13.2751" x2="3.98128" y2="85.8776" gradientUnits="userSpaceOnUse">
<stop stop-color="#FCDCB5"/>
<stop offset="0.79" stop-color="#EF858C"/>
</linearGradient>
<linearGradient id="paint34_linear_27_572" x1="65.9314" y1="-4.86866" x2="23.6718" y2="94.2436" gradientUnits="userSpaceOnUse">
<stop stop-color="#FCDCB5"/>
<stop offset="0.79" stop-color="#EF858C"/>
</linearGradient>
<linearGradient id="paint35_linear_27_572" x1="71.9571" y1="-2.31369" x2="29.684" y2="96.8524" gradientUnits="userSpaceOnUse">
<stop stop-color="#FCDCB5"/>
<stop offset="0.79" stop-color="#EF858C"/>
</linearGradient>
<linearGradient id="paint36_linear_27_572" x1="85.7565" y1="3.56378" x2="43.4969" y2="102.716" gradientUnits="userSpaceOnUse">
<stop stop-color="#FCDCB5"/>
<stop offset="0.79" stop-color="#EF858C"/>
</linearGradient>
<linearGradient id="paint37_linear_27_572" x1="91.15" y1="5.86375" x2="48.8904" y2="105.016" gradientUnits="userSpaceOnUse">
<stop stop-color="#FCDCB5"/>
<stop offset="0.79" stop-color="#EF858C"/>
</linearGradient>
<linearGradient id="paint38_linear_27_572" x1="91.3518" y1="5.95751" x2="49.0787" y2="105.097" gradientUnits="userSpaceOnUse">
<stop stop-color="#FCDCB5"/>
<stop offset="0.79" stop-color="#EF858C"/>
</linearGradient>
<linearGradient id="paint39_linear_27_572" x1="85.5682" y1="3.49686" x2="43.3221" y2="102.596" gradientUnits="userSpaceOnUse">
<stop stop-color="#FCDCB5"/>
<stop offset="0.79" stop-color="#EF858C"/>
</linearGradient>
<linearGradient id="paint40_linear_27_572" x1="88.3926" y1="4.69393" x2="46.133" y2="103.833" gradientUnits="userSpaceOnUse">
<stop stop-color="#FCDCB5"/>
<stop offset="0.79" stop-color="#EF858C"/>
</linearGradient>
<linearGradient id="paint41_linear_27_572" x1="73.8668" y1="-1.49265" x2="31.6073" y2="97.6331" gradientUnits="userSpaceOnUse">
<stop stop-color="#FCDCB5"/>
<stop offset="0.79" stop-color="#EF858C"/>
</linearGradient>
<linearGradient id="paint42_linear_27_572" x1="82.5688" y1="2.19315" x2="40.3092" y2="101.346" gradientUnits="userSpaceOnUse">
<stop stop-color="#FCDCB5"/>
<stop offset="0.79" stop-color="#EF858C"/>
</linearGradient>
<linearGradient id="paint43_linear_27_572" x1="81.7618" y1="1.86945" x2="39.5023" y2="100.995" gradientUnits="userSpaceOnUse">
<stop stop-color="#FCDCB5"/>
<stop offset="0.79" stop-color="#EF858C"/>
</linearGradient>
<linearGradient id="paint44_linear_27_572" x1="74.6872" y1="-1.15629" x2="32.4141" y2="97.983" gradientUnits="userSpaceOnUse">
<stop stop-color="#FCDCB5"/>
<stop offset="0.79" stop-color="#EF858C"/>
</linearGradient>
<linearGradient id="paint45_linear_27_572" x1="78.1573" y1="0.255471" x2="35.8706" y2="99.4621" gradientUnits="userSpaceOnUse">
<stop stop-color="#FCDCB5"/>
<stop offset="0.79" stop-color="#EF858C"/>
</linearGradient>
<clipPath id="clip0_27_572">
<rect width="532.159" height="100" fill="white"/>
</clipPath>
</defs>
</svg>
