<svg width="224" height="50" viewBox="0 0 224 50" fill="none" xmlns="http://www.w3.org/2000/svg">
<path d="M54.127 42.6484L121.039 42.6484" stroke="#EF858C" stroke-width="0.5" stroke-miterlimit="10"/>
<path d="M156.561 42.6484L223.473 42.6484" stroke="#EF858C" stroke-width="0.5" stroke-miterlimit="10"/>
<g clip-path="url(#clip0_9436_6839)">
<path d="M128.079 42.5338L127.518 43.2387C127.042 42.803 126.541 42.407 125.996 42.0585L126.26 41.6859C126.847 41.892 127.543 42.2328 128.079 42.5331V42.5338ZM128.164 43.1204L128.461 43.4689C128.351 43.7303 128.24 43.9839 128.113 44.2375C127.739 44.9976 127.28 45.7266 126.889 46.4874C126.889 46.5115 126.897 46.5426 126.897 46.5745C126.897 46.6538 126.846 46.6857 126.769 46.6857C126.735 46.6857 126.718 46.6779 126.684 46.6538L126.004 46.1459C126.761 45.4645 127.747 44.0229 128.164 43.1204ZM128.453 40.3322L127.849 41.0292C127.416 40.4823 126.931 40.0785 126.369 39.6981L126.625 39.3496C127.263 39.611 127.917 39.9355 128.453 40.3322ZM131.497 45.9476H133.793V46.3039H127.934V45.9476H130.595V40.2606H128.631V39.9043H133.613V40.2606H131.496V45.9476H131.497Z" fill="#EF858C"/>
<path d="M138.782 44.4286H140.542V44.7849H138.782V46.3377H137.948V44.7849H136.206V44.4286H137.948V43.5176H136.358V43.1691H137.259C137.123 42.8205 136.936 42.4246 136.682 42.1391L137.03 41.9726H135.704V46.7011H134.854V41.6163H137.94V40.5948H134.463V40.2462H137.94V39.8425C137.94 39.676 137.914 39.5095 137.881 39.3438L138.799 39.3678C138.842 39.3678 138.876 39.4153 138.876 39.4472C138.876 39.5024 138.842 39.5818 138.817 39.6292V40.247H142.294V40.5955H138.817V41.617H141.903V45.9183C141.903 46.5205 141.724 46.6473 141.087 46.6473H140.024L139.829 46.2513C140.135 46.2754 140.441 46.291 140.747 46.291C141.011 46.291 141.044 46.2038 141.044 45.9268V41.974H139.633L140.169 42.2276C140.236 42.2595 140.245 42.2751 140.245 42.2907C140.245 42.3459 140.143 42.3934 140.092 42.4175C139.82 42.6867 139.506 42.9325 139.2 43.1698H140.356V43.5183H138.783V44.4293L138.782 44.4286ZM138.101 42.8361L137.514 43.1691H139.011L138.722 43.0026C138.951 42.6782 139.155 42.3374 139.299 41.9726H137.157C137.446 42.2099 137.828 42.5506 138.1 42.8361H138.101Z" fill="#EF858C"/>
<path d="M144.769 42.2134C145.288 42.8389 145.688 43.5203 145.688 44.3364C145.688 44.6609 145.637 45.0016 145.399 45.2396C145.246 45.3983 144.999 45.4535 144.778 45.4535H144.268L144.158 45.0257C144.268 45.0576 144.388 45.0809 144.506 45.0809C144.625 45.0809 144.719 45.0335 144.778 44.9385C144.898 44.7409 144.915 44.471 144.915 44.2415C144.915 43.5048 144.583 42.8552 144.132 42.2615L144.982 40.028H143.962V46.6975H143.154V39.6702H145.892V40.0188L145.73 40.3354H147.711V39.8048C147.711 39.6624 147.694 39.5193 147.66 39.377L148.595 39.3925C148.638 39.3925 148.663 39.4081 148.663 39.4556C148.663 39.5108 148.629 39.5583 148.595 39.598V40.3347H150.678V42.1092H149.828V40.6832H146.563V42.1092H145.713V40.3595L144.769 42.2134ZM149.139 45.936C149.139 46.1818 149.173 46.2448 149.436 46.2448H149.7C149.912 46.2448 150.048 46.2292 150.125 46.0231C150.202 45.8092 150.227 45.5081 150.245 45.2942C150.466 45.4288 150.712 45.5478 150.967 45.5633C150.933 45.7773 150.882 46.0465 150.78 46.2448C150.627 46.5303 150.473 46.5933 149.964 46.5933H148.986C148.408 46.5933 148.255 46.4665 148.255 45.9282V43.6309H147.677C147.677 44.4306 147.66 45.326 146.996 45.9282C146.503 46.3794 145.84 46.6174 145.177 46.7442L144.93 46.4035C145.593 46.2611 146.342 45.96 146.622 45.3338C146.818 44.8982 146.826 44.3676 146.826 43.6309H145.72V43.2745H150.762V43.6309H149.138V45.936H149.139ZM146.733 42.1021V41.7458H149.658V42.1021H146.733Z" fill="#EF858C"/>
</g>
<path d="M69.8268 7.56005V7.59338C69.8268 7.89892 69.6769 8.04891 69.3713 8.04891H63.4993C63.7882 12.0988 66.0103 15.332 69.5046 17.2041C69.7935 17.3541 69.8435 17.5763 69.6713 17.8263L69.5713 17.9763C69.4213 18.2096 69.1991 18.2652 68.9491 18.143C65.9992 16.7097 63.7549 14.2653 62.6771 11.4654C61.5827 14.2653 59.3051 16.7263 56.2996 18.1596C56.0441 18.2763 55.8274 18.2096 55.6774 17.9763L55.5774 17.8263C55.4108 17.5763 55.4608 17.3541 55.7441 17.2041C59.2328 15.332 61.4605 12.0932 61.7494 8.04891H55.8774C55.5719 8.04891 55.4219 7.89892 55.4219 7.59338V7.56005C55.4219 7.2545 55.5719 7.10451 55.8774 7.10451H61.7661V4.18796C61.7661 3.88242 61.9161 3.73242 62.2216 3.73242H63.0327C63.3382 3.73242 63.4882 3.88242 63.4882 4.18796V7.10451H69.3769C69.6824 7.10451 69.8324 7.2545 69.8324 7.56005H69.8268Z" fill="#EF858C"/>
<path d="M84.2924 4.00406C84.3091 4.4096 84.3091 4.89847 84.3257 5.454H87.4978C87.8034 5.454 87.9534 5.60399 87.9534 5.90954C87.9534 6.19841 87.8034 6.34841 87.4978 6.34841H84.3591C84.4424 8.4261 84.6313 10.3982 84.8813 11.9815C85.3535 11.0704 85.709 9.88715 86.0312 8.64276C86.1145 8.34277 86.3201 8.23722 86.6034 8.34277L87.1923 8.54276C87.4812 8.64276 87.5645 8.84831 87.4978 9.11496C86.959 11.0371 86.2979 12.6926 85.3201 14.1425C85.659 15.5091 86.1479 16.8258 86.4145 16.8258C86.7867 16.7591 86.9034 16.0147 86.9701 14.6647C86.9867 14.3259 87.1701 14.1759 87.4756 14.2425L87.7811 14.3092C88.0534 14.3759 88.17 14.5592 88.1534 14.8481C87.9534 17.2257 87.5645 18.3368 86.5701 18.3368C86.0479 18.3368 85.5423 18.0368 85.2201 17.6646C84.7646 17.1424 84.4424 16.5202 84.1757 15.7758C83.4535 16.5702 82.4536 17.398 81.2092 18.2201C80.9759 18.3701 80.7703 18.3368 80.587 18.1368L80.4203 17.9535C80.2203 17.7146 80.2537 17.4813 80.5037 17.3146C81.7203 16.4869 82.7813 15.4758 83.6924 14.1925C83.1869 12.1871 82.8813 9.6205 82.7647 6.34841H79.0704V8.54276H82.2258C82.5314 8.54276 82.6814 8.70942 82.6814 9.01497C82.6647 11.8482 82.598 13.5537 82.448 14.2092C82.3647 14.6147 82.1258 14.9369 81.6036 15.0703C81.5036 15.1036 81.2147 15.1203 80.9092 15.1203C80.6703 15.1203 80.1648 15.0703 79.6093 15.0369C79.3204 15.0203 79.1537 14.8703 79.1371 14.5981C79.1204 14.2981 79.287 14.1425 79.6093 14.1759C79.8981 14.2092 80.1981 14.2259 80.4203 14.2259C80.687 14.2259 80.8759 14.0925 80.9925 13.5148C81.0592 13.1426 81.0925 11.726 81.0925 9.38162H79.0704V10.0927C79.0704 13.4815 78.5649 16.098 77.4871 18.1535C77.3538 18.4257 77.1316 18.4757 76.8649 18.3035L76.4261 18.0368C76.1872 17.8868 76.1372 17.6646 76.2594 17.4146C76.5483 16.8424 76.7816 16.1647 76.9705 15.4258C75.7205 15.9814 74.4039 16.5202 73.004 16.998C72.6984 17.098 72.4984 16.9646 72.4484 16.6591V16.6091C72.3984 16.3202 72.5151 16.1702 72.7873 16.0702L74.2039 15.5647V8.68165H72.854C72.5484 8.68165 72.3984 8.53165 72.3984 8.22611C72.3984 7.93723 72.5484 7.78724 72.854 7.78724H74.2039V4.51515C74.2039 4.20961 74.3539 4.05961 74.6595 4.05961H75.3539C75.6594 4.05961 75.8094 4.20961 75.8094 4.51515V7.78724H76.8038C77.1094 7.78724 77.2594 7.93723 77.2594 8.24277C77.2594 8.5261 77.1094 8.68165 76.8038 8.68165H75.8094V14.8703C76.1983 14.7036 76.6372 14.4981 77.226 14.2648C77.426 12.9148 77.5649 11.226 77.5649 9.25385V5.91509C77.5649 5.60955 77.7149 5.45956 78.0204 5.45956H82.7425C82.7425 4.88736 82.7425 4.39849 82.7258 4.00961C82.7258 3.70407 82.898 3.55408 83.1813 3.55408H83.8535C84.1591 3.55408 84.3091 3.70407 84.3091 4.00961L84.2924 4.00406ZM85.5257 3.39297C85.9979 3.68185 86.4368 3.93184 86.8256 4.18738C87.0812 4.35404 87.1145 4.57626 86.959 4.80958L86.859 4.95958C86.6923 5.23179 86.4701 5.25956 86.2201 5.07624C85.7979 4.78736 85.3257 4.5207 84.9368 4.29849C84.6646 4.1485 84.6313 3.92628 84.8035 3.67629L84.8868 3.54297C85.0535 3.28742 85.2757 3.23742 85.5257 3.39297Z" fill="#EF858C"/>
<path d="M105.003 5.56897V5.72452C105.003 5.94118 104.97 6.09672 104.87 6.29672C104.531 6.91891 104.092 7.58 103.487 8.28552C103.303 8.51885 103.081 8.53552 102.848 8.35219L102.492 8.07998C102.259 7.91332 102.22 7.6911 102.409 7.45778C102.731 7.05224 103.048 6.56337 103.37 6.00784H99.037V9.16327H102.965C103.27 9.16327 103.42 9.31326 103.42 9.6188V9.75213C103.42 9.95768 103.403 10.1077 103.303 10.3077C102.426 12.1798 101.209 13.7797 99.6092 15.1464C101.126 16.1241 102.815 16.8352 104.753 17.324C105.042 17.3907 105.159 17.5796 105.076 17.8796C104.992 18.1685 104.803 18.2851 104.52 18.2185C102.142 17.6463 100.154 16.8352 98.6481 15.8741C97.2482 16.8518 95.3593 17.6629 93.0983 18.2185C92.8094 18.2851 92.6261 18.1685 92.5428 17.8962V17.8629C92.4595 17.5796 92.5595 17.3907 92.8483 17.3074C94.6205 16.8185 96.1871 16.1297 97.6204 15.1464C96.2871 14.0853 95.2927 12.8687 94.5149 11.5687C94.3649 11.2965 94.4483 11.0799 94.7205 10.9632L95.276 10.7299C95.5482 10.6132 95.7482 10.6965 95.8815 10.9465C96.6593 12.3965 97.5704 13.5242 98.5981 14.3686C99.7814 13.3409 100.842 11.8854 101.77 10.0188H93.2205V10.2188C93.2205 13.4075 92.6983 15.9519 91.5651 18.0962C91.4151 18.3851 91.1595 18.4018 90.9262 18.1629L90.4207 17.624C90.2318 17.4407 90.2151 17.2352 90.3207 17.0018C91.1651 15.0964 91.5539 12.852 91.5539 9.42437V5.56341C91.5539 5.25787 91.7039 5.10788 92.0095 5.10788H97.3426V3.93015C97.3426 3.6246 97.4926 3.47461 97.7981 3.47461H98.5925C98.8981 3.47461 99.0481 3.6246 99.0481 3.93015V5.10788H104.565C104.87 5.10788 105.02 5.25787 105.02 5.56341L105.003 5.56897ZM97.3259 6.00784H93.2094V9.16327H97.3259V6.00784Z" fill="#EF858C"/>
<path d="M121.798 6.01034C120.381 11.3546 117.376 15.1211 112.304 17.6488C111.998 17.7988 111.765 17.7154 111.665 17.4654C111.548 17.1932 111.631 16.9932 111.92 16.8266C116.02 14.3822 118.159 10.8879 119.592 6.18256H110.398C110.076 6.18256 109.909 6.03257 109.893 5.72702C109.893 5.43814 110.043 5.27148 110.381 5.27148H121.242C121.598 5.27148 121.953 5.47703 121.798 6.0159V6.01034Z" fill="#EF858C"/>
<path d="M126.233 5.5879C125.928 5.62123 125.761 5.47124 125.728 5.1657C125.711 4.92682 125.845 4.77682 126.15 4.74349C127.872 4.57683 129.555 4.30462 131.294 3.84908C131.583 3.78242 131.766 3.86575 131.85 4.13241C131.916 4.40462 131.8 4.58794 131.511 4.65461C130.839 4.83793 130.111 5.01015 129.333 5.14348V8.09336H131.155C131.461 8.09336 131.611 8.24335 131.611 8.54889C131.611 8.82111 131.461 8.95443 131.155 8.95443H129.689C130.433 10.3544 131.072 11.5543 131.511 12.3432C131.644 12.5987 131.594 12.7987 131.361 12.9654L130.955 13.232C130.7 13.3987 130.483 13.332 130.35 13.0487C130.011 12.3099 129.655 11.6321 129.339 10.9044V18.1041C129.339 18.4096 129.189 18.5596 128.883 18.5596H128.394C128.089 18.5596 127.939 18.4041 127.939 18.1041V12.4376C127.467 13.5487 126.978 14.4764 126.422 15.4042C126.239 15.7097 125.983 15.7097 125.8 15.4208L125.478 14.9486C125.345 14.7486 125.328 14.5431 125.461 14.3264C126.472 12.621 127.267 10.7988 127.772 8.94332H126C125.695 8.94332 125.545 8.79333 125.545 8.48778C125.545 8.21557 125.695 8.08225 126 8.08225H127.872V5.38236C127.45 5.43235 126.911 5.51568 126.233 5.56568V5.5879ZM141.061 13.4154V13.432C141.061 13.7154 140.944 13.8876 140.672 13.9376L139.388 14.1598V18.1207C139.388 18.4263 139.238 18.5763 138.933 18.5763H138.155C137.85 18.5763 137.7 18.4207 137.7 18.1207V14.4653L131.039 15.5931C130.75 15.6431 130.567 15.5097 130.533 15.2042V15.1708C130.5 14.8875 130.633 14.7153 130.922 14.6653L137.705 13.5154V4.18796C137.705 3.88242 137.855 3.73242 138.161 3.73242H138.938C139.244 3.73242 139.394 3.88242 139.394 4.18796V13.2098L140.538 13.0265C140.844 12.9765 141.027 13.1098 141.061 13.4154ZM133.078 8.71C134.139 9.72107 135.05 10.6321 135.844 11.5099C136.044 11.7265 136.027 11.9488 135.827 12.1543L135.455 12.5265C135.239 12.7432 135.016 12.7265 134.816 12.4932C133.939 11.4821 133.061 10.5377 132.15 9.67663C131.928 9.45441 131.928 9.23775 132.133 9.03776L132.422 8.73222C132.622 8.51556 132.861 8.51556 133.078 8.71555V8.71ZM134.55 4.86015C135.544 5.80456 136.355 6.69897 137.077 7.47672C137.261 7.69337 137.277 7.91559 137.061 8.11558L136.705 8.45445C136.489 8.67111 136.266 8.65444 136.066 8.42112C135.255 7.46005 134.45 6.59897 133.622 5.82123C133.4 5.59901 133.383 5.38235 133.605 5.1657L133.894 4.87682C134.094 4.67683 134.333 4.66016 134.55 4.86015Z" fill="#EF858C"/>
<path d="M156.909 7.18704C154.615 12.4368 151.982 15.52 146.415 17.9477C145.86 18.181 145.438 17.4422 145.993 17.1533C150.598 14.7423 152.859 11.7702 154.615 7.04816H149.604C148.526 8.77031 147.11 10.4036 145.132 11.5702C144.56 11.9091 144.138 11.2313 144.576 10.8591C146.721 9.05364 148.187 6.80928 149.215 4.23161C149.332 3.93162 149.571 3.82607 149.871 3.94829L150.682 4.28716C151.004 4.42049 151.087 4.65937 150.932 4.95936C150.698 5.39823 150.493 5.75377 150.171 6.22597L156.093 6.24264C156.665 6.20931 157.137 6.64818 156.904 7.18704H156.909Z" fill="#EF858C"/>
<path d="M162.757 4.74295H163.485C163.807 4.74295 163.991 4.90961 163.991 5.24849V11.926C163.991 12.2482 163.824 12.4315 163.485 12.4315H162.757C162.435 12.4315 162.252 12.2482 162.252 11.926V5.24849C162.252 4.92628 162.435 4.74295 162.757 4.74295ZM164.174 18.1535C163.852 18.2535 163.652 18.1702 163.569 17.9369C163.485 17.6813 163.602 17.498 163.907 17.3647C167.735 15.7925 169.218 13.0982 169.218 8.86501V4.7985C169.218 4.45963 169.407 4.29297 169.724 4.29297H170.568C170.907 4.29297 171.074 4.45963 171.074 4.7985V8.86501C171.074 13.4037 168.896 16.6091 164.174 18.1591V18.1535Z" fill="#EF858C"/>
<path d="M176.584 14.6477H189.3C189.622 14.6477 189.805 14.8144 189.805 15.1533V15.2199C189.805 15.5421 189.639 15.7255 189.3 15.7255H176.584C176.261 15.7255 176.078 15.5421 176.078 15.2199V15.1533C176.078 14.8144 176.261 14.6477 176.584 14.6477ZM178.117 6.49805H187.767C188.105 6.49805 188.272 6.66471 188.272 7.00358V7.07025C188.272 7.39246 188.105 7.57578 187.767 7.57578H178.117C177.778 7.57578 177.611 7.39246 177.611 7.07025V7.00358C177.611 6.66471 177.795 6.49805 178.117 6.49805Z" fill="#EF858C"/>
<path d="M195.433 12.4041C195.127 11.3931 194.744 10.4653 194.255 9.52093C193.949 8.93207 194.76 8.60986 195.133 9.03206C195.894 9.87647 196.433 10.7709 197.005 11.782C197.188 12.0875 197.105 12.2708 196.783 12.393L195.988 12.693C195.699 12.8097 195.516 12.7097 195.433 12.4097V12.4041ZM204.843 8.95984C203.51 13.2597 201.671 16.1484 197.338 18.2872C197.049 18.4206 196.816 18.3706 196.683 18.1539C196.533 17.9206 196.633 17.715 196.921 17.5484C200.666 15.404 201.932 12.793 203.127 8.40431C203.21 8.0821 203.432 7.96544 203.749 8.06544L204.527 8.32098C204.832 8.42098 204.949 8.64319 204.849 8.95984H204.843ZM198.771 11.1542C198.466 10.1098 198.099 9.13206 197.571 8.11543C197.266 7.52657 198.127 7.17103 198.482 7.6099C199.227 8.52097 199.782 9.39872 200.388 10.582C200.538 10.882 200.455 11.0709 200.155 11.1709L199.344 11.4542C199.044 11.5542 198.855 11.4542 198.771 11.1542Z" fill="#EF858C"/>
<path d="M222.332 7.18704C220.037 12.4368 217.404 15.52 211.843 17.9477C211.288 18.181 210.866 17.4422 211.421 17.1533C216.026 14.7423 218.287 11.7702 220.043 7.04816H215.032C213.954 8.77031 212.538 10.4036 210.566 11.5702C209.993 11.9091 209.571 11.2313 210.01 10.8591C212.154 9.05364 213.621 6.80928 214.649 4.23161C214.765 3.93162 215.004 3.82607 215.304 3.94829L216.115 4.28716C216.438 4.42049 216.521 4.65937 216.371 4.95936C216.138 5.39823 215.932 5.75377 215.61 6.22597L221.532 6.24264C222.104 6.20931 222.576 6.64818 222.343 7.18704H222.332Z" fill="#EF858C"/>
<path d="M56.866 29.5742C57.2326 29.5742 57.5604 29.6464 57.8437 29.7909C58.127 29.9353 58.377 30.1631 58.5881 30.4686C58.7992 30.7742 58.9103 31.1464 58.9103 31.5797C58.9103 32.0463 58.777 32.4741 58.5159 32.863C58.2492 33.2518 57.9437 33.5352 57.5882 33.7129C57.2382 33.8907 56.866 33.9796 56.4771 33.9796C55.9216 33.9796 55.4549 33.7907 55.066 33.4074C54.6772 33.0241 54.4883 32.5519 54.4883 31.9908C54.4883 31.3408 54.7327 30.7742 55.2105 30.2964C55.6938 29.8187 56.2438 29.5798 56.866 29.5798V29.5742ZM56.4549 29.8798C56.0493 29.8798 55.7105 30.0242 55.4438 30.3075C55.1771 30.5908 55.0438 30.9686 55.0438 31.4353C55.0438 32.1241 55.2438 32.6685 55.6438 33.0741C56.0438 33.4796 56.4826 33.6852 56.9604 33.6852C57.3382 33.6852 57.6659 33.5407 57.9437 33.2574C58.2159 32.9741 58.3548 32.6019 58.3548 32.1574C58.3548 31.7408 58.2659 31.3464 58.0826 30.9742C57.8993 30.6075 57.6493 30.3297 57.3382 30.152C57.0271 29.9686 56.7326 29.8798 56.4604 29.8798H56.4549Z" fill="#EF858C"/>
<path d="M66.1555 31.4169C66.0555 31.3225 65.9778 31.2169 65.9278 31.1058C65.8778 30.9947 65.85 30.8836 65.85 30.7614C65.85 30.4448 65.9944 30.167 66.2889 29.9337C66.5777 29.6948 66.9222 29.5781 67.3111 29.5781C67.5055 29.5781 67.7666 29.6337 68.0943 29.7448V30.7781H67.8555C67.8388 30.4892 67.7499 30.2559 67.5888 30.0725C67.4277 29.8892 67.2333 29.8003 67.0055 29.8003C66.8166 29.8003 66.6611 29.8559 66.5389 29.9726C66.4166 30.0837 66.3555 30.2337 66.3555 30.4059C66.3555 30.5781 66.4166 30.7336 66.5389 30.8781C66.6611 31.0281 66.9444 31.2503 67.3999 31.5614C67.7444 31.7947 67.9777 31.978 68.0999 32.1225C68.2166 32.2669 68.2777 32.4447 68.2777 32.6558C68.2777 33.0002 68.1166 33.3058 67.7999 33.578C67.4833 33.8502 67.1222 33.9835 66.7222 33.9835C66.4333 33.9835 66.1111 33.9168 65.75 33.778V32.5891H65.9833C65.9833 32.9224 66.0778 33.2058 66.2722 33.428C66.4666 33.6502 66.6944 33.7613 66.9611 33.7613C67.2055 33.7613 67.3999 33.6891 67.5388 33.5446C67.6777 33.4002 67.7499 33.2224 67.7499 33.0002C67.7499 32.8113 67.6944 32.6391 67.5722 32.4947C67.4555 32.3502 67.1888 32.1447 66.7777 31.8669C66.55 31.7169 66.3389 31.5669 66.15 31.4114L66.1555 31.4169Z" fill="#EF858C"/>
<path d="M74.9316 29.6755H76.5427V29.8366C76.3482 29.8366 76.2149 29.881 76.1427 29.9532C76.076 30.0255 76.0427 30.1588 76.0427 30.3588V31.4865H78.0537V30.3588C78.0537 30.1477 78.0148 30.0088 77.9426 29.9421C77.8649 29.8755 77.7371 29.8421 77.5538 29.8366V29.6755H79.1648V29.8366C78.9648 29.8366 78.837 29.881 78.7648 29.9532C78.6982 30.0255 78.6648 30.1588 78.6648 30.3588V33.2142C78.6648 33.4309 78.7037 33.5698 78.7759 33.6309C78.8537 33.6975 78.9815 33.7309 79.1648 33.7309V33.892H77.5538V33.7309C77.7482 33.7309 77.8815 33.692 77.9482 33.6198C78.0204 33.5475 78.0537 33.4087 78.0537 33.2087V31.6865H76.0427V33.2087C76.0427 33.5475 76.2094 33.7198 76.5427 33.7309V33.892H74.9316V33.7309C75.1261 33.7309 75.2594 33.692 75.3316 33.6198C75.3983 33.5475 75.4372 33.4087 75.4372 33.2087V30.3532C75.4372 30.1421 75.3983 30.0032 75.3205 29.9366C75.2427 29.8699 75.115 29.8366 74.9316 29.831V29.6699V29.6755Z" fill="#EF858C"/>
<path d="M87.4978 29.8288C87.3033 29.8288 87.17 29.8732 87.0978 29.9399C87.0311 30.0121 86.9978 30.1454 86.9978 30.3454V33.2009C86.9978 33.5397 87.1644 33.7119 87.4978 33.7231V33.8842H85.8867V33.7231C86.0867 33.7231 86.22 33.6842 86.2867 33.6119C86.3534 33.5397 86.3867 33.4008 86.3867 33.2009V30.3454C86.3867 30.1343 86.3478 29.9954 86.2756 29.9288C86.2034 29.8621 86.07 29.8288 85.8867 29.8232V29.6621H87.4978V29.8232V29.8288Z" fill="#EF858C"/>
<path d="M94.1501 29.6738H96.2444C96.5555 29.6738 96.7889 29.7349 96.9444 29.8516C97.1 29.9738 97.1777 30.1571 97.1777 30.396C97.1777 30.6682 97.0889 30.9182 96.9166 31.1515C96.7444 31.3849 96.4778 31.6015 96.1278 31.8015L96.8611 32.9404C97.1889 33.4515 97.4944 33.7126 97.7722 33.7292V33.8903H96.9833C96.8278 33.8903 96.6833 33.7959 96.5611 33.607L95.2556 31.5793V33.2126C95.2556 33.5514 95.4223 33.7237 95.7611 33.7348V33.8959H94.1445V33.7348C94.3445 33.7348 94.4779 33.6959 94.5445 33.6237C94.6112 33.5514 94.6445 33.4126 94.6445 33.2126V30.3571C94.6445 30.146 94.6056 30.0071 94.5334 29.9405C94.4612 29.8738 94.3279 29.8405 94.1445 29.8349V29.6738H94.1501ZM95.2611 29.996V31.3682C95.5167 31.5571 95.7389 31.646 95.9222 31.646C96.1056 31.646 96.2611 31.5793 96.3556 31.4515C96.45 31.3182 96.5 31.1293 96.5 30.8682C96.5 30.5516 96.4278 30.3016 96.2889 30.1127C96.1445 29.9238 95.9722 29.8349 95.7667 29.8349C95.5889 29.8349 95.4167 29.8905 95.2611 29.996Z" fill="#EF858C"/>
<path d="M106.52 29.5742C106.887 29.5742 107.214 29.6464 107.498 29.7909C107.781 29.9353 108.031 30.1631 108.242 30.4686C108.453 30.7742 108.564 31.1464 108.564 31.5797C108.564 32.0463 108.431 32.4741 108.164 32.863C107.898 33.2518 107.592 33.5352 107.237 33.7129C106.887 33.8907 106.514 33.9796 106.126 33.9796C105.57 33.9796 105.103 33.7907 104.714 33.4074C104.326 33.0241 104.137 32.5519 104.137 31.9908C104.137 31.3408 104.376 30.7742 104.864 30.2964C105.348 29.8187 105.898 29.5798 106.52 29.5798V29.5742ZM106.109 29.8798C105.703 29.8798 105.364 30.0242 105.098 30.3075C104.831 30.5908 104.698 30.9686 104.698 31.4353C104.698 32.1241 104.898 32.6685 105.298 33.0741C105.698 33.4796 106.137 33.6852 106.614 33.6852C106.992 33.6852 107.32 33.5407 107.598 33.2574C107.87 32.9741 108.009 32.6019 108.009 32.1574C108.009 31.7408 107.92 31.3464 107.737 30.9742C107.553 30.6075 107.303 30.3297 106.992 30.152C106.676 29.9686 106.387 29.8798 106.114 29.8798H106.109Z" fill="#EF858C"/>
<path d="M123.774 31.4169C123.674 31.3225 123.597 31.2169 123.547 31.1058C123.497 30.9947 123.469 30.8836 123.469 30.7614C123.469 30.4448 123.613 30.167 123.908 29.9337C124.197 29.6948 124.541 29.5781 124.93 29.5781C125.124 29.5781 125.385 29.6337 125.713 29.7448V30.7781H125.474C125.458 30.4892 125.369 30.2559 125.208 30.0725C125.047 29.8892 124.852 29.8003 124.624 29.8003C124.435 29.8003 124.28 29.8559 124.158 29.9726C124.035 30.0837 123.974 30.2337 123.974 30.4059C123.974 30.5781 124.035 30.7336 124.158 30.8781C124.274 31.0281 124.563 31.2503 125.019 31.5614C125.363 31.7947 125.597 31.978 125.719 32.1225C125.835 32.2669 125.897 32.4447 125.897 32.6558C125.897 33.0002 125.735 33.3058 125.419 33.578C125.102 33.8502 124.741 33.9835 124.335 33.9835C124.047 33.9835 123.724 33.9168 123.363 33.778V32.5891H123.597C123.597 32.9224 123.691 33.2058 123.885 33.428C124.08 33.6502 124.308 33.7613 124.574 33.7613C124.819 33.7613 125.013 33.6891 125.152 33.5446C125.297 33.4002 125.363 33.2224 125.363 33.0002C125.363 32.8113 125.308 32.6391 125.191 32.4947C125.074 32.3502 124.808 32.1447 124.391 31.8669C124.163 31.7169 123.952 31.5669 123.763 31.4114L123.774 31.4169Z" fill="#EF858C"/>
<path d="M132.547 29.6755H134.158V29.8366C133.958 29.8366 133.825 29.881 133.758 29.9477C133.691 30.0199 133.658 30.1588 133.658 30.3588V31.6921L134.475 30.8921C134.602 30.7643 134.725 30.6199 134.841 30.4532C134.958 30.2921 135.013 30.1588 135.013 30.0532C135.013 29.9144 134.902 29.8421 134.675 29.831V29.6699H136.191V29.831C135.908 29.8644 135.602 30.0366 135.275 30.3532L134.208 31.3865L135.363 32.9309C135.758 33.4642 136.097 33.7253 136.38 33.7253V33.8864H135.319L133.664 31.6643V33.2087C133.664 33.5475 133.83 33.7198 134.163 33.7309V33.892H132.552V33.7309C132.752 33.7309 132.886 33.692 132.952 33.6198C133.019 33.5475 133.052 33.4087 133.052 33.2087V30.3532C133.052 30.1366 133.014 29.9977 132.941 29.9366C132.869 29.8699 132.736 29.8366 132.552 29.8366V29.6755H132.547Z" fill="#EF858C"/>
<path d="M144.42 29.8288C144.225 29.8288 144.086 29.8732 144.02 29.9399C143.953 30.0121 143.92 30.1454 143.92 30.3454V33.2009C143.92 33.5397 144.086 33.7119 144.42 33.7231V33.8842H142.809V33.7231C143.009 33.7231 143.142 33.6842 143.209 33.6119C143.275 33.5397 143.309 33.4008 143.309 33.2009V30.3454C143.309 30.1343 143.27 29.9954 143.197 29.9288C143.125 29.8621 142.992 29.8288 142.809 29.8232V29.6621H144.42V29.8232V29.8288Z" fill="#EF858C"/>
<path d="M151.098 29.6755H152.181L154.581 32.8976V31.9143C154.581 31.2865 154.531 30.7865 154.436 30.4199C154.342 30.0532 154.186 29.8532 153.975 29.831V29.6699H155.414V29.831C155.014 29.8644 154.814 30.5254 154.814 31.8087V34.0364H154.659L151.814 30.1921V31.4198C151.814 32.1976 151.864 32.7698 151.959 33.1364C152.053 33.5031 152.209 33.7031 152.425 33.7309V33.892H150.992V33.7309C151.392 33.6698 151.592 32.9142 151.592 31.4587V30.3199C151.592 30.1255 151.553 29.9977 151.475 29.931C151.398 29.8644 151.276 29.831 151.098 29.831V29.6699V29.6755Z" fill="#EF858C"/>
<path d="M173.662 33.0835C172.967 33.6835 172.334 33.9835 171.756 33.9835C171.289 33.9835 170.867 33.8057 170.495 33.4446C170.123 33.0891 169.939 32.5947 169.939 31.9725C169.939 31.5336 170.034 31.1447 170.228 30.8003C170.423 30.4559 170.695 30.167 171.051 29.9281C171.406 29.6948 171.834 29.5781 172.328 29.5781C172.762 29.5781 173.173 29.6448 173.556 29.7837V30.7781H173.323C173.295 30.467 173.156 30.2225 172.912 30.0503C172.667 29.8726 172.373 29.7892 172.034 29.7892C171.556 29.7892 171.184 29.9614 170.912 30.3114C170.639 30.6614 170.506 31.0892 170.506 31.5947C170.506 32.1447 170.662 32.6002 170.967 32.9613C171.278 33.3224 171.673 33.5057 172.162 33.5057C172.65 33.5057 173.145 33.3002 173.662 32.8835V33.0835Z" fill="#EF858C"/>
<path d="M180.326 29.6755H181.937V29.8366C181.737 29.8366 181.604 29.8755 181.537 29.9477C181.471 30.0199 181.437 30.1532 181.437 30.3588V33.7364H181.865C182.532 33.7364 182.926 33.3864 183.054 32.6865H183.293L183.009 34.0475H182.859C182.859 33.942 182.809 33.892 182.721 33.892H180.332V33.7309C180.526 33.7309 180.659 33.692 180.726 33.6198C180.793 33.5475 180.832 33.4087 180.832 33.2087V30.3532C180.832 30.1421 180.793 30.0032 180.721 29.9366C180.648 29.8699 180.515 29.8366 180.332 29.831V29.6699L180.326 29.6755Z" fill="#EF858C"/>
<path d="M191.406 29.8288C191.206 29.8288 191.073 29.8732 191.006 29.9399C190.939 30.0121 190.906 30.1454 190.906 30.3454V33.2009C190.906 33.5397 191.073 33.7119 191.406 33.7231V33.8842H189.795V33.7231C189.995 33.7231 190.123 33.6842 190.195 33.6119C190.262 33.5397 190.295 33.4008 190.295 33.2009V30.3454C190.295 30.1343 190.256 29.9954 190.184 29.9288C190.112 29.8621 189.978 29.8288 189.795 29.8232V29.6621H191.406V29.8232V29.8288Z" fill="#EF858C"/>
<path d="M198.09 29.6755H199.173L201.573 32.8976V31.9143C201.573 31.2865 201.523 30.7865 201.429 30.4199C201.334 30.0532 201.179 29.8532 200.968 29.831V29.6699H202.406V29.831C202.006 29.8644 201.806 30.5254 201.806 31.8087V34.0364H201.651L198.807 30.1921V31.4198C198.807 32.1976 198.857 32.7698 198.951 33.1364C199.045 33.5031 199.201 33.7031 199.418 33.7309V33.892H197.984V33.7309C198.384 33.6698 198.584 32.9142 198.584 31.4587V30.3199C198.584 30.1255 198.545 29.9977 198.468 29.931C198.39 29.8644 198.268 29.831 198.09 29.831V29.6699V29.6755Z" fill="#EF858C"/>
<path d="M210.57 29.8288C210.37 29.8288 210.242 29.8732 210.17 29.9399C210.103 30.0121 210.07 30.1454 210.07 30.3454V33.2009C210.07 33.5397 210.237 33.7119 210.57 33.7231V33.8842H208.959V33.7231C209.159 33.7231 209.292 33.6842 209.359 33.6119C209.426 33.5397 209.459 33.4008 209.459 33.2009V30.3454C209.459 30.1343 209.42 29.9954 209.348 29.9288C209.276 29.8621 209.142 29.8288 208.959 29.8232V29.6621H210.57V29.8232V29.8288Z" fill="#EF858C"/>
<path d="M221.003 33.0835C220.309 33.6835 219.67 33.9835 219.098 33.9835C218.631 33.9835 218.209 33.8057 217.837 33.4446C217.465 33.0891 217.281 32.5947 217.281 31.9725C217.281 31.5336 217.376 31.1447 217.57 30.8003C217.765 30.4559 218.037 30.167 218.392 29.9281C218.748 29.6948 219.176 29.5781 219.67 29.5781C220.103 29.5781 220.514 29.6448 220.903 29.7837V30.7781H220.67C220.642 30.467 220.503 30.2225 220.259 30.0503C220.014 29.8726 219.72 29.7892 219.381 29.7892C218.903 29.7892 218.531 29.9614 218.259 30.3114C217.987 30.6614 217.853 31.0892 217.853 31.5947C217.853 32.1447 218.009 32.6002 218.315 32.9613C218.626 33.3224 219.02 33.5057 219.509 33.5057C219.998 33.5057 220.492 33.3002 221.009 32.8835V33.0835H221.003Z" fill="#EF858C"/>
<path d="M53.6953 23.7246H223.538" stroke="#EF858C" stroke-width="0.9" stroke-miterlimit="10"/>
<path d="M11.7586 3.51515C8.24746 6.81106 7.16451 12.6966 12.2967 14.5329C12.7272 14.6944 13.1039 14.7482 12.7272 14.2639C12.3505 13.7796 10.6757 12.2123 10.9985 9.3469C11.0524 8.75498 11.16 8.86933 11.2138 9.29982C11.2676 9.7303 11.7183 12.589 13.7025 13.8267C14.133 14.0957 14.4021 14.0419 14.4626 13.3424C14.5164 12.6428 15.216 11.0756 14.1398 8.75498C13.0568 6.43439 12.1958 5.08239 12.3035 3.83801C12.3573 3.46133 11.9806 3.19228 11.7653 3.51515H11.7586Z" fill="url(#paint0_linear_9436_6839)"/>
<path d="M50.0922 22.4896C48.7873 20.5927 46.0968 19.678 44.886 21.9851C44.7784 22.1802 44.7313 22.355 44.9802 22.2071C45.2358 22.0591 46.0833 21.373 47.4017 21.7228C47.6775 21.79 47.6169 21.8304 47.4017 21.8237C47.1932 21.8237 45.8277 21.8371 45.108 22.6914C44.9533 22.873 44.96 23.0075 45.2829 23.0815C45.6057 23.1555 46.2986 23.5994 47.4555 23.2429C48.6192 22.8932 49.312 22.5703 49.8837 22.7115C50.0586 22.7654 50.2133 22.6039 50.072 22.4761L50.0922 22.4896Z" fill="url(#paint1_linear_9436_6839)"/>
<path d="M37.6443 12.6159C35.4582 13.5644 33.965 16.1338 36.0569 17.849C36.2317 17.997 36.3999 18.0845 36.3057 17.7952C36.2116 17.506 35.6936 16.4903 36.3192 15.2123C36.4403 14.9433 36.4739 15.0172 36.4268 15.2258C36.3797 15.4343 36.1174 16.8468 36.8304 17.7549C36.9851 17.9567 37.1196 17.9768 37.2609 17.654C37.4021 17.3378 37.9941 16.719 37.8797 15.4545C37.7654 14.1899 37.5837 13.4164 37.8461 12.8514C37.9335 12.6832 37.8057 12.4949 37.651 12.6092L37.6443 12.6159Z" fill="url(#paint2_linear_9436_6839)"/>
<path d="M35.1727 46.5626C35.731 43.9998 34.3924 41.0268 31.527 41.7869C31.2848 41.8474 31.0965 41.9416 31.4126 42.0425C31.7355 42.1434 32.9664 42.3317 33.7063 43.7173C33.8678 43.9998 33.7803 43.9797 33.6256 43.7981C33.4709 43.6232 32.3812 42.4797 31.11 42.5402C30.8342 42.5537 30.7266 42.6613 30.9216 42.9909C31.1167 43.3205 31.2848 44.242 32.4889 44.9483C33.6929 45.6545 34.5 45.9908 34.8296 46.5828C34.9238 46.7711 35.1727 46.7778 35.1727 46.5626Z" fill="url(#paint3_linear_9436_6839)"/>
<path d="M30.8212 0.21817C28.1845 1.0926 26.1935 3.89749 28.4334 6.10374C28.6217 6.29208 28.8033 6.41315 28.7226 6.07011C28.6419 5.72706 28.1509 4.50286 29.0118 3.0836C29.1867 2.78764 29.2136 2.87508 29.1329 3.11051C29.0589 3.34593 28.6015 4.9468 29.3347 6.07683C29.4961 6.32571 29.6509 6.35934 29.8459 6.00957C30.041 5.6598 30.7876 5.00734 30.7876 3.53427C30.7876 2.06119 30.6598 1.14641 31.0163 0.520856C31.1374 0.332518 31.0029 0.103821 30.8145 0.21817H30.8212Z" fill="url(#paint4_linear_9436_6839)"/>
<path d="M3.55227 37.4699C6.01412 37.3959 8.41543 35.5058 7.07016 33.0641C6.95581 32.8556 6.83473 32.7076 6.81455 33.0238C6.79437 33.3399 6.90872 34.5036 5.81233 35.4923C5.59036 35.7009 5.59036 35.6201 5.71816 35.4385C5.84596 35.2569 6.63294 34.0058 6.29662 32.8623C6.22263 32.6135 6.10156 32.5462 5.84596 32.7951C5.59036 33.0439 4.78992 33.4072 4.41997 34.665C4.05002 35.9161 3.92222 36.73 3.4581 37.1672C3.31012 37.295 3.36393 37.5304 3.55227 37.4766V37.4699Z" fill="url(#paint5_linear_9436_6839)"/>
<path d="M1.22637 33.2786C1.31381 29.1285 4.46175 25.0321 8.60519 27.2585C8.95496 27.4469 9.21056 27.6554 8.67918 27.689C8.14779 27.7294 6.17697 27.5612 4.52901 29.4177C4.17924 29.7944 4.31377 29.7944 4.62318 29.5791C4.93259 29.3639 7.02449 28.0052 8.96168 28.5567C9.38544 28.6778 9.50652 28.8796 9.08948 29.3235C8.67245 29.7675 8.0738 31.1195 5.96172 31.7652C3.84965 32.4109 2.4842 32.6396 1.75102 33.4266C1.54251 33.6755 1.14565 33.5948 1.23309 33.2652L1.22637 33.2786Z" fill="url(#paint6_linear_9436_6839)"/>
<path d="M32.5113 2.13505C35.1414 1.23372 38.4373 2.30994 38.0068 5.4646C37.9732 5.73365 37.8992 5.94217 37.7512 5.61258C37.6032 5.28299 37.2534 3.9848 35.6996 3.35925C35.3835 3.21799 35.4104 3.30544 35.6189 3.45342C35.8274 3.6014 37.166 4.6238 37.2669 5.98926C37.2871 6.28522 37.1862 6.41302 36.8162 6.24486C36.4463 6.0767 35.4508 6.00271 34.5562 4.80542C33.6548 3.6014 33.1974 2.78751 32.5315 2.49827C32.323 2.41756 32.2894 2.1485 32.5113 2.12832V2.13505Z" fill="url(#paint7_linear_9436_6839)"/>
<path d="M22.7432 38.74C20.4092 40.2333 16.9451 39.9777 16.6222 36.8096C16.5886 36.5405 16.6088 36.3185 16.8308 36.6078C17.0527 36.8903 17.6985 38.0674 19.3599 38.3095C19.7029 38.3701 19.6491 38.2894 19.4137 38.1952C19.1783 38.101 17.6312 37.4217 17.2074 36.1235C17.1133 35.841 17.1873 35.693 17.5841 35.767C17.9877 35.841 18.963 35.6728 20.12 36.6279C21.2769 37.5831 21.9226 38.2692 22.6356 38.3903C22.8576 38.4172 22.9585 38.666 22.7432 38.74Z" fill="url(#paint8_linear_9436_6839)"/>
<path d="M38.6695 26.8815C40.1156 28.7581 40.1493 31.7177 37.4789 32.2289C37.2502 32.276 37.0619 32.276 37.2906 32.0608C37.5193 31.8522 38.4677 31.2132 38.5484 29.7872C38.5753 29.4913 38.508 29.5451 38.4475 29.7536C38.387 29.9621 37.9228 31.3209 36.8466 31.7782C36.6112 31.8791 36.4834 31.8321 36.517 31.4823C36.5507 31.1325 36.3354 30.3186 37.0619 29.2626C37.7883 28.2066 38.3197 27.6146 38.3735 26.9958C38.3735 26.8075 38.5888 26.7066 38.6627 26.8815H38.6695Z" fill="url(#paint9_linear_9436_6839)"/>
<path d="M0.275261 21.0304C3.67207 17.2502 9.86705 15.9722 11.9253 21.3465C12.1069 21.7972 12.1742 22.2008 11.6495 21.8106C11.1249 21.4205 9.43657 19.6918 6.42316 20.1022C5.7976 20.1761 5.9254 20.2838 6.3828 20.3309C6.84019 20.3779 9.86705 20.7882 11.2191 22.8532C11.515 23.3039 11.4612 23.5864 10.7213 23.6604C9.9814 23.7344 8.34017 24.5146 5.86487 23.425C3.38957 22.3353 1.9434 21.4542 0.631758 21.6021C0.234903 21.6694 -0.061057 21.2793 0.275261 21.0371V21.0304Z" fill="url(#paint10_linear_9436_6839)"/>
<path d="M32.5898 48.5071C29.4485 49.9734 25.3455 49.0721 25.6683 45.1035C25.6885 44.7672 25.7625 44.4982 25.971 44.8883C26.1728 45.2784 26.6907 46.8389 28.6279 47.4107C29.0248 47.5385 28.9777 47.4376 28.7154 47.2829C28.453 47.1282 26.7513 46.0318 26.536 44.3502C26.4889 43.987 26.6033 43.8188 27.0674 43.9735C27.5315 44.1349 28.749 44.0879 29.9261 45.46C31.1032 46.8322 31.7221 47.7874 32.5494 48.0564C32.805 48.1237 32.8723 48.4533 32.5965 48.5138L32.5898 48.5071Z" fill="url(#paint11_linear_9436_6839)"/>
<path d="M50.3053 23.9944C48.6102 28.501 43.5924 31.7633 39.9265 27.7275C39.6104 27.3912 39.4153 27.0616 40.0072 27.223C40.6059 27.3845 42.691 28.3262 45.2134 26.9338C45.7381 26.6513 45.5901 26.6042 45.1731 26.7186C44.756 26.8329 41.9444 27.5123 40.0408 26.1603C39.6238 25.8643 39.57 25.5952 40.2023 25.2791C40.8278 24.9562 42.0049 23.7051 44.5677 23.8128C47.1237 23.9204 48.7044 24.1962 49.8075 23.6177C50.1371 23.4226 50.534 23.6715 50.312 23.9944H50.3053Z" fill="url(#paint12_linear_9436_6839)"/>
<path d="M31.976 14.2289C30.9738 13.6235 30.7384 12.4599 30.7384 12.4599C30.7249 12.3859 30.7788 12.3119 30.8527 12.2917C30.8527 12.2917 32.0769 12.0025 33.0792 12.6079C34.0814 13.2132 34.3168 14.3769 34.3168 14.3769C34.3303 14.4509 34.2832 14.5316 34.2025 14.545C34.2025 14.545 32.9783 14.8343 31.976 14.2289Z" fill="url(#paint13_linear_9436_6839)"/>
<path d="M10.3112 26.9805C10.4188 25.6016 11.5219 24.7339 11.5219 24.7339C11.5959 24.6801 11.7035 24.6935 11.7641 24.7675C11.7641 24.7675 12.7192 25.9043 12.6116 27.2899C12.504 28.6688 11.4009 29.5365 11.4009 29.5365C11.3269 29.5971 11.2193 29.5836 11.1587 29.5096C11.1587 29.5096 10.2036 28.3729 10.3112 26.9872V26.9805Z" fill="url(#paint14_linear_9436_6839)"/>
<path d="M25.0098 37.8929C26.234 37.2471 27.5591 37.7247 27.5591 37.7247C27.6465 37.7583 27.6869 37.8592 27.66 37.9467C27.66 37.9467 27.2026 39.3592 25.9716 40.0049C24.7474 40.6507 23.4223 40.1731 23.4223 40.1731C23.3349 40.1395 23.2878 40.0453 23.3215 39.9511C23.3215 39.9511 23.7788 38.5386 25.0098 37.8929Z" fill="url(#paint15_linear_9436_6839)"/>
<path d="M31.4861 40.3145C30.7798 41.727 28.9099 42.0701 28.9099 42.0701C28.7888 42.0902 28.6476 42.0162 28.5938 41.9086C28.5938 41.9086 27.7462 40.2069 28.4592 38.7943C29.1655 37.3818 31.0354 37.0387 31.0354 37.0387C31.1565 37.0118 31.2978 37.0858 31.3516 37.2002C31.3516 37.2002 32.1924 38.9019 31.4861 40.3145Z" fill="url(#paint16_linear_9436_6839)"/>
<path d="M39.2342 43.9547C41.9651 43.9883 44.7162 42.0107 43.344 39.2462C43.2297 39.0108 43.0951 38.8359 43.0615 39.1857C43.0211 39.5287 43.0951 40.8269 41.8306 41.8695C41.575 42.0915 41.5817 41.9973 41.7297 41.8022C41.8777 41.6072 42.8126 40.2619 42.4965 38.9772C42.4292 38.6946 42.2947 38.6139 41.992 38.8763C41.6961 39.1386 40.7947 39.5018 40.3239 40.8807C39.853 42.2529 39.6714 43.1408 39.14 43.6049C38.9651 43.7394 39.019 43.995 39.2275 43.9479L39.2342 43.9547Z" fill="url(#paint17_linear_9436_6839)"/>
<path d="M43.6241 37.6755C42.7766 36.6396 43.0994 35.0253 43.0994 35.0253C43.1263 34.9177 43.2205 34.8302 43.3214 34.8235C43.3214 34.8235 44.8819 34.7159 45.7294 35.7517C46.577 36.7876 46.2541 38.4019 46.2541 38.4019C46.2339 38.5095 46.133 38.597 46.0321 38.6037C46.0321 38.6037 44.4716 38.7113 43.6241 37.6755Z" fill="url(#paint18_linear_9436_6839)"/>
<path d="M46.3157 34.121C44.4391 34.3161 42.892 32.6479 42.892 32.6479C42.7911 32.5403 42.7777 32.352 42.8516 32.2242C42.8516 32.2242 44.0288 30.2803 45.9054 30.0852C47.7821 29.8969 49.3291 31.5583 49.3291 31.5583C49.43 31.6659 49.4502 31.8542 49.3762 31.982C49.3762 31.982 48.1991 33.9259 46.3224 34.121H46.3157Z" fill="url(#paint19_linear_9436_6839)"/>
<path d="M4.91738 14.8612C3.69318 13.3006 4.23802 10.9531 4.23802 10.9531C4.27165 10.7984 4.41963 10.6774 4.57434 10.6706C4.57434 10.6706 6.89493 10.5899 8.11913 12.1504C9.34333 13.7109 8.80522 16.0517 8.80522 16.0517C8.77159 16.1997 8.62361 16.3342 8.4689 16.3342C8.4689 16.3342 6.14831 16.4149 4.92411 14.8544L4.91738 14.8612Z" fill="url(#paint20_linear_9436_6839)"/>
<path d="M15.1686 2.37807C15.9556 1.24804 17.6103 1.1875 17.6103 1.1875C17.7179 1.1875 17.8322 1.26149 17.8659 1.36239C17.8659 1.36239 18.3838 2.93635 17.5968 4.06638C16.8098 5.19641 15.1552 5.25695 15.1552 5.25695C15.0475 5.25695 14.9332 5.18296 14.8995 5.08206C14.8995 5.08206 14.3883 3.5081 15.1753 2.37807H15.1686Z" fill="url(#paint21_linear_9436_6839)"/>
<path d="M3.56435 16.5439C3.56435 17.1089 3.10695 17.5663 2.54194 17.5663C1.97692 17.5663 1.51953 17.1089 1.51953 16.5439C1.51953 15.9789 1.97692 15.5215 2.54194 15.5215C3.10695 15.5215 3.56435 15.9789 3.56435 16.5439Z" fill="url(#paint22_linear_9436_6839)"/>
<path d="M38.9862 45.3798C38.9862 45.9448 38.5288 46.4022 37.9638 46.4022C37.3988 46.4022 36.9414 45.9448 36.9414 45.3798C36.9414 44.8148 37.3988 44.3574 37.9638 44.3574C38.5288 44.3574 38.9862 44.8148 38.9862 45.3798Z" fill="url(#paint23_linear_9436_6839)"/>
<path d="M7.49794 39.8623C7.49794 40.4273 7.04055 40.8847 6.47553 40.8847C5.91052 40.8847 5.45312 40.4273 5.45312 39.8623C5.45312 39.2972 5.91052 38.8398 6.47553 38.8398C7.04055 38.8398 7.49794 39.2972 7.49794 39.8623Z" fill="url(#paint24_linear_9436_6839)"/>
<path d="M41.9112 33.3462C41.9112 33.7902 41.548 34.1534 41.104 34.1534C40.6601 34.1534 40.2969 33.7902 40.2969 33.3462C40.2969 32.9023 40.6601 32.5391 41.104 32.5391C41.548 32.5391 41.9112 32.9023 41.9112 33.3462Z" fill="url(#paint25_linear_9436_6839)"/>
<path d="M2.32732 25.4273C2.32732 26.0731 1.80939 26.591 1.16366 26.591C0.51793 26.591 0 26.0731 0 25.4273C0 24.7816 0.51793 24.2637 1.16366 24.2637C1.80939 24.2637 2.32732 24.7816 2.32732 25.4273Z" fill="url(#paint26_linear_9436_6839)"/>
<path d="M37.4523 8.98397C37.4523 9.62298 36.9344 10.1476 36.2887 10.1476C35.6429 10.1476 35.125 9.6297 35.125 8.98397C35.125 8.33824 35.6497 7.82031 36.2887 7.82031C36.9277 7.82031 37.4523 8.34497 37.4523 8.98397Z" fill="url(#paint27_linear_9436_6839)"/>
<path d="M25.8867 0.675882C26.1423 3.11083 27.2993 11.5255 18.0707 13.9672C17.6335 14.1891 17.4317 13.9672 17.9227 13.604C18.4138 13.2407 22.7859 8.91568 23.0751 5.96953C23.1558 5.0951 22.8061 5.75429 22.7859 5.92917C22.7657 6.10406 20.6065 10.4695 16.6447 13.2878C16.1873 13.6779 15.9788 13.3887 16.1739 12.5412C16.3689 11.6937 14.8959 7.50314 19.0931 3.95835C20.62 2.66689 24.2657 1.8799 25.2276 0.231942C25.3755 -0.02366 25.7791 -0.272535 25.88 0.682608L25.8867 0.675882Z" fill="url(#paint28_linear_9436_6839)"/>
<path d="M47.0692 12.9315C47.0558 15.0705 47.2441 22.4964 38.9841 23.7273C38.5806 23.8753 38.4259 23.6601 38.89 23.3977C39.3541 23.1287 43.5783 19.7924 44.1096 17.2566C44.2643 16.5032 43.8944 17.0413 43.8608 17.196C43.8271 17.344 41.5267 20.9292 37.807 22.9942C37.3765 23.2901 37.2218 23.0211 37.4707 22.3013C37.7196 21.5816 36.8519 17.7947 40.8406 15.1243C42.3002 14.149 45.5356 13.8194 46.5379 12.4809C46.6926 12.2723 47.0692 12.0974 47.0625 12.9382L47.0692 12.9315Z" fill="url(#paint29_linear_9436_6839)"/>
<path d="M15.9684 34.7987C15.9684 34.5161 15.2218 34.2874 14.2935 34.2874C14.1994 34.2874 14.1119 34.2874 14.0245 34.2874C14.1052 34.2471 14.1792 34.2067 14.2599 34.1596C15.0603 33.6955 15.5984 33.1238 15.4505 32.8749C15.3092 32.626 14.5491 32.8076 13.742 33.265C13.6613 33.3121 13.5873 33.3592 13.5065 33.4063C13.5536 33.3323 13.6007 33.2516 13.6478 33.1776C14.1119 32.3772 14.2868 31.6104 14.0379 31.4691C13.7958 31.3278 13.2173 31.8592 12.7532 32.6597C12.7061 32.7404 12.6658 32.8211 12.6254 32.9018C12.6254 32.8076 12.6321 32.7202 12.6321 32.626C12.6321 31.7045 12.4034 30.9512 12.1209 30.9512C11.8384 30.9512 11.6097 31.7045 11.6097 32.626C11.6097 32.7202 11.6097 32.8076 11.6164 32.9018C11.5761 32.8211 11.5357 32.7404 11.4886 32.6597C11.0245 31.8592 10.4528 31.3211 10.2039 31.4691C9.95503 31.6104 10.1299 32.3772 10.594 33.1776C10.6411 33.2583 10.6882 33.339 10.7353 33.413C10.6613 33.3659 10.5806 33.3189 10.4999 33.2718C9.69943 32.8076 8.93262 32.6328 8.79137 32.8816C8.65011 33.1305 9.1815 33.7023 9.98193 34.1664C10.0626 34.2135 10.1434 34.2538 10.2241 34.2942C10.1366 34.2942 10.0425 34.2942 9.9483 34.2942C9.02006 34.2942 8.27344 34.5229 8.27344 34.8054C8.27344 35.0879 9.02006 35.3166 9.9483 35.3166C10.0425 35.3166 10.1299 35.3166 10.2241 35.3099C10.1434 35.3502 10.0626 35.3906 9.98193 35.4444C9.1815 35.9085 8.65011 36.4802 8.79137 36.7224C8.93262 36.9713 9.69943 36.7964 10.4999 36.3323C10.5806 36.2852 10.6613 36.2381 10.7353 36.191C10.6882 36.265 10.6411 36.339 10.594 36.4197C10.1299 37.2201 9.95503 37.9869 10.2039 38.1282C10.4461 38.2695 11.0245 37.7381 11.4886 36.9309C11.5357 36.8502 11.5761 36.7695 11.6164 36.6888C11.6164 36.7762 11.6097 36.8704 11.6097 36.9578C11.6097 37.8861 11.8384 38.6327 12.1209 38.6327C12.4034 38.6327 12.6321 37.8861 12.6321 36.9578C12.6321 36.8636 12.6321 36.7762 12.6254 36.6888C12.6658 36.7695 12.7061 36.8502 12.7532 36.9309C13.2173 37.7313 13.7891 38.2695 14.0379 38.1282C14.2868 37.9869 14.1119 37.2201 13.6478 36.4197C13.6007 36.339 13.5536 36.265 13.5065 36.1843C13.5805 36.2314 13.6613 36.2785 13.742 36.3255C14.5424 36.7897 15.3092 36.9645 15.4505 36.7157C15.5917 36.4668 15.0603 35.895 14.2599 35.4377C14.1792 35.3906 14.0985 35.3502 14.0178 35.3031C14.1052 35.3031 14.1994 35.3099 14.2935 35.3099C15.2218 35.3099 15.9684 35.0812 15.9684 34.7987ZM12.1344 36.2314C11.3541 36.2314 10.7286 35.5991 10.7286 34.8256C10.7286 34.052 11.3608 33.4197 12.1344 33.4197C12.9079 33.4197 13.5402 34.052 13.5402 34.8256C13.5402 35.5991 12.9079 36.2314 12.1344 36.2314Z" fill="url(#paint30_linear_9436_6839)"/>
<path d="M41.2318 36.7841C41.178 36.3738 40.2161 35.5666 39.039 35.8693C39.7385 34.9209 39.4493 33.6429 39.1601 33.4546C38.8439 33.2595 38.7497 33.4075 38.5143 33.2999C38.2789 33.199 38.3193 33.0308 37.9628 32.9299C37.5525 32.8156 36.3686 33.4075 36.2274 34.6922C35.6354 33.7034 34.3978 33.4546 34.1153 33.6429C33.8059 33.8514 33.9 33.9994 33.705 34.1676C33.5099 34.3424 33.3754 34.2281 33.14 34.5173C32.844 34.8671 32.9247 36.3334 34.2565 36.9388C33.0458 37.4433 32.7296 38.8827 32.9314 39.1921C33.14 39.5016 33.2879 39.4074 33.4628 39.6025C33.631 39.7975 33.5301 39.932 33.8126 40.1675C34.0884 40.3962 35.0637 40.3962 35.7632 39.7303C35.8641 40.7392 36.6444 41.4791 36.9605 41.4791C37.3372 41.4791 37.3372 41.2975 37.5928 41.2571C37.8484 41.2168 37.9022 41.3782 38.2587 41.2706C38.6623 41.1495 39.3282 40.0397 38.7901 38.8895C40.0143 39.2998 41.1981 38.4523 41.2452 38.089C41.299 37.7191 41.1309 37.6922 41.1309 37.4298C41.1309 37.1742 41.299 37.1406 41.252 36.7774L41.2318 36.7841ZM37.8888 37.6047C37.6197 38.2236 36.9 38.4993 36.2879 38.2303C35.6691 37.9545 35.3933 37.2415 35.6623 36.6294C35.9314 36.0106 36.6511 35.7348 37.2632 36.0039C37.8753 36.2729 38.1578 36.9926 37.8888 37.6115V37.6047Z" fill="url(#paint31_linear_9436_6839)"/>
<path fill-rule="evenodd" clip-rule="evenodd" d="M8.36252 42.5948C8.32889 41.9894 9.00826 41.458 9.88268 41.4042H9.91631H9.94322H9.9903H10.0643H10.0845H10.1316H10.145H10.1719H10.1988H10.2123V41.3908V41.3841V41.3706V41.3639V41.3504H10.1988V41.3437V41.3302V41.3235V41.3101V41.3033V41.2899H10.1921V41.2764V41.263V41.2495V41.2361H10.1854V41.2293V41.2159V41.2092V41.2024L10.1719 41.1755V41.1554H10.1585V41.1486V41.1419V41.1285V41.1083C9.8356 40.2944 10.0307 39.4536 10.5957 39.2316C11.1607 39.0096 11.8804 39.4939 12.1966 40.3078L12.21 40.3482L12.2235 40.3818V40.3886L12.2369 40.4222L12.2504 40.4558L12.2638 40.4962V40.5298H12.2773V40.5365V40.5634H12.284V40.5702V40.5836V40.5903V40.5971V40.6105V40.624V40.6374V40.6307H12.2907V40.6172V40.6105V40.6038V40.5971V40.5903L12.2974 40.5836V40.5769V40.5702L12.3042 40.5567V40.55V40.5433L12.3109 40.5298L12.3176 40.5164V40.5096V40.5029V40.4962V40.4894V40.4827L12.3311 40.4693L12.358 40.4424L12.3782 40.4222C13.0575 39.8639 13.9185 39.7966 14.3019 40.2675C14.6853 40.7383 14.4499 41.5657 13.7705 42.124L13.7369 42.1509L13.7167 42.171L13.6898 42.1912L13.6764 42.2047H13.6629V42.2181V42.2248L13.6562 42.2316L13.6494 42.2383V42.245L13.6427 42.2518H13.6562H13.6696V42.2585H13.6764H13.6831H13.6898V42.2652H13.6965H13.71V42.2787L13.7436 42.2921L13.7772 42.3123L13.8109 42.3325C14.5508 42.8033 14.8804 43.6038 14.5508 44.115C14.2212 44.6262 13.3602 44.6598 12.6203 44.1889L12.5934 44.1688L12.5732 44.1553L12.553 44.1419V44.1351H12.5463V44.1284L12.5396 44.1217V44.115V44.1082V44.1015H12.5329V44.0881V44.0813H12.5261V44.0679V44.0611L12.5127 44.0477V44.041H12.506V44.0275C12.4925 44.1419 12.4723 44.2697 12.4387 44.3907C12.2167 45.2383 11.5643 45.8033 10.9724 45.6486C10.3872 45.4939 10.0912 44.68 10.3064 43.8325C10.3401 43.7046 10.3804 43.5903 10.4342 43.476L10.4141 43.4827H10.4006H10.3939H10.3804H10.367H10.3535H10.3401H10.3333H10.3266H10.3132H10.293H10.2795H10.2594H10.2392H10.219H10.1921H10.1652H10.1585C9.28404 43.5365 8.54414 43.0858 8.5105 42.4804L8.36252 42.5948Z" fill="url(#paint32_linear_9436_6839)"/>
<path fill-rule="evenodd" clip-rule="evenodd" d="M11.5832 18.413C11.3477 18.1439 11.4755 17.6529 11.8657 17.3166L11.8791 17.3031L11.8858 17.2964L11.8993 17.2829L11.9127 17.2695H11.9262V17.256V17.2493H11.9195H11.9127H11.906H11.8993H11.8858V17.2426L11.8724 17.2359H11.8657C11.4284 16.9668 11.2199 16.5027 11.4015 16.2C11.5832 15.8973 12.0876 15.8637 12.5316 16.126L12.5518 16.1395L12.5652 16.1529L12.5787 16.1664L12.5988 16.1798L12.619 16.1933L12.6325 16.2067L12.6459 16.2202V16.2269V16.2336V16.2202V16.2067V16.1933V16.1798V16.1731V16.1664V16.1529V16.1462V16.126V16.1193V16.1058V16.0991V16.0856V16.0587V16.0453C12.767 15.5475 13.1437 15.2045 13.4867 15.2852C13.8298 15.3659 14.0181 15.8368 13.9038 16.3345V16.3614H13.897V16.3816V16.4018V16.4152V16.4354V16.4421V16.4556V16.4623V16.4691V16.4758V16.4825H13.9105H13.9172H13.9239H13.9307H13.9374H13.9441H13.9508H13.9643H13.9777H13.9912H14.0181H14.045H14.0652C14.5764 16.4354 15.0136 16.691 15.0472 17.0408C15.0809 17.3973 14.6907 17.7202 14.1795 17.7605H14.1526H14.1392H14.0921H14.0517H14.0046H13.9912C14.0316 17.8211 14.0652 17.8883 14.0921 17.9556C14.2939 18.4264 14.1863 18.9242 13.8634 19.0654C13.5338 19.2067 13.11 18.9309 12.9082 18.4601C12.8813 18.3928 12.8544 18.3255 12.841 18.2515V18.2583V18.265V18.2717L12.8343 18.2784L12.8208 18.2919H12.8141V18.3053C12.4239 18.6417 11.9262 18.6955 11.6908 18.4264L11.5832 18.413Z" fill="url(#paint33_linear_9436_6839)"/>
<path fill-rule="evenodd" clip-rule="evenodd" d="M27.1198 12.5538C26.7633 12.5269 26.5144 12.0897 26.548 11.5785V11.5583V11.5448V11.5314V11.5112V11.491V11.4709V11.4641V11.4507V11.4439V11.4372V11.4305V11.4238V11.4103H26.5346H26.5278H26.5211H26.5144H26.4875H26.474H26.4673H26.4606C25.9628 11.5314 25.492 11.3498 25.4045 11.0067C25.3238 10.657 25.6601 10.2803 26.1579 10.1659H26.1848V10.1592H26.1982H26.2184H26.2386H26.2588H26.279H26.2991H26.3126H26.3328V10.1525V10.1458V10.139V10.1323V10.1256V10.1189L26.3193 10.1054L26.3059 10.0852C26.0368 9.64801 26.0637 9.14353 26.3664 8.9552C26.6691 8.76686 27.1332 8.96865 27.4023 9.41259L27.4157 9.43277V9.44622H27.4224L27.4292 9.4664V9.47985V9.4933V9.50003V9.50676V9.51348V9.52021V9.52694V9.51348V9.50676V9.4933V9.48658V9.47313L27.4426 9.45295L27.4561 9.43277L27.4695 9.41259C27.7991 9.02246 28.2901 8.89466 28.5592 9.12335C28.8283 9.35205 28.7812 9.85653 28.4449 10.2467L28.4314 10.2601V10.2736H28.4179L28.4045 10.287V10.2937V10.3005L28.3978 10.3072C28.4718 10.3206 28.539 10.3476 28.6063 10.3745C29.0839 10.5695 29.3529 10.9933 29.2184 11.3229C29.0839 11.6525 28.5861 11.7601 28.1153 11.565C28.048 11.5381 27.9807 11.4978 27.9202 11.4641V11.4776V11.491V11.5045V11.5112V11.5247V11.5381V11.5516V11.565V11.5785V11.5852V11.5987V11.6121V11.6188V11.6323V11.6525V11.6659C27.8798 12.1838 27.5637 12.574 27.2072 12.5471L27.1198 12.5538Z" fill="url(#paint34_linear_9436_6839)"/>
<path d="M33.2 8.20372C33.2 8.20372 33.1731 8.20372 33.1664 8.197C33.1731 8.197 33.1866 8.18354 33.2 8.17682C33.913 7.69925 34.3637 7.1275 34.2157 6.89881C34.061 6.67011 33.3614 6.8719 32.6484 7.34275C32.635 7.34947 32.6283 7.3562 32.6215 7.36293C32.6215 7.34947 32.6215 7.34275 32.6283 7.3293C32.7964 6.4885 32.709 5.76205 32.4399 5.70824C32.1709 5.65443 31.8144 6.29344 31.6462 7.13423C31.6462 7.14768 31.6462 7.16114 31.6462 7.16786C31.6462 7.15441 31.6328 7.14768 31.626 7.13423C31.1485 6.42124 30.5767 5.97057 30.348 6.11855C30.1193 6.27326 30.3144 6.9728 30.792 7.68579C30.7987 7.69252 30.8054 7.70597 30.8121 7.7127C30.7987 7.7127 30.7852 7.7127 30.7785 7.70597C29.9377 7.53781 29.2113 7.62526 29.1575 7.89431C29.1036 8.17009 29.7427 8.51986 30.5835 8.68802C30.5969 8.68802 30.6104 8.68802 30.6171 8.68802C30.6104 8.68802 30.5969 8.70147 30.5835 8.7082C29.8705 9.18577 29.4131 9.75751 29.5678 9.98621C29.7225 10.2149 30.422 10.0131 31.135 9.54227C31.1417 9.54227 31.1552 9.52882 31.1619 9.52209C31.1619 9.53554 31.1619 9.549 31.1552 9.55572C30.987 10.3965 31.0745 11.123 31.3435 11.1768C31.6126 11.2306 31.9691 10.5916 32.1372 9.75079C32.1372 9.73733 32.1372 9.72388 32.144 9.71715C32.144 9.72388 32.1574 9.73733 32.1641 9.74406C32.6417 10.4571 33.2135 10.9077 33.4422 10.7597C33.6709 10.605 33.4691 9.90549 32.9982 9.1925C32.9982 9.18577 32.9848 9.17232 32.978 9.16559C32.9915 9.16559 33.0049 9.16559 33.0117 9.17232C33.8525 9.34048 34.5789 9.25304 34.6327 8.98398C34.6865 8.71493 34.0475 8.35843 33.2067 8.19027L33.2 8.20372Z" fill="url(#paint35_linear_9436_6839)"/>
<path d="M40.8231 9.66939C40.8231 9.66939 39.72 9.25908 39.1684 8.41829C38.6169 7.57749 39.1953 6.99902 39.4375 6.6627C39.6796 6.32639 39.6594 6.23894 39.8814 6.30621C40.1034 6.37347 40.9778 6.41383 41.4554 7.34879C41.933 8.28376 41.0518 9.35325 41.0451 9.56849C41.0384 9.77701 40.9038 9.76356 40.8298 9.66939H40.8231Z" fill="url(#paint36_linear_9436_6839)"/>
<path d="M41.1763 10.2139C41.1763 10.2139 42.2794 10.6242 42.831 11.465C43.3825 12.3058 42.8041 12.8843 42.5619 13.2206C42.3198 13.5569 42.3467 13.6444 42.118 13.5704C41.896 13.4964 41.0216 13.4628 40.5507 12.5278C40.0732 11.5928 40.9476 10.5233 40.9611 10.3148C40.9745 10.1063 41.1023 10.1198 41.1763 10.2139Z" fill="url(#paint37_linear_9436_6839)"/>
<path d="M41.2706 9.76256C41.2706 9.76256 41.6809 8.65944 42.5217 8.10788C43.3625 7.55631 43.9409 8.13478 44.2772 8.37693C44.6136 8.61908 44.701 8.5989 44.627 8.82087C44.5598 9.04284 44.5194 9.91727 43.5844 10.3881C42.6495 10.8657 41.58 9.99126 41.3715 9.9778C41.1629 9.96435 41.1764 9.83655 41.2706 9.76256Z" fill="url(#paint38_linear_9436_6839)"/>
<path d="M40.7325 10.1124C40.7325 10.1124 40.3222 11.2155 39.4814 11.7671C38.6406 12.3186 38.0621 11.7401 37.7258 11.498C37.3895 11.2558 37.302 11.2828 37.376 11.0608C37.45 10.8388 37.4837 9.96439 38.4186 9.48681C39.3536 9.01597 40.4231 9.8904 40.6316 9.89712C40.8401 9.91057 40.8267 10.0384 40.7325 10.1124Z" fill="url(#paint39_linear_9436_6839)"/>
<path d="M41.3287 9.63429C41.1673 9.4325 40.8848 9.4056 40.683 9.5603C40.4879 9.71501 40.4543 10.0042 40.609 10.1993C40.7637 10.3944 41.0529 10.428 41.2547 10.2733C41.4498 10.1186 41.4834 9.82936 41.3287 9.63429Z" fill="url(#paint40_linear_9436_6839)"/>
<path d="M19.6112 44.8204C19.6112 44.8204 17.9364 44.5379 16.9274 43.4953C15.9185 42.4595 16.5777 41.4774 16.8333 40.9326C17.0821 40.3945 17.0283 40.2734 17.3646 40.3138C17.701 40.3541 18.9453 40.1725 19.8736 41.3698C20.8018 42.5671 19.8467 44.316 19.8938 44.6186C19.9341 44.9146 19.7458 44.9348 19.6112 44.8204Z" fill="url(#paint41_linear_9436_6839)"/>
<path d="M20.266 45.4865C20.266 45.4865 21.9409 45.7757 22.9498 46.8116C23.9588 47.8542 23.2996 48.8295 23.0507 49.3743C22.8018 49.9191 22.8556 50.0335 22.5193 49.9931C22.183 49.9528 20.9386 50.1411 20.0104 48.9371C19.0822 47.7398 20.0306 45.991 19.9902 45.6883C19.9499 45.3923 20.1382 45.3721 20.266 45.4865Z" fill="url(#paint42_linear_9436_6839)"/>
<path d="M20.2703 44.8359C20.2703 44.8359 20.5528 43.161 21.5886 42.152C22.6312 41.1431 23.6133 41.8023 24.1514 42.0579C24.6895 42.3067 24.8106 42.2529 24.7702 42.5893C24.7299 42.9256 24.9182 44.1699 23.7142 45.0982C22.5169 46.0264 20.768 45.078 20.4653 45.1184C20.1627 45.1587 20.1492 44.9704 20.2635 44.8426L20.2703 44.8359Z" fill="url(#paint43_linear_9436_6839)"/>
<path d="M19.6036 45.4802C19.6036 45.4802 19.3211 47.1484 18.2785 48.1641C17.2427 49.173 16.2606 48.5138 15.7158 48.2582C15.1777 48.0093 15.0566 48.0632 15.097 47.7268C15.1373 47.3905 14.9557 46.1461 16.153 45.2179C17.3503 44.2897 19.0992 45.2448 19.4018 45.1977C19.7045 45.1574 19.718 45.3457 19.6036 45.4735V45.4802Z" fill="url(#paint44_linear_9436_6839)"/>
<path d="M20.3175 44.6384C20.0417 44.3962 19.6247 44.4299 19.3892 44.7124C19.1538 44.9882 19.1875 45.4052 19.4632 45.6406C19.739 45.876 20.1561 45.8424 20.3915 45.5666C20.6269 45.2908 20.6 44.8738 20.3175 44.6384Z" fill="url(#paint45_linear_9436_6839)"/>
<defs>
<linearGradient id="paint0_linear_9436_6839" x1="19.7428" y1="-8.08783" x2="-1.39142" y2="41.4855" gradientUnits="userSpaceOnUse">
<stop stop-color="#FCDCB5"/>
<stop offset="0.79" stop-color="#EF858C"/>
</linearGradient>
<linearGradient id="paint1_linear_9436_6839" x1="54.2088" y1="6.60191" x2="33.0745" y2="56.1752" gradientUnits="userSpaceOnUse">
<stop stop-color="#FCDCB5"/>
<stop offset="0.79" stop-color="#EF858C"/>
</linearGradient>
<linearGradient id="paint2_linear_9436_6839" x1="42.5478" y1="1.63179" x2="21.4136" y2="51.2118" gradientUnits="userSpaceOnUse">
<stop stop-color="#FCDCB5"/>
<stop offset="0.79" stop-color="#EF858C"/>
</linearGradient>
<linearGradient id="paint3_linear_9436_6839" x1="49.9841" y1="4.80533" x2="28.8499" y2="54.3786" gradientUnits="userSpaceOnUse">
<stop stop-color="#FCDCB5"/>
<stop offset="0.79" stop-color="#EF858C"/>
</linearGradient>
<linearGradient id="paint4_linear_9436_6839" x1="31.9984" y1="-2.86923" x2="10.8641" y2="46.7108" gradientUnits="userSpaceOnUse">
<stop stop-color="#FCDCB5"/>
<stop offset="0.79" stop-color="#EF858C"/>
</linearGradient>
<linearGradient id="paint5_linear_9436_6839" x1="23.5161" y1="-6.48016" x2="2.38188" y2="43.0931" gradientUnits="userSpaceOnUse">
<stop stop-color="#FCDCB5"/>
<stop offset="0.79" stop-color="#EF858C"/>
</linearGradient>
<linearGradient id="paint6_linear_9436_6839" x1="21.3718" y1="-7.40241" x2="0.237589" y2="42.1776" gradientUnits="userSpaceOnUse">
<stop stop-color="#FCDCB5"/>
<stop offset="0.79" stop-color="#EF858C"/>
</linearGradient>
<linearGradient id="paint7_linear_9436_6839" x1="37.1391" y1="-0.676571" x2="16.0048" y2="48.9102" gradientUnits="userSpaceOnUse">
<stop stop-color="#FCDCB5"/>
<stop offset="0.79" stop-color="#EF858C"/>
</linearGradient>
<linearGradient id="paint8_linear_9436_6839" x1="36.2161" y1="-1.08006" x2="15.0752" y2="48.5067" gradientUnits="userSpaceOnUse">
<stop stop-color="#FCDCB5"/>
<stop offset="0.79" stop-color="#EF858C"/>
</linearGradient>
<linearGradient id="paint9_linear_9436_6839" x1="49.1155" y1="4.42886" x2="27.9813" y2="54.0022" gradientUnits="userSpaceOnUse">
<stop stop-color="#FCDCB5"/>
<stop offset="0.79" stop-color="#EF858C"/>
</linearGradient>
<linearGradient id="paint10_linear_9436_6839" x1="18.8871" y1="-8.45798" x2="-2.24713" y2="41.122" gradientUnits="userSpaceOnUse">
<stop stop-color="#FCDCB5"/>
<stop offset="0.79" stop-color="#EF858C"/>
</linearGradient>
<linearGradient id="paint11_linear_9436_6839" x1="47.5021" y1="3.74314" x2="26.3679" y2="53.3164" gradientUnits="userSpaceOnUse">
<stop stop-color="#FCDCB5"/>
<stop offset="0.79" stop-color="#EF858C"/>
</linearGradient>
<linearGradient id="paint12_linear_9436_6839" x1="53.016" y1="6.09552" x2="31.8818" y2="55.6688" gradientUnits="userSpaceOnUse">
<stop stop-color="#FCDCB5"/>
<stop offset="0.79" stop-color="#EF858C"/>
</linearGradient>
<linearGradient id="paint13_linear_9436_6839" x1="38.319" y1="-0.172232" x2="17.1848" y2="49.4011" gradientUnits="userSpaceOnUse">
<stop stop-color="#FCDCB5"/>
<stop offset="0.79" stop-color="#EF858C"/>
</linearGradient>
<linearGradient id="paint14_linear_9436_6839" x1="25.4388" y1="-5.66253" x2="4.30455" y2="43.9108" gradientUnits="userSpaceOnUse">
<stop stop-color="#FCDCB5"/>
<stop offset="0.79" stop-color="#EF858C"/>
</linearGradient>
<linearGradient id="paint15_linear_9436_6839" x1="41.5768" y1="1.21396" x2="20.4425" y2="50.794" gradientUnits="userSpaceOnUse">
<stop stop-color="#FCDCB5"/>
<stop offset="0.79" stop-color="#EF858C"/>
</linearGradient>
<linearGradient id="paint16_linear_9436_6839" x1="45.5913" y1="2.92935" x2="24.4503" y2="52.5026" gradientUnits="userSpaceOnUse">
<stop stop-color="#FCDCB5"/>
<stop offset="0.79" stop-color="#EF858C"/>
</linearGradient>
<linearGradient id="paint17_linear_9436_6839" x1="56.2923" y1="7.49105" x2="35.158" y2="57.0643" gradientUnits="userSpaceOnUse">
<stop stop-color="#FCDCB5"/>
<stop offset="0.79" stop-color="#EF858C"/>
</linearGradient>
<linearGradient id="paint18_linear_9436_6839" x1="57.0028" y1="7.79698" x2="35.8753" y2="57.3635" gradientUnits="userSpaceOnUse">
<stop stop-color="#FCDCB5"/>
<stop offset="0.79" stop-color="#EF858C"/>
</linearGradient>
<linearGradient id="paint19_linear_9436_6839" x1="56.5532" y1="7.60569" x2="35.419" y2="57.179" gradientUnits="userSpaceOnUse">
<stop stop-color="#FCDCB5"/>
<stop offset="0.79" stop-color="#EF858C"/>
</linearGradient>
<linearGradient id="paint20_linear_9436_6839" x1="16.3387" y1="-9.53536" x2="-4.79548" y2="40.0312" gradientUnits="userSpaceOnUse">
<stop stop-color="#FCDCB5"/>
<stop offset="0.79" stop-color="#EF858C"/>
</linearGradient>
<linearGradient id="paint21_linear_9436_6839" x1="20.9802" y1="-7.5635" x2="-0.154052" y2="42.0098" gradientUnits="userSpaceOnUse">
<stop stop-color="#FCDCB5"/>
<stop offset="0.79" stop-color="#EF858C"/>
</linearGradient>
<linearGradient id="paint22_linear_9436_6839" x1="14.0777" y1="-10.5028" x2="-7.05657" y2="39.0705" gradientUnits="userSpaceOnUse">
<stop stop-color="#FCDCB5"/>
<stop offset="0.79" stop-color="#EF858C"/>
</linearGradient>
<linearGradient id="paint23_linear_9436_6839" x1="54.4569" y1="6.70324" x2="33.3159" y2="56.2833" gradientUnits="userSpaceOnUse">
<stop stop-color="#FCDCB5"/>
<stop offset="0.79" stop-color="#EF858C"/>
</linearGradient>
<linearGradient id="paint24_linear_9436_6839" x1="25.8138" y1="-5.48017" x2="4.68631" y2="44.073" gradientUnits="userSpaceOnUse">
<stop stop-color="#FCDCB5"/>
<stop offset="0.79" stop-color="#EF858C"/>
</linearGradient>
<linearGradient id="paint25_linear_9436_6839" x1="52.7676" y1="5.99009" x2="31.6333" y2="55.5634" gradientUnits="userSpaceOnUse">
<stop stop-color="#FCDCB5"/>
<stop offset="0.79" stop-color="#EF858C"/>
</linearGradient>
<linearGradient id="paint26_linear_9436_6839" x1="16.1164" y1="-9.63719" x2="-5.01786" y2="39.9361" gradientUnits="userSpaceOnUse">
<stop stop-color="#FCDCB5"/>
<stop offset="0.79" stop-color="#EF858C"/>
</linearGradient>
<linearGradient id="paint27_linear_9436_6839" x1="39.9007" y1="0.502029" x2="18.7665" y2="50.082" gradientUnits="userSpaceOnUse">
<stop stop-color="#FCDCB5"/>
<stop offset="0.79" stop-color="#EF858C"/>
</linearGradient>
<linearGradient id="paint28_linear_9436_6839" x1="26.4518" y1="-5.22987" x2="5.31752" y2="44.3434" gradientUnits="userSpaceOnUse">
<stop stop-color="#FCDCB5"/>
<stop offset="0.79" stop-color="#EF858C"/>
</linearGradient>
<linearGradient id="paint29_linear_9436_6839" x1="48.2665" y1="4.0729" x2="27.1323" y2="53.6462" gradientUnits="userSpaceOnUse">
<stop stop-color="#FCDCB5"/>
<stop offset="0.79" stop-color="#EF858C"/>
</linearGradient>
<linearGradient id="paint30_linear_9436_6839" x1="28.7754" y1="-4.24116" x2="7.64114" y2="45.3321" gradientUnits="userSpaceOnUse">
<stop stop-color="#FCDCB5"/>
<stop offset="0.79" stop-color="#EF858C"/>
</linearGradient>
<linearGradient id="paint31_linear_9436_6839" x1="50.5074" y1="5.02896" x2="29.3732" y2="54.6023" gradientUnits="userSpaceOnUse">
<stop stop-color="#FCDCB5"/>
<stop offset="0.79" stop-color="#EF858C"/>
</linearGradient>
<linearGradient id="paint32_linear_9436_6839" x1="31.3398" y1="-3.15791" x2="10.1988" y2="46.4288" gradientUnits="userSpaceOnUse">
<stop stop-color="#FCDCB5"/>
<stop offset="0.79" stop-color="#EF858C"/>
</linearGradient>
<linearGradient id="paint33_linear_9436_6839" x1="23.1323" y1="-6.64946" x2="1.99136" y2="42.9373" gradientUnits="userSpaceOnUse">
<stop stop-color="#FCDCB5"/>
<stop offset="0.79" stop-color="#EF858C"/>
</linearGradient>
<linearGradient id="paint34_linear_9436_6839" x1="32.9717" y1="-2.44599" x2="11.8375" y2="47.1206" gradientUnits="userSpaceOnUse">
<stop stop-color="#FCDCB5"/>
<stop offset="0.79" stop-color="#EF858C"/>
</linearGradient>
<linearGradient id="paint35_linear_9436_6839" x1="35.9847" y1="-1.1661" x2="14.8438" y2="48.4274" gradientUnits="userSpaceOnUse">
<stop stop-color="#FCDCB5"/>
<stop offset="0.79" stop-color="#EF858C"/>
</linearGradient>
<linearGradient id="paint36_linear_9436_6839" x1="42.8881" y1="1.77264" x2="21.7539" y2="51.3594" gradientUnits="userSpaceOnUse">
<stop stop-color="#FCDCB5"/>
<stop offset="0.79" stop-color="#EF858C"/>
</linearGradient>
<linearGradient id="paint37_linear_9436_6839" x1="45.5821" y1="2.92254" x2="24.4478" y2="52.5093" gradientUnits="userSpaceOnUse">
<stop stop-color="#FCDCB5"/>
<stop offset="0.79" stop-color="#EF858C"/>
</linearGradient>
<linearGradient id="paint38_linear_9436_6839" x1="45.6831" y1="2.96893" x2="24.5421" y2="52.549" gradientUnits="userSpaceOnUse">
<stop stop-color="#FCDCB5"/>
<stop offset="0.79" stop-color="#EF858C"/>
</linearGradient>
<linearGradient id="paint39_linear_9436_6839" x1="42.7908" y1="1.73804" x2="21.6632" y2="51.2979" gradientUnits="userSpaceOnUse">
<stop stop-color="#FCDCB5"/>
<stop offset="0.79" stop-color="#EF858C"/>
</linearGradient>
<linearGradient id="paint40_linear_9436_6839" x1="44.2076" y1="2.33619" x2="23.0734" y2="51.9162" gradientUnits="userSpaceOnUse">
<stop stop-color="#FCDCB5"/>
<stop offset="0.79" stop-color="#EF858C"/>
</linearGradient>
<linearGradient id="paint41_linear_9436_6839" x1="36.9384" y1="-0.757392" x2="15.8041" y2="48.8159" gradientUnits="userSpaceOnUse">
<stop stop-color="#FCDCB5"/>
<stop offset="0.79" stop-color="#EF858C"/>
</linearGradient>
<linearGradient id="paint42_linear_9436_6839" x1="41.2926" y1="1.08579" x2="20.1584" y2="50.6725" gradientUnits="userSpaceOnUse">
<stop stop-color="#FCDCB5"/>
<stop offset="0.79" stop-color="#EF858C"/>
</linearGradient>
<linearGradient id="paint43_linear_9436_6839" x1="40.8866" y1="0.926181" x2="19.7524" y2="50.4995" gradientUnits="userSpaceOnUse">
<stop stop-color="#FCDCB5"/>
<stop offset="0.79" stop-color="#EF858C"/>
</linearGradient>
<linearGradient id="paint44_linear_9436_6839" x1="37.3478" y1="-0.58866" x2="16.2068" y2="48.9914" gradientUnits="userSpaceOnUse">
<stop stop-color="#FCDCB5"/>
<stop offset="0.79" stop-color="#EF858C"/>
</linearGradient>
<linearGradient id="paint45_linear_9436_6839" x1="39.084" y1="0.116462" x2="17.9362" y2="49.7302" gradientUnits="userSpaceOnUse">
<stop stop-color="#FCDCB5"/>
<stop offset="0.79" stop-color="#EF858C"/>
</linearGradient>
<clipPath id="clip0_9436_6839">
<rect width="24.9698" height="7.39846" fill="white" transform="translate(125.996 39.3438)"/>
</clipPath>
</defs>
</svg>
