<svg width="224" height="50" viewBox="0 0 224 50" fill="none" xmlns="http://www.w3.org/2000/svg">
<path d="M54.1289 42.6484L121.041 42.6484" stroke="white" stroke-width="0.5" stroke-miterlimit="10"/>
<path d="M156.562 42.6484L223.475 42.6484" stroke="white" stroke-width="0.5" stroke-miterlimit="10"/>
<g clip-path="url(#clip0_9744_5651)">
<path d="M128.079 42.5338L127.518 43.2387C127.042 42.803 126.541 42.407 125.996 42.0585L126.26 41.6859C126.847 41.892 127.543 42.2328 128.079 42.5331V42.5338ZM128.164 43.1204L128.461 43.4689C128.351 43.7303 128.24 43.9839 128.113 44.2375C127.739 44.9976 127.28 45.7266 126.889 46.4874C126.889 46.5115 126.897 46.5426 126.897 46.5745C126.897 46.6539 126.846 46.6857 126.769 46.6857C126.735 46.6857 126.718 46.6779 126.684 46.6539L126.004 46.1459C126.761 45.4645 127.747 44.0229 128.164 43.1204ZM128.453 40.3322L127.849 41.0292C127.416 40.4823 126.931 40.0785 126.369 39.6981L126.625 39.3496C127.263 39.611 127.917 39.9355 128.453 40.3322ZM131.497 45.9476H133.793V46.3039H127.934V45.9476H130.595V40.2606H128.631V39.9043H133.613V40.2606H131.496V45.9476H131.497Z" fill="white"/>
<path d="M138.782 44.4286H140.542V44.7849H138.782V46.3377H137.948V44.7849H136.206V44.4286H137.948V43.5176H136.358V43.1691H137.259C137.123 42.8205 136.936 42.4246 136.682 42.1391L137.03 41.9726H135.704V46.7011H134.854V41.6163H137.94V40.5948H134.463V40.2462H137.94V39.8425C137.94 39.676 137.914 39.5095 137.881 39.3438L138.799 39.3678C138.842 39.3678 138.876 39.4153 138.876 39.4472C138.876 39.5024 138.842 39.5818 138.817 39.6292V40.247H142.294V40.5955H138.817V41.617H141.903V45.9184C141.903 46.5205 141.724 46.6473 141.087 46.6473H140.024L139.829 46.2513C140.135 46.2754 140.441 46.291 140.747 46.291C141.011 46.291 141.044 46.2038 141.044 45.9269V41.974H139.633L140.169 42.2276C140.236 42.2595 140.245 42.2751 140.245 42.2907C140.245 42.3459 140.143 42.3934 140.092 42.4175C139.82 42.6867 139.506 42.9325 139.2 43.1698H140.356V43.5183H138.783V44.4293L138.782 44.4286ZM138.101 42.8361L137.514 43.1691H139.011L138.722 43.0026C138.951 42.6782 139.155 42.3374 139.299 41.9726H137.157C137.446 42.2099 137.828 42.5507 138.1 42.8361H138.101Z" fill="white"/>
<path d="M144.769 42.2134C145.288 42.8389 145.688 43.5204 145.688 44.3364C145.688 44.6609 145.637 45.0016 145.399 45.2396C145.246 45.3983 144.999 45.4536 144.778 45.4536H144.268L144.158 45.0257C144.268 45.0576 144.388 45.0809 144.506 45.0809C144.625 45.0809 144.719 45.0335 144.778 44.9386C144.898 44.7409 144.915 44.471 144.915 44.2415C144.915 43.5048 144.583 42.8552 144.132 42.2615L144.982 40.028H143.962V46.6975H143.154V39.6702H145.892V40.0188L145.73 40.3354H147.711V39.8048C147.711 39.6624 147.694 39.5193 147.66 39.377L148.595 39.3925C148.638 39.3925 148.663 39.4081 148.663 39.4556C148.663 39.5108 148.629 39.5583 148.595 39.598V40.3347H150.678V42.1092H149.828V40.6832H146.563V42.1092H145.713V40.3595L144.769 42.2134ZM149.139 45.936C149.139 46.1818 149.173 46.2448 149.436 46.2448H149.7C149.912 46.2448 150.048 46.2293 150.125 46.0231C150.202 45.8092 150.227 45.5081 150.245 45.2942C150.466 45.4288 150.712 45.5478 150.967 45.5634C150.933 45.7773 150.882 46.0465 150.78 46.2448C150.627 46.5303 150.473 46.5934 149.964 46.5934H148.986C148.408 46.5934 148.255 46.4666 148.255 45.9282V43.6309H147.677C147.677 44.4306 147.66 45.326 146.996 45.9282C146.503 46.3794 145.84 46.6175 145.177 46.7443L144.93 46.4035C145.593 46.2611 146.342 45.9601 146.622 45.3338C146.818 44.8982 146.826 44.3676 146.826 43.6309H145.72V43.2745H150.762V43.6309H149.138V45.936H149.139ZM146.733 42.1021V41.7458H149.658V42.1021H146.733Z" fill="white"/>
</g>
<path d="M69.8308 7.5581V7.59143C69.8308 7.89697 69.6808 8.04697 69.3752 8.04697H63.5032C63.7921 12.0968 66.0142 15.33 69.5085 17.2022C69.7974 17.3522 69.8474 17.5744 69.6752 17.8244L69.5752 17.9744C69.4252 18.2077 69.203 18.2632 68.953 18.141C66.0031 16.7077 63.7588 14.2634 62.681 11.4635C61.5866 14.2634 59.309 16.7244 56.3035 18.1577C56.048 18.2744 55.8313 18.2077 55.6813 17.9744L55.5813 17.8244C55.4147 17.5744 55.4647 17.3522 55.748 17.2022C59.2367 15.33 61.4644 12.0913 61.7533 8.04697H55.8813C55.5758 8.04697 55.4258 7.89697 55.4258 7.59143V7.5581C55.4258 7.25256 55.5758 7.10256 55.8813 7.10256H61.77V4.18601C61.77 3.88046 61.92 3.73047 62.2255 3.73047H63.0366C63.3421 3.73047 63.4921 3.88046 63.4921 4.18601V7.10256H69.3808C69.6863 7.10256 69.8363 7.25256 69.8363 7.5581H69.8308Z" fill="white"/>
<path d="M84.2963 4.00406C84.313 4.4096 84.313 4.89847 84.3296 5.454H87.5017C87.8073 5.454 87.9573 5.604 87.9573 5.90954C87.9573 6.19842 87.8073 6.34841 87.5017 6.34841H84.363C84.4463 8.42611 84.6352 10.3983 84.8852 11.9815C85.3574 11.0705 85.7129 9.88717 86.0351 8.64277C86.1185 8.34278 86.324 8.23723 86.6073 8.34278L87.1962 8.54277C87.4851 8.64277 87.5684 8.84832 87.5017 9.11497C86.9629 11.0371 86.3018 12.6926 85.324 14.1426C85.6629 15.5092 86.1518 16.8258 86.4184 16.8258C86.7907 16.7591 86.9073 16.0147 86.974 14.6648C86.9906 14.3259 87.174 14.1759 87.4795 14.2426L87.7851 14.3092C88.0573 14.3759 88.1739 14.5592 88.1573 14.8481C87.9573 17.2258 87.5684 18.3368 86.574 18.3368C86.0518 18.3368 85.5463 18.0369 85.224 17.6646C84.7685 17.1424 84.4463 16.5202 84.1796 15.7758C83.4575 16.5702 82.4575 17.398 81.2131 18.2202C80.9798 18.3702 80.7742 18.3368 80.5909 18.1368L80.4242 17.9535C80.2242 17.7146 80.2576 17.4813 80.5076 17.3147C81.7242 16.4869 82.7853 15.4758 83.6963 14.1926C83.1908 12.1871 82.8853 9.62051 82.7686 6.34841H79.0743V8.54277H82.2297C82.5353 8.54277 82.6853 8.70943 82.6853 9.01498C82.6686 11.8482 82.6019 13.5537 82.4519 14.2092C82.3686 14.6148 82.1297 14.937 81.6075 15.0703C81.5075 15.1036 81.2187 15.1203 80.9131 15.1203C80.6742 15.1203 80.1687 15.0703 79.6132 15.037C79.3243 15.0203 79.1576 14.8703 79.141 14.5981C79.1243 14.2981 79.291 14.1426 79.6132 14.1759C79.902 14.2092 80.202 14.2259 80.4242 14.2259C80.6909 14.2259 80.8798 14.0926 80.9964 13.5148C81.0631 13.1426 81.0964 11.726 81.0964 9.38163H79.0743V10.0927C79.0743 13.4815 78.5688 16.098 77.491 18.1535C77.3577 18.4257 77.1355 18.4757 76.8688 18.3035L76.43 18.0368C76.1911 17.8869 76.1411 17.6646 76.2633 17.4147C76.5522 16.8425 76.7855 16.1647 76.9744 15.4258C75.7244 15.9814 74.4078 16.5202 73.0079 16.998C72.7023 17.098 72.5023 16.9647 72.4523 16.6591V16.6091C72.4023 16.3202 72.519 16.1703 72.7912 16.0703L74.2078 15.5647V8.68166H72.8579C72.5523 8.68166 72.4023 8.53166 72.4023 8.22612C72.4023 7.93724 72.5523 7.78725 72.8579 7.78725H74.2078V4.51515C74.2078 4.20961 74.3578 4.05961 74.6634 4.05961H75.3578C75.6633 4.05961 75.8133 4.20961 75.8133 4.51515V7.78725H76.8077C77.1133 7.78725 77.2633 7.93724 77.2633 8.24278C77.2633 8.52611 77.1133 8.68166 76.8077 8.68166H75.8133V14.8703C76.2022 14.7036 76.6411 14.4981 77.2299 14.2648C77.4299 12.9148 77.5688 11.226 77.5688 9.25386V5.9151C77.5688 5.60955 77.7188 5.45956 78.0243 5.45956H82.7464C82.7464 4.88736 82.7464 4.39849 82.7297 4.00962C82.7297 3.70407 82.9019 3.55408 83.1852 3.55408H83.8574C84.163 3.55408 84.313 3.70407 84.313 4.00962L84.2963 4.00406ZM85.5296 3.39297C86.0018 3.68185 86.4407 3.93184 86.8295 4.18739C87.0851 4.35405 87.1184 4.57626 86.9629 4.80958L86.8629 4.95958C86.6962 5.23179 86.474 5.25957 86.224 5.07624C85.8018 4.78736 85.3296 4.52071 84.9407 4.29849C84.6685 4.1485 84.6352 3.92629 84.8074 3.67629L84.8907 3.54297C85.0574 3.28742 85.2796 3.23742 85.5296 3.39297Z" fill="white"/>
<path d="M105.005 5.57093V5.72648C105.005 5.94313 104.972 6.09868 104.872 6.29868C104.533 6.92087 104.094 7.58196 103.489 8.28749C103.305 8.52081 103.083 8.53748 102.85 8.35415L102.494 8.08194C102.261 7.91528 102.222 7.69307 102.411 7.45974C102.733 7.0542 103.05 6.56533 103.372 6.0098H99.0389V9.16523H102.967C103.272 9.16523 103.422 9.31522 103.422 9.62077V9.7541C103.422 9.95964 103.405 10.1096 103.305 10.3096C102.428 12.1818 101.211 13.7817 99.6111 15.1483C101.128 16.1261 102.817 16.8372 104.755 17.326C105.044 17.3927 105.161 17.5816 105.078 17.8816C104.994 18.1704 104.805 18.2871 104.522 18.2204C102.144 17.6482 100.156 16.8372 98.6501 15.8761C97.2501 16.8538 95.3613 17.6649 93.1003 18.2204C92.8114 18.2871 92.6281 18.1704 92.5447 17.8982V17.8649C92.4614 17.5816 92.5614 17.3927 92.8503 17.3094C94.6224 16.8205 96.189 16.1316 97.6223 15.1483C96.289 14.0873 95.2946 12.8706 94.5169 11.5707C94.3669 11.2985 94.4502 11.0818 94.7224 10.9652L95.278 10.7318C95.5502 10.6152 95.7502 10.6985 95.8835 10.9485C96.6612 12.3984 97.5723 13.5262 98.6001 14.3706C99.7833 13.3428 100.844 11.8873 101.772 10.0208H93.2225V10.2207C93.2225 13.4095 92.7003 15.9539 91.567 18.0982C91.417 18.3871 91.1615 18.4038 90.9281 18.1649L90.4226 17.626C90.2337 17.4427 90.2171 17.2371 90.3226 17.0038C91.167 15.0983 91.5559 12.854 91.5559 9.42633V5.56537C91.5559 5.25983 91.7059 5.10983 92.0114 5.10983H97.3445V3.9321C97.3445 3.62656 97.4945 3.47656 97.8001 3.47656H98.5945C98.9 3.47656 99.05 3.62656 99.05 3.9321V5.10983H104.566C104.872 5.10983 105.022 5.25983 105.022 5.56537L105.005 5.57093ZM97.3279 6.0098H93.2114V9.16523H97.3279V6.0098Z" fill="white"/>
<path d="M121.8 6.00839C120.383 11.3526 117.378 15.1192 112.306 17.6468C112 17.7968 111.767 17.7135 111.667 17.4635C111.55 17.1913 111.633 16.9913 111.922 16.8246C116.022 14.3803 118.161 10.886 119.594 6.18061H110.4C110.078 6.18061 109.911 6.03061 109.895 5.72507C109.895 5.43619 110.045 5.26953 110.383 5.26953H121.244C121.6 5.26953 121.955 5.47508 121.8 6.01395V6.00839Z" fill="white"/>
<path d="M126.235 5.58595C125.93 5.61928 125.763 5.46929 125.73 5.16375C125.713 4.92487 125.846 4.77487 126.152 4.74154C127.874 4.57488 129.557 4.30267 131.296 3.84713C131.585 3.78047 131.768 3.8638 131.852 4.13045C131.918 4.40267 131.802 4.58599 131.513 4.65266C130.841 4.83598 130.113 5.0082 129.335 5.14153V8.09141H131.157C131.463 8.09141 131.613 8.24141 131.613 8.54695C131.613 8.81916 131.463 8.95249 131.157 8.95249H129.691C130.435 10.3524 131.074 11.5524 131.513 12.3412C131.646 12.5968 131.596 12.7968 131.363 12.9634L130.957 13.2301C130.702 13.3968 130.485 13.3301 130.352 13.0468C130.013 12.3079 129.657 11.6302 129.341 10.9024V18.1021C129.341 18.4077 129.191 18.5577 128.885 18.5577H128.396C128.091 18.5577 127.941 18.4021 127.941 18.1021V12.4357C127.469 13.5468 126.98 14.4745 126.424 15.4022C126.241 15.7078 125.985 15.7078 125.802 15.4189L125.48 14.9467C125.346 14.7467 125.33 14.5412 125.463 14.3245C126.474 12.619 127.269 10.7969 127.774 8.94138H126.002C125.696 8.94138 125.546 8.79138 125.546 8.48584C125.546 8.21363 125.696 8.0803 126.002 8.0803H127.874V5.38041C127.452 5.4304 126.913 5.51373 126.235 5.56373V5.58595ZM141.063 13.4134V13.4301C141.063 13.7134 140.946 13.8856 140.674 13.9356L139.39 14.1578V18.1188C139.39 18.4243 139.24 18.5743 138.935 18.5743H138.157C137.852 18.5743 137.702 18.4188 137.702 18.1188V14.4634L131.041 15.5911C130.752 15.6411 130.568 15.5078 130.535 15.2022V15.1689C130.502 14.8856 130.635 14.7134 130.924 14.6634L137.707 13.5134V4.18601C137.707 3.88046 137.857 3.73047 138.163 3.73047H138.94C139.246 3.73047 139.396 3.88046 139.396 4.18601V13.2079L140.54 13.0246C140.846 12.9746 141.029 13.1079 141.063 13.4134ZM133.08 8.70805C134.141 9.71913 135.052 10.6302 135.846 11.5079C136.046 11.7246 136.029 11.9468 135.829 12.1524L135.457 12.5246C135.241 12.7412 135.018 12.7246 134.818 12.4912C133.941 11.4802 133.063 10.5358 132.152 9.67468C131.93 9.45247 131.93 9.23581 132.135 9.03582L132.424 8.73028C132.624 8.51362 132.863 8.51362 133.08 8.71361V8.70805ZM134.552 4.8582C135.546 5.80261 136.357 6.69702 137.079 7.47477C137.263 7.69143 137.279 7.91364 137.063 8.11363L136.707 8.45251C136.49 8.66917 136.268 8.6525 136.068 8.41918C135.257 7.4581 134.452 6.59703 133.624 5.81928C133.402 5.59706 133.385 5.38041 133.607 5.16375L133.896 4.87487C134.096 4.67488 134.335 4.65821 134.552 4.8582Z" fill="white"/>
<path d="M156.909 7.18705C154.615 12.4368 151.982 15.5201 146.415 17.9477C145.86 18.1811 145.438 17.4422 145.993 17.1533C150.598 14.7423 152.859 11.7702 154.615 7.04817H149.604C148.526 8.77032 147.11 10.4036 145.132 11.5702C144.56 11.9091 144.138 11.2313 144.576 10.8591C146.721 9.05365 148.187 6.80929 149.215 4.23161C149.332 3.93162 149.571 3.82607 149.871 3.94829L150.682 4.28716C151.004 4.42049 151.087 4.65937 150.932 4.95936C150.698 5.39823 150.493 5.75377 150.171 6.22598L156.093 6.24264C156.665 6.20931 157.137 6.64818 156.904 7.18705H156.909Z" fill="white"/>
<path d="M162.759 4.74295H163.487C163.809 4.74295 163.993 4.90961 163.993 5.24849V11.926C163.993 12.2482 163.826 12.4315 163.487 12.4315H162.759C162.437 12.4315 162.254 12.2482 162.254 11.926V5.24849C162.254 4.92628 162.437 4.74295 162.759 4.74295ZM164.176 18.1535C163.854 18.2535 163.654 18.1702 163.571 17.9369C163.487 17.6813 163.604 17.498 163.909 17.3647C167.737 15.7925 169.22 13.0982 169.22 8.86501V4.7985C169.22 4.45963 169.409 4.29297 169.726 4.29297H170.57C170.909 4.29297 171.076 4.45963 171.076 4.7985V8.86501C171.076 13.4037 168.898 16.6092 164.176 18.1591V18.1535Z" fill="white"/>
<path d="M176.588 14.6458H189.304C189.626 14.6458 189.809 14.8124 189.809 15.1513V15.218C189.809 15.5402 189.643 15.7235 189.304 15.7235H176.588C176.265 15.7235 176.082 15.5402 176.082 15.218V15.1513C176.082 14.8124 176.265 14.6458 176.588 14.6458ZM178.121 6.49609H187.77C188.109 6.49609 188.276 6.66275 188.276 7.00163V7.06829C188.276 7.3905 188.109 7.57383 187.77 7.57383H178.121C177.782 7.57383 177.615 7.3905 177.615 7.06829V7.00163C177.615 6.66275 177.799 6.49609 178.121 6.49609Z" fill="white"/>
<path d="M195.437 12.4042C195.131 11.3931 194.748 10.4653 194.259 9.52094C193.953 8.93207 194.764 8.60986 195.137 9.03207C195.898 9.87648 196.436 10.7709 197.009 11.782C197.192 12.0875 197.109 12.2708 196.786 12.393L195.992 12.693C195.703 12.8097 195.52 12.7097 195.437 12.4097V12.4042ZM204.847 8.95985C203.514 13.2597 201.675 16.1485 197.342 18.2873C197.053 18.4206 196.82 18.3706 196.686 18.1539C196.536 17.9206 196.636 17.7151 196.925 17.5484C200.67 15.404 201.936 12.793 203.131 8.40431C203.214 8.0821 203.436 7.96544 203.753 8.06544L204.531 8.32098C204.836 8.42098 204.953 8.64319 204.853 8.95985H204.847ZM198.775 11.1542C198.47 10.1098 198.103 9.13206 197.575 8.11544C197.27 7.52657 198.131 7.17103 198.486 7.6099C199.231 8.52098 199.786 9.39872 200.392 10.582C200.542 10.882 200.459 11.0709 200.159 11.1709L199.347 11.4542C199.047 11.5542 198.859 11.4542 198.775 11.1542Z" fill="white"/>
<path d="M222.336 7.18705C220.041 12.4368 217.408 15.5201 211.847 17.9477C211.292 18.1811 210.869 17.4422 211.425 17.1533C216.03 14.7423 218.291 11.7702 220.047 7.04817H215.036C213.958 8.77032 212.542 10.4036 210.569 11.5702C209.997 11.9091 209.575 11.2313 210.014 10.8591C212.158 9.05365 213.625 6.80929 214.653 4.23161C214.769 3.93162 215.008 3.82607 215.308 3.94829L216.119 4.28716C216.441 4.42049 216.525 4.65937 216.375 4.95936C216.141 5.39823 215.936 5.75377 215.614 6.22598L221.536 6.24264C222.108 6.20931 222.58 6.64818 222.347 7.18705H222.336Z" fill="white"/>
<path d="M56.866 29.5742C57.2326 29.5742 57.5604 29.6464 57.8437 29.7909C58.127 29.9353 58.377 30.1631 58.5881 30.4686C58.7992 30.7742 58.9103 31.1464 58.9103 31.5797C58.9103 32.0463 58.777 32.4741 58.5159 32.863C58.2492 33.2519 57.9437 33.5352 57.5882 33.7129C57.2382 33.8907 56.866 33.9796 56.4771 33.9796C55.9216 33.9796 55.4549 33.7907 55.066 33.4074C54.6772 33.0241 54.4883 32.5519 54.4883 31.9908C54.4883 31.3408 54.7327 30.7742 55.2105 30.2964C55.6938 29.8187 56.2438 29.5798 56.866 29.5798V29.5742ZM56.4549 29.8798C56.0493 29.8798 55.7105 30.0242 55.4438 30.3075C55.1771 30.5908 55.0438 30.9686 55.0438 31.4353C55.0438 32.1241 55.2438 32.6685 55.6438 33.0741C56.0438 33.4796 56.4826 33.6852 56.9604 33.6852C57.3382 33.6852 57.6659 33.5407 57.9437 33.2574C58.2159 32.9741 58.3548 32.6019 58.3548 32.1575C58.3548 31.7408 58.2659 31.3464 58.0826 30.9742C57.8993 30.6075 57.6493 30.3297 57.3382 30.152C57.0271 29.9686 56.7326 29.8798 56.4604 29.8798H56.4549Z" fill="white"/>
<path d="M66.1555 31.4169C66.0555 31.3225 65.9778 31.217 65.9278 31.1058C65.8778 30.9947 65.85 30.8836 65.85 30.7614C65.85 30.4448 65.9944 30.167 66.2889 29.9337C66.5777 29.6948 66.9222 29.5781 67.3111 29.5781C67.5055 29.5781 67.7666 29.6337 68.0943 29.7448V30.7781H67.8555C67.8388 30.4892 67.7499 30.2559 67.5888 30.0726C67.4277 29.8892 67.2333 29.8003 67.0055 29.8003C66.8166 29.8003 66.6611 29.8559 66.5389 29.9726C66.4166 30.0837 66.3555 30.2337 66.3555 30.4059C66.3555 30.5781 66.4166 30.7336 66.5389 30.8781C66.6611 31.0281 66.9444 31.2503 67.3999 31.5614C67.7444 31.7947 67.9777 31.978 68.0999 32.1225C68.2166 32.2669 68.2777 32.4447 68.2777 32.6558C68.2777 33.0002 68.1166 33.3058 67.7999 33.578C67.4833 33.8502 67.1222 33.9835 66.7222 33.9835C66.4333 33.9835 66.1111 33.9168 65.75 33.778V32.5891H65.9833C65.9833 32.9224 66.0778 33.2058 66.2722 33.428C66.4666 33.6502 66.6944 33.7613 66.9611 33.7613C67.2055 33.7613 67.3999 33.6891 67.5388 33.5446C67.6777 33.4002 67.7499 33.2224 67.7499 33.0002C67.7499 32.8113 67.6944 32.6391 67.5722 32.4947C67.4555 32.3502 67.1888 32.1447 66.7777 31.8669C66.55 31.7169 66.3389 31.5669 66.15 31.4114L66.1555 31.4169Z" fill="white"/>
<path d="M74.9297 29.6735H76.5407V29.8346C76.3463 29.8346 76.213 29.8791 76.1407 29.9513C76.0741 30.0235 76.0408 30.1568 76.0408 30.3568V31.4846H78.0518V30.3568C78.0518 30.1457 78.0129 30.0068 77.9407 29.9402C77.8629 29.8735 77.7351 29.8402 77.5518 29.8346V29.6735H79.1628V29.8346C78.9629 29.8346 78.8351 29.8791 78.7629 29.9513C78.6962 30.0235 78.6629 30.1568 78.6629 30.3568V33.2123C78.6629 33.4289 78.7018 33.5678 78.774 33.6289C78.8517 33.6956 78.9795 33.7289 79.1628 33.7289V33.89H77.5518V33.7289C77.7462 33.7289 77.8796 33.69 77.9462 33.6178C78.0184 33.5456 78.0518 33.4067 78.0518 33.2067V31.6846H76.0408V33.2067C76.0408 33.5456 76.2074 33.7178 76.5407 33.7289V33.89H74.9297V33.7289C75.1241 33.7289 75.2575 33.69 75.3297 33.6178C75.3963 33.5456 75.4352 33.4067 75.4352 33.2067V30.3513C75.4352 30.1402 75.3963 30.0013 75.3186 29.9346C75.2408 29.868 75.113 29.8346 74.9297 29.8291V29.668V29.6735Z" fill="white"/>
<path d="M87.4978 29.8307C87.3033 29.8307 87.17 29.8752 87.0978 29.9418C87.0311 30.014 86.9978 30.1474 86.9978 30.3474V33.2028C86.9978 33.5417 87.1644 33.7139 87.4978 33.725V33.8861H85.8867V33.725C86.0867 33.725 86.22 33.6861 86.2867 33.6139C86.3534 33.5417 86.3867 33.4028 86.3867 33.2028V30.3474C86.3867 30.1363 86.3478 29.9974 86.2756 29.9307C86.2034 29.8641 86.07 29.8307 85.8867 29.8252V29.6641H87.4978V29.8252V29.8307Z" fill="white"/>
<path d="M94.1501 29.6758H96.2444C96.5555 29.6758 96.7889 29.7369 96.9444 29.8536C97.1 29.9758 97.1777 30.1591 97.1777 30.398C97.1777 30.6702 97.0889 30.9202 96.9166 31.1535C96.7444 31.3868 96.4778 31.6035 96.1278 31.8035L96.8611 32.9423C97.1889 33.4534 97.4944 33.7145 97.7722 33.7312V33.8923H96.9833C96.8278 33.8923 96.6833 33.7978 96.5611 33.609L95.2556 31.5813V33.2145C95.2556 33.5534 95.4223 33.7256 95.7611 33.7367V33.8978H94.1445V33.7367C94.3445 33.7367 94.4779 33.6978 94.5445 33.6256C94.6112 33.5534 94.6445 33.4145 94.6445 33.2145V30.3591C94.6445 30.148 94.6056 30.0091 94.5334 29.9424C94.4612 29.8758 94.3279 29.8424 94.1445 29.8369V29.6758H94.1501ZM95.2611 29.998V31.3702C95.5167 31.559 95.7389 31.6479 95.9222 31.6479C96.1056 31.6479 96.2611 31.5813 96.3556 31.4535C96.45 31.3202 96.5 31.1313 96.5 30.8702C96.5 30.5535 96.4278 30.3035 96.2889 30.1147C96.1445 29.9258 95.9722 29.8369 95.7667 29.8369C95.5889 29.8369 95.4167 29.8924 95.2611 29.998Z" fill="white"/>
<path d="M106.52 29.5742C106.887 29.5742 107.214 29.6464 107.498 29.7909C107.781 29.9353 108.031 30.1631 108.242 30.4686C108.453 30.7742 108.564 31.1464 108.564 31.5797C108.564 32.0463 108.431 32.4741 108.164 32.863C107.898 33.2519 107.592 33.5352 107.237 33.7129C106.887 33.8907 106.514 33.9796 106.126 33.9796C105.57 33.9796 105.103 33.7907 104.714 33.4074C104.326 33.0241 104.137 32.5519 104.137 31.9908C104.137 31.3408 104.376 30.7742 104.864 30.2964C105.348 29.8187 105.898 29.5798 106.52 29.5798V29.5742ZM106.109 29.8798C105.703 29.8798 105.364 30.0242 105.098 30.3075C104.831 30.5908 104.698 30.9686 104.698 31.4353C104.698 32.1241 104.898 32.6685 105.298 33.0741C105.698 33.4796 106.137 33.6852 106.614 33.6852C106.992 33.6852 107.32 33.5407 107.598 33.2574C107.87 32.9741 108.009 32.6019 108.009 32.1575C108.009 31.7408 107.92 31.3464 107.737 30.9742C107.553 30.6075 107.303 30.3297 106.992 30.152C106.676 29.9686 106.387 29.8798 106.114 29.8798H106.109Z" fill="white"/>
<path d="M123.774 31.4169C123.674 31.3225 123.597 31.217 123.547 31.1058C123.497 30.9947 123.469 30.8836 123.469 30.7614C123.469 30.4448 123.613 30.167 123.908 29.9337C124.197 29.6948 124.541 29.5781 124.93 29.5781C125.124 29.5781 125.385 29.6337 125.713 29.7448V30.7781H125.474C125.458 30.4892 125.369 30.2559 125.208 30.0726C125.047 29.8892 124.852 29.8003 124.624 29.8003C124.435 29.8003 124.28 29.8559 124.158 29.9726C124.035 30.0837 123.974 30.2337 123.974 30.4059C123.974 30.5781 124.035 30.7336 124.158 30.8781C124.274 31.0281 124.563 31.2503 125.019 31.5614C125.363 31.7947 125.597 31.978 125.719 32.1225C125.835 32.2669 125.897 32.4447 125.897 32.6558C125.897 33.0002 125.735 33.3058 125.419 33.578C125.102 33.8502 124.741 33.9835 124.335 33.9835C124.047 33.9835 123.724 33.9168 123.363 33.778V32.5891H123.597C123.597 32.9224 123.691 33.2058 123.885 33.428C124.08 33.6502 124.308 33.7613 124.574 33.7613C124.819 33.7613 125.013 33.6891 125.152 33.5446C125.297 33.4002 125.363 33.2224 125.363 33.0002C125.363 32.8113 125.308 32.6391 125.191 32.4947C125.074 32.3502 124.808 32.1447 124.391 31.8669C124.163 31.7169 123.952 31.5669 123.763 31.4114L123.774 31.4169Z" fill="white"/>
<path d="M132.547 29.6735H134.158V29.8346C133.958 29.8346 133.825 29.8791 133.758 29.9457C133.691 30.018 133.658 30.1568 133.658 30.3568V31.6901L134.475 30.8901C134.602 30.7624 134.725 30.6179 134.841 30.4513C134.958 30.2902 135.013 30.1568 135.013 30.0513C135.013 29.9124 134.902 29.8402 134.675 29.8291V29.668H136.191V29.8291C135.908 29.8624 135.602 30.0346 135.275 30.3513L134.208 31.3846L135.363 32.929C135.758 33.4623 136.097 33.7234 136.38 33.7234V33.8845H135.319L133.664 31.6623V33.2067C133.664 33.5456 133.83 33.7178 134.163 33.7289V33.89H132.552V33.7289C132.752 33.7289 132.886 33.69 132.952 33.6178C133.019 33.5456 133.052 33.4067 133.052 33.2067V30.3513C133.052 30.1346 133.014 29.9957 132.941 29.9346C132.869 29.868 132.736 29.8346 132.552 29.8346V29.6735H132.547Z" fill="white"/>
<path d="M144.42 29.8307C144.225 29.8307 144.086 29.8752 144.02 29.9418C143.953 30.014 143.92 30.1474 143.92 30.3474V33.2028C143.92 33.5417 144.086 33.7139 144.42 33.725V33.8861H142.809V33.725C143.009 33.725 143.142 33.6861 143.209 33.6139C143.275 33.5417 143.309 33.4028 143.309 33.2028V30.3474C143.309 30.1363 143.27 29.9974 143.197 29.9307C143.125 29.8641 142.992 29.8307 142.809 29.8252V29.6641H144.42V29.8252V29.8307Z" fill="white"/>
<path d="M151.098 29.6735H152.181L154.581 32.8956V31.9123C154.581 31.2846 154.531 30.7846 154.436 30.4179C154.342 30.0513 154.186 29.8513 153.975 29.8291V29.668H155.414V29.8291C155.014 29.8624 154.814 30.5235 154.814 31.8068V34.0345H154.659L151.814 30.1902V31.4179C151.814 32.1956 151.864 32.7678 151.959 33.1345C152.053 33.5012 152.209 33.7011 152.425 33.7289V33.89H150.992V33.7289C151.392 33.6678 151.592 32.9123 151.592 31.4568V30.3179C151.592 30.1235 151.553 29.9957 151.475 29.9291C151.398 29.8624 151.276 29.8291 151.098 29.8291V29.668V29.6735Z" fill="white"/>
<path d="M173.663 33.0835C172.969 33.6835 172.336 33.9835 171.758 33.9835C171.291 33.9835 170.869 33.8057 170.497 33.4446C170.125 33.0891 169.941 32.5947 169.941 31.9725C169.941 31.5336 170.036 31.1447 170.23 30.8003C170.425 30.4559 170.697 30.167 171.052 29.9281C171.408 29.6948 171.836 29.5781 172.33 29.5781C172.764 29.5781 173.175 29.6448 173.558 29.7837V30.7781H173.325C173.297 30.467 173.158 30.2225 172.914 30.0503C172.669 29.8726 172.375 29.7892 172.036 29.7892C171.558 29.7892 171.186 29.9614 170.914 30.3114C170.641 30.6614 170.508 31.0892 170.508 31.5947C170.508 32.1447 170.664 32.6002 170.969 32.9613C171.28 33.3224 171.675 33.5057 172.164 33.5057C172.652 33.5057 173.147 33.3002 173.663 32.8836V33.0835Z" fill="white"/>
<path d="M180.328 29.6735H181.939V29.8346C181.739 29.8346 181.606 29.8735 181.539 29.9457C181.473 30.018 181.439 30.1513 181.439 30.3568V33.7345H181.867C182.534 33.7345 182.928 33.3845 183.056 32.6845H183.295L183.011 34.0456H182.861C182.861 33.94 182.811 33.89 182.722 33.89H180.334V33.7289C180.528 33.7289 180.661 33.69 180.728 33.6178C180.795 33.5456 180.834 33.4067 180.834 33.2067V30.3513C180.834 30.1402 180.795 30.0013 180.723 29.9346C180.65 29.868 180.517 29.8346 180.334 29.8291V29.668L180.328 29.6735Z" fill="white"/>
<path d="M191.404 29.8307C191.204 29.8307 191.071 29.8752 191.004 29.9418C190.937 30.014 190.904 30.1474 190.904 30.3474V33.2028C190.904 33.5417 191.071 33.7139 191.404 33.725V33.8861H189.793V33.725C189.993 33.725 190.121 33.6861 190.193 33.6139C190.26 33.5417 190.293 33.4028 190.293 33.2028V30.3474C190.293 30.1363 190.254 29.9974 190.182 29.9307C190.11 29.8641 189.976 29.8307 189.793 29.8252V29.6641H191.404V29.8252V29.8307Z" fill="white"/>
<path d="M198.09 29.6735H199.173L201.573 32.8956V31.9123C201.573 31.2846 201.523 30.7846 201.429 30.4179C201.334 30.0513 201.179 29.8513 200.968 29.8291V29.668H202.406V29.8291C202.006 29.8624 201.806 30.5235 201.806 31.8068V34.0345H201.651L198.807 30.1902V31.4179C198.807 32.1956 198.857 32.7678 198.951 33.1345C199.045 33.5012 199.201 33.7011 199.418 33.7289V33.89H197.984V33.7289C198.384 33.6678 198.584 32.9123 198.584 31.4568V30.3179C198.584 30.1235 198.545 29.9957 198.468 29.9291C198.39 29.8624 198.268 29.8291 198.09 29.8291V29.668V29.6735Z" fill="white"/>
<path d="M210.568 29.8307C210.368 29.8307 210.24 29.8752 210.168 29.9418C210.101 30.014 210.068 30.1474 210.068 30.3474V33.2028C210.068 33.5417 210.235 33.7139 210.568 33.725V33.8861H208.957V33.725C209.157 33.725 209.29 33.6861 209.357 33.6139C209.424 33.5417 209.457 33.4028 209.457 33.2028V30.3474C209.457 30.1363 209.418 29.9974 209.346 29.9307C209.274 29.8641 209.14 29.8307 208.957 29.8252V29.6641H210.568V29.8252V29.8307Z" fill="white"/>
<path d="M221.003 33.0835C220.309 33.6835 219.67 33.9835 219.098 33.9835C218.631 33.9835 218.209 33.8057 217.837 33.4446C217.465 33.0891 217.281 32.5947 217.281 31.9725C217.281 31.5336 217.376 31.1447 217.57 30.8003C217.765 30.4559 218.037 30.167 218.392 29.9281C218.748 29.6948 219.176 29.5781 219.67 29.5781C220.103 29.5781 220.514 29.6448 220.903 29.7837V30.7781H220.67C220.642 30.467 220.503 30.2225 220.259 30.0503C220.014 29.8726 219.72 29.7892 219.381 29.7892C218.903 29.7892 218.531 29.9614 218.259 30.3114C217.987 30.6614 217.853 31.0892 217.853 31.5947C217.853 32.1447 218.009 32.6002 218.315 32.9613C218.626 33.3224 219.02 33.5057 219.509 33.5057C219.998 33.5057 220.492 33.3002 221.009 32.8836V33.0835H221.003Z" fill="white"/>
<path d="M53.6953 23.7227H223.538" stroke="white" stroke-width="0.9" stroke-miterlimit="10"/>
<path d="M11.7606 3.51515C8.24941 6.81107 7.16647 12.6966 12.2987 14.5329C12.7292 14.6944 13.1058 14.7482 12.7292 14.2639C12.3525 13.7796 10.6776 12.2123 11.0005 9.34691C11.0543 8.75499 11.1619 8.86934 11.2157 9.29983C11.2695 9.73032 11.7202 12.589 13.7045 13.8267C14.135 14.0957 14.404 14.0419 14.4646 13.3424C14.5184 12.6428 15.2179 11.0756 14.1417 8.75499C13.0588 6.43439 12.1978 5.08239 12.3054 3.83801C12.3592 3.46133 11.9825 3.19228 11.7673 3.51515H11.7606Z" fill="white"/>
<path d="M50.0903 22.4896C48.7854 20.5927 46.0948 19.678 44.8841 21.9851C44.7764 22.1802 44.7294 22.355 44.9782 22.2071C45.2338 22.0591 46.0814 21.373 47.3997 21.7228C47.6755 21.79 47.615 21.8304 47.3997 21.8237C47.1912 21.8237 45.8258 21.8371 45.106 22.6914C44.9513 22.873 44.9581 23.0075 45.2809 23.0815C45.6038 23.1555 46.2966 23.5994 47.4535 23.2429C48.6172 22.8932 49.31 22.5703 49.8818 22.7115C50.0566 22.7654 50.2113 22.6039 50.0701 22.4761L50.0903 22.4896Z" fill="white"/>
<path d="M37.6462 12.6159C35.4602 13.5644 33.9669 16.1338 36.0588 17.8491C36.2337 17.997 36.4019 18.0845 36.3077 17.7952C36.2135 17.506 35.6956 16.4903 36.3211 15.2123C36.4422 14.9433 36.4758 15.0173 36.4288 15.2258C36.3817 15.4343 36.1193 16.8468 36.8323 17.7549C36.987 17.9567 37.1216 17.9769 37.2628 17.654C37.4041 17.3379 37.996 16.719 37.8817 15.4545C37.7673 14.1899 37.5857 13.4164 37.848 12.8514C37.9355 12.6832 37.8077 12.4949 37.653 12.6092L37.6462 12.6159Z" fill="white"/>
<path d="M35.1746 46.5646C35.7329 44.0018 34.3944 41.0287 31.5289 41.7888C31.2868 41.8494 31.0985 41.9435 31.4146 42.0444C31.7375 42.1453 32.9684 42.3337 33.7083 43.7193C33.8697 44.0018 33.7823 43.9816 33.6276 43.8C33.4729 43.6251 32.3832 42.4816 31.1119 42.5422C30.8361 42.5556 30.7285 42.6633 30.9236 42.9928C31.1186 43.3224 31.2868 44.244 32.4908 44.9502C33.6948 45.6565 34.502 45.9928 34.8316 46.5847C34.9258 46.7731 35.1746 46.7798 35.1746 46.5646Z" fill="white"/>
<path d="M30.8232 0.21817C28.1865 1.0926 26.1955 3.8975 28.4353 6.10375C28.6237 6.29209 28.8053 6.41316 28.7246 6.07012C28.6439 5.72707 28.1528 4.50287 29.0138 3.08361C29.1887 2.78765 29.2156 2.87509 29.1349 3.11051C29.0609 3.34593 28.6035 4.94681 29.3367 6.07684C29.4981 6.32572 29.6528 6.35935 29.8479 6.00958C30.0429 5.65981 30.7896 5.00735 30.7896 3.53427C30.7896 2.0612 30.6618 1.14641 31.0183 0.520857C31.1393 0.332518 31.0048 0.103821 30.8165 0.21817H30.8232Z" fill="white"/>
<path d="M3.55032 37.4679C6.01216 37.394 8.41347 35.5038 7.0682 33.0622C6.95385 32.8536 6.83278 32.7057 6.8126 33.0218C6.79242 33.3379 6.90677 34.5016 5.81037 35.4904C5.5884 35.6989 5.5884 35.6182 5.7162 35.4366C5.844 35.255 6.63099 34.0039 6.29467 32.8604C6.22068 32.6115 6.09961 32.5442 5.844 32.7931C5.5884 33.042 4.78797 33.4052 4.41802 34.663C4.04807 35.9141 3.92026 36.728 3.45615 37.1653C3.30817 37.2931 3.36198 37.5285 3.55032 37.4747V37.4679Z" fill="white"/>
<path d="M1.22441 33.2806C1.31186 29.1304 4.45979 25.0341 8.60323 27.2605C8.953 27.4488 9.20861 27.6573 8.67722 27.691C8.14584 27.7313 6.17502 27.5632 4.52706 29.4197C4.17729 29.7963 4.31181 29.7963 4.62123 29.5811C4.93064 29.3658 7.02254 28.0071 8.95973 28.5587C9.38349 28.6798 9.50457 28.8815 9.08753 29.3255C8.6705 29.7694 8.07185 31.1214 5.95977 31.7672C3.84769 32.4129 2.48224 32.6416 1.74907 33.4286C1.54055 33.6774 1.1437 33.5967 1.23114 33.2671L1.22441 33.2806Z" fill="white"/>
<path d="M32.5113 2.13505C35.1414 1.23372 38.4373 2.30994 38.0068 5.46461C37.9732 5.73366 37.8992 5.94218 37.7512 5.61259C37.6032 5.28299 37.2534 3.9848 35.6996 3.35925C35.3835 3.218 35.4104 3.30544 35.6189 3.45342C35.8274 3.6014 37.166 4.62381 37.2669 5.98926C37.2871 6.28522 37.1862 6.41303 36.8162 6.24487C36.4463 6.07671 35.4508 6.00272 34.5562 4.80542C33.6548 3.6014 33.1974 2.78751 32.5315 2.49827C32.323 2.41756 32.2894 2.1485 32.5113 2.12832V2.13505Z" fill="white"/>
<path d="M22.7432 38.7381C20.4092 40.2313 16.9451 39.9757 16.6222 36.8076C16.5886 36.5386 16.6088 36.3166 16.8308 36.6058C17.0527 36.8883 17.6985 38.0654 19.3599 38.3076C19.7029 38.3681 19.6491 38.2874 19.4137 38.1932C19.1783 38.0991 17.6312 37.4197 17.2074 36.1215C17.1133 35.839 17.1873 35.691 17.5841 35.765C17.9877 35.839 18.963 35.6708 20.12 36.626C21.2769 37.5811 21.9226 38.2672 22.6356 38.3883C22.8576 38.4152 22.9585 38.6641 22.7432 38.7381Z" fill="white"/>
<path d="M38.6695 26.8834C40.1156 28.7601 40.1493 31.7197 37.4789 32.2309C37.2502 32.278 37.0619 32.278 37.2906 32.0627C37.5193 31.8542 38.4677 31.2152 38.5484 29.7892C38.5753 29.4932 38.508 29.5471 38.4475 29.7556C38.387 29.9641 37.9228 31.3228 36.8466 31.7802C36.6112 31.8811 36.4834 31.834 36.517 31.4843C36.5507 31.1345 36.3354 30.3206 37.0619 29.2645C37.7883 28.2085 38.3197 27.6166 38.3735 26.9978C38.3735 26.8094 38.5888 26.7085 38.6627 26.8834H38.6695Z" fill="white"/>
<path d="M0.275261 21.0304C3.67207 17.2502 9.86705 15.9722 11.9253 21.3465C12.1069 21.7972 12.1742 22.2008 11.6495 21.8107C11.1249 21.4205 9.43657 19.6918 6.42316 20.1022C5.7976 20.1761 5.92541 20.2838 6.3828 20.3309C6.84019 20.3779 9.86705 20.7883 11.2191 22.8532C11.515 23.3039 11.4612 23.5864 10.7213 23.6604C9.9814 23.7344 8.34017 24.5147 5.86487 23.425C3.38957 22.3353 1.9434 21.4542 0.631758 21.6021C0.234903 21.6694 -0.0610571 21.2793 0.275261 21.0371V21.0304Z" fill="white"/>
<path d="M32.5878 48.509C29.4466 49.9754 25.3435 49.0741 25.6664 45.1055C25.6866 44.7692 25.7605 44.5001 25.9691 44.8903C26.1709 45.2804 26.6888 46.8409 28.626 47.4126C29.0228 47.5404 28.9757 47.4395 28.7134 47.2848C28.4511 47.1301 26.7493 46.0337 26.5341 44.3521C26.487 43.9889 26.6013 43.8208 27.0655 43.9755C27.5296 44.1369 28.747 44.0898 29.9242 45.462C31.1013 46.8342 31.7201 47.7893 32.5474 48.0584C32.803 48.1256 32.8703 48.4552 32.5945 48.5158L32.5878 48.509Z" fill="white"/>
<path d="M50.3053 23.9963C48.6102 28.503 43.5924 31.7653 39.9265 27.7295C39.6104 27.3931 39.4153 27.0636 40.0072 27.225C40.6059 27.3864 42.691 28.3281 45.2134 26.9358C45.7381 26.6532 45.5901 26.6062 45.1731 26.7205C44.756 26.8349 41.9444 27.5142 40.0408 26.1622C39.6238 25.8663 39.57 25.5972 40.2023 25.2811C40.8278 24.9582 42.0049 23.7071 44.5677 23.8147C47.1237 23.9223 48.7044 24.1981 49.8075 23.6197C50.1371 23.4246 50.534 23.6735 50.312 23.9963H50.3053Z" fill="white"/>
<path d="M31.9741 14.2289C30.9719 13.6235 30.7364 12.4599 30.7364 12.4599C30.723 12.3859 30.7768 12.3119 30.8508 12.2917C30.8508 12.2917 32.075 12.0025 33.0772 12.6079C34.0794 13.2132 34.3149 14.3769 34.3149 14.3769C34.3283 14.4509 34.2812 14.5316 34.2005 14.5451C34.2005 14.5451 32.9763 14.8343 31.9741 14.2289Z" fill="white"/>
<path d="M10.3131 26.9825C10.4208 25.6036 11.5239 24.7359 11.5239 24.7359C11.5979 24.682 11.7055 24.6955 11.766 24.7695C11.766 24.7695 12.7212 25.9062 12.6136 27.2919C12.5059 28.6708 11.4028 29.5385 11.4028 29.5385C11.3288 29.599 11.2212 29.5856 11.1607 29.5116C11.1607 29.5116 10.2055 28.3748 10.3131 26.9892V26.9825Z" fill="white"/>
<path d="M25.0117 37.8929C26.2359 37.2471 27.561 37.7247 27.561 37.7247C27.6485 37.7583 27.6888 37.8592 27.6619 37.9467C27.6619 37.9467 27.2045 39.3592 25.9736 40.0049C24.7494 40.6507 23.4243 40.1731 23.4243 40.1731C23.3369 40.1395 23.2898 40.0453 23.3234 39.9511C23.3234 39.9511 23.7808 38.5386 25.0117 37.8929Z" fill="white"/>
<path d="M31.4841 40.3125C30.7779 41.7251 28.908 42.0681 28.908 42.0681C28.7869 42.0883 28.6456 42.0143 28.5918 41.9067C28.5918 41.9067 27.7443 40.2049 28.4573 38.7924C29.1636 37.3798 31.0335 37.0368 31.0335 37.0368C31.1546 37.0099 31.2958 37.0839 31.3496 37.1982C31.3496 37.1982 32.1904 38.9 31.4841 40.3125Z" fill="white"/>
<path d="M39.2342 43.9527C41.9651 43.9864 44.7162 42.0088 43.344 39.2443C43.2297 39.0088 43.0951 38.8339 43.0615 39.1837C43.0211 39.5268 43.0951 40.825 41.8306 41.8675C41.575 42.0895 41.5817 41.9953 41.7297 41.8003C41.8777 41.6052 42.8126 40.2599 42.4965 38.9752C42.4292 38.6927 42.2947 38.612 41.992 38.8743C41.6961 39.1366 40.7947 39.4999 40.3239 40.8788C39.853 42.2509 39.6714 43.1388 39.14 43.6029C38.9651 43.7375 39.019 43.9931 39.2275 43.946L39.2342 43.9527Z" fill="white"/>
<path d="M43.6241 37.6755C42.7766 36.6396 43.0994 35.0253 43.0994 35.0253C43.1263 34.9177 43.2205 34.8302 43.3214 34.8235C43.3214 34.8235 44.8819 34.7159 45.7294 35.7517C46.577 36.7876 46.2541 38.4019 46.2541 38.4019C46.2339 38.5096 46.133 38.597 46.0321 38.6037C46.0321 38.6037 44.4716 38.7113 43.6241 37.6755Z" fill="white"/>
<path d="M46.3157 34.121C44.4391 34.3161 42.892 32.6479 42.892 32.6479C42.7911 32.5403 42.7777 32.352 42.8516 32.2242C42.8516 32.2242 44.0288 30.2803 45.9054 30.0852C47.7821 29.8969 49.3291 31.5583 49.3291 31.5583C49.43 31.6659 49.4502 31.8542 49.3762 31.982C49.3762 31.982 48.1991 33.926 46.3224 34.121H46.3157Z" fill="white"/>
<path d="M4.91738 14.8592C3.69318 13.2987 4.23802 10.9512 4.23802 10.9512C4.27165 10.7965 4.41963 10.6754 4.57434 10.6687C4.57434 10.6687 6.89493 10.588 8.11913 12.1485C9.34333 13.709 8.80522 16.0498 8.80522 16.0498C8.77159 16.1978 8.62361 16.3323 8.4689 16.3323C8.4689 16.3323 6.14831 16.413 4.92411 14.8525L4.91738 14.8592Z" fill="white"/>
<path d="M15.1706 2.37807C15.9575 1.24804 17.6122 1.1875 17.6122 1.1875C17.7198 1.1875 17.8342 1.26149 17.8678 1.36239C17.8678 1.36239 18.3858 2.93636 17.5988 4.06639C16.8118 5.19642 15.1571 5.25696 15.1571 5.25696C15.0495 5.25696 14.9351 5.18297 14.9015 5.08207C14.9015 5.08207 14.3903 3.5081 15.1773 2.37807H15.1706Z" fill="white"/>
<path d="M3.56435 16.5419C3.56435 17.107 3.10695 17.5643 2.54194 17.5643C1.97692 17.5643 1.51953 17.107 1.51953 16.5419C1.51953 15.9769 1.97692 15.5195 2.54194 15.5195C3.10695 15.5195 3.56435 15.9769 3.56435 16.5419Z" fill="white"/>
<path d="M38.9862 45.3779C38.9862 45.9429 38.5288 46.4003 37.9638 46.4003C37.3988 46.4003 36.9414 45.9429 36.9414 45.3779C36.9414 44.8129 37.3988 44.3555 37.9638 44.3555C38.5288 44.3555 38.9862 44.8129 38.9862 45.3779Z" fill="white"/>
<path d="M7.49794 39.8623C7.49794 40.4273 7.04055 40.8847 6.47553 40.8847C5.91052 40.8847 5.45312 40.4273 5.45312 39.8623C5.45312 39.2972 5.91052 38.8398 6.47553 38.8398C7.04055 38.8398 7.49794 39.2972 7.49794 39.8623Z" fill="white"/>
<path d="M41.9112 33.3462C41.9112 33.7902 41.548 34.1534 41.104 34.1534C40.6601 34.1534 40.2969 33.7902 40.2969 33.3462C40.2969 32.9023 40.6601 32.5391 41.104 32.5391C41.548 32.5391 41.9112 32.9023 41.9112 33.3462Z" fill="white"/>
<path d="M2.32732 25.4293C2.32732 26.075 1.80939 26.593 1.16366 26.593C0.51793 26.593 0 26.075 0 25.4293C0 24.7836 0.51793 24.2656 1.16366 24.2656C1.80939 24.2656 2.32732 24.7836 2.32732 25.4293Z" fill="white"/>
<path d="M37.4523 8.98398C37.4523 9.62298 36.9344 10.1476 36.2887 10.1476C35.6429 10.1476 35.125 9.62971 35.125 8.98398C35.125 8.33824 35.6497 7.82031 36.2887 7.82031C36.9277 7.82031 37.4523 8.34497 37.4523 8.98398Z" fill="white"/>
<path d="M25.8887 0.675883C26.1443 3.11083 27.3012 11.5255 18.0727 13.9672C17.6354 14.1892 17.4337 13.9672 17.9247 13.604C18.4157 13.2408 22.7878 8.91569 23.0771 5.96954C23.1578 5.09511 22.808 5.7543 22.7878 5.92918C22.7677 6.10407 20.6085 10.4695 16.6467 13.2878C16.1893 13.678 15.9808 13.3887 16.1758 12.5412C16.3709 11.6937 14.8978 7.50315 19.0951 3.95835C20.622 2.66689 24.2676 1.8799 25.2295 0.231942C25.3775 -0.0236601 25.7811 -0.272536 25.882 0.682609L25.8887 0.675883Z" fill="white"/>
<path d="M47.0692 12.9315C47.0558 15.0705 47.2441 22.4964 38.9841 23.7274C38.5806 23.8753 38.4259 23.6601 38.89 23.3978C39.3541 23.1287 43.5783 19.7924 44.1096 17.2566C44.2643 16.5032 43.8944 17.0413 43.8608 17.196C43.8271 17.344 41.5267 20.9292 37.807 22.9942C37.3765 23.2901 37.2218 23.0211 37.4707 22.3014C37.7196 21.5816 36.8519 17.7947 40.8406 15.1243C42.3002 14.149 45.5356 13.8194 46.5379 12.4809C46.6926 12.2723 47.0692 12.0974 47.0625 12.9382L47.0692 12.9315Z" fill="white"/>
<path d="M15.9684 34.8006C15.9684 34.5181 15.2218 34.2894 14.2935 34.2894C14.1994 34.2894 14.1119 34.2894 14.0245 34.2894C14.1052 34.2491 14.1792 34.2087 14.2599 34.1616C15.0603 33.6975 15.5984 33.1257 15.4505 32.8769C15.3092 32.628 14.5491 32.8096 13.742 33.267C13.6613 33.3141 13.5873 33.3612 13.5065 33.4083C13.5536 33.3343 13.6007 33.2535 13.6478 33.1796C14.1119 32.3791 14.2868 31.6123 14.0379 31.4711C13.7958 31.3298 13.2173 31.8612 12.7532 32.6616C12.7061 32.7423 12.6658 32.8231 12.6254 32.9038C12.6254 32.8096 12.6321 32.7222 12.6321 32.628C12.6321 31.7065 12.4034 30.9531 12.1209 30.9531C11.8384 30.9531 11.6097 31.7065 11.6097 32.628C11.6097 32.7222 11.6097 32.8096 11.6164 32.9038C11.5761 32.8231 11.5357 32.7423 11.4886 32.6616C11.0245 31.8612 10.4528 31.3231 10.2039 31.4711C9.95503 31.6123 10.1299 32.3791 10.594 33.1796C10.6411 33.2603 10.6882 33.341 10.7353 33.415C10.6613 33.3679 10.5806 33.3208 10.4999 33.2737C9.69943 32.8096 8.93262 32.6347 8.79137 32.8836C8.65011 33.1325 9.1815 33.7042 9.98193 34.1683C10.0626 34.2154 10.1434 34.2558 10.2241 34.2961C10.1366 34.2961 10.0425 34.2961 9.9483 34.2961C9.02006 34.2961 8.27344 34.5248 8.27344 34.8073C8.27344 35.0898 9.02006 35.3185 9.9483 35.3185C10.0425 35.3185 10.1299 35.3185 10.2241 35.3118C10.1434 35.3522 10.0626 35.3925 9.98193 35.4463C9.1815 35.9105 8.65011 36.4822 8.79137 36.7244C8.93262 36.9732 9.69943 36.7983 10.4999 36.3342C10.5806 36.2871 10.6613 36.2401 10.7353 36.193C10.6882 36.267 10.6411 36.341 10.594 36.4217C10.1299 37.2221 9.95503 37.9889 10.2039 38.1302C10.4461 38.2714 11.0245 37.74 11.4886 36.9329C11.5357 36.8522 11.5761 36.7714 11.6164 36.6907C11.6164 36.7782 11.6097 36.8723 11.6097 36.9598C11.6097 37.888 11.8384 38.6346 12.1209 38.6346C12.4034 38.6346 12.6321 37.888 12.6321 36.9598C12.6321 36.8656 12.6321 36.7782 12.6254 36.6907C12.6658 36.7714 12.7061 36.8522 12.7532 36.9329C13.2173 37.7333 13.7891 38.2714 14.0379 38.1302C14.2868 37.9889 14.1119 37.2221 13.6478 36.4217C13.6007 36.341 13.5536 36.267 13.5065 36.1862C13.5805 36.2333 13.6613 36.2804 13.742 36.3275C14.5424 36.7916 15.3092 36.9665 15.4505 36.7176C15.5917 36.4688 15.0603 35.897 14.2599 35.4396C14.1792 35.3925 14.0985 35.3522 14.0178 35.3051C14.1052 35.3051 14.1994 35.3118 14.2935 35.3118C15.2218 35.3118 15.9684 35.0831 15.9684 34.8006ZM12.1344 36.2333C11.3541 36.2333 10.7286 35.6011 10.7286 34.8275C10.7286 34.054 11.3608 33.4217 12.1344 33.4217C12.9079 33.4217 13.5402 34.054 13.5402 34.8275C13.5402 35.6011 12.9079 36.2333 12.1344 36.2333Z" fill="white"/>
<path d="M41.2318 36.7822C41.178 36.3719 40.2161 35.5647 39.039 35.8674C39.7385 34.919 39.4493 33.6409 39.1601 33.4526C38.8439 33.2575 38.7497 33.4055 38.5143 33.2979C38.2789 33.197 38.3193 33.0289 37.9628 32.928C37.5525 32.8136 36.3686 33.4055 36.2274 34.6903C35.6354 33.7015 34.3978 33.4526 34.1153 33.6409C33.8059 33.8495 33.9 33.9974 33.705 34.1656C33.5099 34.3405 33.3754 34.2261 33.14 34.5154C32.844 34.8652 32.9247 36.3315 34.2565 36.9369C33.0458 37.4414 32.7296 38.8808 32.9314 39.1902C33.14 39.4996 33.2879 39.4055 33.4628 39.6005C33.631 39.7956 33.5301 39.9301 33.8126 40.1655C34.0884 40.3942 35.0637 40.3942 35.7632 39.7283C35.8641 40.7373 36.6444 41.4772 36.9605 41.4772C37.3372 41.4772 37.3372 41.2956 37.5928 41.2552C37.8484 41.2148 37.9022 41.3763 38.2587 41.2687C38.6623 41.1476 39.3282 40.0377 38.7901 38.8875C40.0143 39.2978 41.1981 38.4503 41.2452 38.0871C41.299 37.7171 41.1309 37.6902 41.1309 37.4279C41.1309 37.1723 41.299 37.1387 41.252 36.7754L41.2318 36.7822ZM37.8888 37.6028C37.6197 38.2216 36.9 38.4974 36.2879 38.2283C35.6691 37.9526 35.3933 37.2396 35.6623 36.6275C35.9314 36.0086 36.6511 35.7329 37.2632 36.0019C37.8753 36.271 38.1578 36.9907 37.8888 37.6095V37.6028Z" fill="white"/>
<path fill-rule="evenodd" clip-rule="evenodd" d="M8.36057 42.5929C8.32694 41.9875 9.0063 41.4561 9.88073 41.4023H9.91436H9.94127H9.98835H10.0623H10.0825H10.1296H10.1431H10.17H10.1969H10.2103V41.3888V41.3821V41.3687V41.3619V41.3485H10.1969V41.3417V41.3283V41.3216V41.3081V41.3014V41.2879H10.1901V41.2745V41.261V41.2476V41.2341H10.1834V41.2274V41.2139V41.2072V41.2005L10.17 41.1736V41.1534H10.1565V41.1467V41.14V41.1265V41.1063C9.83365 40.2924 10.0287 39.4516 10.5937 39.2297C11.1587 39.0077 11.8785 39.492 12.1946 40.3059L12.2081 40.3462L12.2215 40.3799V40.3866L12.235 40.4202L12.2484 40.4539L12.2619 40.4942V40.5279H12.2753V40.5346V40.5615H12.282V40.5682V40.5817V40.5884V40.5951V40.6086V40.622V40.6355V40.6287H12.2888V40.6153V40.6086V40.6018V40.5951V40.5884L12.2955 40.5817V40.5749V40.5682L12.3022 40.5548V40.548V40.5413L12.3089 40.5279L12.3157 40.5144V40.5077V40.5009V40.4942V40.4875V40.4808L12.3291 40.4673L12.356 40.4404L12.3762 40.4202C13.0556 39.8619 13.9165 39.7947 14.2999 40.2655C14.6834 40.7364 14.4479 41.5637 13.7686 42.122L13.7349 42.1489L13.7148 42.1691L13.6879 42.1893L13.6744 42.2027H13.6609V42.2162V42.2229L13.6542 42.2296L13.6475 42.2364V42.2431L13.6408 42.2498H13.6542H13.6677V42.2565H13.6744H13.6811H13.6879V42.2633H13.6946H13.708V42.2767L13.7417 42.2902L13.7753 42.3103L13.8089 42.3305C14.5488 42.8014 14.8784 43.6018 14.5488 44.113C14.2192 44.6242 13.3583 44.6578 12.6184 44.187L12.5915 44.1668L12.5713 44.1534L12.5511 44.1399V44.1332H12.5444V44.1265L12.5376 44.1197V44.113V44.1063V44.0996H12.5309V44.0861V44.0794H12.5242V44.0659V44.0592L12.5107 44.0457V44.039H12.504V44.0256C12.4906 44.1399 12.4704 44.2677 12.4367 44.3888C12.2148 45.2363 11.5623 45.8013 10.9704 45.6466C10.3852 45.4919 10.0892 44.678 10.3045 43.8305C10.3381 43.7027 10.3785 43.5884 10.4323 43.474L10.4121 43.4807H10.3987H10.3919H10.3785H10.365H10.3516H10.3381H10.3314H10.3247H10.3112H10.291H10.2776H10.2574H10.2372H10.217H10.1901H10.1632H10.1565C9.28208 43.5345 8.54218 43.0839 8.50855 42.4785L8.36057 42.5929Z" fill="white"/>
<path fill-rule="evenodd" clip-rule="evenodd" d="M11.5832 18.413C11.3477 18.1439 11.4755 17.6529 11.8657 17.3166L11.8791 17.3031L11.8858 17.2964L11.8993 17.2829L11.9127 17.2695H11.9262V17.256V17.2493H11.9195H11.9127H11.906H11.8993H11.8858V17.2426L11.8724 17.2359H11.8657C11.4284 16.9668 11.2199 16.5027 11.4015 16.2C11.5832 15.8973 12.0876 15.8637 12.5316 16.126L12.5518 16.1395L12.5652 16.1529L12.5787 16.1664L12.5988 16.1798L12.619 16.1933L12.6325 16.2067L12.6459 16.2202V16.2269V16.2336V16.2202V16.2067V16.1933V16.1798V16.1731V16.1664V16.1529V16.1462V16.126V16.1193V16.1058V16.0991V16.0857V16.0587V16.0453C12.767 15.5475 13.1437 15.2045 13.4867 15.2852C13.8298 15.3659 14.0181 15.8368 13.9038 16.3345V16.3614H13.897V16.3816V16.4018V16.4152V16.4354V16.4421V16.4556V16.4623V16.4691V16.4758V16.4825H13.9105H13.9172H13.9239H13.9307H13.9374H13.9441H13.9508H13.9643H13.9777H13.9912H14.0181H14.045H14.0652C14.5764 16.4354 15.0136 16.691 15.0472 17.0408C15.0809 17.3973 14.6907 17.7202 14.1795 17.7605H14.1526H14.1392H14.0921H14.0517H14.0046H13.9912C14.0316 17.8211 14.0652 17.8883 14.0921 17.9556C14.2939 18.4264 14.1863 18.9242 13.8634 19.0654C13.5338 19.2067 13.11 18.9309 12.9082 18.4601C12.8813 18.3928 12.8544 18.3255 12.841 18.2515V18.2583V18.265V18.2717L12.8343 18.2784L12.8208 18.2919H12.8141V18.3054C12.424 18.6417 11.9262 18.6955 11.6908 18.4264L11.5832 18.413Z" fill="white"/>
<path fill-rule="evenodd" clip-rule="evenodd" d="M27.1178 12.5558C26.7613 12.5289 26.5124 12.0916 26.5461 11.5804V11.5603V11.5468V11.5334V11.5132V11.493V11.4728V11.4661V11.4526V11.4459V11.4392V11.4325V11.4257V11.4123H26.5326H26.5259H26.5192H26.5124H26.4855H26.4721H26.4653H26.4586C25.9609 11.5334 25.49 11.3517 25.4026 11.0087C25.3219 10.6589 25.6582 10.2822 26.1559 10.1679H26.1828V10.1612H26.1963H26.2165H26.2367H26.2568H26.277H26.2972H26.3106H26.3308V10.1544V10.1477V10.141V10.1343V10.1275V10.1208L26.3174 10.1074L26.3039 10.0872C26.0349 9.64997 26.0618 9.14549 26.3645 8.95715C26.6671 8.76881 27.1313 8.9706 27.4003 9.41454L27.4138 9.43472V9.44817H27.4205L27.4272 9.46835V9.48181V9.49526V9.50199V9.50871V9.51544V9.52216V9.52889V9.51544V9.50871V9.49526V9.48853V9.47508L27.4407 9.4549L27.4541 9.43472L27.4676 9.41454C27.7972 9.02441 28.2882 8.89661 28.5572 9.12531C28.8263 9.35401 28.7792 9.85848 28.4429 10.2486L28.4294 10.2621V10.2755H28.416L28.4025 10.289V10.2957V10.3024L28.3958 10.3092C28.4698 10.3226 28.5371 10.3495 28.6043 10.3764C29.0819 10.5715 29.351 10.9952 29.2164 11.3248C29.0819 11.6544 28.5842 11.762 28.1133 11.567C28.046 11.5401 27.9788 11.4997 27.9182 11.4661V11.4795V11.493V11.5064V11.5132V11.5266V11.5401V11.5535V11.567V11.5804V11.5872V11.6006V11.6141V11.6208V11.6342V11.6544V11.6679C27.8779 12.1858 27.5617 12.5759 27.2052 12.549L27.1178 12.5558Z" fill="white"/>
<path d="M33.202 8.20568C33.202 8.20568 33.1751 8.20568 33.1683 8.19895C33.1751 8.19895 33.1885 8.1855 33.202 8.17877C33.915 7.7012 34.3656 7.12946 34.2176 6.90076C34.0629 6.67207 33.3634 6.87386 32.6504 7.3447C32.6369 7.35143 32.6302 7.35816 32.6235 7.36488C32.6235 7.35143 32.6235 7.3447 32.6302 7.33125C32.7984 6.49045 32.7109 5.76401 32.4419 5.7102C32.1728 5.65638 31.8163 6.29539 31.6482 7.13619C31.6482 7.14964 31.6482 7.16309 31.6482 7.16982C31.6482 7.15637 31.6347 7.14964 31.628 7.13619C31.1504 6.42319 30.5787 5.97252 30.35 6.1205C30.1213 6.27521 30.3163 6.97475 30.7939 7.68775C30.8006 7.69448 30.8074 7.70793 30.8141 7.71465C30.8006 7.71465 30.7872 7.71466 30.7805 7.70793C29.9397 7.53977 29.2132 7.62721 29.1594 7.89627C29.1056 8.17205 29.7446 8.52182 30.5854 8.68998C30.5989 8.68998 30.6123 8.68998 30.619 8.68998C30.6123 8.68998 30.5989 8.70343 30.5854 8.71016C29.8724 9.18773 29.415 9.75947 29.5697 9.98817C29.7244 10.2169 30.424 10.0151 31.137 9.54423C31.1437 9.54423 31.1571 9.53078 31.1639 9.52405C31.1639 9.5375 31.1639 9.55096 31.1571 9.55768C30.989 10.3985 31.0764 11.1249 31.3455 11.1787C31.6145 11.2325 31.971 10.5935 32.1392 9.75275C32.1392 9.73929 32.1392 9.72584 32.1459 9.71911C32.1459 9.72584 32.1594 9.73929 32.1661 9.74602C32.6437 10.459 33.2154 10.9097 33.4441 10.7617C33.6728 10.607 33.471 9.90745 33.0002 9.19446C33.0002 9.18773 32.9867 9.17428 32.98 9.16755C32.9934 9.16755 33.0069 9.16755 33.0136 9.17428C33.8544 9.34244 34.5809 9.255 34.6347 8.98594C34.6885 8.71688 34.0495 8.36039 33.2087 8.19223L33.202 8.20568Z" fill="white"/>
<path d="M40.8212 9.6694C40.8212 9.6694 39.718 9.25909 39.1665 8.41829C38.6149 7.57749 39.1934 6.99902 39.4355 6.66271C39.6777 6.32639 39.6575 6.23894 39.8795 6.30621C40.1014 6.37347 40.9759 6.41383 41.4534 7.3488C41.931 8.28376 41.0499 9.35326 41.0431 9.5685C41.0364 9.77702 40.9019 9.76356 40.8279 9.6694H40.8212Z" fill="white"/>
<path d="M41.1782 10.2139C41.1782 10.2139 42.2814 10.6242 42.8329 11.465C43.3845 12.3058 42.806 12.8843 42.5639 13.2206C42.3217 13.5569 42.3486 13.6444 42.1199 13.5704C41.898 13.4964 41.0235 13.4628 40.5527 12.5278C40.0751 11.5928 40.9496 10.5233 40.963 10.3148C40.9765 10.1063 41.1043 10.1198 41.1782 10.2139Z" fill="white"/>
<path d="M41.2725 9.76061C41.2725 9.76061 41.6828 8.65749 42.5236 8.10592C43.3644 7.55436 43.9429 8.13283 44.2792 8.37498C44.6155 8.61713 44.703 8.59695 44.629 8.81892C44.5617 9.04089 44.5214 9.91532 43.5864 10.3862C42.6514 10.8637 41.5819 9.98931 41.3734 9.97586C41.1649 9.9624 41.1783 9.8346 41.2725 9.76061Z" fill="white"/>
<path d="M40.7344 10.1124C40.7344 10.1124 40.3241 11.2155 39.4833 11.7671C38.6425 12.3186 38.0641 11.7401 37.7278 11.498C37.3914 11.2559 37.304 11.2828 37.378 11.0608C37.452 10.8388 37.4856 9.96439 38.4206 9.48681C39.3555 9.01597 40.425 9.8904 40.6335 9.89712C40.8421 9.91058 40.8286 10.0384 40.7344 10.1124Z" fill="white"/>
<path d="M41.3267 9.63429C41.1653 9.4325 40.8828 9.4056 40.681 9.5603C40.486 9.71501 40.4523 10.0042 40.607 10.1993C40.7617 10.3944 41.051 10.428 41.2528 10.2733C41.4478 10.1186 41.4815 9.82936 41.3267 9.63429Z" fill="white"/>
<path d="M19.6132 44.8224C19.6132 44.8224 17.9383 44.5399 16.9294 43.4973C15.9204 42.4614 16.5796 41.4794 16.8352 40.9345C17.0841 40.3964 17.0303 40.2754 17.3666 40.3157C17.7029 40.3561 18.9473 40.1745 19.8755 41.3718C20.8038 42.5691 19.8486 44.3179 19.8957 44.6206C19.9361 44.9166 19.7477 44.9367 19.6132 44.8224Z" fill="white"/>
<path d="M20.266 45.4865C20.266 45.4865 21.9409 45.7757 22.9498 46.8116C23.9588 47.8542 23.2996 48.8295 23.0507 49.3743C22.8018 49.9192 22.8556 50.0335 22.5193 49.9931C22.183 49.9528 20.9386 50.1411 20.0104 48.9371C19.0822 47.7398 20.0306 45.991 19.9902 45.6883C19.9499 45.3923 20.1382 45.3721 20.266 45.4865Z" fill="white"/>
<path d="M20.2722 44.8339C20.2722 44.8339 20.5547 43.159 21.5906 42.1501C22.6332 41.1411 23.6152 41.8003 24.1533 42.0559C24.6914 42.3048 24.8125 42.251 24.7722 42.5873C24.7318 42.9236 24.9201 44.168 23.7161 45.0962C22.5188 46.0245 20.77 45.0761 20.4673 45.1164C20.1646 45.1568 20.1512 44.9684 20.2655 44.8406L20.2722 44.8339Z" fill="white"/>
<path d="M19.6075 45.4802C19.6075 45.4802 19.325 47.1484 18.2824 48.1641C17.2466 49.173 16.2645 48.5138 15.7197 48.2582C15.1816 48.0094 15.0605 48.0632 15.1009 47.7268C15.1412 47.3905 14.9596 46.1461 16.1569 45.2179C17.3542 44.2897 19.1031 45.2448 19.4058 45.1977C19.7084 45.1574 19.7219 45.3457 19.6075 45.4735V45.4802Z" fill="white"/>
<path d="M20.3194 44.6403C20.0437 44.3982 19.6266 44.4318 19.3912 44.7143C19.1558 44.9901 19.1894 45.4071 19.4652 45.6426C19.741 45.878 20.158 45.8444 20.3934 45.5686C20.6289 45.2928 20.6019 44.8758 20.3194 44.6403Z" fill="white"/>
<defs>
<clipPath id="clip0_9744_5651">
<rect width="24.9698" height="7.39847" fill="white" transform="translate(125.996 39.3438)"/>
</clipPath>
</defs>
</svg>
