<svg xmlns="http://www.w3.org/2000/svg" xmlns:xlink="http://www.w3.org/1999/xlink" width="250" height="250" viewBox="0 0 250 250"><defs><clipPath id="a"><path d="M0,0H235a15,15,0,0,1,15,15V235a15,15,0,0,1-15,15H0a0,0,0,0,1,0,0V0A0,0,0,0,1,0,0Z" transform="translate(183 872.982)" fill="#d2985f"/></clipPath><clipPath id="b"><path d="M40.634,6.351C8.08,36.9-1.933,91.474,45.635,108.508c4,1.484,7.507,2,4-2.5-3.5-4.521-19.023-19.036-16.012-45.56.493-5.512,1.465-4.439,1.97-.424S40.3,90.507,58.641,101.992c4.015,2.494,6.516,1.989,7.021-4.508.5-6.516,7.008-21.037-3.005-42.549C52.643,33.393,44.625,20.879,45.635,9.369c.337-2.407-1.216-4.346-2.862-4.346a2.6,2.6,0,0,0-2.139,1.328" transform="translate(-13.06 -5.023)" fill="#d2985f"/></clipPath><clipPath id="c"><path d="M67.413,43.349c-.979,1.8-1.459,3.429.9,2.07,2.344-1.353,10.213-7.725,22.459-4.464,2.544.624,1.97,1,.062.966s-14.628.125-21.268,8.062c-1.44,1.708-1.378,2.949,1.646,3.616,3.005.7,9.384,4.782,20.158,1.515s17.2-6.2,22.534-4.932c1.615.474,3.024-1.01,1.752-2.17-7.039-10.2-18.4-17.34-28.881-17.34-7.557-.006-14.665,3.71-19.366,12.676" transform="translate(-66.607 -30.673)" fill="#d2985f"/></clipPath><clipPath id="d"><path d="M76.135,19.052c-20.289,8.8-34.081,32.6-14.721,48.491,1.609,1.365,3.155,2.195,2.276-.5S58,54.979,63.833,43.1c1.141-2.488,1.415-1.814.979.143-.418,1.945-2.9,15,3.766,23.426,1.434,1.858,2.687,2.039,4.016-.91s6.79-8.648,5.718-20.37-2.737-18.905-.337-24.1c.642-1.235.031-2.575-.954-2.575a1.5,1.5,0,0,0-.885.337" transform="translate(-52.116 -18.715)" fill="#d2985f"/></clipPath><clipPath id="e"><path d="M52.329,63.09c-2.263.561-4,1.428-1.035,2.357,2.974.954,14.428,2.675,21.274,15.494,1.478,2.625.7,2.432-.748.779C70.367,80.087,60.279,69.5,48.494,70.048c-2.569.1-3.542,1.091-1.752,4.184,1.783,3.074,3.348,11.6,14.5,18.157s18.618,9.671,21.723,15.145c.86,1.746,3.2,1.79,3.174-.187,4.6-21.181-4.745-45.386-25.658-45.386a31.755,31.755,0,0,0-8.156,1.129" transform="translate(-45.828 -61.961)" fill="#d2985f"/></clipPath><clipPath id="f"><path d="M71.949.585C47.526,8.666,29.076,34.71,49.808,55.149c1.727,1.758,3.429,2.874,2.687-.33s-5.319-14.553,2.681-27.684c1.6-2.75,1.839-1.958,1.122.274C55.588,29.6,51.373,44.449,58.181,54.9c1.478,2.3,2.912,2.631,4.757-.648s8.748-9.278,8.742-22.952S70.521,9.146,73.826,3.378c.91-1.4.274-3.086-.954-3.086a1.748,1.748,0,0,0-.923.293" transform="translate(-40.83 -0.292)" fill="#d2985f"/></clipPath><clipPath id="g"><path d="M27.937,49.981c-2.394,2.307-9.8,5.686-13.237,17.321-3.461,11.622-4.614,19.142-8.891,23.2-1.39,1.191-.885,3.342.885,2.862,22.827-.7,45.111-18.225,32.641-40.84-1.035-1.927-2.2-3.311-2.376-.386-.193,2.912.854,13.724-9.278,22.883-2.064,1.945-2.064,1.191-.892-.511s8.517-13.281,5.356-23.887c-.387-1.316-.923-2.089-1.752-2.089a4.02,4.02,0,0,0-2.457,1.446" transform="translate(-5.009 -48.535)" fill="#d2985f"/></clipPath><clipPath id="h"><path d="M1.911,101.224c-.767,3.005,2.862,3.822,4.82,1.478,6.8-7.3,19.454-9.4,39.045-15.4S70.934,68.751,74.8,64.654c3.885-4.078,2.762-5.973-1.16-7.089C55.677,52.409,36.273,65,33.4,67.011,30.562,69,29.29,69,32.538,65.5,47.821,48.25,66.1,49.827,71.022,49.459c4.907-.343,2.563-2.3-.7-4.015-7.495-4.034-14.634-5.83-21.281-5.83-27.429,0-46.483,30.627-47.125,61.61" transform="translate(-1.806 -39.614)" fill="#d2985f"/></clipPath><clipPath id="i"><path d="M49.516,5.581c-2.076.206-1.727,2.7.187,3.417,6.16,2.669,10.431,10.263,18.749,21.4s17.5,11.816,20.956,13.337c3.454,1.546,4.4.387,4.2-2.363C92.65,28.714,80.23,19.205,78.322,17.852c-1.914-1.384-2.213-2.176.742-.9,14.378,5.78,17.633,17.814,19,20.863s2.051,1.116,2.369-1.366C103.562,13.818,85.96,2.738,66.562,2.738A53,53,0,0,0,49.516,5.581" transform="translate(-48.106 -2.738)" fill="#d2985f"/></clipPath><clipPath id="j"><path d="M30.25,56.62C34.191,68.691,48.5,74.982,50.683,75.855s2.656,1.584-.5,1.048C34.827,74.683,28.8,63.778,26.752,61.134c-2.051-2.669-2.251-.592-1.958,1.9,3,29.361,35.11,31.768,56.771,17.895,1.977-.692,1.048-3.03-.985-3.261-6.609-1.141-12.564-7.52-23.3-16.349C46.561,52.461,37.5,54,33.76,53.328a9.333,9.333,0,0,0-1.665-.175c-2.238,0-2.55,1.3-1.846,3.467" transform="translate(-24.687 -53.153)" fill="#d2985f"/></clipPath><clipPath id="k"><path d="M71.55,41.763c-.48,5.693-5.443,11.229-12.159,20.994s-4.764,17.334-5.044,20.557c-.312,3.23.879,3.666,3.049,2.737C67.36,81.824,71.644,69.217,72.211,67.3c.586-1.927,1.154-2.382.935.343-.748,13.2-9.565,19.13-11.666,21.062s-.343,1.939,1.752,1.528C87.955,85.5,87.643,58.087,74.256,40.672a1.218,1.218,0,0,0-1.1-.829,1.848,1.848,0,0,0-1.6,1.92" transform="translate(-54.285 -39.843)" fill="#d2985f"/></clipPath><clipPath id="l"><path d="M1.548,56.85c-3.105,2.2-.387,5.842,3.3,5.219C16.974,60.747,30.386,68.915,53.35,79c22.958,10.057,38.147,2.868,45,2.17,6.865-.667,7.333-3.33,4.589-7.488C90.394,54.549,62.341,50.727,58.1,50.3c-4.234-.449-5.406-1.447.4-2.107,27.946-3.772,43.628,12.277,48.478,15.875s4.221-.087,2.556-4.29C100.482,36.155,82.824,26.391,63.4,26.391c-21.549,0-45.28,12.015-61.847,30.459" transform="translate(-0.195 -26.391)" fill="#d2985f"/></clipPath><clipPath id="m"><path d="M46.287,69.32C48.3,84.9,64.095,95.059,66.514,96.506s2.843,2.394-.835,1.21c-17.92-5.287-22.74-19.778-24.6-23.382-1.889-3.629-2.581-1.128-2.787,2-2.949,36.831,35.06,45.149,64.185,31.575,2.519-.511,1.927-3.579-.461-4.209-7.7-2.507-13.406-11.354-24.336-24.068-10.893-12.7-22.141-12.314-26.468-13.78a8.878,8.878,0,0,0-2.694-.549c-2.064,0-2.569,1.5-2.232,4.021" transform="translate(-38.132 -65.299)" fill="#d2985f"/></clipPath><clipPath id="n"><path d="M153.227,35.677c-10.244,5.344-24.885,2.768-48.6,1.8S69.987,48.079,64.189,51.066c-5.824,2.956-5.331,5.449-1.472,8.18,17.664,12.539,43.715,6.248,47.6,5.169,3.9-1.072,5.275-.6.387,1.983C87.352,79.367,67.986,70.625,62.468,69.11c-5.5-1.5-3.691,1.528-.761,4.651,33.994,37.38,80.54,7.177,96.227-34.624,1.509-2.257-.2-4.1-2.432-4.1a4.5,4.5,0,0,0-2.276.642" transform="translate(-58.914 -35.035)" fill="#d2985f"/></clipPath><clipPath id="o"><path d="M46.8,18.808a1.4,1.4,0,0,0-1.079,1.584s2.17,10.812,11.46,16.43c9.315,5.612,20.663,2.949,20.663,2.949a1.365,1.365,0,0,0,1.073-1.584s-2.157-10.806-11.46-16.423A27.5,27.5,0,0,0,53.32,18.178a31.521,31.521,0,0,0-6.522.63" transform="translate(-45.694 -18.178)" fill="#d2985f"/></clipPath><clipPath id="p"><path d="M26.62,37.05S16.363,45.081,15.39,57.875c-.966,12.832,7.875,23.376,7.875,23.376a1.61,1.61,0,0,0,2.251.274s10.232-8,11.217-20.8c.979-12.838-7.881-23.388-7.881-23.388a1.687,1.687,0,0,0-1.291-.6,1.527,1.527,0,0,0-.941.312" transform="translate(-15.316 -36.738)" fill="#d2985f"/></clipPath><clipPath id="q"><path d="M50.392,58.964C39.007,64.924,34.748,78.031,34.748,78.031a1.625,1.625,0,0,0,.948,2.058S47.929,84.515,59.3,78.555c11.392-5.973,15.625-19.08,15.625-19.08A1.62,1.62,0,0,0,74,57.436a33.352,33.352,0,0,0-10.338-1.59,28.376,28.376,0,0,0-13.275,3.118" transform="translate(-34.661 -55.846)" fill="#d2985f"/></clipPath><clipPath id="r"><path d="M68.4,55.123S51.065,58.315,44.506,71.39s1.272,28.875,1.272,28.875a2.887,2.887,0,0,0,2.937,1.5s17.334-3.211,23.893-16.286c6.559-13.094-1.26-28.887-1.26-28.887a2.9,2.9,0,0,0-2.507-1.509,2.1,2.1,0,0,0-.443.044" transform="translate(-41.887 -55.079)" fill="#d2985f"/></clipPath><clipPath id="s"><path d="M85.437,59.064c-2.756,2.457-11.111,5.817-15.47,18.562C65.578,90.34,63.907,98.6,59.012,102.9c-1.609,1.234-1.141,3.623.836,3.192,25.309.318,50.823-18.014,38.1-43.634-1.048-2.188-2.282-3.785-2.613-.561-.368,3.211.281,15.239-11.379,24.891C81.59,88.837,81.64,88,83,86.174S93.05,71.884,90.082,59.987c-.38-1.515-.948-2.407-1.908-2.407a4.712,4.712,0,0,0-2.737,1.484" transform="translate(-58.041 -57.58)" fill="#d2985f"/></clipPath><clipPath id="t"><path d="M66.613,51.818a2.465,2.465,0,0,0-2.058,1.877S61.55,68.666,69.413,78.274c7.881,9.627,22.322,8.6,22.322,8.6A2.38,2.38,0,0,0,93.767,85s3.03-14.983-4.839-24.579c-6.485-7.937-17.44-8.636-21.087-8.636-.779,0-1.228.031-1.228.031" transform="translate(-63.992 -51.787)" fill="#d2985f"/></clipPath><clipPath id="u"><path d="M92.381,44.869c-17.4,1.783-28.326,19.815-28.326,19.815a3.476,3.476,0,0,0,.393,3.9S78.794,84.045,96.215,82.249c17.4-1.771,28.333-19.8,28.333-19.8a3.446,3.446,0,0,0-.412-3.909s-12.826-13.811-28.95-13.811c-.923,0-1.864.05-2.806.143" transform="translate(-63.63 -44.726)" fill="#d2985f"/></clipPath><clipPath id="v"><path d="M10.327,15.889a3.487,3.487,0,0,0-3.1,2.625s-5.038,21.723,6.322,36.2C24.905,69.169,46.41,68.452,46.41,68.452a3.537,3.537,0,0,0,3.105-2.644s5.032-21.73-6.329-36.2C32.88,16.488,14.212,15.883,10.857,15.883c-.343,0-.53.006-.53.006" transform="translate(-6.115 -15.883)" fill="#d2985f"/></clipPath><clipPath id="w"><path d="M48.6,1.781s-15.351.58-22.64,11.042S23.43,37.883,23.43,37.883a2.517,2.517,0,0,0,2.357,1.646s15.351-.574,22.652-11.049c7.283-10.463,2.513-25.053,2.513-25.053a2.5,2.5,0,0,0-2.263-1.646H48.6" transform="translate(-21.9 -1.781)" fill="#d2985f"/></clipPath><clipPath id="x"><path d="M2.266,32.554A9.459,9.459,0,1,0,11.731,23.1a9.459,9.459,0,0,0-9.465,9.459" transform="translate(-2.266 -23.095)" fill="#d2985f"/></clipPath><clipPath id="y"><path d="M54.931,75.426a9.456,9.456,0,1,0,9.453-9.465,9.451,9.451,0,0,0-9.453,9.465" transform="translate(-54.931 -65.961)" fill="#d2985f"/></clipPath><clipPath id="z"><path d="M8.118,67.219a9.456,9.456,0,1,0,9.459-9.453,9.463,9.463,0,0,0-9.459,9.453" transform="translate(-8.118 -57.766)" fill="#d2985f"/></clipPath><clipPath id="aa"><path d="M59.911,55.881a7.488,7.488,0,1,0,7.495-7.488,7.495,7.495,0,0,0-7.495,7.488" transform="translate(-59.911 -48.393)" fill="#d2985f"/></clipPath><clipPath id="ab"><path d="M0,46.877A10.787,10.787,0,1,0,10.781,36.1,10.78,10.78,0,0,0,0,46.877" transform="translate(0 -36.096)" fill="#d2985f"/></clipPath><clipPath id="ac"><path d="M52.217,22.441A10.79,10.79,0,1,0,63,11.642a10.788,10.788,0,0,0-10.781,10.8" transform="translate(-52.217 -11.642)" fill="#d2985f"/></clipPath><clipPath id="ad"><path d="M108.763,2.164C99.809,17.477,66.071,24.722,51.892,36.725c-38.9,32.891-25.271,71.717-27.073,79.586-1.8,7.844.137,10.531,4.358,6.921C65.884,97.107,85.93,56.659,86.1,55.05c.156-1.634,3.442-7.713,2.669.368C86.1,82.735,45.594,122.852,41.018,126.194c-4.589,3.361-2.725,5.412,1.341,3.386C127.9,106.908,117.193,28.925,114.8,6.366,114.294,1.528,112.959,0,111.625,0c-1.11,0-2.226,1.066-2.862,2.164" transform="translate(-23.916 0)" fill="#d2985f"/></clipPath><clipPath id="ae"><path d="M140.731,19.9c-9.265,12.445-39.3,15.457-52.806,24.523C50.92,69.216,59,104.3,56.669,110.967s-.9,9.2,3.118,6.453c34.449-19.136,55.8-52.357,56.092-53.747.312-1.4,3.754-6.372,2.295.58-4.963,23.494-44.076,54.427-48.4,56.908-4.3,2.45-2.881,4.427.848,3.061,76.562-11.4,74.835-80.241,74.953-100.093.025-4.452-1.085-5.83-2.319-5.83a3.606,3.606,0,0,0-2.525,1.6" transform="translate(-55.544 -18.3)" fill="#d2985f"/></clipPath><clipPath id="af"><path d="M34.839,81.862A13.05,13.05,0,1,1,47.9,94.9,13.067,13.067,0,0,1,34.839,81.862m8.293-20.3c0,.867.031,1.7.069,2.531-.368-.736-.761-1.5-1.2-2.226-4.3-7.42-9.608-12.377-11.884-11.061-2.282,1.3-.661,8.393,3.648,15.819.418.742.867,1.465,1.309,2.157-.692-.455-1.4-.9-2.157-1.322-7.426-4.29-14.5-5.923-15.819-3.641s3.629,7.594,11.061,11.884c.754.43,1.5.817,2.232,1.2-.829-.056-1.677-.062-2.538-.062-8.573,0-15.519,2.132-15.519,4.764-.019,2.619,6.946,4.757,15.519,4.757.86,0,1.708-.031,2.538-.081-.748.38-1.478.779-2.232,1.222-7.432,4.284-12.371,9.6-11.061,11.872s8.393.655,15.819-3.641c.754-.43,1.465-.879,2.157-1.322-.443.7-.892,1.4-1.309,2.151-4.309,7.439-5.93,14.515-3.648,15.837s7.588-3.629,11.884-11.08c.436-.736.829-1.478,1.2-2.213-.037.836-.069,1.665-.069,2.513,0,8.6,2.132,15.532,4.77,15.544s4.757-6.94,4.757-15.544c0-.848-.037-1.708-.075-2.513.374.736.773,1.478,1.2,2.213,4.3,7.451,9.608,12.389,11.878,11.08,2.295-1.322.661-8.4-3.623-15.837-.436-.748-.879-1.453-1.334-2.157.692.449,1.409.9,2.164,1.328,7.426,4.3,14.5,5.93,15.806,3.641,1.328-2.276-3.623-7.588-11.049-11.872-.754-.443-1.49-.842-2.232-1.222.829.05,1.671.081,2.531.081,8.586,0,15.532-2.139,15.532-4.757s-6.946-4.764-15.532-4.764c-.861,0-1.7.006-2.513.062.723-.387,1.459-.773,2.214-1.2,7.426-4.29,12.377-9.608,11.049-11.884-1.3-2.282-8.38-.649-15.806,3.641-.748.424-1.459.867-2.157,1.309.455-.692.892-1.4,1.328-2.145,4.284-7.426,5.917-14.522,3.623-15.819-2.257-1.316-7.582,3.641-11.878,11.061-.43.729-.829,1.478-1.2,2.226.037-.848.075-1.665.075-2.531,0-8.567-2.132-15.526-4.757-15.526S43.132,53,43.132,61.567" transform="translate(-12.336 -46.041)" fill="#d2985f"/></clipPath><clipPath id="ag"><path d="M80.576,98.223a11.281,11.281,0,1,1,4.539.954,11.277,11.277,0,0,1-4.539-.954M79.94,65.444c-5.462-9.147-16.985-11.5-19.6-9.746-2.881,1.914-2.02,3.267-3.8,4.882-1.777,1.6-3.024.586-5.25,3.242-2.731,3.224-2,16.854,10.369,22.459-11.236,4.676-14.16,18.045-12.252,20.9,1.939,2.887,3.286,2,4.895,3.785,1.584,1.783.592,3.036,3.242,5.244,2.556,2.151,11.622,2.139,18.063-4.065.917,9.328,8.187,16.211,11.08,16.186,3.467-.062,3.479-1.659,5.842-2.051a5.016,5.016,0,0,1,2.363.224,5.984,5.984,0,0,0,3.8-.075c3.729-1.154,9.939-11.442,4.895-22.066,11.373,3.8,22.3-4.034,22.783-7.4.5-3.436-1.085-3.7-1.085-6.085s1.584-2.65,1.122-6.073c-.536-3.8-9.4-11.311-20.352-8.5,6.5-8.817,3.828-20.663,1.1-22.359a5.845,5.845,0,0,0-3.679-1.029,4.945,4.945,0,0,1-2.332-.418c-2.2-.954-1.783-2.5-5.138-3.423a4.058,4.058,0,0,0-1.079-.131c-4.464,0-13.817,5.524-14.989,16.5" transform="translate(-48.865 -48.946)" fill="#d2985f"/></clipPath><clipPath id="ah"><path d="M32.6,58.708c-5.25,2.045-7.089,9.858-4.134,17.409l.069.168.019.056.019.044.019.062.006.019.012.037.031.031.019.05.087.2.006.044.019.012.106.262.012.056.006.012.019.037.031.044.05.1.025.056.019.025.012.069.019.019.012.031.025.044.062.143.037.05.019.056.019.031.025.062.05.1.025.05.025.044.05.1.025.019.031.069.025.05.019.05.037.05.006.044.05.05.012.044.019.044.037.05.025.05.075.137.025.05.031.031.019.05.031.05.025.05.031.037.025.05.025.05h-.05l-.056-.012h-.05l-.044-.025h-.056l-.056-.012h-.218l-.044-.006h-.212l-.056-.019h-.112L29,79.153h-.443l-.106-.013h-.106l-.268-.006h-.443l-.281.006h-.212l-.175.013h-.112l-.33.025c-8.106.48-14.416,5.412-14.079,11.024.337,5.63,7.183,9.8,15.282,9.322h.069l.05-.012.218-.012h.112l.218-.037h.094l.019-.006h.168l.056-.019h.156l.056-.025L29,99.4H29.1l.05-.006.118-.012h.05l.1-.031h.062l.056-.013.056-.012h.1l.062-.013.094-.025.05-.012h.062l.056-.013h.05l.056-.012.044-.025h.056l.062-.012.094-.019h.006l.056-.013H30.5l.044-.025.044-.012h.062l.037-.012h.069l.044-.012.062-.006.056-.031h.044l.162-.019.056-.05a20.5,20.5,0,0,0-1.16,3.3c-2.051,7.856.7,15.37,6.148,16.81,5.462,1.4,11.535-3.822,13.58-11.672a21.3,21.3,0,0,0,.6-3.411l.031.019.056.044.069.075.05.044.037.013.031.05.05.037.112.093.044.037.037.044.044.019.044.044.081.056.037.031.05.05.037.037.037.025.037.037.094.075.05.025.025.037.05.025.05.044.037.019.044.044.037.019.044.044.044.025.05.05.087.062.025.013.025.013.037.044.044.019.087.056.044.05.044.025.031.025.013.006h.019l.2.156.056.037.006.012.044.012.031.037.187.131.056.019.05.025.274.193c6.834,4.377,14.852,4.1,17.882-.655s-.056-12.146-6.89-16.523l-.293-.168-.031-.031-.3-.175-.019-.012-.019-.025-.3-.15-.019-.012-.019-.025-.062-.019-.131-.087-.05-.025-.044-.025H62.8l-.031-.025-.056-.025-.05-.031-.087-.056-.056-.013-.087-.05-.05-.044-.05-.012-.044-.006-.062-.05-.031-.012-.05-.012h-.012l-.037-.044-.056-.025-.05-.025-.037-.025-.05-.012L61.85,87.7l-.037-.012-.056-.013-.044-.044-.056-.012-.031-.031-.062-.012-.143-.062-.05-.012-.05-.044-.044-.006-.044-.025-.106-.037-.05-.025-.05-.031.05-.025.087-.05.056-.025.037-.037.05-.012.044-.037.037-.031h.019l.081-.044.037-.025.05-.025.05-.031.037-.05.05-.006.044-.031.019-.019h.019l.056-.05.044-.019.037-.025.05-.037.056-.025.075-.069.062-.006.031-.05.044-.012.044-.037.044-.025.05-.044.05-.025.037-.031.137-.1.044-.031.037-.025H62.7l.037-.037.05-.019.131-.112.044-.019L63,86.043H63l.237-.168.037-.037.012-.013.031-.019.206-.162.056-.044.306-.224c6.273-5.169,8.474-12.876,4.9-17.228s-11.566-3.71-17.839,1.459l-.206.174-.05.044-.05.019v.012l-.249.218-.031.012-.012.025-.037.025-.118.118-.044.044-.044.031-.006.006-.031.025-.037.044-.05.038-.037.05-.05.019-.025.05-.044.019-.006.012-.031.037-.044.025-.037.05-.075.075-.044.044-.062.075-.056.038-.037.019L49.4,71l-.037.031-.037.037-.062.087-.05.037-.044.037-.019.044-.05.05-.037.019-.075.069v.012l-.037.037-.031.05-.044.044-.044.019-.019.044-.05.044-.031.044-.031.031-.031.044-.044.019-.031.05-.069.081-.044.05-.031.031-.012-.044-.006-.062L48.42,71.9v-.05L48.4,71.8l-.019-.081-.012-.056-.013-.056-.006-.05v-.038l-.019-.006-.012-.062-.006-.05-.037-.112-.013-.056-.006-.037v-.013l-.006-.05-.075-.249-.019-.05v-.012l-.012-.044-.081-.312h-.012l-.106-.355-.094-.318-.006-.031-.006-.012-.106-.318h-.006v-.025l-.025-.044-.1-.262-.006-.056h-.012L47.46,68.7c-2.482-6.322-7.538-10.488-12.184-10.488a7.3,7.3,0,0,0-2.675.5" transform="translate(-12.43 -58.209)" fill="#d2985f"/></clipPath><clipPath id="ai"><path d="M29.837,29.661l-.044.156-.006.044v.012l-.05.193v.025h-.006v.037l-.012.118-.006.012-.006.025V30.3l-.012.031v.012l-.006.05-.012.012V30.5l-.006.019-.012.05V30.6l-.019.081V30.7l-.012.069-.006.05v.025l-.006.031v.069l-.012.05v.031l-.012.019v.05l-.006.019v.031l-.019.062h.012l-.012.031V31.3l-.006.044v.137l-.006.037v.025l-.006.069v.062l-.037-.019-.012-.031h-.012l-.019-.012-.012-.019-.056-.031-.019-.031-.031-.012-.019-.037h-.013l-.019-.012-.019-.006-.025-.031-.044-.019-.037-.05-.006-.006-.019-.012h-.019l-.125-.1-.025-.031-.019-.013-.143-.112h-.006l-.187-.125-.156-.112-.025-.012h-.006l-.162-.118h-.006l-.012-.012-.143-.081-.025-.025-.193-.106c-4.065-2.463-8.748-2.164-10.456.655s.224,7.1,4.29,9.552l.093.044.025.019.025.025.025.012.031.013.037.012.019.025.106.062.031.012h.012l.137.081.025.006.025.025h.006l.025.019.062.019.025.031.031.012.019.012h.006l.037.012.012.025.087.025.037.012.031.025.025.006.031.012.056.025.019.019.037.012.056.031.019.019h.044L23,41.37l.031.025h.025l.031.025.037.019h.025l.019.019h.062l.087.056.031.006h.025l.031.025.025.025h.037l.025.012h.031l.025.031-.019.019-.037.006-.012.012h-.006l-.037.025-.012.006-.037.019-.019.012-.037.031-.019.025H23.3l-.019.012-.012.019-.031.012-.031.012-.037.019-.019.019-.019.012-.025.012-.025.013-.031.012L23,41.969l-.025.012-.025.025h-.006l-.013.012-.031.006-.019.012-.025.037-.062.031-.031.025-.019.012-.125.087-.019.025-.037.031-.125.094h-.012l-.012.012-.125.118-.025.012h-.006l-.012.006-.031.012-.031.031-.069.075-.025.012h-.012l-.019.012-.137.131c-3.6,3.124-4.764,7.657-2.606,10.157s6.827,1.964,10.419-1.141l.025-.012.031-.031.087-.087.025-.012.025-.019.1-.081.019-.037.019-.012v-.012l.075-.069.025-.025.019-.012.031-.019h.012l.006-.025.012-.031.037-.006.012-.031.025-.025.031-.012.044-.05.025-.012.037-.044.025-.044L30.5,51.1l.019-.025.025-.025.019-.025.019-.013.044-.056.025-.012.025-.037.019-.019.019-.025.025-.025.019-.012.019-.031.025-.025.044-.05.012-.012.031-.037.019-.006.012-.037.037-.019.006-.012h.006l.019-.031.025-.031.012-.012.031-.044.012-.012.056-.075.019-.006a13.062,13.062,0,0,0,.636,1.92c1.858,4.371,5.817,6.9,8.854,5.612s3.99-5.88,2.139-10.269a12.249,12.249,0,0,0-.941-1.8H41.9l.044.012h.1l.031.012h.443l.056.025h.38l.037-.025L43,45.9l.025-.025h.449l.137-.012h.037l.019-.012h.2c4.732-.4,8.355-3.4,8.062-6.69-.293-3.273-4.352-5.612-9.085-5.2l-.193.019-.031.012-.2.019h-.031l-.2.037h-.056l-.1.006h-.025l-.037.025h-.093l-.069.012h-.025l-.062.012-.037.013h-.05l-.044.025h-.05l-.031.012h-.062l-.044.012h-.019l-.037.006h-.025l-.031.037h-.056l-.044.012h-.019l-.094.019h-.031l-.031.031h-.056l-.062.019h-.062l.012-.019.025-.05.019-.05.006-.019.006-.012V34.1l.025-.025.025-.069.006-.031.019-.031.006-.031L41,33.9,41,33.845l.012-.012.006-.006.012-.031.012-.025v-.037l.012-.012.006-.019.012-.044L41.1,33.6l.025-.025v-.031l.006-.037.019-.031.006-.031.006-.031.012-.031.006-.006.044-.106V33.24l.006-.031h.006v-.031l.006-.037.025-.087.025-.031V33l.044-.175.012-.025.013-.025.037-.15v-.05l.062-.218c1.072-4.633-.667-8.972-3.86-9.739a4.4,4.4,0,0,0-.942-.106c-2.931,0-5.855,2.968-6.821,7.152" transform="translate(-16.816 -22.509)" fill="#d2985f"/></clipPath><clipPath id="aj"><path d="M46.106,13.69c-2.812,1.733-3.08,6.4-.592,10.463l.1.137.012.025.012.031v.006l.106.156.019.019v.012l.019.019.05.075.025.037.025.019h.006v.044l.019.012.019.031.025.025.019.019.012.037L46,24.87l.019.012v.012l.025.044.012.012.05.062.006.006.044.062.019.031.019.025.019.012.019.037.025.012.031.062.031.019v.031l.037.012.013.037.019.012.037.069.025.012.012.012.037.037.006.019.019.025.019.031.019.012.019.044.025.006.019.037.013.012.05.056.019.025.019.012h-.031l-.031.012h-.187l-.025.019-.012-.019-.019.019h-.062l-.062.012h-.1l-.156.031h-.056l-.187.037h-.013l-.212.025-.187.037h-.019l-.012.012-.193.037h-.038l-.156.025-.031.006-.224.056c-4.608,1.1-7.732,4.6-6.958,7.825.767,3.2,5.138,4.888,9.758,3.779l.093-.031h.031l.037-.012h.05l.013-.012h.056l.125-.05.025-.006.175-.056h.05l.031-.012.062-.044h.056l.031-.006h.05l.012-.012.093-.037.025-.019h.031l.025-.012.044-.012.062-.025.019-.012h.037l.056-.025h.019l.044-.025.031-.012h.025l.031-.012.031-.006.025-.031h.025l.044-.019.019-.006.025-.012.093-.025.031-.012.025-.012.031-.012h.025l.031-.025.031-.012.025-.019.025-.012-.006.031-.012.037v.025l-.006.037v.019l-.012.05-.013.019v.037l-.013.025-.006.037-.006.025v.019l-.019.037v.075l-.019.006v.05l-.013.019v.037L49.3,37.7v.031l-.019.037V37.8l-.012.019v.075l-.012.069-.012.019h.012l-.012.044-.025.15-.006.012-.013.056V38.4l-.019.019v.012l-.019.168v.019l-.006.012v.05l-.012.031-.006.1v.069l-.019.193c-.374,4.726,2,8.785,5.269,9.041S60.64,44.741,61.008,40l.013-.044v-.025l.006-.125.006-.025v-.037l.006-.131v-.062h-.006l.006-.106v-.019l.006-.05v-.723l-.006-.025V38.55l.006-.019-.006-.037v-.062h-.006v-.156l-.006-.019v-.069l-.006-.037.006-.037L61.02,38.1l-.013-.106v-.019a15.729,15.729,0,0,0,1.8.935c4.4,1.789,8.979.8,10.244-2.238,1.241-3.055-1.291-6.983-5.68-8.8a10.313,10.313,0,0,0-1.939-.623l.031-.025.012-.031.05-.025.025-.031h.031l.031-.031.019-.012.062-.062.025-.025.025-.025.025-.013.025-.037.037-.025.019-.037.025-.012.031-.031.019-.019.031-.012.05-.05.019-.012.012-.012.019-.044.037-.025.019-.006.019-.031.025-.025.006-.006.031-.025.031-.031.037-.037.025-.025h.006l.013-.037.019-.025.05-.037.025-.031.031-.012.006-.019v-.012h.013l.112-.118.025-.012v-.012l.006-.006.037-.031.081-.1.012-.037.019-.012.137-.143c3.086-3.623,3.554-8.293,1.048-10.413-2.513-2.151-7.04-.935-10.12,2.675l-.131.143-.006.019-.143.168h-.006l-.012.012-.118.15V18.6h-.012l-.031.037-.05.069-.025.025-.006.019h-.006l-.012.044-.025.025-.019.019-.031.044-.031.037-.031.069L57.092,19l-.025.025-.019.025-.019.025-.006.031L57,19.121l-.012.025-.025.037-.019.012-.019.037-.006.006-.025.056-.025.012-.012.031-.012.019-.013.025-.025.012-.019.037-.056.081-.012.037-.006.025-.019.006-.019.025-.031.069-.013.025-.019.012L56.6,19.7l-.025-.062-.006-.031-.019-.031v-.012l-.025-.044-.019-.019-.013-.069-.006-.012-.025-.037-.013-.025-.019-.037-.006-.025-.006-.037h-.012v-.019l-.019-.031-.012-.025-.019-.037v-.019l-.025-.025-.019-.056-.012-.037L56.282,19l-.012-.056-.019-.012-.006-.037-.025-.025-.025-.012v-.037l-.037-.087-.012-.037-.031-.012v-.012l-.013-.031-.006-.025-.056-.1V18.5l-.019-.012v-.019l-.081-.131-.012-.05H55.92l-.012-.019-.081-.15-.019-.019v-.012L55.7,17.9c-1.864-3.037-4.732-4.851-7.239-4.851a4.466,4.466,0,0,0-2.351.636" transform="translate(-37.633 -13.054)" fill="#d2985f"/></clipPath><clipPath id="ak"><path d="M66.484,21.749c-.025.112-.044.231-.062.343-.062-.1-.125-.187-.193-.287-4.408-6.622-9.721-10.818-11.847-9.4s-.287,7.931,4.134,14.553c.069.094.137.187.193.274a2.175,2.175,0,0,1-.337-.075c-7.8-1.54-14.522-.761-15.021,1.74-.493,2.525,5.412,5.811,13.212,7.37.112.012.224.037.337.05-.087.062-.193.125-.281.187-6.622,4.427-10.831,9.739-9.4,11.866s7.937.281,14.553-4.146c.081-.05.175-.131.274-.193-.019.112-.05.224-.069.33-1.553,7.8-.767,14.54,1.74,15.045,2.507.486,5.805-5.437,7.351-13.225.025-.112.056-.231.075-.324.056.081.118.175.187.268,4.415,6.6,9.714,10.812,11.847,9.4s.274-7.931-4.14-14.559c-.056-.087-.131-.187-.2-.281.118.031.224.056.337.081,7.8,1.54,14.534.773,15.027-1.752s-5.418-5.8-13.212-7.345a1.754,1.754,0,0,0-.337-.062c.094-.056.193-.125.293-.187,6.615-4.439,10.812-9.727,9.39-11.866-1.422-2.12-7.931-.281-14.553,4.146l-.274.193c.019-.112.044-.212.075-.33,1.552-7.8.754-14.54-1.746-15.045a1.626,1.626,0,0,0-.3-.031c-2.463,0-5.568,5.761-7.058,13.256" transform="translate(-43.322 -8.493)" fill="#d2985f"/></clipPath><clipPath id="al"><path d="M62.508,12.854c-2.226,3.105-7.588,8.5-2.475,16.274s15.332,11.61,15.332,11.61c.7.842,1.908.979,2-.948.094-1.952,8.218-11.866,3.816-20.551-4.427-8.667-12.514-9.016-14.572-9.665a3.565,3.565,0,0,0-1.041-.212c-1.035,0-1.278,1.035-3.062,3.492" transform="translate(-57.892 -9.362)" fill="#d2985f"/></clipPath><clipPath id="am"><path d="M65.186,16.636C65.1,18.6,56.98,28.5,61.394,37.169c4.414,8.7,12.5,9.022,14.559,9.677s1.852-.15,4.1-3.261,7.594-8.511,2.469-16.293c-5.125-7.757-15.326-11.579-15.326-11.579a1.44,1.44,0,0,0-1.048-.617c-.48,0-.9.43-.96,1.54" transform="translate(-60.081 -15.096)" fill="#d2985f"/></clipPath><clipPath id="an"><path d="M73.459,13.87C65.7,19,61.874,29.208,61.874,29.208c-.879.7-1.01,1.9.941,2s11.847,8.218,20.52,3.8c8.692-4.4,9.028-12.5,9.677-14.559.673-2.07-.156-1.858-3.255-4.1-2.164-1.559-5.437-4.627-9.852-4.627a11.629,11.629,0,0,0-6.447,2.145" transform="translate(-61.261 -11.725)" fill="#d2985f"/></clipPath><clipPath id="ao"><path d="M65.426,15.218C56.74,19.645,56.4,27.726,55.743,29.79S55.9,31.629,59,33.868c3.136,2.245,8.517,7.607,16.293,2.475,7.775-5.107,11.6-15.326,11.6-15.326.873-.7,1-1.877-.935-2-1.54-.056-8.006-5.107-14.921-5.107a12.234,12.234,0,0,0-5.612,1.3" transform="translate(-55.527 -13.915)" fill="#d2985f"/></clipPath><clipPath id="ap"><path d="M61.816,15.024a4.234,4.234,0,1,0,2.656-.935,4.233,4.233,0,0,0-2.656.935" transform="translate(-60.233 -14.089)" fill="#d2985f"/></clipPath><clipPath id="aq"><path d="M28.494,65.764c-2.332,5.013-8.449,14.129.9,23.731,9.365,9.646,24.86,12.29,24.86,12.29,1.222,1.048,2.974.9,2.594-1.871-.4-2.793,8.424-19.036-.168-30.134C48.047,58.7,36.506,60.377,33.4,60a8.437,8.437,0,0,0-.9-.056c-2.126,0-1.933,1.372-4,5.824" transform="translate(-24.367 -59.94)" fill="#d2985f"/></clipPath><clipPath id="ar"><path d="M32.736,70.01c.4,2.793-8.424,19.061.187,30.135,8.6,11.123,20.158,9.384,23.251,9.764.3.037.567.056.8.062h.249c1.97-.05,1.839-1.434,3.866-5.805,2.307-5.019,8.461-14.11-.91-23.743-9.371-9.615-24.866-12.283-24.866-12.283a2.267,2.267,0,0,0-1.4-.592c-.8,0-1.422.692-1.185,2.463" transform="translate(-29.136 -67.547)" fill="#d2985f"/></clipPath><clipPath id="as"><path d="M42.9,66.893c-9.6,9.384-12.252,24.9-12.252,24.9-1.054,1.21-.917,2.956,1.877,2.563.954-.131,3.535.829,6.946,1.8,6.453,1.833,15.906,3.66,23.151-1.983,11.136-8.586,9.415-20.146,9.783-23.257s-.723-2.581-5.743-4.92c-2.987-1.384-7.432-4.128-12.583-4.128-3.485,0-7.289,1.253-11.18,5.026" transform="translate(-30.045 -61.867)" fill="#d2985f"/></clipPath><clipPath id="at"><path d="M32.274,70.424c-11.111,8.592-9.4,20.146-9.77,23.245-.368,3.118.723,2.6,5.736,4.9,5.044,2.351,14.135,8.48,23.762-.892s12.271-24.86,12.271-24.86c1.041-1.222.917-2.968-1.864-2.587-.973.143-3.554-.823-6.977-1.783a41.554,41.554,0,0,0-11.155-1.808,19.057,19.057,0,0,0-12,3.785" transform="translate(-22.439 -66.639)" fill="#d2985f"/></clipPath><clipPath id="au"><path d="M30.061,68.309a6.064,6.064,0,1,0,4.645-2.164,6.116,6.116,0,0,0-4.645,2.164" transform="translate(-28.592 -66.145)" fill="#d2985f"/></clipPath></defs><g transform="translate(-183 -872.982)" clip-path="url(#a)"><g transform="translate(-67.564 622.452)" opacity="0.069"><g transform="translate(0 0)"><g transform="translate(88.105 31.317)"><g clip-path="url(#b)"><rect width="126.288" height="109.993" transform="translate(-53.045 89.257) rotate(-66.911)" fill="#d2985f"/></g></g><g transform="translate(448.94 207.388)"><g clip-path="url(#c)"><rect width="45.487" height="57.764" transform="matrix(0.392, -0.92, 0.92, 0.392, -10.651, 23.445)" fill="#d2985f"/></g></g><g transform="translate(349.753 127.116)"><g clip-path="url(#d)"><rect width="61.575" height="54.349" transform="matrix(0.392, -0.92, 0.92, 0.392, -28.468, 43.174)" fill="#d2985f"/></g></g><g transform="translate(308.367 423.275)"><g clip-path="url(#e)"><rect width="61.526" height="60.697" transform="translate(-17.962 40.077) rotate(-66.911)" fill="#d2985f"/></g></g><g transform="translate(274.341 1.819)"><g clip-path="url(#f)"><rect width="71.013" height="64.643" transform="matrix(0.392, -0.92, 0.92, 0.392, -32.581, 48.851)" fill="#d2985f"/></g></g><g transform="translate(31.22 329.323)"><g clip-path="url(#g)"><rect width="60.265" height="61.361" transform="translate(-16.937 38.341) rotate(-66.911)" fill="#d2985f"/></g></g><g transform="translate(11.249 269.856)"><g clip-path="url(#h)"><rect width="90.599" height="96.989" transform="translate(-24.267 55.368) rotate(-66.911)" fill="#d2985f"/></g></g><g transform="translate(324.31 17.068)"><g clip-path="url(#i)"><rect width="61.144" height="68.311" transform="matrix(0.392, -0.92, 0.92, 0.392, -16.014, 35.999)" fill="#d2985f"/></g></g><g transform="translate(166.599 360.044)"><g clip-path="url(#j)"><rect width="62.099" height="70.914" transform="matrix(0.392, -0.92, 0.92, 0.392, -15.459, 35.132)" fill="#d2985f"/></g></g><g transform="translate(364.474 270.647)"><g clip-path="url(#k)"><rect width="60.569" height="52.385" transform="translate(-19.946 42.984) rotate(-66.911)" fill="#d2985f"/></g></g><g transform="translate(1.222 179.529)"><g clip-path="url(#l)"><rect width="102.103" height="128.861" transform="translate(-24.357 53.025) rotate(-66.911)" fill="#d2985f"/></g></g><g transform="translate(257.704 444.093)"><g clip-path="url(#m)"><rect width="78.994" height="86.105" transform="matrix(0.392, -0.92, 0.92, 0.392, -23.054, 47.538)" fill="#d2985f"/></g></g><g transform="translate(400.971 238.233)"><g clip-path="url(#n)"><rect width="110.197" height="124.113" transform="matrix(0.392, -0.92, 0.92, 0.392, -29.401, 64.401)" fill="#d2985f"/></g></g><g transform="translate(307.033 122.824)"><g clip-path="url(#o)"><rect width="35.445" height="40.318" transform="matrix(0.392, -0.92, 0.92, 0.392, -8.869, 20.523)" fill="#d2985f"/></g></g><g transform="translate(102.715 249.288)"><g clip-path="url(#p)"><rect width="50.831" height="39.2" transform="matrix(0.392, -0.92, 0.92, 0.392, -17.245, 38.357)" fill="#d2985f"/></g></g><g transform="translate(233.178 377.584)"><g clip-path="url(#q)"><rect width="42.352" height="48.726" transform="translate(-10.536 24.259) rotate(-66.911)" fill="#d2985f"/></g></g><g transform="translate(281.452 373.862)"><g clip-path="url(#r)"><rect width="59.286" height="56.302" transform="translate(-20.852 39.666) rotate(-66.911)" fill="#d2985f"/></g></g><g transform="translate(395.527 395.958)"><g clip-path="url(#s)"><rect width="65.909" height="68.193" transform="translate(-18.293 41.412) rotate(-66.911)" fill="#d2985f"/></g></g><g transform="translate(432.635 350.739)"><g clip-path="url(#t)"><rect width="47.044" height="46.587" transform="translate(-15.469 30.559) rotate(-66.911)" fill="#d2985f"/></g></g><g transform="translate(430.386 303.061)"><g clip-path="url(#u)"><rect width="60.438" height="72.346" transform="translate(-14.446 33.271) rotate(-66.911)" fill="#d2985f"/></g></g><g transform="translate(38.136 107.937)"><g clip-path="url(#v)"><rect width="69.55" height="69.06" transform="matrix(0.392, -0.92, 0.92, 0.392, -23.148, 45.09)" fill="#d2985f"/></g></g><g transform="translate(147.073 11.11)"><g clip-path="url(#w)"><rect width="49.293" height="48.911" transform="translate(-16.87 31.973) rotate(-66.911)" fill="#d2985f"/></g></g><g transform="translate(14.138 155.961)"><g clip-path="url(#x)"><rect width="24.821" height="24.821" transform="matrix(0.392, -0.92, 0.92, 0.392, -6.825, 16.007)" fill="#d2985f"/></g></g><g transform="translate(368.223 448.218)"><g clip-path="url(#y)"><rect width="24.818" height="24.815" transform="translate(-6.825 16.007) rotate(-66.911)" fill="#d2985f"/></g></g><g transform="translate(50.607 390.097)"><g clip-path="url(#z)"><rect width="24.819" height="24.815" transform="translate(-6.825 16.007) rotate(-66.911)" fill="#d2985f"/></g></g><g transform="translate(407.193 326.588)"><g clip-path="url(#aa)"><rect width="19.662" height="19.655" transform="translate(-5.407 12.683) rotate(-66.911)" fill="#d2985f"/></g></g><g transform="translate(0 243.871)"><g clip-path="url(#ab)"><rect width="28.312" height="28.308" transform="matrix(0.392, -0.92, 0.92, 0.392, -7.785, 18.26)" fill="#d2985f"/></g></g><g transform="translate(350.197 78.661)"><g clip-path="url(#ac)"><rect width="28.314" height="28.314" transform="matrix(0.392, -0.92, 0.92, 0.392, -7.785, 18.26)" fill="#d2985f"/></g></g><g transform="translate(162.544)"><g clip-path="url(#ad)"><rect width="166.127" height="157.315" transform="translate(-58.403 111.364) rotate(-66.911)" fill="#d2985f"/></g></g><g transform="translate(379.973 125.908)"><g clip-path="url(#ae)"><rect width="136.446" height="130.628" transform="translate(-43.328 90.787) rotate(-66.911)" fill="#d2985f"/></g></g><g transform="translate(83.438 314.088)"><g clip-path="url(#af)"><rect width="93.333" height="93.339" transform="translate(-25.679 60.19) rotate(-66.911)" fill="#d2985f"/></g></g><g transform="translate(331.004 334.531)"><g clip-path="url(#ag)"><rect width="104.178" height="104.158" transform="translate(-30.015 67.197) rotate(-66.911)" fill="#d2985f"/></g></g><g transform="translate(83.911 399.874)"><g clip-path="url(#ah)"><rect width="81.614" height="81.407" transform="matrix(0.392, -0.92, 0.92, 0.392, -22.806, 52.735)" fill="#d2985f"/></g></g><g transform="translate(113.02 152.461)"><g clip-path="url(#ai)"><rect width="48.058" height="47.953" transform="translate(-14.318 31.044) rotate(-66.911)" fill="#d2985f"/></g></g><g transform="translate(252.954 88.41)"><g clip-path="url(#aj)"><rect width="47.119" height="48.172" transform="translate(-13.396 29.883) rotate(-66.911)" fill="#d2985f"/></g></g><g transform="translate(291.979 52.955)"><g clip-path="url(#ak)"><rect width="67.62" height="67.857" transform="matrix(0.392, -0.92, 0.92, 0.392, -19.007, 43.496)" fill="#d2985f"/></g></g><g transform="translate(388.444 58.371)"><g clip-path="url(#al)"><rect width="41.788" height="40.896" transform="matrix(0.392, -0.92, 0.92, 0.392, -14.644, 27.377)" fill="#d2985f"/></g></g><g transform="translate(408.248 102.187)"><g clip-path="url(#am)"><rect width="41.828" height="40.914" transform="matrix(0.392, -0.92, 0.92, 0.392, -14.789, 27.414)" fill="#d2985f"/></g></g><g transform="translate(415.609 79.258)"><g clip-path="url(#an)"><rect width="38.355" height="41.057" transform="matrix(0.392, -0.92, 0.92, 0.392, -10.391, 23.441)" fill="#d2985f"/></g></g><g transform="translate(373.001 94.063)"><g clip-path="url(#ao)"><rect width="38.223" height="41.001" transform="matrix(0.392, -0.92, 0.92, 0.392, -10.394, 23.32)" fill="#d2985f"/></g></g><g transform="translate(409.193 94.979)"><g clip-path="url(#ap)"><rect width="12.024" height="12.307" transform="matrix(0.392, -0.92, 0.92, 0.392, -3.779, 7.618)" fill="#d2985f"/></g></g><g transform="translate(163.794 410.679)"><g clip-path="url(#aq)"><rect width="58.335" height="58.914" transform="translate(-20.243 36.103) rotate(-66.911)" fill="#d2985f"/></g></g><g transform="translate(195.847 458.106)"><g clip-path="url(#ar)"><rect width="57.961" height="58.764" transform="matrix(0.392, -0.92, 0.92, 0.392, -20.596, 36.996)" fill="#d2985f"/></g></g><g transform="translate(202.208 422.692)"><g clip-path="url(#as)"><rect width="52.227" height="55.508" transform="matrix(0.392, -0.92, 0.92, 0.392, -14.137, 32.11)" fill="#d2985f"/></g></g><g transform="translate(150.989 452.44)"><g clip-path="url(#at)"><rect width="54.488" height="56.462" transform="matrix(0.392, -0.92, 0.92, 0.392, -15.853, 34.194)" fill="#d2985f"/></g></g><g transform="translate(191.458 449.357)"><g clip-path="url(#au)"><rect width="17.3" height="17.682" transform="translate(-5.405 10.973) rotate(-66.911)" fill="#d2985f"/></g></g></g></g></g></svg>