<svg width="45" height="45" viewBox="0 0 45 45" fill="none" xmlns="http://www.w3.org/2000/svg">
<g clip-path="url(#clip0_5476_7389)">
<path fill-rule="evenodd" clip-rule="evenodd" d="M0.638672 22.6504C0.638672 10.6376 10.3772 0.900391 22.3887 0.900391C34.4015 0.900391 44.1387 10.6376 44.1387 22.6504C44.1387 34.6618 34.4015 44.4004 22.3887 44.4004C10.3772 44.4004 0.638672 34.6618 0.638672 22.6504ZM17.8475 11.7758L26.6261 11.7743C28.9344 11.7743 29.7714 12.0146 30.6153 12.466C31.4594 12.9173 32.1216 13.5796 32.573 14.4235L32.6907 14.6546C33.066 15.4318 33.2646 16.3144 33.2646 18.4129V26.8856L33.2586 27.4798C33.2192 29.3462 32.9832 30.1078 32.573 30.875C32.1216 31.7189 31.4594 32.3812 30.6153 32.8325L30.3843 32.9504C29.6072 33.3256 28.7246 33.5243 26.6261 33.5243H18.1533L17.559 33.5183C15.6926 33.4789 14.931 33.2429 14.1639 32.8325C13.3199 32.3812 12.6576 31.7189 12.2063 30.875L12.0885 30.6439C11.732 29.9056 11.5349 29.0722 11.5161 27.1915L11.5146 18.4129C11.5146 16.1045 11.755 15.2674 12.2063 14.4235C12.6576 13.5796 13.3199 12.9173 14.1639 12.466L14.395 12.3481C15.1332 11.9917 15.9668 11.7946 17.8475 11.7758ZM18.152 13.8459L17.6243 13.8499C16.233 13.8728 15.6924 13.9971 15.1395 14.2928C14.6566 14.5511 14.2899 14.9177 14.0317 15.4006C13.7186 15.986 13.5976 16.5578 13.5858 18.1399L13.5848 26.8859C13.5848 28.6778 13.7012 29.2804 14.0317 29.8984C14.2899 30.3814 14.6566 30.748 15.1395 31.0063C15.6924 31.3019 16.233 31.4261 17.6243 31.4491L18.152 31.4531H26.6247C28.4166 31.4531 29.0193 31.3367 29.6373 31.0063C30.1202 30.748 30.4868 30.3814 30.7451 29.8984C31.0407 29.3455 31.1651 28.8049 31.188 27.4136L31.1919 26.8859V18.4132C31.1919 16.6213 31.0755 16.0186 30.7451 15.4006C30.4868 14.9177 30.1202 14.5511 29.6373 14.2928C29.0519 13.9797 28.4801 13.8588 26.898 13.8469L18.152 13.8459ZM22.3884 16.9522C25.5344 16.9522 28.0848 19.5025 28.0848 22.6486C28.0848 25.7947 25.5344 28.345 22.3884 28.345C19.2423 28.345 16.6919 25.7947 16.6919 22.6486C16.6919 19.5025 19.2423 16.9522 22.3884 16.9522ZM22.3871 19.0231C20.385 19.0231 18.7622 20.6461 18.7622 22.6481C18.7622 24.65 20.385 26.273 22.3871 26.273C24.3891 26.273 26.0121 24.65 26.0121 22.6481C26.0121 20.6461 24.3891 19.0231 22.3871 19.0231ZM29.1161 16.9525C29.1161 17.5244 28.6524 17.9882 28.0803 17.9882C27.5084 17.9882 27.0447 17.5244 27.0447 16.9525C27.0447 16.3804 27.5084 15.9167 28.0803 15.9167C28.6524 15.9167 29.1161 16.3804 29.1161 16.9525Z" fill="#432815"/>
</g>
<defs>
<clipPath id="clip0_5476_7389">
<rect width="45" height="45" fill="white"/>
</clipPath>
</defs>
</svg>
