<svg width="45" height="45" viewBox="0 0 45 45" fill="none" xmlns="http://www.w3.org/2000/svg">
<path fill-rule="evenodd" clip-rule="evenodd" d="M1.23633 22.6504C1.23633 10.6376 10.9749 0.900391 22.9863 0.900391C34.999 0.900391 44.7363 10.6376 44.7363 22.6504C44.7363 34.6618 34.999 44.4004 22.9863 44.4004C10.9749 44.4004 1.23633 34.6618 1.23633 22.6504ZM22.891 10.9394C30.2197 10.9394 36.1818 15.778 36.1818 21.7249C36.1818 24.1052 35.2591 26.2486 33.3333 28.361C30.5446 31.5706 24.3099 35.4794 22.891 36.0772C21.5115 36.6587 21.6717 35.7487 21.735 35.3896C21.7368 35.3795 21.7384 35.3699 21.7401 35.3608C21.7738 35.1607 21.9295 34.2229 21.9295 34.2229C21.9742 33.8837 22.0207 33.3574 21.8866 33.0212C21.7378 32.651 21.1486 32.4595 20.7157 32.366C14.3289 31.5218 9.60079 27.0566 9.60079 21.7249C9.60079 15.778 15.5634 10.9394 22.891 10.9394Z" fill="#432815"/>
<path fill-rule="evenodd" clip-rule="evenodd" d="M19.9243 18.8511H18.9043C18.7481 18.8511 18.6211 18.9669 18.6211 19.1097V24.9006C18.6211 25.0432 18.7481 25.1589 18.9043 25.1589H19.9243C20.0806 25.1589 20.2075 25.0432 20.2075 24.9006V19.1097C20.2075 18.9669 20.0806 18.8511 19.9243 18.8511Z" fill="#432815"/>
<path fill-rule="evenodd" clip-rule="evenodd" d="M26.9444 18.8511H25.9248C25.7681 18.8511 25.6416 18.9669 25.6416 19.1097V22.5501L22.7381 18.966C22.7313 18.957 22.7237 18.9481 22.716 18.9399L22.7144 18.9381C22.7088 18.9325 22.7028 18.9271 22.6971 18.9222L22.6922 18.9177C22.6871 18.9141 22.6821 18.9097 22.6769 18.9064C22.6745 18.9043 22.6721 18.9028 22.6695 18.9009C22.6649 18.8979 22.6598 18.8949 22.6548 18.8919C22.6521 18.8899 22.6491 18.8887 22.6461 18.8872C22.6412 18.8845 22.6362 18.8818 22.6313 18.8793C22.6283 18.8781 22.6253 18.8766 22.6223 18.8754C22.6169 18.8733 22.6116 18.8709 22.6059 18.8694C22.6026 18.868 22.5999 18.8671 22.5966 18.8662C22.5912 18.8641 22.5857 18.8626 22.58 18.8611C22.5767 18.8602 22.5737 18.8596 22.5699 18.8587C22.5647 18.8574 22.5593 18.8565 22.5537 18.8556C22.5497 18.855 22.5456 18.8544 22.5417 18.8541C22.5371 18.8532 22.532 18.8529 22.527 18.8523C22.5221 18.852 22.5174 18.8517 22.5125 18.8514C22.5087 18.8514 22.5057 18.8511 22.5024 18.8511H21.4824C21.3264 18.8511 21.1992 18.9669 21.1992 19.1097V24.9006C21.1992 25.0432 21.3264 25.1589 21.4824 25.1589H22.5024C22.6589 25.1589 22.7856 25.0432 22.7856 24.9006V21.4614L25.6925 25.0497C25.7127 25.0755 25.7375 25.0968 25.7643 25.1136L25.7673 25.1157C25.773 25.119 25.779 25.1224 25.785 25.1254C25.785 25.1254 25.79 25.1278 25.793 25.1293C25.7973 25.1314 25.8017 25.1337 25.8063 25.1355C25.811 25.1373 25.8153 25.1388 25.8203 25.1406C25.8233 25.1415 25.8287 25.1436 25.8287 25.1436C25.8353 25.1458 25.8416 25.1476 25.8479 25.1494L25.8522 25.15C25.8749 25.1559 25.8992 25.1589 25.9248 25.1589H26.9444C27.1008 25.1589 27.2276 25.0432 27.2276 24.9006V19.1097C27.2276 18.9669 27.1008 18.8511 26.9444 18.8511Z" fill="#432815"/>
<path fill-rule="evenodd" clip-rule="evenodd" d="M17.465 23.7088H14.6938V19.1097C14.6938 18.9666 14.567 18.8511 14.4106 18.8511H13.3906C13.2345 18.8511 13.1074 18.9666 13.1074 19.1097V24.9C13.1074 24.9693 13.138 25.0329 13.187 25.0792C13.188 25.0804 13.189 25.0819 13.1906 25.0834C13.1919 25.0843 13.1936 25.0852 13.1946 25.0867C13.2459 25.1314 13.3144 25.1592 13.3903 25.1592H17.465C17.6214 25.1592 17.7479 25.0429 17.7479 24.9V23.9679C17.7479 23.8249 17.6214 23.7088 17.465 23.7088Z" fill="#432815"/>
<path fill-rule="evenodd" clip-rule="evenodd" d="M32.5763 20.3011C32.7327 20.3011 32.8591 20.1853 32.8591 20.0422V19.11C32.8591 18.9669 32.7327 18.8511 32.5763 18.8511H28.5022C28.4257 18.8511 28.3561 18.879 28.3053 18.9241C28.3042 18.9253 28.3029 18.9259 28.302 18.9268C28.3004 18.9283 28.2986 18.9298 28.2977 18.9313C28.2491 18.9775 28.2188 19.0402 28.2188 19.1097V24.9C28.2188 24.9693 28.249 25.0329 28.2982 25.0792C28.299 25.0807 28.3007 25.0822 28.302 25.0834C28.3029 25.0843 28.3046 25.0858 28.3062 25.0864C28.3569 25.1311 28.4255 25.1592 28.5017 25.1592H32.5763C32.7327 25.1592 32.8591 25.0429 32.8591 24.9V23.9679C32.8591 23.8249 32.7327 23.7088 32.5763 23.7088H29.8055V22.7299H32.5763C32.7327 22.7299 32.8591 22.6143 32.8591 22.471V21.5389C32.8591 21.396 32.7327 21.2797 32.5763 21.2797H29.8055V20.3011H32.5763Z" fill="#432815"/>
</svg>
