<svg width="45" height="45" viewBox="0 0 45 45" fill="none" xmlns="http://www.w3.org/2000/svg">
<path fill-rule="evenodd" clip-rule="evenodd" d="M21.7851 0.900391C9.77372 0.900391 0.0351562 10.6376 0.0351562 22.6504C0.0351562 34.6618 9.77372 44.4004 21.7851 44.4004C33.798 44.4004 43.5351 34.6618 43.5351 22.6504C43.5351 10.6376 33.798 0.900391 21.7851 0.900391Z" fill="#432815"/>
<path fill-rule="evenodd" clip-rule="evenodd" d="M33.8674 17.7204C33.8674 17.7204 33.6262 16.0213 32.8873 15.2733C31.9495 14.2908 30.8985 14.2862 30.417 14.2291C26.9665 13.9795 21.7909 13.9795 21.7909 13.9795H21.7801C21.7801 13.9795 16.6044 13.9795 13.154 14.2291C12.6717 14.2862 11.6214 14.2908 10.6829 15.2733C9.94401 16.0213 9.7036 17.7204 9.7036 17.7204C9.7036 17.7204 9.45703 19.7161 9.45703 21.711V23.5818C9.45703 25.5775 9.7036 27.5724 9.7036 27.5724C9.7036 27.5724 9.94401 29.2714 10.6829 30.0196C11.6214 31.002 12.8535 30.9712 13.4021 31.0737C15.3747 31.2633 21.7855 31.3218 21.7855 31.3218C21.7855 31.3218 26.9665 31.3141 30.417 31.0645C30.8985 31.0066 31.9495 31.002 32.8873 30.0196C33.6262 29.2714 33.8674 27.5724 33.8674 27.5724C33.8674 27.5724 34.114 25.5775 34.114 23.5818V21.711C34.114 19.7161 33.8674 17.7204 33.8674 17.7204Z" fill="#F2F3F0"/>
<path fill-rule="evenodd" clip-rule="evenodd" d="M18.9031 26.4204L18.9023 18.5879L26.4343 22.5177L18.9031 26.4204Z" fill="#432815"/>
</svg>
