<svg width="55" height="55" viewBox="0 0 55 55" fill="none" xmlns="http://www.w3.org/2000/svg">
<g clip-path="url(#clip0_2003_5896)">
<path d="M12.8385 3.87717C9.0049 7.50192 7.8225 13.9747 13.426 15.9942C13.8961 16.1717 14.3073 16.2309 13.8961 15.6983C13.4848 15.1657 11.6561 13.4421 12.0086 10.2908C12.0674 9.63978 12.1849 9.76554 12.2436 10.239C12.3024 10.7124 12.7945 13.8563 14.961 15.2175C15.431 15.5134 15.7248 15.4542 15.7908 14.6848C15.8496 13.9155 16.6134 12.1919 15.4383 9.63978C14.2559 7.08766 13.3159 5.60078 13.4334 4.23225C13.4921 3.81799 13.0809 3.5221 12.8459 3.87717H12.8385Z" fill="#C62C2B"/>
<path d="M54.6897 24.7447C53.2649 22.6587 50.3273 21.6526 49.0054 24.1899C48.8879 24.4045 48.8364 24.5968 49.1082 24.434C49.3873 24.2713 50.3126 23.5168 51.7521 23.9014C52.0532 23.9754 51.9871 24.0198 51.7521 24.0124C51.5244 24.0124 50.0335 24.0272 49.2477 24.9667C49.0788 25.1664 49.0861 25.3143 49.4387 25.3957C49.7912 25.4771 50.5476 25.9653 51.8108 25.5733C53.0813 25.1886 53.8378 24.8335 54.462 24.9889C54.653 25.048 54.8219 24.8705 54.6677 24.7299L54.6897 24.7447Z" fill="#C62C2B"/>
<path d="M41.1069 13.8857C38.7201 14.9288 37.0897 17.7546 39.3737 19.6409C39.5646 19.8037 39.7482 19.8998 39.6454 19.5818C39.5426 19.2637 38.9771 18.1467 39.6601 16.7411C39.7923 16.4452 39.829 16.5266 39.7776 16.7559C39.7262 16.9853 39.4398 18.5387 40.2183 19.5374C40.3872 19.7593 40.5341 19.7815 40.6883 19.4264C40.8425 19.0787 41.4888 18.3982 41.3639 17.0074C41.2391 15.6167 41.0408 14.766 41.3272 14.1446C41.4227 13.9597 41.2832 13.7526 41.1142 13.8783L41.1069 13.8857Z" fill="#C62C2B"/>
<path d="M38.4023 51.2191C39.0119 48.4007 37.5504 45.131 34.4218 45.9669C34.1574 46.0335 33.9518 46.137 34.2969 46.248C34.6495 46.359 35.9934 46.5661 36.8013 48.09C36.9775 48.4007 36.8821 48.3785 36.7131 48.1787C36.5442 47.9864 35.3545 46.7288 33.9665 46.7954C33.6653 46.8102 33.5478 46.9286 33.7608 47.291C33.9738 47.6535 34.1574 48.667 35.472 49.4437C36.7866 50.2204 37.6679 50.5903 38.0277 51.2413C38.1306 51.4484 38.4023 51.4558 38.4023 51.2191Z" fill="#C62C2B"/>
<path d="M33.6511 0.252479C30.7723 1.21415 28.5984 4.29888 31.044 6.72524C31.2496 6.93237 31.4479 7.06553 31.3598 6.68826C31.2717 6.31099 30.7355 4.96465 31.6756 3.40379C31.8665 3.0783 31.8959 3.17447 31.8078 3.43338C31.727 3.69229 31.2276 5.45288 32.0281 6.69565C32.2044 6.96936 32.3733 7.00635 32.5863 6.62168C32.7992 6.23701 33.6144 5.51946 33.6144 3.89942C33.6144 2.27938 33.4749 1.27333 33.8641 0.585364C33.9963 0.378236 33.8494 0.126723 33.6438 0.252479H33.6511Z" fill="#C62C2B"/>
<path d="M3.87927 41.2195C6.56722 41.1381 9.18906 39.0594 7.72024 36.3741C7.59539 36.1448 7.4632 35.9821 7.44117 36.3298C7.41913 36.6774 7.54398 37.9572 6.34689 39.0446C6.10454 39.2739 6.10454 39.1852 6.24408 38.9854C6.38361 38.7857 7.24287 37.4098 6.87567 36.1522C6.79488 35.8785 6.66269 35.8045 6.38361 36.0782C6.10454 36.352 5.23059 36.7514 4.82666 38.1347C4.42274 39.5107 4.2832 40.4058 3.77646 40.8866C3.61489 41.0271 3.67364 41.286 3.87927 41.2269V41.2195Z" fill="#C62C2B"/>
<path d="M1.33821 36.6098C1.43369 32.0456 4.87073 27.5406 9.3947 29.9891C9.77659 30.1963 10.0557 30.4256 9.47548 30.4626C8.8953 30.5069 6.74348 30.322 4.94417 32.3637C4.56228 32.778 4.70916 32.778 5.04699 32.5412C5.38482 32.3045 7.66883 30.8102 9.78393 31.4168C10.2466 31.55 10.3788 31.7719 9.92347 32.2601C9.46814 32.7484 8.81451 34.2353 6.50846 34.9454C4.20241 35.6556 2.71156 35.9071 1.91105 36.7726C1.68339 37.0463 1.25009 36.9575 1.34556 36.595L1.33821 36.6098Z" fill="#C62C2B"/>
<path d="M35.4941 2.35903C38.3656 1.36777 41.9642 2.55136 41.4942 6.02077C41.4575 6.31666 41.3767 6.54598 41.2151 6.18351C41.0535 5.82103 40.6716 4.39333 38.9752 3.70537C38.63 3.55002 38.6594 3.64619 38.887 3.80893C39.1147 3.97167 40.5762 5.09609 40.6863 6.59777C40.7084 6.92325 40.5982 7.06381 40.1943 6.87887C39.7904 6.69393 38.7034 6.61256 37.7267 5.29582C36.7425 3.97167 36.2432 3.07658 35.5161 2.75849C35.2884 2.66972 35.2517 2.37383 35.4941 2.35163V2.35903Z" fill="#C62C2B"/>
<path d="M24.83 42.6167C22.2816 44.2589 18.4994 43.9778 18.1469 40.4936C18.1101 40.1977 18.1322 39.9536 18.3745 40.2717C18.6169 40.5824 19.3219 41.8769 21.1359 42.1432C21.5105 42.2098 21.4517 42.121 21.1947 42.0175C20.9376 41.9139 19.2485 41.1668 18.7858 39.739C18.683 39.4284 18.7638 39.2656 19.1971 39.347C19.6377 39.4284 20.7026 39.2434 21.9658 40.2939C23.229 41.3443 23.934 42.0988 24.7125 42.232C24.9549 42.2616 25.065 42.5353 24.83 42.6167Z" fill="#C62C2B"/>
<path d="M42.2231 29.5741C43.8021 31.638 43.8388 34.8928 40.9232 35.455C40.6735 35.5068 40.4679 35.5068 40.7176 35.2701C40.9673 35.0408 42.0028 34.338 42.0909 32.7698C42.1203 32.4443 42.0468 32.5035 41.9808 32.7328C41.9147 32.9621 41.4079 34.4564 40.2329 34.9594C39.9758 35.0704 39.8363 35.0186 39.873 34.6339C39.9097 34.2493 39.6747 33.3542 40.4679 32.1928C41.261 31.0314 41.8412 30.3804 41.9 29.6998C41.9 29.4927 42.135 29.3817 42.2158 29.5741H42.2231Z" fill="#C62C2B"/>
<path d="M0.300421 23.1393C4.00919 18.9819 10.7731 17.5764 13.0204 23.487C13.2187 23.9826 13.2921 24.4265 12.7193 23.9974C12.1465 23.5684 10.3031 21.6672 7.01293 22.1185C6.32993 22.1998 6.46947 22.3182 6.96887 22.37C7.46827 22.4218 10.7731 22.873 12.2493 25.144C12.5724 25.6397 12.5137 25.9503 11.7058 26.0317C10.898 26.1131 9.106 26.9712 6.40337 25.7728C3.70074 24.5744 2.12176 23.6054 0.689658 23.7681C0.256356 23.8421 -0.0667844 23.413 0.300421 23.1467V23.1393Z" fill="#C62C2B"/>
<path d="M35.5806 53.3577C32.1509 54.9703 27.671 53.9791 28.0235 49.6146C28.0455 49.2447 28.1263 48.9488 28.354 49.3779C28.5743 49.8069 29.1398 51.5231 31.2549 52.1519C31.6882 52.2925 31.6368 52.1815 31.3504 52.0114C31.0639 51.8412 29.2059 50.6354 28.9709 48.7861C28.9195 48.3866 29.0443 48.2017 29.5511 48.3718C30.0578 48.5494 31.3871 48.4976 32.6723 50.0067C33.9575 51.5157 34.6332 52.5662 35.5365 52.8621C35.8156 52.936 35.889 53.2985 35.5879 53.3651L35.5806 53.3577Z" fill="#C62C2B"/>
<path d="M54.9268 26.4021C53.076 31.3584 47.5973 34.9462 43.5948 30.5077C43.2496 30.1378 43.0367 29.7753 43.6829 29.9529C44.3366 30.1304 46.6132 31.1661 49.3673 29.6348C49.9401 29.3241 49.7785 29.2723 49.3232 29.3981C48.8679 29.5238 45.798 30.271 43.7197 28.7841C43.2643 28.4586 43.2056 28.1627 43.8959 27.815C44.5789 27.4599 45.8641 26.084 48.6622 26.2024C51.453 26.3207 53.1789 26.624 54.3833 25.9879C54.7432 25.7733 55.1765 26.047 54.9341 26.4021H54.9268Z" fill="#C62C2B"/>
<path d="M34.9122 15.6595C33.8179 14.9938 33.5609 13.714 33.5609 13.714C33.5462 13.6326 33.6049 13.5513 33.6857 13.5291C33.6857 13.5291 35.0223 13.211 36.1166 13.8768C37.2109 14.5425 37.4679 15.8223 37.4679 15.8223C37.4826 15.9037 37.4312 15.9924 37.3431 16.0072C37.3431 16.0072 36.0064 16.3253 34.9122 15.6595Z" fill="#C62C2B"/>
<path d="M11.2592 29.6864C11.3767 28.17 12.5812 27.2157 12.5812 27.2157C12.662 27.1565 12.7795 27.1713 12.8456 27.2527C12.8456 27.2527 13.8884 28.5028 13.7709 30.0267C13.6534 31.5432 12.449 32.4975 12.449 32.4975C12.3682 32.564 12.2507 32.5492 12.1846 32.4679C12.1846 32.4679 11.1417 31.2177 11.2592 29.6938V29.6864Z" fill="#C62C2B"/>
<path d="M27.3045 41.6844C28.6411 40.9742 30.0879 41.4995 30.0879 41.4995C30.1834 41.5365 30.2275 41.6474 30.1981 41.7436C30.1981 41.7436 29.6987 43.297 28.3547 44.0072C27.0181 44.7174 25.5713 44.1921 25.5713 44.1921C25.4758 44.1552 25.4244 44.0516 25.4611 43.948C25.4611 43.948 25.9605 42.3946 27.3045 41.6844Z" fill="#C62C2B"/>
<path d="M34.3782 44.3469C33.6071 45.9004 31.5654 46.2777 31.5654 46.2777C31.4332 46.2998 31.279 46.2185 31.2202 46.1001C31.2202 46.1001 30.2949 44.2286 31.0733 42.6751C31.8445 41.1216 33.8861 40.7444 33.8861 40.7444C34.0183 40.7148 34.1726 40.7961 34.2313 40.9219C34.2313 40.9219 35.1493 42.7935 34.3782 44.3469Z" fill="#C62C2B"/>
<path d="M42.8384 48.3503C45.8201 48.3873 48.8239 46.2124 47.3257 43.1721C47.2008 42.9132 47.0539 42.7208 47.0172 43.1055C46.9731 43.4828 47.0539 44.9105 45.6732 46.0571C45.3942 46.3012 45.4015 46.1976 45.5631 45.9831C45.7247 45.7686 46.7455 44.2891 46.4003 42.8762C46.3269 42.5655 46.18 42.4767 45.8495 42.7652C45.5264 43.0537 44.5423 43.4532 44.0282 44.9697C43.5141 46.4787 43.3158 47.4552 42.7356 47.9656C42.5447 48.1136 42.6034 48.3947 42.8311 48.3429L42.8384 48.3503Z" fill="#C62C2B"/>
<path d="M47.6349 41.4486C46.7095 40.3094 47.062 38.534 47.062 38.534C47.0914 38.4157 47.1942 38.3195 47.3044 38.3121C47.3044 38.3121 49.0082 38.1937 49.9336 39.3329C50.8589 40.4721 50.5064 42.2475 50.5064 42.2475C50.4844 42.3659 50.3742 42.4621 50.264 42.4695C50.264 42.4695 48.5602 42.5878 47.6349 41.4486Z" fill="#C62C2B"/>
<path d="M50.5718 37.5349C48.5228 37.7494 46.8336 35.9149 46.8336 35.9149C46.7235 35.7965 46.7088 35.5894 46.7895 35.4488C46.7895 35.4488 48.0748 33.311 50.1238 33.0964C52.1728 32.8893 53.8619 34.7165 53.8619 34.7165C53.9721 34.8348 53.9941 35.042 53.9133 35.1825C53.9133 35.1825 52.6281 37.3204 50.5791 37.5349H50.5718Z" fill="#C62C2B"/>
<path d="M5.36978 16.3555C4.03315 14.6393 4.62802 12.0576 4.62802 12.0576C4.66474 11.8874 4.82631 11.7543 4.99523 11.7469C4.99523 11.7469 7.52894 11.6581 8.86557 13.3743C10.2022 15.0905 9.61467 17.6648 9.61467 17.6648C9.57795 17.8276 9.41638 17.9755 9.24746 17.9755C9.24746 17.9755 6.71375 18.0643 5.37712 16.3481L5.36978 16.3555Z" fill="#C62C2B"/>
<path d="M16.5618 2.62575C17.4211 1.38298 19.2277 1.31641 19.2277 1.31641C19.3452 1.31641 19.4701 1.39778 19.5068 1.50874C19.5068 1.50874 20.0723 3.23974 19.213 4.48251C18.3538 5.72528 16.5471 5.79186 16.5471 5.79186C16.4296 5.79186 16.3048 5.71049 16.2681 5.59953C16.2681 5.59953 15.7099 3.86852 16.5692 2.62575H16.5618Z" fill="#C62C2B"/>
<path d="M3.89276 18.2045C3.89276 18.8259 3.39337 19.3289 2.77646 19.3289C2.15956 19.3289 1.66016 18.8259 1.66016 18.2045C1.66016 17.5831 2.15956 17.0801 2.77646 17.0801C3.39337 17.0801 3.89276 17.5831 3.89276 18.2045Z" fill="#C62C2B"/>
<path d="M42.5646 49.9174C42.5646 50.5388 42.0652 51.0418 41.4483 51.0418C40.8314 51.0418 40.332 50.5388 40.332 49.9174C40.332 49.296 40.8314 48.793 41.4483 48.793C42.0652 48.793 42.5646 49.296 42.5646 49.9174Z" fill="#C62C2B"/>
<path d="M8.18964 43.8529C8.18964 44.4743 7.69024 44.9773 7.07334 44.9773C6.45643 44.9773 5.95703 44.4743 5.95703 43.8529C5.95703 43.2315 6.45643 42.7285 7.07334 42.7285C7.69024 42.7285 8.18964 43.2315 8.18964 43.8529Z" fill="#C62C2B"/>
<path d="M45.7626 36.6846C45.7626 37.1728 45.366 37.5723 44.8813 37.5723C44.3966 37.5723 44 37.1728 44 36.6846C44 36.1963 44.3966 35.7969 44.8813 35.7969C45.366 35.7969 45.7626 36.1963 45.7626 36.6846Z" fill="#C62C2B"/>
<path d="M2.54106 27.977C2.54106 28.6872 1.97556 29.2568 1.27053 29.2568C0.565496 29.2568 0 28.6872 0 27.977C0 27.2669 0.565496 26.6973 1.27053 26.6973C1.97556 26.6973 2.54106 27.2669 2.54106 27.977Z" fill="#C62C2B"/>
<path d="M40.8926 9.89109C40.8926 10.5938 40.3271 11.1708 39.6221 11.1708C38.9171 11.1708 38.3516 10.6012 38.3516 9.89109C38.3516 9.18093 38.9244 8.61133 39.6221 8.61133C40.3198 8.61133 40.8926 9.18833 40.8926 9.89109Z" fill="#C62C2B"/>
<path d="M28.2662 0.755032C28.5453 3.43291 29.8085 12.6871 19.7324 15.3724C19.255 15.6165 19.0347 15.3724 19.5708 14.9729C20.1069 14.5735 24.8806 9.8169 25.1964 6.57682C25.2845 5.61515 24.9026 6.3401 24.8806 6.53244C24.8586 6.72477 22.5011 11.5257 18.1754 14.6252C17.676 15.0543 17.4484 14.7362 17.6614 13.8041C17.8743 12.872 16.266 8.26344 20.8487 4.36498C22.5158 2.94468 26.4963 2.07917 27.5465 0.266801C27.7081 -0.0143018 28.1487 -0.288007 28.2589 0.76243L28.2662 0.755032Z" fill="#C62C2B"/>
<path d="M51.3953 14.2319C51.3806 16.5843 51.5862 24.7511 42.5677 26.1048C42.127 26.2676 41.9581 26.0309 42.4649 25.7424C42.9716 25.4465 47.5837 21.7773 48.1639 18.9885C48.3328 18.16 47.9289 18.7518 47.8922 18.9219C47.8554 19.0847 45.3438 23.0275 41.2825 25.2985C40.8124 25.624 40.6435 25.3281 40.9153 24.5366C41.187 23.7451 40.2396 19.5803 44.5947 16.6435C46.1883 15.5709 49.7208 15.2084 50.8151 13.7363C50.984 13.507 51.3953 13.3147 51.388 14.2393L51.3953 14.2319Z" fill="#C62C2B"/>
<path d="M17.4368 38.2821C17.4368 37.9714 16.6216 37.7199 15.6081 37.7199C15.5053 37.7199 15.4098 37.7199 15.3144 37.7199C15.4025 37.6755 15.4833 37.6311 15.5714 37.5794C16.4454 37.0689 17.0329 36.4402 16.8713 36.1665C16.7171 35.8927 15.8872 36.0925 15.0059 36.5955C14.9178 36.6473 14.837 36.6991 14.7489 36.7508C14.8003 36.6695 14.8517 36.5807 14.9031 36.4993C15.4098 35.619 15.6008 34.7757 15.3291 34.6204C15.0647 34.465 14.4331 35.0494 13.9263 35.9297C13.8749 36.0185 13.8309 36.1073 13.7868 36.196C13.7868 36.0925 13.7941 35.9963 13.7941 35.8927C13.7941 34.8793 13.5444 34.0508 13.236 34.0508C12.9275 34.0508 12.6778 34.8793 12.6778 35.8927C12.6778 35.9963 12.6778 36.0925 12.6852 36.196C12.6411 36.1073 12.597 36.0185 12.5456 35.9297C12.0389 35.0494 11.4146 34.4576 11.1429 34.6204C10.8712 34.7757 11.0621 35.619 11.5689 36.4993C11.6203 36.5881 11.6717 36.6769 11.7231 36.7582C11.6423 36.7065 11.5542 36.6547 11.4661 36.6029C10.5921 36.0925 9.75488 35.9001 9.60065 36.1739C9.44643 36.4476 10.0266 37.0763 10.9006 37.5868C10.9887 37.6385 11.0768 37.6829 11.1649 37.7273C11.0695 37.7273 10.9667 37.7273 10.8638 37.7273C9.85035 37.7273 9.03516 37.9788 9.03516 38.2895C9.03516 38.6002 9.85035 38.8517 10.8638 38.8517C10.9667 38.8517 11.0621 38.8517 11.1649 38.8443C11.0768 38.8887 10.9887 38.9331 10.9006 38.9923C10.0266 39.5027 9.44643 40.1315 9.60065 40.3978C9.75488 40.6715 10.5921 40.4792 11.4661 39.9687C11.5542 39.917 11.6423 39.8652 11.7231 39.8134C11.6717 39.8948 11.6203 39.9761 11.5689 40.0649C11.0621 40.9452 10.8712 41.7885 11.1429 41.9439C11.4073 42.0992 12.0389 41.5148 12.5456 40.6271C12.597 40.5383 12.6411 40.4496 12.6852 40.3608C12.6852 40.457 12.6778 40.5605 12.6778 40.6567C12.6778 41.6775 12.9275 42.4987 13.236 42.4987C13.5444 42.4987 13.7941 41.6775 13.7941 40.6567C13.7941 40.5531 13.7941 40.457 13.7868 40.3608C13.8309 40.4496 13.8749 40.5383 13.9263 40.6271C14.4331 41.5074 15.0573 42.0992 15.3291 41.9439C15.6008 41.7885 15.4098 40.9452 14.9031 40.0649C14.8517 39.9761 14.8003 39.8948 14.7489 39.806C14.8297 39.8578 14.9178 39.9096 15.0059 39.9613C15.8799 40.4718 16.7171 40.6641 16.8713 40.3904C17.0255 40.1167 16.4454 39.4879 15.5714 38.9849C15.4833 38.9331 15.3952 38.8887 15.307 38.8369C15.4025 38.8369 15.5053 38.8443 15.6081 38.8443C16.6216 38.8443 17.4368 38.5928 17.4368 38.2821ZM13.2507 39.8578C12.3988 39.8578 11.7158 39.1624 11.7158 38.3117C11.7158 37.461 12.4061 36.7656 13.2507 36.7656C14.0952 36.7656 14.7856 37.461 14.7856 38.3117C14.7856 39.1624 14.0952 39.8578 13.2507 39.8578Z" fill="#C62C2B"/>
<path d="M45.0188 40.465C44.96 40.0137 43.9098 39.126 42.6246 39.4589C43.3884 38.4159 43.0726 37.0103 42.7568 36.8032C42.4116 36.5887 42.3088 36.7514 42.0518 36.6331C41.7947 36.5221 41.8388 36.3372 41.4495 36.2262C41.0016 36.1005 39.709 36.7514 39.5548 38.1643C38.9085 37.0769 37.5572 36.8032 37.2487 37.0103C36.9109 37.2397 37.0137 37.4024 36.8007 37.5873C36.5877 37.7797 36.4409 37.6539 36.1838 37.972C35.8607 38.3567 35.9488 39.9693 37.4029 40.6351C36.081 41.1899 35.7358 42.773 35.9562 43.1132C36.1838 43.4535 36.3454 43.35 36.5363 43.5645C36.7199 43.779 36.6098 43.927 36.9182 44.1859C37.2193 44.4374 38.2842 44.4374 39.048 43.705C39.1582 44.8146 40.0101 45.6284 40.3553 45.6284C40.7665 45.6284 40.7665 45.4286 41.0456 45.3842C41.3247 45.3399 41.3835 45.5174 41.7727 45.399C42.2133 45.2659 42.9404 44.0453 42.3529 42.7804C43.6895 43.2316 44.9821 42.2995 45.0335 41.9001C45.0922 41.4932 44.9086 41.4636 44.9086 41.1751C44.9086 40.894 45.0922 40.857 45.0408 40.4576L45.0188 40.465ZM41.3688 41.3674C41.075 42.048 40.2892 42.3513 39.6209 42.0554C38.9452 41.7521 38.6441 40.968 38.9379 40.2948C39.2316 39.6142 40.0174 39.3109 40.6858 39.6068C41.3541 39.9027 41.6625 40.6943 41.3688 41.3748V41.3674Z" fill="#C62C2B"/>
<path fill-rule="evenodd" clip-rule="evenodd" d="M9.13021 46.8556C9.09349 46.1899 9.83525 45.6055 10.79 45.5463H10.8267H10.8561H10.9075H10.9883H11.0103H11.0617H11.0764H11.1058H11.1352H11.1498V45.5315V45.5241V45.5093V45.5019V45.4871H11.1352V45.4797V45.4649V45.4575V45.4427V45.4353V45.4205H11.1278V45.4057V45.3909V45.3761V45.3614H11.1205V45.354V45.3392V45.3318V45.3244L11.1058 45.2948V45.2726H11.0911V45.2652V45.2578V45.243V45.2208C10.7386 44.3257 10.9516 43.401 11.5685 43.1569C12.1854 42.9128 12.9712 43.4454 13.3164 44.3405L13.331 44.3849L13.3457 44.4219V44.4293L13.3604 44.4663L13.3751 44.5033L13.3898 44.5476V44.5846H13.4045V44.592V44.6216H13.4118V44.629V44.6438V44.6512V44.6586V44.6734V44.6882V44.703V44.6956H13.4192V44.6808V44.6734V44.666V44.6586V44.6512L13.4265 44.6438V44.6364V44.629L13.4339 44.6142V44.6068V44.5994L13.4412 44.5846L13.4485 44.5698V44.5624V44.555V44.5476V44.5402V44.5328L13.4632 44.518L13.4926 44.4885L13.5146 44.4663C14.2564 43.8523 15.1964 43.7783 15.6151 44.2961C16.0337 44.8139 15.7766 45.7238 15.0349 46.3378L14.9982 46.3674L14.9761 46.3896L14.9467 46.4118L14.9321 46.4266H14.9174V46.4414V46.4488L14.91 46.4562L14.9027 46.4636V46.471L14.8953 46.4784H14.91H14.9247V46.4858H14.9321H14.9394H14.9467V46.4932H14.9541H14.9688V46.508L15.0055 46.5228L15.0422 46.5449L15.0789 46.5671C15.8868 47.085 16.2466 47.9653 15.8868 48.5275C15.5269 49.0897 14.5869 49.1267 13.779 48.6088L13.7497 48.5866L13.7276 48.5718L13.7056 48.5571V48.5497H13.6982V48.5423L13.6909 48.5349V48.5275V48.5201V48.5127H13.6836V48.4979V48.4905H13.6762V48.4757V48.4683L13.6615 48.4535V48.4461H13.6542V48.4313C13.6395 48.5571 13.6175 48.6976 13.5807 48.8308C13.3384 49.7628 12.626 50.3842 11.9797 50.2141C11.3408 50.0439 11.0176 49.1488 11.2527 48.2168C11.2894 48.0762 11.3334 47.9505 11.3922 47.8247L11.3702 47.8321H11.3555H11.3481H11.3334H11.3188H11.3041H11.2894H11.282H11.2747H11.26H11.238H11.2233H11.2013H11.1792H11.1572H11.1278H11.0984H11.0911C10.1364 47.8913 9.3285 47.3957 9.29178 46.7299L9.13021 46.8556Z" fill="#C62C2B"/>
<path fill-rule="evenodd" clip-rule="evenodd" d="M12.6449 20.2614C12.3879 19.9655 12.5274 19.4254 12.9534 19.0556L12.9681 19.0408L12.9754 19.0334L12.9901 19.0186L13.0048 19.0038H13.0195V18.989V18.9816H13.0121H13.0048H12.9974H12.9901H12.9754V18.9742L12.9607 18.9668H12.9534C12.476 18.6709 12.2483 18.1605 12.4466 17.8276C12.6449 17.4947 13.1957 17.4577 13.6804 17.7462L13.7025 17.761L13.7172 17.7758L13.7318 17.7906L13.7539 17.8054L13.7759 17.8202L13.7906 17.835L13.8053 17.8498V17.8572V17.8646V17.8498V17.835V17.8202V17.8054V17.798V17.7906V17.7758V17.7684V17.7462V17.7388V17.724V17.7166V17.7018V17.6722V17.6575C13.9375 17.11 14.3488 16.7328 14.7233 16.8215C15.0979 16.9103 15.3035 17.4281 15.1786 17.9755V18.0051H15.1713V18.0273V18.0495V18.0643V18.0865V18.0939V18.1087V18.1161V18.1235V18.1309V18.1383H15.186H15.1933H15.2007H15.208H15.2154H15.2227H15.23H15.2447H15.2594H15.2741H15.3035H15.3329H15.3549C15.913 18.0865 16.3904 18.3676 16.4271 18.7523C16.4639 19.1443 16.0379 19.4994 15.4797 19.5438H15.4504H15.4357H15.3843H15.3402H15.2888H15.2741C15.3182 19.6104 15.3549 19.6844 15.3843 19.7583C15.6046 20.2762 15.4871 20.8236 15.1346 20.9789C14.7747 21.1343 14.312 20.831 14.0917 20.3131C14.0623 20.2392 14.033 20.1652 14.0183 20.0838V20.0912V20.0986V20.106L14.0109 20.1134L13.9962 20.1282H13.9889V20.143C13.5629 20.5129 13.0195 20.572 12.7624 20.2762L12.6449 20.2614Z" fill="#C62C2B"/>
<path fill-rule="evenodd" clip-rule="evenodd" d="M29.6124 13.8183C29.2231 13.7887 28.9514 13.3079 28.9881 12.7457V12.7235V12.7087V12.6939V12.6717V12.6495V12.6273V12.6199V12.6051V12.5977V12.5903V12.5829V12.5755V12.5607H28.9734H28.9661H28.9587H28.9514H28.922H28.9073H28.9H28.8926C28.3492 12.6939 27.8351 12.4941 27.7396 12.1169C27.6515 11.7322 28.0187 11.318 28.5622 11.1922H28.5915V11.1848H28.6062H28.6283H28.6503H28.6723H28.6944H28.7164H28.7311H28.7531V11.1774V11.17V11.1626V11.1552V11.1478V11.1404L28.7384 11.1256L28.7237 11.1034C28.43 10.6226 28.4593 10.0678 28.7898 9.86066C29.1203 9.65353 29.6271 9.87546 29.9208 10.3637L29.9355 10.3859V10.4007H29.9429L29.9502 10.4229V10.4377V10.4525V10.4599V10.4673V10.4746V10.482V10.4894V10.4746V10.4673V10.4525V10.4451V10.4303L29.9649 10.4081L29.9796 10.3859L29.9943 10.3637C30.3541 9.93463 30.8902 9.79408 31.184 10.0456C31.4778 10.2971 31.4264 10.8519 31.0592 11.281L31.0445 11.2958V11.3106H31.0298L31.0151 11.3254V11.3328V11.3401L31.0077 11.3475C31.0885 11.3623 31.162 11.3919 31.2354 11.4215C31.7568 11.636 32.0506 12.1021 31.9037 12.4646C31.7568 12.827 31.2134 12.9454 30.6993 12.7309C30.6259 12.7013 30.5524 12.6569 30.4863 12.6199V12.6347V12.6495V12.6643V12.6717V12.6865V12.7013V12.7161V12.7309V12.7457V12.7531V12.7679V12.7827V12.79V12.8048V12.827V12.8418C30.4422 13.4114 30.0971 13.8405 29.7078 13.8109L29.6124 13.8183Z" fill="#C62C2B"/>
<path d="M36.2493 9.03309C36.2493 9.03309 36.2199 9.03309 36.2126 9.02569C36.2199 9.02569 36.2346 9.0109 36.2493 9.0035C37.0278 8.47828 37.5198 7.8495 37.3583 7.59798C37.1893 7.34647 36.4256 7.56839 35.6471 8.08622C35.6324 8.09361 35.625 8.10101 35.6177 8.10841C35.6177 8.09361 35.6177 8.08621 35.625 8.07142C35.8086 7.14674 35.7132 6.34782 35.4194 6.28864C35.1256 6.22946 34.7364 6.93221 34.5528 7.85689C34.5528 7.87169 34.5528 7.88648 34.5528 7.89388C34.5528 7.87909 34.5381 7.87169 34.5308 7.85689C34.0093 7.07276 33.3851 6.57714 33.1354 6.73988C32.8857 6.91002 33.0987 7.67936 33.6201 8.46348C33.6274 8.47088 33.6348 8.48568 33.6421 8.49307C33.6274 8.49307 33.6128 8.49307 33.6054 8.48568C32.6874 8.30074 31.8942 8.39691 31.8355 8.69281C31.7767 8.9961 32.4744 9.38077 33.3924 9.5657C33.4071 9.5657 33.4218 9.5657 33.4292 9.5657C33.4218 9.5657 33.4071 9.5805 33.3924 9.5879C32.614 10.1131 32.1146 10.7419 32.2835 10.9934C32.4524 11.2449 33.2162 11.023 33.9947 10.5052C34.002 10.5052 34.0167 10.4904 34.024 10.483C34.024 10.4978 34.024 10.5126 34.0167 10.52C33.8331 11.4447 33.9286 12.2436 34.2223 12.3028C34.5161 12.3619 34.9053 11.6592 35.0889 10.7345C35.0889 10.7197 35.0889 10.7049 35.0963 10.6975C35.0963 10.7049 35.111 10.7197 35.1183 10.7271C35.6397 11.5112 36.264 12.0069 36.5137 11.8441C36.7634 11.674 36.5431 10.9046 36.029 10.1205C36.029 10.1131 36.0143 10.0983 36.0069 10.0909C36.0216 10.0909 36.0363 10.0909 36.0437 10.0983C36.9617 10.2833 37.7548 10.1871 37.8136 9.89119C37.8723 9.59529 37.1747 9.20323 36.2566 9.01829L36.2493 9.03309Z" fill="#C62C2B"/>
<path d="M44.5705 10.6457C44.5705 10.6457 43.3661 10.1945 42.7638 9.26978C42.1616 8.3451 42.7932 7.70892 43.0576 7.33904C43.322 6.96917 43.3 6.87301 43.5423 6.94698C43.7847 7.02095 44.7394 7.06534 45.2608 8.09358C45.7823 9.12183 44.8202 10.298 44.8129 10.5347C44.8055 10.7641 44.6586 10.7493 44.5778 10.6457H44.5705Z" fill="#C62C2B"/>
<path d="M44.9597 11.2458C44.9597 11.2458 46.1642 11.6971 46.7664 12.6218C47.3686 13.5464 46.737 14.1826 46.4726 14.5525C46.2082 14.9224 46.2376 15.0185 45.9879 14.9372C45.7455 14.8558 44.7908 14.8188 44.2767 13.7906C43.7553 12.7623 44.71 11.5861 44.7247 11.3568C44.7394 11.1275 44.8789 11.1423 44.9597 11.2458Z" fill="#C62C2B"/>
<path d="M45.0637 10.7495C45.0637 10.7495 45.5117 9.53633 46.4297 8.92974C47.3477 8.32315 47.9793 8.95933 48.3465 9.22564C48.7137 9.49195 48.8092 9.46976 48.7284 9.71387C48.655 9.95799 48.6109 10.9197 47.5901 11.4375C46.5692 11.9627 45.4015 11.001 45.1738 10.9862C44.9462 10.9714 44.9609 10.8309 45.0637 10.7495Z" fill="#C62C2B"/>
<path d="M44.4766 11.134C44.4766 11.134 44.0286 12.3472 43.1106 12.9537C42.1926 13.5603 41.561 12.9242 41.1938 12.6578C40.8266 12.3915 40.7311 12.4211 40.8119 12.177C40.8927 11.9329 40.9294 10.9712 41.9502 10.446C42.971 9.92819 44.1388 10.8899 44.3664 10.8973C44.5941 10.912 44.5794 11.0526 44.4766 11.134Z" fill="#C62C2B"/>
<path d="M45.1225 10.6086C44.9462 10.3867 44.6378 10.3571 44.4174 10.5272C44.2045 10.6974 44.1677 11.0155 44.3367 11.23C44.5056 11.4445 44.8214 11.4815 45.0417 11.3114C45.2547 11.1412 45.2914 10.8231 45.1225 10.6086Z" fill="#C62C2B"/>
<path d="M21.4173 49.304C21.4173 49.304 19.5886 48.9933 18.487 47.8467C17.3854 46.7075 18.1051 45.6274 18.3842 45.0282C18.6559 44.4365 18.5972 44.3033 18.9644 44.3477C19.3316 44.3921 20.6903 44.1923 21.7037 45.5091C22.7172 46.8258 21.6744 48.7492 21.7258 49.082C21.7698 49.4075 21.5642 49.4297 21.4173 49.304Z" fill="#C62C2B"/>
<path d="M22.1278 50.0359C22.1278 50.0359 23.9565 50.354 25.0581 51.4932C26.1597 52.6398 25.44 53.7124 25.1683 54.3116C24.8965 54.9108 24.9553 55.0366 24.5881 54.9922C24.2209 54.9478 22.8622 55.1549 21.8487 53.8308C20.8352 52.514 21.8708 50.5907 21.8267 50.2578C21.7826 49.9323 21.9883 49.9101 22.1278 50.0359Z" fill="#C62C2B"/>
<path d="M22.1344 49.3179C22.1344 49.3179 22.4429 47.4759 23.5738 46.3663C24.7122 45.2567 25.7844 45.9817 26.372 46.2628C26.9595 46.5365 27.0917 46.4773 27.0476 46.8472C27.0035 47.217 27.2092 48.5856 25.8946 49.6064C24.5873 50.6273 22.6779 49.5842 22.3474 49.6286C22.0169 49.673 22.0022 49.4659 22.1271 49.3253L22.1344 49.3179Z" fill="#C62C2B"/>
<path d="M21.4088 50.0295C21.4088 50.0295 21.1004 51.864 19.962 52.981C18.831 54.0907 17.7588 53.3657 17.1639 53.0846C16.5764 52.8109 16.4442 52.8701 16.4883 52.5002C16.5323 52.1303 16.334 50.7618 17.6413 49.741C18.9485 48.7201 20.858 49.7706 21.1885 49.7188C21.519 49.6744 21.5337 49.8815 21.4088 50.0221V50.0295Z" fill="#C62C2B"/>
<path d="M22.1886 49.1037C21.8875 48.8374 21.4322 48.8744 21.1751 49.1851C20.9181 49.4884 20.9548 49.9471 21.2559 50.206C21.557 50.4649 22.0124 50.4279 22.2694 50.1246C22.5265 49.8213 22.4971 49.3627 22.1886 49.1037Z" fill="#C62C2B"/>
</g>
<defs>
<clipPath id="clip0_2003_5896">
<rect width="55" height="55" fill="white"/>
</clipPath>
</defs>
</svg>
