<svg width="80" height="80" viewBox="0 0 80 80" fill="none" xmlns="http://www.w3.org/2000/svg">
<path d="M18.6507 5.65618C13.075 10.9278 11.3553 20.3413 19.5052 23.2783C20.1888 23.5365 20.787 23.6226 20.1888 22.848C19.5906 22.0734 16.931 19.5667 17.4437 14.9837C17.5291 14.0369 17.7001 14.2198 17.7855 14.9083C17.871 15.5969 18.5866 20.1692 21.7376 22.1487C22.4212 22.579 22.8485 22.493 22.9446 21.3741C23.03 20.2552 24.1409 17.7485 22.4319 14.0369C20.7122 10.3253 19.345 8.16287 19.5159 6.17258C19.6013 5.57012 19.0032 5.13978 18.6614 5.65618H18.6507Z" fill="#EFEAE6"/>
<path d="M79.5464 35.9869C77.4743 32.9531 73.2017 31.49 71.2791 35.1801C71.1082 35.4921 71.0334 35.7718 71.4286 35.5351C71.8345 35.2984 73.1804 34.2011 75.2739 34.7605C75.7118 34.8681 75.6157 34.9326 75.2739 34.9219C74.9428 34.9219 72.7745 34.9434 71.6316 36.3097C71.3859 36.6002 71.3966 36.8153 71.9093 36.9337C72.422 37.052 73.5222 37.7621 75.3594 37.1919C77.2072 36.6324 78.3074 36.116 79.2153 36.342C79.493 36.428 79.7387 36.1698 79.5144 35.9654L79.5464 35.9869Z" fill="#EFEAE6"/>
<path d="M59.7755 20.1605C56.3041 21.6774 53.9328 25.7871 57.2547 28.5305C57.5324 28.7671 57.7994 28.907 57.6499 28.4444C57.5004 27.9818 56.6779 26.3573 57.6713 24.3132C57.8635 23.8829 57.9169 24.0012 57.8422 24.3347C57.7674 24.6682 57.3508 26.9275 58.483 28.3798C58.7287 28.7026 58.9423 28.7349 59.1667 28.2185C59.391 27.7128 60.3309 26.7231 60.1493 24.7005C59.9678 22.6779 59.6794 21.4407 60.0959 20.537C60.2348 20.2681 60.0318 19.9668 59.7862 20.1497L59.7755 20.1605Z" fill="#EFEAE6"/>
<path d="M55.8537 74.4762C56.7402 70.3773 54.6146 65.6221 50.0644 66.8378C49.6799 66.9347 49.3808 67.0853 49.8828 67.2466C50.3955 67.408 52.3502 67.7093 53.5252 69.9255C53.7815 70.3773 53.6426 70.345 53.397 70.0546C53.1513 69.7749 51.4209 67.9459 49.4022 68.0428C48.9642 68.0643 48.7933 68.2364 49.1031 68.7636C49.4128 69.2907 49.6799 70.7646 51.5918 71.8942C53.5038 73.0239 54.7855 73.5618 55.3089 74.5085C55.4585 74.8098 55.8537 74.8205 55.8537 74.4762Z" fill="#EFEAE6"/>
<path d="M48.958 0.306866C44.7709 1.70545 41.6092 6.19167 45.1661 9.7204C45.4652 10.0216 45.7536 10.2153 45.6254 9.66661C45.4972 9.11794 44.7175 7.15992 46.0847 4.88991C46.3624 4.41655 46.4052 4.55641 46.277 4.93295C46.1595 5.30949 45.4332 7.86997 46.5974 9.67737C46.8538 10.0754 47.0994 10.1292 47.4092 9.56979C47.719 9.01035 48.9046 7.9668 48.9046 5.61072C48.9046 3.25465 48.7016 1.79152 49.2678 0.790991C49.46 0.489758 49.2464 0.123975 48.9473 0.306866H48.958Z" fill="#EFEAE6"/>
<path d="M5.6596 59.9381C9.56897 59.8198 13.3822 56.7967 11.2459 52.8914C11.0644 52.5579 10.8721 52.3212 10.8401 52.8269C10.808 53.3325 10.9896 55.1937 9.24853 56.7752C8.89605 57.1087 8.89605 56.9796 9.09899 56.6891C9.30194 56.3986 10.5517 54.3976 10.0176 52.5687C9.90009 52.1706 9.70783 52.063 9.30194 52.4611C8.89605 52.8591 7.62497 53.4401 7.03749 55.4519C6.45002 57.4529 6.24707 58.7547 5.51006 59.454C5.27507 59.6584 5.36052 60.0349 5.6596 59.9489V59.9381Z" fill="#EFEAE6"/>
<path d="M1.93868 53.2107C2.07754 46.5729 7.07641 40.021 13.6561 43.582C14.2115 43.8833 14.6174 44.2168 13.7736 44.2706C12.9298 44.3351 9.80015 44.0662 7.18322 47.0355C6.62779 47.6379 6.84142 47.6379 7.33276 47.2937C7.8241 46.9494 11.146 44.7762 14.2222 45.6584C14.8952 45.852 15.0874 46.1748 14.4252 46.8848C13.7629 47.5949 12.8123 49.7573 9.45835 50.7901C6.1044 51.8229 3.93609 52.1887 2.77183 53.4474C2.4407 53.8455 1.8105 53.7164 1.94936 53.1892L1.93868 53.2107Z" fill="#EFEAE6"/>
<path d="M51.6163 3.43622C55.7927 1.9946 61.0266 3.71593 60.343 8.76159C60.2896 9.19192 60.1721 9.52543 59.9371 8.99827C59.7021 8.47111 59.1467 6.39476 56.6793 5.39423C56.1773 5.16831 56.22 5.30817 56.5511 5.54485C56.8822 5.78153 59.0078 7.4168 59.168 9.60074C59.2001 10.0741 59.0399 10.2785 58.4524 10.0096C57.8649 9.7406 56.2841 9.62225 54.8635 7.70727C53.4322 5.78153 52.7058 4.47977 51.6484 4.01717C51.3172 3.88807 51.2638 3.45773 51.6163 3.42546V3.43622Z" fill="#EFEAE6"/>
<path d="M36.1038 61.9612C32.3973 64.3496 26.8964 63.9408 26.3837 58.8736C26.3303 58.4433 26.3624 58.0882 26.7148 58.5508C27.0673 59.0027 28.0927 60.8854 30.731 61.2727C31.2758 61.3695 31.1903 61.2404 30.8165 61.0898C30.4426 60.9392 27.9859 59.8526 27.313 57.7762C27.1635 57.3244 27.281 57.0877 27.9112 57.206C28.552 57.3244 30.1008 57.0554 31.938 58.5831C33.7752 60.1108 34.8006 61.2081 35.9329 61.4018C36.2853 61.4448 36.4456 61.8429 36.1038 61.9612Z" fill="#EFEAE6"/>
<path d="M61.4187 42.9923C63.7152 45.9939 63.7686 50.7275 59.5281 51.5452C59.1649 51.6205 58.8658 51.6205 59.229 51.2762C59.5921 50.9427 61.0982 49.9207 61.2264 47.6399C61.2691 47.1665 61.1623 47.2526 61.0662 47.5861C60.97 47.9196 60.233 50.0928 58.524 50.8244C58.1502 50.9857 57.9472 50.9104 58.0006 50.351C58.054 49.7916 57.7122 48.4898 58.8658 46.8008C60.0194 45.1117 60.8632 44.165 60.9487 43.1752C60.9487 42.874 61.2905 42.7126 61.408 42.9923H61.4187Z" fill="#EFEAE6"/>
<path d="M0.419909 33.6397C5.81399 27.5935 15.6515 25.5495 18.92 34.1454C19.2084 34.8662 19.3152 35.5117 18.4821 34.8877C17.6489 34.2637 14.9679 31.4988 10.1827 32.1551C9.18929 32.2734 9.39224 32.4455 10.1186 32.5209C10.8449 32.5962 15.6515 33.2524 17.7985 36.5552C18.2684 37.276 18.183 37.7279 17.008 37.8462C15.8331 37.9646 13.2268 39.2125 9.29611 37.4697C5.36537 35.7268 3.06888 34.3175 0.98602 34.5542C0.355821 34.6618 -0.114158 34.0378 0.419909 33.6505V33.6397Z" fill="#EFEAE6"/>
<path d="M51.7344 77.5774C46.7462 79.9228 40.2306 78.4811 40.7433 72.1337C40.7754 71.5958 40.8929 71.1655 41.224 71.7895C41.5444 72.4134 42.3669 74.9094 45.4431 75.8238C46.0733 76.0282 45.9985 75.8669 45.582 75.6194C45.1654 75.372 42.463 73.6184 42.1212 70.9288C42.0464 70.3478 42.228 70.0789 42.965 70.3263C43.7021 70.5845 45.6354 70.5092 47.5046 72.7039C49.3739 74.8986 50.3565 76.4263 51.6703 76.8566C52.0762 76.9642 52.183 77.4914 51.7451 77.5882L51.7344 77.5774Z" fill="#EFEAE6"/>
<path d="M79.8859 38.3571C77.1942 45.5652 69.2259 50.783 63.4045 44.328C62.9025 43.7901 62.5928 43.2629 63.5327 43.5211C64.4834 43.7793 67.7946 45.2855 71.8001 43.0585C72.6332 42.6067 72.3982 42.5314 71.736 42.7143C71.0738 42.8972 66.609 43.9838 63.5861 41.8213C62.9239 41.348 62.8384 40.9176 63.8425 40.412C64.8358 39.8956 66.7051 37.8945 70.7747 38.0667C74.8336 38.2388 77.3437 38.6799 79.0954 37.7547C79.6188 37.4427 80.249 37.8407 79.8966 38.3571H79.8859Z" fill="#EFEAE6"/>
<path d="M50.7812 22.7401C49.1896 21.7719 48.8158 19.9107 48.8158 19.9107C48.7944 19.7923 48.8799 19.674 48.9974 19.6417C48.9974 19.6417 50.9414 19.1791 52.5329 20.1473C54.1244 21.1156 54.4983 22.9768 54.4983 22.9768C54.5196 23.0951 54.4448 23.2242 54.3167 23.2457C54.3167 23.2457 52.3727 23.7084 50.7812 22.7401Z" fill="#EFEAE6"/>
<path d="M16.3572 43.1456C16.5281 40.9402 18.2798 39.5524 18.2798 39.5524C18.3973 39.4663 18.5682 39.4878 18.6643 39.6061C18.6643 39.6061 20.1811 41.4243 20.0102 43.6405C19.8393 45.846 18.0876 47.2338 18.0876 47.2338C17.9701 47.3306 17.7992 47.3091 17.703 47.1908C17.703 47.1908 16.1863 45.3726 16.3572 43.1564V43.1456Z" fill="#EFEAE6"/>
<path d="M39.7101 60.5995C41.6541 59.5667 43.7583 60.3305 43.7583 60.3305C43.8971 60.3843 43.9612 60.5457 43.9185 60.6855C43.9185 60.6855 43.1922 62.9448 41.2375 63.9776C39.2935 65.0104 37.1893 64.2465 37.1893 64.2465C37.0504 64.1927 36.9756 64.0421 37.029 63.8915C37.029 63.8915 37.7554 61.6323 39.7101 60.5995Z" fill="#EFEAE6"/>
<path d="M50.002 64.4864C48.8805 66.7457 45.9111 67.2944 45.9111 67.2944C45.7188 67.3266 45.4945 67.2083 45.409 67.0362C45.409 67.0362 44.0632 64.3143 45.1954 62.0551C46.317 59.7958 49.2864 59.2471 49.2864 59.2471C49.4786 59.2041 49.7029 59.3224 49.7884 59.5053C49.7884 59.5053 51.1236 62.2272 50.002 64.4864Z" fill="#EFEAE6"/>
<path d="M62.2966 70.3034C66.6332 70.3572 71.0018 67.1942 68.8229 62.7725C68.6413 62.396 68.4276 62.1163 68.3742 62.6757C68.3101 63.2244 68.4276 65.3007 66.4195 66.9683C66.0137 67.3233 66.0243 67.1727 66.2593 66.8607C66.4943 66.5487 67.979 64.397 67.477 62.3422C67.3702 61.8904 67.1566 61.7613 66.6759 62.1808C66.2059 62.6004 64.7746 63.1814 64.0269 65.3868C63.2792 67.5815 62.9908 69.0016 62.147 69.7439C61.8693 69.9591 61.9547 70.3679 62.2859 70.2926L62.2966 70.3034Z" fill="#EFEAE6"/>
<path d="M69.2845 60.2619C67.9386 58.6052 68.4513 56.0232 68.4513 56.0232C68.4941 55.851 68.6436 55.7112 68.8038 55.7004C68.8038 55.7004 71.2819 55.5283 72.6277 57.1851C73.9736 58.8418 73.4609 61.4238 73.4609 61.4238C73.4288 61.596 73.2686 61.7358 73.1084 61.7466C73.1084 61.7466 70.6303 61.9187 69.2845 60.2619Z" fill="#EFEAE6"/>
<path d="M73.5481 54.5765C70.568 54.8884 68.1113 52.2204 68.1113 52.2204C67.9511 52.0482 67.9297 51.747 68.0472 51.5426C68.0472 51.5426 69.9165 48.4335 72.8966 48.1215C75.8766 47.8202 78.3334 50.4775 78.3334 50.4775C78.4936 50.6497 78.5256 50.9509 78.4081 51.1553C78.4081 51.1553 76.5389 54.2645 73.5588 54.5765H73.5481Z" fill="#EFEAE6"/>
<path d="M7.77069 23.7544C5.82669 21.2584 6.69188 17.5038 6.69188 17.5038C6.74528 17.2563 6.98027 17.0627 7.22594 17.0519C7.22594 17.0519 10.911 16.9228 12.855 19.4187C14.799 21.9147 13.9445 25.6586 13.9445 25.6586C13.8911 25.8953 13.6561 26.1104 13.4104 26.1104C13.4104 26.1104 9.72538 26.2395 7.78137 23.7436L7.77069 23.7544Z" fill="#EFEAE6"/>
<path d="M24.0927 3.81438C25.3424 2.00698 27.97 1.91016 27.97 1.91016C28.1409 1.91016 28.3225 2.0285 28.3759 2.18987C28.3759 2.18987 29.1984 4.70732 27.9487 6.51472C26.6989 8.32212 24.0713 8.41895 24.0713 8.41895C23.9004 8.41895 23.7188 8.3006 23.6654 8.13923C23.6654 8.13923 22.8537 5.62178 24.1034 3.81438H24.0927Z" fill="#EFEAE6"/>
<path d="M5.6651 26.4868C5.6651 27.3905 4.93877 28.1221 4.04153 28.1221C3.1443 28.1221 2.41797 27.3905 2.41797 26.4868C2.41797 25.5831 3.1443 24.8516 4.04153 24.8516C4.93877 24.8516 5.6651 25.5831 5.6651 26.4868Z" fill="#EFEAE6"/>
<path d="M61.9151 72.5845C61.9151 73.4882 61.1888 74.2198 60.2915 74.2198C59.3943 74.2198 58.668 73.4882 58.668 72.5845C58.668 71.6808 59.3943 70.9492 60.2915 70.9492C61.1888 70.9492 61.9151 71.6808 61.9151 72.5845Z" fill="#EFEAE6"/>
<path d="M11.9151 63.7564C11.9151 64.6601 11.1888 65.3916 10.2915 65.3916C9.3943 65.3916 8.66797 64.6601 8.66797 63.7564C8.66797 62.8527 9.3943 62.1211 10.2915 62.1211C11.1888 62.1211 11.9151 62.8527 11.9151 63.7564Z" fill="#EFEAE6"/>
<path d="M66.5635 53.3144C66.5635 54.0245 65.9867 54.6054 65.2818 54.6054C64.5768 54.6054 64 54.0245 64 53.3144C64 52.6044 64.5768 52.0234 65.2818 52.0234C65.9867 52.0234 66.5635 52.6044 66.5635 53.3144Z" fill="#EFEAE6"/>
<path d="M3.69575 40.6737C3.69575 41.7065 2.87328 42.5349 1.84787 42.5349C0.822464 42.5349 0 41.7065 0 40.6737C0 39.6409 0.822464 38.8125 1.84787 38.8125C2.87328 38.8125 3.69575 39.6409 3.69575 40.6737Z" fill="#EFEAE6"/>
<path d="M59.4614 14.369C59.4614 15.391 58.6389 16.2302 57.6135 16.2302C56.5881 16.2302 55.7656 15.4018 55.7656 14.369C55.7656 13.3362 56.5988 12.5078 57.6135 12.5078C58.6282 12.5078 59.4614 13.347 59.4614 14.369Z" fill="#EFEAE6"/>
<path d="M41.1181 1.08102C41.524 4.97554 43.3612 18.4342 28.7064 22.3395C28.0121 22.6945 27.6916 22.3395 28.4714 21.7585C29.2511 21.1776 36.194 14.26 36.6533 9.54783C36.7814 8.14924 36.226 9.20356 36.194 9.48328C36.1619 9.76299 32.7332 16.7451 26.4419 21.2529C25.7156 21.8769 25.3844 21.4143 25.6942 20.0587C26.004 18.7032 23.6648 12.0007 30.3299 6.33109C32.7546 4.26549 38.5439 3.00676 40.0713 0.370974C40.3063 -0.0378425 40.9472 -0.435901 41.1074 1.09178L41.1181 1.08102Z" fill="#EFEAE6"/>
<path d="M74.7596 20.6877C74.7383 24.1089 75.0373 35.9861 61.9206 37.9549C61.2798 38.1915 61.0341 37.8473 61.7711 37.4277C62.5081 36.9974 69.216 31.6612 70.0598 27.6053C70.3055 26.4004 69.718 27.2611 69.6646 27.5085C69.6112 27.7452 65.9582 33.4794 60.0514 36.7822C59.3678 37.2556 59.1221 36.8252 59.5173 35.6741C59.9126 34.5229 58.5347 28.466 64.8687 24.1949C67.1866 22.635 72.3243 22.1078 73.9158 19.9669C74.1615 19.6334 74.7596 19.3537 74.7489 20.6985L74.7596 20.6877Z" fill="#EFEAE6"/>
<path d="M25.3679 55.6538C25.3679 55.2019 24.1823 54.8361 22.7082 54.8361C22.5587 54.8361 22.4198 54.8361 22.281 54.8361C22.4092 54.7716 22.5267 54.707 22.6548 54.6317C23.9259 53.8894 24.7804 52.9749 24.5454 52.5769C24.3211 52.1788 23.1141 52.4693 21.8324 53.2009C21.7042 53.2762 21.5867 53.3515 21.4585 53.4268C21.5333 53.3084 21.6081 53.1793 21.6828 53.061C22.4198 51.7808 22.6976 50.5543 22.3024 50.3284C21.9178 50.1025 20.9992 50.9524 20.2622 52.2326C20.1874 52.3617 20.1234 52.4908 20.0593 52.6199C20.0593 52.4693 20.0699 52.3294 20.0699 52.1788C20.0699 50.7049 19.7068 49.5 19.2582 49.5C18.8096 49.5 18.4464 50.7049 18.4464 52.1788C18.4464 52.3294 18.4464 52.4693 18.4571 52.6199C18.393 52.4908 18.3289 52.3617 18.2541 52.2326C17.5171 50.9524 16.6092 50.0917 16.214 50.3284C15.8188 50.5543 16.0965 51.7808 16.8335 53.061C16.9083 53.1901 16.983 53.3192 17.0578 53.4375C16.9403 53.3622 16.8121 53.2869 16.684 53.2116C15.4129 52.4693 14.1952 52.1896 13.9709 52.5876C13.7466 52.9857 14.5904 53.9002 15.8615 54.6425C15.9897 54.7178 16.1179 54.7823 16.246 54.8469C16.1072 54.8469 15.9576 54.8469 15.8081 54.8469C14.3341 54.8469 13.1484 55.2127 13.1484 55.6645C13.1484 56.1164 14.3341 56.4822 15.8081 56.4822C15.9576 56.4822 16.0965 56.4822 16.246 56.4714C16.1179 56.5359 15.9897 56.6005 15.8615 56.6866C14.5904 57.4289 13.7466 58.3433 13.9709 58.7306C14.1952 59.1287 15.4129 58.849 16.684 58.1067C16.8121 58.0314 16.9403 57.956 17.0578 57.8807C16.983 57.9991 16.9083 58.1174 16.8335 58.2465C16.0965 59.5268 15.8188 60.7532 16.214 60.9791C16.5985 61.2051 17.5171 60.3552 18.2541 59.0642C18.3289 58.9351 18.393 58.806 18.4571 58.6769C18.4571 58.8167 18.4464 58.9673 18.4464 59.1072C18.4464 60.5918 18.8096 61.786 19.2582 61.786C19.7068 61.786 20.0699 60.5918 20.0699 59.1072C20.0699 58.9566 20.0699 58.8167 20.0593 58.6769C20.1234 58.806 20.1874 58.9351 20.2622 59.0642C20.9992 60.3444 21.9071 61.2051 22.3024 60.9791C22.6976 60.7532 22.4198 59.5268 21.6828 58.2465C21.6081 58.1174 21.5333 57.9991 21.4585 57.87C21.576 57.9453 21.7042 58.0206 21.8324 58.0959C23.1035 58.8382 24.3211 59.1179 24.5454 58.7199C24.7697 58.3218 23.9259 57.4074 22.6548 56.6758C22.5267 56.6005 22.3985 56.5359 22.2703 56.4606C22.4092 56.4606 22.5587 56.4714 22.7082 56.4714C24.1823 56.4714 25.3679 56.1056 25.3679 55.6538ZM19.2795 57.9453C18.0405 57.9453 17.0471 56.934 17.0471 55.6968C17.0471 54.4596 18.0512 53.4483 19.2795 53.4483C20.5079 53.4483 21.5119 54.4596 21.5119 55.6968C21.5119 56.934 20.5079 57.9453 19.2795 57.9453Z" fill="#EFEAE6"/>
<path d="M65.4931 58.8196C65.4076 58.1633 63.8802 56.8723 62.0109 57.3564C63.1218 55.8395 62.6625 53.7954 62.2032 53.4942C61.7012 53.1822 61.5516 53.4189 61.1778 53.2467C60.804 53.0854 60.868 52.8164 60.3019 52.655C59.6504 52.4721 57.7705 53.4189 57.5461 55.4737C56.6062 53.8922 54.6408 53.4942 54.1922 53.7954C53.7009 54.1289 53.8504 54.3656 53.5406 54.6346C53.2309 54.9143 53.0173 54.7314 52.6434 55.194C52.1734 55.7534 52.3016 58.0987 54.4165 59.067C52.4939 59.8739 51.9918 62.1761 52.3123 62.671C52.6434 63.1659 52.8784 63.0153 53.1561 63.3273C53.4231 63.6393 53.2629 63.8544 53.7115 64.231C54.1495 64.5968 55.6983 64.5968 56.8091 63.5317C56.9693 65.1455 58.2084 66.3289 58.7104 66.3289C59.3086 66.3289 59.3086 66.0384 59.7145 65.9738C60.1203 65.9093 60.2058 66.1675 60.7719 65.9954C61.4128 65.8017 62.4702 64.0266 61.6157 62.1869C63.5597 62.8432 65.4397 61.4876 65.5144 60.9067C65.5999 60.315 65.3328 60.2719 65.3328 59.8524C65.3328 59.4435 65.5999 59.3897 65.5251 58.8088L65.4931 58.8196ZM60.1844 60.1321C59.7572 61.1218 58.6143 61.5629 57.6423 61.1326C56.6596 60.6915 56.2217 59.5511 56.6489 58.5721C57.0762 57.5823 58.2191 57.1413 59.1911 57.5716C60.1631 58.0019 60.6117 59.1531 60.1844 60.1428V60.1321Z" fill="#EFEAE6"/>
<path fill-rule="evenodd" clip-rule="evenodd" d="M13.2597 68.1216C13.2063 67.1533 14.2851 66.3034 15.6737 66.2174H15.7271H15.7698H15.8446H15.9621H15.9941H16.0689H16.0903H16.133H16.1757H16.1971V66.1959V66.1851V66.1636V66.1528V66.1313H16.1757V66.1205V66.099V66.0883V66.0668V66.056V66.0345H16.165V66.013V65.9914V65.9699V65.9484H16.1544V65.9377V65.9161V65.9054V65.8946L16.133 65.8516V65.8193H16.1116V65.8086V65.7978V65.7763V65.744C15.5989 64.4423 15.9087 63.0975 16.8059 62.7424C17.7032 62.3874 18.8461 63.162 19.3481 64.4638L19.3694 64.5283L19.3908 64.5821V64.5929L19.4122 64.6467L19.4335 64.7004L19.4549 64.765V64.8188H19.4763V64.8295V64.8726H19.4869V64.8833V64.9049V64.9156V64.9264V64.9479V64.9694V64.9909V64.9802H19.4976V64.9587V64.9479V64.9371V64.9264V64.9156L19.5083 64.9049V64.8941V64.8833L19.519 64.8618V64.8511V64.8403L19.5297 64.8188L19.5403 64.7973V64.7865V64.7758V64.765V64.7542V64.7435L19.5617 64.722L19.6044 64.6789L19.6365 64.6467C20.7153 63.7537 22.0825 63.6461 22.6913 64.3992C23.3002 65.1523 22.9263 66.4756 21.8475 67.3685L21.7941 67.4115L21.7621 67.4438L21.7193 67.4761L21.698 67.4976H21.6766V67.5191V67.5299L21.6659 67.5406L21.6552 67.5514V67.5622L21.6446 67.5729H21.6659H21.6873V67.5837H21.698H21.7087H21.7193V67.5944H21.73H21.7514V67.616L21.8048 67.6375L21.8582 67.6697L21.9116 67.702C23.0865 68.4551 23.6099 69.7353 23.0865 70.553C22.5632 71.3706 21.196 71.4244 20.021 70.6713L19.9783 70.639L19.9462 70.6175L19.9142 70.596V70.5853H19.9035V70.5745L19.8928 70.5637V70.553V70.5422V70.5315H19.8821V70.5099V70.4992H19.8715V70.4777V70.4669L19.8501 70.4454V70.4346H19.8394V70.4131C19.8181 70.596 19.786 70.8004 19.7326 70.9941C19.3801 72.3496 18.344 73.2533 17.4041 73.0059C16.4748 72.7584 16.0048 71.4567 16.3466 70.1011C16.4 69.8967 16.4641 69.7138 16.5496 69.5309L16.5175 69.5417H16.4962H16.4855H16.4641H16.4428H16.4214H16.4H16.3893H16.3787H16.3573H16.3253H16.3039H16.2719H16.2398H16.2078H16.165H16.1223H16.1116C14.7231 69.6278 13.5481 68.907 13.4947 67.9387L13.2597 68.1216Z" fill="#EFEAE6"/>
<path fill-rule="evenodd" clip-rule="evenodd" d="M18.416 29.4433C18.0422 29.013 18.2451 28.2276 18.8646 27.6897L18.886 27.6682L18.8967 27.6574L18.918 27.6359L18.9394 27.6144H18.9608V27.5929V27.5821H18.9501H18.9394H18.9287H18.918H18.8967V27.5714L18.8753 27.5606H18.8646C18.1703 27.1303 17.8392 26.388 18.1276 25.9038C18.416 25.4197 19.2171 25.3659 19.9221 25.7855L19.9541 25.807L19.9755 25.8285L19.9969 25.85L20.0289 25.8716L20.0609 25.8931L20.0823 25.9146L20.1037 25.9361V25.9469V25.9576V25.9361V25.9146V25.8931V25.8716V25.8608V25.85V25.8285V25.8178V25.7855V25.7747V25.7532V25.7425V25.7209V25.6779V25.6564C20.2959 24.8603 20.8941 24.3116 21.4388 24.4407C21.9836 24.5698 22.2827 25.3229 22.1011 26.119V26.162H22.0904V26.1943V26.2266V26.2481V26.2804V26.2911V26.3127V26.3234V26.3342V26.3449V26.3557H22.1118H22.1224H22.1331H22.1438H22.1545H22.1652H22.1758H22.1972H22.2186H22.2399H22.2827H22.3254H22.3574C23.1692 26.2804 23.8635 26.6892 23.9169 27.2486C23.9703 27.8188 23.3508 28.3352 22.539 28.3998H22.4963H22.4749H22.4002H22.3361H22.2613H22.2399C22.304 28.4966 22.3574 28.6042 22.4002 28.7118C22.7206 29.4648 22.5497 30.261 22.037 30.4869C21.5136 30.7128 20.8407 30.2717 20.5202 29.5186C20.4775 29.4111 20.4348 29.3035 20.4134 29.1851V29.1959V29.2066V29.2174L20.4027 29.2282L20.3814 29.2497H20.3707V29.2712C19.7512 29.8091 18.9608 29.8952 18.5869 29.4648L18.416 29.4433Z" fill="#EFEAE6"/>
<path fill-rule="evenodd" clip-rule="evenodd" d="M43.067 20.1066C42.5008 20.0636 42.1056 19.3643 42.159 18.5467V18.5144V18.4929V18.4714V18.4391V18.4068V18.3745V18.3638V18.3423V18.3315V18.3208V18.31V18.2992V18.2777H42.1377H42.127H42.1163H42.1056H42.0629H42.0415H42.0309H42.0202C41.2298 18.4714 40.4821 18.1809 40.3432 17.6322C40.215 17.0728 40.7491 16.4703 41.5395 16.2874H41.5822V16.2767H41.6036H41.6357H41.6677H41.6997H41.7318H41.7638H41.7852H41.8172V16.2659V16.2552V16.2444V16.2336V16.2229V16.2121L41.7959 16.1906L41.7745 16.1583C41.3473 15.459 41.39 14.6522 41.8706 14.3509C42.3513 14.0497 43.0883 14.3724 43.5156 15.0825L43.5369 15.1148V15.1363H43.5476L43.5583 15.1686V15.1901V15.2116V15.2224V15.2331V15.2439V15.2546V15.2654V15.2439V15.2331V15.2116V15.2008V15.1793L43.5797 15.147L43.601 15.1148L43.6224 15.0825C44.1458 14.4585 44.9255 14.2541 45.3528 14.6199C45.78 14.9857 45.7052 15.7925 45.1712 16.4165L45.1498 16.438V16.4596H45.1285L45.1071 16.4811V16.4918V16.5026L45.0964 16.5134C45.2139 16.5349 45.3207 16.5779 45.4275 16.6209C46.1859 16.9329 46.6132 17.6107 46.3995 18.1379C46.1859 18.665 45.3955 18.8372 44.6478 18.5252C44.541 18.4821 44.4342 18.4176 44.338 18.3638V18.3853V18.4068V18.4283V18.4391V18.4606V18.4821V18.5036V18.5252V18.5467V18.5574V18.579V18.6005V18.6112V18.6327V18.665V18.6865C44.2739 19.5149 43.7719 20.1389 43.2058 20.0959L43.067 20.1066Z" fill="#EFEAE6"/>
<path d="M52.7214 13.1566C52.7214 13.1566 52.6787 13.1566 52.668 13.1458C52.6787 13.1458 52.7 13.1243 52.7214 13.1135C53.8536 12.3497 54.5693 11.4352 54.3343 11.0694C54.0886 10.7037 52.9777 11.0264 51.8455 11.7795C51.8242 11.7902 51.8135 11.801 51.8028 11.8118C51.8028 11.7902 51.8028 11.7795 51.8135 11.758C52.0805 10.4132 51.9417 9.25128 51.5144 9.16522C51.0871 9.07915 50.521 10.1012 50.254 11.446C50.254 11.4675 50.254 11.489 50.254 11.4998C50.254 11.4783 50.2326 11.4675 50.222 11.446C49.4636 10.3056 48.5557 9.58479 48.1925 9.82147C47.8293 10.0689 48.1391 11.1878 48.8975 12.3282C48.9081 12.3389 48.9188 12.3604 48.9295 12.3712C48.9082 12.3712 48.8868 12.3712 48.8761 12.3604C47.5409 12.0915 46.3874 12.2313 46.3019 12.6617C46.2164 13.1028 47.2312 13.6622 48.5663 13.9312C48.5877 13.9312 48.6091 13.9312 48.6198 13.9312C48.6091 13.9312 48.5877 13.9527 48.5663 13.9634C47.4341 14.7273 46.7078 15.6417 46.9535 16.0075C47.1991 16.3733 48.31 16.0505 49.4422 15.2975C49.4529 15.2975 49.4743 15.2759 49.4849 15.2652C49.4849 15.2867 49.4849 15.3082 49.4743 15.319C49.2072 16.6638 49.3461 17.8257 49.7733 17.9117C50.2006 17.9978 50.7667 16.9758 51.0337 15.631C51.0337 15.6095 51.0337 15.5879 51.0444 15.5772C51.0444 15.5879 51.0658 15.6095 51.0765 15.6202C51.8348 16.7606 52.7428 17.4814 53.1059 17.2447C53.4691 16.9973 53.1486 15.8784 52.401 14.738C52.401 14.7273 52.3796 14.7058 52.3689 14.695C52.3903 14.695 52.4116 14.695 52.4223 14.7058C53.7575 14.9747 54.9111 14.8349 54.9965 14.4045C55.082 13.9742 54.0672 13.404 52.7321 13.135L52.7214 13.1566Z" fill="#EFEAE6"/>
<path d="M64.8459 15.4597C64.8459 15.4597 63.0941 14.8035 62.2183 13.4587C61.3424 12.1139 62.261 11.1887 62.6455 10.6507C63.03 10.1128 62.998 9.97296 63.3505 10.0805C63.703 10.1881 65.0915 10.2527 65.8499 11.7481C66.6083 13.2435 65.209 14.9541 65.1984 15.2983C65.1877 15.6318 64.9741 15.6103 64.8566 15.4597H64.8459Z" fill="#EFEAE6"/>
<path d="M65.3994 16.3391C65.3994 16.3391 67.1511 16.9954 68.027 18.3402C68.9029 19.685 67.9843 20.6102 67.5998 21.1481C67.2152 21.686 67.258 21.8259 66.8948 21.7075C66.5423 21.5892 65.1537 21.5354 64.406 20.04C63.6477 18.5446 65.0362 16.834 65.0576 16.5005C65.079 16.167 65.2819 16.1885 65.3994 16.3391Z" fill="#EFEAE6"/>
<path d="M65.5532 15.5979C65.5532 15.5979 66.2048 13.8336 67.5399 12.9514C68.8751 12.0692 69.7937 12.9944 70.3278 13.3817C70.8618 13.769 71.0007 13.7367 70.8832 14.0918C70.7764 14.4468 70.7123 15.8454 69.2276 16.5984C67.7429 17.3623 66.0445 15.9637 65.7134 15.9422C65.3823 15.9207 65.4037 15.7163 65.5532 15.5979Z" fill="#EFEAE6"/>
<path d="M64.7009 16.1958C64.7009 16.1958 64.0493 17.9601 62.7141 18.8423C61.379 19.7245 60.4604 18.7993 59.9263 18.412C59.3923 18.0247 59.2534 18.0677 59.3709 17.7127C59.4884 17.3577 59.5418 15.9591 61.0265 15.1952C62.5112 14.4421 64.2095 15.8407 64.5407 15.8515C64.8718 15.873 64.8504 16.0774 64.7009 16.1958Z" fill="#EFEAE6"/>
<path d="M65.645 15.4023C65.3887 15.0795 64.94 15.0365 64.6196 15.2839C64.3098 15.5314 64.2564 15.994 64.5021 16.306C64.7478 16.618 65.2071 16.6718 65.5275 16.4243C65.8373 16.1769 65.8907 15.7143 65.645 15.4023Z" fill="#EFEAE6"/>
<path d="M31.1705 71.6804C31.1705 71.6804 28.5108 71.2286 26.9086 69.561C25.3064 67.9042 26.3532 66.3335 26.7591 65.4621C27.1543 64.6014 27.0688 64.4078 27.6029 64.4723C28.137 64.5369 30.113 64.2464 31.587 66.1614C33.0611 68.0764 31.5443 70.8735 31.6191 71.3577C31.6832 71.831 31.3841 71.8633 31.1705 71.6804Z" fill="#EFEAE6"/>
<path d="M32.1996 72.7674C32.1996 72.7674 34.8593 73.23 36.4615 74.8868C38.0637 76.5543 37.0169 78.1143 36.6217 78.9857C36.2265 79.8571 36.312 80.04 35.7779 79.9755C35.2438 79.9109 33.2678 80.2122 31.7937 78.2864C30.3197 76.3714 31.8258 73.5743 31.7617 73.0901C31.6976 72.6168 31.9967 72.5845 32.1996 72.7674Z" fill="#EFEAE6"/>
<path d="M32.1784 71.7074C32.1784 71.7074 32.6271 69.0286 34.272 67.4148C35.9276 65.8011 37.4871 66.8554 38.3416 67.2642C39.1961 67.6623 39.3883 67.5762 39.3243 68.1141C39.2602 68.652 39.5592 70.6423 37.6473 72.127C35.746 73.6116 32.9689 72.0947 32.4882 72.1592C32.0075 72.2238 31.9862 71.9226 32.1678 71.7182L32.1784 71.7074Z" fill="#EFEAE6"/>
<path d="M31.117 72.7508C31.117 72.7508 30.6684 75.4189 29.0128 77.0434C27.3679 78.6571 25.8084 77.6028 24.9432 77.194C24.0887 76.7959 23.8965 76.882 23.9605 76.3441C24.0246 75.8062 23.7362 73.8159 25.6375 72.3312C27.5388 70.8466 30.3159 72.3743 30.7966 72.2989C31.2773 72.2344 31.2986 72.5356 31.117 72.74V72.7508Z" fill="#EFEAE6"/>
<path d="M32.2699 71.4033C31.832 71.016 31.1698 71.0698 30.7959 71.5217C30.4221 71.9628 30.4755 72.6298 30.9134 73.0063C31.3513 73.3829 32.0136 73.3291 32.3874 72.888C32.7613 72.4469 32.7186 71.7799 32.2699 71.4033Z" fill="#EFEAE6"/>
</svg>
