<svg width="548" height="377" viewBox="0 0 548 377" fill="none" xmlns="http://www.w3.org/2000/svg">
<mask id="mask0_2003_6517" style="mask-type:alpha" maskUnits="userSpaceOnUse" x="0" y="0" width="548" height="377">
<rect x="548" y="377" width="548" height="377" transform="rotate(180 548 377)" fill="#D9D9D9"/>
</mask>
<g mask="url(#mask0_2003_6517)">
<path d="M295.657 135.926C291.928 144.051 292.734 145.88 287.694 145.271C282.654 144.661 264.005 147.403 250.094 129.324C237.65 113.153 247.79 90.3178 249.563 82.4082C247.433 82.3459 245.31 81.5755 243.553 80.0674C241.897 87.2415 236.677 105.529 224.425 117.554C208.8 132.788 194.083 122.835 186.019 118.976C177.954 115.218 176.139 116.03 176.744 110.952C177.349 105.874 174.526 87.0836 192.57 73.0674C209.217 60.064 232.979 71.4498 239.948 72.6768C239.9 70.5783 240.513 68.4576 241.791 66.6523C235.087 65.105 216.297 59.831 204.052 47.1641C188.931 31.4215 198.809 16.6947 202.539 8.46777C206.269 0.240878 205.463 -1.48635 210.503 -0.876953C215.543 -0.267553 234.192 -3.11109 248.104 15.0693C260.862 31.6504 249.964 55.2372 248.537 62.5576C250.688 62.2693 252.923 62.6907 254.864 63.8496C256.618 56.4502 261.882 38.6284 274.001 26.7334C289.525 11.4984 304.243 21.452 312.408 25.3115C320.472 29.0693 322.287 28.2571 321.683 33.335C321.078 38.4133 323.799 57.2035 305.855 71.2197C290.063 83.5553 267.868 73.8644 259.681 71.8477C259.802 74.0063 259.235 76.2061 257.944 78.0752C265.599 79.9619 282.788 85.3001 294.246 97.2295C309.367 112.871 299.488 127.699 295.657 135.926ZM150.341 84.3291C151.046 89.8137 149.333 92.3526 142.377 90.0166C135.421 87.579 117.175 88.2899 99.5342 67.5703C81.8934 46.8509 72.6188 32.4289 60.2197 28.3662C56.3894 27.3503 55.3817 22.3731 59.5146 21.459L59.6152 21.5605C106.692 -0.580902 168.183 13.0298 163.345 72.9541C163.042 78.0322 161.933 82.0943 158.809 76.2041C155.784 70.3133 148.022 46.7494 118.99 38.1162C113.043 36.1864 113.748 37.7099 117.68 40.0459C121.611 42.382 147.115 58.9376 150.341 84.3291ZM75.5205 123.009C32.5773 134.486 12.5169 89.5933 20.8838 50.8965C20.8838 47.6464 24.6141 47.7479 26.0254 50.5918C30.9649 59.5295 43.0613 64.608 61.1055 75.2725C79.1493 85.9367 81.6695 99.8511 84.5928 104.828C87.5161 109.805 85.9035 111.431 81.7705 111.634C62.7188 112.548 46.3886 95.2821 44.0693 92.6406C41.7508 89.8983 40.44 89.5936 42.8594 93.8594C53.948 114.782 72.3957 117.626 77.2344 119.149C81.9721 120.673 79.1495 122.095 75.5205 123.009ZM-20.9238 84.2373C-29.3915 84.2373 -36.2461 77.3304 -36.2461 68.7988C-36.2459 60.2674 -29.3914 53.3613 -20.9238 53.3613C-12.4563 53.3614 -5.60173 60.2674 -5.60156 68.7988C-5.60156 77.3304 -12.4562 84.2372 -20.9238 84.2373ZM389.206 161.619C380.738 164.971 369.952 157.658 365.214 145.368L365.013 144.759L364.811 144.251V144.149L364.408 143.134L364.206 142.524V142.017H364.005V141.509H363.903V140.493H363.803V141.103L363.702 141.204V141.407L363.602 141.61V141.813L363.5 142.017L363.399 142.22V142.728L363.198 142.931L362.795 143.337L362.492 143.642C352.311 152.071 339.408 153.087 333.662 145.978C327.916 138.868 331.445 126.375 341.626 117.945L342.13 117.539L342.432 117.234L342.835 116.93L343.037 116.727H343.238V116.422L343.339 116.32L343.44 116.219V116.117L343.541 116.016H343.138V115.914H342.835V115.812H342.533V115.609L342.029 115.406L341.524 115.102L341.021 114.797C329.932 107.687 324.993 95.6009 329.933 87.8818C334.872 80.1628 347.775 79.6542 358.863 86.7637L359.267 87.0684L359.569 87.2715L359.871 87.4746V87.5771H359.973V87.6777L360.073 87.7793V88.084H360.174V88.3887H360.274V88.6943L360.477 88.8975V88.999H360.577V89.2021C360.779 87.4755 361.081 85.545 361.585 83.7168C364.912 70.9196 374.69 62.3887 383.561 64.7246C392.331 67.0606 396.767 79.3501 393.541 92.1475C393.037 94.0772 392.431 95.8037 391.625 97.5303L391.928 97.4287H395.759C408.863 96.6164 419.952 103.422 420.456 112.562L422.674 110.835C423.178 119.976 412.996 128 399.892 128.812H394.952V129.625H395.153V130.539H395.254V131.352H395.355V131.859L395.557 132.266V132.57H395.759V133.281C400.597 145.571 397.674 158.267 389.206 161.619ZM-81.333 166.998C-85.8693 170.959 -87.8855 169.74 -88.8936 165.475C-93.6311 146.076 -79.6195 125.763 -77.4014 122.817C-75.1836 119.872 -75.0834 118.45 -78.9141 121.802C-97.8648 137.544 -96.7566 157.146 -97.3613 162.326C-97.8654 167.608 -99.881 164.967 -101.595 161.412C-122.159 119.668 -80.93 89.8078 -40.0029 90.3154L-39.9014 90.417C-36.777 89.7065 -35.9706 93.5653 -38.5908 95.5967C-46.5545 102.605 -49.2766 116.012 -56.333 136.731C-63.3893 157.552 -76.8974 163.037 -81.333 166.998ZM82.8721 194.741C81.0576 195.147 78.9402 194.03 78.1338 192.304C78.1338 192.304 65.5336 166.607 76.1182 145.278C86.7028 123.949 114.727 118.77 114.727 118.77C116.541 118.465 118.657 119.582 119.464 121.207C119.464 121.207 132.166 146.903 121.48 168.232C110.913 189.526 82.9642 194.724 82.8721 194.741ZM5.06836 230.167C2.95122 249.566 -14.7913 258.504 -20.9404 256.777C-26.2828 255.254 -25.6779 252.714 -29.2061 251.19C-32.7342 249.565 -34.146 251.8 -38.8838 248.854C-43.2183 246.01 -47.5526 226.713 -37.0693 212.393C-54.7102 216.963 -69.1252 204.775 -69.9316 198.579L-70.2344 198.681C-70.9399 193.196 -68.42 192.688 -68.4199 188.829C-68.4199 184.868 -70.9393 184.461 -70.1328 178.875C-69.4263 173.39 -51.6851 160.594 -33.3389 166.789C-41.4032 149.421 -31.4244 132.663 -25.376 130.834C-20.0333 129.209 -19.2261 131.647 -15.3955 131.037C-11.5651 130.428 -11.5649 127.686 -5.91992 127.686C-1.18206 127.686 10.5112 138.858 12.0234 154.093C22.507 144.038 37.1235 144.038 41.2568 147.491C45.4906 151.046 43.9792 153.077 46.499 156.022C49.12 158.968 51.3379 157.547 54.4629 162.219C57.4867 166.891 52.7482 188.626 34.6035 196.243C54.5631 205.384 55.7733 227.526 51.3379 232.808C47.8098 237.175 45.7934 235.448 42.8701 238.089C39.9468 240.628 41.3577 242.862 36.7207 246.011C32.4868 248.855 13.9394 245.097 5.06836 230.167ZM450.908 167.524C442.441 167.524 435.586 160.617 435.586 152.086C435.586 143.554 442.441 136.647 450.908 136.647C459.376 136.648 466.23 143.554 466.23 152.086C466.23 160.617 459.376 167.524 450.908 167.524ZM173.214 181.837C154.91 191.564 135.101 184.409 135.009 184.376C133.698 183.868 133.093 182.345 133.496 181.024C133.496 181.024 140.351 159.695 158.799 149.944C177.11 140.213 196.927 147.377 197.004 147.405C198.314 147.913 199.02 149.335 198.517 150.757C198.517 150.757 191.661 172.087 173.214 181.837ZM290.143 208.521C291.554 212.787 290.445 215.023 284.497 213.905C278.449 212.788 263.832 215.327 246.493 200.904C229.155 186.482 219.477 176.122 208.792 174.294C205.466 173.888 203.954 170.13 207.179 169.013C242.158 146.465 294.073 150.324 298.912 198.162C299.416 202.225 299.114 205.576 295.787 201.209C292.46 196.943 282.783 179.169 257.885 175.513C252.744 174.599 253.55 175.817 257.078 177.239C260.606 178.661 283.792 188.919 290.143 208.521ZM366.374 286.646C362.14 286.645 358.713 275.27 358.713 261.355C358.713 259.934 358.813 258.613 358.813 257.191C358.209 258.41 357.604 259.629 356.898 260.848C349.943 272.934 341.274 280.958 337.645 278.825C333.915 276.692 336.536 265.114 343.491 253.027C344.197 251.91 344.903 250.691 345.608 249.574C344.399 250.285 343.29 250.996 342.08 251.707C329.983 258.614 318.593 261.356 316.476 257.598C314.258 253.84 322.323 245.206 334.318 238.198C335.528 237.487 336.636 236.878 337.846 236.269H333.813C319.902 236.268 308.713 232.816 308.713 228.55C308.713 224.284 319.903 220.831 333.813 220.831C335.225 220.831 336.637 220.933 337.947 220.933C336.738 220.222 335.528 219.612 334.318 218.901C322.322 211.995 314.359 203.361 316.476 199.604C318.593 195.846 330.084 198.486 342.08 205.494C343.29 206.205 344.5 206.916 345.608 207.627C344.903 206.408 344.197 205.291 343.491 204.072C336.536 191.986 333.915 180.407 337.645 178.274C341.374 176.142 349.943 184.267 356.898 196.354C357.604 197.572 358.209 198.791 358.813 200.01C358.713 198.689 358.713 197.369 358.713 195.947C358.713 181.931 362.14 170.658 366.374 170.657C370.608 170.657 374.035 181.931 374.035 195.947C374.035 197.268 373.935 198.689 373.935 200.01C374.539 198.791 375.144 197.572 375.85 196.354C382.805 184.166 391.474 176.142 395.104 178.274C398.833 180.407 396.212 191.986 389.257 204.072C388.551 205.291 387.846 206.408 387.141 207.525C388.249 206.815 389.459 206.103 390.668 205.393C402.664 198.384 414.157 195.744 416.273 199.502C418.39 203.158 410.426 211.792 398.431 218.8C397.221 219.612 396.011 220.222 394.802 220.831C396.213 220.73 397.523 220.729 398.935 220.729C412.846 220.73 424.035 224.182 424.035 228.448C424.035 232.714 412.846 236.167 398.935 236.167H394.802C396.011 236.776 397.221 237.386 398.431 238.097C410.426 245.105 418.39 253.738 416.273 257.496C414.157 261.254 402.664 258.614 390.668 251.605C389.459 250.895 388.249 250.183 387.141 249.473C387.846 250.59 388.551 251.809 389.257 253.027C396.212 265.114 398.833 276.692 395.104 278.825C391.374 281.059 382.805 272.934 375.85 260.848C375.144 259.629 374.539 258.41 373.935 257.191C374.035 258.613 374.035 259.934 374.035 261.355C374.035 275.27 370.608 286.646 366.374 286.646ZM-101.302 228.139C-101.302 228.139 -124.689 229.764 -137.391 214.123C-150.092 198.482 -145.253 174.105 -145.253 174.105C-144.951 172.481 -143.439 171.16 -141.927 171.059C-141.927 171.059 -118.539 169.434 -105.838 185.075C-93.1508 200.699 -97.9649 225.038 -97.9756 225.092C-98.3788 226.717 -99.7897 228.037 -101.302 228.139ZM-10.4561 210.361C-1.28278 214.424 9.50296 210.259 13.5352 200.915C17.5673 191.672 13.4343 180.906 4.16016 176.742C-5.01307 172.68 -15.7989 176.845 -19.8311 186.188V186.087C-23.8631 195.431 -19.6293 206.299 -10.4561 210.361ZM460.377 258.809C456.546 262.567 454.732 261.551 453.623 257.793C448.583 240.527 460.377 221.635 462.292 218.893C464.207 216.151 464.207 214.932 460.881 218.08C444.45 233.01 446.163 250.582 445.86 255.355C445.558 260.129 443.744 257.895 442.03 254.746C421.869 217.877 457.857 189.337 494.752 188.22V188.118C497.574 187.306 498.38 190.86 496.163 192.79C489.207 199.392 487.292 211.682 481.748 230.573C476.204 249.566 464.208 255.051 460.377 258.809ZM366.173 249.371C377.765 249.371 387.241 239.824 387.241 228.144C387.241 216.463 377.866 206.916 366.173 206.916C354.58 206.916 345.105 216.463 345.104 228.144C345.104 239.824 354.58 249.371 366.173 249.371ZM-68.0459 262.669C-74.699 262.669 -80.1424 257.185 -80.1426 250.481C-80.1426 243.778 -74.6991 238.293 -68.0459 238.293C-61.3927 238.293 -55.9492 243.778 -55.9492 250.481C-55.9494 257.185 -61.3929 262.669 -68.0459 262.669ZM-140.005 299.774C-168.073 302.612 -191.221 277.632 -191.314 277.531C-192.826 275.906 -193.129 273.063 -192.021 271.133C-192.021 271.133 -174.38 241.78 -146.255 238.834H-146.154C-118.058 235.892 -94.891 261.026 -94.8438 261.077C-93.3317 262.702 -93.1305 265.546 -94.2393 267.476C-94.2393 267.476 -111.88 296.829 -140.005 299.774ZM529.634 251.536C528.323 314.203 481.146 376.057 419.05 342.438C413.808 339.595 409.978 336.445 417.941 335.938C425.906 335.328 455.442 337.867 480.139 309.835C485.38 304.148 483.364 304.147 478.727 307.397C474.089 310.648 442.739 331.164 413.707 322.836C407.356 321.008 405.542 317.96 411.792 311.257C418.042 304.553 427.014 284.139 458.667 274.389C490.32 264.638 510.784 261.185 521.771 249.302C524.896 245.544 530.844 246.763 529.533 251.739L529.634 251.536ZM-27.1211 346.359C-27.1212 349.203 -30.3462 350.726 -31.4551 348.086H-31.5566C-53.2297 319.749 -53.7335 275.06 -13.7139 267.341C-10.2865 266.63 -7.46336 266.63 -10.8906 269.88C-14.318 273.028 -28.5325 282.677 -29.7422 304.209C-30.1454 308.678 -29.1367 307.865 -28.2295 304.717C-27.322 301.568 -20.3667 281.052 -4.23828 274.146C-0.71008 272.622 1.2052 273.333 0.701172 278.614C0.197145 283.896 3.42299 296.185 -7.46387 312.131C-18.3509 328.077 -26.3146 337.015 -27.1211 346.359ZM375.307 380.49C374.198 381.303 372.585 381.099 371.678 379.982C371.678 379.982 357.363 362.817 358.976 341.895C360.589 321.074 377.121 307.972 377.121 307.972C378.23 307.058 379.843 307.261 380.75 308.378C380.798 308.435 395.061 325.577 393.451 346.465V346.566C391.841 367.355 375.358 380.449 375.307 380.49ZM-198.47 397.375C-203.409 400.32 -209.356 396.563 -206.029 391.688H-205.929C-180.526 323.638 -105.325 274.378 -50.3857 335.317C-45.6479 340.396 -42.7248 345.373 -51.5957 342.936C-60.5679 340.498 -91.8175 326.279 -129.619 347.303C-137.482 351.568 -135.264 352.279 -129.014 350.553C-122.762 348.826 -80.627 338.568 -52.0996 358.982C-45.8497 363.451 -45.0428 367.514 -54.5186 372.288C-63.8935 377.163 -81.5345 396.055 -119.941 394.43C-158.248 392.805 -181.938 388.64 -198.47 397.375ZM530.561 387.637C520.883 387.637 513.121 379.816 513.121 370.065C513.121 360.315 520.883 352.494 530.561 352.494C540.238 352.494 548 360.315 548 370.065C548 379.816 540.238 387.637 530.561 387.637ZM543.877 436.46C492.97 493.54 400.128 512.838 369.281 431.687C366.56 424.882 365.551 418.788 373.414 424.679C381.277 430.57 406.579 456.672 451.74 450.477C461.115 449.359 459.2 447.734 452.346 447.023C445.491 446.312 400.128 440.117 379.866 408.936C375.431 402.131 376.237 397.865 387.325 396.748C398.414 395.631 423.011 383.849 460.107 400.303C497.204 416.756 518.877 430.062 538.534 427.827C544.482 426.811 548.917 432.702 543.877 436.358V436.46ZM-149.492 565.562C-151.811 568.71 -157.456 571.35 -157.355 558.654L-157.456 558.756C-157.254 526.457 -160.076 414.329 -36.2871 395.742C-30.2388 393.508 -27.9204 396.758 -34.876 400.719C-41.8316 404.781 -105.138 455.159 -113.102 493.449C-115.42 504.823 -109.877 496.7 -109.372 494.363C-108.868 492.129 -74.3921 437.993 -18.6465 406.812C-12.195 402.344 -9.87677 406.406 -13.6064 417.273C-17.3363 428.141 -4.33185 485.324 -64.1094 525.646C-85.9842 540.373 -134.472 545.35 -149.492 565.562ZM-124.65 422.06C-142.796 456.897 -183.118 443.083 -202.674 414.441L-202.372 414.645C-204.489 412.715 -202.17 410.277 -199.549 411.09C-190.98 413.223 -180.597 408.348 -163.158 403.066C-145.82 397.683 -135.436 404.387 -130.598 405.504C-125.76 406.621 -125.658 408.652 -127.977 411.395C-138.762 424.293 -159.226 424.497 -162.352 424.497C-165.577 424.396 -166.485 425.005 -162.352 426.021C-142.594 431.302 -129.892 420.941 -126.062 418.707C-122.332 416.473 -123.038 419.114 -124.65 422.06ZM358.505 511.728C356.69 519.243 351.044 524.424 345.903 523.205C340.762 521.986 337.94 514.876 339.653 507.36V506.954H339.755V505.126H337.234C329.573 505.837 323.021 501.977 322.517 496.695C322.013 491.312 327.86 486.438 335.521 485.828H338.344C337.739 484.914 337.234 483.898 336.831 482.883C333.807 475.773 335.42 468.257 340.259 466.124C345.198 463.991 351.549 468.155 354.573 475.265C354.976 476.28 355.379 477.297 355.581 478.414V478.109L355.682 478.008L355.884 477.805H355.984V477.602C361.831 472.523 369.291 471.711 372.819 475.773L374.432 475.977C377.96 480.039 376.045 487.453 370.198 492.531L369.996 492.734L369.694 493.039L369.492 493.242H369.291V493.547H369.896V493.648L370.097 493.75H370.198C376.751 497.813 379.875 504.821 377.153 509.392C374.431 513.962 366.871 514.47 360.218 510.509L359.916 510.306L359.714 510.103L359.513 509.899L358.907 509.493L358.505 509.087V511.728ZM-16.2832 563.613C-18.6017 565.34 -20.5174 562.496 -19.207 559.957C-15.2756 551.425 -17.9972 539.745 -19.7109 520.65C-21.4245 501.556 -12.5534 492.212 -10.4365 487.438C-8.31965 482.563 -6.30382 482.868 -3.98535 485.915C6.70006 499.627 2.76912 520.956 2.06348 524.104C1.35797 527.253 1.86239 528.37 3.67676 524.308C13.0517 505.01 5.28924 489.673 3.87793 485.306C2.46668 480.938 4.98653 482.259 7.60742 484.493C38.958 510.393 16.5793 549.191 -16.1826 563.512L-16.2832 563.613ZM509.889 519.622C501.421 519.622 494.566 512.715 494.566 504.184C494.567 495.652 501.421 488.746 509.889 488.746C518.356 488.746 525.211 495.652 525.211 504.184C525.211 512.715 518.356 519.622 509.889 519.622ZM479.438 592.873C479.302 592.878 444.624 594.046 426.313 570.529C407.967 546.966 416.031 511.62 416.031 511.62C416.535 509.386 418.753 507.355 421.071 507.354C421.071 507.354 455.85 506.136 474.196 529.699L474.297 529.598C492.612 553.12 484.507 588.485 484.479 588.607C483.974 590.943 481.756 592.771 479.438 592.873ZM371.675 700.922C368.449 705.797 362.804 701.734 363.61 696.047C365.223 677.257 352.32 656.842 336.09 621.802C319.961 586.762 330.445 563.096 331.252 552.533C332.159 541.97 336.191 541.157 342.643 545.22C372.38 563.908 379.134 607.073 379.94 613.574C380.747 620.074 382.361 621.801 383.167 612.863C388.006 569.596 362.905 545.931 357.26 538.618C351.615 531.305 357.259 532.118 363.711 534.556C440.626 562.283 424.396 651.154 371.775 700.922H371.675ZM85.626 568.406C85.5372 568.427 67.2434 572.752 52.2598 563.633C37.2397 554.492 33.7109 536.921 33.7109 536.921C33.5095 535.804 34.2154 534.585 35.4248 534.382C35.4248 534.382 53.7719 530.014 68.792 539.155C83.7716 548.272 87.3208 565.773 87.3398 565.867C87.5415 566.984 86.7348 568.102 85.626 568.406ZM169.895 750.498C167.677 754.358 161.628 758.115 160.116 743.692L160.016 743.794C156.185 707.026 138.846 579.967 277.151 543.099C283.704 539.747 286.728 543.098 279.369 548.583C272.01 554.068 206.487 619.375 202.152 663.861C200.943 677.065 206.184 667.111 206.486 664.471C206.789 661.829 239.148 595.913 298.522 553.356C305.377 547.466 308.502 551.834 305.579 564.631C302.656 577.428 324.732 640.704 261.829 694.229C238.946 713.73 184.31 725.614 169.895 750.498ZM-43.0127 653.427C-46.6416 658.505 -46.3395 659.825 -49.666 658.81C-52.9931 657.794 -66.0969 657.184 -73.2539 643.066C-79.6735 630.403 -69.7125 616.105 -67.5186 610.948C-68.9624 610.617 -70.3113 609.808 -71.3379 608.525C-73.359 613.131 -79.2956 624.998 -89.3018 631.611C-101.902 639.939 -110.572 631.204 -115.612 627.548C-120.652 623.892 -121.962 624.196 -120.854 620.845C-119.845 617.493 -119.24 604.289 -105.229 597.18C-92.0299 590.387 -77.0425 601.708 -72.7354 603.215C-72.5091 601.699 -71.7898 600.257 -70.6104 599.169C-74.8579 597.318 -87.1556 591.282 -93.9189 580.895C-102.185 568.199 -93.5159 559.464 -89.8867 554.386C-86.2578 549.307 -86.6606 547.986 -83.2334 549.104C-79.9068 550.221 -66.8015 550.729 -59.7451 564.847C-53.0994 577.956 -63.9222 592.817 -65.6641 597.395C-64.1562 597.457 -62.6833 598.002 -61.5039 599.004C-59.312 594.119 -53.439 582.771 -43.7393 576.36C-31.1386 568.032 -22.469 576.766 -17.4287 580.423C-12.3884 584.079 -11.0786 583.674 -12.1875 587.025C-13.2963 590.378 -13.8003 603.581 -27.8115 610.792C-40.0367 616.995 -53.7976 607.736 -59.1836 605.206C-59.3907 606.671 -60.0565 608.072 -61.1533 609.153C-56.155 611.463 -45.2159 617.341 -38.9805 626.918C-30.7145 639.614 -39.3837 648.348 -43.0127 653.427ZM152.827 618.8C148.291 621.643 141.336 618.597 137.304 611.894L137.102 611.589V611.386H137.001L136.9 611.081V610.979L136.698 611.284L136.497 611.589L136.295 611.894C131.356 617.784 123.997 619.714 119.965 616.261C115.933 612.807 116.638 605.19 121.679 599.299L121.88 599.096V598.893H122.082L122.283 598.689V598.486L122.384 598.385C121.275 598.182 120.267 597.775 119.259 597.369C112.102 594.424 108.07 588.025 110.086 583.048C112.102 578.071 119.562 576.446 126.618 579.392C127.626 579.798 128.634 580.407 129.541 580.915V577.868C130.146 570.048 134.884 564.157 140.227 564.563L141.537 564.462C146.88 564.868 150.609 571.47 150.105 579.188V581.728H151.416C158.876 579.899 165.932 582.642 167.242 587.822C168.452 593.104 163.412 598.791 155.952 600.518H155.549V600.619H153.331V601.229L153.533 601.432L153.734 601.736C157.767 608.338 157.363 615.956 152.827 618.8ZM73.7285 646.29C71.2085 658.985 65.8662 668.634 61.834 667.822C57.8018 667.01 56.4906 656.04 59.0107 643.345C59.1115 643.142 59.1113 643.04 59.1113 642.837C59.0107 642.938 58.9102 643.04 58.709 643.142C48.0236 650.251 37.5392 653.298 35.2207 649.845C33.0033 646.391 39.7571 637.758 50.4424 630.547C50.6438 630.445 50.8454 630.242 50.9463 630.242C50.845 630.141 50.4424 630.141 50.4424 630.141L50.3418 630.344C37.7412 627.805 28.1645 622.422 28.9707 618.359C29.7771 614.297 40.6641 612.977 53.2646 615.516C53.3655 615.617 53.5679 615.617 53.7695 615.617C53.6688 615.516 53.4672 615.313 53.4668 615.211C46.4105 604.445 43.3863 593.882 46.8135 591.546C50.2409 589.311 58.8096 596.116 65.9668 606.882C66.0675 606.983 66.268 607.186 66.2686 607.288C66.3694 607.187 66.3701 606.983 66.3701 606.78C68.8902 594.085 74.2325 584.436 78.2646 585.248C82.2968 586.061 83.6079 597.03 81.0879 609.726C80.9871 609.827 80.9863 610.031 80.9863 610.234C81.0871 610.133 81.2888 609.93 81.3896 609.93C92.075 602.82 102.559 599.772 104.878 603.226C107.196 606.679 100.342 615.312 89.6562 622.523C89.4549 622.625 89.2533 622.828 89.1523 622.828H89.6562C102.257 625.367 111.833 630.649 111.026 634.813C110.219 638.876 99.3326 640.196 86.7324 637.657C86.6316 637.556 86.4301 637.556 86.2285 637.556C86.3293 637.657 86.4305 637.86 86.5312 637.962C93.6882 648.728 96.6117 659.291 93.1846 661.627C89.7572 663.861 81.1885 657.056 74.0312 646.29C73.9304 646.087 73.7285 645.985 73.7285 645.782V646.29ZM4.14258 635.953C-5.43388 635.953 -13.2968 628.032 -13.2969 618.383C-13.2969 608.734 -5.53475 600.812 4.14258 600.812C13.8199 600.812 21.582 608.632 21.582 618.383C21.5819 628.133 13.7191 635.953 4.14258 635.953ZM60.8047 721.743C21.3897 735.353 -28.005 719.102 -21.5537 671.468C-21.0497 667.405 -19.9414 664.257 -17.7236 669.233C-15.5058 674.211 -10.2633 693.812 13.0225 703.258C17.7602 705.391 17.3572 704.07 14.2324 701.836C11.1074 699.601 -8.95276 684.163 -10.4648 663.545C-10.7672 659.076 -9.25516 657.146 -3.71094 659.686C1.83353 662.225 16.7522 663.342 30.1592 681.421C43.667 699.601 50.5223 711.89 60.502 716.258C63.6269 717.477 64.1311 721.54 60.8047 721.845V721.743ZM86.2002 750.698C83.3776 752.425 81.3613 748.971 83.1758 746.127C88.5182 736.681 86.6035 722.869 86.6035 700.626C86.6035 678.383 97.7924 668.531 100.716 663.249C103.639 657.968 105.958 658.476 108.377 662.233C119.365 679.297 112.51 703.47 111.401 707.024C110.192 710.579 110.595 711.899 113.216 707.431C126.119 686 118.76 667.515 117.551 662.335C116.341 657.155 119.063 658.983 121.886 661.827C155.454 695.141 125.615 737.495 86.0996 750.698H86.2002ZM284.077 736.085C282.464 736.085 280.751 734.967 280.247 733.443C280.213 733.338 272.511 709.64 284.279 692.614C296.074 675.551 320.872 674.637 320.872 674.637C322.485 674.637 324.198 675.754 324.702 677.277C324.702 677.277 332.364 701.044 320.569 718.107H320.67C308.876 735.17 284.077 736.085 284.077 736.085Z" fill="#FEF6F3"/>
</g>
</svg>
