<svg width="1060" height="1060" viewBox="0 0 1060 1060" fill="none" xmlns="http://www.w3.org/2000/svg">
<mask id="mask0_293_35" style="mask-type:alpha" maskUnits="userSpaceOnUse" x="0" y="0" width="1060" height="1060">
<rect width="1060" height="1060" fill="#D9D9D9"/>
</mask>
<g mask="url(#mask0_293_35)">
<path d="M1411.45 384.656C1400.97 407.485 1403.24 412.621 1389.07 410.909C1374.91 409.197 1322.52 416.902 1283.43 366.108C1248.48 320.69 1276.94 256.563 1281.94 234.317C1275.96 234.137 1270 231.974 1265.07 227.744C1260.42 247.912 1245.75 299.275 1211.34 333.049C1167.44 375.853 1126.09 347.888 1103.43 337.044C1080.77 326.486 1075.68 328.768 1077.38 314.5C1079.07 300.232 1071.14 247.441 1121.84 208.062C1168.61 171.53 1235.36 203.514 1254.95 206.964C1254.82 201.067 1256.54 195.105 1260.13 190.033C1241.29 185.682 1188.51 170.867 1154.11 135.285C1111.63 91.0546 1139.38 49.6776 1149.86 26.5635C1160.34 3.44934 1158.07 -1.40161 1172.24 0.310547C1186.4 2.02247 1238.79 -5.96734 1277.88 45.1113C1313.73 91.7023 1283.1 157.981 1279.09 178.541C1285.13 177.735 1291.4 178.912 1296.85 182.159C1301.77 161.379 1316.56 111.292 1350.62 77.8643C1394.24 35.0606 1435.59 63.0253 1458.53 73.8691C1481.18 84.4275 1486.28 82.1451 1484.58 96.4131C1482.88 110.681 1490.53 163.473 1440.12 202.853C1395.75 237.506 1333.4 210.288 1310.39 204.617C1310.74 210.685 1309.15 216.871 1305.52 222.127C1327.05 227.435 1375.31 242.435 1407.48 275.935C1449.97 319.88 1422.21 361.542 1411.45 384.656ZM1003.17 239.692C1005.15 255.102 1000.34 262.235 980.793 255.672C961.251 248.823 909.988 250.82 860.424 192.607C810.86 134.394 784.804 93.8735 749.968 82.459C739.206 79.6054 736.373 65.6232 747.985 63.0547L748.268 63.3398C880.532 1.13145 1053.3 39.3694 1039.7 207.731C1038.85 221.999 1035.74 233.414 1026.96 216.863C1018.46 200.312 996.654 134.109 915.086 109.854C898.376 104.432 900.359 108.712 911.405 115.275C922.451 121.839 994.105 168.353 1003.17 239.692ZM792.969 348.386C672.316 380.631 615.955 254.502 639.462 145.78C639.462 136.649 649.941 136.935 653.906 144.925C667.784 170.036 701.771 184.304 752.468 214.267C803.165 244.229 810.246 283.324 818.459 297.307C826.672 311.289 822.141 315.855 810.529 316.426C757 318.994 711.118 270.483 704.604 263.063C698.09 255.359 694.407 254.503 701.204 266.487C732.359 325.271 784.189 333.262 797.783 337.542C811.095 341.822 803.165 345.818 792.969 348.386ZM521.996 239.446C498.206 239.446 478.947 220.042 478.947 196.071C478.947 172.101 498.206 152.697 521.996 152.697C545.787 152.697 565.046 172.101 565.046 196.071C565.046 220.041 545.787 239.446 521.996 239.446ZM1674.28 456.849C1650.49 466.265 1620.18 445.719 1606.87 411.19L1606.3 409.479L1605.74 408.052V407.767L1604.6 404.913L1604.04 403.2V401.773H1603.47V400.347H1603.19V397.493H1602.9V399.205L1602.62 399.491V400.062L1602.34 400.632V401.203L1602.05 401.773L1601.77 402.345V403.771L1601.2 404.342L1600.07 405.483L1599.22 406.34C1570.62 430.025 1534.36 432.877 1518.22 412.902C1502.08 392.927 1511.99 357.828 1540.59 334.144L1542.01 333.002L1542.86 332.146L1543.99 331.29L1544.56 330.72H1545.13V329.863L1545.41 329.578L1545.69 329.292V329.007L1545.98 328.722H1544.84V328.437H1543.99V328.151H1543.14V327.58L1541.73 327.01L1538.9 325.297C1507.74 305.322 1493.86 271.364 1507.74 249.677C1521.62 227.99 1557.87 226.563 1589.03 246.538L1590.16 247.395L1591.86 248.535V248.821H1592.14V249.106L1592.43 249.392V250.248H1592.71V251.104H1592.99V251.96L1593.56 252.53V252.816H1593.84V253.387C1594.41 248.536 1595.26 243.114 1596.67 237.978C1606.02 202.022 1633.49 178.052 1658.42 184.615C1683.06 191.179 1695.52 225.707 1686.45 261.662C1685.04 267.084 1683.34 271.935 1681.07 276.786L1681.92 276.501H1692.68C1729.5 274.218 1760.66 293.337 1762.07 319.02L1768.31 314.168C1769.72 339.85 1741.12 362.394 1704.3 364.677H1690.42V366.96H1690.99V369.528H1691.27V371.811H1691.55V373.237L1692.12 374.379V375.235H1692.68V377.232C1706.28 411.761 1698.07 447.432 1674.28 456.849ZM352.302 471.966C339.557 483.095 333.892 479.671 331.06 467.686C317.749 413.183 357.115 356.111 363.347 347.835C369.578 339.56 369.861 335.565 359.099 344.981C305.853 389.212 308.969 444.287 307.27 458.84C305.854 473.678 300.189 466.259 295.374 456.271C237.597 338.989 353.435 255.093 468.423 256.52L468.706 256.805C477.486 254.808 479.751 265.651 472.388 271.358C450.013 291.048 442.366 328.715 422.54 386.929C402.715 445.427 364.764 460.837 352.302 471.966ZM813.621 549.926C808.523 551.067 802.576 547.928 800.31 543.077C800.23 542.915 764.94 470.814 794.645 410.956C824.371 351.054 903.057 336.489 903.119 336.478C908.217 335.621 914.165 338.76 916.431 343.326C916.522 343.511 952.078 415.599 922.095 475.447C892.385 535.315 813.772 549.898 813.621 549.926ZM595.042 649.438C589.095 703.942 539.247 729.054 521.971 724.203C506.96 719.923 508.659 712.788 498.746 708.508C488.834 703.943 484.869 710.22 471.558 701.945C459.379 693.955 447.2 639.737 476.656 599.501C427.092 612.342 386.592 578.099 384.325 560.692L383.475 560.978C381.492 545.568 388.573 544.141 388.573 533.298C388.573 522.169 381.493 521.027 383.759 505.332C385.742 489.922 435.589 453.967 487.135 471.374C464.477 422.578 492.516 375.494 509.509 370.357C524.52 365.792 526.786 372.64 537.548 370.928C548.311 369.216 548.311 361.511 564.171 361.511C577.483 361.511 610.336 392.9 614.584 435.704C644.039 407.453 685.107 407.454 696.719 417.156C708.614 427.144 704.366 432.851 711.447 441.126C718.81 449.401 725.042 445.407 733.822 458.533C742.318 471.66 729.006 532.727 678.027 554.129C734.104 579.811 737.503 642.02 725.041 656.858C715.129 669.129 709.464 664.278 701.25 671.697C693.037 678.831 697.002 685.109 683.974 693.955C672.078 701.945 619.966 691.386 595.042 649.438ZM1847.67 473.448C1823.88 473.448 1804.62 454.043 1804.62 430.073C1804.62 406.103 1823.88 386.699 1847.67 386.699C1871.46 386.699 1890.72 406.103 1890.72 430.073C1890.72 454.043 1871.46 473.448 1847.67 473.448ZM1067.45 513.67C1015.9 541.064 960.11 520.805 960.11 520.805C956.428 519.378 954.729 515.097 955.862 511.388C955.862 511.388 975.121 451.462 1026.95 424.067C1078.46 396.692 1134.21 416.905 1134.29 416.934C1137.97 418.36 1139.96 422.356 1138.54 426.351C1138.5 426.486 1119.22 486.306 1067.45 513.67ZM1395.98 588.632C1399.95 600.617 1396.83 606.895 1380.12 603.756C1363.13 600.617 1322.06 607.751 1273.35 567.229C1224.63 526.709 1197.44 497.602 1167.42 492.466C1158.08 491.324 1153.83 480.766 1162.89 477.627C1261.17 414.277 1407.03 425.121 1420.62 559.525C1422.04 570.94 1421.19 580.356 1411.84 568.086C1402.5 556.101 1375.31 506.163 1305.35 495.89C1290.91 493.322 1293.17 496.746 1303.09 500.741C1313 504.736 1378.14 533.557 1395.98 588.632ZM1610.14 808.129C1598.25 808.129 1588.62 776.168 1588.62 737.074C1588.62 733.079 1588.9 729.37 1588.9 725.375C1587.2 728.799 1585.5 732.223 1583.52 735.647C1563.98 769.605 1539.62 792.148 1529.43 786.156C1518.95 780.164 1526.31 747.633 1545.85 713.675C1547.83 710.536 1549.82 707.112 1551.8 703.973C1548.4 705.97 1545.29 707.967 1541.89 709.965C1507.9 729.369 1475.9 737.074 1469.95 726.516C1463.72 715.957 1486.38 691.702 1520.08 672.013C1523.48 670.015 1526.59 668.303 1529.99 666.591H1518.66C1479.58 666.591 1448.14 656.888 1448.14 644.903C1448.14 632.918 1479.58 623.216 1518.66 623.216C1522.63 623.216 1526.59 623.501 1530.27 623.501C1526.88 621.503 1523.48 619.791 1520.08 617.794C1486.37 598.389 1464 574.134 1469.95 563.575C1475.9 553.018 1508.18 560.437 1541.89 580.127C1545.29 582.124 1548.68 584.122 1551.8 586.119C1549.82 582.695 1547.83 579.556 1545.85 576.132C1526.31 542.174 1518.95 509.643 1529.43 503.65C1539.9 497.658 1563.98 520.487 1583.52 554.444C1585.5 557.869 1587.2 561.293 1588.9 564.717C1588.62 561.007 1588.62 557.298 1588.62 553.303C1588.62 513.923 1598.25 482.248 1610.14 482.248C1622.04 482.248 1631.67 513.923 1631.67 553.303C1631.67 557.012 1631.39 561.007 1631.39 564.717C1633.08 561.293 1634.78 557.868 1636.77 554.444C1656.31 520.201 1680.67 497.658 1690.86 503.65C1701.34 509.643 1693.98 542.174 1674.43 576.132C1672.45 579.556 1670.47 582.695 1668.49 585.834C1671.6 583.836 1675 581.838 1678.4 579.841C1712.1 560.151 1744.39 552.732 1750.34 563.29C1756.29 573.563 1733.91 597.819 1700.21 617.509C1696.81 619.791 1693.41 621.504 1690.01 623.216C1693.98 622.93 1697.66 622.931 1701.62 622.931C1740.71 622.931 1772.15 632.633 1772.15 644.618C1772.15 656.603 1740.71 666.305 1701.62 666.305H1690.01C1693.41 668.017 1696.81 669.729 1700.21 671.727C1733.91 691.416 1756.29 715.672 1750.34 726.23C1744.39 736.789 1712.1 729.369 1678.4 709.68C1675 707.682 1671.6 705.685 1668.49 703.688C1670.47 706.826 1672.45 710.251 1674.43 713.675C1693.98 747.632 1701.34 780.163 1690.86 786.156C1680.38 792.434 1656.31 769.605 1636.77 735.647C1634.78 732.223 1633.08 728.799 1631.39 725.375C1631.67 729.37 1631.67 733.079 1631.67 737.074C1631.67 776.168 1622.04 808.129 1610.14 808.129ZM296.183 643.746C296.183 643.746 230.475 648.312 194.789 604.366C159.135 560.459 172.674 492.055 172.698 491.935C173.547 487.369 177.796 483.659 182.044 483.374C182.162 483.366 247.784 478.847 283.438 522.753C319.124 566.698 305.529 635.186 305.529 635.186C304.396 639.751 300.431 643.461 296.183 643.746ZM551.426 593.794C577.199 605.208 607.504 593.508 618.833 567.255C630.162 541.287 618.55 511.04 592.493 499.34C566.72 487.925 536.415 499.625 525.086 525.878V525.593C513.757 551.846 525.653 582.38 551.426 593.794ZM1874.25 729.906C1863.49 740.464 1858.39 737.611 1855.28 727.053C1841.12 678.542 1874.25 625.465 1879.64 617.76C1885.02 610.055 1885.02 606.631 1875.67 615.477C1829.5 657.424 1834.32 706.792 1833.47 720.204C1832.62 733.615 1827.52 727.337 1822.71 718.491C1766.06 614.906 1867.17 534.72 1970.83 531.581V531.296C1978.76 529.013 1981.03 539 1974.8 544.422C1955.26 562.97 1949.87 597.499 1934.3 650.576C1918.72 703.938 1885.02 719.348 1874.25 729.906ZM1609.58 703.401C1642.15 703.401 1668.77 676.578 1668.77 643.762C1668.77 610.945 1642.43 584.121 1609.58 584.121C1577.01 584.121 1550.38 610.945 1550.38 643.762C1550.38 676.578 1577.01 703.401 1609.58 703.401ZM389.589 740.764C370.897 740.764 355.603 725.354 355.603 706.521C355.603 687.687 370.897 672.277 389.589 672.277C408.282 672.277 423.575 687.687 423.575 706.521C423.575 725.354 408.282 740.764 389.589 740.764ZM187.449 845.016C108.532 852.995 43.4566 782.702 43.2903 782.522C39.0421 777.957 38.1917 769.967 41.3069 764.545C41.3069 764.545 90.8709 682.075 169.89 673.8H170.173C249.156 665.528 314.274 736.23 314.333 736.294C318.582 740.86 319.148 748.85 316.032 754.271C316.032 754.271 266.468 836.74 187.449 845.016ZM2068.83 709.479C2065.14 885.546 1932.6 1059.33 1758.13 964.876C1743.4 956.886 1732.64 948.04 1755.02 946.613C1777.39 944.901 1860.37 952.035 1929.76 873.275C1944.49 857.296 1938.83 857.295 1925.8 866.427C1912.77 875.558 1824.69 933.201 1743.12 909.802C1725.28 904.665 1720.18 896.104 1737.74 877.271C1755.3 858.437 1780.51 801.08 1869.44 773.686C1958.37 746.291 2015.86 736.588 2046.73 703.201C2055.51 692.643 2072.22 696.067 2068.54 710.05L2068.83 709.479ZM504.586 975.9C504.586 983.89 495.523 988.171 492.407 980.752H492.124C431.232 901.137 429.815 775.578 542.254 753.891C551.884 751.893 559.814 751.893 550.185 761.024C540.555 769.871 500.621 796.98 497.222 857.477C496.089 870.032 498.922 867.749 501.471 858.903C504.02 850.057 523.562 792.414 568.877 773.01C578.79 768.729 584.171 770.727 582.755 785.565C581.339 800.404 590.403 834.933 559.815 879.734C529.227 924.536 506.852 949.647 504.586 975.9ZM1635.25 1071.79C1632.13 1074.07 1627.6 1073.5 1625.05 1070.36C1624.98 1070.27 1584.84 1022.08 1589.37 963.353C1593.9 904.903 1640.27 868.104 1640.35 868.042C1643.46 865.474 1647.99 866.045 1650.54 869.184C1650.54 869.184 1690.76 917.409 1686.23 976.193V976.479C1681.7 1034.98 1635.25 1071.79 1635.25 1071.79ZM23.175 1119.23C9.29723 1127.51 -7.41242 1116.95 1.93384 1103.25H2.21704C73.5891 912.059 284.873 773.66 439.229 944.876C452.54 959.144 460.753 973.126 435.83 966.277C410.624 959.429 322.825 919.479 216.616 978.548C194.525 990.533 200.756 992.531 218.316 987.68C235.876 982.828 354.263 954.007 434.414 1011.36C451.974 1023.92 454.239 1035.33 427.616 1048.75C401.277 1062.44 351.713 1115.52 243.805 1110.96C136.181 1106.39 69.6234 1094.69 23.175 1119.23ZM2071.44 1091.85C2044.25 1091.85 2022.45 1069.88 2022.45 1042.49C2022.45 1015.09 2044.25 993.12 2071.44 993.12C2098.63 993.12 2120.44 1015.09 2120.44 1042.49C2120.44 1069.88 2098.63 1091.85 2071.44 1091.85ZM2108.86 1229.05C1965.83 1389.42 1704.99 1443.64 1618.32 1215.64C1610.67 1196.52 1607.84 1179.4 1629.93 1195.95C1652.02 1212.5 1723.11 1285.84 1850 1268.43C1876.33 1265.29 1870.95 1260.73 1851.69 1258.73C1832.44 1256.73 1704.99 1239.32 1648.06 1151.72C1635.6 1132.6 1637.86 1120.61 1669.02 1117.47C1700.17 1114.34 1769.28 1081.23 1873.5 1127.46C1977.73 1173.69 2038.62 1211.07 2093.85 1204.79C2110.56 1201.94 2123.02 1218.49 2108.86 1228.76V1229.05ZM160.775 1591.76C154.261 1600.61 138.4 1608.03 138.683 1572.36L138.4 1572.64C138.966 1481.9 131.036 1166.86 478.833 1114.64C495.826 1108.36 502.34 1117.5 482.798 1128.62C463.255 1140.04 285.392 1281.58 263.018 1389.16C256.504 1421.12 272.081 1398.29 273.497 1391.73C274.913 1385.45 371.775 1233.35 528.397 1145.75C546.523 1133.19 553.037 1144.6 542.558 1175.14C532.079 1205.67 568.613 1366.33 400.663 1479.62C339.204 1520.99 202.975 1534.98 160.775 1591.76ZM230.575 1188.58C179.596 1286.46 66.3067 1247.65 11.3616 1167.18L12.2112 1167.75C6.2636 1162.33 12.7772 1155.48 20.1409 1157.76C44.2147 1163.76 73.3868 1150.06 122.384 1135.22C171.098 1120.1 200.271 1138.93 213.865 1142.07C227.46 1145.21 227.743 1150.91 221.229 1158.62C190.924 1194.86 133.432 1195.43 124.651 1195.43C115.588 1195.15 113.039 1196.86 124.651 1199.71C180.162 1214.55 215.848 1185.44 226.611 1179.17C237.089 1172.89 235.107 1180.31 230.575 1188.58ZM1588.05 1440.52C1582.95 1461.63 1567.09 1476.19 1552.64 1472.76C1538.2 1469.34 1530.27 1449.36 1535.08 1428.25V1427.1H1535.37V1421.97H1528.29C1506.76 1423.97 1488.35 1413.12 1486.94 1398.28C1485.52 1383.16 1501.95 1369.46 1523.47 1367.75H1531.4C1529.7 1365.18 1528.29 1362.33 1527.15 1359.47C1518.66 1339.5 1523.19 1318.38 1536.78 1312.39C1550.66 1306.4 1568.5 1318.1 1577 1338.07C1578.13 1340.93 1579.27 1343.78 1579.83 1346.92V1346.06L1580.68 1345.21H1580.97V1344.63C1597.39 1330.37 1618.35 1328.08 1628.26 1339.5L1632.8 1340.07C1642.71 1351.48 1637.33 1372.32 1620.9 1386.58L1620.33 1387.15L1620.05 1387.44L1618.92 1388.58H1618.35V1389.44H1620.05V1389.72L1620.62 1390.01H1620.9C1639.31 1401.42 1648.09 1421.11 1640.44 1433.95C1632.8 1446.79 1611.55 1448.22 1592.86 1437.09L1592.01 1436.52L1591.44 1435.95L1590.88 1435.38L1590.03 1434.81L1589.18 1434.24L1588.61 1433.67L1588.05 1433.1V1440.52ZM535.03 1586.29C528.516 1591.15 523.135 1583.16 526.817 1576.02C537.862 1552.05 530.215 1519.23 525.401 1465.59C520.586 1411.94 545.51 1385.69 551.457 1372.27C557.405 1358.58 563.069 1359.43 569.583 1367.99C599.605 1406.52 588.559 1466.44 586.576 1475.29C584.594 1484.14 586.01 1487.27 591.108 1475.86C617.447 1421.64 595.639 1378.55 591.674 1366.28C587.709 1354.01 594.79 1357.72 602.154 1364C690.236 1436.77 627.36 1545.77 535.313 1586.01L535.03 1586.29ZM2013.36 1462.7C1989.57 1462.7 1970.31 1443.3 1970.31 1419.33C1970.31 1395.36 1989.57 1375.95 2013.36 1375.95C2037.16 1375.95 2056.41 1395.36 2056.41 1419.33C2056.41 1443.3 2037.16 1462.7 2013.36 1462.7ZM1927.81 1668.49C1927.62 1668.5 1830.05 1671.85 1778.56 1605.71C1727.07 1539.58 1749.62 1440.43 1749.67 1440.2C1751.08 1433.92 1757.32 1428.22 1763.83 1428.22C1763.83 1428.22 1861.54 1424.79 1913.09 1491L1913.37 1490.71C1964.92 1556.91 1941.98 1656.5 1941.98 1656.5C1940.56 1663.07 1934.33 1668.2 1927.81 1668.49ZM1625.04 1972.06C1615.98 1985.76 1600.12 1974.35 1602.39 1958.37C1606.92 1905.57 1570.67 1848.22 1525.07 1749.77C1479.75 1651.32 1509.21 1584.83 1511.47 1555.15C1514.02 1525.47 1525.35 1523.19 1543.48 1534.61C1627.03 1587.11 1646 1708.39 1648.27 1726.65C1650.53 1744.92 1655.07 1749.77 1657.33 1724.66C1670.93 1603.09 1600.4 1536.6 1584.54 1516.06C1568.68 1495.51 1584.54 1497.8 1602.67 1504.64C1818.77 1582.55 1773.17 1832.24 1625.33 1972.06H1625.04ZM821.384 1599.77C821.314 1599.79 769.809 1612.03 727.638 1586.36C685.438 1560.68 675.525 1511.31 675.525 1511.31C674.958 1508.17 676.941 1504.75 680.339 1504.18C680.339 1504.18 731.886 1491.91 774.086 1517.59C816.286 1543.27 826.198 1592.64 826.198 1592.64C826.765 1595.78 824.499 1598.92 821.384 1599.77ZM1058.13 2111.36C1051.9 2122.2 1034.91 2132.76 1030.66 2092.24L1030.38 2092.52C1019.61 1989.22 970.899 1632.24 1359.48 1528.65C1377.89 1519.24 1386.39 1528.65 1365.71 1544.06C1345.04 1559.47 1160.94 1742.96 1148.76 1867.95C1145.36 1905.04 1160.09 1877.08 1160.94 1869.66C1161.79 1862.24 1252.7 1677.04 1419.52 1557.47C1438.78 1540.92 1447.56 1553.19 1439.35 1589.15C1431.13 1625.1 1493.16 1802.88 1316.43 1953.27C1252.14 2008.06 1098.63 2041.44 1058.13 2111.36ZM459.948 1838.62C449.752 1852.89 450.601 1856.6 441.255 1853.74C431.908 1850.89 395.09 1849.18 374.982 1809.51C356.94 1773.93 384.951 1733.74 391.105 1719.26C387.044 1718.33 383.251 1716.06 380.365 1712.45C374.69 1725.38 358.006 1758.73 329.887 1777.32C294.484 1800.72 270.127 1776.18 255.966 1765.9C241.806 1755.63 238.123 1756.49 241.239 1747.07C244.071 1737.65 245.77 1700.56 285.138 1680.58C322.225 1661.49 364.341 1693.31 376.437 1697.54C377.07 1693.28 379.084 1689.23 382.389 1686.17C370.448 1680.97 335.909 1664.01 316.91 1634.83C293.686 1599.16 318.043 1574.62 328.24 1560.35C338.435 1546.09 337.302 1542.38 346.932 1545.52C356.278 1548.65 393.097 1550.08 412.922 1589.75C431.584 1626.56 401.218 1668.29 396.299 1681.17C400.534 1681.34 404.673 1682.88 407.988 1685.69C414.15 1671.96 430.657 1640.09 457.901 1622.09C493.303 1598.69 517.66 1623.23 531.822 1633.5C545.983 1643.77 549.665 1642.63 546.549 1652.05C543.434 1661.47 542.017 1698.56 502.65 1718.82C468.307 1736.25 429.654 1710.24 414.517 1703.13C413.933 1707.25 412.057 1711.19 408.97 1714.23C423.008 1720.71 453.753 1737.23 471.277 1764.14C494.501 1799.81 470.145 1824.35 459.948 1838.62ZM1010.15 1741.34C997.41 1749.33 977.867 1740.77 966.538 1721.93L965.972 1721.08V1720.5H965.689L965.406 1719.65V1719.36L964.273 1721.08L963.706 1721.93C949.828 1738.48 929.153 1743.9 917.824 1734.2C906.496 1724.5 908.478 1703.1 922.639 1686.55L923.205 1685.98V1685.41H923.773L924.339 1684.83V1684.26L924.622 1683.98C921.507 1683.41 918.674 1682.27 915.842 1681.13C895.733 1672.85 884.404 1654.87 890.069 1640.89C895.733 1626.91 916.691 1622.34 936.517 1630.62C939.349 1631.76 942.182 1633.47 944.731 1634.9V1626.34C946.43 1604.36 959.741 1587.81 974.752 1588.95L978.434 1588.67C993.445 1589.81 1003.92 1608.36 1002.51 1630.05V1637.18H1006.19C1027.15 1632.04 1046.97 1639.75 1050.66 1654.3C1054.05 1669.14 1039.89 1685.12 1018.93 1689.97H1017.8V1690.26H1011.57V1691.97L1012.14 1692.54L1012.7 1693.4C1024.03 1711.94 1022.9 1733.35 1010.15 1741.34ZM787.964 1818.57C780.884 1854.24 765.873 1881.35 754.544 1879.07C743.215 1876.78 739.533 1845.96 746.614 1810.29C746.897 1809.72 746.897 1809.44 746.897 1808.87C746.614 1809.15 746.33 1809.44 745.764 1809.72C715.742 1829.7 686.287 1838.26 679.773 1828.56C673.543 1818.86 692.518 1794.6 722.539 1774.34C723.105 1774.05 723.672 1773.48 723.955 1773.48C723.672 1773.2 722.539 1773.2 722.539 1773.2L722.256 1773.77C686.854 1766.63 659.948 1751.51 662.213 1740.1C664.479 1728.68 695.067 1724.97 730.47 1732.11C730.753 1732.39 731.32 1732.39 731.886 1732.39C731.603 1732.11 731.036 1731.54 731.036 1731.25C711.211 1701 702.714 1671.32 712.344 1664.76C721.974 1658.48 746.047 1677.6 766.156 1707.85C766.439 1708.14 767.005 1708.71 767.005 1708.99C767.288 1708.71 767.288 1708.14 767.288 1707.57C774.369 1671.9 789.38 1644.79 800.709 1647.07C812.038 1649.35 815.719 1680.17 808.639 1715.84C808.356 1716.13 808.356 1716.7 808.356 1717.27C808.639 1716.98 809.205 1716.41 809.489 1716.41C839.51 1696.44 868.966 1687.88 875.48 1697.58C881.994 1707.28 862.734 1731.54 832.713 1751.8C832.147 1752.08 831.58 1752.65 831.297 1752.65H832.713C868.116 1759.79 895.022 1774.63 892.756 1786.33C890.49 1797.74 859.902 1801.45 824.499 1794.31C824.216 1794.03 823.649 1794.03 823.083 1794.03C823.366 1794.31 823.65 1794.89 823.933 1795.17C844.042 1825.42 852.256 1855.1 842.626 1861.66C832.997 1867.94 808.922 1848.82 788.814 1818.57C788.53 1818 787.964 1817.71 787.964 1817.14V1818.57ZM592.432 1789.53C565.526 1789.53 543.435 1767.27 543.435 1740.16C543.435 1713.05 565.243 1690.79 592.432 1690.79C619.621 1690.79 641.429 1712.77 641.429 1740.16C641.429 1767.55 619.338 1789.53 592.432 1789.53ZM751.614 2030.56C640.874 2068.8 502.095 2023.14 520.221 1889.31C521.637 1877.89 524.753 1869.05 530.984 1883.03C537.215 1897.01 551.943 1952.09 617.366 1978.63C630.678 1984.62 629.545 1980.91 620.765 1974.63C611.984 1968.35 555.625 1924.98 551.376 1867.05C550.527 1854.49 554.775 1849.07 570.352 1856.21C585.929 1863.34 627.845 1866.48 665.514 1917.27C703.466 1968.35 722.725 2002.88 750.764 2015.15C759.544 2018.58 760.96 2029.99 751.614 2030.85V2030.56ZM822.982 2111.92C815.051 2116.77 809.387 2107.07 814.485 2099.08C829.495 2072.54 824.115 2033.73 824.115 1971.24C824.115 1908.74 855.552 1881.06 863.766 1866.22C871.979 1851.39 878.493 1852.81 885.29 1863.37C916.161 1911.31 896.903 1979.23 893.787 1989.21C890.389 1999.2 891.521 2002.91 898.885 1990.36C935.137 1930.15 914.463 1878.21 911.064 1863.66C907.665 1849.1 915.312 1854.24 923.242 1862.23C1017.55 1955.83 933.721 2074.82 822.698 2111.92H822.982ZM1378.94 2070.87C1374.41 2070.87 1369.59 2067.73 1368.18 2063.45C1368.18 2063.45 1346.37 1996.68 1379.51 1948.74C1412.64 1900.8 1482.31 1898.23 1482.31 1898.23C1486.85 1898.23 1491.66 1901.37 1493.08 1905.65C1493.08 1905.65 1514.6 1972.42 1481.47 2020.36H1481.75C1448.66 2068.23 1379.14 2070.86 1378.94 2070.87Z" fill="#FEFEFE"/>
</g>
</svg>
