<svg width="55" height="55" viewBox="0 0 55 55" fill="none" xmlns="http://www.w3.org/2000/svg">
<g clip-path="url(#clip0_2003_7970)">
<path d="M12.8366 3.87717C9.00294 7.50192 7.82054 13.9747 13.4241 15.9942C13.8941 16.1717 14.3054 16.2309 13.8941 15.6983C13.4828 15.1657 11.6542 13.4421 12.0067 10.2908C12.0654 9.63978 12.1829 9.76554 12.2417 10.239C12.3004 10.7124 12.7925 13.8563 14.959 15.2175C15.429 15.5134 15.7228 15.4542 15.7889 14.6848C15.8476 13.9155 16.6114 12.1919 15.4364 9.63978C14.254 7.08766 13.3139 5.60078 13.4314 4.23225C13.4902 3.81799 13.0789 3.5221 12.8439 3.87717H12.8366Z" fill="#D6822F"/>
<path d="M54.6916 24.7447C53.2669 22.6587 50.3292 21.6526 49.0073 24.1899C48.8898 24.4045 48.8384 24.5968 49.1101 24.434C49.3892 24.2713 50.3146 23.5168 51.754 23.9014C52.0551 23.9754 51.989 24.0198 51.754 24.0124C51.5263 24.0124 50.0355 24.0272 49.2497 24.9667C49.0807 25.1664 49.0881 25.3143 49.4406 25.3957C49.7931 25.4771 50.5496 25.9653 51.8128 25.5733C53.0833 25.1886 53.8397 24.8335 54.464 24.9889C54.6549 25.048 54.8238 24.8705 54.6696 24.7299L54.6916 24.7447Z" fill="#D6822F"/>
<path d="M41.1049 13.8857C38.7181 14.9288 37.0877 17.7546 39.3717 19.6409C39.5627 19.8037 39.7463 19.8998 39.6435 19.5818C39.5406 19.2637 38.9752 18.1467 39.6582 16.7411C39.7903 16.4452 39.8271 16.5266 39.7757 16.7559C39.7243 16.9853 39.4378 18.5387 40.2163 19.5374C40.3852 19.7593 40.5321 19.7815 40.6863 19.4264C40.8406 19.0787 41.4868 18.3982 41.362 17.0074C41.2371 15.6167 41.0388 14.766 41.3253 14.1446C41.4207 13.9597 41.2812 13.7526 41.1123 13.8783L41.1049 13.8857Z" fill="#D6822F"/>
<path d="M38.4023 51.2191C39.0119 48.4007 37.5504 45.131 34.4218 45.9669C34.1574 46.0335 33.9518 46.137 34.2969 46.248C34.6495 46.359 35.9934 46.5661 36.8013 48.09C36.9775 48.4007 36.8821 48.3785 36.7131 48.1787C36.5442 47.9864 35.3545 46.7288 33.9665 46.7954C33.6653 46.8102 33.5478 46.9286 33.7608 47.291C33.9738 47.6535 34.1574 48.667 35.472 49.4437C36.7866 50.2204 37.6679 50.5903 38.0277 51.2413C38.1306 51.4484 38.4023 51.4558 38.4023 51.2191Z" fill="#D6822F"/>
<path d="M33.6511 0.252479C30.7723 1.21415 28.5984 4.29888 31.044 6.72524C31.2496 6.93237 31.4479 7.06553 31.3598 6.68826C31.2717 6.31099 30.7355 4.96465 31.6756 3.40379C31.8665 3.0783 31.8959 3.17447 31.8078 3.43338C31.727 3.69229 31.2276 5.45288 32.0281 6.69565C32.2044 6.96936 32.3733 7.00635 32.5863 6.62168C32.7992 6.23701 33.6144 5.51946 33.6144 3.89942C33.6144 2.27938 33.4749 1.27333 33.8641 0.585364C33.9963 0.378236 33.8494 0.126723 33.6438 0.252479H33.6511Z" fill="#D6822F"/>
<path d="M3.87732 41.2195C6.56526 41.1381 9.18711 39.0594 7.71829 36.3741C7.59344 36.1448 7.46124 35.9821 7.43921 36.3298C7.41718 36.6774 7.54203 37.9572 6.34494 39.0446C6.10259 39.2739 6.10259 39.1852 6.24212 38.9854C6.38166 38.7857 7.24092 37.4098 6.87372 36.1522C6.79293 35.8785 6.66074 35.8045 6.38166 36.0782C6.10259 36.352 5.22864 36.7514 4.82471 38.1347C4.42079 39.5107 4.28125 40.4058 3.7745 40.8866C3.61293 41.0271 3.67169 41.286 3.87732 41.2269V41.2195Z" fill="#D6822F"/>
<path d="M1.33626 36.6098C1.43173 32.0456 4.86878 27.5406 9.39274 29.9891C9.77464 30.1963 10.0537 30.4256 9.47353 30.4626C8.89334 30.5069 6.74152 30.322 4.94222 32.3637C4.56032 32.778 4.70721 32.778 5.04503 32.5412C5.38286 32.3045 7.66688 30.8102 9.78198 31.4168C10.2447 31.55 10.3769 31.7719 9.92152 32.2601C9.46619 32.7484 8.81256 34.2353 6.50651 34.9454C4.20046 35.6556 2.70961 35.9071 1.9091 36.7726C1.68143 37.0463 1.24813 36.9575 1.34361 36.595L1.33626 36.6098Z" fill="#D6822F"/>
<path d="M35.4941 2.35903C38.3656 1.36777 41.9642 2.55136 41.4942 6.02077C41.4575 6.31666 41.3767 6.54598 41.2151 6.18351C41.0535 5.82103 40.6716 4.39333 38.9752 3.70537C38.63 3.55002 38.6594 3.64619 38.887 3.80893C39.1147 3.97167 40.5762 5.09609 40.6863 6.59777C40.7084 6.92325 40.5982 7.06381 40.1943 6.87887C39.7904 6.69393 38.7034 6.61256 37.7267 5.29582C36.7425 3.97167 36.2432 3.07658 35.5161 2.75849C35.2884 2.66972 35.2517 2.37383 35.4941 2.35163V2.35903Z" fill="#D6822F"/>
<path d="M24.83 42.6167C22.2816 44.2589 18.4994 43.9778 18.1469 40.4936C18.1101 40.1977 18.1322 39.9536 18.3745 40.2717C18.6169 40.5824 19.3219 41.8769 21.1359 42.1432C21.5105 42.2098 21.4517 42.121 21.1947 42.0175C20.9376 41.9139 19.2485 41.1668 18.7858 39.739C18.683 39.4284 18.7638 39.2656 19.1971 39.347C19.6377 39.4284 20.7026 39.2434 21.9658 40.2939C23.229 41.3443 23.934 42.0988 24.7125 42.232C24.9549 42.2616 25.065 42.5353 24.83 42.6167Z" fill="#D6822F"/>
<path d="M42.2212 29.5741C43.8001 31.638 43.8369 34.8928 40.9212 35.455C40.6715 35.5068 40.4659 35.5068 40.7156 35.2701C40.9653 35.0408 42.0008 34.338 42.089 32.7698C42.1183 32.4443 42.0449 32.5035 41.9788 32.7328C41.9127 32.9621 41.406 34.4564 40.2309 34.9594C39.9739 35.0704 39.8343 35.0186 39.871 34.6339C39.9078 34.2493 39.6727 33.3542 40.4659 32.1928C41.2591 31.0314 41.8393 30.3804 41.898 29.6998C41.898 29.4927 42.133 29.3817 42.2138 29.5741H42.2212Z" fill="#D6822F"/>
<path d="M0.300421 23.1393C4.00919 18.9819 10.7731 17.5764 13.0204 23.487C13.2187 23.9826 13.2921 24.4265 12.7193 23.9974C12.1465 23.5684 10.3031 21.6672 7.01293 22.1185C6.32993 22.1998 6.46947 22.3182 6.96887 22.37C7.46827 22.4218 10.7731 22.873 12.2493 25.144C12.5724 25.6397 12.5137 25.9503 11.7058 26.0317C10.898 26.1131 9.106 26.9712 6.40337 25.7728C3.70074 24.5744 2.12176 23.6054 0.689658 23.7681C0.256356 23.8421 -0.0667844 23.413 0.300421 23.1467V23.1393Z" fill="#D6822F"/>
<path d="M35.5825 53.3577C32.1528 54.9703 27.6729 53.9791 28.0254 49.6146C28.0475 49.2447 28.1283 48.9488 28.3559 49.3779C28.5762 49.8069 29.1417 51.5231 31.2568 52.1519C31.6902 52.2925 31.6387 52.1815 31.3523 52.0114C31.0659 51.8412 29.2078 50.6354 28.9728 48.7861C28.9214 48.3866 29.0463 48.2017 29.553 48.3718C30.0598 48.5494 31.389 48.4976 32.6743 50.0067C33.9595 51.5157 34.6351 52.5662 35.5385 52.8621C35.8175 52.936 35.891 53.2985 35.5899 53.3651L35.5825 53.3577Z" fill="#D6822F"/>
<path d="M54.9268 26.4021C53.076 31.3584 47.5973 34.9462 43.5948 30.5077C43.2496 30.1378 43.0367 29.7753 43.6829 29.9529C44.3366 30.1304 46.6132 31.1661 49.3673 29.6348C49.9401 29.3241 49.7785 29.2723 49.3232 29.3981C48.8679 29.5238 45.798 30.271 43.7197 28.7841C43.2643 28.4586 43.2056 28.1627 43.8959 27.815C44.5789 27.4599 45.8641 26.084 48.6622 26.2024C51.453 26.3207 53.1789 26.624 54.3833 25.9879C54.7432 25.7733 55.1765 26.047 54.9341 26.4021H54.9268Z" fill="#D6822F"/>
<path d="M34.9141 15.6595C33.8198 14.9938 33.5628 13.714 33.5628 13.714C33.5481 13.6326 33.6069 13.5513 33.6877 13.5291C33.6877 13.5291 35.0243 13.211 36.1186 13.8768C37.2128 14.5425 37.4699 15.8223 37.4699 15.8223C37.4846 15.9037 37.4331 15.9924 37.345 16.0072C37.345 16.0072 36.0084 16.3253 34.9141 15.6595Z" fill="#D6822F"/>
<path d="M11.2592 29.6864C11.3767 28.17 12.5812 27.2157 12.5812 27.2157C12.662 27.1565 12.7795 27.1713 12.8456 27.2527C12.8456 27.2527 13.8884 28.5028 13.7709 30.0267C13.6534 31.5432 12.449 32.4975 12.449 32.4975C12.3682 32.564 12.2507 32.5492 12.1846 32.4679C12.1846 32.4679 11.1417 31.2177 11.2592 29.6938V29.6864Z" fill="#D6822F"/>
<path d="M27.3045 41.6844C28.6411 40.9742 30.0879 41.4995 30.0879 41.4995C30.1834 41.5365 30.2275 41.6474 30.1981 41.7436C30.1981 41.7436 29.6987 43.297 28.3547 44.0072C27.0181 44.7174 25.5713 44.1921 25.5713 44.1921C25.4758 44.1552 25.4244 44.0516 25.4611 43.948C25.4611 43.948 25.9605 42.3946 27.3045 41.6844Z" fill="#D6822F"/>
<path d="M34.3782 44.3469C33.6071 45.9004 31.5654 46.2777 31.5654 46.2777C31.4332 46.2998 31.279 46.2185 31.2202 46.1001C31.2202 46.1001 30.2949 44.2286 31.0733 42.6751C31.8445 41.1216 33.8861 40.7444 33.8861 40.7444C34.0183 40.7148 34.1726 40.7961 34.2313 40.9219C34.2313 40.9219 35.1493 42.7935 34.3782 44.3469Z" fill="#D6822F"/>
<path d="M42.8384 48.3503C45.8201 48.3873 48.8239 46.2124 47.3257 43.1721C47.2008 42.9132 47.0539 42.7208 47.0172 43.1055C46.9731 43.4828 47.0539 44.9105 45.6732 46.0571C45.3942 46.3012 45.4015 46.1976 45.5631 45.9831C45.7247 45.7686 46.7455 44.2891 46.4003 42.8762C46.3269 42.5655 46.18 42.4767 45.8495 42.7652C45.5264 43.0537 44.5423 43.4532 44.0282 44.9697C43.5141 46.4787 43.3158 47.4552 42.7356 47.9656C42.5447 48.1136 42.6034 48.3947 42.8311 48.3429L42.8384 48.3503Z" fill="#D6822F"/>
<path d="M47.6329 41.4486C46.7075 40.3094 47.0601 38.534 47.0601 38.534C47.0894 38.4157 47.1923 38.3195 47.3024 38.3121C47.3024 38.3121 49.0062 38.1937 49.9316 39.3329C50.857 40.4721 50.5044 42.2475 50.5044 42.2475C50.4824 42.3659 50.3723 42.4621 50.2621 42.4695C50.2621 42.4695 48.5583 42.5878 47.6329 41.4486Z" fill="#D6822F"/>
<path d="M50.5718 37.5349C48.5228 37.7494 46.8336 35.9149 46.8336 35.9149C46.7235 35.7965 46.7088 35.5894 46.7895 35.4488C46.7895 35.4488 48.0748 33.311 50.1238 33.0964C52.1728 32.8893 53.8619 34.7165 53.8619 34.7165C53.9721 34.8348 53.9941 35.042 53.9133 35.1825C53.9133 35.1825 52.6281 37.3204 50.5791 37.5349H50.5718Z" fill="#D6822F"/>
<path d="M5.36782 16.3555C4.0312 14.6393 4.62607 12.0576 4.62607 12.0576C4.66279 11.8874 4.82436 11.7543 4.99327 11.7469C4.99327 11.7469 7.52699 11.6581 8.86362 13.3743C10.2002 15.0905 9.61272 17.6648 9.61272 17.6648C9.57599 17.8276 9.41442 17.9755 9.24551 17.9755C9.24551 17.9755 6.71179 18.0643 5.37517 16.3481L5.36782 16.3555Z" fill="#D6822F"/>
<path d="M16.5618 2.62575C17.4211 1.38298 19.2277 1.31641 19.2277 1.31641C19.3452 1.31641 19.4701 1.39778 19.5068 1.50874C19.5068 1.50874 20.0723 3.23974 19.213 4.48251C18.3538 5.72528 16.5471 5.79186 16.5471 5.79186C16.4296 5.79186 16.3048 5.71049 16.2681 5.59953C16.2681 5.59953 15.7099 3.86852 16.5692 2.62575H16.5618Z" fill="#D6822F"/>
<path d="M3.89276 18.2045C3.89276 18.8259 3.39337 19.3289 2.77646 19.3289C2.15956 19.3289 1.66016 18.8259 1.66016 18.2045C1.66016 17.5831 2.15956 17.0801 2.77646 17.0801C3.39337 17.0801 3.89276 17.5831 3.89276 18.2045Z" fill="#D6822F"/>
<path d="M42.5666 49.9174C42.5666 50.5388 42.0672 51.0418 41.4503 51.0418C40.8334 51.0418 40.334 50.5388 40.334 49.9174C40.334 49.296 40.8334 48.793 41.4503 48.793C42.0672 48.793 42.5666 49.296 42.5666 49.9174Z" fill="#D6822F"/>
<path d="M8.18964 43.8529C8.18964 44.4743 7.69024 44.9773 7.07334 44.9773C6.45643 44.9773 5.95703 44.4743 5.95703 43.8529C5.95703 43.2315 6.45643 42.7285 7.07334 42.7285C7.69024 42.7285 8.18964 43.2315 8.18964 43.8529Z" fill="#D6822F"/>
<path d="M45.7606 36.6846C45.7606 37.1728 45.3641 37.5723 44.8793 37.5723C44.3946 37.5723 43.998 37.1728 43.998 36.6846C43.998 36.1963 44.3946 35.7969 44.8793 35.7969C45.3641 35.7969 45.7606 36.1963 45.7606 36.6846Z" fill="#D6822F"/>
<path d="M2.54106 27.977C2.54106 28.6872 1.97556 29.2568 1.27053 29.2568C0.565496 29.2568 0 28.6872 0 27.977C0 27.2669 0.565496 26.6973 1.27053 26.6973C1.97556 26.6973 2.54106 27.2669 2.54106 27.977Z" fill="#D6822F"/>
<path d="M40.8926 9.89109C40.8926 10.5938 40.3271 11.1708 39.6221 11.1708C38.9171 11.1708 38.3516 10.6012 38.3516 9.89109C38.3516 9.18093 38.9244 8.61133 39.6221 8.61133C40.3198 8.61133 40.8926 9.18833 40.8926 9.89109Z" fill="#D6822F"/>
<path d="M28.2682 0.755032C28.5473 3.43291 29.8105 12.6871 19.7344 15.3724C19.257 15.6165 19.0367 15.3724 19.5728 14.9729C20.1089 14.5735 24.8826 9.8169 25.1984 6.57682C25.2865 5.61515 24.9046 6.3401 24.8826 6.53244C24.8605 6.72477 22.5031 11.5257 18.1774 14.6252C17.678 15.0543 17.4503 14.7362 17.6633 13.8041C17.8763 12.872 16.2679 8.26344 20.8507 4.36498C22.5178 2.94468 26.4983 2.07917 27.5485 0.266801C27.71 -0.0143018 28.1507 -0.288007 28.2609 0.76243L28.2682 0.755032Z" fill="#D6822F"/>
<path d="M51.3933 14.2319C51.3787 16.5843 51.5843 24.7511 42.5657 26.1048C42.1251 26.2676 41.9562 26.0309 42.4629 25.7424C42.9697 25.4465 47.5818 21.7773 48.1619 18.9885C48.3309 18.16 47.9269 18.7518 47.8902 18.9219C47.8535 19.0847 45.3418 23.0275 41.2805 25.2985C40.8105 25.624 40.6416 25.3281 40.9133 24.5366C41.185 23.7451 40.2376 19.5803 44.5927 16.6435C46.1864 15.5709 49.7189 15.2084 50.8132 13.7363C50.9821 13.507 51.3933 13.3147 51.386 14.2393L51.3933 14.2319Z" fill="#D6822F"/>
<path d="M17.4349 38.2821C17.4349 37.9714 16.6197 37.7199 15.6062 37.7199C15.5034 37.7199 15.4079 37.7199 15.3124 37.7199C15.4005 37.6755 15.4813 37.6311 15.5695 37.5794C16.4434 37.0689 17.0309 36.4402 16.8694 36.1665C16.7151 35.8927 15.8853 36.0925 15.004 36.5955C14.9158 36.6473 14.835 36.6991 14.7469 36.7508C14.7983 36.6695 14.8497 36.5807 14.9011 36.4993C15.4079 35.619 15.5988 34.7757 15.3271 34.6204C15.0627 34.465 14.4311 35.0494 13.9244 35.9297C13.873 36.0185 13.8289 36.1073 13.7848 36.196C13.7848 36.0925 13.7922 35.9963 13.7922 35.8927C13.7922 34.8793 13.5425 34.0508 13.234 34.0508C12.9256 34.0508 12.6759 34.8793 12.6759 35.8927C12.6759 35.9963 12.6759 36.0925 12.6832 36.196C12.6392 36.1073 12.5951 36.0185 12.5437 35.9297C12.0369 35.0494 11.4127 34.4576 11.141 34.6204C10.8692 34.7757 11.0602 35.619 11.5669 36.4993C11.6183 36.5881 11.6697 36.6769 11.7211 36.7582C11.6404 36.7065 11.5522 36.6547 11.4641 36.6029C10.5902 36.0925 9.75293 35.9001 9.5987 36.1739C9.44447 36.4476 10.0247 37.0763 10.8986 37.5868C10.9867 37.6385 11.0749 37.6829 11.163 37.7273C11.0675 37.7273 10.9647 37.7273 10.8619 37.7273C9.8484 37.7273 9.0332 37.9788 9.0332 38.2895C9.0332 38.6002 9.8484 38.8517 10.8619 38.8517C10.9647 38.8517 11.0602 38.8517 11.163 38.8443C11.0749 38.8887 10.9867 38.9331 10.8986 38.9923C10.0247 39.5027 9.44447 40.1315 9.5987 40.3978C9.75293 40.6715 10.5902 40.4792 11.4641 39.9687C11.5522 39.917 11.6404 39.8652 11.7211 39.8134C11.6697 39.8948 11.6183 39.9761 11.5669 40.0649C11.0602 40.9452 10.8692 41.7885 11.141 41.9439C11.4053 42.0992 12.0369 41.5148 12.5437 40.6271C12.5951 40.5383 12.6392 40.4496 12.6832 40.3608C12.6832 40.457 12.6759 40.5605 12.6759 40.6567C12.6759 41.6775 12.9256 42.4987 13.234 42.4987C13.5425 42.4987 13.7922 41.6775 13.7922 40.6567C13.7922 40.5531 13.7922 40.457 13.7848 40.3608C13.8289 40.4496 13.873 40.5383 13.9244 40.6271C14.4311 41.5074 15.0554 42.0992 15.3271 41.9439C15.5988 41.7885 15.4079 40.9452 14.9011 40.0649C14.8497 39.9761 14.7983 39.8948 14.7469 39.806C14.8277 39.8578 14.9158 39.9096 15.004 39.9613C15.8779 40.4718 16.7151 40.6641 16.8694 40.3904C17.0236 40.1167 16.4434 39.4879 15.5695 38.9849C15.4813 38.9331 15.3932 38.8887 15.3051 38.8369C15.4005 38.8369 15.5034 38.8443 15.6062 38.8443C16.6197 38.8443 17.4349 38.5928 17.4349 38.2821ZM13.2487 39.8578C12.3968 39.8578 11.7138 39.1624 11.7138 38.3117C11.7138 37.461 12.4041 36.7656 13.2487 36.7656C14.0933 36.7656 14.7836 37.461 14.7836 38.3117C14.7836 39.1624 14.0933 39.8578 13.2487 39.8578Z" fill="#D6822F"/>
<path d="M45.0188 40.465C44.96 40.0137 43.9098 39.126 42.6246 39.4589C43.3884 38.4159 43.0726 37.0103 42.7568 36.8032C42.4116 36.5887 42.3088 36.7514 42.0518 36.6331C41.7947 36.5221 41.8388 36.3372 41.4495 36.2262C41.0016 36.1005 39.709 36.7514 39.5548 38.1643C38.9085 37.0769 37.5572 36.8032 37.2487 37.0103C36.9109 37.2397 37.0137 37.4024 36.8007 37.5873C36.5877 37.7797 36.4409 37.6539 36.1838 37.972C35.8607 38.3567 35.9488 39.9693 37.4029 40.6351C36.081 41.1899 35.7358 42.773 35.9562 43.1132C36.1838 43.4535 36.3454 43.35 36.5363 43.5645C36.7199 43.779 36.6098 43.927 36.9182 44.1859C37.2193 44.4374 38.2842 44.4374 39.048 43.705C39.1582 44.8146 40.0101 45.6284 40.3553 45.6284C40.7665 45.6284 40.7665 45.4286 41.0456 45.3842C41.3247 45.3399 41.3835 45.5174 41.7727 45.399C42.2133 45.2659 42.9404 44.0453 42.3529 42.7804C43.6895 43.2316 44.9821 42.2995 45.0335 41.9001C45.0922 41.4932 44.9086 41.4636 44.9086 41.1751C44.9086 40.894 45.0922 40.857 45.0408 40.4576L45.0188 40.465ZM41.3688 41.3674C41.075 42.048 40.2892 42.3513 39.6209 42.0554C38.9452 41.7521 38.6441 40.968 38.9379 40.2948C39.2316 39.6142 40.0174 39.3109 40.6858 39.6068C41.3541 39.9027 41.6625 40.6943 41.3688 41.3748V41.3674Z" fill="#D6822F"/>
<path fill-rule="evenodd" clip-rule="evenodd" d="M9.12826 46.8556C9.09154 46.1899 9.83329 45.6055 10.788 45.5463H10.8247H10.8541H10.9055H10.9863H11.0084H11.0598H11.0744H11.1038H11.1332H11.1479V45.5315V45.5241V45.5093V45.5019V45.4871H11.1332V45.4797V45.4649V45.4575V45.4427V45.4353V45.4205H11.1259V45.4057V45.3909V45.3761V45.3614H11.1185V45.354V45.3392V45.3318V45.3244L11.1038 45.2948V45.2726H11.0891V45.2652V45.2578V45.243V45.2208C10.7366 44.3257 10.9496 43.401 11.5665 43.1569C12.1834 42.9128 12.9692 43.4454 13.3144 44.3405L13.3291 44.3849L13.3438 44.4219V44.4293L13.3585 44.4663L13.3732 44.5033L13.3878 44.5476V44.5846H13.4025V44.592V44.6216H13.4099V44.629V44.6438V44.6512V44.6586V44.6734V44.6882V44.703V44.6956H13.4172V44.6808V44.6734V44.666V44.6586V44.6512L13.4246 44.6438V44.6364V44.629L13.4319 44.6142V44.6068V44.5994L13.4392 44.5846L13.4466 44.5698V44.5624V44.555V44.5476V44.5402V44.5328L13.4613 44.518L13.4907 44.4885L13.5127 44.4663C14.2544 43.8523 15.1945 43.7783 15.6131 44.2961C16.0317 44.8139 15.7747 45.7238 15.0329 46.3378L14.9962 46.3674L14.9742 46.3896L14.9448 46.4118L14.9301 46.4266H14.9154V46.4414V46.4488L14.9081 46.4562L14.9007 46.4636V46.471L14.8934 46.4784H14.9081H14.9228V46.4858H14.9301H14.9374H14.9448V46.4932H14.9521H14.9668V46.508L15.0035 46.5228L15.0403 46.5449L15.077 46.5671C15.8848 47.085 16.2447 47.9653 15.8848 48.5275C15.525 49.0897 14.5849 49.1267 13.7771 48.6088L13.7477 48.5866L13.7257 48.5718L13.7036 48.5571V48.5497H13.6963V48.5423L13.6889 48.5349V48.5275V48.5201V48.5127H13.6816V48.4979V48.4905H13.6743V48.4757V48.4683L13.6596 48.4535V48.4461H13.6522V48.4313C13.6375 48.5571 13.6155 48.6976 13.5788 48.8308C13.3364 49.7628 12.6241 50.3842 11.9778 50.2141C11.3388 50.0439 11.0157 49.1488 11.2507 48.2168C11.2874 48.0762 11.3315 47.9505 11.3902 47.8247L11.3682 47.8321H11.3535H11.3462H11.3315H11.3168H11.3021H11.2874H11.2801H11.2727H11.258H11.236H11.2213H11.1993H11.1773H11.1552H11.1259H11.0965H11.0891C10.1344 47.8913 9.32655 47.3957 9.28983 46.7299L9.12826 46.8556Z" fill="#D6822F"/>
<path fill-rule="evenodd" clip-rule="evenodd" d="M12.6469 20.2614C12.3898 19.9655 12.5294 19.4254 12.9553 19.0556L12.97 19.0408L12.9774 19.0334L12.992 19.0186L13.0067 19.0038H13.0214V18.989V18.9816H13.0141H13.0067H12.9994H12.992H12.9774V18.9742L12.9627 18.9668H12.9553C12.478 18.6709 12.2503 18.1605 12.4486 17.8276C12.6469 17.4947 13.1977 17.4577 13.6824 17.7462L13.7044 17.761L13.7191 17.7758L13.7338 17.7906L13.7558 17.8054L13.7779 17.8202L13.7926 17.835L13.8072 17.8498V17.8572V17.8646V17.8498V17.835V17.8202V17.8054V17.798V17.7906V17.7758V17.7684V17.7462V17.7388V17.724V17.7166V17.7018V17.6722V17.6575C13.9394 17.11 14.3507 16.7328 14.7253 16.8215C15.0998 16.9103 15.3054 17.4281 15.1806 17.9755V18.0051H15.1732V18.0273V18.0495V18.0643V18.0865V18.0939V18.1087V18.1161V18.1235V18.1309V18.1383H15.1879H15.1953H15.2026H15.21H15.2173H15.2247H15.232H15.2467H15.2614H15.2761H15.3054H15.3348H15.3568C15.915 18.0865 16.3924 18.3676 16.4291 18.7523C16.4658 19.1443 16.0399 19.4994 15.4817 19.5438H15.4523H15.4376H15.3862H15.3422H15.2908H15.2761C15.3201 19.6104 15.3569 19.6844 15.3862 19.7583C15.6065 20.2762 15.489 20.8236 15.1365 20.9789C14.7767 21.1343 14.314 20.831 14.0937 20.3131C14.0643 20.2392 14.0349 20.1652 14.0202 20.0838V20.0912V20.0986V20.106L14.0129 20.1134L13.9982 20.1282H13.9908V20.143C13.5649 20.5129 13.0214 20.572 12.7644 20.2762L12.6469 20.2614Z" fill="#D6822F"/>
<path fill-rule="evenodd" clip-rule="evenodd" d="M29.6124 13.8183C29.2231 13.7887 28.9514 13.3079 28.9881 12.7457V12.7235V12.7087V12.6939V12.6717V12.6495V12.6273V12.6199V12.6051V12.5977V12.5903V12.5829V12.5755V12.5607H28.9734H28.9661H28.9587H28.9514H28.922H28.9073H28.9H28.8926C28.3492 12.6939 27.8351 12.4941 27.7396 12.1169C27.6515 11.7322 28.0187 11.318 28.5622 11.1922H28.5915V11.1848H28.6062H28.6283H28.6503H28.6723H28.6944H28.7164H28.7311H28.7531V11.1774V11.17V11.1626V11.1552V11.1478V11.1404L28.7384 11.1256L28.7237 11.1034C28.43 10.6226 28.4593 10.0678 28.7898 9.86066C29.1203 9.65353 29.6271 9.87546 29.9208 10.3637L29.9355 10.3859V10.4007H29.9429L29.9502 10.4229V10.4377V10.4525V10.4599V10.4673V10.4746V10.482V10.4894V10.4746V10.4673V10.4525V10.4451V10.4303L29.9649 10.4081L29.9796 10.3859L29.9943 10.3637C30.3541 9.93463 30.8902 9.79408 31.184 10.0456C31.4778 10.2971 31.4264 10.8519 31.0592 11.281L31.0445 11.2958V11.3106H31.0298L31.0151 11.3254V11.3328V11.3401L31.0077 11.3475C31.0885 11.3623 31.162 11.3919 31.2354 11.4215C31.7568 11.636 32.0506 12.1021 31.9037 12.4646C31.7568 12.827 31.2134 12.9454 30.6993 12.7309C30.6259 12.7013 30.5524 12.6569 30.4863 12.6199V12.6347V12.6495V12.6643V12.6717V12.6865V12.7013V12.7161V12.7309V12.7457V12.7531V12.7679V12.7827V12.79V12.8048V12.827V12.8418C30.4422 13.4114 30.0971 13.8405 29.7078 13.8109L29.6124 13.8183Z" fill="#D6822F"/>
<path d="M36.2512 9.03309C36.2512 9.03309 36.2219 9.03309 36.2145 9.02569C36.2219 9.02569 36.2366 9.0109 36.2512 9.0035C37.0297 8.47828 37.5218 7.8495 37.3602 7.59798C37.1913 7.34647 36.4275 7.56839 35.649 8.08622C35.6343 8.09361 35.627 8.10101 35.6197 8.10841C35.6197 8.09361 35.6197 8.08621 35.627 8.07142C35.8106 7.14674 35.7151 6.34782 35.4214 6.28864C35.1276 6.22946 34.7384 6.93221 34.5548 7.85689C34.5548 7.87169 34.5548 7.88648 34.5548 7.89388C34.5548 7.87909 34.5401 7.87169 34.5327 7.85689C34.0113 7.07276 33.387 6.57714 33.1373 6.73988C32.8876 6.91002 33.1006 7.67936 33.6221 8.46348C33.6294 8.47088 33.6367 8.48568 33.6441 8.49307C33.6294 8.49307 33.6147 8.49307 33.6074 8.48568C32.6894 8.30074 31.8962 8.39691 31.8374 8.69281C31.7787 8.9961 32.4764 9.38077 33.3944 9.5657C33.4091 9.5657 33.4238 9.5657 33.4311 9.5657C33.4238 9.5657 33.4091 9.5805 33.3944 9.5879C32.6159 10.1131 32.1165 10.7419 32.2854 10.9934C32.4543 11.2449 33.2181 11.023 33.9966 10.5052C34.004 10.5052 34.0186 10.4904 34.026 10.483C34.026 10.4978 34.026 10.5126 34.0186 10.52C33.835 11.4447 33.9305 12.2436 34.2243 12.3028C34.518 12.3619 34.9073 11.6592 35.0909 10.7345C35.0909 10.7197 35.0909 10.7049 35.0982 10.6975C35.0982 10.7049 35.1129 10.7197 35.1203 10.7271C35.6417 11.5112 36.2659 12.0069 36.5156 11.8441C36.7653 11.674 36.545 10.9046 36.0309 10.1205C36.0309 10.1131 36.0162 10.0983 36.0089 10.0909C36.0236 10.0909 36.0383 10.0909 36.0456 10.0983C36.9636 10.2833 37.7568 10.1871 37.8155 9.89119C37.8743 9.59529 37.1766 9.20323 36.2586 9.01829L36.2512 9.03309Z" fill="#D6822F"/>
<path d="M44.5725 10.6457C44.5725 10.6457 43.368 10.1945 42.7658 9.26978C42.1636 8.3451 42.7952 7.70892 43.0596 7.33904C43.324 6.96917 43.3019 6.87301 43.5443 6.94698C43.7866 7.02095 44.7414 7.06534 45.2628 8.09358C45.7842 9.12183 44.8222 10.298 44.8148 10.5347C44.8075 10.7641 44.6606 10.7493 44.5798 10.6457H44.5725Z" fill="#D6822F"/>
<path d="M44.9617 11.2458C44.9617 11.2458 46.1661 11.6971 46.7683 12.6218C47.3705 13.5464 46.739 14.1826 46.4746 14.5525C46.2102 14.9224 46.2396 15.0185 45.9899 14.9372C45.7475 14.8558 44.7928 14.8188 44.2787 13.7906C43.7572 12.7623 44.712 11.5861 44.7267 11.3568C44.7414 11.1275 44.8809 11.1423 44.9617 11.2458Z" fill="#D6822F"/>
<path d="M45.0637 10.7495C45.0637 10.7495 45.5117 9.53633 46.4297 8.92974C47.3477 8.32315 47.9793 8.95933 48.3465 9.22564C48.7137 9.49195 48.8092 9.46976 48.7284 9.71387C48.655 9.95799 48.6109 10.9197 47.5901 11.4375C46.5692 11.9627 45.4015 11.001 45.1738 10.9862C44.9462 10.9714 44.9609 10.8309 45.0637 10.7495Z" fill="#D6822F"/>
<path d="M44.4766 11.134C44.4766 11.134 44.0286 12.3472 43.1106 12.9537C42.1926 13.5603 41.561 12.9242 41.1938 12.6578C40.8266 12.3915 40.7311 12.4211 40.8119 12.177C40.8927 11.9329 40.9294 10.9712 41.9502 10.446C42.971 9.92819 44.1388 10.8899 44.3664 10.8973C44.5941 10.912 44.5794 11.0526 44.4766 11.134Z" fill="#D6822F"/>
<path d="M45.1225 10.6086C44.9462 10.3867 44.6378 10.3571 44.4174 10.5272C44.2045 10.6974 44.1677 11.0155 44.3367 11.23C44.5056 11.4445 44.8214 11.4815 45.0417 11.3114C45.2547 11.1412 45.2914 10.8231 45.1225 10.6086Z" fill="#D6822F"/>
<path d="M21.4154 49.304C21.4154 49.304 19.5867 48.9933 18.4851 47.8467C17.3835 46.7075 18.1032 45.6274 18.3823 45.0282C18.654 44.4365 18.5952 44.3033 18.9624 44.3477C19.3296 44.3921 20.6883 44.1923 21.7018 45.5091C22.7153 46.8258 21.6724 48.7492 21.7238 49.082C21.7679 49.4075 21.5623 49.4297 21.4154 49.304Z" fill="#D6822F"/>
<path d="M22.1278 50.0359C22.1278 50.0359 23.9565 50.354 25.0581 51.4932C26.1597 52.6398 25.44 53.7124 25.1683 54.3116C24.8965 54.9108 24.9553 55.0366 24.5881 54.9922C24.2209 54.9478 22.8622 55.1549 21.8487 53.8308C20.8352 52.514 21.8708 50.5907 21.8267 50.2578C21.7826 49.9323 21.9883 49.9101 22.1278 50.0359Z" fill="#D6822F"/>
<path d="M22.1364 49.3179C22.1364 49.3179 22.4448 47.4759 23.5758 46.3663C24.7141 45.2567 25.7864 45.9817 26.3739 46.2628C26.9614 46.5365 27.0936 46.4773 27.0496 46.8472C27.0055 47.217 27.2111 48.5856 25.8965 49.6064C24.5893 50.6273 22.6798 49.5842 22.3493 49.6286C22.0189 49.673 22.0042 49.4659 22.129 49.3253L22.1364 49.3179Z" fill="#D6822F"/>
<path d="M21.4088 50.0295C21.4088 50.0295 21.1004 51.864 19.962 52.981C18.831 54.0907 17.7588 53.3657 17.1639 53.0846C16.5764 52.8109 16.4442 52.8701 16.4883 52.5002C16.5323 52.1303 16.334 50.7618 17.6413 49.741C18.9485 48.7201 20.858 49.7706 21.1885 49.7188C21.519 49.6744 21.5337 49.8815 21.4088 50.0221V50.0295Z" fill="#D6822F"/>
<path d="M22.1867 49.1037C21.8856 48.8374 21.4302 48.8744 21.1732 49.1851C20.9161 49.4884 20.9529 49.9471 21.254 50.206C21.5551 50.4649 22.0104 50.4279 22.2675 50.1246C22.5245 49.8213 22.4951 49.3627 22.1867 49.1037Z" fill="#D6822F"/>
</g>
<defs>
<clipPath id="clip0_2003_7970">
<rect width="55" height="55" fill="white"/>
</clipPath>
</defs>
</svg>
